<svg data-name="a728da0d-a6bd-48cc-8386-3b36fd525f7c" xmlns="http://www.w3.org/2000/svg" viewBox="0 0 984 393.2"><circle cx="538" cy="366.34" r="25" fill="#3f3d56"/><circle cx="626" cy="366.34" r="25" fill="#3f3d56"/><circle cx="714" cy="366.34" r="25" fill="#3f3d56"/><path d="M210 332H88.17L63 390.4H17.47l112.7-249.2h36.75L280 390.4h-45.18Zm-15.05-35-45.88-106.8L103.22 297ZM472.82 213.65V390.4h-43.05V362a56.62 56.62 0 0 1-23.1 23q-15 8.22-34.29 8.23-23.11 0-41-11.2t-27.65-31.85Q294 329.5 294 302.2t10-48.48q10-21.16 27.82-32.9t40.61-11.72q19.23 0 34.29 8.22a56.86 56.86 0 0 1 23.1 22.93v-26.6Zm-54.94 130.2q11.88-15 11.89-42.35 0-28-11.89-43.05t-34-15q-21.71 0-33.77 15.57t-12.04 43.18q0 27.3 12.08 42t34.12 14.7q21.73 0 33.61-15.05Z" fill="#6c63ff"/><path fill="#3f3d56" d="M0 389.34h984v2H0z"/><path d="M909.4 48.5c-3.5 14.5-15.6 23.7-26.2 20.8s-16.5-17.1-13-31.5 15-23.2 25.8-20.9c16.2 3.4 17 17.2 13.4 31.6Z" fill="#ffb8b8"/><path d="M897.2 60.9c-6.5 8.6-7.4 22.9-2.8 40.1L865 75.1l6.5-3.4 2.1-14.3Z" fill="#ffb8b8"/><path fill="#3f3d56" d="m899.3 149.4-40.6-25.5.4-1 40.7 25.4-.5 1.1zM881.3 206l31.7 1.7 3.7 78.6-.7 57 5.2 13.8s2.2 0 1.5 2.6 0 3.5 0 3.5l3.7 5.2c-2.2 6-22.1 8.6-22.1 8.6v-3.5a31.21 31.21 0 0 1-1.5-4.3c-.7-2.6-3-9.5-3-9.5-10.3-13.8-10.3-66.5-10.3-66.5Z"/><path d="m924.9 367.4 16.1 11.2s18.3-.9 19.1 6-49 6-54.4 5.2 0-19 0-19ZM913 211.2 890.1 301s-58.3 45.3-62 46.2-14-19.9-14-19.9l52.4-43.6s3.7-40.6-2.2-52.7a44.79 44.79 0 0 1-4.4-23.3Z" fill="#3f3d56"/><path d="m829.8 345.6.2 24.1s8.4 14 3.3 19-29.8-43.8-32.2-50.1 15.1-11.5 15.1-11.5Z" fill="#3f3d56"/><path d="M918.1 197.3c0 2.6 1.5 2.6-2.2 6.9s-.7.9-1.5 6.9-56.1.9-56.1.9-1.5-3.5.7-19-3-29.4-7.4-57.9 8.9-54.4 8.9-57 1.5-1.7 3-2.6 0-1.7 0-3.5 0-4.3 5.2-5.2 25.1 22.5 25.1 22.5c8.1 0 24.3 105.5 24.3 108Z" fill="#6c63ff"/><path d="M896 199.1s9.6 20.7 3 26.8-15.5-19-15.5-19Z" fill="#ffb8b8"/><path d="m882.7 118.7-5.2 32 22.1 51-17 9.5s-25.1-43.2-31.5-80.5S862 91.1 862 91.1c23.7-2.6 20.7 27.6 20.7 27.6Z" fill="#6c63ff"/><path fill="#fff" opacity=".2" style="isolation:isolate" d="m899.3 201.2 2.2-2.6-24.3-47.5 22.1 50.1zM877.2 210.7h6.6l-19.5-37.4 12.9 37.4z"/><circle cx="895.4" cy="92.9" r="1.2" fill="#d0cde1"/><path fill="none" d="m902.6 126.7-8.9-33.8"/><path d="M902.6 127.3h.2c.3-.1.4-.4.3-.8l-8.9-33.8a.57.57 0 0 0-.7-.4c-.3.1-.4.4-.3.8l8.9 33.8a.66.66 0 0 0 .5.4Z" fill="#d0cde1"/><path d="m903.2 48.5 6.4 2.8c-1.4 5.9-6.2 13.1-11.2 15.8l-4.9-4.9c5.3-3.6 9.3-7.7 9.7-13.7Z" fill="#3f3d56"/><path d="M888.5 44.1a.43.43 0 0 1-.4-.4c0-.2.1-.5.3-.5l15.1 6.3a.51.51 0 0 1 .5.4c0 .2-.1.5-.3.5l-15.2-6.3ZM894.5 62l-11.3-16.1 6.6 9c-.1-.2-6.7-9.5-6.5-9.6s.4 0 .6.2l11.3 16.1c0 .1.1.1.1.2a.43.43 0 0 1-.4.4c-.2 0-.3 0-.4-.2Z" fill="#3f3d56"/><path d="M904.4 25.3c-1.9-.2-3 4.6-3.8 6.4-.3.8-9.1 1.5-9.1 2.4-.7 6.7-2 13.4-8.4 13.3-1.8 0-3.6-.5-5.3-.1-5 .9-1.7 8-5.8 8.2-3.2.2-6.4-8.4-7.4-10.9a27.22 27.22 0 0 1-1.5-15.2c1.1-6.3 2.5-10.9 6.3-15.8 1.6-2 5.2-3.9 7.3-5.2a14.45 14.45 0 0 1 8.7-1.5c4.5.4 6.9-1.1 10.7 1.3 2.9.8 3.8 2 6.1 2.9.5-.1 3.9 1.8 4.3 2.1 1 .8.4 3.4 1.5 3.1a4 4 0 0 1 4-1.6 7.39 7.39 0 0 0 1.1 3.9l1.2-1.7c.5 3-.5 5.2-1.7 8" fill="#735b4e"/><path data-name="1hl" d="M911.4 23.8s-7.1 2.1-10 0-2.2-3.4-3.3-5-22.5-4-24.8-6 .7-2.9.7-2.9 4.5-2.8 7.1-3 4.5.1 5.8 0 5.2-.7 6.2-.2 4.8 2.3 9.2 4.4 4.3 2.1 4.3 2.1l1.5 3.1s3.2-2.7 4-1.6a11.06 11.06 0 0 1 1.1 3.9l1.2-1.7a14.08 14.08 0 0 1-.7 5.7c-1 2.3-2.3 1.2-2.3 1.2Z" fill="#5b4939"/></svg>