<svg id="e9019713-99f9-458c-8031-f5c8cc9058c4" data-name="f0a8f4ba-cc2b-4400-9e08-d246a0bad060" xmlns="http://www.w3.org/2000/svg" viewBox="0 0 1098.75 1094.43"><ellipse cx="549.38" cy="1062.83" rx="549.38" ry="31.6" fill="#f2f2f2"/><rect x="174.97" width="922.64" height="29.35" fill="#f2f2f2"/><circle cx="199.66" cy="14.24" r="7.6" fill="#6c63ff"/><circle cx="224.35" cy="14.24" r="7.6" fill="#6c63ff"/><circle cx="249.04" cy="14.24" r="7.6" fill="#6c63ff"/><polygon points="175.62 565.93 174.97 566.87 174.97 899.79 1097.61 899.79 1097.61 315.01 1086.61 316.41 175.62 565.93" fill="#3f3d56"/><rect x="241.55" y="196.35" width="257.65" height="10.39" fill="#3f3d56"/><rect x="241.55" y="219.21" width="257.65" height="10.39" fill="#3f3d56"/><rect x="241.55" y="242.06" width="87.27" height="10.39" fill="#3f3d56"/><rect x="766.97" y="559.78" width="257.65" height="10.39" fill="#fff"/><rect x="766.97" y="582.63" width="257.65" height="10.39" fill="#fff"/><rect x="766.97" y="605.49" width="87.27" height="10.39" fill="#fff"/><circle cx="606.9" cy="878.1" r="10.13" fill="#f2f2f2"/><circle cx="636.29" cy="879.12" r="10.13" fill="#f2f2f2"/><circle cx="665.68" cy="880.13" r="10.13" fill="#f2f2f2"/><circle cx="636.38" cy="879.12" r="8.11" fill="#3f3d56"/><rect x="326.51" y="315.27" width="87.27" height="19.91" fill="#3f3d56"/><rect x="845.23" y="659.69" width="87.27" height="19.91" fill="#fff"/><circle cx="370.64" cy="325.33" r="60.37" fill="#6c63ff" opacity="0.3" style="isolation:isolate"/><circle cx="370.64" cy="325.33" r="40.25" fill="#6c63ff" opacity="0.3" style="isolation:isolate"/><circle cx="370.64" cy="325.33" r="27.95" fill="#6c63ff"/><circle cx="878.59" cy="175.72" r="60.37" fill="#6c63ff" opacity="0.3" style="isolation:isolate"/><circle cx="878.59" cy="175.72" r="40.25" fill="#6c63ff" opacity="0.3" style="isolation:isolate"/><circle cx="878.59" cy="175.72" r="27.95" fill="#6c63ff"/><circle cx="889.35" cy="669.75" r="60.37" fill="#6c63ff" opacity="0.3" style="isolation:isolate"/><circle cx="889.35" cy="669.75" r="40.25" fill="#6c63ff" opacity="0.3" style="isolation:isolate"/><circle cx="889.35" cy="669.75" r="27.95" fill="#6c63ff"/><rect x="80.29" y="547.57" width="28.6" height="22.24" transform="translate(-467.35 630.43) rotate(-87.78)" fill="#6c63ff"/><path d="M184.29,644.05s30.78-14.7,30.29-2-31,21.05-31,21.05Z" transform="translate(0 -1.13)" fill="#ffb9b9"/><path d="M167.4,751.51s14.52,35.55,19.89,61.19,13.54,60.95,3,86-40.4,98.6-40.7,106.53,2.56,16-3.8,15.76-40.9-11.13-42.3-16,11.79-17,11.79-17L147.88,885.9l-34-66.5L89.38,918.61l-4.81,123.83s-23.56-7.27-27-1c0,0-10.56-14.72-11.9-21.13s5-128.59,5-128.59S29,752.51,46.5,753.19,132.37,712,167.4,751.51Z" transform="translate(0 -1.13)" fill="#2f2e41"/><path d="M146.07,1014.62s16.11,35.6,17.64,37.25,12,18,4.08,17.65-26.68-9-40.47-22.24-32-36.22-30.34-37.75,13-5.86,13-5.86Z" transform="translate(0 -1.13)" fill="#2f2e41"/><path d="M88.71,1034.38s1,15.94,3.9,22.41,2.56,16-5.38,15.69-28.45-4.28-28.45-4.28-1.22-9.59.43-11.12,8.67-18.74,5.68-23.62S88.71,1034.38,88.71,1034.38Z" transform="translate(0 -1.13)" fill="#2f2e41"/><path d="M70,517.2S53,543.57,46.45,549.67s12,19.55,12,19.55l33.21,4.46s-.41-30.22,1.3-33.34S70,517.2,70,517.2Z" transform="translate(0 -1.13)" fill="#ffb9b9"/><path d="M98.83,551.7S92,564.16,85.64,563.91,46.45,549.67,45,544.85,34.16,579.4,34.16,579.4l80.38,141.45,19.6-13.55-9.5-83-7.8-44.82Z" transform="translate(0 -1.13)" fill="#6c63ff"/><path d="M42.08,678.29c3.2,6.7,5.21,13.7,4.93,20.86,0,.32,0,.63,0,1-.76,14.69-6.18,31.69-8.12,44C37.43,753,37.83,759.48,43,761c12.58,3.67-1.83,6.29,46.83,22.49s57.15,2.21,57.27-1-6.89-27.3-5.24-28.83,23.07,20,29.55,17,.74-19,.74-19-14.59-34-14.28-41.89-22.09-45.38-22.09-45.38l-15.23-99.16s-5.86-12.95-13.74-14.85-14.41,2.63-14.41,2.63l13.18,29.13,13.91,51.41-2.33,19s-16.17-34-26.79-47.15-33.26-44.21-33.26-44.21-5.29-17.84-1.3-23.17-16.64-6.15-25.44,15.77c-4.67,11.62-12.24,28.94-17,45.07-4.23,14.29-6.23,27.64-2,35.28C17.77,645.83,33.87,661.16,42.08,678.29Z" transform="translate(0 -1.13)" fill="#575a89"/><path d="M11.37,634.17c6.4,11.66,22.5,27,30.71,44.12,2.14-7.73,4.76-15.72,4.76-15.72S56.87,608.9,27.2,595a19.84,19.84,0,0,0-13.79,3.86C9.18,613.18,7.18,626.53,11.37,634.17Z" transform="translate(0 -1.13)" opacity="0.1" style="isolation:isolate"/><path d="M129.16,630.79l25.15,7.33,34.93,1.36,3.59,30.34L135.43,674S121.1,633.65,129.16,630.79Z" transform="translate(0 -1.13)" fill="#575a89"/><path d="M88.14,732.83s33.65,5.58,26,15.71S76.62,748,76.62,748Z" transform="translate(0 -1.13)" fill="#ffb9b9"/><path d="M47,700.1c-.76,14.69-6.18,31.69-8.12,44,10.72,10.15,20.92,19.1,24.76,19.25,7.94.31,20.7-.79,25.4,1S96.46,736,96.46,736s-2.81-9.64-15.33-14.9C72.69,717.59,56.49,707.94,47,700.1Z" transform="translate(0 -1.13)" opacity="0.1" style="isolation:isolate"/><path d="M27.57,585.51S.7,581.29,2.15,625.86s-2.83,73,8,81.4S56,753.56,64,753.86s20.7-.78,25.4,1,7.46-28.33,7.46-28.33S94,716.87,81.5,711.62s-42-23.89-41.75-30.24,7.46-28.33,7.46-28.33S57.24,599.38,27.57,585.51Z" transform="translate(0 -1.13)" fill="#575a89"/><circle cx="93.65" cy="520.16" r="34.95" fill="#ffb9b9"/><path d="M117.19,471.2a6.76,6.76,0,0,0,2.94,1.47,2.1,2.1,0,0,0,2.43-1.68c.8,1.66,1.7,3.42,3.33,4.28s4.16.13,4.39-1.69a7.75,7.75,0,0,0,1.78,3.74c1,1,2.85,1.21,3.73.13-.71,3.9-.27,7.92-.5,11.89S134,497.51,131,500.12c-4.37,3.8-10.94,2.86-16.69,2.14a5.18,5.18,0,0,0-2.62.14c-2.15.92-2,3.92-2.08,6.26a17.37,17.37,0,0,1-15.21,16.49,8.66,8.66,0,0,1-6.48-1.58c-1.63-1.38-2.46-3.63-4.33-4.67-3-1.69-6.73.77-9,3.45s-4.41,6-7.86,6.46c-4.56.65-8-4-9.73-8.27a48.2,48.2,0,0,1,1-37.47C67.53,462.32,100,459,117.19,471.2Z" transform="translate(0 -1.13)" fill="#2f2e41"/><path d="M1056.17,866.38c13.76,23.47,41.52,32.76,41.52,32.76s5.44-28.76-8.32-52.23-41.52-32.76-41.52-32.76S1042.41,842.91,1056.17,866.38Z" transform="translate(0 -1.13)" fill="#f2f2f2"/><path d="M1064.76,858.19c23.8,13.18,33.77,40.7,33.77,40.7s-28.62,6.14-52.42-7-33.76-40.69-33.76-40.69S1041,845,1064.76,858.19Z" transform="translate(0 -1.13)" fill="#6c63ff"/><circle cx="370.15" cy="733.39" r="60.37" fill="#6c63ff" opacity="0.3" style="isolation:isolate"/><circle cx="370.15" cy="733.39" r="40.25" fill="#6c63ff" opacity="0.3" style="isolation:isolate"/><circle cx="370.15" cy="733.39" r="27.95" fill="#6c63ff"/></svg>