<svg id="a94d216d-6b90-40e8-85c4-838d852b3e58" data-name="b2764883-148f-45a6-9ca9-ea478379e86a" xmlns="http://www.w3.org/2000/svg" viewBox="0 0 933.35 870.1"><path d="M146.55,588.51c.62,9.4-1.89,10.54,4.95,21.08l-27.28-1.75,4.29-4.69L128,591Z" transform="translate(0.09 -61.52)" fill="#ffb8b8"/><path d="M809.42,662.62h-603a33,33,0,0,1-33-33v-193a33.05,33.05,0,0,1,33-33h603a33,33,0,0,1,33,33v193A33,33,0,0,1,809.42,662.62Z" transform="translate(0.09 -61.52)" fill="#e6e6e6"/><path d="M207.42,416.62a20,20,0,0,0-20,20v193a20,20,0,0,0,20,20h603a20,20,0,0,0,20-20v-193a20,20,0,0,0-20-20Z" transform="translate(0.09 -61.52)" fill="#fff"/><path d="M283.07,497.36a21.91,21.91,0,1,1,21.9-21.9h0A21.92,21.92,0,0,1,283.07,497.36Zm0-40.89a19,19,0,1,0,19,19h0A19,19,0,0,0,283.07,456.47Z" transform="translate(0.09 -61.52)" fill="#ccc"/><path d="M841.27,559.63l-.64,14.07,5.09,5.45-30.26,2c7.09-12.22,3-13.54,3.74-24.45Z" transform="translate(0.09 -61.52)" fill="#a0616a"/><path d="M282.58,470.49h0l-2.31,1.24-.35-1.37,2.91-1.55h1.53v13.3h-1.74Z" transform="translate(0.09 -61.52)" fill="#ccc"/><path d="M253.16,532.73a2.57,2.57,0,1,0-2.48-2.66v.18A2.57,2.57,0,0,0,253.16,532.73Z" transform="translate(0.09 -61.52)" fill="#e6e6e6"/><path d="M253.16,548.79a2.57,2.57,0,1,0-2.48-2.65v.17A2.57,2.57,0,0,0,253.16,548.79Z" transform="translate(0.09 -61.52)" fill="#e6e6e6"/><path d="M253.16,564.86a2.57,2.57,0,1,0-2.48-2.66v.18A2.57,2.57,0,0,0,253.16,564.86Z" transform="translate(0.09 -61.52)" fill="#e6e6e6"/><path d="M314,531.62H267.26a1.46,1.46,0,1,1,0-2.92H314a1.46,1.46,0,1,1,0,2.92Z" transform="translate(0.09 -61.52)" fill="#e6e6e6"/><path d="M314,547.69H267.26a1.47,1.47,0,0,1,0-2.93H314a1.47,1.47,0,1,1,0,2.93Z" transform="translate(0.09 -61.52)" fill="#e6e6e6"/><path d="M314,563.75H267.26a1.46,1.46,0,1,1,0-2.92H314a1.46,1.46,0,1,1,0,2.92h0Z" transform="translate(0.09 -61.52)" fill="#e6e6e6"/><path d="M418.76,494.36a21.91,21.91,0,1,1,21.91-21.9,21.9,21.9,0,0,1-21.91,21.9Zm0-40.89a19,19,0,1,0,19,19h0a19,19,0,0,0-19-19Z" transform="translate(0.09 -61.52)" fill="#ccc"/><path d="M414.88,479.22v-1.11l1.41-1.37c3.4-3.23,4.94-4.95,5-6.95a2.37,2.37,0,0,0-2.12-2.6,2.26,2.26,0,0,0-.52,0,4.6,4.6,0,0,0-2.83,1.12l-.57-1.26A5.83,5.83,0,0,1,419,465.7a3.73,3.73,0,0,1,4,3.39,3.77,3.77,0,0,1,0,.47c0,2.46-1.78,4.44-4.59,7.14l-1.06,1v0h6v1.5Z" transform="translate(0.09 -61.52)" fill="#ccc"/><path d="M476.76,611.59h-116a9,9,0,0,1-9-9v-69a9,9,0,0,1,9-9h116a9,9,0,0,1,9,9v69A9,9,0,0,1,476.76,611.59Z" transform="translate(0.09 -61.52)" fill="#fff"/><path d="M458.19,543.26H379.33a1.46,1.46,0,1,1,0-2.92h78.87a1.46,1.46,0,1,1,0,2.92Z" transform="translate(0.09 -61.52)" fill="#e6e6e6"/><path d="M458.19,556.41H379.33a1.48,1.48,0,0,1-1.47-1.46,1.46,1.46,0,0,1,1.46-1.46h78.87a1.46,1.46,0,0,1,0,2.92Z" transform="translate(0.09 -61.52)" fill="#e6e6e6"/><path d="M458.19,569.55H379.33a1.46,1.46,0,1,1,0-2.92h78.87a1.46,1.46,0,0,1,0,2.92Z" transform="translate(0.09 -61.52)" fill="#e6e6e6"/><path d="M458.19,582.69H379.33a1.46,1.46,0,1,1,0-2.92h78.87a1.46,1.46,0,1,1,0,2.92Z" transform="translate(0.09 -61.52)" fill="#e6e6e6"/><path d="M458.19,595.84H379.33a1.46,1.46,0,1,1,0-2.92h78.86a1.46,1.46,0,0,1,0,2.92Z" transform="translate(0.09 -61.52)" fill="#e6e6e6"/><path d="M476.76,611.59h-116a9,9,0,0,1-9-9v-69a9,9,0,0,1,9-9h116a9,9,0,0,1,9,9v69A9,9,0,0,1,476.76,611.59Zm-116-85a7,7,0,0,0-7,7v69a7,7,0,0,0,7,7h116a7,7,0,0,0,7-7v-69a7,7,0,0,0-7-7Z" transform="translate(0.09 -61.52)" fill="#e6e6e6"/><path d="M565.53,494.36a21.91,21.91,0,1,1,21.91-21.9A21.9,21.9,0,0,1,565.53,494.36Zm0-40.89a19,19,0,1,0,19,19h0a19,19,0,0,0-19-19Z" transform="translate(0.09 -61.52)" fill="#ccc"/><path d="M561.87,477a6,6,0,0,0,2.94.84c2.32,0,3-1.48,3-2.58,0-1.86-1.7-2.66-3.43-2.66h-1v-1.35h1c1.31,0,3-.67,3-2.25,0-1.06-.67-2-2.33-2a4.9,4.9,0,0,0-2.66.89l-.47-1.31a6.3,6.3,0,0,1,3.48-1c2.62,0,3.8,1.56,3.8,3.17a3.29,3.29,0,0,1-2.45,3.13v.05a3.44,3.44,0,0,1,3,3.41c0,2.13-1.65,4-4.84,4a6.65,6.65,0,0,1-3.46-.9Z" transform="translate(0.09 -61.52)" fill="#ccc"/><path d="M533.16,592.32a2.57,2.57,0,1,0-2.48-2.66v.18A2.57,2.57,0,0,0,533.16,592.32Z" transform="translate(0.09 -61.52)" fill="#e6e6e6"/><path d="M594,591.21H547.26a1.46,1.46,0,0,1,0-2.92H594a1.46,1.46,0,1,1,0,2.92h0Z" transform="translate(0.09 -61.52)" fill="#e6e6e6"/><path d="M606.53,571.59h-82a7,7,0,0,1-7-7v-33a7,7,0,0,1,7-7h82a7,7,0,0,1,7,7v33A7,7,0,0,1,606.53,571.59Zm-82-45a5,5,0,0,0-5,5v33a5,5,0,0,0,5,5h82a5,5,0,0,0,5-5v-33a5,5,0,0,0-5-5Z" transform="translate(0.09 -61.52)" fill="#e6e6e6"/><rect x="515.72" y="547.16" width="99.76" height="2" transform="translate(-175.2 219.3) rotate(-24.26)" fill="#e6e6e6"/><rect x="564.72" y="498.15" width="2" height="99.51" transform="translate(-168.1 772.05) rotate(-65.35)" fill="#e6e6e6"/><path d="M673.9,549.44a1.11,1.11,0,0,0-.21-.32h0l-11-11a1.46,1.46,0,1,0-2.07,2.06h0l8.46,8.46H631.76a1.46,1.46,0,0,0,0,2.92h37.37l-7.73,7.73a1.46,1.46,0,0,0,2.06,2.07h0l10.22-10.22h0A1.42,1.42,0,0,0,673.9,549.44Z" transform="translate(0.09 -61.52)" fill="#ccc"/><path d="M767.17,520.73h-.69V502a10.85,10.85,0,0,0-10.85-10.85H715.91A10.85,10.85,0,0,0,705.06,502h0V604.85a10.85,10.85,0,0,0,10.85,10.85h39.72a10.85,10.85,0,0,0,10.85-10.85V534.08h.69Z" transform="translate(0.09 -61.52)" fill="#3f3d56"/><path d="M764.18,502.06V604.77a8.12,8.12,0,0,1-8.11,8.11H716.16a8.11,8.11,0,0,1-8.11-8.11V502.06a8.1,8.1,0,0,1,8.11-8.1H721a3.85,3.85,0,0,0,2.11,5,4,4,0,0,0,1.45.28h22.76a3.85,3.85,0,0,0,3.85-3.86,4,4,0,0,0-.28-1.44h5.18A8.11,8.11,0,0,1,764.18,502.06Z" transform="translate(0.09 -61.52)" fill="#fff"/><path d="M241,620.73a4.41,4.41,0,0,1-.82-3.77,104.05,104.05,0,0,0,0-48.31,4.38,4.38,0,0,1,.82-3.76,4.33,4.33,0,0,1,3.41-1.66H285a4.37,4.37,0,0,1,4.3,3.67,169.82,169.82,0,0,1,0,51.81,4.37,4.37,0,0,1-4.3,3.67H244.44A4.35,4.35,0,0,1,241,620.73Z" transform="translate(0.09 -61.52)" fill="#6c63ff"/><path d="M277.15,585.06H255.8a3,3,0,0,1-3-3v-1.28a3,3,0,0,1,3-3h21.35a3,3,0,0,1,3,3v1.28A3,3,0,0,1,277.15,585.06Z" transform="translate(0.09 -61.52)" fill="#fff"/><path d="M277.15,597.6H255.8a3,3,0,0,1-3-3v-1.27a3,3,0,0,1,3-3h21.35a3,3,0,0,1,3,3v1.27A3,3,0,0,1,277.15,597.6Z" transform="translate(0.09 -61.52)" fill="#fff"/><path d="M615.86,657.66a167.58,167.58,0,0,1,0-51,4.3,4.3,0,0,1,4.23-3.61H660a4.26,4.26,0,0,1,3.35,1.63,4.34,4.34,0,0,1,.81,3.71,102.3,102.3,0,0,0,0,47.52,4.34,4.34,0,0,1-.81,3.71,4.22,4.22,0,0,1-3.35,1.62H620.09A4.29,4.29,0,0,1,615.86,657.66Z" transform="translate(0.09 -61.52)" fill="#6c63ff"/><path d="M648.42,629H627.5a3,3,0,0,1-3-3v-1.18a3,3,0,0,1,3-3h20.92a3,3,0,0,1,3,3V626A3,3,0,0,1,648.42,629Z" transform="translate(0.09 -61.52)" fill="#fff"/><path d="M36.88,768.66a167.29,167.29,0,0,1,31.44-40.12,4.3,4.3,0,0,1,5.56-.22l31.38,24.59a4.24,4.24,0,0,1,1.64,3.35,4.31,4.31,0,0,1-1.65,3.42,102.34,102.34,0,0,0-29.32,37.4,4.3,4.3,0,0,1-6.56,1.63L38,774.11A4.28,4.28,0,0,1,36.88,768.66Z" transform="translate(0.09 -61.52)" fill="#ccc"/><path d="M80.38,764.77,63.91,751.86a3,3,0,0,1-.51-4.21l.73-.93a3,3,0,0,1,4.21-.51l16.47,12.91a3,3,0,0,1,.51,4.21l-.73.93A3,3,0,0,1,80.38,764.77Z" transform="translate(0.09 -61.52)" fill="#fff"/><path d="M72.77,774.48,56.3,761.57a3,3,0,0,1-.51-4.21l.72-.92a3,3,0,0,1,4.21-.51l16.47,12.91a3,3,0,0,1,.51,4.21L77,774A3,3,0,0,1,72.77,774.48Z" transform="translate(0.09 -61.52)" fill="#fff"/><path d="M884.86,781.66a167.58,167.58,0,0,1,0-51,4.3,4.3,0,0,1,4.23-3.61H929a4.26,4.26,0,0,1,3.35,1.63,4.34,4.34,0,0,1,.81,3.71,102.17,102.17,0,0,0,0,47.52,4.34,4.34,0,0,1-.81,3.71,4.22,4.22,0,0,1-3.35,1.62H889.09A4.29,4.29,0,0,1,884.86,781.66Z" transform="translate(0.09 -61.52)" fill="#ccc"/><path d="M917.42,753H896.5a3,3,0,0,1-3-3v-1.18a3,3,0,0,1,3-3h20.92a3,3,0,0,1,3,3V750A3,3,0,0,1,917.42,753Z" transform="translate(0.09 -61.52)" fill="#fff"/><path d="M896.57,735a10.68,10.68,0,0,0-4.09-13.89,10.5,10.5,0,0,0-1.45-.65l-.82-36.31-14.5,10.68,3,32.85a10.6,10.6,0,0,0,4.88,11.61,9.28,9.28,0,0,0,12.63-3.6A7.43,7.43,0,0,0,896.57,735Z" transform="translate(0.09 -61.52)" fill="#a0616a"/><path d="M890.46,718.9l-10.4.63a4.41,4.41,0,0,1-4.5-3.95l-8.63-65L853,611a13.73,13.73,0,0,1,.36-10.14,12.3,12.3,0,0,1,7-6.74c6.36-2.31,13.31,1.35,15.51,8.15l14.19,45.42L894.46,714a4.74,4.74,0,0,1-1.05,3.33,4.19,4.19,0,0,1-1.81,1.3A4.05,4.05,0,0,1,890.46,718.9Z" transform="translate(0.09 -61.52)" fill="#3f3d56"/><polygon points="829.94 857 817.68 857 811.85 809.71 829.95 809.71 829.94 857" fill="#a0616a"/><path d="M833,930.41H793.44v-.5a15.39,15.39,0,0,1,15.39-15.39H833Z" transform="translate(0.09 -61.52)" fill="#2f2e41"/><polygon points="865.94 857 853.68 857 847.85 809.71 865.95 809.71 865.94 857" fill="#a0616a"/><path d="M869,930.41H829.44v-.5a15.39,15.39,0,0,1,15.39-15.39H869Z" transform="translate(0.09 -61.52)" fill="#2f2e41"/><path d="M874.08,727.42l-2.93,173.69a4,4,0,0,1-4.07,3.93h-.29l-14.35-1.31a4,4,0,0,1-3.62-3.67l-8.4-108.35a1,1,0,0,0-2,0l-4.2,110.83a4,4,0,0,1-4,3.85H814.84a4,4,0,0,1-4-3.76L800.08,726.42l64-16Z" transform="translate(0.09 -61.52)" fill="#2f2e41"/><circle cx="827.75" cy="478.24" r="24.56" fill="#a0616a"/><path d="M797.88,732.58a4.49,4.49,0,0,1-1.36-3.16L794.86,611a28.5,28.5,0,0,1,19.29-27.44c2.3-10.44,14.54-11.75,21.68-11.6a11.09,11.09,0,0,1,9,4.93l5.12,7.67,11.28,6.62A28.53,28.53,0,0,1,874.68,622l-1.74,7.9a181.63,181.63,0,0,0,1.7,84.66l3.49,13.33a4.48,4.48,0,0,1-3.21,5.49,4.33,4.33,0,0,1-1.48.13l-4.06-.31a4.48,4.48,0,0,1-4.13-4l-.68-6.71a.5.5,0,0,0-1,0l-.65,6.5a4.5,4.5,0,0,1-4.41,4.05l-57.43.89H801A4.5,4.5,0,0,1,797.88,732.58Z" transform="translate(0.09 -61.52)" fill="#3f3d56"/><path d="M829.58,553.92c.1,3.47,2.51,5.48,5.47,7.3s6.42,2.6,9.8,3.36a3,3,0,0,0,4.06-1.24,2.89,2.89,0,0,0,.35-1.38l3.11-11.82a74.59,74.59,0,0,0,2.39-11.54c.75-7.51-1-15.59-6.27-21s-14.33-7.36-20.61-3.17c-7.46-9.52-41.53,11.51-33.12,18.13,1.49,1.18,3.78-.31,5.68-.46s4,.19,5.23,1.67c1.57,1.92.89,4.79,1.53,7.19a6.72,6.72,0,0,0,8.44,4.36h.05a23.91,23.91,0,0,0,4.4-2.83c1.45-1,3.29-1.69,4.93-1.08,2.16.81,2.93,3.45,3.12,5.75A52.55,52.55,0,0,0,829.58,553.92Z" transform="translate(0.09 -61.52)" fill="#2f2e41"/><polygon points="823.93 558.22 819.93 607.22 798.93 658.22 829.93 608.22 823.93 558.22" opacity="0.2" style="isolation:isolate"/><path d="M793.93,738.74a10.07,10.07,0,0,0,1.55-14.14,11.46,11.46,0,0,0-1.23-1.28l13.38-33.14-18.21,3.68-9.91,30.9a10.11,10.11,0,0,0,14.42,14Z" transform="translate(0.09 -61.52)" fill="#a0616a"/><path d="M793.54,724.12l-10.3-3.71a4.53,4.53,0,0,1-2.82-5.42l17-62.22L800,596.54a12.82,12.82,0,1,1,25.61,1.18c0,.12,0,.24,0,.37L821,659.66l-21.66,61.72a4.51,4.51,0,0,1-4.57,3A4.43,4.43,0,0,1,793.54,724.12Z" transform="translate(0.09 -61.52)" fill="#3f3d56"/><polygon points="51.45 842.8 62.46 848.2 88.51 808.3 72.27 800.34 51.45 842.8" fill="#ffb8b8"/><path d="M50.31,899.35,72,910h0A15.39,15.39,0,0,1,79,930.57h0l-.22.45-35.5-17.4Z" transform="translate(0.09 -61.52)" fill="#2f2e41"/><polygon points="160.55 861.61 172.81 861.61 178.64 814.32 160.54 814.32 160.55 861.61" fill="#ffb8b8"/><path d="M157.32,915.13h24.15a15.39,15.39,0,0,1,15.39,15.39h0v.5H157.33Z" transform="translate(0.09 -61.52)" fill="#2f2e41"/><circle cx="134.21" cy="510.7" r="24.56" fill="#ffb8b8"/><path d="M158.58,907.54a4.5,4.5,0,0,1-4.49-4.31l-9.5-126.36a1.5,1.5,0,0,0-2.83-.64L81,892.17a4.53,4.53,0,0,1-6,1.94L58.1,885.64a4.51,4.51,0,0,1-2-6l36.24-73.43,24-55c9.27-18.25,19.1-27.66,30.08-28.75,11.26-1.13,23.28,6.61,36.76,23.66l.11.14v.18l-2,154.36a4.49,4.49,0,0,1-4.08,4.47L159,907.52Z" transform="translate(0.09 -61.52)" fill="#2f2e41"/><path d="M108.2,760.07a10.75,10.75,0,0,0,3.5-14.78,10.58,10.58,0,0,0-1.14-1.52l3.71-97.86-18,2.25-1.52,95.2a10.8,10.8,0,0,0,13.45,16.71Z" transform="translate(0.09 -61.52)" fill="#ffb8b8"/><path d="M119.58,663.21l-24.17-2.74a4.82,4.82,0,0,1-4.24-5.33,4.11,4.11,0,0,1,.13-.7L97.54,631a13.38,13.38,0,0,1,26.57,3.1l.83,24.16a4.82,4.82,0,0,1-4.65,5,4.22,4.22,0,0,1-.71,0Z" transform="translate(0.09 -61.52)" fill="#2f2e41"/><path d="M223.71,601.61a11.38,11.38,0,0,0-.24,1.64l-43,24.79-10.44-6L158.94,636.6,176.39,649a8,8,0,0,0,9.6-.23l44.29-34.94a10.53,10.53,0,1,0-6.57-12.25Z" transform="translate(0.09 -61.52)" fill="#ffb8b8"/><path d="M179.08,629.21l-13.89,18a4.5,4.5,0,0,1-6.31.82,5.12,5.12,0,0,1-.49-.44l-15.72-16.32A12.5,12.5,0,0,1,158,611.51l19.71,11a4.51,4.51,0,0,1,1.73,6.13,5.21,5.21,0,0,1-.36.55Z" transform="translate(0.09 -61.52)" fill="#2f2e41"/><path d="M190.4,753.76,163.75,623.93a24.35,24.35,0,0,0-27.85-19.12L127,606.29A23.8,23.8,0,0,0,111.53,616h0a33.24,33.24,0,0,0-5,28.31l14.71,52.65-10.92,56.42a4,4,0,0,0,3.16,4.68,4,4,0,0,0,1.33,0c5.46-.79,14.47-1.9,24.82-2.51l5.61-21.63,2.28,21.29c12.71-.36,26.51.26,37.89,3.22a4,4,0,0,0,4.91-2.83A4.19,4.19,0,0,0,190.4,753.76Z" transform="translate(0.09 -61.52)" fill="#6c63ff"/><path d="M162.4,551.48c-1.46-8.52-8.31-15.59-16.46-18.48s-17.35-2-25.33,1.38a39.64,39.64,0,0,0-20,17.87,21.21,21.21,0,0,1-3-1.65C92.93,547.46,89.09,543,84,540.51c-9-4.35-19.93-1.46-28.7,3.36s-16.56,11.47-25.83,15.25-21.11,4-28.13-3.17A25.73,25.73,0,0,0,39,586.32c10.16-6.18,15.77-19.16,27.17-22.58,6.3-1.89,13.07-.36,19.45,1.29a76.92,76.92,0,0,0,11.46,2.37,28.21,28.21,0,0,0,7.39,18.88c7.86,8.28,20.2,10.49,31.62,10.35l.24-.24c-3.5-5.23-6.25-12.49-2.41-17.47s11.3-4.19,17.11-6.36C159.17,569.53,163.87,560,162.4,551.48Z" transform="translate(0.09 -61.52)" fill="#2f2e41"/><path d="M205.92,931.62h-170a1,1,0,1,1,0-2h170a1,1,0,0,1,0,2Z" transform="translate(0.09 -61.52)" fill="#ccc"/><path d="M908.92,931.62h-170a1,1,0,0,1,0-2h170a1,1,0,0,1,0,2Z" transform="translate(0.09 -61.52)" fill="#ccc"/><circle cx="637.54" cy="21.98" r="6.47" fill="#f2f2f2"/><circle cx="611.77" cy="21.98" r="6.47" fill="#f2f2f2"/><circle cx="586" cy="21.98" r="6.47" fill="#f2f2f2"/><circle cx="560.22" cy="21.98" r="6.47" fill="#f2f2f2"/><circle cx="637.54" cy="48.98" r="6.47" fill="#f2f2f2"/><circle cx="611.77" cy="48.98" r="6.47" fill="#f2f2f2"/><circle cx="586" cy="48.98" r="6.47" fill="#f2f2f2"/><circle cx="560.22" cy="48.98" r="6.47" fill="#f2f2f2"/><circle cx="637.54" cy="75.98" r="6.47" fill="#f2f2f2"/><circle cx="611.77" cy="75.98" r="6.47" fill="#f2f2f2"/><circle cx="586" cy="75.98" r="6.47" fill="#f2f2f2"/><circle cx="560.22" cy="75.98" r="6.47" fill="#f2f2f2"/><circle cx="637.54" cy="102.98" r="6.47" fill="#f2f2f2"/><circle cx="611.77" cy="102.98" r="6.47" fill="#f2f2f2"/><circle cx="586" cy="102.98" r="6.47" fill="#f2f2f2"/><circle cx="560.22" cy="102.98" r="6.47" fill="#f2f2f2"/><circle cx="637.54" cy="129.98" r="6.47" fill="#f2f2f2"/><circle cx="611.77" cy="129.98" r="6.47" fill="#f2f2f2"/><circle cx="586" cy="129.98" r="6.47" fill="#f2f2f2"/><circle cx="560.22" cy="129.98" r="6.47" fill="#f2f2f2"/><circle cx="637.54" cy="156.98" r="6.47" fill="#f2f2f2"/><circle cx="611.77" cy="156.98" r="6.47" fill="#f2f2f2"/><circle cx="586" cy="156.98" r="6.47" fill="#f2f2f2"/><circle cx="560.22" cy="156.98" r="6.47" fill="#f2f2f2"/><circle cx="857.54" cy="21.98" r="6.47" fill="#f2f2f2"/><circle cx="831.77" cy="21.98" r="6.47" fill="#f2f2f2"/><circle cx="806" cy="21.98" r="6.47" fill="#f2f2f2"/><circle cx="780.22" cy="21.98" r="6.47" fill="#f2f2f2"/><circle cx="857.54" cy="48.98" r="6.47" fill="#f2f2f2"/><circle cx="831.77" cy="48.98" r="6.47" fill="#f2f2f2"/><circle cx="806" cy="48.98" r="6.47" fill="#f2f2f2"/><circle cx="780.22" cy="48.98" r="6.47" fill="#f2f2f2"/><circle cx="857.54" cy="75.98" r="6.47" fill="#f2f2f2"/><circle cx="831.77" cy="75.98" r="6.47" fill="#f2f2f2"/><circle cx="806" cy="75.98" r="6.47" fill="#f2f2f2"/><circle cx="780.22" cy="75.98" r="6.47" fill="#f2f2f2"/><circle cx="857.54" cy="102.98" r="6.47" fill="#f2f2f2"/><circle cx="831.77" cy="102.98" r="6.47" fill="#f2f2f2"/><circle cx="806" cy="102.98" r="6.47" fill="#f2f2f2"/><circle cx="780.22" cy="102.98" r="6.47" fill="#f2f2f2"/><circle cx="857.54" cy="129.98" r="6.47" fill="#f2f2f2"/><circle cx="831.77" cy="129.98" r="6.47" fill="#f2f2f2"/><circle cx="806" cy="129.98" r="6.47" fill="#f2f2f2"/><circle cx="780.22" cy="129.98" r="6.47" fill="#f2f2f2"/><circle cx="857.54" cy="156.98" r="6.47" fill="#f2f2f2"/><circle cx="831.77" cy="156.98" r="6.47" fill="#f2f2f2"/><circle cx="806" cy="156.98" r="6.47" fill="#f2f2f2"/><circle cx="780.22" cy="156.98" r="6.47" fill="#f2f2f2"/><path d="M346.62,252.07H207.89a7.53,7.53,0,0,1-7.52-7.53V69a7.53,7.53,0,0,1,7.52-7.52H346.62A7.53,7.53,0,0,1,354.14,69v175.5A7.53,7.53,0,0,1,346.62,252.07ZM207.89,63.19A5.86,5.86,0,0,0,202,69v175.5a5.85,5.85,0,0,0,5.85,5.85H346.62a5.85,5.85,0,0,0,5.85-5.85V69a5.86,5.86,0,0,0-5.85-5.85Z" transform="translate(0.09 -61.52)" fill="#3f3d56"/><path d="M265.72,145.88H235.18a3.76,3.76,0,0,1-3.76-3.76v-36a3.77,3.77,0,0,1,3.76-3.77h30.54a3.78,3.78,0,0,1,3.76,3.77v36A3.77,3.77,0,0,1,265.72,145.88Z" transform="translate(0.09 -61.52)" fill="#6c63ff"/><path d="M325.05,162.6H294.51a3.78,3.78,0,0,1-3.76-3.76v-36a3.77,3.77,0,0,1,3.76-3.76h30.54a3.76,3.76,0,0,1,3.76,3.76v36A3.77,3.77,0,0,1,325.05,162.6Z" transform="translate(0.09 -61.52)" fill="#ccc"/><path d="M277.42,213.57H246.88a3.76,3.76,0,0,1-3.76-3.76v-36a3.76,3.76,0,0,1,3.76-3.76h30.54a3.77,3.77,0,0,1,3.76,3.76v36A3.77,3.77,0,0,1,277.42,213.57Z" transform="translate(0.09 -61.52)" fill="#ff6584"/><circle cx="48.38" cy="11.82" r="6.47" fill="#f2f2f2"/><circle cx="48.38" cy="37.59" r="6.47" fill="#f2f2f2"/><circle cx="48.38" cy="63.37" r="6.47" fill="#f2f2f2"/><circle cx="48.38" cy="89.14" r="6.47" fill="#f2f2f2"/><circle cx="75.38" cy="11.82" r="6.47" fill="#f2f2f2"/><circle cx="75.38" cy="37.59" r="6.47" fill="#f2f2f2"/><circle cx="75.38" cy="63.37" r="6.47" fill="#f2f2f2"/><circle cx="75.38" cy="89.14" r="6.47" fill="#f2f2f2"/><circle cx="102.38" cy="11.82" r="6.47" fill="#f2f2f2"/><circle cx="102.38" cy="37.59" r="6.47" fill="#f2f2f2"/><circle cx="102.38" cy="63.37" r="6.47" fill="#f2f2f2"/><circle cx="102.38" cy="89.14" r="6.47" fill="#f2f2f2"/><circle cx="129.38" cy="11.82" r="6.47" fill="#f2f2f2"/><circle cx="129.38" cy="37.59" r="6.47" fill="#f2f2f2"/><circle cx="129.38" cy="63.37" r="6.47" fill="#f2f2f2"/><circle cx="129.38" cy="89.14" r="6.47" fill="#f2f2f2"/><circle cx="156.38" cy="11.82" r="6.47" fill="#f2f2f2"/><circle cx="156.38" cy="37.59" r="6.47" fill="#f2f2f2"/><circle cx="156.38" cy="63.37" r="6.47" fill="#f2f2f2"/><circle cx="156.38" cy="89.14" r="6.47" fill="#f2f2f2"/><circle cx="183.29" cy="73.34" r="6.47" transform="translate(77.06 178.16) rotate(-79.22)" fill="#f2f2f2"/><circle cx="183.29" cy="99.12" r="6.47" transform="translate(55.12 201.81) rotate(-80.41)" fill="#f2f2f2"/><circle cx="183.29" cy="124.89" r="6.47" transform="translate(23.16 216.74) rotate(-78.02)" fill="#f2f2f2"/><circle cx="183.29" cy="150.66" r="6.47" transform="translate(5.3 245.93) rotate(-80.78)" fill="#f2f2f2"/></svg>