<svg id="a2297d99-b839-44a3-9fcb-268a61961f6a" data-name="f5797293-4767-4b98-be82-dd8b3477ccfb" xmlns="http://www.w3.org/2000/svg" viewBox="0 0 1077.33 1078.22"><path d="M1059.18,797.65c-18.84,38.87-51.46,68.61-88.78,91.24a391.49,391.49,0,0,1-47.64,24.39q-16.11,7-32.66,12.73c-54.73,19.11-112.64,28.45-170.65,28.48q-14.22,0-28.44-.73-4.08-.21-8.16-.48-21.5-1.42-42.85-4.57l-.85-.13A538.12,538.12,0,0,1,551.38,928q-8.32-2.7-16.55-5.67c-1.48-.52-3-1.07-4.43-1.61q-9.27-3.43-18.4-7.21-7.68-3.16-15.27-6.57t-14.84-7q-12.06-5.91-23.86-12.39-9.11-5-18-10.46a495.8,495.8,0,0,1-42.49-29.08q-7.23-5.52-14.26-11.32c-3.25-2.68-6.47-5.42-9.74-8.08-6.9-5.61-14-10.94-21.92-14.93q-3.58-1.8-7.34-3.24a92.22,92.22,0,0,0-29.15-5.67c-17-.67-34.53,2.49-51,7.17-7.81,2.21-15.53,4.75-23.25,7.35l-9.5,3.22c-6.54,2.23-13.08,4.41-19.68,6.4-2.2.66-4.4,1.31-6.61,1.92a193.41,193.41,0,0,1-26.91,5.72,143.16,143.16,0,0,1-60.49-5.27l-1.67-.52c-2.8-.88-5.57-1.84-8.33-2.89l-1.67-.64q-4-1.54-7.83-3.31l-1.67-.76c-2.46-1.15-4.87-2.35-7.24-3.62l-.59-.31c-.92-.48-1.83-1-2.73-1.49a164.35,164.35,0,0,1-39.16-30.49c-.33-.33-.64-.67-1-1-1.59-1.72-3.15-3.47-4.66-5.26-.56-.66-1.12-1.32-1.67-2-1.79-2.19-3.52-4.42-5.19-6.71-.25-.33-.49-.67-.73-1a145,145,0,0,1-16.87-30.5c-.14-.33-.27-.67-.39-1q-2-5.15-3.65-10.47c-.45-1.48-.88-3-1.26-4.48-.13-.44-.25-.89-.36-1.33C5.62,701.82,5,679.23,5,656.77v-7.85c.16-36.33.72-73.28,6.08-109.11a6.29,6.29,0,0,1,.11-.74,344.44,344.44,0,0,1,7.31-35.82A265.53,265.53,0,0,1,30.84,467C43.17,438,61.1,411.56,81,387.1c50.1-61.51,115.87-113.22,192.85-132.51,82.95-20.83,175.14-.87,242,52.4,19.73,15.7,37.52,34.2,59.39,46.66q1.11.64,2.25,1.26,4.34,2.35,8.86,4.28a90.86,90.86,0,0,0,12.31,4.25c13.29,3.57,27.18,3.89,40.43-.54,1.08-.37,2.16-.76,3.23-1.19,2.27-.9,4.44-1.74,6.53-2.52,14.26-5.31,25.24-7.89,42.57-7a411.41,411.41,0,0,1,120.36,25.19c1.56.57,3.12,1.16,4.67,1.75,100.71,38.55,187.3,115.1,232.28,213.47,1.2,2.6,2.35,5.22,3.47,7.86C1079.09,663.12,1088.77,736.59,1059.18,797.65Z" fill="#f2f2f2"/><polygon points="78.41 743.64 78.41 744.14 78.23 744.36 78.41 743.64" fill="#cacaca"/><path d="M297,817.89l-11.72,4v-4Z" fill="#fff"/><rect x="575.3" width="23.42" height="41.68" fill="#e4e4e4"/><path d="M639.15,36.42V707.76a484.7,484.7,0,0,1-87.77-23.43q-8.32-3.08-16.55-6.46c-1.48-.59-3-1.22-4.43-1.83q-9.27-3.91-18.4-8.21-7.68-3.62-15.27-7.49t-14.84-7.94q-12.06-6.72-23.86-14.11-9.11-5.74-18-11.91v-590Z" fill="#e4e4e4"/><path d="M719.45,36.42V714.49q-14.22,0-28.44-.83-4.08-.24-8.16-.54-21.5-1.64-42.85-5.21c-.28,0-.57-.09-.85-.15V36.42Z" fill="#cacaca"/><rect x="476.03" y="217.75" width="30.11" height="30.11" fill="#fff"/><rect x="524.55" y="217.75" width="30.11" height="30.11" fill="#fff"/><rect x="573.06" y="217.75" width="30.11" height="30.11" fill="#fff"/><rect x="476.87" y="286.34" width="30.11" height="30.11" fill="#fff"/><rect x="525.38" y="286.34" width="30.11" height="30.11" fill="#fff"/><rect x="573.9" y="286.34" width="30.11" height="30.11" fill="#fff"/><rect x="476.03" y="80.56" width="30.11" height="30.11" fill="#fff"/><rect x="524.55" y="80.56" width="30.11" height="30.11" fill="#fff"/><rect x="573.06" y="80.56" width="30.11" height="30.11" fill="#fff"/><rect x="476.87" y="149.15" width="30.11" height="30.11" fill="#fff"/><rect x="525.38" y="149.15" width="30.11" height="30.11" fill="#fff"/><rect x="573.9" y="149.15" width="30.11" height="30.11" fill="#fff"/><rect x="477.7" y="354.93" width="30.11" height="30.11" fill="#fff"/><rect x="526.22" y="354.93" width="30.11" height="30.11" fill="#fff"/><rect x="574.74" y="354.93" width="30.11" height="30.11" fill="#fff"/><rect x="478.54" y="423.52" width="30.11" height="30.11" fill="#fff"/><rect x="527.06" y="423.52" width="30.11" height="30.11" fill="#fff"/><rect x="575.57" y="423.52" width="30.11" height="30.11" fill="#fff"/><rect x="477.7" y="489.23" width="30.11" height="30.11" fill="#fff"/><rect x="526.22" y="489.23" width="30.11" height="30.11" fill="#fff"/><rect x="574.74" y="489.23" width="30.11" height="30.11" fill="#fff"/><rect x="478.54" y="557.82" width="30.11" height="30.11" fill="#fff"/><rect x="527.06" y="557.82" width="30.11" height="30.11" fill="#fff"/><rect x="575.57" y="557.82" width="30.11" height="30.11" fill="#fff"/><rect x="591.97" y="745.62" width="37.12" height="37.12" fill="#fff"/><rect x="651.78" y="745.62" width="37.12" height="37.12" fill="#fff"/><rect x="711.59" y="745.62" width="37.12" height="37.12" fill="#fff"/><rect x="593.01" y="830.18" width="37.12" height="37.12" fill="#fff"/><rect x="652.81" y="830.18" width="37.12" height="37.12" fill="#fff"/><rect x="712.62" y="830.18" width="37.12" height="37.12" fill="#fff"/><path d="M631.16,914.74V934q-9.46-3.9-18.82-8.1T594,917.31v-2.57Z" fill="#fff"/><path d="M691,914.74v37.13H679.7q-10.26-3.33-20.4-7c-1.82-.65-3.65-1.32-5.46-2V914.74Z" fill="#fff"/><rect x="713.65" y="914.74" width="37.12" height="37.12" fill="#fff"/><rect x="848.27" y="363.45" width="23.42" height="34.7" fill="#e4e4e4"/><path d="M890.1,395.17v430c-54.73,28.26-112.64,42.07-170.65,42.11q-14.22,0-28.44-1.08v-471Z" fill="#e4e4e4"/><path d="M970.4,395.17V770.31a369.71,369.71,0,0,1-47.64,36.06q-16.11,10.32-32.66,18.82v-430Z" fill="#cacaca"/><rect x="730.32" y="452.12" width="30.11" height="30.11" fill="#fff"/><rect x="778.84" y="452.12" width="30.11" height="30.11" fill="#fff"/><rect x="827.36" y="452.12" width="30.11" height="30.11" fill="#fff"/><rect x="731.16" y="520.71" width="30.11" height="30.11" fill="#fff"/><rect x="779.68" y="520.71" width="30.11" height="30.11" fill="#fff"/><rect x="828.19" y="520.71" width="30.11" height="30.11" fill="#fff"/><rect x="730.32" y="589.3" width="30.11" height="30.11" fill="#fff"/><rect x="778.84" y="589.3" width="30.11" height="30.11" fill="#fff"/><rect x="827.36" y="589.3" width="30.11" height="30.11" fill="#fff"/><rect x="731.16" y="657.9" width="30.11" height="30.11" fill="#fff"/><rect x="779.68" y="657.9" width="30.11" height="30.11" fill="#fff"/><rect x="828.19" y="657.9" width="30.11" height="30.11" fill="#fff"/><rect x="902.36" y="830.18" width="37.12" height="37.12" fill="#fff"/><rect x="962.17" y="830.18" width="37.12" height="37.12" fill="#fff"/><rect x="1021.98" y="830.18" width="37.12" height="37.12" fill="#fff"/><rect x="903.39" y="914.74" width="37.12" height="37.12" fill="#fff"/><rect x="963.2" y="914.74" width="37.12" height="37.12" fill="#fff"/><rect x="1023.01" y="914.74" width="37.12" height="37.12" fill="#fff"/><path d="M880.88,995.82s13.21,47,68.51,44.83S1028.61,995,1028.61,995Z" fill="#3f3d56"/><polygon points="118.75 812.65 102.95 841.59 105.52 895.91 484.16 1008.42 649.04 1028.69 616.81 832.06 504.01 812.08 334.79 816.92 191.33 790.45 118.75 812.65" fill="#2f2e41"/><path d="M171.46,1003.07h-9.77a49.49,49.49,0,0,1-45-28.56c-15.07-32.9-10.6-78.39-10.54-79,3.42-39.32,25-65,53.63-63.8,31.64,1.27,58.62,110.71,59.75,115.37a40.77,40.77,0,0,1-1.42,23.67A49.32,49.32,0,0,1,171.46,1003.07Z" fill="#3f3d56"/><path d="M570.05,1078.22a34.83,34.83,0,0,1-5-.48,77.3,77.3,0,0,1-58.36-44.43c-4-8.62-7.78-17.45-11.34-26.23-14.28-35.28-2.3-97,17.15-120.84,17.17-21.07,34.45-20.9,60.61-20.65,2.68,0,5.46,0,8.35,0,29,.05,59.75,106.89,69.84,142,.8,2.8,1.47,5.11,2,6.84,1.58,5.34,1.4,11.72-.56,19-6.15,22.87-26.44,39.83-50.49,42.2C585,1077.36,574.15,1078.22,570.05,1078.22Z" fill="#3f3d56"/><path d="M105.51,895.91s-11.1-49.53,5.56-83.26l16.78-40.56L191.27,831l14.48,92.2,248.17,37.6S438.55,809.66,535,803.68,677.32,960.81,677.32,960.81l48.15,35,335.59-24.77s5.93,16.23-2.59,24.77-415.83,35-415.83,35S622.14,828.45,541,847.23s-56.86,161.19-56.86,161.19l-289.84-51s-9.39-137.48-57.21-137.48S105.51,895.91,105.51,895.91Z" fill="#3f3d56"/><polygon points="162.7 723.72 217.38 638.02 450.5 624.36 709.24 627.77 829.65 739.64 457.33 760.99 157.6 744.76 162.7 723.72" fill="#3f3d56"/><path d="M162.7,723.72s-46.51,1-51.63,88.93c0,0,49.52-89.66,92.22,110.16l254.9,41.41s-9.4-166.51,87.1-153.71S664.84,976.18,664.84,976.18s18.78,37.57,122.11,31.59,257.89-15.37,274.11-36.72c0,0,37.57-127.23-79.41-209.21l-152-22.2-344.14,6.83Z" fill="#6c63ff"/><path d="M279.29,783.62h-29a6,6,0,0,1,0-12h29.08a6,6,0,0,1,0,12Z" fill="#cacaca"/><circle cx="721.2" cy="950.56" r="18.79" fill="#fff"/><path d="M711.89,858.38c-12.86,0-28.22-5.49-42-16.08-24.26-18.69-34.44-46.27-22.72-61.5s41-12.41,65.26,6.27c11.72,9,20.54,20.38,24.85,32s3.57,22.13-2.14,29.54C730.1,855.17,721.72,858.38,711.89,858.38Z" fill="#fff"/><path d="M1045.73,834.52c-9.46,0-26.46-9.58-43.29-25.13-10.09-9.32-18.44-19.31-23.53-28.13s-6.34-15.7-3.31-19,9.84-2.63,19.18,1.81,19.81,11.92,29.9,21.24c21.29,19.67,33.08,40.36,26.84,47.11A7.55,7.55,0,0,1,1045.73,834.52Z" fill="#fff"/><path d="M252.13,723.71c-.21,0-.41,0-.62,0l-61.74-5.74a6.65,6.65,0,0,1-5-10.12l34.82-56.13a6.63,6.63,0,0,1,5.35-3.14l46-2a6.64,6.64,0,0,1,6.93,6.34,6.82,6.82,0,0,1-.27,2.2L258.49,719A6.67,6.67,0,0,1,252.13,723.71Z" fill="#fff"/><path d="M414.84,736.86c-.61,0-1.22,0-1.84-.09L306.25,726.26a18.64,18.64,0,0,1-16.72-20.37,18,18,0,0,1,.57-3.08l15.35-56.34a18.55,18.55,0,0,1,17.33-13.73l86.15-3a18.75,18.75,0,0,1,19.17,16.48l7.11,61.33a18.79,18.79,0,0,1-.31,6.12L433,722.2A18.65,18.65,0,0,1,414.84,736.86Z" fill="#fff"/><path d="M498.15,739.82a13.89,13.89,0,0,1-13.48-10.71l-18.83-81.4a13.83,13.83,0,0,1,10.36-16.59,13.64,13.64,0,0,1,3.12-.36H702.63a13.91,13.91,0,0,1,9.93,4.2l72.94,75.21a13.83,13.83,0,0,1-9.62,23.46l-277.42,6.19Z" fill="#fff"/><path d="M215.47,641l1.91-3s11.1-30.74,164-35.86,295.46-2.57,327.91,25.61l-263.86-.85L222.5,642.29Z" fill="#6c63ff"/><path d="M143.09,860c-16,0-29,26.76-29,59.78s13,59.77,29,59.77,29-26.76,29-59.77S159.12,860,143.09,860Zm1.28,12.81c3.54,0,6.4,6.88,6.4,15.37s-2.86,15.37-6.4,15.37S138,896.71,138,888.22,140.83,872.85,144.37,872.85Zm3.84,47c0,2.83-1.91,5.12-4.27,5.12s-4.27-2.29-4.27-5.12,1.91-5.13,4.27-5.13,4.27,2.3,4.27,5.13Zm-22.31,3.29c-5.49.42-10.08-1.09-10.26-3.38s4.13-4.49,9.62-4.91,10.09,1.09,10.26,3.38-4.13,4.48-9.62,4.91Zm18.47,43.67c-3.54,0-6.41-6.88-6.41-15.37S140.83,936,144.37,936s6.4,6.88,6.4,15.37-2.86,15.37-6.4,15.37Zm16.54-43.67c-5.49.42-10.08-1.09-10.26-3.38s4.13-4.49,9.62-4.91,10.09,1.09,10.26,3.38-4.13,4.48-9.62,4.91Z" fill="#e4e4e4"/><path d="M548.7,900.18c-25.46,0-46.11,34.21-46.11,76.42S523.24,1053,548.7,1053s46.12-34.22,46.12-76.43S574.17,900.18,548.7,900.18Zm-27.54,82.16c-7.44.57-13.66-1.47-13.9-4.57s5.59-6.08,13-6.65,13.66,1.47,13.9,4.57-5.6,6.07-13,6.65Zm27.57,58.31c-4.79,0-8.67-9.32-8.67-20.82S543.94,999,548.73,999s8.68,9.32,8.68,20.82-3.89,20.82-8.68,20.82ZM541.87,977c0-4.53,3.06-8.2,6.83-8.2s6.84,3.67,6.84,8.2-3.06,8.2-6.84,8.2-6.83-3.67-6.83-8.2Zm6.86-22c-4.79,0-8.67-9.32-8.67-20.82s3.88-20.82,8.67-20.82,8.68,9.32,8.68,20.82-3.89,20.82-8.68,20.82ZM578,980.63c-7.43.58-13.66-1.47-13.9-4.57s5.6-6.08,13-6.65,13.66,1.47,13.9,4.57S585.41,980.06,578,980.63Z" fill="#e4e4e4"/><path d="M387.31,747.32l10.25,23.91s17.08,6.83,28.18-16.22l-22.5-22.5Z" fill="#cacaca"/><path d="M373.22,752.87c-18.36,0-33.3-10-33.3-22.2s14.94-22.2,33.3-22.2,33.3,10,33.3,22.2S391.58,752.87,373.22,752.87Z" fill="#cacaca"/><path d="M1015.38,831l-190.92,5.58s-41.79,11.72-46.05,45.21c0,0,6,27.34,21.32,27.34s250.69-12.28,250.69-12.28,15.35-23.44,2.56-40.18S1015.38,831,1015.38,831Z" fill="#3f3d56"/><rect x="807.99" y="845.38" width="224.02" height="2.56" transform="translate(-27.47 30.86) rotate(-1.89)" fill="#e4e4e4"/><rect x="796.48" y="855.31" width="243.76" height="2.56" transform="matrix(1, -0.05, 0.05, 1, -37.83, 42.44)" fill="#e4e4e4"/><rect x="787.32" y="867.83" width="261.52" height="2.56" transform="translate(-45.28 50.48) rotate(-3.07)" fill="#e4e4e4"/><g id="b114ba47-4fbf-4eb8-a41e-e56cdbe40d20" data-name="fa69add6-ae6a-462f-9f4a-a8964149f7d7"><path id="f6f7570c-706d-450a-b478-7e030502204c" data-name="f4e602e9-d2b5-4192-9853-189e5cc927ef" d="M141.73,804.07a11.62,11.62,0,0,1,2-16.3,12,12,0,0,1,1.72-1.11l-2.42-26.43,15.7-5.4,2.9,37.38a11.68,11.68,0,0,1-19.93,11.86Z" fill="#ffb8b8"/><path id="e3e5119e-59cd-4afd-b635-372246a3eae3" data-name="e2d38235-adb3-41cf-b4a9-63352e01515a" d="M158.59,652.37s10.77-22.62,20.35-14.67-13.13,74.82-13.13,74.82l-3.45,64.92-18.2-1.82L139,712.38Z" fill="#e6e6e6"/><path id="a599a427-aeb6-4a0a-9395-004f00ad4f4c" data-name="eea0d059-1974-4b26-aac7-8a2396c42a8e" d="M14.05,986.94l13.5,10.93L76.16,951,56.22,934.83Z" fill="#ffb8b8"/><path id="fb4f8159-a80a-43c4-9bd8-56344d96a472" data-name="a9703c69-ade6-4e5d-bca9-6a3d314fecef" d="M14.17,979.74l26.6,21.53h0A21.81,21.81,0,0,1,44,1032l-.44.55L0,997.24Z" fill="#2f2e41"/><path id="ac5c3c9e-a33a-4797-8d71-2b774e9df342" data-name="fb949616-149f-4f99-b6d4-35f2ecdeae65" d="M201.79,1017.29h17.38l8.26-67H201.78Z" fill="#ffb8b8"/><path id="a3ede570-0be3-4ba5-bcf9-0f05a6ab01ca" data-name="b920e865-38ed-4b06-94ca-a4364bcce1a4" d="M197.35,1011.62h34.23a21.81,21.81,0,0,1,21.81,21.81v.71h-56Z" fill="#2f2e41"/><path id="bc0eb048-3587-4221-b702-7b0dea240871" data-name="e64f2ddc-8714-4699-9f4e-cfc1a70d06b3" d="M232.28,703s32.61,39.69,25.52,79.39S245,851.87,245,851.87l-11.33,89.31s4.25,24.33-1.42,30.59c0,0,8.51,14.78-7.09,20.45s-24-2-24-2-11.44-16.47-4.35-20.72l3-175.28L86.27,942.6s-2.09,18-16.64,18.24L52.24,973.79,32.4,962.44l9.92-12.76s-5.67-14.17,7.09-17l73.72-96.4,18.42-49.61s9.93-38.28,36.86-53.87v-16.6Z" fill="#2f2e41"/><path id="bb1d7407-62a4-476e-b462-d121cb926658" data-name="bce97f6a-e88b-4fe5-bf4a-3ce22a01c084" d="M176.29,634.26h0a27.07,27.07,0,0,1,35.68-5l1.18.79h0a104.51,104.51,0,0,1,24.46,50.36l5.31,29-66.63,14.43L160.67,670a30.44,30.44,0,0,1,15.62-35.7Z" fill="#e6e6e6"/><path id="e8d413b9-55d0-47cd-a520-0597245c4306" data-name="b697c87b-19ec-4b06-9e7e-37987317631c" d="M285.76,810.24a13.3,13.3,0,0,1-8.51-16.77,13.12,13.12,0,0,1,.92-2.15L259,767.79l11.45-15.16,26.67,33.6a13.36,13.36,0,0,1-11.31,24Z" fill="#ffb8b8"/><path id="bb5831fa-ce5d-4c23-a0b7-ef77c6718a72" data-name="ff802918-ea99-4deb-b868-19882644d1b6" d="M204.64,655.53s-4.25-28.36,9.92-26.94S250,708,250,708l38.28,63.79-18.43,9.93L224.49,725Z" fill="#e6e6e6"/><path id="b3126469-e266-4225-9e0d-7ce9ab477e1b" data-name="b2ad01c3-7822-402f-83d4-81805929538c" d="M230.6,614.07H163.09a5.23,5.23,0,0,1-5.23-5.23v-29.1a39,39,0,0,1,78,0h0v29.1A5.24,5.24,0,0,1,230.6,614.07Z" fill="#2f2e41"/><circle id="f55878dd-0c6c-4c02-b196-af3f022cd5ba" data-name="fe1c8106-5903-484b-8252-f0483d4636a1" cx="204.86" cy="584.81" r="28.59" fill="#ffb8b8"/><path id="fa5b0ff1-570d-477f-9999-a8fd207441e7" data-name="e2d5a9f4-7ffc-4596-9574-3d578968164c" d="M245.06,582.65h-36l-.37-5.93-1.85,5.93h-5.54l-.73-11.75L197,582.65H186.23v-.58c0-17,12.06-30.85,26.88-30.85h5.08c14.82,0,26.88,13.84,26.88,30.85Z" fill="#2f2e41"/><path id="aee1477e-481a-4f63-808a-d5b69eb6dea9" data-name="aa8282a4-b0b8-48ea-8496-97297549be2f" d="M210.58,619.51a9.77,9.77,0,0,1-1.32-.1l-42.82-6.6v-44.6A17.18,17.18,0,0,1,183.62,551h30l-1.16,1.19c-16.24,16.52-4,43.33,4.73,57.84a5.74,5.74,0,0,1-.58,6.78,7.77,7.77,0,0,1-6,2.67Z" fill="#2f2e41"/></g></svg>