<svg id="a1be2c6c-2e49-4f50-b004-9bd558166a23" data-name="ec20663a-47a1-42a3-991c-bc307f281f8f" xmlns="http://www.w3.org/2000/svg" viewBox="0 0 1114 1109.75"><ellipse cx="557" cy="427.7" rx="557" ry="224.71" fill="#c0c2a9" opacity="0.1"/><g opacity="0.8"><path d="M404.79,36.61c9.44,13.24,16.69,51.81,18.71,63.43l16.88-.35c-.88-10-20.51-50.59-26-61.73C411.37,37.48,408.13,37,404.79,36.61Z" transform="translate(0 -1.23)" fill="#5a5c4c"/><rect x="192.5" y="29.59" width="10.53" height="7.48" transform="translate(160.71 229.21) rotate(-88.92)" fill="#16140b"/><path d="M194.13,28l-.06,3.42a5.22,5.22,0,0,0,1.62.25l5.85.06.07-3.59Z" transform="translate(0 -1.23)" fill="#fff" opacity="0.1" style="isolation:isolate"/><path d="M205.27,1.36l-7.06-.13a8.49,8.49,0,0,0-8,5.14c-2.16,5.05-4.06,13.11.38,21.27a5.86,5.86,0,0,0,5.07,3l9,.09Z" transform="translate(0 -1.23)" fill="#16140b"/><ellipse cx="204.99" cy="16.07" rx="14.71" ry="7.56" transform="translate(185.06 219.49) rotate(-88.92)" fill="#0f0f0b"/><rect x="259.58" y="30.32" width="9.22" height="7.48" transform="translate(225.16 296.33) rotate(-88.92)" fill="#16140b"/><path d="M260.54,29.37l-.05,2.93a5.22,5.22,0,0,0,1.62.25l5.85.07.06-3.1Z" transform="translate(0 -1.23)" fill="#fff" opacity="0.1" style="isolation:isolate"/><path d="M271.68,2.74l-7.06-.13a8.47,8.47,0,0,0-7.94,5.14c-2.17,5.05-4.07,13.11.38,21.26a5.84,5.84,0,0,0,5.06,3.05l9,.09Z" transform="translate(0 -1.23)" fill="#16140b"/><ellipse cx="271.4" cy="17.45" rx="14.71" ry="7.56" transform="translate(248.84 287.24) rotate(-88.92)" fill="#0f0f0b"/><path d="M269.7,8.08s2.78.5,1.26,4.15a25.29,25.29,0,0,0-1.78,5.55s-2.82,1.4-2.62-3.4S269.7,8.08,269.7,8.08Z" transform="translate(0 -1.23)" fill="#16140b"/><ellipse cx="549.06" cy="223.54" rx="48.36" ry="44.12" transform="translate(315.19 767.05) rotate(-88.92)" fill="#5a584a"/><path d="M533.38,177.9c23.06,2,41,23.34,40.46,49-.39,20.71-12.6,38.15-29.43,44.72-23.06-2-40.94-23.34-40.46-49C504.34,201.91,516.56,184.47,533.38,177.9Z" transform="translate(0 -1.23)" fill="#fff" opacity="0.1" style="isolation:isolate"/><ellipse cx="205.81" cy="111.36" rx="46.69" ry="35.81" transform="translate(90.59 313.8) rotate(-88.92)" fill="#5a584a"/><path d="M216.66,66.82c14.74,6,25.25,24.07,24.85,45.28-.43,22.66-13.17,41.31-29.67,45.24-14.74-6-25.25-24.07-24.84-45.28C187.42,89.4,200.16,70.75,216.66,66.82Z" transform="translate(0 -1.23)" fill="#fff" opacity="0.1" style="isolation:isolate"/><path d="M340.49,103.93l-.34-17s3.46-7.25,6.79-7.85,11-.87,11-.87,5.52,24.45,1.39,31.69S340.49,103.93,340.49,103.93Z" transform="translate(0 -1.23)" fill="#5a5c4c"/><path d="M340.49,103.93l-.34-17s3.46-7.25,6.79-7.85,11-.87,11-.87,5.52,24.45,1.39,31.69S340.49,103.93,340.49,103.93Z" transform="translate(0 -1.23)" fill="#fff" opacity="0.1" style="isolation:isolate"/><path d="M401.83,103.26s2.5-23.46-10.4-24.13c-1.66-.08-3.32-.15-5-.35-8.93-1-33.3-3.38-30.49,2.26,0,0,5.43,20.54,1.35,25.62Z" transform="translate(0 -1.23)" fill="#5a5c4c"/><path d="M218,143.37l-17.33.17s-2.38-31.95-3.33-34.46-1.23-14.48,2-16.17,14.15-3.59,14.15-3.59l7.63,18.34.31,16.46Z" transform="translate(0 -1.23)" fill="#5a5c4c"/><path d="M218,143.37l-17.33.17s-2.38-31.95-3.33-34.46-1.23-14.48,2-16.17,14.15-3.59,14.15-3.59l7.63,18.34.31,16.46Z" transform="translate(0 -1.23)" fill="#fff" opacity="0.1" style="isolation:isolate"/><path d="M260.87,91.21l.15-3.55a2.06,2.06,0,0,0-2-2.14h-.13c-8.59.2-39.86,1.11-45.38,3.8,0,0,5.14,44.59-1.66,55.06l1.57,35.68,76.61-4.29Z" transform="translate(0 -1.23)" fill="#5a5c4c"/><path d="M267.91,35.14c-2.12-.25-4.64-.52-7.46-.8l-.08,4.25,7.48.15Z" transform="translate(0 -1.23)" fill="#fff" opacity="0.1" style="isolation:isolate"/><path d="M193.94,38v.54l7.48.14.06-3.24A32.33,32.33,0,0,0,193.94,38Z" transform="translate(0 -1.23)" fill="#fff" opacity="0.1" style="isolation:isolate"/><polygon points="154.43 142.06 165.73 142.44 189.88 100.46 193.91 93.45 191.26 75.45 188.88 79.75 154.43 142.06" fill="#16140b"/><polygon points="257.6 91.83 262.12 98.89 276.38 80.35 282.9 71.86 279.18 66.64 276.19 70.13 257.6 91.83" fill="#16140b"/><path d="M276.18,71.36c0,.36-.05.73-.08,1.1l.28,9.12,6.52-8.49-3.72-5.22Z" transform="translate(0 -1.23)" fill="#fff" opacity="0.1" style="isolation:isolate"/><polygon points="188.88 79.75 189.88 100.46 193.91 93.45 191.26 75.45 188.88 79.75" fill="#fff" opacity="0.1" style="isolation:isolate"/><path d="M289.16,84.84s6.37-41.56-13.82-48.18a4.38,4.38,0,0,0-.8-.17c-4.66-.66-48.13-6.5-70.87-1,0,0-15.49,2-15.49,10.34l4.9,101.64,11.13.21-2.39-67.19s-4.76-29.34,4.08-31.16,48.95-4.4,63-.14c0,0,10.35-2.14,8.21,23.25l.4,13.64Z" transform="translate(0 -1.23)" fill="#16140b"/><path d="M255,96.58a6.41,6.41,0,0,1,2.72-5.68c3.16-2.31,12.85-7.24,12.85-7.24l3.11.31,8.91,23.35-1.55,49.21L263.86,177Z" transform="translate(0 -1.23)" fill="#5a5c4c"/><path d="M255,96.58a6.41,6.41,0,0,1,2.72-5.68c3.16-2.31,12.85-7.24,12.85-7.24l3.11.31,8.91,23.35-1.55,49.21L263.86,177Z" transform="translate(0 -1.23)" fill="#fff" opacity="0.1" style="isolation:isolate"/><path d="M321.18,149.44l.62-50.52s1.87-19.57-9.84-20.13c0,0-27.63-.32-39.7,3.35a2.68,2.68,0,0,0-1.79,3.34,2.49,2.49,0,0,0,.21.51c2.31,4.2,6.13,15.28,7.54,43.56l-.57,30.28Z" transform="translate(0 -1.23)" fill="#5a5c4c"/><polygon points="262.3 179.38 312.58 179.16 312.63 179.16 337.35 179.05 335.1 145.98 321.39 146.22 277.59 155.11 263.86 175.79 262.3 179.38" fill="#5a5c4c"/><polygon points="262.3 179.38 312.58 179.16 312.63 179.16 337.35 179.05 335.1 145.98 321.39 146.22 277.59 155.11 263.86 175.79 262.3 179.38" fill="#fff" opacity="0.1" style="isolation:isolate"/><polygon points="262.3 179.38 312.58 179.16 313.83 157.04 277.59 155.11 263.86 175.79 262.3 179.38" fill="#5a5c4c"/><path d="M312.63,180.39l24.72-.11-2.25-33.07s-8,12.19-21.27,11.06Z" transform="translate(0 -1.23)" opacity="0.1" style="isolation:isolate"/><path d="M134.84,203.75c.82,9.49,7.58,8.12,7.58,8.12l1.26-.09,12.47-.89-.22-14.72a54.66,54.66,0,0,0-12.65.52C138.6,197.57,134.48,199.54,134.84,203.75Z" transform="translate(0 -1.23)" fill="#16140b"/><path d="M134.84,203.75c.82,9.49,7.58,8.12,7.58,8.12l1.26-.09a12.78,12.78,0,0,0,2.12-7.07,12,12,0,0,0-2.52-8C138.6,197.57,134.48,199.54,134.84,203.75Z" transform="translate(0 -1.23)" fill="#fff" opacity="0.1" style="isolation:isolate"/><path d="M308.62,110.72c-.29,15.37,8.7,28,20.07,28.22s20.84-12.07,21.13-27.44-8.7-28-20.07-28.22S308.91,95.35,308.62,110.72Zm7.77,2c.21-11.15,7.41-20.06,16.08-19.89s15.53,9.33,15.32,20.48-7.41,20-16.08,19.89-15.53-9.33-15.32-20.48Z" transform="translate(0 -1.23)" fill="#5a584a"/><polygon points="328.06 118.42 318.25 127.71 314.92 119.17 329.03 111.29 328.06 118.42" fill="#5a584a"/><polygon points="315.63 24.42 307.22 25.29 304.04 28.93 308.35 50.25 317.73 84.65 323.87 108.26 328.23 122.61 330.82 141.53 333.52 154.57 342.2 163.58 360.59 142.69 363.68 135.66 371.03 121.35 352.9 112.45 332.88 110.3 323.9 85.94 316.77 57.78 315.63 24.42" fill="#555a00"/><polyline points="483.43 128.83 492.65 221.08 354.7 212.66 371.5 167.77 398.41 150.99 337.59 150.84 337.73 125.58 362.42 120.73 412.01 117.68 449.25 116.72 484.59 129.02" fill="#5a5c4c"/><polyline points="483.43 128.83 492.65 221.08 354.7 212.66 371.5 167.77 398.41 150.99 337.59 150.84 337.73 125.58 362.42 120.73 412.01 117.68 449.25 116.72 484.59 129.02" fill="#fff" opacity="0.1" style="isolation:isolate"/><path d="M293.07,218.23c-.43,22.87,6.78,43.84,27.91,42,26.6-.07,29-18,29.46-40.88s-12.08-40.13-27.93-40.43S293.51,195.36,293.07,218.23Z" transform="translate(0 -1.23)" fill="#5a584a"/><path d="M292.91,218.27c.33-17.71,8.3-31.77,19.23-37.07,13.86,2.91,24.24,19.1,23.85,40-.35,18.74-2.05,34.17-17.3,39.16C299.2,260.66,292.49,240.36,292.91,218.27Z" transform="translate(0 -1.23)" fill="#fff" opacity="0.1" style="isolation:isolate"/><polygon points="266.65 180.59 274.59 190.03 260.04 187.25 249.32 177.02 239.95 157.37 226.4 148.71 192.69 152.64 161.56 153.24 150.26 142.82 163.11 141.32 176.09 141.27 208.69 141.15 247.49 140.85 255.05 162.23 260.82 176.94 266.65 180.59" fill="#555a00"/><path d="M154.36,217.58c.65,1,22.35,4.75,22.35,4.75l59.93,12.1L340,237.88l12.32-10.08,6.35,1.26.25.05,84.8,16.71,1.39-.17,23.25-2.87,121.46-15-1-17.61-.6-10.39-1.26-21.58-1.06-5.67-10.76-1.19-5-.56-78.48-8.7L481.3,161l-5.75-.64-56-8.7-81.94.44.14-25.26L307.22,26.52c-7.17,1-7.09,5.85-7.09,5.85l25.8,94.38-.75,57.66c-57.47,4.71-59.08-7.82-68.24-3.78l-10.3-35.26-96.37-1.32C146.36,148.63,154.36,217.58,154.36,217.58Z" transform="translate(0 -1.23)" fill="#5a5c4c"/><polygon points="394.43 168.54 362.62 233.59 352.25 236.71 349.96 226.03 362.11 189.86 374.31 168.99 394.43 168.54" fill="#5a5c4c"/><polygon points="394.43 168.54 362.62 233.59 352.25 236.71 349.96 226.03 362.11 189.86 374.31 168.99 394.43 168.54" fill="#fff" opacity="0.15" style="isolation:isolate"/><ellipse cx="412.96" cy="242.41" rx="62.81" ry="55.37" transform="translate(162.79 649.49) rotate(-88.92)" fill="#5a584a"/><path d="M394.32,183.16c28.94,2.56,51.37,30.28,50.74,63.65-.51,26.9-15.85,49.57-37,58.12-28.93-2.57-51.37-30.29-50.74-63.66C357.85,214.37,373.2,191.71,394.32,183.16Z" transform="translate(0 -1.23)" fill="#fff" opacity="0.1" style="isolation:isolate"/><path d="M563.44,135.4l2.49,13,7.64,39.74,36.13-2.81s2.28-6.6-3.32-9.2c0,0-1.43-22.53-8-29.74a6.76,6.76,0,0,0-2.58-1.87Z" transform="translate(0 -1.23)" fill="#5a5c4c"/><path d="M565.93,148.37l7.64,39.74,36.13-2.81s2.28-6.6-3.32-9.2c0,0-1.43-22.53-8-29.74Z" transform="translate(0 -1.23)" opacity="0.1" style="isolation:isolate"/><path d="M482.13,137.35c-4.8,7.72,5.13,79.88,5.13,79.88l88.84-13-2-63c-1.62-11.33-8.23-12.79-8.23-12.79C535,112.09,463.25,107.41,463.25,107.41c-65.51,1.25-125.52,19.4-125.52,19.4C412.38,116.75,482.13,137.35,482.13,137.35Z" transform="translate(0 -1.23)" fill="#5a5c4c"/><path d="M487.26,217.23l88.84-13-2-63c-1.62-11.33-8.23-12.79-8.23-12.79s-64.52-7.37-83.77,8.89C477.33,145.07,487.26,217.23,487.26,217.23Z" transform="translate(0 -1.23)" fill="#fff" opacity="0.1" style="isolation:isolate"/><path d="M496.7,213.25,571,202.17l-1.62-53.77c-1.35-9.67-6.88-10.91-6.88-10.91s-53.94-6.27-70.05,7.61C488.42,151.69,496.7,213.25,496.7,213.25Z" transform="translate(0 -1.23)" fill="#5a5c4c"/><ellipse cx="503.63" cy="169.17" rx="18.44" ry="10.14" transform="matrix(0.02, -1, 1, 0.02, 324.98, 668.29)" fill="#fff" opacity="0.1" style="isolation:isolate"/><ellipse cx="503.64" cy="168.67" rx="18.44" ry="10.14" transform="translate(325.49 667.81) rotate(-88.92)" fill="#16140b"/><path d="M502.57,155s4.14.74,1.88,6.19a37.37,37.37,0,0,0-2.65,8.26s-4.2,2.08-3.9-5.06S502.57,155,502.57,155Z" transform="translate(0 -1.23)" fill="#0f0f0b"/><ellipse cx="558.1" cy="162.88" rx="17.24" ry="9.47" transform="translate(384.7 716.58) rotate(-88.92)" fill="#fff" opacity="0.1" style="isolation:isolate"/><ellipse cx="558.11" cy="162.39" rx="17.24" ry="9.47" transform="translate(385.21 716.1) rotate(-88.92)" fill="#16140b"/><path d="M557,148.74s4.15.74,1.88,6.18a38.81,38.81,0,0,0-2.65,8.26s-4.19,2.08-3.89-5.06S557,148.74,557,148.74Z" transform="translate(0 -1.23)" fill="#0f0f0b"/><path d="M515.56,153.77c.53,6.83,2.9,57.39,2.9,57.39l5.66-.83,3.14-.46,4.19-.62.51-.08,16.5-2.43-2.24-53.63a6.72,6.72,0,0,0-6.66-6.44l-.5,0c-1.14.08-2.37.17-3.65.29l-1.64.16c-1.58.16-3.22.36-4.82.59-.82.12-1.63.25-2.42.39-1.35.25-2.65.52-3.85.83-.82.21-1.6.44-2.31.69C517.38,150.66,515.42,152,515.56,153.77Z" transform="translate(0 -1.23)" fill="#fff" opacity="0.1" style="isolation:isolate"/><path d="M539.56,146.67,541.64,207l1.83-.13L541.41,147A6.79,6.79,0,0,0,539.56,146.67Z" transform="translate(0 -1.23)" fill="#5a5c4c"/><path d="M533.77,147.14,535.64,208l2.82.05L535.41,147Z" transform="translate(0 -1.23)" fill="#5a5c4c"/><path d="M526.53,148.12l3.6,61.11,1.83,0v-.09l-3-61.44C528.13,147.85,527.32,148,526.53,148.12Z" transform="translate(0 -1.23)" fill="#5a5c4c"/><path d="M520.37,149.64l3.75,60.69v.11l3.17-.27,0-.3L522.68,149C521.86,149.16,521.08,149.39,520.37,149.64Z" transform="translate(0 -1.23)" fill="#5a5c4c"/><path d="M587.06,197.84s6.7-31.41-7.22-33.3-59.85.62-58.72,13.6,2.25,32.7,2.25,32.7l9.51-1.94s-6.54-29.79,4.57-30.7,38.33-3.51,38.33-3.51,7.38-1.11,2.65,24.85Z" transform="translate(0 -1.23)" fill="#fff" opacity="0.1" style="isolation:isolate"/><path d="M587,200.83s6.73-33.41-7.19-35.29-59.84.61-58.72,13.6,2.25,32.7,2.25,32.7l9.51-1.94s-6.54-29.79,4.57-30.7,38.33-3.52,38.33-3.52,7.34.89,2.61,26.85Z" transform="translate(0 -1.23)" fill="#16140b"/><path d="M340,237.88l12.29.06c9.72-39.37,25-63.68,25-63.68,5-2.57,59.52-1.2,59.52-1.2,5.64,1.1,6.79,19.07,6.79,19.07s-4.9,4.06-.3,6.81c2.06,1.23,8.89,1.58,16.78,1.33,9.8-.33,21.22-1.6,27.14-3.32,10.7-3.13,2.34-9.43,2.34-9.43s-1.46-2-2.25-13a44.25,44.25,0,0,0-5.72-18.21c-.44-.77-.73-1.19-.73-1.19a5.87,5.87,0,0,0-1.92-1.26c-14-6.14-83.11-1.84-83.11-1.84L370,159.67c-.71.27-1.84,2.05-3.24,4.91C358.37,181.76,340,237.88,340,237.88Z" transform="translate(0 -1.23)" fill="#5a5c4c"/><path d="M340,237.88l12.29.06c9.72-39.37,25-63.68,25-63.68,5-2.57,59.52-1.2,59.52-1.2,5.64,1.1,6.79,19.07,6.79,19.07s-4.9,4.06-.3,6.81c2.06,1.23,8.89,1.58,16.78,1.33,9.8-.33,21.22-1.6,27.14-3.32,10.7-3.13,2.34-9.43,2.34-9.43s-1.46-2-2.25-13a44.25,44.25,0,0,0-5.72-18.21c-.44-.77-.73-1.19-.73-1.19a5.87,5.87,0,0,0-1.92-1.26c-14-6.14-83.11-1.84-83.11-1.84L370,159.67c-.71.27-1.84,2.05-3.24,4.91C358.37,181.76,340,237.88,340,237.88Z" transform="translate(0 -1.23)" fill="#fff" opacity="0.1" style="isolation:isolate"/><path d="M366.78,164.58c23.79-8.73,88.79-2.63,88.79-2.63,7-5.79,20-5.93,25.95-5.65-.44-.77-.73-1.19-.73-1.19a5.87,5.87,0,0,0-1.92-1.26c-14-6.14-83.11-1.84-83.11-1.84L370,159.67C369.31,159.94,368.18,161.72,366.78,164.58Z" transform="translate(0 -1.23)" fill="#5a5c4c"/><path d="M451.7,164.37c1.4,5.17,7.16,25.89,7.16,25.89a88.38,88.38,0,0,1,1.15,10c9.8-.33,21.22-1.6,27.14-3.32,10.7-3.13,2.34-9.43,2.34-9.43s-1.46-2-2.25-13a44.09,44.09,0,0,0-6.45-19.4,5.87,5.87,0,0,0-1.92-1.26C469.6,155.86,450.64,160.45,451.7,164.37Z" transform="translate(0 -1.23)" fill="#5a5c4c"/><path d="M451.7,164.37c1.4,5.17,7.16,25.89,7.16,25.89a88.38,88.38,0,0,1,1.15,10c9.8-.33,21.22-1.6,27.14-3.32,10.7-3.13,2.34-9.43,2.34-9.43s-1.46-2-2.25-13a44.09,44.09,0,0,0-6.45-19.4,5.87,5.87,0,0,0-1.92-1.26C469.6,155.86,450.64,160.45,451.7,164.37Z" transform="translate(0 -1.23)" opacity="0.1" style="isolation:isolate"/><path d="M307.22,26.52l30.51,100.29L465,108.4,448.16,48.12s-2.6-13.76-9.19-14.88C439,33.24,337.25,13.62,307.22,26.52Zm14.16,15.72c-4.11-13.54,56.34-6.79,56.34-6.79,8.14-.63,17.95.06,27.07,1.16,3.34.41,6.58.87,9.62,1.35,6.78,1.06,12.53,2.2,16,2.92,2.19.45,3.45.74,3.45.74,12,4,17.92,53.94,17.92,53.94.9,5.25-5.31,4-5.31,4H446l-5.66.11L423.5,100l-82.3,1.66c-4.85-.59-5.49-6.34-5.49-6.34C333.17,91.2,321.38,42.24,321.38,42.24Z" transform="translate(0 -1.23)" fill="#5a5c4c"/><path d="M446,99.58h.4s6.21,1.24,5.31-4c0,0-5.91-50-17.92-53.94,0,0-1.26-.29-3.45-.74C434.61,49.52,448.14,79.11,446,99.58Z" transform="translate(0 -1.23)" fill="#5a5c4c"/><path d="M446,99.58h.4s6.21,1.24,5.31-4c0,0-5.91-50-17.92-53.94,0,0-1.26-.29-3.45-.74C434.61,49.52,448.14,79.11,446,99.58Z" transform="translate(0 -1.23)" fill="#fff" opacity="0.1" style="isolation:isolate"/><path d="M432.55,222.3a8,8,0,0,0,7.43,4.35l2.54-.06,24-.58,8.64-.21,8-.51,105.63-15.1-.6-10.39L576,201.31l-5,.62-74.55,9.23-9.81,1.22-4.76.59-20.1-.53L440,211.87a8.26,8.26,0,0,0-3.22.56,7.8,7.8,0,0,0-4.29,3.93A6.55,6.55,0,0,0,432.55,222.3Z" transform="translate(0 -1.23)" fill="#fff" opacity="0.1" style="isolation:isolate"/><path d="M432.53,223.3a8,8,0,0,0,7.44,4.35l35.15-.85,8-.51,112.65-16.1,8.85-1.27,4.83-.69c9.5-1.82,6.86-11.34,6.86-11.34-.58-4.33-16.79-8.63-22.11-8.56-3.57,0-4.18,5.54-4.18,9.15a30.43,30.43,0,0,0,.13,3.07l-5.27.65L481.84,214,440,212.87a8.05,8.05,0,0,0-7.52,4.48A6.6,6.6,0,0,0,432.53,223.3Z" transform="translate(0 -1.23)" fill="#16140b"/><path d="M601.71,194.46s-4.59,5.39-11.58,6.09C590.13,200.55,593.07,194.46,601.71,194.46Z" transform="translate(0 -1.23)" fill="#fff" opacity="0.1" style="isolation:isolate"/><path d="M602.58,209.93s14.79-.05,14.64,7.92-9.48,9.13-9.48,9.13L475.18,249.9l-37.56,0s-12.93-10.72.78-15.11l37.87,1.71,126.37-20.71S599.4,211.2,602.58,209.93Z" transform="translate(0 -1.23)" fill="#fff" opacity="0.1" style="isolation:isolate"/><path d="M437.6,250.86l37.56,0L593,230.52l8.63-1.5,6.06-1s9.33-1.16,9.48-9.13c.11-5.72-7.48-7.31-11.78-7.75a27.55,27.55,0,0,0-2.86-.17c-3.18,1.26.06,5.81.06,5.81l-4.6.76-121.77,20-37.86-1.71C424.68,240.14,437.6,250.86,437.6,250.86Z" transform="translate(0 -1.23)" fill="#16140b"/><path d="M591.57,203.24l-7.74-3.64-4-.24-.3,33.57,12.34-2.26,5.22-3.23,2.75-13.91s-.88-5.83-1.37-6.34S591.57,203.24,591.57,203.24Z" transform="translate(0 -1.23)" fill="#16140b"/><path d="M591.57,203.24l-7.74-3.64-4-.24-.3,33.57,12.34-2.26,5.22-3.23,2.75-13.91s-.88-5.83-1.37-6.34S591.57,203.24,591.57,203.24Z" transform="translate(0 -1.23)" fill="#fff" opacity="0.1" style="isolation:isolate"/><path d="M593,230.52l-.15.17,8.67-1.5.11-.17c4.69-7.25,5.19-13.21,3.76-17.92a27.55,27.55,0,0,0-2.86-.17c-3.18,1.26.06,5.81.06,5.81l-4.6.76C598.2,224.07,593.89,229.5,593,230.52Z" transform="translate(0 -1.23)" fill="#fff" opacity="0.1" style="isolation:isolate"/><path d="M580.84,199.38c1.45.59,2.79,1.2,4,1.82,5.54,2.8,8.93,5.89,10.89,9l8.85-1.27c-3.68-8-12.75-11.83-12.75-11.83l-1.85.39Z" transform="translate(0 -1.23)" fill="#fff" opacity="0.1" style="isolation:isolate"/><path d="M590.86,197.08s24.07,10.09,9.7,32.09l-8.68,1.5s17.49-19.28-12-31.31Z" transform="translate(0 -1.23)" fill="#16140b"/><polygon points="532.84 205.55 523.87 205.05 524.68 241.13 539.19 238.75 545.39 235.87 548.35 228.78 550.48 221.68 545.79 215.11 540.37 211.35 532.84 205.55" fill="#16140b"/><polygon points="532.84 205.55 523.87 205.05 524.68 241.13 539.19 238.75 545.39 235.87 548.35 228.78 550.48 221.68 545.79 215.11 540.37 211.35 532.84 205.55" fill="#fff" opacity="0.1" style="isolation:isolate"/><ellipse cx="533.48" cy="225.41" rx="7.31" ry="4.32" transform="translate(298.04 753.31) rotate(-88.92)" fill="#16140b"/><path d="M574.49,236.11a2.34,2.34,0,0,1,1.22,3.08,1.47,1.47,0,0,1-.1.22c-1,1.81-2.24,4.16-2.14,4.79.17,1.06-2.18.14-2.49-.11s-4.61-.09-4.8-3a5.06,5.06,0,0,1,2.39-4.44l-.88-6.44,5.93-.39-.17,5.86Z" transform="translate(0 -1.23)" fill="#5a584a"/><path d="M574.49,236.11a2.34,2.34,0,0,1,1.22,3.08,1.47,1.47,0,0,1-.1.22c-1,1.81-2.24,4.16-2.14,4.79.17,1.06-2.18.14-2.49-.11s-4.61-.09-4.8-3a5.06,5.06,0,0,1,2.39-4.44l-.88-6.44,5.93-.39-.17,5.86Z" transform="translate(0 -1.23)" fill="#fff" opacity="0.1" style="isolation:isolate"/><path d="M572.88,236s-2.12,6.82-1.26,7.08S572.88,236,572.88,236Z" transform="translate(0 -1.23)" fill="#fff" opacity="0.1" style="isolation:isolate"/><path d="M570.67,234.3s-2.13,6.81-1.26,7.08S570.67,234.3,570.67,234.3Z" transform="translate(0 -1.23)" fill="#fff" opacity="0.1" style="isolation:isolate"/><path d="M547.17,213.2l2.94,20.67s4.12-.49,6.4-.93a4.58,4.58,0,0,0,1.44-.42c.11-.11.36-.1.68,0h0c1.1.25,3.05,1.2,3.45.44a.64.64,0,0,1,.11-.16h0c.4-.41,1.15-.09,1.88,0a1.56,1.56,0,0,0,1.16-.13c.62-.4,1.85.28,2.87.52.64.15,1.19.13,1.45-.44a1.36,1.36,0,0,1,1-.69h0c1-.22,2.3,0,3.08-.18.3-.05.52-.16.59-.37.16-.45,1-.65,1.94-.8,1.12-.2,2.31-.33,2.41-.78,0-.15.14-.21.31-.21a9.67,9.67,0,0,1,1.81.48h0c.5.13.91.15,1-.21s.71-.34,1.36-.16,1.1.35,1.55.46.69.12.74-.07c.18-.66,2.31.88,2.83-.44s7.51-10-1.08-21.63c0,0-2.39.12-4.21.42a6.42,6.42,0,0,0-1.77.46h0a10.52,10.52,0,0,1-3.21.31,4,4,0,0,0-1.79.39,1.12,1.12,0,0,0-.51.52c-.29.63-.93.74-1.63.69-.94-.07-2-.45-2.37-.27l0,0c-.71.28-3.31-.06-3.76.37l0,0c-.19.27-1.21,0-2.25-.2h0a2.56,2.56,0,0,0-2.07.29,2.26,2.26,0,0,1-1.63.44,9.31,9.31,0,0,0-2.11.05.8.8,0,0,0-.43.26c-.43.51-1.44.42-2.34.45a2.36,2.36,0,0,0-1.33.31,1.24,1.24,0,0,1-.48.19,14.23,14.23,0,0,1-4-.28Z" transform="translate(0 -1.23)" fill="#5a584a"/><path d="M583.12,229.82c.52.14,1.1.35,1.55.46,7-10.34,1.41-18.39-1.72-21.72a6.42,6.42,0,0,0-1.77.46C587.81,217,584.48,226.68,583.12,229.82Z" transform="translate(0 -1.23)" fill="#fff" opacity="0.1" style="isolation:isolate"/><path d="M578.91,229.71a9.67,9.67,0,0,1,1.81.48h0c6-10.1.17-17.85-2.77-20.85a4,4,0,0,0-1.79.39C582.49,216.92,580.4,225.67,578.91,229.71Z" transform="translate(0 -1.23)" fill="#fff" opacity="0.1" style="isolation:isolate"/><path d="M573.66,231.87c.3-.05.52-.16.59-.37.16-.45,1-.65,1.94-.8,5.24-9.16.84-16.35-2.17-19.76-.94-.07-2-.45-2.37-.27l0,0C578.61,218.84,575,228.91,573.66,231.87Z" transform="translate(0 -1.23)" fill="#fff" opacity="0.1" style="isolation:isolate"/><path d="M568.12,233.18c.64.15,1.19.13,1.45-.44a1.36,1.36,0,0,1,1-.69h0c6.1-10.19.22-18-2.73-21l0,0c-.19.27-1.21,0-2.25-.2C573.81,219.53,569.28,230.71,568.12,233.18Z" transform="translate(0 -1.23)" fill="#fff" opacity="0.1" style="isolation:isolate"/><path d="M562.21,232.76c.4-.41,1.15-.09,1.88,0,6.35-10.11.84-17.94-2.22-21.16a9.31,9.31,0,0,0-2.11.05C566.8,219.55,563.65,229.35,562.21,232.76Z" transform="translate(0 -1.23)" fill="#fff" opacity="0.1" style="isolation:isolate"/><path d="M556.51,232.94a4.58,4.58,0,0,0,1.44-.42c.11-.11.36-.1.68,0h0c5.63-9.23,1.41-16.53-1.65-20.1a2.36,2.36,0,0,0-1.33.31,1.24,1.24,0,0,1-.48.19C561,220.7,557.82,229.92,556.51,232.94Z" transform="translate(0 -1.23)" fill="#fff" opacity="0.1" style="isolation:isolate"/><ellipse cx="395.16" cy="245.07" rx="39.88" ry="27.09" transform="translate(142.68 634.31) rotate(-88.92)" fill="#5a584a"/><ellipse cx="396.07" cy="245.67" rx="32.32" ry="19.69" transform="translate(142.96 635.8) rotate(-88.92)" fill="#fff" opacity="0.1" style="isolation:isolate"/><ellipse cx="396.09" cy="244.67" rx="32.32" ry="19.69" transform="translate(143.98 634.84) rotate(-88.92)" fill="#0f0f0b"/><ellipse cx="392.92" cy="222.92" rx="3.99" ry="2.33" transform="translate(162.62 610.34) rotate(-88.92)" fill="#5a584a"/><ellipse cx="382.96" cy="257.64" rx="3.99" ry="2.33" transform="translate(118.14 634.43) rotate(-88.92)" fill="#5a584a"/><ellipse cx="408.36" cy="241.49" rx="3.99" ry="2.33" transform="translate(159.2 643.99) rotate(-88.92)" fill="#5a584a"/><ellipse cx="401.11" cy="264.63" rx="3.99" ry="2.33" transform="translate(128.96 659.44) rotate(-88.92)" fill="#5a584a"/><path d="M198.35,167.56S177.93,219,178.87,222.29c0,0-8.32,4.82-10.29,3.54s.21-24.18.21-24.18l4.12-20.11,4.46-11.89Z" transform="translate(0 -1.23)" fill="#5a5c4c"/><path d="M198.35,167.56S177.93,219,178.87,222.29c0,0-8.32,4.82-10.29,3.54s.21-24.18.21-24.18l4.12-20.11,4.46-11.89Z" transform="translate(0 -1.23)" fill="#fff" opacity="0.15" style="isolation:isolate"/><ellipse cx="380.05" cy="235.97" rx="3.99" ry="2.33" transform="translate(136.94 610.27) rotate(-88.92)" fill="#5a584a"/><ellipse cx="392.49" cy="245.85" rx="9.47" ry="6.81" transform="translate(139.27 632.4) rotate(-88.92)" fill="#5a584a"/><path d="M175.36,236.43c-.57,30,8.89,57.51,36.61,55,34.9-.09,38.09-23.61,38.65-53.62s-15.86-52.65-36.64-53S175.93,206.42,175.36,236.43Z" transform="translate(0 -1.23)" fill="#5a584a"/><path d="M175.14,236.48c.44-23.23,10.89-41.67,25.23-48.63,18.18,3.81,31.81,25.06,31.29,52.44-.46,24.59-2.69,44.82-22.69,51.37C183.4,292.1,174.6,265.46,175.14,236.48Z" transform="translate(0 -1.23)" fill="#fff" opacity="0.1" style="isolation:isolate"/><path d="M160.9,223.44s4.9,4.33,7.7,1.39c0,0,7.75-53.7,16.22-53.79l29.17.3s3.46,1.56,4.83,8.07l17.84,54L340,236.88l8.2-16.38-85.49-1.37v0c-.43-1.66-13.74-52.93-23.22-59.46h0a4.43,4.43,0,0,0-1-.53s-35.55-5.41-47.32-2.39c0,0-12.27,2.51-15.33,6.19l0,0c-.41.41-5.13,5.54-6.85,20.54Z" transform="translate(0 -1.23)" fill="#fff" opacity="0.1" style="isolation:isolate"/><path d="M160.88,224.44s4.9,4.33,7.7,1.39c0,0,7.75-53.7,16.22-53.79l29.17.3s3.46,1.56,4.83,8.07l17.84,54L340,237.88l8.2-16.39-85.48-1.36v0c-.44-1.66-13.75-52.93-23.23-59.46h0a4.08,4.08,0,0,0-1-.53s-35.55-5.41-47.32-2.39c0,0-12.26,2.51-15.33,6.19,0,0,0,0,0,0-.41.41-5.13,5.53-6.85,20.53Z" transform="translate(0 -1.23)" fill="#5a5c4c"/><path d="M160.88,224.44s4.9,4.33,7.7,1.39c0,0,7.75-53.7,16.22-53.79l29.17.3s3.46,1.56,4.83,8.07l17.84,54L340,237.88l8.2-16.39-85.48-1.36v0c-.44-1.66-13.75-52.93-23.23-59.46h0a4.08,4.08,0,0,0-1-.53s-35.55-5.41-47.32-2.39c0,0-12.26,2.51-15.33,6.19,0,0,0,0,0,0-.41.41-5.13,5.53-6.85,20.53Z" transform="translate(0 -1.23)" fill="#fff" opacity="0.1" style="isolation:isolate"/><path d="M225.29,166.82c2.4,4.78,22.73,63.5,22.73,63.5l14.66-10.19v0c-.44-1.66-13.77-53-23.25-59.47C233.16,161.57,223.66,163.57,225.29,166.82Z" transform="translate(0 -1.23)" fill="#5a5c4c"/><path d="M253.7,140.68l11,38.6,61.09-.59-.6,5.72s-48,6.08-68.24-3.78l-10.3-35.26-96.38-1.32,18.45-4Z" transform="translate(0 -1.23)" fill="#5a5c4c"/><path d="M253.7,140.68l11,38.6,61.09-.59-.6,5.72s-48,6.08-68.24-3.78l-10.3-35.26-96.38-1.32,18.45-4Z" transform="translate(0 -1.23)" opacity="0.1" style="isolation:isolate"/><path d="M538.82,206.56s32.42,17.07,7.87,32.06l-6.5,1.38s24.08-16.67-15.32-33.7Z" transform="translate(0 -1.23)" fill="#fff" opacity="0.1" style="isolation:isolate"/><path d="M537.83,206.55s32.42,17.06,7.87,32L539.19,240s24.08-16.67-15.32-33.7Z" transform="translate(0 -1.23)" fill="#16140b"/><ellipse cx="198.46" cy="241.1" rx="31.16" ry="18.2" transform="translate(-46.35 433.74) rotate(-88.92)" fill="#5a584a"/><ellipse cx="199.06" cy="241.79" rx="25.25" ry="13.23" transform="translate(-46.44 435.02) rotate(-88.92)" fill="#fff" opacity="0.1" style="isolation:isolate"/><ellipse cx="199.08" cy="240.79" rx="25.25" ry="13.23" transform="translate(-45.43 434.06) rotate(-88.92)" fill="#0f0f0b"/><ellipse cx="197" cy="223.81" rx="3.12" ry="1.56" transform="translate(-30.49 415.31) rotate(-88.92)" fill="#5a584a"/><ellipse cx="190.23" cy="250.95" rx="3.12" ry="1.56" transform="translate(-64.26 435.18) rotate(-88.92)" fill="#5a584a"/><ellipse cx="207.33" cy="238.29" rx="3.12" ry="1.56" transform="translate(-34.83 439.85) rotate(-88.92)" fill="#5a584a"/><ellipse cx="202.41" cy="256.37" rx="3.12" ry="1.56" transform="translate(-57.73 452.68) rotate(-88.92)" fill="#5a584a"/><ellipse cx="188.32" cy="234.03" rx="3.12" ry="1.56" transform="translate(-49.23 416.67) rotate(-88.92)" fill="#5a584a"/><ellipse cx="196.66" cy="241.72" rx="7.4" ry="4.58" transform="translate(-48.73 432.55) rotate(-88.92)" fill="#5a584a"/><path d="M465.24,107.53s-55.36,1-127.51,19.28Z" transform="translate(0 -1.23)" fill="#fff" opacity="0.1" style="isolation:isolate"/><path d="M203.1,5.69s3,.54,1.36,4.48a27.18,27.18,0,0,0-1.92,6s-3,1.51-2.81-3.66S203.1,5.69,203.1,5.69Z" transform="translate(0 -1.23)" fill="#16140b"/><polyline points="319.53 99.18 323.94 116.73 339.14 103.42" fill="none" stroke="#fff" stroke-miterlimit="10"/><rect x="297.14" y="116.52" width="44.79" height="45.57" transform="translate(128.18 429.44) rotate(-80.26)"/><path d="M313.89,158.93l.84-4.92a14.48,14.48,0,0,1-7.09-3.42l1.73-3.07a15.33,15.33,0,0,0,7.22,3.4c3.46.59,6.14-1,6.62-3.78s-1.16-4.67-4.52-6.75c-4.63-2.8-6.76-5.48-6-9.72.69-4,3.81-6.67,8.42-6.63l.85-4.92,2.46.42-.81,4.73a13.28,13.28,0,0,1,6.05,2.79l-1.77,3a10.77,10.77,0,0,0-5.58-2.66c-3.76-.65-5,1.45-5.33,3.4-.44,2.53.59,4,4.53,6.5,4.67,2.9,7.33,6,6.58,10.31-.66,3.85-4,7-9.12,7l-.87,5.07Z" transform="translate(0 -1.23)" fill="#5a584a"/><path d="M313.12,318.9a1.5,1.5,0,1,0-1.45-1.45A1.51,1.51,0,0,0,313.12,318.9Z" transform="translate(0 -1.23)" fill="#5a5c4c"/></g><ellipse cx="663.91" cy="438.63" rx="18.68" ry="3.16" fill="#939c00" opacity="0.1" style="isolation:isolate"/><path d="M651.36,425.19s10.66-.33,13.87-2.61,16.39-5,17.18-1.35,16,18.23,4,18.33-27.95-1.87-31.16-3.83S651.36,425.19,651.36,425.19Z" transform="translate(0 -1.23)" fill="#575757"/><path d="M686.61,438.28c-12,.1-28-1.87-31.15-3.82-2.44-1.49-3.41-6.82-3.74-9.28h-.36s.68,8.59,3.88,10.54,19.13,3.93,31.16,3.83c3.47,0,4.67-1.26,4.6-3.09C690.52,437.57,689.19,438.26,686.61,438.28Z" transform="translate(0 -1.23)" fill="#fff" opacity="0.2" style="isolation:isolate"/><ellipse cx="772.23" cy="481.84" rx="14.37" ry="2.43" fill="#939c00" opacity="0.1" style="isolation:isolate"/><path d="M762.58,471.78s8.2-.25,10.67-2,12.61-3.86,13.23-1,12.32,14,3.06,14.11-21.51-1.44-24-2.94S762.58,471.78,762.58,471.78Z" transform="translate(0 -1.23)" fill="#575757"/><path d="M789.71,481.86c-9.26.07-21.51-1.44-24-2.94-1.87-1.15-2.62-5.25-2.87-7.15h-.28s.52,6.62,3,8.12,14.71,3,24,2.94c2.67,0,3.59-1,3.54-2.38C792.71,481.31,791.69,481.84,789.71,481.86Z" transform="translate(0 -1.23)" fill="#fff" opacity="0.2" style="isolation:isolate"/><ellipse cx="707.03" cy="595.44" rx="34.31" ry="5.8" fill="#939c00" opacity="0.1" style="isolation:isolate"/><path d="M684,569.72s19.57-.61,25.46-4.81,30.11-9.21,31.57-2.47,29.41,33.5,7.32,33.67-51.34-3.44-57.23-7S684,569.72,684,569.72Z" transform="translate(0 -1.23)" fill="#575757"/><path d="M748.73,593.77c-22.09.18-51.34-3.44-57.22-7-4.49-2.73-6.27-12.53-6.87-17l-.65,0s1.24,15.78,7.12,19.37,35.13,7.2,57.23,7c6.38-.05,8.58-2.32,8.46-5.68C755.91,592.46,753.48,593.73,748.73,593.77Z" transform="translate(0 -1.23)" fill="#fff" opacity="0.2" style="isolation:isolate"/><path d="M1069.29,392.5A89.33,89.33,0,0,1,891,400.17c-.13-1.45-.23-2.9-.27-4.38v-.07c-.05-1.07-.07-2.14-.07-3.22a89.34,89.34,0,0,1,178.67,0Z" transform="translate(0 -1.23)" fill="#9fa28e"/><path d="M1069.29,392.5A89.33,89.33,0,0,1,891,400.17c-.13-1.45-.23-2.9-.27-4.38v-.07c-.05-1.07-.07-2.14-.07-3.22a89.34,89.34,0,0,1,178.67,0Z" transform="translate(0 -1.23)" fill="#fff" opacity="0.2" style="isolation:isolate"/><circle cx="979.95" cy="392.5" r="48.73" transform="translate(242.32 1146.43) rotate(-67.5)"/><circle cx="979.95" cy="391.27" r="29.24" fill="#9fa28e"/><path d="M592.38,392.5a89.33,89.33,0,0,1-178.33,7.67c-.13-1.45-.23-2.9-.27-4.38v-.07c0-1.07-.07-2.14-.07-3.22a89.34,89.34,0,0,1,178.67,0Z" transform="translate(0 -1.23)" fill="#9fa28e"/><path d="M592.38,392.5a89.33,89.33,0,0,1-178.33,7.67c-.13-1.45-.23-2.9-.27-4.38v-.07c0-1.07-.07-2.14-.07-3.22a89.34,89.34,0,0,1,178.67,0Z" transform="translate(0 -1.23)" fill="#fff" opacity="0.2" style="isolation:isolate"/><circle cx="503.04" cy="391.27" r="48.73"/><circle cx="503.04" cy="391.27" r="29.24" fill="#9fa28e"/><path d="M1097.15,374.76l-29.8-1.29-27.22-50.54-95.9-7.78-46.65,60.91,2.59,16.85-6.48,15.55-304.55,2.59v-7.78h-2.59L584,391.61h23.33l-16.85-18.14-59.61-50.54s-102.38,2.59-103.68,0S433,293.77,433,293.77l44.06-13,150.33-11.67c33-52.48,62.85-77.11,62.85-77.11h386.2l18.14,93.31v.22Z" transform="translate(0 -1.23)" fill="#abae9f"/><path d="M882,382.24s38.88-72.57,68.69-72.57h72.57s18.15,0,25.92,14.26L1079,382.24h-23.33s-19.44-54.43-41.47-55.72-59.61,0-59.61,0-13,0-20.74,15.55S899.8,391.5,899.8,391.5,871.66,400.39,882,382.24Z" transform="translate(0 -1.23)" fill="#73756b"/><polygon points="1114 369.35 1065.25 369.35 1064.75 408.23 1114 396.57 1114 369.35" fill="#73756b"/><path d="M409,347.25s2.59-19.44,20.74-27.21L549,313.56s19.44,1.29,29.81,25.92L612.47,390v7.77H574.88s-18.14-68.68-70-66.09H442.69s-14.25,0-19.43,23.33Z" transform="translate(0 -1.23)" fill="#73756b"/><path d="M688.93,200.81h397.85a14.26,14.26,0,0,0-14.25-14.26H703.18a14.26,14.26,0,0,0-14.25,14.26Z" transform="translate(0 -1.23)" fill="#b1b3a7"/><polygon points="1094.56 285.11 1094.56 285.33 927.38 287.7 923.03 191.81 1076.42 191.81 1094.56 285.11" fill="#fff" opacity="0.2" style="isolation:isolate"/><rect x="748.54" y="300.66" width="41.47" height="7.78" rx="1.76" fill="#73756b"/><rect x="867.77" y="300.66" width="41.47" height="7.78" rx="1.76" fill="#73756b"/><rect x="951.75" y="198.32" width="47.99" height="47.16"/><path d="M973.38,244.51v-5.26a15.16,15.16,0,0,1-8-2.29l1.25-3.49a16.1,16.1,0,0,0,8.09,2.24c3.7,0,6.2-2.14,6.2-5.11s-2-4.63-5.88-6.19c-5.32-2.09-8-4.48-8-9,0-4.32,2.77-7.6,7.56-8.38v-5.26h2.64v5.05a13.9,13.9,0,0,1,6.77,1.82l-1.3,3.44a11.22,11.22,0,0,0-6.27-1.77c-4,0-4.92,2.39-4.92,4.47,0,2.71,1.33,4.07,5.86,5.94,5.36,2.19,8.66,4.89,8.66,9.53,0,4.11-2.86,8-8.22,8.85v5.42Z" transform="translate(0 -1.23)" fill="#9fa08c"/><path d="M774.19,277.27H664.09a7.44,7.44,0,0,1-7.44-7.44,7.56,7.56,0,0,1,.64-3l17.42-39.19A34.21,34.21,0,0,1,706,207.29h66.89a9.37,9.37,0,0,1,9.37,9.37h0v52.56a8.05,8.05,0,0,1-8,8Z" transform="translate(0 -1.23)" fill="#13130d" opacity="0.5" style="isolation:isolate"/><rect x="810.75" y="206.06" width="107.56" height="69.98" rx="5.54" fill="#13130d" opacity="0.5" style="isolation:isolate"/><rect x="941.64" y="206.06" width="123.12" height="69.98" rx="5.54" fill="#13130d" opacity="0.5" style="isolation:isolate"/><path d="M370.61,546.34c-6.19,6.74-10.75,9.39-10.54,2.28C360.72,527.12,323,429.9,323,429.9l11.17-.84C358.5,471.11,367.57,514.32,370.61,546.34Z" transform="translate(0 -1.23)" fill="none"/><path d="M423.92,593.25a53.75,53.75,0,0,1-107.31,4.62c-.08-.88-.13-1.75-.16-2.64v0c0-.65,0-1.29,0-1.94a53.76,53.76,0,0,1,107.51,0Z" transform="translate(0 -1.23)" fill="#b1bb73"/><circle cx="370.16" cy="592.02" r="29.32" fill="#676916"/><circle cx="370.16" cy="592.02" r="17.59" fill="#b1bb73"/><path d="M229,491.17,99.55,493.78V474.67c1.16-15.36,16.91-20.75,31.29-22.44a89.8,89.8,0,0,1,33.44,2.51c27.46,7.27,45,8.68,53.58,8.82a8.22,8.22,0,0,1,7.95,6.68c.41,2.19.81,4.56,1.19,6.91.29,1.84.56,3.65.81,5.34C228.52,487.38,229,491.17,229,491.17Z" transform="translate(0 -1.23)" fill="#b1bb73"/><path d="M332.26,596.73H63.36a10.6,10.6,0,0,1-9.8-6.34c-2-4.84.81-7.93,3.83-9.74a30.46,30.46,0,0,0,13.24-16.2C73.5,556,76.3,542.72,77.4,522c1.13-21.42,8.89-32,17.27-37.14h0c10.83-6.62,22.69-4.13,22.69-4.13l109,.87a21,21,0,0,1,5.32,3.47c9.72,9.05-4.45,20.85-4.45,20.85-30.41,32.14-7.39,64.72-7.39,64.72h55.79a51.26,51.26,0,0,0,29.22-8.94c7.54-5.21,10.46-10.25,11.59-13.3.86-2.33,1.73-4.66,2.77-6.91,14.64-31.74-3-83.37-10.63-102.68-1.89-4.8-3.16-7.6-3.16-7.6L323,429.9l11.06-.84h.11c24.38,42.05,33.45,85.26,36.49,117.28q.43,4.53.72,8.75a39.1,39.1,0,0,1-36.49,41.55Q333.55,596.73,332.26,596.73Z" transform="translate(0 -1.23)" fill="#9caa4b"/><path d="M227.81,482.49H99.55v-5.34H227C227.29,479,227.56,480.8,227.81,482.49Z" transform="translate(0 -1.23)" fill="#fff" opacity="0.1" style="isolation:isolate"/><path d="M231.71,485.09H95.7a2.64,2.64,0,0,1-1-.21c10.83-6.62,22.69-4.13,22.69-4.13l109,.87A21,21,0,0,1,231.71,485.09Z" transform="translate(0 -1.23)" fill="#fff" opacity="0.1" style="isolation:isolate"/><path d="M48.12,478.46H232.85a2.66,2.66,0,0,1,2.66,2.66h0a2.66,2.66,0,0,1-2.66,2.67H48.12a2.66,2.66,0,0,1-2.67-2.67h0A2.66,2.66,0,0,1,48.12,478.46Z" transform="translate(0 -1.23)" fill="#676916"/><path d="M370.61,546.34c-6.19,6.74-10.75,9.39-10.54,2.28C360.72,527.12,323,429.9,323,429.9l11.17-.84C358.5,471.11,367.57,514.32,370.61,546.34Z" transform="translate(0 -1.23)" fill="#fff" opacity="0.1" style="isolation:isolate"/><path d="M423.59,587.36c-6.41,1.54-14.35,3.11-24.14,4.54q-5.44.79-11.7,1.54c-10,1.18-21.54,2.22-34.88,3q-5.67.34-11.78.62-11.43.52-24.48.8l-.16-2.64v0c12.15-4.91,31.27-18,34.35-52.09a53.78,53.78,0,0,1,69.52,30.84,53.19,53.19,0,0,1,3.27,13.42Z" transform="translate(0 -1.23)" fill="#fff" opacity="0.1" style="isolation:isolate"/><path d="M306.32,596.73S368,590,346.78,496c0,0,30.49,27.94,49.45,43.48s52.77,37,52.77,37S428.81,595.32,306.32,596.73Z" transform="translate(0 -1.23)" fill="#9caa4b"/><path d="M306.32,596.73S368,590,346.78,496c0,0,30.49,27.94,49.45,43.48s52.77,37,52.77,37S428.81,595.32,306.32,596.73Z" transform="translate(0 -1.23)" opacity="0.1" style="isolation:isolate"/><circle cx="141.47" cy="592.02" r="53.75" fill="#b1bb73"/><circle cx="141.47" cy="592.02" r="29.32" fill="#676916"/><circle cx="141.47" cy="592.02" r="17.59" fill="#b1bb73"/><path d="M201.74,577.11c0-34.71-27.57-62.86-61.57-62.86S78.59,542.4,78.59,577.11c0,1.47.06,2.92.15,4.36H201.59C201.69,580,201.74,578.58,201.74,577.11Z" transform="translate(0 -1.23)" fill="#fff" opacity="0.1" style="isolation:isolate"/><path d="M199.46,576c0-33.43-26.55-60.53-59.29-60.53S80.87,542.6,80.87,576c0,1.41,0,2.81.15,4.19h118.3C199.41,578.84,199.46,577.44,199.46,576Z" transform="translate(0 -1.23)" fill="#9caa4b"/><path d="M199.46,576c0,1,0,1.93-.07,2.89,0,.44,0,.87-.07,1.3H81c0-.43-.06-.86-.08-1.3,0-1-.07-1.92-.07-2.89,0-33.43,26.55-60.53,59.3-60.53S199.46,542.6,199.46,576Z" transform="translate(0 -1.23)" opacity="0.1" style="isolation:isolate"/><path d="M199.39,578.92c0,.44,0,.87-.07,1.3H81c0-.43-.06-.86-.08-1.3Z" transform="translate(0 -1.23)" fill="#fff" opacity="0.1" style="isolation:isolate"/><ellipse cx="351.92" cy="471.64" rx="7.8" ry="19.65" transform="translate(-163.07 185.67) rotate(-24.33)" fill="#fff" opacity="0.1" style="isolation:isolate"/><ellipse cx="352.57" cy="470.99" rx="7.8" ry="19.65" transform="translate(-162.74 185.88) rotate(-24.33)" fill="#676916"/><path d="M334,429.06v10.21H314.14a33.08,33.08,0,0,1-5.53-.44c-1.89-4.8-3.16-7.6-3.16-7.6L323,429.9Z" transform="translate(0 -1.23)" fill="#fff" opacity="0.1" style="isolation:isolate"/><path d="M334,438H314.14c-17.46,0-31.6-13.06-31.6-29.17v-2.7c0-16.11,14.14-29.17,31.6-29.17l19.87,1.8Z" transform="translate(0 -1.23)" fill="#9caa4b"/><path d="M301.27,394.2s11.89,6.35,5.05,17.1c0,0-8.39,13.77-21.59,12.46l-4.8-29.56S295.73,392.73,301.27,394.2Z" transform="translate(0 -1.23)" fill="#9caa4b"/><path d="M296.7,393.62a12.65,12.65,0,0,1,9.66,5.1c2.12,2.93,3.38,7.21,0,12.58,0,0-8.39,13.77-21.59,12.46l-4.8-29.56A149,149,0,0,1,296.7,393.62Z" transform="translate(0 -1.23)" fill="#fff" opacity="0.1" style="isolation:isolate"/><path d="M333.36,378.73h0a16,16,0,0,1,16,16h0V422a16,16,0,0,1-16,16h0V378.73Z" transform="translate(0 -1.23)" fill="#fff" opacity="0.1" style="isolation:isolate"/><path d="M334,378.73h0a16,16,0,0,1,16,16h0V422a16,16,0,0,1-16,16h0V378.73Z" transform="translate(0 -1.23)" fill="#676916"/><ellipse cx="278.55" cy="408.34" rx="13.2" ry="16.06" fill="#9caa4b"/><polyline points="137.95 482.6 143.72 495.44 153.36 482.6" fill="none" stroke="#fff" stroke-miterlimit="10"/><rect x="119.7" y="495.98" width="47.04" height="46.23"/><path d="M140.91,541.28v-5.16a14.86,14.86,0,0,1-7.81-2.24l1.22-3.42a15.73,15.73,0,0,0,7.94,2.19c3.62,0,6.07-2.09,6.07-5s-2-4.54-5.77-6.07c-5.21-2.05-7.84-4.39-7.84-8.84,0-4.23,2.72-7.45,7.42-8.21v-5.16h2.58v4.95a13.7,13.7,0,0,1,6.64,1.79l-1.28,3.37a11.12,11.12,0,0,0-6.14-1.74c-3.93,0-4.83,2.35-4.83,4.39,0,2.66,1.31,4,5.75,5.82,5.26,2.14,8.49,4.8,8.49,9.34,0,4-2.81,7.81-8.06,8.68v5.31Z" transform="translate(0 -1.23)" fill="#b1ba71"/><rect x="51" y="373.77" width="7" height="108" fill="#676916"/><path d="M51,375s-26,1-31,3-20,1-20,1v28s17-4,26-1,28-4,28-4Z" transform="translate(0 -1.23)" fill="#676916"/><path d="M1091.83,1040.09c-2.87-23.07-17.17-45.79-39.17-53.3a107.07,107.07,0,0,1,0,73.53c-3.38,9.14-8.09,19-4.91,28.18,2,5.73,6.81,10.12,12.22,12.86s11.42,4.05,17.35,5.33l1.17,1C1087.9,1086.4,1094.7,1063.16,1091.83,1040.09Z" transform="translate(0 -1.23)" fill="#0f0f0f"/><path d="M1052.45,987.22a91.56,91.56,0,0,1,22.75,51.52,39.38,39.38,0,0,1-.45,12.35,22.54,22.54,0,0,1-5.62,10.48c-2.53,2.79-5.45,5.34-7.26,8.69a13.87,13.87,0,0,0-.68,11.31c1.6,4.59,4.76,8.33,8,11.88,3.57,4,7.34,8,8.85,13.22.19.64,1.16.31,1-.32-2.64-9.1-11.48-14.27-15.69-22.46-2-3.83-2.79-8.27-1-12.31,1.62-3.53,4.62-6.16,7.21-9a24.14,24.14,0,0,0,5.88-10,36.51,36.51,0,0,0,.92-12.28,88.78,88.78,0,0,0-6.48-27,93.07,93.07,0,0,0-16.76-26.84C1052.69,986,1052,986.74,1052.45,987.22Z" transform="translate(0 -1.23)"/><path d="M1074.93,1032.54a13.72,13.72,0,0,0,10.45-14.38.51.51,0,0,0-1,.05,12.72,12.72,0,0,1-9.75,13.36C1074,1031.72,1074.29,1032.7,1074.93,1032.54Z" transform="translate(0 -1.23)"/><path d="M1070.6,1060.33a26.45,26.45,0,0,1-11.82-15.24c-.18-.64-1.16-.32-1,.32a27.53,27.53,0,0,0,12.33,15.84C1070.71,1061.58,1071.17,1060.67,1070.6,1060.33Z" transform="translate(0 -1.23)"/><path d="M1064.91,1004.43a7.73,7.73,0,0,1-7.36-.37c-.57-.34-1,.57-.47.92a8.75,8.75,0,0,0,8.15.43.52.52,0,1,0-.32-1Z" transform="translate(0 -1.23)"/><path d="M985.61,1028l1,.68a103.44,103.44,0,0,1,13.09,10.22c.32.29.64.58,1,.88a108,108,0,0,1,23.44,32.08,105.35,105.35,0,0,1,5.74,14.86c2.12,7,3.86,14.82,8.05,20.57a19.24,19.24,0,0,0,1.4,1.73h37.9a2.06,2.06,0,0,1,.26-.12l1.51.06c-.06-.26-.13-.54-.19-.81s-.08-.31-.11-.46,0-.21-.07-.31l0-.09-.06-.27c-.38-1.55-.77-3.1-1.17-4.64v0a154.2,154.2,0,0,0-13-34c-.18-.32-.35-.65-.54-1a100.23,100.23,0,0,0-9-13.63q-2.77-3.51-5.89-6.73a73.42,73.42,0,0,0-18.4-13.78c-13.59-7.18-29.33-9.93-43.86-5.55Z" transform="translate(0 -1.23)" fill="#0f0f0f"/><path d="M985.69,1028.47a91.58,91.58,0,0,1,49.19,27.43A39.34,39.34,0,0,1,1042,1066a22.63,22.63,0,0,1,1.83,11.76c-.35,3.75-1.14,7.54-.57,11.31a13.86,13.86,0,0,0,6.27,9.43c4,2.7,8.81,3.79,13.52,4.7,5.22,1,10.66,2,15,5.22.53.39,1.11-.45.59-.84-7.59-5.68-17.75-4.49-26-8.5-3.87-1.87-7.21-4.92-8.17-9.25-.83-3.79,0-7.7.36-11.49a24.25,24.25,0,0,0-1.35-11.57,36.64,36.64,0,0,0-6.66-10.36,88.9,88.9,0,0,0-21.43-17.64,93.18,93.18,0,0,0-29.54-11.35C985.13,1027.32,985.05,1028.34,985.69,1028.47Z" transform="translate(0 -1.23)"/><path d="M1030.93,1051.12a13.73,13.73,0,0,0-.32-17.78c-.43-.49-1.22.16-.78.66a12.72,12.72,0,0,1,.26,16.54c-.42.5.42,1.08.84.58Z" transform="translate(0 -1.23)"/><path d="M1044.2,1075.91a26.43,26.43,0,0,1-18.61-5.06c-.53-.39-1.12.45-.59.85a27.6,27.6,0,0,0,19.39,5.22c.65-.08.47-1.08-.19-1Z" transform="translate(0 -1.23)"/><path d="M1006,1034.71a7.78,7.78,0,0,1-6.11,4.13c-.66.07-.47,1.07.18,1a8.69,8.69,0,0,0,6.77-4.56.52.52,0,0,0-.13-.71.5.5,0,0,0-.71.13Z" transform="translate(0 -1.23)"/><polygon points="980.09 1098.32 969.48 1098.32 964.44 1057.43 980.09 1057.43 980.09 1098.32" fill="#9e616a"/><path d="M982.79,1109.83H948.61v-.44a13.3,13.3,0,0,1,13.3-13.3h20.88Z" transform="translate(0 -1.23)" fill="#d0d1be"/><polygon points="900.21 1097.97 890 1095.12 896.15 1054.38 911.21 1058.6 900.21 1097.97" fill="#9e616a"/><path d="M900.05,1109.83l-32.92-9.2.12-.42a13.3,13.3,0,0,1,16.39-9.23h0l20.11,5.62Z" transform="translate(0 -1.23)" fill="#d0d1be"/><circle cx="955.01" cy="732.62" r="23.19" fill="#9e616a"/><path d="M966,849.93l1.84,12.59s23.19,46.09-2,68.72c0,0-37.61,113.43-48.36,128.7l-9,18.8-17.3-2.59,10.73-64.57L920,919.36l2.68-72S962.31,844.56,966,849.93Z" transform="translate(0 -1.23)" fill="#d0d1be"/><path d="M961.6,928.4l12.73,72.14s6.78,33.09,7.35,45.81,2.83,29.13,2.83,29.13l-22.91,3.68-22.63-97Z" transform="translate(0 -1.23)" fill="#d0d1be"/><path d="M980.26,787.36l-1.65,42-8.7,19.24-3.22,7.14L920,855.16l4.8-32.52c-6.78-17.54,9.34-24.61,9.34-24.61l13.57-14.46-1.2-18.69L967,761c10.64-2,5.51,13.4,5.51,13.4C986.62,773,980.26,787.36,980.26,787.36Z" transform="translate(0 -1.23)" fill="#b4c738"/><ellipse cx="885.51" cy="826.34" rx="0.55" ry="1.47" transform="translate(-286.38 1131.14) rotate(-57.66)" fill="#c0c2a9"/><path d="M884.34,822.34h0a2.57,2.57,0,0,1,3.55-.8h0l32.63,20.66a2.59,2.59,0,0,1,.8,3.56h0l-37-23.42Z" transform="translate(0 -1.23)" fill="#939c00"/><path d="M881.25,823.43l1-1.62a1.76,1.76,0,0,1,2.43-.54h0l37.15,23.52a2.09,2.09,0,0,1,.64,2.88l-.85,1.34h0l-40.4-25.58Z" transform="translate(0 -1.23)" fill="#c0c2a9"/><rect x="887.46" y="823.95" width="0.74" height="2.94" transform="translate(-284.52 1132.68) rotate(-57.66)" fill="#2f321e"/><rect x="890.88" y="826.12" width="0.74" height="2.94" transform="translate(-284.76 1136.57) rotate(-57.66)" fill="#2f321e"/><path d="M916.17,831.67a8.85,8.85,0,0,1,1.13.89L959,822.37l2.93-10,15.67,2.45L974.08,833a6.89,6.89,0,0,1-6.14,5.59l-48.56,4.63a9.08,9.08,0,1,1-4.18-12.13,9.29,9.29,0,0,1,1,.55Z" transform="translate(0 -1.23)" fill="#9e616a"/><path d="M957.7,820.31a3.85,3.85,0,0,1-.39-3.22l5.93-35a10.81,10.81,0,0,1,21.34,3.42l-.28,36a3.9,3.9,0,0,1-3.95,3.84,5.48,5.48,0,0,1-.57-.05l-19.39-3.17A3.88,3.88,0,0,1,957.7,820.31Z" transform="translate(0 -1.23)" fill="#b4c738"/><path d="M966,705.22h0a24.52,24.52,0,0,0-12.58,3.45h-1.68A23.35,23.35,0,0,0,928.38,732h13v27.67h49.29V729.86A24.65,24.65,0,0,0,966,705.22Z" transform="translate(0 -1.23)" fill="#0b0b19"/><path d="M1108.66,1111H749.58a1,1,0,0,1-1-1,1,1,0,0,1,1-1h359.1a1,1,0,0,1,1,1,1,1,0,0,1-1,1Z" transform="translate(0 -1.23)" fill="#353535"/><path d="M471.75,995.35l-43.27-19.09V959.84l15.42-.08a11.45,11.45,0,0,0,10.8-7.84l10.84-32.5a11.47,11.47,0,0,0-10.87-15.08H428.48V889.06h32.88a11.46,11.46,0,0,0,11.17-8.89L480,847.71a11.46,11.46,0,0,0-8.6-13.73,11.64,11.64,0,0,0-2.57-.29H428.48v-3.82a7.64,7.64,0,0,0-15.28,0v3.82H142.7v-3.82a7.64,7.64,0,1,0-15.27,0v3.82H95.36A11.46,11.46,0,0,0,83.9,845.15a11.62,11.62,0,0,0,.29,2.56l7.46,32.46a11.46,11.46,0,0,0,11.17,8.89h24.61v15.28H109.51a11.46,11.46,0,0,0-11.46,11.45,11.66,11.66,0,0,0,.55,3.52l11.06,34.32a11.46,11.46,0,0,0,11,7.94l6.8,0v14.73l-35,19.09A11.46,11.46,0,0,0,81,1006.81h0a11.45,11.45,0,0,0,11.45,11.45h35v84a7.64,7.64,0,0,0,15.27,0v-84H413.2v84a7.64,7.64,0,0,0,15.28,0v-84h43.27a11.46,11.46,0,0,0,11.46-11.45h0a11.46,11.46,0,0,0-11.46-11.46Zm-329-106.29H413.2v15.28H142.7Zm0,87.2V961.45l270.5-1.52v16.33Z" transform="translate(0 -1.23)" fill="#191919"/><path d="M440.46,995.3c4.76-38.26,28.47-76,65-88.41a177.67,177.67,0,0,0,0,122c5.61,15.16,13.42,31.44,8.15,46.73-3.28,9.51-11.31,16.79-20.28,21.33s-18.93,6.72-28.77,8.85l-1.93,1.6C447,1072.11,435.7,1033.55,440.46,995.3Z" transform="translate(0 -1.23)" fill="#191919"/><path d="M505.78,907.62A151.78,151.78,0,0,0,468,993.06a65.38,65.38,0,0,0,.75,20.47,37.64,37.64,0,0,0,9.32,17.4c4.21,4.61,9,8.85,12,14.41a23,23,0,0,1,1.12,18.75c-2.65,7.61-7.89,13.82-13.22,19.71-5.91,6.55-12.16,13.25-14.68,21.92-.3,1-1.92.52-1.61-.53,4.37-15.09,19-23.66,26-37.26,3.26-6.34,4.63-13.7,1.57-20.4-2.67-5.85-7.65-10.23-11.95-14.87a40,40,0,0,1-9.75-16.66,60.45,60.45,0,0,1-1.53-20.37,147.34,147.34,0,0,1,10.76-44.76,154.47,154.47,0,0,1,27.78-44.53c.73-.81,1.85.47,1.13,1.28Z" transform="translate(0 -1.23)"/><path d="M468.49,982.78a22.78,22.78,0,0,1-17.34-23.86c.09-1.09,1.79-1,1.7.08A21.1,21.1,0,0,0,469,981.17c1.07.25.53,1.86-.53,1.61Z" transform="translate(0 -1.23)"/><path d="M475.66,1028.86a43.87,43.87,0,0,0,19.61-25.28c.31-1.05,1.92-.52,1.61.53a45.66,45.66,0,0,1-20.45,26.27c-.94.56-1.7-1-.77-1.52Z" transform="translate(0 -1.23)"/><path d="M485.1,936.16a12.9,12.9,0,0,0,12.22-.62c.93-.57,1.69,1,.76,1.52a14.44,14.44,0,0,1-13.51.71.87.87,0,0,1-.54-1.07.86.86,0,0,1,1.07-.54Z" transform="translate(0 -1.23)"/><path d="M616.63,975.23c-.58.37-1.15.74-1.72,1.13a168.59,168.59,0,0,0-21.71,16.95c-.53.47-1.07,1-1.58,1.45A179.06,179.06,0,0,0,552.74,1048a173.37,173.37,0,0,0-9.52,24.63c-3.51,11.66-6.4,24.58-13.35,34.12a32,32,0,0,1-2.32,2.87H464.69c-.14-.08-.28-.13-.43-.21l-2.51.12c.1-.44.22-.9.32-1.35.06-.26.13-.51.18-.77s.09-.35.12-.5,0-.12,0-.16.07-.3.1-.45q.94-3.84,1.95-7.7l0,0c5.15-19.54,12-38.83,21.51-56.47.28-.53.57-1.07.89-1.6a165.29,165.29,0,0,1,14.9-22.61,147.75,147.75,0,0,1,9.76-11.17,121.88,121.88,0,0,1,30.52-22.85c22.54-11.91,48.64-16.47,72.73-9.2Z" transform="translate(0 -1.23)" fill="#191919"/><path d="M616.49,976a151.91,151.91,0,0,0-81.58,45.5,65.43,65.43,0,0,0-11.73,16.8,37.51,37.51,0,0,0-3,19.5c.58,6.22,1.89,12.51.94,18.76a23,23,0,0,1-10.39,15.64c-6.7,4.48-14.62,6.29-22.42,7.79-8.67,1.66-17.69,3.25-24.92,8.66-.88.65-1.85-.74-1-1.4,12.58-9.41,29.44-7.44,43.2-14.08,6.42-3.11,11.95-8.16,13.54-15.35,1.39-6.28,0-12.77-.59-19.06a39.88,39.88,0,0,1,2.25-19.18,60.16,60.16,0,0,1,11-17.18,147.17,147.17,0,0,1,35.54-29.27,154.32,154.32,0,0,1,49-18.82c1.07-.21,1.19,1.48.13,1.69Z" transform="translate(0 -1.23)"/><path d="M541.46,1013.59A22.77,22.77,0,0,1,542,984.1c.72-.82,2,.27,1.3,1.09a21.09,21.09,0,0,0-.43,27.43C543.56,1013.46,542.16,1014.43,541.46,1013.59Z" transform="translate(0 -1.23)"/><path d="M519.44,1054.7a43.88,43.88,0,0,0,30.88-8.38c.88-.65,1.85.74,1,1.4a45.68,45.68,0,0,1-32.15,8.66C518.05,1056.25,518.36,1054.58,519.44,1054.7Z" transform="translate(0 -1.23)"/><path d="M582.79,986.37a12.92,12.92,0,0,0,10.13,6.86c1.09.1.78,1.77-.3,1.67a14.43,14.43,0,0,1-11.22-7.57.87.87,0,0,1,.21-1.18A.85.85,0,0,1,582.79,986.37Z" transform="translate(0 -1.23)"/><path d="M16.25,1029.27c3.34-26.89,20-53.38,45.65-62.13a124.84,124.84,0,0,0,0,85.71c3.94,10.65,9.43,22.1,5.72,32.84-2.3,6.68-7.95,11.8-14.25,15s-13.31,4.73-20.22,6.22L31.8,1108C20.83,1083.25,12.91,1056.15,16.25,1029.27Z" transform="translate(0 -1.23)" fill="#191919"/><path d="M62.15,967.65a106.69,106.69,0,0,0-26.52,60.05,45.94,45.94,0,0,0,.52,14.38,26.41,26.41,0,0,0,6.56,12.23c2.95,3.24,6.35,6.22,8.46,10.13a16.14,16.14,0,0,1,.79,13.17c-1.87,5.35-5.54,9.72-9.29,13.86-4.16,4.6-8.55,9.31-10.32,15.4-.21.74-1.35.37-1.13-.37,3.07-10.61,13.37-16.63,18.28-26.18,2.29-4.46,3.25-9.64,1.1-14.34-1.87-4.12-5.37-7.19-8.39-10.45a28.06,28.06,0,0,1-6.86-11.71,42.6,42.6,0,0,1-1.07-14.32A103.18,103.18,0,0,1,41.84,998a108.63,108.63,0,0,1,19.52-31.29C61.87,966.18,62.66,967.08,62.15,967.65Z" transform="translate(0 -1.23)"/><path d="M36,1020.47a16,16,0,0,1-12.18-16.77c.06-.76,1.25-.7,1.19.06a14.82,14.82,0,0,0,11.36,15.58c.75.18.37,1.31-.37,1.13Z" transform="translate(0 -1.23)"/><path d="M41,1052.86a30.81,30.81,0,0,0,13.78-17.77c.22-.74,1.35-.36,1.13.37a32.08,32.08,0,0,1-14.37,18.47c-.66.39-1.2-.68-.54-1.07Z" transform="translate(0 -1.23)"/><path d="M47.62,987.71a9.06,9.06,0,0,0,8.59-.44c.66-.4,1.19.67.54,1.07a10.16,10.16,0,0,1-9.5.5.61.61,0,0,1-.38-.75A.6.6,0,0,1,47.62,987.71Z" transform="translate(0 -1.23)"/><path d="M140.06,1015.16l-1.21.8a119.37,119.37,0,0,0-15.26,11.91l-1.11,1a125.81,125.81,0,0,0-27.32,37.4,121.86,121.86,0,0,0-6.69,17.31c-2.47,8.2-4.5,17.28-9.38,24a22.6,22.6,0,0,1-1.64,2H33.28l-.3-.15-1.77.09c.08-.32.16-.64.23-1s.09-.36.13-.55.06-.24.08-.35l0-.11c0-.11.05-.21.07-.31q.66-2.71,1.37-5.41v0c3.62-13.74,8.41-27.3,15.12-39.69.2-.37.4-.76.62-1.13a117.08,117.08,0,0,1,10.47-15.88,100.74,100.74,0,0,1,6.87-7.85,85.75,85.75,0,0,1,21.44-16.07c15.85-8.36,34.19-11.57,51.12-6.46Z" transform="translate(0 -1.23)" fill="#191919"/><path d="M140,1015.72a106.67,106.67,0,0,0-57.33,32,46.25,46.25,0,0,0-8.25,11.8,26.34,26.34,0,0,0-2.12,13.71c.4,4.37,1.32,8.79.66,13.18a16.14,16.14,0,0,1-7.31,11c-4.71,3.15-10.27,4.41-15.76,5.47-6.08,1.16-12.43,2.28-17.51,6.08-.61.47-1.29-.52-.68-1,8.84-6.61,20.69-5.23,30.36-9.9,4.52-2.18,8.4-5.73,9.52-10.78,1-4.42,0-9-.42-13.4a28.13,28.13,0,0,1,1.58-13.48,42.6,42.6,0,0,1,7.76-12.07,103.85,103.85,0,0,1,25-20.57,108.74,108.74,0,0,1,34.43-13.23c.75-.15.84,1.05.09,1.19Z" transform="translate(0 -1.23)"/><path d="M87.23,1042.12a16,16,0,0,1,.37-20.72c.51-.58,1.43.19.92.76a14.81,14.81,0,0,0-.3,19.28c.49.6-.5,1.27-1,.68Z" transform="translate(0 -1.23)"/><path d="M71.76,1071a30.9,30.9,0,0,0,21.7-5.89c.62-.46,1.3.52.68,1a32.08,32.08,0,0,1-22.59,6.08C70.78,1072.11,71,1070.93,71.76,1071Z" transform="translate(0 -1.23)"/><path d="M116.28,1023a9.05,9.05,0,0,0,7.12,4.82c.76.08.55,1.25-.21,1.18a10.16,10.16,0,0,1-7.89-5.32.61.61,0,0,1,.15-.83A.6.6,0,0,1,116.28,1023Z" transform="translate(0 -1.23)"/><polygon points="236.49 1094.16 225.1 1097.46 206.98 1055.11 223.78 1050.25 236.49 1094.16" fill="#9e616a"/><path d="M263.72,941.92,252,954.45s-61.86,27.41-61.86,41.5,14.87,75.18,21.14,79.88c3.77,2.84,2.07,5.91,3.94,10.25l21.9-7.9s-1.56-4.7,0-7a3,3,0,0,0,0-3.92s-2.35.79-1.56-1.56.78-3.13,0-3.92-3.14-7.83-3.14-7.83.79-28.19-10.18-38.37c0,0,50.9-14.88,57.17-25.06s7.83-47,7.83-47Z" transform="translate(0 -1.23)" fill="#90917b"/><path d="M241.13,1101.88l-37.94,7.83-.1-.47a15.08,15.08,0,0,1,11.72-17.82h0l5.85-6.69,14,2.59,3.31-.68Z" transform="translate(0 -1.23)" fill="#90917b"/><polygon points="277.91 1046.6 263.38 1056.34 293.52 1091.17 303.37 1084.57 277.91 1046.6" fill="#9e616a"/><path d="M299.61,920.33c-7.76-16.36,15.9,32,12.76,47-2.44,11.7-48.12,49-48.12,49,13.76,5.86,22.58,32.65,22.58,32.65s4.59,5.84,5.6,6.31,1.26,1.21,1.32,3.68,2,.94,2,.94a3,3,0,0,1,1.32,3.69c-.68,2.74,2.39,6.63,2.39,6.63L282.54,1086c-3.23-3.44-3.67-7.84-8.18-9.24-7.49-2.3-42.18-54.72-47-68s44.14-60,44.14-60l4.16-23.13Z" transform="translate(0 -1.23)" fill="#90917b"/><path d="M308.33,1097.48l-36.45,13.13-.17-.47a15.08,15.08,0,0,1,9.08-19.29h0l4.84-7.45,14.24.58,3.19-1.14Z" transform="translate(0 -1.23)" fill="#90917b"/><path d="M271.83,842.17l-10.55,8-28,7.42s10.05,70.49,5.31,75.23-.47,4.86-1.42,11-3.27,18.78-3.27,18.78c32,16.94,59.58,17.39,81.74-2.43a5.53,5.53,0,0,0-3-6.23c-4.13-2.18,3.8-12.4.43-14.1s1.37-16.52,1.37-16.52l10.27-48.5-27.32-21.38-4.16-10Z" transform="translate(0 -1.23)" fill="#c0c2a9"/><circle cx="285" cy="900.27" r="3.65" fill="#0d0d0d"/><circle cx="282.64" cy="815.59" r="20.87" fill="#9e616a"/><polygon points="313.03 897.36 316.48 899.95 318.2 887.87 313.03 897.36" fill="#fff" opacity="0.1" style="isolation:isolate"/><path d="M234.91,857.55s-4.31-.86-6.9,6.9-15.58,48.64-15.58,53.81S275,934.72,275,934.72l-6.14-21.57-28.43-8.89Z" transform="translate(0 -1.23)" fill="#c0c2a9"/><circle cx="277.75" cy="920.22" r="10.07" fill="#9e616a"/><polygon points="242.29 892.77 243.08 903.45 268.1 916.58 245.85 901.65 242.29 892.77" fill="#fff" opacity="0.1" style="isolation:isolate"/><path d="M301.17,889.79h-.32V880.9a5.16,5.16,0,0,0-5.15-5.15H276.86a5.16,5.16,0,0,0-5.15,5.15h0v48.78a5.16,5.16,0,0,0,5.15,5.15H295.7a5.16,5.16,0,0,0,5.15-5.15h0V896.12h.32Z" transform="translate(0 -1.23)" fill="#0f0f0f"/><path d="M324.67,874.87s2.59,1.73,4.31,9.49,12.94,37.08,8.62,44-5.58,14.26-20.24,3.91l-20.29-18.57,14.66-13.8,6,4.31Z" transform="translate(0 -1.23)" fill="#c0c2a9"/><circle cx="286.51" cy="891.95" r="4.31" fill="#b4c738"/><circle cx="298.99" cy="901.4" r="10.07" fill="#9e616a"/><polygon points="238.81 926.49 269.89 932.31 239.63 933.47 238.81 926.49" fill="#fff" opacity="0.1" style="isolation:isolate"/><path id="bd1d1748-d56b-4347-ac51-72212ae1ce14" data-name="ac86dcea-12c8-45fb-8feb-523bbd8ea0ee" d="M301,803s5.43-10.39-6.52-11.34c0,0-10.19-9.24-20.58-1.69,0,0-5.67,0-8.76,6.42,0,0-4.46-1.69-5.44,2.83,0,0-3.26,9.44,0,17.94s4.34,9.45,4.34,9.45-2.28-10.55,10.76-11.5,25-9.11,26.09,1.28,2.29,5.69,2.29,5.69S313.51,807.29,301,803Z" transform="translate(0 -1.23)" fill="#0b0b19"/><path d="M753.71,800.62h-169a9.78,9.78,0,0,0-9.77,9.77V851a9.77,9.77,0,0,0,9.77,9.77h2.48v7.34a2.26,2.26,0,0,0,3.85,1.59l8.93-8.93H753.71a9.76,9.76,0,0,0,9.77-9.77V810.39A9.77,9.77,0,0,0,753.71,800.62Z" transform="translate(0 -1.23)" fill="#c0c2a9"/><path d="M753.71,855.83h-169A4.81,4.81,0,0,1,580,851V810.39a4.81,4.81,0,0,1,4.81-4.81H713.08A45.49,45.49,0,0,1,758.52,851,4.81,4.81,0,0,1,753.71,855.83Z" transform="translate(0 -1.23)"/><path d="M619.21,819.47H719.62c2.12,0,3.84,1.23,3.84,2.76v.87c0,1.52-1.72,2.76-3.84,2.76H619.21c-2.12,0-3.84-1.24-3.84-2.76v-.87C615.37,820.7,617.09,819.47,619.21,819.47Z" transform="translate(0 -1.23)" fill="#939c00"/><rect x="615.37" y="833.8" width="108.09" height="6.39" rx="2.76" fill="#9c987f"/><path d="M789.61,669.67H657.92a7.61,7.61,0,0,0-7.61,7.62h0V709a7.61,7.61,0,0,0,7.61,7.61h1.93v5.72a1.76,1.76,0,0,0,3,1.25l7-7h119.8a7.61,7.61,0,0,0,7.61-7.61h0V677.29A7.61,7.61,0,0,0,789.61,669.67Z" transform="translate(0 -1.23)" fill="#575757"/><path d="M789.61,712.71H657.92a3.75,3.75,0,0,1-3.75-3.75V677.29a3.75,3.75,0,0,1,3.75-3.75h100A35.46,35.46,0,0,1,793.36,709,3.75,3.75,0,0,1,789.61,712.71Z" transform="translate(0 -1.23)"/><rect x="681.78" y="682.2" width="84.25" height="4.98" rx="2.49" fill="#686868"/><rect x="681.78" y="692.16" width="84.25" height="4.98" rx="2.49" fill="#686868"/><path d="M495,721.86H626.7a7.62,7.62,0,0,1,7.61,7.62h0v31.67a7.61,7.61,0,0,1-7.61,7.61h-1.93v5.72a1.76,1.76,0,0,1-3,1.25l-7-7H495a7.62,7.62,0,0,1-7.62-7.61h0V729.48a7.62,7.62,0,0,1,7.62-7.62Z" transform="translate(0 -1.23)" fill="#575757"/><path d="M491.26,761.15a35.45,35.45,0,0,1,35.42-35.42h100a3.75,3.75,0,0,1,3.75,3.75v31.67a3.75,3.75,0,0,1-3.75,3.75H495A3.75,3.75,0,0,1,491.26,761.15Z" transform="translate(0 -1.23)"/><rect x="518.59" y="736.39" width="84.25" height="4.98" rx="2.49" fill="#686868"/><rect x="518.59" y="746.35" width="84.25" height="4.98" rx="2.49" fill="#686868"/><path d="M549.16,1110.56H2.25a.76.76,0,0,1,0-1.52H549.16a.76.76,0,1,1,0,1.52Z" transform="translate(0 -1.23)" fill="#333"/><path d="M594.33,849v-4.83a14,14,0,0,1-7.32-2.1l1.15-3.21a14.84,14.84,0,0,0,7.43,2.06c3.4,0,5.7-2,5.7-4.69s-1.87-4.26-5.41-5.69c-4.88-1.92-7.35-4.12-7.35-8.28,0-4,2.55-7,7-7.71v-4.83h2.42v4.64a12.77,12.77,0,0,1,6.22,1.68l-1.19,3.15a10.38,10.38,0,0,0-5.76-1.62c-3.68,0-4.52,2.2-4.52,4.11,0,2.49,1.22,3.74,5.38,5.46,4.93,2,8,4.5,8,8.75,0,3.78-2.64,7.33-7.56,8.14v5Z" transform="translate(0 -1.23)" fill="#9c987f"/><path d="M615.64,759.47v-3.54a10.14,10.14,0,0,1-5.36-1.53l.84-2.35a10.87,10.87,0,0,0,5.44,1.51c2.48,0,4.16-1.44,4.16-3.43s-1.36-3.12-4-4.17c-3.57-1.4-5.37-3-5.37-6.05s1.86-5.11,5.08-5.63v-3.54h1.77v3.4a9.34,9.34,0,0,1,4.55,1.22l-.88,2.31a7.63,7.63,0,0,0-4.21-1.19c-2.69,0-3.31,1.61-3.31,3,0,1.82.9,2.73,3.94,4,3.61,1.47,5.83,3.29,5.83,6.4,0,2.77-1.93,5.35-5.53,6v3.64Z" transform="translate(0 -1.23)" fill="#686868"/><path d="M667.12,704.79v-3.54a10.14,10.14,0,0,1-5.36-1.53l.84-2.35a10.87,10.87,0,0,0,5.44,1.51c2.48,0,4.16-1.44,4.16-3.43s-1.36-3.12-4-4.17c-3.57-1.4-5.37-3-5.37-6s1.86-5.11,5.08-5.63v-3.54h1.77v3.4a9.31,9.31,0,0,1,4.55,1.22L673.4,683a7.63,7.63,0,0,0-4.21-1.19c-2.69,0-3.3,1.61-3.3,3,0,1.82.89,2.73,3.93,4,3.61,1.47,5.83,3.29,5.83,6.4,0,2.77-1.93,5.35-5.53,5.95v3.64Z" transform="translate(0 -1.23)" fill="#686868"/></svg>