<svg id="a5e9e911-1b5f-46e3-abc6-bf86f01af81b" data-name="a8f2bf2b-a98d-4259-bb5f-b3a80cc76132" xmlns="http://www.w3.org/2000/svg" viewBox="0 0 1051 1048.69"><path d="M11.25,569.43C40.18,381.6,140.15,246,257.49,240.57c62-2.88,127.32,31.09,174.84,150,85,212.49-5.22,359.33-68.09,429.1-30.4,33.74-57.71,74.42-81.31,120.67-42.47,83.2-124.17,186.59-221.47,24.59C-9.07,847.48-8,694.54,11.25,569.43Z" transform="translate(0 -1.9)" fill="#0d0d0d"/><rect x="205.35" y="734.02" width="845.65" height="307.43" fill="#c0c2a9"/><polygon points="433.47 734.02 205.35 890.62 205.35 799.93 301.36 734.02 433.47 734.02" fill="#fff" opacity="0.1" style="isolation:isolate"/><polygon points="658.91 734.02 445.54 880.5 437.9 885.75 211.09 1041.45 205.35 1041.45 205.35 954.69 351.5 854.37 356.39 851.01 526.81 734.02 658.91 734.02" fill="#fff" opacity="0.1" style="isolation:isolate"/><path d="M230.21,890.61l-2.28-2.85c.23-.18,23-18.17,59.47-28.46a188.17,188.17,0,0,1,65-6.73c27.15,2,54.14,10,80.23,23.82l-1.71,3.22c-58-30.76-109.54-26.12-142.52-16.8C252.66,872.9,230.43,890.43,230.21,890.61Z" transform="translate(0 -1.9)" fill="#0d0d0d"/><path d="M450.74,889.18c-10.89-1.88-25.3-2.67-35.68-.66l14.14-11.85,3.29-18.16C435.89,868.52,443.71,880.66,450.74,889.18Z" transform="translate(0 -1.9)" fill="#0d0d0d"/><path d="M603.5,926.28A189.61,189.61,0,0,1,552,919.07c-36.43-10.29-59.24-28.28-59.47-28.46l2.28-2.85c.22.17,22.56,17.77,58.33,27.84,32.95,9.28,84.4,13.88,142.37-16.85l1.71,3.23c-26.09,13.82-53.08,21.84-80.23,23.81Q610.24,926.29,603.5,926.28Z" transform="translate(0 -1.9)" fill="#0d0d0d"/><path d="M715.29,889.18c-7,8.53-14.84,20.67-18.24,30.68l-3.3-18.16-14.14-11.85C690,891.86,704.4,891.07,715.29,889.18Z" transform="translate(0 -1.9)" fill="#0d0d0d"/><path d="M769.34,890.61l-2.27-2.85c.22-.18,23-18.17,59.47-28.46a188.15,188.15,0,0,1,65-6.73c27.15,2,54.14,10,80.23,23.82l-1.71,3.22c-58-30.76-109.54-26.12-142.52-16.8C791.8,872.9,769.56,890.43,769.34,890.61Z" transform="translate(0 -1.9)" fill="#0d0d0d"/><path d="M989.88,889.18c-10.89-1.88-25.3-2.67-35.69-.66l14.15-11.85,3.29-18.16C975,868.52,982.85,880.66,989.88,889.18Z" transform="translate(0 -1.9)" fill="#0d0d0d"/><rect x="702.52" y="817.95" width="59.3" height="1.82" fill="#939c00"/><rect x="702.52" y="836.19" width="59.3" height="1.82" fill="#939c00"/><rect x="702.52" y="854.44" width="59.3" height="1.82" fill="#939c00"/><rect x="436.15" y="925.59" width="59.3" height="1.82" fill="#939c00"/><rect x="436.15" y="943.84" width="59.3" height="1.82" fill="#939c00"/><rect x="436.15" y="962.08" width="59.3" height="1.82" fill="#939c00"/><rect x="977.11" y="925.59" width="59.3" height="1.82" fill="#939c00"/><rect x="977.11" y="943.84" width="59.3" height="1.82" fill="#939c00"/><rect x="977.11" y="962.08" width="59.3" height="1.82" fill="#939c00"/><circle cx="467.16" cy="898.23" r="11.86" fill="#939c00"/><circle cx="732.63" cy="881.81" r="11.86" fill="#939c00"/><circle cx="1006.3" cy="898.23" r="11.86" fill="#939c00"/><path d="M348.08,653.37l-17.66-18.94,18.94-17.66L367,635.71Zm-14.85-18.84,14.95,16,16-14.95-14.94-16Z" transform="translate(0 -1.9)" fill="#c0c2a9"/><path d="M673.08,291.37l-17.66-18.94,18.94-17.66L692,273.71Zm-14.85-18.84,14.95,16,16-14.95-14.94-16Z" transform="translate(0 -1.9)" fill="#c0c2a9"/><path d="M990,737.46H964.1v-25.9H990Zm-23.9-2H988V713.56H966.1Z" transform="translate(0 -1.9)" fill="#c0c2a9"/><circle cx="606.45" cy="824.34" r="13.22" fill="#939c00"/><path d="M606.45,864.44a38.2,38.2,0,1,1,38.2-38.19h0A38.25,38.25,0,0,1,606.45,864.44Zm0-73.45a35.26,35.26,0,1,0,35.26,35.26A35.26,35.26,0,0,0,606.45,791Z" transform="translate(0 -1.9)" fill="#0d0d0d"/><rect x="532.07" y="505.9" width="110.15" height="128.33" fill="#0d0d0d"/><path d="M604.77,827.94l-1.53-1.49A78.12,78.12,0,0,0,618.92,799c5.2-15.66,7.75-40.39-9.7-69.28-17.84-29.56-18.65-53.57-16.18-68.51,2.69-16.25,9.54-25.36,9.83-25.74l1.7,1.3c-.07.09-6.86,9.15-9.44,24.92-2.38,14.55-1.55,38,15.92,66.92,17.89,29.63,15.24,55,9.87,71.15C615.1,817.23,605.19,827.52,604.77,827.94Z" transform="translate(0 -1.9)" fill="#c0c2a9"/><path d="M685,637.21H531v-154H685Zm-151.86-2.14H682.86V485.35H533.14Z" transform="translate(0 -1.9)" fill="#c0c2a9"/><rect x="563.08" y="526.22" width="94.11" height="2.14" fill="#c0c2a9"/><rect x="563.08" y="549.75" width="94.11" height="2.14" fill="#c0c2a9"/><rect x="563.08" y="573.28" width="94.11" height="2.14" fill="#c0c2a9"/><polygon points="155.07 947.37 151.21 984.77 173.13 982.19 175.71 951.24 155.07 947.37" fill="#ffb9b9"/><path d="M97,665.55S-15.15,773.88,55.77,807.41H77.7s47.71-78.66,70.93-77.37l6.45,74.79-3.87,150.89L179.58,957s16.76-76.09,15.47-118.65L224.71,681Z" transform="translate(0 -1.9)" fill="#90917b"/><path d="M62.22,802.25l15.48,5.16s60.61-14.18,64.48-12.89l12-.09-.39-30.86H102.2Z" transform="translate(0 -1.9)" fill="#90917b"/><path d="M175.71,978.93s-23.21-10.31-27.08,0-2.58,40-2.58,40,5.16,9,2.58,19.35,10.31,15.47,27.08,10.31,16.76-18,16.76-18Z" transform="translate(0 -1.9)" fill="#90917b"/><path d="M195.05,761s18.06-10.32,16.77,5.16-7.74,29.66-7.74,29.66,16.77,43.84,0,47.71-29.66-5.16-29.66-11.6S195.05,761,195.05,761Z" transform="translate(0 -1.9)" fill="#90917b"/><polygon points="138.31 405.73 140.89 454.73 162.81 474.08 187.32 439.26 187.32 404.44 138.31 405.73" fill="#ffb9b9"/><path d="M155.08,456.64l-14.77-11-9.74,14.84L86.73,486.3l25.79,67.06,1.29,65.77s-47.72,49-19.35,55.45,129,20.64,134.12,9-6.44-131.54-6.44-131.54L226,450.19l-38.68-14Z" transform="translate(0 -1.9)" fill="#5e5e5e"/><path d="M76.41,538.31s-10.32,73.08,9,73.08A88.82,88.82,0,0,0,119,604.94l-15.48-40,6.45-27.08Z" transform="translate(0 -1.9)" fill="#ffb9b9"/><path d="M106.07,602.36l14.19,2.58s41.26-25.79,43.84-27.08-41.27-23.21-41.27-23.21l-29.66,11.6Z" transform="translate(0 -1.9)" fill="#ffb9b9"/><path d="M122.83,554.65l-18.62,7.28,5.73-24-33.53.43s-10.32,73.08,9,73.08A88.82,88.82,0,0,0,119,604.94l-.1-.25,1.39.25s41.26-25.79,43.84-27.08S122.83,554.65,122.83,554.65Z" transform="translate(0 -1.9)" opacity="0.1" style="isolation:isolate"/><circle cx="168.14" cy="393.35" r="36.82" fill="#ffb9b9"/><path d="M135.59,353.71l-7.2-2.88s15.05-16.56,36-15.12l-5.89-6.48s14.39-5.76,27.47,9.36c6.88,8,14.84,17.3,19.8,27.82h7.7l-3.21,7.08,11.25,7.08-11.55-1.27a39.27,39.27,0,0,1-1.09,18.34l.3,5.6s-13.39-20.72-13.39-23.6v7.2s-7.19-6.48-7.19-10.8l-3.93,5-2-7.92-24.2,7.92,3.92-6.48-15,2.16,5.89-7.92s-17,9.36-17.66,17.28-9.16,18-9.16,18l-3.92-7.2S116.62,364.52,135.59,353.71Z" transform="translate(0 -1.9)" fill="#2f2e41"/><path d="M200.21,516s-10.31,11.61-10.31,28.37l-68.35-2.58s-18.06-2.58-18.06,10.32V565s9-3.86,14.19,0,60.61,37.4,87.69,24.51,33.53-63.19,33.53-63.19S214.4,505.64,200.21,516Z" transform="translate(0 -1.9)" fill="#ffb9b9"/><path d="M215.69,451.48,226,450.19s20.64,2.58,18.06,42.56-3.87,42.55-3.87,42.55-27.08-24.5-46.43-12.89Z" transform="translate(0 -1.9)" fill="#5e5e5e"/><path d="M91.88,486.3H86.73A47.73,47.73,0,0,0,76.41,516a142.73,142.73,0,0,1-4.52,34.17L112.52,543Z" transform="translate(0 -1.9)" fill="#5e5e5e"/><rect x="731.5" y="647.67" width="2" height="51.93" fill="#c0c2a9"/><path d="M732.5,637.5c2.11,5.68,5.7,12.73,9.51,17.09l-9.51-3.44L723,654.59C726.8,650.23,730.39,643.18,732.5,637.5Z" transform="translate(0 -1.9)" fill="#c0c2a9"/><rect x="491.5" y="602.67" width="2" height="51.93" fill="#c0c2a9"/><path d="M492.5,592.5c2.11,5.68,5.7,12.73,9.51,17.09l-9.51-3.44L483,609.59C486.8,605.23,490.39,598.18,492.5,592.5Z" transform="translate(0 -1.9)" fill="#c0c2a9"/><rect x="823.5" y="562.67" width="2" height="51.93" fill="#c0c2a9"/><path d="M824.5,552.5c2.11,5.68,5.7,12.73,9.51,17.09l-9.51-3.44L815,569.59C818.8,565.23,822.39,558.18,824.5,552.5Z" transform="translate(0 -1.9)" fill="#c0c2a9"/><path id="f634bde4-fbbf-4d49-8b60-b7671bc07204" data-name="a9fff5a8-4449-4722-8691-2681997674a8" d="M602.25,1.9a2.75,2.75,0,0,0-2.73,2.73v93a2.74,2.74,0,0,0,2.73,2.73H919.41a2.72,2.72,0,0,0,2.72-2.73v-93a2.74,2.74,0,0,0-2.72-2.73Z" transform="translate(0 -1.9)" fill="#515151"/><path id="ae136ee2-e804-40a3-83c9-a6de644576c2" data-name="ef08fdaa-4829-440e-93ff-da8e736c3be7" d="M606.36,93.54H915.3V8.74H606.36Z" transform="translate(0 -1.9)"/><path id="b601238d-d7cd-41dc-aa13-0be4ac05f898" data-name="f7452840-914d-46a1-ae61-ea1c2fc2d2a5" d="M876.3,75.94a4.52,4.52,0,0,0,0,9h18.07a4.52,4.52,0,0,0,0-9Z" transform="translate(0 -1.9)" fill="#b4c738"/><rect id="a3255b4b-1399-4910-9664-1cb2e7c224a3" data-name="b2c9f911-15af-4e19-9f72-89a224d6cf2b" x="690.3" y="65.28" width="208.59" height="1.19" fill="#515151"/><circle id="a6fc0ff6-7c7c-4a29-8672-7a9877fe0a97" data-name="a570d7cb-c53f-47e1-9372-81d6b1f4b9cc" cx="646.7" cy="49.23" r="26.31" fill="#515151"/><path id="efa9b608-d9fa-489f-ab39-762e06e8b95f" data-name="a3321d5c-167e-43b0-8c0e-18df1c8c5ae5" d="M690.63,60.54l-.65-1,21.67-14.45,14.86,7.13,21.38-13.66.29.12,42.24,18,33.87-16.63,32.89,13.33,41.32,8.4.79.89L857.41,54.8,824.33,41.39,790.45,58,748,39.92,726.59,53.6l-14.85-7.13Z" transform="translate(0 -1.9)" fill="#c0c2a9"/><path id="b45ffc76-ad91-496b-8613-82772e80192e" data-name="f7b9bcea-10c4-4c80-b4a6-3d8e323f573e" d="M694.17,76.57a3.86,3.86,0,0,0,0,7.72h40.41a3.86,3.86,0,0,0,.12-7.72H694.17Z" transform="translate(0 -1.9)" fill="#515151"/><path d="M657.28,50.81a1.57,1.57,0,0,0-2.23,0h0l-6.77,6.77V40.88a1.58,1.58,0,0,0-3.16,0v16.7l-6.77-6.77A1.58,1.58,0,0,0,636.11,53h0l9.47,9.47a1.57,1.57,0,0,0,2.23,0L657.28,53A1.57,1.57,0,0,0,657.28,50.81Z" transform="translate(0 -1.9)"/><path id="f83ce541-0d86-4fbc-80b6-1859c5a5927b" data-name="f7c5b60e-33a7-4042-9d2c-5c8c9116b84c" d="M727,170.87a2.72,2.72,0,0,0-2.73,2.72v93a2.72,2.72,0,0,0,2.73,2.72h317.15a2.72,2.72,0,0,0,2.73-2.72v-93a2.72,2.72,0,0,0-2.73-2.72Z" transform="translate(0 -1.9)" fill="#515151"/><path id="b5da661f-73cf-4b09-92cd-c3c8e57b7402" data-name="a8273e4e-93d2-47bb-9b17-df51a96534af" d="M731.13,262.5h308.95V177.7H731.13Z" transform="translate(0 -1.9)"/><path id="a33fae18-5a37-4f53-a6f0-0eb435255b9f" data-name="a87d1795-16f3-4774-9768-c375c1bdbb9e" d="M1001.08,244.91a4.52,4.52,0,1,0,0,9h18.07a4.52,4.52,0,0,0,0-9Z" transform="translate(0 -1.9)" fill="#b4c738"/><rect id="b9b80b98-ad45-413a-978d-c9a3a6d73fac" data-name="b60d1a48-178f-4eb5-a9a3-9e4316169c72" x="815.08" y="234.24" width="208.59" height="1.19" fill="#515151"/><circle id="baaceb1e-871e-445c-a560-513c98a2af24" data-name="f066d7d6-19fd-468d-830f-1318b53822b2" cx="771.48" cy="218.2" r="26.31" fill="#b4c738"/><path id="b2b73da2-b9da-452e-98ec-35614f4aeb06" data-name="fcead4ff-5625-4c61-90c0-6a9c2def1900" d="M815.41,229.51l-.66-1,21.67-14.45,14.87,7.13,21.38-13.65.29.12,42.23,18,33.87-16.64L982,222.38l41.32-36.6.79.89-41.87,37.09-33.08-13.41L915.23,227l-42.45-18.11-21.41,13.68-14.85-7.13Z" transform="translate(0 -1.9)" fill="#c0c2a9"/><path id="b1974030-1c59-436e-9594-226422ec448b" data-name="b25442e4-8332-4a87-9c30-01930e0b437c" d="M818.94,245.53a3.86,3.86,0,1,0-.12,7.72h40.53a3.86,3.86,0,0,0,0-7.72Z" transform="translate(0 -1.9)" fill="#515151"/><path d="M760.89,220.43a1.59,1.59,0,0,0,2.23,0h0l6.78-6.78v16.71a1.58,1.58,0,1,0,3.15,0V213.65l6.78,6.78a1.59,1.59,0,0,0,2.23,0,1.57,1.57,0,0,0,0-2.23h0l-9.47-9.47a1.57,1.57,0,0,0-2.23,0l-9.47,9.47a1.59,1.59,0,0,0,0,2.23Z" transform="translate(0 -1.9)"/><path id="ac3019f6-c1ca-4b8f-8e7a-69ec8e370340" data-name="f3e6157c-e0fb-4525-9ebd-9efe95b1618f" d="M561,339.83a2.72,2.72,0,0,0-2.72,2.73v93A2.72,2.72,0,0,0,561,438.3H878.11a2.74,2.74,0,0,0,2.73-2.73v-93a2.74,2.74,0,0,0-2.73-2.73Z" transform="translate(0 -1.9)" fill="#515151"/><path id="f6a29919-bfb9-4448-8373-6749bc46cfbd" data-name="b96defd0-9a2c-4c45-aa8c-b5fd1840c319" d="M565.06,431.46H874v-84.8H565.06Z" transform="translate(0 -1.9)"/><path id="b5a35a42-097a-45ad-8bd8-daa55d478608" data-name="a2204f79-048d-45a5-9dbf-3ca685e385ac" d="M835,413.87a4.52,4.52,0,0,0,0,9h18.07a4.52,4.52,0,0,0,0-9Z" transform="translate(0 -1.9)" fill="#b4c738"/><rect id="b35f4a45-0608-4e71-a936-fd3732aea33b" data-name="ece8f467-8c57-41a5-b787-946f11f73852" x="649" y="403.21" width="208.59" height="1.19" fill="#515151"/><circle id="ed2923e7-d5c0-4e36-a39a-100ab9a388a3" data-name="acd23665-8915-4d62-9edc-4433a6bf124b" cx="605.4" cy="387.16" r="26.31" fill="#b4c738"/><path id="becfd2fe-eb96-4c5d-acb1-b6601b72e135" data-name="b2ebcab4-d8cf-428d-87b9-c73daac40ac9" d="M649.33,398.47l-.66-1L670.35,383l14.86,7.14,21.38-13.67,42.53,18.15L783,378l32.88,13.34,41.32-16.6.79.89-41.87,17.08L783,379.31,749.16,396,706.7,377.85l-21.4,13.68-14.85-7.13Z" transform="translate(0 -1.9)" fill="#c0c2a9"/><path id="b153fb3e-bf5c-42f6-af41-e75472e70fa0" data-name="aca123b7-0fc2-4f3d-89c1-779a89955e8d" d="M652.87,414.49a3.87,3.87,0,0,0,0,7.73h40.41a3.87,3.87,0,0,0,.12-7.73H652.87Z" transform="translate(0 -1.9)" fill="#515151"/><path d="M594.82,389.39a1.57,1.57,0,0,0,2.23,0h0l6.77-6.77v16.7a1.58,1.58,0,0,0,3.16,0V382.62l6.77,6.77a1.58,1.58,0,1,0,2.24-2.23h0l-9.47-9.47a1.59,1.59,0,0,0-2.23,0l-9.47,9.47a1.57,1.57,0,0,0,0,2.23Z" transform="translate(0 -1.9)"/><path d="M560.21,149.92H534.32V124h25.89Zm-23.9-2h21.91V126H536.31Z" transform="translate(0 -1.9)" fill="#c0c2a9"/><path d="M966.63,505.28,949,486.34l18.93-17.67,17.67,18.94Zm-14.85-18.84,15,16,16-14.95-14.94-16Z" transform="translate(0 -1.9)" fill="#c0c2a9"/><path d="M510.21,409.92H484.32V384h25.89Zm-23.9-2h21.91V386H486.31Z" transform="translate(0 -1.9)" fill="#c0c2a9"/></svg>