<svg id="bfa7266a-1ffc-4ba5-8c22-4dee88647678" data-name="ae078c60-54bd-436d-9521-059685d2198b" xmlns="http://www.w3.org/2000/svg" xmlns:xlink="http://www.w3.org/1999/xlink" viewBox="0 0 1029.46 1027.37"><defs><clipPath id="b3303951-f53a-44ad-925c-1c63d2384c5e" transform="translate(0 -1.25)"><polygon points="194.1 610.09 194.1 509.7 293.48 504.12 293.48 615.67 194.1 610.09" fill="none"/></clipPath><clipPath id="ef0989df-bd08-4541-b566-51da89d85cdf" transform="translate(0 -1.25)"><polyline points="194.1 610.09 194.1 509.7 293.48 510.49 293.48 609.3 194.1 610.09" fill="none"/></clipPath><clipPath id="abdfb3c1-1c16-4264-be1c-327df5b880f7" transform="translate(0 -1.25)"><polygon points="198.6 609.91 198.6 509.89 238.85 507.7 238.85 612.09 198.6 609.91" fill="none"/></clipPath><clipPath id="ee8cb200-ed36-4e6f-a068-3180c5d2b783" transform="translate(0 -1.25)"><polyline points="198.6 609.91 198.6 509.89 238.85 510.21 238.85 609.58 198.6 609.91" fill="none"/></clipPath><clipPath id="ab4bb458-12a4-41cc-8574-89d9e5b4bdd1" transform="translate(0 -1.25)"><polygon points="194.26 534.42 194.26 530.66 293.33 530.45 293.33 534.62 194.26 534.42" fill="none"/></clipPath><clipPath id="e1581a93-4b04-4b58-9582-47b645d2fae0" transform="translate(0 -1.25)"><polyline points="194.26 534.42 194.26 530.66 293.33 530.69 293.33 534.39 194.26 534.42" fill="none"/></clipPath><clipPath id="bc7f75aa-a094-4c7e-857c-29d10e97fa2b" transform="translate(0 -1.25)"><polygon points="272.87 610.09 272.87 510.06 275.67 509.92 275.67 610.24 272.87 610.09" fill="none"/></clipPath><clipPath id="aadb9bdd-9572-4ca2-afa6-ae7a806a3849" transform="translate(0 -1.25)"><polyline points="272.87 610.09 272.87 510.06 275.67 510.1 275.67 610.06 272.87 610.09" fill="none"/></clipPath><clipPath id="b92331d0-2871-42c0-80f4-79345282429d" transform="translate(0 -1.25)"><polygon points="209.91 584.8 209.91 581.06 273.56 580.93 273.56 584.93 209.91 584.8" fill="none"/></clipPath><clipPath id="b200b955-5690-4cdc-b3fa-2d62f4811b8f" transform="translate(0 -1.25)"><polyline points="209.91 584.8 209.91 581.06 273.56 581.08 273.56 584.78 209.91 584.8" fill="none"/></clipPath><clipPath id="f56a37e4-6fe0-4960-966b-b418c5cda3f2" transform="translate(0 -1.25)"><polygon points="235.8 579.93 235.8 535.79 256.28 535.3 256.28 580.42 235.8 579.93" fill="none"/></clipPath><clipPath id="e1a7cfcf-2d71-422a-b04a-ee619814377d" transform="translate(0 -1.25)"><polyline points="235.8 579.93 235.8 535.79 256.28 535.86 256.28 579.86 235.8 579.93" fill="none"/></clipPath><clipPath id="b95fc5f0-d3e8-41c8-ba29-cf5339778abf" transform="translate(0 -1.25)"><polygon points="241.5 555.59 241.5 543.36 250.66 543.3 250.66 555.65 241.5 555.59" fill="none"/></clipPath><clipPath id="bcf1bc87-22e1-4f88-8456-66496c30aa1e" transform="translate(0 -1.25)"><polyline points="241.5 555.59 241.5 543.36 250.66 543.38 250.66 555.58 241.5 555.59" fill="none"/></clipPath><clipPath id="a6878a78-da05-445b-96c3-452085d72564" transform="translate(0 -1.25)"><polygon points="244.2 585.76 244.2 580.73 247.97 580.72 247.97 585.77 244.2 585.76" fill="none"/></clipPath><clipPath id="b74237f6-d9f1-4557-8721-9ae1fdb89122" transform="translate(0 -1.25)"><polyline points="244.2 585.76 244.2 580.73 247.97 580.73 247.97 585.76 244.2 585.76" fill="none"/></clipPath><clipPath id="e6ec5d00-c693-4448-89f2-04f23390d3bb" transform="translate(0 -1.25)"><polygon points="644.8 610.91 644.8 508.13 750.66 513.58 750.66 605.46 644.8 610.91" fill="none"/></clipPath></defs><path d="M296.59,699.08c-3,0-6-.05-9-.14l.07-2.16c4.27.13,8.62.17,12.91.11l0,2.16C299.27,699.07,297.93,699.08,296.59,699.08Zm17-.5-.12-2.16c4.27-.25,8.6-.61,12.87-1l.22,2.15C322.28,698,317.91,698.33,313.6,698.58Zm-39-.34c-4.31-.33-8.67-.76-13-1.29l.26-2.14c4.25.52,8.57,1,12.85,1.28Zm64.88-2.37-.33-2.14c4.25-.65,8.53-1.39,12.72-2.23l.42,2.12C348.07,694.46,343.76,695.22,339.48,695.87Zm-90.7-.8c-4.26-.72-8.56-1.55-12.78-2.46l.46-2.12c4.18.91,8.45,1.74,12.68,2.45ZM365,690.79l-.51-2.09c4.16-1,8.36-2.18,12.46-3.39l.61,2.07C373.42,688.61,369.2,689.76,365,690.79Zm-141.64-1.24c-4.18-1.11-8.38-2.33-12.49-3.63l.65-2.06c4.08,1.29,8.25,2.5,12.4,3.61Zm166.59-6.16-.71-2c4-1.4,8.11-2.92,12.09-4.52l.81,2c-4,1.6-8.12,3.14-12.19,4.55ZM198.51,681.7c-4.06-1.49-8.14-3.1-12.13-4.78l.84-2c4,1.67,8,3.26,12,4.74Zm215.56-8-.9-2c3.89-1.76,7.79-3.65,11.61-5.6l1,1.93c-3.84,2-7.78,3.86-11.69,5.64Zm23.12-11.82L436.12,660c3.73-2.12,7.45-4.36,11.05-6.64l1.16,1.82c-3.64,2.3-7.38,4.56-11.14,6.7Zm22-13.9-1.24-1.77c3.51-2.45,7-5,10.41-7.63l1.32,1.72C466.22,643,462.69,645.56,459.15,648Zm-329.4-3c-3.49-2.53-7-5.19-10.36-7.89l1.35-1.69c3.36,2.68,6.82,5.32,10.28,7.83Zm350-12.8-1.4-1.65c3.27-2.76,6.53-5.64,9.68-8.55l1.47,1.59C486.34,626.5,483.06,629.4,479.77,632.18Zm-370.36-3.44c-3.25-2.85-6.48-5.81-9.59-8.8l1.49-1.56c3.1,3,6.3,5.91,9.52,8.73Zm389.45-14.22L497.33,613c3-3.06,6-6.22,8.86-9.4l1.6,1.45C504.91,608.25,501.9,611.44,498.86,614.52Zm-408.22-3.8c-3-3.13-5.93-6.37-8.75-9.63l1.63-1.41c2.8,3.23,5.72,6.44,8.68,9.55Zm425.64-15.54-1.67-1.37c2.73-3.31,5.41-6.73,8-10.17l1.73,1.3c-2.59,3.46-5.29,6.9-8,10.24Zm-442.69-4.1c-2.68-3.38-5.32-6.88-7.84-10.38l1.76-1.26c2.5,3.48,5.11,6.94,7.77,10.3Zm458.29-16.75-1.79-1.21c2.41-3.55,4.77-7.2,7-10.86l1.85,1.13c-2.27,3.69-4.65,7.37-7.07,10.94ZM58.4,570c-2.35-3.61-4.66-7.33-6.85-11.05l1.86-1.09c2.18,3.69,4.47,7.37,6.8,11Zm487.11-17.84-1.89-1c2.07-3.75,4.09-7.61,6-11.46l1.94,1C549.63,544.47,547.6,548.35,545.51,552.14Zm11.54-23.37-2-.87c1.72-3.93,3.38-8,4.92-12l2,.78C560.45,520.75,558.78,524.81,557.05,528.77ZM34.14,524.11c-1.66-4-3.25-8.05-4.72-12.09l2-.74c1.46,4,3,8.05,4.68,12ZM566.4,504.42l-2.06-.67c1.35-4.07,2.63-8.22,3.79-12.35l2.08.58C569,496.14,567.75,500.33,566.4,504.42ZM25.26,499.69c-1.29-4.12-2.5-8.33-3.59-12.51l2.09-.55c1.09,4.15,2.29,8.33,3.56,12.41Zm548.18-20.31-2.11-.49c1-4.17,1.86-8.42,2.63-12.64l2.13.39c-.78,4.25-1.68,8.54-2.65,12.74ZM18.66,474.52c-.9-4.22-1.72-8.52-2.43-12.78l2.13-.36c.71,4.23,1.52,8.5,2.41,12.69Zm559.49-20.73L576,453.5c.58-4.23,1.07-8.55,1.46-12.83l2.15.19c-.39,4.32-.89,8.67-1.47,12.93ZM14.4,448.86c-.51-4.28-.93-8.64-1.25-12.95l2.16-.16c.31,4.28.73,8.61,1.23,12.85Zm566.1-21-2.16-.09c.19-4.29.29-8.63.29-12.91h2.16C580.79,419.19,580.69,423.57,580.5,427.88Zm-568-5c-.08-2.65-.11-5.35-.11-8,0-1.67,0-3.33,0-5l2.16,0c0,1.64,0,3.29,0,4.94,0,2.66,0,5.34.11,8ZM15.1,397,13,396.9c.27-4.32.64-8.68,1.1-13l2.15.24c-.46,4.25-.83,8.58-1.1,12.86Zm562.14-13.18c-.44-4.26-1-6.34-1.66-10.58l2.14-.32c.63,4.28,1.17,7.54,1.61,11.83ZM17.88,371.36,15.75,371c.66-4.27,1.43-8.58,2.28-12.81l2.12.43C19.3,362.85,18.54,367.12,17.88,371.36ZM573.4,360.54c-.82-4.21-1.75-8.46-2.76-12.61l2.1-.51c1,4.18,2,8.46,2.78,12.71ZM23,346.06l-2.09-.53c1.05-4.18,2.21-8.4,3.45-12.54l2.07.62C25.2,337.72,24,341.91,23,346.06Zm544.29-10.6c-1.2-4.12-2.52-8.26-3.91-12.31l2-.7c1.41,4.08,2.73,8.25,4,12.4ZM30.44,321.3l-2-.72c1.44-4.08,3-8.19,4.61-12.2l2,.81c-1.61,4-3.15,8.06-4.58,12.11ZM558.9,311c-1.58-4-3.26-8-5-11.87l2-.88c1.77,3.92,3.47,7.94,5.06,11.95ZM40.14,297.31l-2-.9c1.8-3.93,3.73-7.87,5.71-11.72l1.92,1C43.84,289.5,41.93,293.41,40.14,297.31Zm508.18-9.76c-1.93-3.82-4-7.64-6.09-11.36l1.88-1.07c2.13,3.75,4.19,7.61,6.14,11.45ZM52,274.33l-1.88-1.08c2.16-3.74,4.43-7.49,6.76-11.13l1.82,1.16c-2.31,3.62-4.57,7.34-6.7,11.05Zm483.62-9.22c-2.29-3.64-4.68-7.26-7.11-10.77l1.77-1.23c2.46,3.54,4.87,7.19,7.17,10.85ZM65.92,252.55l-1.77-1.25c2.49-3.53,5.1-7.05,7.74-10.46l1.71,1.32C71,245.55,68.39,249,65.92,252.55Zm455-8.64c-2.61-3.41-5.32-6.8-8.07-10.08l1.66-1.38c2.77,3.3,5.5,6.71,8.12,10.15ZM81.75,232.13l-1.64-1.4c2.79-3.28,5.71-6.55,8.66-9.71l1.58,1.47C87.42,225.63,84.53,228.88,81.75,232.13Zm422.6-8c-2.91-3.16-5.92-6.29-9-9.31l1.52-1.53c3.06,3,6.09,6.19,9,9.38Zm-405-10.88-1.51-1.54c3.09-3,6.29-6,9.5-8.88l1.44,1.61C105.61,207.29,102.44,210.25,99.37,213.25ZM486,205.93c-3.18-2.89-6.46-5.73-9.76-8.46l1.38-1.67c3.32,2.75,6.63,5.62,9.84,8.53Zm-367.41-9.87-1.36-1.68c3.34-2.72,6.8-5.4,10.27-8l1.29,1.74C125.37,190.69,121.94,193.36,118.62,196.06Zm20.73-15.36-1.2-1.8c3.57-2.4,7.26-4.76,10.94-7l1.13,1.84C146.56,176,142.9,178.31,139.35,180.7Zm22-13.4-1-1.9c3.78-2.07,7.66-4.08,11.53-6l1,1.94C169,163.25,165.14,165.24,161.38,167.3Zm260.83-5c-3.84-1.92-7.78-3.77-11.71-5.5l.88-2c3.95,1.75,7.92,3.61,11.8,5.54ZM184.53,156l-.86-2c4-1.71,8-3.36,12-4.89l.77,2C192.47,152.64,188.46,154.27,184.53,156Zm214-4.14c-4-1.55-8.1-3-12.17-4.4l.69-2.05c4.1,1.38,8.23,2.87,12.26,4.43Zm-189.91-5-.67-2.06c4.1-1.34,8.29-2.61,12.45-3.76l.58,2.08C216.87,144.22,212.72,145.48,208.64,146.82ZM374,143.6c-4.12-1.17-8.32-2.26-12.49-3.25l.49-2.1c4.21,1,8.44,2.09,12.6,3.28Zm-140.52-3.69-.48-2.1c4.21-1,8.5-1.84,12.75-2.61l.38,2.13C242,138.09,237.7,139,233.52,139.91Zm115.4-2.23c-4.21-.79-8.5-1.49-12.75-2.09l.3-2.14c4.28.6,8.6,1.31,12.84,2.11Zm-90-2.35-.29-2.14c4.28-.57,8.63-1.05,12.93-1.43l.19,2.15C267.49,134.29,263.17,134.76,258.93,135.33Zm64.42-1.24c-4.26-.4-8.59-.71-12.88-.92l.1-2.16c4.33.21,8.69.52,13,.93Zm-38.7-1-.09-2.15c4-.17,8-.25,12-.26h1v2.16h-1c-4,0-8,.08-11.94.24Z" transform="translate(0 -1.25)" fill="#c0c2a9"/><path d="M644.31,294.16V994.62a31.49,31.49,0,0,1-31.48,31.45H328.47A31.42,31.42,0,0,1,297,994.71V294.16a31.48,31.48,0,0,1,31.47-31.48H371v5.46a25.92,25.92,0,0,0,25.91,25.92H541.56A25.73,25.73,0,0,0,556.93,289a24.9,24.9,0,0,0,2.55-2.14,25.85,25.85,0,0,0,8-18.73v-5.46h45.35a31.48,31.48,0,0,1,31.48,31.46Z" transform="translate(0 -1.25)" fill="#3d3d3d"/><rect x="338.56" y="452.26" width="264.17" height="200.99" fill="#b4c738"/><path d="M199.45,419.64c23.52.5,42.23,17.55,42.23,17.55s-19.42,16.23-42.94,15.72-42.23-17.55-42.23-17.55S175.93,419.13,199.45,419.64Z" transform="translate(0 -1.25)" fill="#939c00"/><path d="M81.2,339.35c21.25,10.1,45.62,3.25,45.62,3.25s-10.09-23.21-31.34-33.31S49.87,306,49.87,306,60,329.26,81.2,339.35Z" transform="translate(0 -1.25)" fill="#939c00"/><path d="M83.36,329.32C106.79,327.18,127.3,342,127.3,342s-17.48,18.31-40.91,20.45-43.93-12.69-43.93-12.69S59.93,331.46,83.36,329.32Z" transform="translate(0 -1.25)" fill="#c0c2a9"/><path d="M169.24,333.38c-2.24,23.41,12.5,44,12.5,44s18.38-17.4,20.63-40.82-12.5-44-12.5-44S171.49,310,169.24,333.38Z" transform="translate(0 -1.25)" fill="#c0c2a9"/><path d="M279.58,477c-12.29,20.06-8.06,45-8.06,45s24.15-7.58,36.44-27.64,8.06-45,8.06-45S291.87,456.94,279.58,477Z" transform="translate(0 -1.25)" fill="#939c00"/><path d="M243.93,695.12l1.79-1.21a56.09,56.09,0,0,1-9.9-31.11c.05-16.27,8-31.32,15.77-45.88,1.43-2.7,2.86-5.39,4.24-8.08a176.75,176.75,0,0,0,13.73-34.47c12-44.55.18-97.12-31.58-140.61-25.19-34.5-62.75-64.67-114.82-92.24l-1,1.91c51.77,27.41,89.09,57.37,114.09,91.6,31.38,43,43.05,94.85,31.23,138.78a174.49,174.49,0,0,1-13.56,34c-1.38,2.68-2.8,5.37-4.23,8.06-7.85,14.78-16,30.07-16,46.88A58.2,58.2,0,0,0,243.93,695.12Z" transform="translate(0 -1.25)" fill="#c0c2a9"/><circle cx="20.53" cy="322.59" r="20.53" fill="#c0c2a9"/><polygon points="309.56 655.86 180.67 645.12 180.67 456.09 309.56 449.65 309.56 655.86" fill="#b4c738"/><polygon points="631.74 655.86 760.62 645.12 760.62 456.09 631.74 449.65 631.74 655.86" fill="#b4c738"/><circle cx="470.65" cy="713.77" r="31.34" fill="#b4c738"/><polygon points="490.38 710.67 473.74 710.67 473.74 694.04 467.55 694.04 467.55 710.67 450.92 710.67 450.92 716.86 467.55 716.86 467.55 733.5 473.74 733.5 473.74 716.86 490.38 716.86 490.38 710.67"/><polygon points="569.49 714.85 553.28 707.28 553.28 711.61 515.46 711.61 515.46 718.09 553.28 718.09 553.28 722.41 569.49 714.85" fill="#c0c2a9"/><polygon points="371.81 714.85 388.02 707.28 388.02 711.61 425.84 711.61 425.84 718.09 388.02 718.09 388.02 722.41 371.81 714.85" fill="#c0c2a9"/><rect x="214.6" y="1025.08" width="792.09" height="2.16" fill="#c0c2a9"/><rect x="297.4" y="409.43" width="168.18" height="1.75" fill="#c0c2a9"/><rect x="367.41" y="953.76" width="207.48" height="2.16" fill="#90917b"/><path d="M861.21,715.93l-4.38,16.64s-15.77,35,0,36.79,16.64-45.55,16.64-45.55Z" transform="translate(0 -1.25)" fill="#a0616a"/><path d="M888.36,595.93,856.83,720.31s12.26,3.5,18.39,7.88Z" transform="translate(0 -1.25)" fill="#5e5e5e"/><path d="M987.34,690.53l8.76,135.76s21,53.43,20.14,104.24c0,0-7.88,20.14-1.75,23.65s9.64,6.13,6.13,8.76-6.13,8.76-3.5,10.51,3.5,4.38,2.63,4.38H993.47s5.26-13.14-2.63-16.65-3.5-12.26-3.5-12.26L928.65,777.24,882.23,934.91s7.88,5.25,1.75,7.88-8.76-2.63-6.13,2.63-.88,7.88-.88,8.76-26.27-2.63-26.27-2.63,13.13-11.39,7-14-8.76-5.25-7-7,8.76-18.4,8.76-18.4,3.5-63.06,4.37-65.69,0-14.89,0-21-.87-30.66,1.76-36.79,5.25-81.46,19.27-90.22S987.34,690.53,987.34,690.53Z" transform="translate(0 -1.25)" fill="#90917b"/><path d="M876.1,949.8s17.52,35.91,5.25,40.29-28,.88-31.53,6.13-42,11.39-42.92-1.75,42-37.67,42-37.67l5.6-9Z" transform="translate(0 -1.25)" fill="#90917b"/><path d="M1018,976.07s17.51,35.92,5.25,40.3-28,.87-31.53,6.13-42.05,11.39-42.92-1.75,42-37.67,42-37.67l5.59-9Z" transform="translate(0 -1.25)" fill="#90917b"/><circle cx="936.97" cy="495.27" r="28.91" fill="#a0616a"/><polygon points="956.68 510.6 953.18 536 926.9 556.14 919.89 546.51 919.89 513.22 956.68 510.6" fill="#a0616a"/><path d="M915.51,544.25s27.16,2.63,41.17-7l28,165.55s-99,7.88-103.36,2.63V653.74l17.52-84.09Z" transform="translate(0 -1.25)" fill="#c0c2a9"/><path d="M954.27,529.33l9.42,7.91s38.54,6.13,35.91,16.64L989.09,678.26l3.5,42s-29.78-7.89-52.55,0-4.68-169.41-4.68-169.41S956.24,531.92,954.27,529.33Z" transform="translate(0 -1.25)" fill="#5e5e5e"/><path d="M919.89,538.91s-28,20.23-31.53,33.37-14.89,151.53-14.89,151.53,5.26-2.63,7.88,1.75S924.27,545.84,919.89,538.91Z" transform="translate(0 -1.25)" fill="#5e5e5e"/><path d="M997,722.06l-6.28,20.49s-1.6,38.2-22.62,32.94,6.13-49.93,6.13-49.93l6.13-9.63Z" transform="translate(0 -1.25)" fill="#a0616a"/><path d="M908.08,495.25s-3.13-4.69-1.92-9.75a29.51,29.51,0,0,0,.84-8.78s2.53-8.19,5-12.76,1.33-6.5,9.27-7.94,4.69-11.8,25.64-.6a6.14,6.14,0,0,0,6.37,2.4c4.34-.84,5.9,5.18,5.9,5.18s2.89-1.69,4,.72,8.81-1.44,8.81,14.8-8.79,30.76-8.79,30.76.65-27.33-13.68-30.09-29.72-10.84-33.45-.49A78.76,78.76,0,0,1,908.08,495.25Z" transform="translate(0 -1.25)" fill="#0b0b19"/><path d="M992.59,547.75s14-3.5,18.4,20.15,9.63,91.09,9.63,91.09l-21,71s-21-11.38-25.4-9.63l16.54-61.6-13.91-62.78S989.09,547.75,992.59,547.75Z" transform="translate(0 -1.25)" fill="#5e5e5e"/><polygon points="972.22 595.88 990.61 657.2 972.22 719.38 982.73 657.2 972.22 595.88" fill="#fff" opacity="0.15" style="isolation:isolate"/><path d="M507.88,952.77H468.24a8.35,8.35,0,0,1-8.35-8.35V883.29a8.37,8.37,0,0,1,8.35-8.36h39.64a8.38,8.38,0,0,1,8.36,8.36v61.13A8.37,8.37,0,0,1,507.88,952.77Z" transform="translate(0 -1.25)" fill="#90917b"/><path d="M503.58,946.7h-31a8.25,8.25,0,0,1-8.24-8.23V889.24a8.25,8.25,0,0,1,8.24-8.24h31a8.25,8.25,0,0,1,8.24,8.24v49.23A8.24,8.24,0,0,1,503.58,946.7Z" transform="translate(0 -1.25)" fill="#c0c2a9"/><path d="M381,897.84l-9.46-12.17A7.58,7.58,0,0,1,372.89,875h0l38.32-29.8a14.5,14.5,0,0,1,7.79-3l3.23-.25,27.83-16.3a2.39,2.39,0,0,1,4.05-2.46L462,833.39a2.39,2.39,0,0,1-3.4,3.31l-22.76,22.77a14.45,14.45,0,0,1-5.48,9.57l-38.73,30.13A7.59,7.59,0,0,1,381,897.84Z" transform="translate(0 -1.25)" fill="#90917b"/><path d="M461.14,824.56a14.36,14.36,0,0,1,13.25,1.25,19.07,19.07,0,0,1,8,12.38c.49,2.54.66,5.5,2.44,7.08,1.3,1.16,3.08,1.19,4.64,1.75,4.64,1.66,7,8.09,6.36,13.67s-3.69,10.4-6.91,14.61c1-2.26-.31-5.2-2.25-6.38s-4.27-1.09-6.47-.89-4.47.44-6.52-.5c-3.49-1.61-5.26-6.27-5.53-10.64s.61-8.7.68-13.07-.91-9.16-3.93-11.77c-1.39-1.19-3.11-1.83-4.4-3.17s-2-3.87-.78-5.31" transform="translate(0 -1.25)" fill="#c0c2a9"/><path d="M509.67,872.91l-.38,0a6.45,6.45,0,0,0-8.84-8c-1-2.91-3.25-4.92-5.83-4.92s-4.79,2-5.83,4.92a6.45,6.45,0,0,0-5.53,0c-1-2.91-3.26-4.92-5.83-4.92s-4.79,2-5.83,4.92a6.45,6.45,0,0,0-8.84,8l-.37,0c-3.56,0-6.45,3.85-6.45,8.6s2.89,8.6,6.45,8.6c2.93,0,5.4-2.61,6.19-6.19a6.45,6.45,0,0,0,7.32,1.27c1,2.9,3.25,4.92,5.83,4.92,2.93,0,5.4-2.61,6.19-6.19a6.46,6.46,0,0,0,7.32,1.27c1,2.9,3.25,4.92,5.83,4.92s4.79-2,5.83-4.92a6.45,6.45,0,0,0,5.53-11.65,6.59,6.59,0,0,0-2.76-.63Z" transform="translate(0 -1.25)" fill="#90917b"/><circle cx="475.28" cy="888.86" r="1.19" fill="#90917b"/><circle cx="490.32" cy="895.31" r="1.19" fill="#90917b"/><circle cx="501.07" cy="888.86" r="1.19" fill="#90917b"/><path d="M516.15,931.25h-.28v-.71h.56v.14a20,20,0,0,0-.28-40v-.56a20.57,20.57,0,1,1,0,41.14Z" transform="translate(0 -1.25)" fill="#c0c2a9" stroke="#90917b" stroke-miterlimit="10" stroke-width="5"/><path d="M383,894.91l-8.13-10.45a6.42,6.42,0,0,1,1.13-9h0L409,849.81a12.35,12.35,0,0,1,6.65-2.57l2.8-.22,25.79-15.11,6.94,8.92L430,861.94a12.3,12.3,0,0,1-4.68,8.2L392,896a6.42,6.42,0,0,1-9-1.13Z" transform="translate(0 -1.25)" fill="#c0c2a9"/><path d="M459.72,833.68a3.12,3.12,0,0,0,2.66-.66c1.25-1,1.67-2.52.94-3.46a1.62,1.62,0,0,0-.48-.42,1.72,1.72,0,0,0-.6-2c.82-1.14,1.13-2.16.71-2.7a1.21,1.21,0,0,0-1-.39,1.81,1.81,0,0,0-.34-1.31,2.38,2.38,0,0,0-3-.32.1.1,0,0,0,0,0c-.73-.94-2.33-.91-3.58.06a3.55,3.55,0,0,1-3.39,2.64c-1.25,1-1.67,2.52-.94,3.45l.1.12h0l-.08-.13c-.73-.93-2.34-.91-3.59.06a3.5,3.5,0,0,1-3.39,2.64c-1.25,1-1.67,2.52-.94,3.46s2.33.91,3.58-.06a2.14,2.14,0,0,0,.4,3.63,1.51,1.51,0,0,0,0,1.52c.42.54,1.48.49,2.79,0a1.5,1.5,0,0,0,.22.39c.73.94,2.33.91,3.58-.06a3.3,3.3,0,0,0,1.25-1.89,3.37,3.37,0,0,0,2.15-.75,3.71,3.71,0,0,0,.75-.78,3.38,3.38,0,0,0,.94-.54A3.11,3.11,0,0,0,459.72,833.68Z" transform="translate(0 -1.25)" fill="#90917b"/><rect x="396.63" y="854.21" width="17.19" height="30.09" transform="translate(-448.31 430.65) rotate(-37.88)" fill="#c0c2a9"/><path d="M389.23,862.57l18.54,23.83,13.45-10.46L402.68,852.1Z" transform="translate(0 -1.25)" fill="#272729" opacity="0.5"/><circle cx="442.59" cy="838.99" r="1.19" fill="#90917b"/><circle cx="433.17" cy="840.88" r="1.19" fill="#90917b"/><circle cx="473.37" cy="836.33" r="1.19" fill="#90917b"/><circle cx="477.67" cy="842.78" r="1.19" fill="#90917b"/><polygon points="460.67 861.83 460.67 861.83 460.67 861.83 460.67 861.83" fill="#0d0d0d"/><path d="M460.26,863.08c-1.32,0-5.55.32-7.75,2.16-2.62,2.21-2.62,4.3-1.35,5.82s3.33,1.87,6-.33c2.23-1.87,3.23-6.07,3.48-7.31Z" transform="translate(0 -1.25)" fill="#90917b"/><polygon points="493.95 834.97 493.95 834.97 493.95 834.97 493.95 834.97" fill="#0d0d0d"/><path d="M494.21,836.53c.84,1,3.64,4.2,6.45,4.81,3.35.72,5-.56,5.43-2.49s-.56-3.78-3.91-4.51c-2.84-.62-6.77,1.15-7.91,1.71Z" transform="translate(0 -1.25)" fill="#90917b"/><polygon points="515.64 866.16 515.64 866.16 515.64 866.16 515.64 866.16" fill="#0d0d0d"/><path d="M515.69,867.81c.15,1.31.79,5.5,2.82,7.53,2.43,2.43,4.51,2.25,5.91.85s1.58-3.49-.84-5.91c-2.05-2.06-6.33-2.69-7.58-2.84Z" transform="translate(0 -1.25)" fill="#90917b"/><g style="isolation:isolate"><g clip-path="url(#b3303951-f53a-44ad-925c-1c63d2384c5e)"><g clip-path="url(#ef0989df-bd08-4541-b566-51da89d85cdf)"><path d="M198.55,509.73l-.42,0c-.14,0-.27.06-.41.09l-.39.14-.38.19a3.45,3.45,0,0,0-.41.25l-.39.31a3.85,3.85,0,0,0-.35.35,4,4,0,0,0-.33.39,4.15,4.15,0,0,0-.3.43,4.39,4.39,0,0,0-.27.47c-.08.16-.16.33-.23.51a4.81,4.81,0,0,0-.2.53c-.06.18-.11.37-.16.57s-.08.38-.11.58a6,6,0,0,0-.07.61q0,.31,0,.63V604q0,.31,0,.63c0,.2,0,.41.07.61s.07.39.11.58.1.38.16.57a4.81,4.81,0,0,0,.2.53c.07.18.15.34.23.51a4.39,4.39,0,0,0,.27.47,3.19,3.19,0,0,0,.3.42,4.12,4.12,0,0,0,.33.4l.35.35.39.31c.13.09.27.17.41.25a2.64,2.64,0,0,0,.38.18,3,3,0,0,0,.39.14l.41.1a3,3,0,0,0,.42,0h0l90.54-.72.41-.05.41-.1a2.74,2.74,0,0,0,.4-.15,3.37,3.37,0,0,0,.38-.19,4.4,4.4,0,0,0,.39-.26,3.47,3.47,0,0,0,.37-.3c.12-.11.23-.23.34-.35a3,3,0,0,0,.32-.39,4.15,4.15,0,0,0,.3-.43c.09-.15.18-.31.26-.47s.16-.33.23-.5.13-.35.19-.53.11-.37.15-.56.08-.38.11-.58.05-.39.07-.6,0-.4,0-.61V516.52c0-.21,0-.41,0-.62s0-.4-.07-.6-.07-.39-.11-.58-.1-.37-.15-.55-.12-.36-.19-.53-.15-.34-.23-.5-.17-.32-.26-.47a4.15,4.15,0,0,0-.3-.43,4.08,4.08,0,0,0-.31-.39l-.35-.35-.37-.31a4.25,4.25,0,0,0-.39-.25,3.37,3.37,0,0,0-.38-.19,2.74,2.74,0,0,0-.4-.15l-.41-.1-.41-.05-90.54-.72h0" transform="translate(0 -1.25)" fill="#191919"/></g></g></g><g style="isolation:isolate"><g clip-path="url(#abdfb3c1-1c16-4264-be1c-327df5b880f7)"><g clip-path="url(#ee8cb200-ed36-4e6f-a068-3180c5d2b783)"><polyline points="235.74 508.95 198.6 608.66 201.73 608.64 238.85 508.97 235.74 508.95" fill="#c0c2a9"/></g></g></g><g style="isolation:isolate"><g clip-path="url(#ab4bb458-12a4-41cc-8574-89d9e5b4bdd1)"><g clip-path="url(#e1581a93-4b04-4b58-9582-47b645d2fae0)"><polyline points="194.26 529.42 194.26 533.17 293.33 533.14 293.33 529.45 194.26 529.42" fill="#c0c2a9"/></g></g></g><g style="isolation:isolate"><g clip-path="url(#bc7f75aa-a094-4c7e-857c-29d10e97fa2b)"><g clip-path="url(#aadb9bdd-9572-4ca2-afa6-ae7a806a3849)"><polyline points="272.87 508.82 272.87 608.85 275.67 608.82 275.67 508.85 272.87 508.82" fill="#c0c2a9"/></g></g></g><g style="isolation:isolate"><g clip-path="url(#b92331d0-2871-42c0-80f4-79345282429d)"><g clip-path="url(#b200b955-5690-4cdc-b3fa-2d62f4811b8f)"><polyline points="209.91 579.82 209.91 583.55 273.56 583.53 273.56 579.84 209.91 579.82" fill="#c0c2a9"/></g></g></g><g style="isolation:isolate"><g clip-path="url(#f56a37e4-6fe0-4960-966b-b418c5cda3f2)"><g clip-path="url(#e1a7cfcf-2d71-422a-b04a-ee619814377d)"><path d="M245.86,535.83a8.26,8.26,0,0,0-1,.08,7.43,7.43,0,0,0-1,.21,8.07,8.07,0,0,0-.94.33,8.16,8.16,0,0,0-.89.44,8.51,8.51,0,0,0-.9.57,7.58,7.58,0,0,0-.84.68,8.3,8.3,0,0,0-.79.78,10.32,10.32,0,0,0-.73.88c-.23.31-.45.63-.66,1s-.41.69-.6,1.05-.35.74-.51,1.13-.31.79-.44,1.2-.24.82-.34,1.25-.18.86-.25,1.31-.12.9-.16,1.36,0,.92,0,1.39a12.19,12.19,0,0,0,.08,1.28c.05.46.12,1,.22,1.5s.21,1.11.34,1.7.29,1.22.45,1.87.36,1.31.56,2,.41,1.38.63,2.09.45,1.44.69,2.16.49,1.47.74,2.2.5,1.47.76,2.19.52,1.46.78,2.17.52,1.41.78,2.1.51,1.36.76,2,.49,1.27.72,1.87l.67,1.72.61,1.52c.19.48.37.91.53,1.3l0,.09,0,.08a.56.56,0,0,0,.05.08,81623136160.73,81623136160.73,0,0,0,.1.14l0,.06.06.06.06.05.07,0,.06,0,.07,0,.07,0,.05,0,.06,0h.3l.13,0,.13-.06.12-.08.14-.11.11-.14.1-.16.09-.18.52-1.29q.28-.71.6-1.53c.22-.54.44-1.11.67-1.72s.48-1.23.72-1.88.51-1.32.76-2,.52-1.39.78-2.1.52-1.44.77-2.17.52-1.46.77-2.19.49-1.46.73-2.19.47-1.45.69-2.16.43-1.41.62-2.09.38-1.35.55-2,.32-1.27.45-1.86.25-1.16.35-1.7.17-1,.21-1.49a12.17,12.17,0,0,0,.08-1.27c0-.47,0-.94,0-1.4s-.09-.91-.15-1.35-.15-.88-.25-1.31-.22-.85-.35-1.25-.27-.81-.43-1.2a10.35,10.35,0,0,0-.51-1.12,12,12,0,0,0-.59-1.06,9.07,9.07,0,0,0-.66-1c-.23-.31-.47-.61-.72-.89s-.52-.54-.79-.79-.56-.47-.84-.68a8.51,8.51,0,0,0-.9-.57,8.24,8.24,0,0,0-.94-.47,8.74,8.74,0,0,0-1-.34,8.37,8.37,0,0,0-1-.21,7.17,7.17,0,0,0-1-.07h-.2" transform="translate(0 -1.25)" fill="#939c00"/></g></g></g><g style="isolation:isolate"><g clip-path="url(#b95fc5f0-d3e8-41c8-ba29-cf5339778abf)"><g clip-path="url(#bcf1bc87-22e1-4f88-8456-66496c30aa1e)"><path d="M246,543.37l-.45,0-.44.1a3.12,3.12,0,0,0-.43.15,3.86,3.86,0,0,0-.41.2,4.53,4.53,0,0,0-.4.26c-.13.09-.25.19-.38.3s-.23.23-.35.36a6.6,6.6,0,0,0-.62.82l-.27.47c-.08.16-.15.33-.22.51s-.14.35-.2.53-.11.37-.15.56-.08.39-.11.59-.05.4-.07.61,0,.41,0,.62,0,.42,0,.63,0,.4.07.6.07.4.11.59.1.37.15.56.13.36.2.53.14.34.22.51l.27.46a4.27,4.27,0,0,0,.3.44c.1.13.21.27.32.39l.35.35.38.31a4.37,4.37,0,0,0,.4.25,4,4,0,0,0,.41.21l.43.14a2.16,2.16,0,0,0,.44.1,3.4,3.4,0,0,0,.45,0h.06a3.71,3.71,0,0,0,.47,0l.45-.09.44-.16a2.67,2.67,0,0,0,.42-.2,4.53,4.53,0,0,0,.4-.26,3.47,3.47,0,0,0,.37-.3c.13-.11.24-.23.36-.35s.22-.26.32-.4a4.15,4.15,0,0,0,.3-.43c.09-.15.18-.31.26-.47a4,4,0,0,0,.23-.51c.07-.17.14-.35.2-.53s.11-.37.15-.56a5.4,5.4,0,0,0,.11-.58,6,6,0,0,0,.07-.61c0-.2,0-.41,0-.62s0-.42,0-.62a6,6,0,0,0-.07-.61,5.4,5.4,0,0,0-.11-.58c0-.2-.1-.38-.15-.57s-.13-.36-.2-.53a4.52,4.52,0,0,0-.23-.5,5.22,5.22,0,0,0-.26-.47,4.27,4.27,0,0,0-.3-.44,4.16,4.16,0,0,0-.32-.39,4.08,4.08,0,0,0-.36-.36,3.47,3.47,0,0,0-.37-.3l-.4-.26-.42-.2a3.81,3.81,0,0,0-.44-.15l-.45-.1a3.71,3.71,0,0,0-.47,0H246" transform="translate(0 -1.25)" fill="#191919"/></g></g></g><g style="isolation:isolate"><g clip-path="url(#a6878a78-da05-445b-96c3-452085d72564)"><g clip-path="url(#b74237f6-d9f1-4557-8721-9ae1fdb89122)"><path d="M246.08,580.73h-.19l-.19,0-.18.06-.17.09-.17.1-.15.13-.15.14-.13.17a1.18,1.18,0,0,0-.13.18c0,.06-.07.12-.1.19a2,2,0,0,0-.1.21c0,.07,0,.14-.08.22l-.06.23c0,.08,0,.16-.05.24a2.11,2.11,0,0,0,0,.25,3.38,3.38,0,0,0,0,.52,2.29,2.29,0,0,0,0,.25c0,.08,0,.16.05.24l.06.23c0,.07,0,.14.08.22a1.24,1.24,0,0,0,.1.2l.1.2.13.18a1.83,1.83,0,0,0,.13.16l.15.14.15.13.17.1.17.08.18.07.19,0h.38l.19,0,.18-.06.17-.09.17-.1.15-.13.15-.14.13-.17a1.09,1.09,0,0,0,.13-.17l.11-.2.09-.2a2.09,2.09,0,0,0,.08-.23l.06-.23a1.69,1.69,0,0,0,.05-.24l0-.25c0-.08,0-.17,0-.25s0-.18,0-.26l0-.25a2,2,0,0,0-.05-.24l-.06-.23a1.43,1.43,0,0,0-.08-.22l-.09-.21-.11-.19a1.27,1.27,0,0,0-.13-.19l-.13-.16-.15-.14L247,581l-.17-.1-.17-.09-.18-.06-.19,0h-.19" transform="translate(0 -1.25)" fill="#939c00"/></g></g></g><path d="M380.54,607.12a72.26,72.26,0,0,1-9.06-.57,4.84,4.84,0,0,1-3.61-1.47c-2-2.12-1.93-5.74-1.92-5.9V550.4a13.3,13.3,0,0,1,3-10.08,11,11,0,0,0,2.29-5.28l3.83-28.76a2.15,2.15,0,0,1,2.35-1.85,39.26,39.26,0,0,0,5.84-.14h0a2.15,2.15,0,0,1,2.27,1.84l4,29.38a11.15,11.15,0,0,0,2.23,5.27,12.54,12.54,0,0,1,2.65,10.14V599c0,6.62-4.63,7.57-4.68,7.58A74.35,74.35,0,0,1,380.54,607.12Zm-3.33-101.05a.49.49,0,0,0-.51.42l-3.84,28.77a12.45,12.45,0,0,1-2.65,6.11,11.64,11.64,0,0,0-2.62,8.87v49c0,.06-.09,3.12,1.46,4.73a3.22,3.22,0,0,0,2.47,1h.11a72,72,0,0,0,17.84,0c.07,0,3.28-.75,3.28-5.95l0-48.27a11,11,0,0,0-2.3-8.89,12.74,12.74,0,0,1-2.58-6.08l-4-29.37a.48.48,0,0,0-.51-.42,40.33,40.33,0,0,1-6.12.14Z" transform="translate(0 -1.25)"/><path d="M377.28,551.22h6.08a9.11,9.11,0,0,1,9.11,9.11V583.2a9.11,9.11,0,0,1-9.11,9.12h-6.08a9.11,9.11,0,0,1-9.11-9.12V560.33a9.11,9.11,0,0,1,9.11-9.11Z" transform="translate(0 -1.25)"/><path d="M414,607.12a72.26,72.26,0,0,1-9.06-.57,4.85,4.85,0,0,1-3.61-1.47c-2-2.12-1.92-5.74-1.92-5.9V550.4a13.3,13.3,0,0,1,3-10.08,10.77,10.77,0,0,0,2.29-5.28l3.83-28.76a2.15,2.15,0,0,1,2.35-1.85,39.42,39.42,0,0,0,5.85-.14h0a2.14,2.14,0,0,1,2.27,1.84l4,29.38a11.27,11.27,0,0,0,2.24,5.27,12.54,12.54,0,0,1,2.64,10.14V599c0,6.62-4.63,7.57-4.68,7.58A74.23,74.23,0,0,1,414,607.12Zm-3.33-101.05a.49.49,0,0,0-.51.42l-3.84,28.77a12.45,12.45,0,0,1-2.65,6.11,11.64,11.64,0,0,0-2.62,8.87v49c0,.06-.09,3.12,1.46,4.73a3.23,3.23,0,0,0,2.48,1h.1a72,72,0,0,0,17.84,0c.08,0,3.28-.75,3.28-5.95l0-48.27a10.93,10.93,0,0,0-2.3-8.89,12.74,12.74,0,0,1-2.58-6.08l-4-29.37a.48.48,0,0,0-.5-.42,40.49,40.49,0,0,1-6.13.14Z" transform="translate(0 -1.25)"/><path d="M410.73,551.22h6.08a9.11,9.11,0,0,1,9.12,9.11V583.2a9.12,9.12,0,0,1-9.12,9.12h-6.08a9.11,9.11,0,0,1-9.11-9.12V560.33a9.11,9.11,0,0,1,9.11-9.11Z" transform="translate(0 -1.25)" fill="#272729"/><path d="M447.6,607.12a72.1,72.1,0,0,1-9.05-.57,4.87,4.87,0,0,1-3.62-1.47c-2-2.12-1.92-5.74-1.91-5.9V550.4a13.38,13.38,0,0,1,3-10.08,10.77,10.77,0,0,0,2.29-5.28l3.84-28.76a2.14,2.14,0,0,1,2.35-1.85,39.26,39.26,0,0,0,5.84-.14h0a2.14,2.14,0,0,1,2.27,1.84l4,29.38a11.15,11.15,0,0,0,2.23,5.27,12.54,12.54,0,0,1,2.65,10.14V599c0,6.62-4.64,7.57-4.68,7.58A74.39,74.39,0,0,1,447.6,607.12Zm-3.32-101.05a.49.49,0,0,0-.52.42l-3.83,28.77a12.54,12.54,0,0,1-2.65,6.11,11.64,11.64,0,0,0-2.62,8.87v49c0,.06-.08,3.12,1.47,4.73a3.2,3.2,0,0,0,2.47,1h.1a72,72,0,0,0,17.84,0c.08,0,3.29-.75,3.29-5.95V550.69a10.89,10.89,0,0,0-2.3-8.89,12.94,12.94,0,0,1-2.58-6.08l-4-29.37a.5.5,0,0,0-.51-.42,40.47,40.47,0,0,1-6.13.14Z" transform="translate(0 -1.25)"/><path d="M444.35,551.22h6.08a9.11,9.11,0,0,1,9.11,9.11V583.2a9.11,9.11,0,0,1-9.11,9.12h-6.08a9.12,9.12,0,0,1-9.12-9.12V560.33a9.11,9.11,0,0,1,9.12-9.11Z" transform="translate(0 -1.25)" fill="#5a5a5b"/><path d="M482.28,607.12a72.26,72.26,0,0,1-9.06-.57,4.87,4.87,0,0,1-3.61-1.47c-2-2.12-1.92-5.74-1.92-5.9V550.4a13.3,13.3,0,0,1,3-10.08A10.77,10.77,0,0,0,473,535l3.84-28.76a2.14,2.14,0,0,1,2.35-1.85,39.29,39.29,0,0,0,5.84-.14h0a2.14,2.14,0,0,1,2.27,1.84l4,29.38a11.27,11.27,0,0,0,2.24,5.27,12.58,12.58,0,0,1,2.65,10.14V599c0,6.62-4.64,7.57-4.68,7.58A74.39,74.39,0,0,1,482.28,607.12ZM479,506.07a.49.49,0,0,0-.51.42l-3.84,28.77a12.53,12.53,0,0,1-2.64,6.11,11.6,11.6,0,0,0-2.62,8.87v49c0,.06-.09,3.12,1.46,4.73a3.23,3.23,0,0,0,2.48,1h.1a72,72,0,0,0,17.84,0c.08,0,3.29-.75,3.29-5.95V550.69a10.89,10.89,0,0,0-2.3-8.89,12.84,12.84,0,0,1-2.58-6.08l-4-29.37a.5.5,0,0,0-.51-.42,40.49,40.49,0,0,1-6.13.14Z" transform="translate(0 -1.25)"/><path d="M479,551.22h6.08a9.11,9.11,0,0,1,9.12,9.11V583.2a9.12,9.12,0,0,1-9.12,9.12H479a9.11,9.11,0,0,1-9.11-9.12V560.33a9.11,9.11,0,0,1,9.11-9.11Z" transform="translate(0 -1.25)" fill="#272729"/><path d="M517.65,607.12a72.14,72.14,0,0,1-9.06-.57,4.84,4.84,0,0,1-3.61-1.47c-2-2.12-1.93-5.74-1.92-5.9V550.4a13.3,13.3,0,0,1,3-10.08,11,11,0,0,0,2.29-5.28l3.83-28.76a2.15,2.15,0,0,1,2.35-1.85,39.26,39.26,0,0,0,5.84-.14h0a2.15,2.15,0,0,1,2.27,1.84l4,29.38a11.15,11.15,0,0,0,2.23,5.27,12.54,12.54,0,0,1,2.65,10.14V599c0,6.62-4.63,7.57-4.68,7.58A74.35,74.35,0,0,1,517.65,607.12Zm-3.33-101.05a.48.48,0,0,0-.51.42L510,535.26a12.45,12.45,0,0,1-2.65,6.11,11.64,11.64,0,0,0-2.62,8.87v49c0,.06-.09,3.12,1.46,4.73a3.22,3.22,0,0,0,2.47,1h.11a72,72,0,0,0,17.84,0c.07,0,3.28-.75,3.28-5.95l0-48.27a10.93,10.93,0,0,0-2.31-8.89,12.83,12.83,0,0,1-2.57-6.08l-4-29.37a.48.48,0,0,0-.51-.42,40.33,40.33,0,0,1-6.12.14Z" transform="translate(0 -1.25)"/><path d="M514.39,551.22h6.08a9.11,9.11,0,0,1,9.11,9.11V583.2a9.11,9.11,0,0,1-9.11,9.12h-6.08a9.11,9.11,0,0,1-9.11-9.12V560.33a9.11,9.11,0,0,1,9.11-9.11Z" transform="translate(0 -1.25)"/><path d="M552.63,607.12a72.38,72.38,0,0,1-9.06-.57,4.87,4.87,0,0,1-3.61-1.47c-2-2.12-1.92-5.74-1.92-5.9V550.4a13.3,13.3,0,0,1,3-10.08,10.77,10.77,0,0,0,2.29-5.28l3.84-28.76a2.14,2.14,0,0,1,2.35-1.85,39.29,39.29,0,0,0,5.84-.14h0a2.14,2.14,0,0,1,2.27,1.84l4,29.38a11.15,11.15,0,0,0,2.23,5.27,12.54,12.54,0,0,1,2.65,10.14V599c0,6.62-4.64,7.57-4.68,7.58A74.39,74.39,0,0,1,552.63,607.12Zm-3.32-101.05a.49.49,0,0,0-.52.42L545,535.26a12.54,12.54,0,0,1-2.65,6.11,11.64,11.64,0,0,0-2.62,8.87v49c0,.06-.09,3.12,1.47,4.73a3.2,3.2,0,0,0,2.47,1h.1a72,72,0,0,0,17.84,0c.08,0,3.29-.75,3.29-5.95V550.69a10.89,10.89,0,0,0-2.3-8.89,12.94,12.94,0,0,1-2.58-6.08l-4-29.37a.5.5,0,0,0-.51-.42,40.47,40.47,0,0,1-6.13.14Z" transform="translate(0 -1.25)"/><path d="M549.38,551.22h6.08a9.11,9.11,0,0,1,9.11,9.11V583.2a9.11,9.11,0,0,1-9.11,9.12h-6.08a9.12,9.12,0,0,1-9.12-9.12V560.33a9.11,9.11,0,0,1,9.12-9.11Z" transform="translate(0 -1.25)" fill="#272729"/><g style="isolation:isolate"><g clip-path="url(#e6ec5d00-c693-4448-89f2-04f23390d3bb)"><path d="M684.33,558.41v.37a2.08,2.08,0,0,1-.13.71,1.92,1.92,0,0,1-.34.57,1.58,1.58,0,0,1-.51.39,1.39,1.39,0,0,1-.63.15H673.8l3.47,3.5,11.51-.06h0l.48,0a5.22,5.22,0,0,1,.93.22,5.75,5.75,0,0,1,1.2.56,6.06,6.06,0,0,1,1.28,1.07l0-.3c0-.1,0-.2,0-.3s0-.2,0-.3,0-.19-.07-.29l-.63-.24-.63-.25-.63-.26-.63-.25a12.25,12.25,0,0,1-1.62-.82,7.62,7.62,0,0,1-1.28-1,6,6,0,0,1-1-1.15,5.71,5.71,0,0,1-.61-1.3c0-.08,0-.16-.07-.24l-.06-.24c0-.08,0-.15,0-.23a2,2,0,0,1,0-.24l-1-.13" transform="translate(0 -1.25)"/><path d="M671.21,554.06a1.63,1.63,0,0,1-1.1-.45,1.65,1.65,0,0,1-.39-.51,2,2,0,0,1-.23-.64l-.59-3.4a2,2,0,0,1,0-.78,1.92,1.92,0,0,1,.26-.68,1.88,1.88,0,0,1,.48-.53,1.62,1.62,0,0,1,.64-.29l7.61-1.56.09,0h.24a1.62,1.62,0,0,1,.58.12,1.72,1.72,0,0,1,.51.33,1.79,1.79,0,0,1,.38.51,2.1,2.1,0,0,1,.22.64l.58,3.36a2.21,2.21,0,0,1,0,.77,2.06,2.06,0,0,1-.25.68,2,2,0,0,1-.47.52,1.54,1.54,0,0,1-.62.29L671.54,554l-.08,0h-.25m-6.27-13.58v18.29a1.92,1.92,0,0,0,.14.72,1.7,1.7,0,0,0,.35.58,1.6,1.6,0,0,0,1.18.55h1.1l.61-1.86.06-.18c0-.05,0-.11.08-.16a.86.86,0,0,1,.1-.16l.11-.15a2.57,2.57,0,0,1,.28-.29,1.94,1.94,0,0,1,.33-.2,1.48,1.48,0,0,1,.35-.13,2.2,2.2,0,0,1,.36,0,1.12,1.12,0,0,1,.32,0,1.58,1.58,0,0,1,.31.09,2.19,2.19,0,0,1,.3.16,2.76,2.76,0,0,1,.27.23l2.61,2.64h8.92a1.39,1.39,0,0,0,.63-.15,1.58,1.58,0,0,0,.51-.39,1.92,1.92,0,0,0,.34-.57,2.08,2.08,0,0,0,.13-.71V543.24l-19.39-.33v-2.43m18.48-1.28h0m-16.81-.54a1.75,1.75,0,0,0-.65.13,1.55,1.55,0,0,0-.53.39,1.7,1.7,0,0,0-.35.58,1.89,1.89,0,0,0-.14.72,1.89,1.89,0,0,1,.14-.72,1.8,1.8,0,0,1,.35-.58,1.52,1.52,0,0,1,.53-.38,1.58,1.58,0,0,1,.65-.14m16.12.35h.17l.18,0,.17.06.16.08-.16-.08-.17-.06-.17,0h-.18" transform="translate(0 -1.25)" fill="#333"/><path d="M673.43,550.92a.35.35,0,0,1-.14,0,.37.37,0,0,1-.12-.07l-.09-.12a.88.88,0,0,1-.05-.15.54.54,0,0,1,0-.18.49.49,0,0,1,.06-.17.63.63,0,0,1,.11-.12.51.51,0,0,1,.15-.07l3-.62h.07a.35.35,0,0,1,.14,0,.41.41,0,0,1,.11.07l.1.12a.88.88,0,0,1,.05.15.54.54,0,0,1,0,.18.49.49,0,0,1-.06.17.63.63,0,0,1-.11.12.39.39,0,0,1-.15.06l-3,.63h-.08m-1.68-1.28-.14,0a.36.36,0,0,1-.12-.08.4.4,0,0,1-.1-.12.53.53,0,0,1,0-.15.54.54,0,0,1,0-.18.59.59,0,0,1,.07-.16.33.33,0,0,1,.11-.13.34.34,0,0,1,.15-.06l5.81-1.21h.07a.32.32,0,0,1,.14,0,.36.36,0,0,1,.12.08.27.27,0,0,1,.09.12.44.44,0,0,1,.05.15.54.54,0,0,1,0,.18.44.44,0,0,1-.06.16.43.43,0,0,1-.11.12.26.26,0,0,1-.15.07l-5.81,1.21h-.07m6.48-4.45H678l-.09,0-7.61,1.56a1.62,1.62,0,0,0-.64.29,1.88,1.88,0,0,0-.48.53,1.92,1.92,0,0,0-.26.68,2,2,0,0,0,0,.78l.59,3.4a2,2,0,0,0,.23.64,1.65,1.65,0,0,0,.39.51,1.63,1.63,0,0,0,1.1.45h.25l.08,0,7.61-1.61a1.54,1.54,0,0,0,.62-.29,2,2,0,0,0,.47-.52,2.06,2.06,0,0,0,.25-.68,2.21,2.21,0,0,0,0-.77l-.58-3.36a2.1,2.1,0,0,0-.22-.64,1.79,1.79,0,0,0-.38-.51,1.72,1.72,0,0,0-.51-.33,1.62,1.62,0,0,0-.58-.12" transform="translate(0 -1.25)" fill="#c0c2a9"/><path d="M677.55,547.51h-.07l-5.81,1.21a.34.34,0,0,0-.15.06.33.33,0,0,0-.11.13.59.59,0,0,0-.07.16.54.54,0,0,0,0,.18.53.53,0,0,0,0,.15.4.4,0,0,0,.1.12.36.36,0,0,0,.12.08l.14,0h.07l5.81-1.21a.26.26,0,0,0,.15-.07.43.43,0,0,0,.11-.12.44.44,0,0,0,.06-.16.54.54,0,0,0,0-.18.44.44,0,0,0-.05-.15.27.27,0,0,0-.09-.12.36.36,0,0,0-.12-.08.32.32,0,0,0-.14,0" transform="translate(0 -1.25)"/><path d="M676.43,549.38h-.07l-3,.62a.51.51,0,0,0-.15.07.63.63,0,0,0-.11.12.49.49,0,0,0-.06.17.54.54,0,0,0,0,.18.88.88,0,0,0,.05.15l.09.12a.37.37,0,0,0,.12.07.35.35,0,0,0,.14,0h.08l3-.63a.39.39,0,0,0,.15-.06.63.63,0,0,0,.11-.12.49.49,0,0,0,.06-.17.54.54,0,0,0,0-.18.88.88,0,0,0-.05-.15l-.1-.12a.41.41,0,0,0-.11-.07.35.35,0,0,0-.14,0" transform="translate(0 -1.25)"/><path d="M682.72,539l-16.11-.35a1.58,1.58,0,0,0-.65.14,1.52,1.52,0,0,0-.53.38,1.8,1.8,0,0,0-.35.58,1.89,1.89,0,0,0-.14.72v2.43l19.39.33v-2.38a1.77,1.77,0,0,0-.07-.52,1.83,1.83,0,0,0-.18-.46,1.78,1.78,0,0,0-.28-.38,2,2,0,0,0-.36-.29h0l-.16-.08-.17-.06-.18,0h-.18" transform="translate(0 -1.25)" fill="#4c4c4c"/><path d="M700.39,535.36l-.94,2.79L714,542.24l.09,0,.09,0,.09,0,.1,0,.66-.27-14.61-6.43" transform="translate(0 -1.25)" fill="#d3a1a1"/><path d="M696.41,532.32a5.45,5.45,0,0,1,.6.85,6.41,6.41,0,0,1,.45.91,8.35,8.35,0,0,1,.3,1,8.51,8.51,0,0,1,.17,1l.51.06a1.08,1.08,0,0,1,.42.16,1.22,1.22,0,0,1,.33.31,1.43,1.43,0,0,1,.24.94l0,.19-.09.39.13,0,.94-2.79.13-.38,0-.18a1.21,1.21,0,0,0,0-.5,1.38,1.38,0,0,0-.15-.46,1.48,1.48,0,0,0-.29-.36,1.2,1.2,0,0,0-.4-.22l-3.32-.94" transform="translate(0 -1.25)" fill="#2f321e"/><path d="M721.6,552.23l-6.21,2.65.72,3.18c.46,2,.84,4.09,1.13,6.16s.49,4.15.61,6.24.16,4.19.11,6.29-.19,4.19-.41,6.29h0a22.12,22.12,0,0,0,3.79-5.4,24.16,24.16,0,0,0,.48-20.79,3.39,3.39,0,0,1,0-.49c0-.28,0-.66-.06-1.1s0-1-.06-1.47l-.06-1.56" transform="translate(0 -1.25)"/><path d="M735.63,594.13a2.59,2.59,0,0,1-1.14-.23,2.88,2.88,0,0,1-.92-.72,3.25,3.25,0,0,1-.63-1.09,3.94,3.94,0,0,1-.23-1.35,4.16,4.16,0,0,1,.23-1.38,3.78,3.78,0,0,1,.63-1.13,3.24,3.24,0,0,1,.92-.78,2.81,2.81,0,0,1,1.14-.31,2.52,2.52,0,0,1,1.13.24,2.92,2.92,0,0,1,.93.72,3.64,3.64,0,0,1,.62,1.09,4.2,4.2,0,0,1,.22,1.35,4.31,4.31,0,0,1-.22,1.36,3.86,3.86,0,0,1-.62,1.13,3.12,3.12,0,0,1-.93.78,2.59,2.59,0,0,1-1.13.32m5.89-16-10,.2a12.8,12.8,0,0,1-.79,1.73,11.34,11.34,0,0,1-1.07,1.62,10,10,0,0,1-3.15,2.65s0,.21-.13.59-.24.91-.46,1.56a20.34,20.34,0,0,1-.9,2.22,19.63,19.63,0,0,1-1.43,2.55,16.54,16.54,0,0,0,.59,4.22,14.91,14.91,0,0,0,1.55,3.65,13.17,13.17,0,0,0,2.34,2.91,11.2,11.2,0,0,0,3,2l9.15-.44a12.58,12.58,0,0,0,2.92-2.26,14.83,14.83,0,0,0,2.27-3.1,16.25,16.25,0,0,0,1.47-3.76,17.2,17.2,0,0,0,.53-4.23,17,17,0,0,0-.42-3.75,15.83,15.83,0,0,0-1.19-3.35,14,14,0,0,0-1.84-2.82,11.9,11.9,0,0,0-2.4-2.15" transform="translate(0 -1.25)"/><path d="M735.63,587.14a2.81,2.81,0,0,0-1.14.31,3.24,3.24,0,0,0-.92.78,3.78,3.78,0,0,0-.63,1.13,4.16,4.16,0,0,0-.23,1.38,3.94,3.94,0,0,0,.23,1.35,3.25,3.25,0,0,0,.63,1.09,2.88,2.88,0,0,0,.92.72,2.48,2.48,0,0,0,2.27-.09,3.12,3.12,0,0,0,.93-.78,3.86,3.86,0,0,0,.62-1.13,4.31,4.31,0,0,0,.22-1.36,4.2,4.2,0,0,0-.22-1.35,3.64,3.64,0,0,0-.62-1.09,2.92,2.92,0,0,0-.93-.72,2.52,2.52,0,0,0-1.13-.24" transform="translate(0 -1.25)" fill="#f4f4e1"/><path d="M671.35,594.85a3.44,3.44,0,0,1-1.5-.29,3.63,3.63,0,0,1-1.22-.88,4.13,4.13,0,0,1-.83-1.35,4.6,4.6,0,0,1-.31-1.68,4.78,4.78,0,0,1,.31-1.69,4.43,4.43,0,0,1,.83-1.39,3.87,3.87,0,0,1,1.22-1,3.52,3.52,0,0,1,1.5-.39,3.59,3.59,0,0,1,1.5.3,3.76,3.76,0,0,1,1.21.89,4.06,4.06,0,0,1,.82,1.34,4.75,4.75,0,0,1,.3,1.66,4.91,4.91,0,0,1-.3,1.68,4.45,4.45,0,0,1-.82,1.4,4,4,0,0,1-1.21,1,3.53,3.53,0,0,1-1.5.4m9-18.83-18.3.48a17.34,17.34,0,0,0-2.71,2.83,18.43,18.43,0,0,0-2.09,3.45,19.34,19.34,0,0,0-1.34,4,19.7,19.7,0,0,0-.47,4.31,19.19,19.19,0,0,0,.77,5.42,17.63,17.63,0,0,0,2.13,4.68,16.65,16.65,0,0,0,3.26,3.67,14.85,14.85,0,0,0,4.12,2.41l11.28-.55a16.3,16.3,0,0,0,3.32-2.16,17.42,17.42,0,0,0,2.75-2.93,19.07,19.07,0,0,0,3.37-7.6,14.63,14.63,0,0,1-1.8-2.23,12.27,12.27,0,0,1-1.33-2.72,12.43,12.43,0,0,1-.64-3.22,14.51,14.51,0,0,1,.28-3.75l2.17,0c-.29-.6-.6-1.19-.94-1.75a18.27,18.27,0,0,0-1.12-1.6,17.68,17.68,0,0,0-1.28-1.45,15.52,15.52,0,0,0-1.43-1.26" transform="translate(0 -1.25)"/><path d="M671.35,586.22a3.52,3.52,0,0,0-1.5.39,3.87,3.87,0,0,0-1.22,1,4.43,4.43,0,0,0-.83,1.39,4.78,4.78,0,0,0-.31,1.69,4.6,4.6,0,0,0,.31,1.68,4.13,4.13,0,0,0,.83,1.35,3.63,3.63,0,0,0,1.22.88,3.44,3.44,0,0,0,1.5.29,3.53,3.53,0,0,0,1.5-.4,4,4,0,0,0,1.21-1,4.45,4.45,0,0,0,.82-1.4,4.91,4.91,0,0,0,.3-1.68,4.75,4.75,0,0,0-.3-1.66,4.06,4.06,0,0,0-.82-1.34,3.76,3.76,0,0,0-1.21-.89,3.59,3.59,0,0,0-1.5-.3" transform="translate(0 -1.25)" fill="#f4f4e1"/><path d="M723.52,538.64l-.43,0-.43.06-.42.11a3.12,3.12,0,0,0-.43.15L715,541.79l-.66.27-.1,0-.09,0-.09,0-.09,0,3.09.87.09-.07.09-.06.1-.06.09,0,.24-.1.24-.08.24,0h.25a2.21,2.21,0,0,1,.66.13,2,2,0,0,1,.6.33,2.52,2.52,0,0,1,.51.52,3.1,3.1,0,0,1,.37.7,3.57,3.57,0,0,1,.21.9,3.43,3.43,0,0,1-.06.91,3.12,3.12,0,0,1-.3.84,2.76,2.76,0,0,1-.53.69l-.07.06a.18.18,0,0,1-.07,0l-.07.06-.07,0a2.09,2.09,0,0,1-.22.48,2.43,2.43,0,0,1-.33.38,1.47,1.47,0,0,1-.42.24,1.28,1.28,0,0,1-.48.09,1.52,1.52,0,0,1-.6-.15,1.69,1.69,0,0,1-.49-.4,1.83,1.83,0,0,1-.33-.58,2,2,0,0,1-.12-.7h0l0,0v0l0,0v0l-4-.75v.09l0,0v.05l2.64,8.39.21-.09,6.21-2.65c0-.37,0-.73,0-1.05s0-.62,0-.87,0-.46,0-.6v-.22h.19l.22,0h.31a5.67,5.67,0,0,1,.67,0,7.42,7.42,0,0,1,2.84,1,2,2,0,0,0,.25-.14l.24-.15.23-.17.22-.18a6.61,6.61,0,0,1-2.27-1.5,8,8,0,0,1-1.61-2.33,9.2,9.2,0,0,1-.8-2.87,9.57,9.57,0,0,1,.17-3.1c0-.11.05-.21.08-.32l.09-.31c0-.1.06-.21.1-.31l.1-.3.25,0,.24,0,.24,0h.24" transform="translate(0 -1.25)" fill="#272729"/><path d="M723.7,538.64h-.42l-.24,0-.24,0-.25,0-.1.3c0,.1-.07.21-.1.31l-.09.31c0,.11,0,.21-.08.32a9.57,9.57,0,0,0-.17,3.1,9.2,9.2,0,0,0,.8,2.87,8,8,0,0,0,1.61,2.33,6.61,6.61,0,0,0,2.27,1.5l.08,0,.08,0,.08,0,.09,0a6.05,6.05,0,0,0,.83-1,6.31,6.31,0,0,0,.62-1.18A7.06,7.06,0,0,0,729,545v-.33l0-.33,0-.34c0-.11,0-.22-.06-.33a7,7,0,0,0-.69-2,6.27,6.27,0,0,0-1.18-1.58,5.36,5.36,0,0,0-1.53-1.05,4.52,4.52,0,0,0-1.77-.4" transform="translate(0 -1.25)" fill="#f4f4e1"/><path d="M705.35,584.26l-.05.14a1.15,1.15,0,0,1-.14.27,2,2,0,0,1-.19.22,1.2,1.2,0,0,1-.24.15,1.11,1.11,0,0,1-.26.07l-.25,1.6,1.46,0,.37-2.38h-.19l-.51,0" transform="translate(0 -1.25)" fill="#ffb8b8"/><path d="M707.48,586.62l-1.8,0-1.46,0-.13.79,1.82,0a3,3,0,0,1,.61,0,2.77,2.77,0,0,1,.58.17,2.4,2.4,0,0,1,.53.27,3.41,3.41,0,0,1,.48.37l.48-.1.48-.11.47-.12.47-.14a3.65,3.65,0,0,0-.52-.52,3.85,3.85,0,0,0-.6-.39,3.2,3.2,0,0,0-.68-.23,2.52,2.52,0,0,0-.73-.07" transform="translate(0 -1.25)" fill="#d0d1be"/><path d="M698.65,555.19l.36,2,9.81,6.08a5,5,0,0,1,1.31,1.24,5.8,5.8,0,0,1,.8,1.66,6,6,0,0,1,.24,1.89,6.18,6.18,0,0,1-.38,1.92l-5.44,14.28.51,0h.19a.79.79,0,0,0,.26-.08,1.2,1.2,0,0,0,.24-.15,1.29,1.29,0,0,0,.19-.21,1.74,1.74,0,0,0,.14-.27l5.47-14.39a5.9,5.9,0,0,0,.37-1.93,6.22,6.22,0,0,0-.23-1.88,5.61,5.61,0,0,0-.8-1.65,4.69,4.69,0,0,0-1.31-1.24l-11.73-7.3" transform="translate(0 -1.25)" fill="#90917b"/><path d="M699.32,520.6c-.1.13-.21.25-.32.37s-.24.22-.36.32a3.51,3.51,0,0,1-.4.27,3.36,3.36,0,0,1-.43.2,6.11,6.11,0,0,1-1.06.28c-.36.07-.73.12-1.09.2a4.23,4.23,0,0,0-1,.35,2.21,2.21,0,0,0-.8.7,2.55,2.55,0,0,0-.39,1,3.9,3.9,0,0,0,0,1.13,7.07,7.07,0,0,0,.3,1.16,9.92,9.92,0,0,0,.49,1.1,5.11,5.11,0,0,0,2-.6,5.68,5.68,0,0,0,1.62-1.36,6.55,6.55,0,0,0,1.08-1.94,7.32,7.32,0,0,0,.39-2.37v-.2a1.48,1.48,0,0,1,0-.21c0-.06,0-.13,0-.2a1.36,1.36,0,0,0,0-.2" transform="translate(0 -1.25)" fill="#ffb8b8"/><path d="M701.15,584.94v2.65l2.94-.09.13-.79.25-1.6h-.2l-3.12-.18" transform="translate(0 -1.25)" fill="#ffb8b8"/><path d="M705.91,587.45l-1.82,0-2.94.09-.72,0v.27l.19.06.19,0,.19,0,.19.05.2,0,.21,0,.21.05.22,0q.47.09.93.15c.31.05.62.08.93.1s.61,0,.92,0,.6,0,.9,0l.61,0,.6,0,.6-.08.59-.1a3.41,3.41,0,0,0-.48-.37,2.4,2.4,0,0,0-.53-.27,2.77,2.77,0,0,0-.58-.17,3,3,0,0,0-.61,0" transform="translate(0 -1.25)" fill="#d0d1be"/><path d="M686,554.67l0,.07-.16.35a7.15,7.15,0,0,0-.27.82,6.48,6.48,0,0,0-.22,1.19,5.81,5.81,0,0,0,0,1.44,2,2,0,0,0,0,.24c0,.08,0,.15,0,.23l.06.24c0,.08,0,.16.07.24a5.71,5.71,0,0,0,.61,1.3,6,6,0,0,0,1,1.15,7.62,7.62,0,0,0,1.28,1,12.25,12.25,0,0,0,1.62.82l.63.25.63.26.63.25.63.24c1.2.46,2.4.89,3.57,1.3s2.27.77,3.3,1.11l2.79.88,2,.6.16.07.13.1.12.13.09.16a1.89,1.89,0,0,1,.06.18l0,.18a1.28,1.28,0,0,1,0,.19,1.13,1.13,0,0,1,0,.18l-5.16,13.5,0,.08s0,.05,0,.07l0,.08a.17.17,0,0,1,0,.07,1.45,1.45,0,0,0,0,.47,1.34,1.34,0,0,0,.19.4,1.14,1.14,0,0,0,.3.28.89.89,0,0,0,.39.12l.73,0,3.12.18h.2a1.11,1.11,0,0,0,.26-.07,1.2,1.2,0,0,0,.24-.15,2,2,0,0,0,.19-.22,1.15,1.15,0,0,0,.14-.27l.05-.14L710.79,570a6.18,6.18,0,0,0,.38-1.92,6,6,0,0,0-.24-1.89,5.8,5.8,0,0,0-.8-1.66,5,5,0,0,0-1.31-1.24L699,557.19v.06a8.08,8.08,0,0,1-1.26,1.18,7.19,7.19,0,0,1-1.26.78,5.34,5.34,0,0,1-1.25.44,5.8,5.8,0,0,1-1.23.14,7.09,7.09,0,0,1-3.08-.77,12.13,12.13,0,0,1-2.54-1.71,17.57,17.57,0,0,1-1.73-1.71c-.41-.47-.63-.78-.63-.78v0l0,0v0l0,0-.13,0" transform="translate(0 -1.25)" fill="#90917b"/><path d="M689.43,528.86a4,4,0,0,0-.56.63,8.74,8.74,0,0,0-1.12,2,12,12,0,0,0-.77,3.59,18.93,18.93,0,0,0,.47,5.34A22.89,22.89,0,0,1,688,547a23.4,23.4,0,0,1-.42,3.23,22.77,22.77,0,0,1-.89,3.13l-.12.34c0,.11-.09.23-.14.34s-.09.22-.14.33l-.15.34,0,0v0l0,0v0s.22.31.63.78a17.57,17.57,0,0,0,1.73,1.71,12.13,12.13,0,0,0,2.54,1.71,7.09,7.09,0,0,0,3.08.77,5.8,5.8,0,0,0,1.23-.14,5.34,5.34,0,0,0,1.25-.44,7.19,7.19,0,0,0,1.26-.78,8.08,8.08,0,0,0,1.26-1.18v-.06l-.36-2-1.86-10.36h-.06l-.15-.06-5.19-2.52a3.18,3.18,0,0,1-1.12-.63,3.85,3.85,0,0,1-.8-1,4.1,4.1,0,0,1-.4-1.3,4,4,0,0,1,.06-1.41,3.5,3.5,0,0,1,.43-1.09,3,3,0,0,1,1.58-1.36,2.65,2.65,0,0,1,1-.17h.18l.19,0,.19,0,.19,0,5,.68a8.51,8.51,0,0,0-.17-1,8.35,8.35,0,0,0-.3-1,6.41,6.41,0,0,0-.45-.91,5.45,5.45,0,0,0-.6-.85l-.21-.23-.23-.23-.24-.21-.26-.21-6-2.58" transform="translate(0 -1.25)" fill="#2f321e"/><path d="M694.24,510.68a6.63,6.63,0,0,0-.89,0c-.29,0-.58.06-.88.11a9.61,9.61,0,0,0-1.7.52,9.31,9.31,0,0,0-3.8,3.06,8.45,8.45,0,0,0-.87,1.48,2.69,2.69,0,0,0,.38.19l.39.15a2.92,2.92,0,0,0,.4.1,2.6,2.6,0,0,0,.39.05,2.51,2.51,0,0,0,.39,0l.38-.08a1.58,1.58,0,0,0,.35-.16,1.5,1.5,0,0,0,.33-.23l.75.46a2.83,2.83,0,0,1-.13,1.24,3.4,3.4,0,0,1-.59,1.07,3.81,3.81,0,0,1-.91.79,3.42,3.42,0,0,1-1.09.44l-.28,0-.29,0h-.94l-.19,0-.18,0a10.72,10.72,0,0,0,.13,1.39,8.89,8.89,0,0,0,.34,1.35,7.26,7.26,0,0,0,.54,1.25A6.58,6.58,0,0,0,687,525a6.82,6.82,0,0,0,1.51,1.39,7.94,7.94,0,0,0,1.76.91,10.66,10.66,0,0,0,1.92.51,12.89,12.89,0,0,0,1.95.2h.22l0-.06,0-.06,0-.07,0-.06,0-.07a9.92,9.92,0,0,1-.49-1.1,7.07,7.07,0,0,1-.3-1.16,3.9,3.9,0,0,1,0-1.13,2.55,2.55,0,0,1,.39-1,2.21,2.21,0,0,1,.8-.7,4.23,4.23,0,0,1,1-.35c.36-.08.73-.13,1.09-.2a6.11,6.11,0,0,0,1.06-.28,3.36,3.36,0,0,0,.43-.2,3.51,3.51,0,0,0,.4-.27c.12-.1.24-.2.36-.32s.22-.24.32-.37a5.11,5.11,0,0,0,.58-.92,6.36,6.36,0,0,0,.38-1.06,6.28,6.28,0,0,0,.17-1.14,5.73,5.73,0,0,0-.05-1.17,6.86,6.86,0,0,0-.47-1.62,7.06,7.06,0,0,0-.84-1.43,6.6,6.6,0,0,0-1.13-1.17,5.79,5.79,0,0,0-1.33-.83,5.89,5.89,0,0,0-.58-.24l-.6-.17a4.21,4.21,0,0,0-.6-.11c-.2,0-.41-.05-.61-.06" transform="translate(0 -1.25)" fill="#0b0b19"/><path d="M679.84,511.84a6.49,6.49,0,0,0-1.16.06,8,8,0,0,0-1.16.25,11.83,11.83,0,0,0-1.13.42,10.88,10.88,0,0,0-1.08.54c-.53.3-1,.63-1.55,1l-1.52,1c-.5.35-1,.69-1.54,1a14.69,14.69,0,0,1-1.63.83,8.43,8.43,0,0,1-1.53.45,7,7,0,0,1-.8.1,6.85,6.85,0,0,1-1.85-.12,5.06,5.06,0,0,1-1-.32,5,5,0,0,1-.92-.53,4.72,4.72,0,0,1-.8-.75,7.65,7.65,0,0,0-.34,2.76,8.1,8.1,0,0,0,.63,2.63,7.39,7.39,0,0,0,1.46,2.21,6.45,6.45,0,0,0,2.17,1.5l.5.19a4.77,4.77,0,0,0,.51.13,4.71,4.71,0,0,0,.52.09,4.38,4.38,0,0,0,.52,0,6.09,6.09,0,0,0,.85,0,5.79,5.79,0,0,0,.83-.16c.27-.08.54-.18.81-.29a5.63,5.63,0,0,0,.76-.42,9,9,0,0,0,1.68-1.47c.51-.56,1-1.17,1.49-1.75a13,13,0,0,1,1.54-1.6,5.12,5.12,0,0,1,1.83-1,2.49,2.49,0,0,1,.37-.09l.38-.06.39,0h.38a6.87,6.87,0,0,1,.78.08c.27,0,.53.1.79.16l.77.22.77.25.67.22c.22.08.45.15.68.21l.67.19.68.13.18,0,.19,0h.94l.29,0,.28,0a3.42,3.42,0,0,0,1.09-.44,3.81,3.81,0,0,0,.91-.79,3.4,3.4,0,0,0,.59-1.07,2.83,2.83,0,0,0,.13-1.24l-.75-.46a1.5,1.5,0,0,1-.33.23,1.58,1.58,0,0,1-.35.16l-.38.08a2.51,2.51,0,0,1-.39,0,2.6,2.6,0,0,1-.39-.05,2.92,2.92,0,0,1-.4-.1l-.39-.15a2.69,2.69,0,0,1-.38-.19l-.18-.1-.18-.12-.17-.12a1.09,1.09,0,0,1-.17-.13,9.07,9.07,0,0,1-.81-.72l-.77-.77c-.26-.26-.52-.51-.79-.74a6.3,6.3,0,0,0-.86-.63,5.93,5.93,0,0,0-.56-.29,4,4,0,0,0-.58-.2,3.87,3.87,0,0,0-.59-.13,3.79,3.79,0,0,0-.6-.07" transform="translate(0 -1.25)" fill="#0b0b19"/><path d="M699.32,538.11l-1.21,5.63,14.38,2.66,4,.75v0l0,0v0l0,0a2,2,0,0,1,.12-.7A1.78,1.78,0,0,1,717,546a1.62,1.62,0,0,1,.49-.38,1.39,1.39,0,0,1,.6-.14,1.41,1.41,0,0,1,.6.16,1.66,1.66,0,0,1,.49.39,2.19,2.19,0,0,1,.33.58,2.35,2.35,0,0,1,.12.71c0,.05,0,.1,0,.15a.88.88,0,0,1,0,.16.59.59,0,0,1,0,.14.83.83,0,0,0,0,.15l.07,0,.07-.06a.18.18,0,0,0,.07,0l.07-.06a2.76,2.76,0,0,0,.53-.69,3.12,3.12,0,0,0,.3-.84,3.43,3.43,0,0,0,.06-.91,3.57,3.57,0,0,0-.21-.9,3.1,3.1,0,0,0-.37-.7,2.52,2.52,0,0,0-.51-.52,2,2,0,0,0-.6-.33,2.21,2.21,0,0,0-.66-.13h-.25l-.24,0-.24.08-.24.1-.09,0-.1.06-.09.06-.09.07-3.09-.87-14.52-4.09-.13,0" transform="translate(0 -1.25)" fill="#ffb8b8"/><path d="M692.15,535.25a2.65,2.65,0,0,0-1,.17,3,3,0,0,0-1.58,1.36,3.5,3.5,0,0,0-.43,1.09,4,4,0,0,0-.06,1.41,4.1,4.1,0,0,0,.4,1.3,3.85,3.85,0,0,0,.8,1,3.18,3.18,0,0,0,1.12.63l5.19,2.52.15.06h.06l.05,0H697a.85.85,0,0,0,.36-.06,1,1,0,0,0,.32-.19,1.76,1.76,0,0,0,.24-.3,1.28,1.28,0,0,0,.15-.4l0-.17,1.21-5.63.09-.39,0-.19a1.43,1.43,0,0,0-.24-.94,1.22,1.22,0,0,0-.33-.31,1.08,1.08,0,0,0-.42-.16l-.51-.06-5-.68-.19,0-.19,0-.19,0h-.18" transform="translate(0 -1.25)" fill="#2f321e"/><path d="M718.13,545.44a1.39,1.39,0,0,0-.6.14,1.62,1.62,0,0,0-.49.38,1.78,1.78,0,0,0-.33.57,2,2,0,0,0-.12.7h0a2,2,0,0,0,.12.7,1.83,1.83,0,0,0,.33.58,1.69,1.69,0,0,0,.49.4,1.52,1.52,0,0,0,.6.15,1.28,1.28,0,0,0,.48-.09,1.47,1.47,0,0,0,.42-.24,2.43,2.43,0,0,0,.33-.38,2.09,2.09,0,0,0,.22-.48.83.83,0,0,1,0-.15.59.59,0,0,0,0-.14.88.88,0,0,0,0-.16s0-.1,0-.15a2.35,2.35,0,0,0-.12-.71,2.19,2.19,0,0,0-.33-.58,1.66,1.66,0,0,0-.49-.39,1.41,1.41,0,0,0-.6-.16" transform="translate(0 -1.25)" fill="#939c00"/><path d="M749.77,603.11l-9.59.47L731,604,677,606.67l-11.28.55-19.77,1a.94.94,0,0,0-.44.13,1.1,1.1,0,0,0-.35.3,1.55,1.55,0,0,0-.24.44,1.78,1.78,0,0,0-.08.53,1.72,1.72,0,0,0,.08.52,1.52,1.52,0,0,0,.24.41,1.14,1.14,0,0,0,.35.27.91.91,0,0,0,.44.08l103.86-5.35a.8.8,0,0,0,.35-.11,1,1,0,0,0,.28-.27,1.29,1.29,0,0,0,.19-.39,1.49,1.49,0,0,0,.07-.47,1.73,1.73,0,0,0-.06-.47,1.29,1.29,0,0,0-.19-.37.8.8,0,0,0-.28-.24.73.73,0,0,0-.36-.08" transform="translate(0 -1.25)"/><path d="M736.27,569.28a7.46,7.46,0,0,0-.95.06,7,7,0,0,0-.91.18,9,9,0,0,0-.88.28,8,8,0,0,0-.84.38h0s0,.27,0,.72,0,1.1-.05,1.87a22.18,22.18,0,0,1-.33,2.63,17.55,17.55,0,0,1-.82,3l10-.2,3.15-.07a9.86,9.86,0,0,0-.74-3.47,9.18,9.18,0,0,0-1.81-2.8,8.25,8.25,0,0,0-2.63-1.88,7.58,7.58,0,0,0-3.22-.66" transform="translate(0 -1.25)" fill="#272729"/><path d="M722.24,549.45h-.31l-.22,0h-.19v.22c0,.14,0,.35,0,.6s0,.54,0,.87,0,.68,0,1.05l.06,1.56c0,.52,0,1,.06,1.47s0,.82.06,1.1a3.39,3.39,0,0,0,0,.49,24.29,24.29,0,0,1-.48,20.79,22.12,22.12,0,0,1-3.79,5.4,18.8,18.8,0,0,1-1.67,1.55,18,18,0,0,1-1.82,1.33,16.8,16.8,0,0,1-4,1.91l-.47.14-.47.12-.48.11-.48.1-.59.1-.6.08-.6,0-.61,0q-.45,0-.9,0c-.31,0-.61,0-.92,0s-.62,0-.93-.1-.62-.09-.93-.15l-.22,0-.21-.05-.21,0-.2,0L701,588l-.19,0-.19,0-.19-.06a7.34,7.34,0,0,1-2.47-1.42,8.43,8.43,0,0,1-1.84-2.29,9.65,9.65,0,0,1-1-2.9A10.42,10.42,0,0,1,695,578a30.37,30.37,0,0,0,.19-4.51,17.65,17.65,0,0,0-.43-3.4,10.73,10.73,0,0,0-.87-2.47,7.55,7.55,0,0,0-1.15-1.69,6.06,6.06,0,0,0-1.28-1.07,5.75,5.75,0,0,0-1.2-.56,5.22,5.22,0,0,0-.93-.22l-.48,0h0l-11.51.06-3.47-3.5L671.19,558a2.76,2.76,0,0,0-.27-.23,2.19,2.19,0,0,0-.3-.16,1.58,1.58,0,0,0-.31-.09,1.12,1.12,0,0,0-.32,0,2.2,2.2,0,0,0-.36,0,1.48,1.48,0,0,0-.35.13,1.94,1.94,0,0,0-.33.2,2.57,2.57,0,0,0-.28.29l-.11.15a.86.86,0,0,0-.1.16c0,.05-.05.11-.08.16l-.06.18-.61,1.86-.19.55a10.2,10.2,0,0,0-1.11.22,14.94,14.94,0,0,0-2.66.94,13,13,0,0,0-3.22,2.1,11.15,11.15,0,0,0-2.73,3.67L658,568l.24-.06.25,0h.25a2.65,2.65,0,0,1,1.35.36,3.58,3.58,0,0,1,1.11,1,5.07,5.07,0,0,1,.74,1.47,6.18,6.18,0,0,1,.27,1.81,6,6,0,0,1-.12,1.21,5.41,5.41,0,0,1-.33,1.1,4.49,4.49,0,0,1-.53.94,4.07,4.07,0,0,1-.67.75l1.42,0,18.3-.48,6.78-.18h0a2.4,2.4,0,0,1,1.09.23,2.87,2.87,0,0,1,.91.65,3.09,3.09,0,0,1,.62,1,3.17,3.17,0,0,1,.24,1.2,3.53,3.53,0,0,1-.22,1.23,3.06,3.06,0,0,1-.58,1,2.92,2.92,0,0,1-.87.7,2.6,2.6,0,0,1-1.07.27h-.11l-2,0-2.17,0a14.51,14.51,0,0,0-.28,3.75,12.43,12.43,0,0,0,.64,3.22,12.27,12.27,0,0,0,1.33,2.72,14.63,14.63,0,0,0,1.8,2.23l.46.45.47.42.48.4.48.38a18.68,18.68,0,0,0,2.53,1.58,17.44,17.44,0,0,0,2.7,1.11,15.73,15.73,0,0,0,2.8.62,16.19,16.19,0,0,0,2.87.13h.12l11-.46a18.9,18.9,0,0,0,4.71-.79,15.46,15.46,0,0,0,6.53-4,17.89,17.89,0,0,0,2.08-2.57,19.63,19.63,0,0,0,1.43-2.55,20.34,20.34,0,0,0,.9-2.22c.22-.65.37-1.18.46-1.56s.13-.59.13-.59a10,10,0,0,0,3.15-2.65,11.34,11.34,0,0,0,1.07-1.62,12.8,12.8,0,0,0,.79-1.73,17.55,17.55,0,0,0,.82-3,22.18,22.18,0,0,0,.33-2.63c.05-.77.06-1.42.05-1.87s0-.72,0-.72h0a50.73,50.73,0,0,0-.71-8.35,26.06,26.06,0,0,0-1.64-5.76,13.88,13.88,0,0,0-2.21-3.63,9.17,9.17,0,0,0-2.38-2,7.56,7.56,0,0,0-1-.5,7.37,7.37,0,0,0-1.8-.45,5.67,5.67,0,0,0-.67,0" transform="translate(0 -1.25)" fill="#272729"/><path d="M658.77,567.91h-.25l-.25,0L658,568l-.23.08a3.55,3.55,0,0,0-1,.65,4.88,4.88,0,0,0-.8,1,5.5,5.5,0,0,0-.52,1.32,5.89,5.89,0,0,0-.19,1.53,6.25,6.25,0,0,0,.27,1.82,5.15,5.15,0,0,0,.75,1.48,3.54,3.54,0,0,0,1.11,1,2.76,2.76,0,0,0,1.85.29,2.54,2.54,0,0,0,.47-.14,2.64,2.64,0,0,0,.44-.23,2.86,2.86,0,0,0,.42-.29,4.07,4.07,0,0,0,.67-.75,4.49,4.49,0,0,0,.53-.94,5.41,5.41,0,0,0,.33-1.1,6,6,0,0,0,.12-1.21,6.18,6.18,0,0,0-.27-1.81,5.07,5.07,0,0,0-.74-1.47,3.58,3.58,0,0,0-1.11-1,2.65,2.65,0,0,0-1.35-.36" transform="translate(0 -1.25)" fill="#f4f4e1"/></g></g><rect x="692.61" y="24.68" width="336.85" height="209.76" fill="#353535"/><rect x="715.2" y="65.09" width="61.69" height="40.1"/><rect x="791.86" y="65.09" width="61.69" height="40.1"/><rect x="868.52" y="65.09" width="61.69" height="40.1"/><rect x="945.18" y="65.09" width="61.69" height="40.1"/><rect x="715.2" y="121.85" width="61.69" height="40.1"/><rect x="791.86" y="121.85" width="61.69" height="40.1"/><rect x="868.52" y="121.85" width="61.69" height="40.1"/><rect x="945.18" y="121.85" width="61.69" height="40.1"/><rect x="715.2" y="178.61" width="61.69" height="40.1"/><rect x="791.86" y="178.61" width="61.69" height="40.1"/><rect x="868.52" y="178.61" width="61.69" height="40.1"/><rect x="945.18" y="178.61" width="61.69" height="40.1"/><circle cx="780.83" cy="40.1" r="9.25"/><circle cx="933.84" cy="40.1" r="9.25"/><rect x="777.13" width="7.4" height="42.57" fill="#3d3d3d"/><rect x="930.13" width="7.4" height="42.57" fill="#3d3d3d"/><path d="M836.66,143.14a13.92,13.92,0,1,1-2.16-7.45A13.91,13.91,0,0,1,836.66,143.14Z" transform="translate(0 -1.25)" fill="#b4c738"/><path d="M834.5,135.69l-13.73,13.73c-.86-1.33-5.67-7.55-5.67-7.55a18.06,18.06,0,0,1,2-1.73l4,5.31,11.84-11.84A14.09,14.09,0,0,1,834.5,135.69Z" transform="translate(0 -1.25)"/><path d="M836.66,199a13.93,13.93,0,1,1-2.16-7.45A13.92,13.92,0,0,1,836.66,199Z" transform="translate(0 -1.25)" fill="#b4c738"/><path d="M834.5,191.59l-13.73,13.73c-.86-1.34-5.67-7.55-5.67-7.55a19.29,19.29,0,0,1,2-1.74l4,5.32,11.84-11.84A14.09,14.09,0,0,1,834.5,191.59Z" transform="translate(0 -1.25)"/><path d="M834.5,86.4a13.89,13.89,0,1,1-2.15-7.46A13.92,13.92,0,0,1,834.5,86.4Z" transform="translate(0 -1.25)" fill="#b4c738"/><path d="M832.35,78.94,818.61,92.68c-.86-1.34-5.67-7.55-5.67-7.55a20.41,20.41,0,0,1,2-1.74l4,5.32,11.84-11.84A14,14,0,0,1,832.35,78.94Z" transform="translate(0 -1.25)"/><rect x="459.89" y="927.46" width="56.23" height="12.98" fill="#272729" opacity="0.5"/></svg>