<svg id="ed3cd9c1-d730-4f70-b1ba-85cb701e19ed" data-name="f353aee8-b170-46b5-a4fa-97981cc05aef" xmlns="http://www.w3.org/2000/svg" xmlns:xlink="http://www.w3.org/1999/xlink" viewBox="0 0 1029.46 1027.37"><defs><clipPath id="b2aad3aa-5f69-4794-937c-0564e366379e"><polygon points="194.1 608.84 194.1 508.45 293.48 502.87 293.48 614.42 194.1 608.84" fill="none"/></clipPath><clipPath id="a98a4056-fbd5-424e-9bf2-85b38129fd34"><polyline points="194.1 608.84 194.1 508.45 293.48 509.24 293.48 608.05 194.1 608.84" fill="none"/></clipPath><clipPath id="b2d616ed-447f-42e7-97ee-56d5fdc914bd"><polygon points="199.22 608.15 199.22 509.15 238.25 507.05 238.25 610.24 199.22 608.15" fill="none"/></clipPath><clipPath id="b516c2ef-1824-479e-9aca-3b15cb72b04a"><polyline points="199.22 608.15 199.22 509.15 238.25 509.46 238.25 607.83 199.22 608.15" fill="none"/></clipPath><clipPath id="f3f240a5-bef0-4212-afe9-026a9e976dba"><polygon points="194.65 532.67 194.65 529.92 292.96 529.77 292.96 532.82 194.65 532.67" fill="none"/></clipPath><clipPath id="b6311e13-7da3-4269-a9c6-10c818c70140"><polyline points="194.65 532.67 194.65 529.92 292.96 529.95 292.96 532.64 194.65 532.67" fill="none"/></clipPath><clipPath id="b0be390c-b3e2-4267-8780-d3c073cbb3cd"><polygon points="273.25 608.34 273.25 509.32 275.3 509.21 275.3 608.44 273.25 608.34" fill="none"/></clipPath><clipPath id="f90adea8-3316-4cb5-9bdf-90e544b6ad1d"><polyline points="273.25 608.34 273.25 509.32 275.3 509.34 275.3 608.32 273.25 608.34" fill="none"/></clipPath><clipPath id="aad9d772-8b4a-42ad-8922-58bf7af469bb"><polygon points="210.31 583.04 210.31 580.31 273.18 580.22 273.18 583.14 210.31 583.04" fill="none"/></clipPath><clipPath id="b4ad8fd9-e631-4987-8828-b6cd4bb1da86"><polyline points="210.31 583.04 210.31 580.31 273.18 580.33 273.18 583.03 210.31 583.04" fill="none"/></clipPath><clipPath id="faca48cf-cb06-4fb6-9ea2-a8e306d24363"><polygon points="235.8 578.68 235.8 534.54 256.28 534.06 256.28 579.17 235.8 578.68" fill="none"/></clipPath><clipPath id="a6184c7a-c541-4cf4-829a-3b119c357263"><polyline points="235.8 578.68 235.8 534.54 256.28 534.61 256.28 578.61 235.8 578.68" fill="none"/></clipPath><clipPath id="e9731787-5431-4cfc-9a2b-78dad98cf61b"><polygon points="241.5 554.34 241.5 542.12 250.66 542.06 250.66 554.4 241.5 554.34" fill="none"/></clipPath><clipPath id="e450583e-dff5-4366-907a-ccc7b23822ab"><polyline points="241.5 554.34 241.5 542.12 250.66 542.13 250.66 554.33 241.5 554.34" fill="none"/></clipPath><clipPath id="ae3e662a-87c8-4bc5-b21b-3db527d7794a"><polygon points="244.2 584.52 244.2 579.48 247.97 579.47 247.97 584.53 244.2 584.52" fill="none"/></clipPath><clipPath id="e8286951-2e92-47bc-b4d4-8efbf8345544"><polyline points="244.2 584.52 244.2 579.48 247.97 579.49 247.97 584.51 244.2 584.52" fill="none"/></clipPath><clipPath id="f74ceff3-a1d4-40d9-bdc6-0824a0cd5ddb"><polygon points="644.8 609.66 644.8 506.88 750.66 512.33 750.66 604.21 644.8 609.66" fill="none"/></clipPath></defs><path d="M296.59,697.83q-4.5,0-9-.14l.07-2.16c4.27.13,8.62.17,12.91.11v2.16C299.27,697.82,297.93,697.83,296.59,697.83Zm17-.5-.12-2.16c4.27-.25,8.6-.61,12.87-1l.22,2.15c-4.28.43-8.65.76-13,1Zm-39-.34c-4.31-.33-8.67-.76-13-1.29l.26-2.14c4.25.52,8.57,1,12.85,1.28Zm64.88-2.37-.33-2.14c4.25-.65,8.53-1.39,12.72-2.23l.42,2.12c-4.21.84-8.52,1.6-12.8,2.25Zm-90.7-.8c-4.26-.72-8.56-1.55-12.78-2.46l.46-2.12c4.18.91,8.45,1.74,12.68,2.45ZM365,689.54l-.51-2.09c4.16-1,8.36-2.18,12.46-3.39l.61,2.07C373.42,687.36,369.2,688.51,365,689.54ZM223.36,688.3c-4.18-1.11-8.38-2.33-12.49-3.63l.65-2.06c4.08,1.29,8.25,2.5,12.4,3.61ZM390,682.14l-.71-2c4-1.4,8.11-2.92,12.09-4.52l.81,2c-4,1.6-8.12,3.14-12.19,4.55Zm-191.44-1.69c-4.06-1.49-8.14-3.1-12.13-4.78l.84-2c4,1.67,8,3.26,12,4.74Zm215.56-8-.9-2c3.89-1.76,7.79-3.65,11.61-5.6l1,1.93c-3.84,2-7.78,3.86-11.69,5.64Zm23.12-11.82-1.07-1.88c3.73-2.12,7.45-4.36,11.05-6.64l1.16,1.82c-3.64,2.3-7.38,4.56-11.14,6.7Zm22-13.9L458,645c3.51-2.45,7-5,10.41-7.63l1.32,1.72c-3.46,2.7-7,5.26-10.53,7.7Zm-329.4-3c-3.49-2.53-7-5.19-10.36-7.89l1.35-1.69c3.36,2.68,6.82,5.32,10.28,7.83Zm350-12.8-1.4-1.65c3.27-2.76,6.53-5.64,9.68-8.55l1.47,1.59c-3.2,2.93-6.48,5.83-9.77,8.61Zm-370.36-3.44c-3.25-2.85-6.48-5.81-9.59-8.8l1.49-1.56c3.1,3,6.3,5.91,9.52,8.73Zm389.45-14.22-1.55-1.52c3-3.06,6-6.22,8.86-9.4l1.6,1.45c-2.88,3.2-5.89,6.39-8.93,9.47Zm-408.22-3.8c-3-3.13-5.93-6.37-8.75-9.63l1.63-1.41c2.8,3.23,5.72,6.44,8.68,9.55ZM516.3,593.93l-1.67-1.37c2.73-3.31,5.41-6.73,8-10.17l1.73,1.3c-2.59,3.46-5.29,6.9-8,10.24Zm-442.69-4.1c-2.68-3.38-5.32-6.88-7.84-10.38l1.76-1.26c2.5,3.48,5.11,6.94,7.77,10.3ZM531.9,573.08l-1.79-1.21c2.41-3.55,4.77-7.2,7-10.86l1.85,1.13c-2.27,3.69-4.65,7.37-7.07,10.94ZM58.4,568.75c-2.35-3.61-4.66-7.33-6.85-11l1.86-1.09c2.18,3.69,4.47,7.37,6.8,11Zm487.11-17.84-1.89-1c2.07-3.75,4.09-7.61,6-11.46l1.94,1c-1.93,3.77-4,7.65-6,11.44Zm11.54-23.37-2-.87c1.72-3.93,3.38-8,4.92-12l2,.78c-1.52,4-3.19,8.11-4.92,12.07ZM34.14,522.86c-1.66-4-3.25-8.05-4.72-12.09l2-.74c1.46,4,3,8.05,4.68,12ZM566.4,503.17l-2.06-.67c1.35-4.07,2.63-8.22,3.79-12.35l2.08.58C569,494.89,567.75,499.08,566.4,503.17ZM25.26,498.44c-1.29-4.12-2.5-8.33-3.59-12.51l2.09-.55c1.09,4.15,2.29,8.33,3.56,12.41Zm548.18-20.31-2.11-.49c1-4.17,1.86-8.42,2.63-12.64l2.13.39C575.31,469.64,574.41,473.93,573.44,478.13ZM18.66,473.27c-.9-4.22-1.72-8.52-2.43-12.78l2.13-.36c.71,4.23,1.52,8.5,2.41,12.69Zm559.49-20.73-2.15-.29c.58-4.23,1.07-8.55,1.46-12.83l2.15.19c-.39,4.32-.89,8.67-1.47,12.93ZM14.4,447.61c-.51-4.28-.93-8.64-1.25-12.95l2.16-.16c.31,4.28.73,8.61,1.23,12.85Zm566.1-21-2.16-.09c.19-4.29.29-8.63.29-12.91h2.16c0,4.33-.1,8.71-.29,13Zm-568-5c-.08-2.65-.11-5.35-.11-8v-5h2.16v4.94c0,2.66,0,5.34.11,8Zm2.6-25.86-2.1-.1c.27-4.32.64-8.68,1.1-13l2.15.24c-.46,4.25-.83,8.58-1.1,12.86Zm562.14-13.18c-.44-4.26-1-6.34-1.66-10.58l2.14-.32c.63,4.28,1.17,7.54,1.61,11.83ZM17.88,370.11l-2.13-.36c.66-4.27,1.43-8.58,2.28-12.81l2.12.43C19.3,361.6,18.54,365.87,17.88,370.11ZM573.4,359.29c-.82-4.21-1.75-8.46-2.76-12.61l2.1-.51c1,4.18,2,8.46,2.78,12.71ZM23,344.81l-2.09-.53c1.05-4.18,2.21-8.4,3.45-12.54l2.07.62C25.2,336.47,24,340.66,23,344.81Zm544.29-10.6c-1.2-4.12-2.52-8.26-3.91-12.31l2-.7c1.41,4.08,2.73,8.25,4,12.4ZM30.44,320.05l-2-.72c1.44-4.08,3-8.19,4.61-12.2l2,.81c-1.61,4-3.15,8.06-4.58,12.11Zm528.46-10.3c-1.58-4-3.26-8-5-11.87l2-.88c1.77,3.92,3.47,7.94,5.06,11.95ZM40.14,296.06l-2-.9c1.8-3.93,3.73-7.87,5.71-11.72l1.92,1C43.84,288.25,41.93,292.16,40.14,296.06Zm508.18-9.76c-1.93-3.82-4-7.64-6.09-11.36l1.88-1.07c2.13,3.75,4.19,7.61,6.14,11.45ZM52,273.08,50.12,272c2.16-3.74,4.43-7.49,6.76-11.13L58.7,262C56.39,265.65,54.13,269.37,52,273.08Zm483.62-9.22c-2.29-3.64-4.68-7.26-7.11-10.77l1.77-1.23c2.46,3.54,4.87,7.19,7.17,10.85ZM65.92,251.3l-1.77-1.25c2.49-3.53,5.1-7.05,7.74-10.46l1.71,1.32C71,244.3,68.39,247.75,65.92,251.3Zm455-8.64c-2.61-3.41-5.32-6.8-8.07-10.08l1.66-1.38c2.77,3.3,5.5,6.71,8.12,10.15ZM81.75,230.88l-1.64-1.4c2.79-3.28,5.71-6.55,8.66-9.71l1.58,1.47C87.42,224.38,84.53,227.63,81.75,230.88Zm422.6-8c-2.91-3.16-5.92-6.29-9-9.31l1.52-1.53c3.06,3,6.09,6.19,9,9.38ZM99.35,212l-1.51-1.54c3.09-3,6.29-6,9.5-8.88l1.44,1.61c-3.17,2.85-6.34,5.81-9.41,8.81ZM486,204.68c-3.18-2.89-6.46-5.73-9.76-8.46l1.38-1.67c3.32,2.75,6.63,5.62,9.84,8.53Zm-367.41-9.87-1.36-1.68c3.34-2.72,6.8-5.4,10.27-8l1.29,1.74c-3.42,2.57-6.85,5.24-10.17,7.94Zm20.73-15.36-1.2-1.8c3.57-2.4,7.26-4.76,10.94-7l1.13,1.84c-3.63,2.26-7.29,4.57-10.84,7Zm22-13.4-1-1.9c3.78-2.07,7.66-4.08,11.53-6l1,1.94c-3.85,1.91-7.71,3.9-11.47,6Zm260.83-5c-3.84-1.92-7.78-3.77-11.71-5.5l.88-2c3.95,1.75,7.92,3.61,11.8,5.54Zm-237.62-6.3-.86-2c4-1.71,8-3.36,12-4.89l.77,2C192.47,151.39,188.46,153,184.53,154.75Zm214-4.14c-4-1.55-8.1-3-12.17-4.4l.69-2.05c4.1,1.38,8.23,2.87,12.26,4.43Zm-189.91-5-.67-2.06c4.1-1.34,8.29-2.61,12.45-3.76l.58,2.08c-4.11,1.1-8.26,2.36-12.34,3.7ZM374,142.35c-4.12-1.17-8.32-2.26-12.49-3.25L362,137c4.21,1,8.44,2.09,12.6,3.28Zm-140.52-3.69-.48-2.1c4.21-1,8.5-1.84,12.75-2.61l.38,2.13c-4.13.76-8.43,1.67-12.61,2.58Zm115.4-2.23c-4.21-.79-8.5-1.49-12.75-2.09l.3-2.14c4.28.6,8.6,1.31,12.84,2.11Zm-90-2.35-.29-2.14c4.28-.57,8.63-1.05,12.93-1.43l.19,2.15c-4.22.38-8.54.85-12.78,1.42Zm64.42-1.24c-4.26-.4-8.59-.71-12.88-.92l.1-2.16c4.33.21,8.69.52,13,.93Zm-38.7-1-.09-2.15q6-.25,12-.26h1v2.16h-1c-4,0-8,.08-11.94.24Z" fill="#3f3d56"/><path d="M644.31,292.91V993.37a31.49,31.49,0,0,1-31.48,31.45H328.47A31.42,31.42,0,0,1,297,993.46V292.91a31.49,31.49,0,0,1,31.47-31.48H371v5.46a25.92,25.92,0,0,0,25.91,25.92H541.56a25.72,25.72,0,0,0,15.37-5.06,24.9,24.9,0,0,0,2.55-2.14,25.83,25.83,0,0,0,8-18.73v-5.46h45.35a31.48,31.48,0,0,1,31.48,31.46Z" fill="#3f3d56"/><rect x="338.56" y="452.26" width="264.17" height="200.99" fill="#6c63ff"/><path d="M199.45,418.39c23.52.5,42.23,17.55,42.23,17.55s-19.42,16.23-42.94,15.72-42.23-17.55-42.23-17.55S175.93,417.88,199.45,418.39Z" fill="#6c63ff"/><path d="M81.2,338.1c21.25,10.1,45.62,3.25,45.62,3.25S116.73,318.14,95.48,308s-45.61-3.29-45.61-3.29S60,328,81.2,338.1Z" fill="#6c63ff"/><path d="M83.36,328.07c23.43-2.14,43.94,12.68,43.94,12.68s-17.48,18.31-40.91,20.45-43.93-12.69-43.93-12.69S59.93,330.21,83.36,328.07Z" fill="#3f3d56"/><path d="M169.24,332.13c-2.24,23.41,12.5,44,12.5,44s18.38-17.4,20.63-40.82-12.5-44-12.5-44S171.49,308.75,169.24,332.13Z" fill="#3f3d56"/><path d="M279.58,475.75c-12.29,20.06-8.06,45-8.06,45s24.15-7.58,36.44-27.64,8.06-45,8.06-45S291.87,455.69,279.58,475.75Z" fill="#3f3d56"/><path d="M243.93,693.87l1.79-1.21a56.09,56.09,0,0,1-9.9-31.11c.05-16.27,8-31.32,15.77-45.88,1.43-2.7,2.86-5.39,4.24-8.08a176.75,176.75,0,0,0,13.73-34.47c12-44.55.18-97.12-31.58-140.61-25.19-34.5-62.75-64.67-114.82-92.24l-1,1.91c51.77,27.41,89.09,57.37,114.09,91.6,31.38,43,43.05,94.85,31.23,138.78a174.77,174.77,0,0,1-13.56,34c-1.38,2.68-2.8,5.37-4.23,8.06-7.85,14.78-16,30.07-16,46.88A58.22,58.22,0,0,0,243.93,693.87Z" fill="#3f3d56"/><circle cx="20.53" cy="322.59" r="20.53" fill="#3f3d56"/><polygon points="309.56 655.86 180.67 645.12 180.67 456.09 309.56 449.65 309.56 655.86" fill="#6c63ff"/><polygon points="631.74 655.86 760.62 645.12 760.62 456.09 631.74 449.65 631.74 655.86" fill="#6c63ff"/><circle cx="470.65" cy="713.77" r="31.34" fill="#6c63ff"/><polygon points="490.38 710.67 473.74 710.67 473.74 694.04 467.55 694.04 467.55 710.67 450.92 710.67 450.92 716.86 467.55 716.86 467.55 733.5 473.74 733.5 473.74 716.86 490.38 716.86 490.38 710.67" fill="#fff"/><polygon points="569.49 714.85 553.28 707.28 553.28 711.61 515.46 711.61 515.46 718.09 553.28 718.09 553.28 722.41 569.49 714.85" fill="#fff"/><polygon points="371.81 714.85 388.02 707.28 388.02 711.61 425.84 711.61 425.84 718.09 388.02 718.09 388.02 722.41 371.81 714.85" fill="#fff"/><rect x="214.6" y="1025.08" width="792.09" height="2.16" fill="#3f3d56"/><rect x="297.4" y="409.43" width="168.18" height="1.75" fill="#fff"/><rect x="367.41" y="953.76" width="207.48" height="2.16" fill="#fff"/><path d="M861.21,714.68l-4.38,16.64s-15.77,35,0,36.79,16.64-45.55,16.64-45.55Z" fill="#a0616a"/><path d="M888.36,594.68,856.83,719.06s12.26,3.5,18.39,7.88Z" fill="#d0cde1"/><path d="M987.34,689.28,996.1,825s21,53.43,20.14,104.24c0,0-7.88,20.14-1.75,23.65s9.64,6.13,6.13,8.76-6.13,8.76-3.5,10.51,3.5,4.38,2.63,4.38H993.47s5.26-13.14-2.63-16.65-3.5-12.26-3.5-12.26L928.65,776,882.23,933.66s7.88,5.25,1.75,7.88-8.76-2.63-6.13,2.63-.88,7.88-.88,8.76-26.27-2.63-26.27-2.63,13.13-11.39,7-14-8.76-5.25-7-7,8.76-18.4,8.76-18.4,3.5-63.06,4.37-65.69,0-14.89,0-21-.87-30.66,1.76-36.79,5.25-81.46,19.27-90.22S987.34,689.28,987.34,689.28Z" fill="#2f2e41"/><path d="M876.1,948.55s17.52,35.91,5.25,40.29-28,.88-31.53,6.13-42,11.39-42.92-1.75,42-37.67,42-37.67l5.6-9Z" fill="#2f2e41"/><path d="M1018,974.82s17.51,35.92,5.25,40.3-28,.87-31.53,6.13-42.05,11.39-42.92-1.75,42-37.67,42-37.67l5.59-9Z" fill="#2f2e41"/><circle cx="936.97" cy="495.27" r="28.91" fill="#a0616a"/><polygon points="956.68 510.6 953.18 536 926.9 556.14 919.89 546.51 919.89 513.22 956.68 510.6" fill="#a0616a"/><path d="M915.51,543s27.16,2.63,41.17-7l28,165.55s-99,7.88-103.36,2.63V652.49l17.52-84.09Z" fill="#3f3d56"/><path d="M954.27,528.08l9.42,7.91s38.54,6.13,35.91,16.64L989.09,677l3.5,42s-29.78-7.89-52.55,0-4.68-169.41-4.68-169.41S956.24,530.67,954.27,528.08Z" fill="#d0cde1"/><path d="M919.89,537.66s-28,20.23-31.53,33.37-14.89,151.53-14.89,151.53,5.26-2.63,7.88,1.75S924.27,544.59,919.89,537.66Z" fill="#d0cde1"/><path d="M997,720.81l-6.28,20.49s-1.6,38.2-22.62,32.94,6.13-49.93,6.13-49.93l6.13-9.63Z" fill="#a0616a"/><path d="M908.08,494s-3.13-4.69-1.92-9.75a29.51,29.51,0,0,0,.84-8.78s2.53-8.19,5-12.76,1.33-6.5,9.27-7.94,4.69-11.8,25.64-.6a6.14,6.14,0,0,0,6.37,2.4c4.34-.84,5.9,5.18,5.9,5.18s2.89-1.69,4,.72S972,461,972,477.27,963.2,508,963.2,508s.65-27.33-13.68-30.09-29.72-10.84-33.45-.49A78.93,78.93,0,0,1,908.08,494Z" fill="#2f2e41"/><ellipse cx="963.53" cy="496.74" rx="2.82" ry="3.77" fill="#a0616a"/><path d="M992.59,546.5s14-3.5,18.4,20.15,9.63,91.09,9.63,91.09l-21,71s-21-11.38-25.4-9.63l16.54-61.6-13.91-62.78S989.09,546.5,992.59,546.5Z" fill="#d0cde1"/><polygon points="972.22 595.88 990.61 657.2 972.22 719.38 982.73 657.2 972.22 595.88" opacity="0.15" style="isolation:isolate"/><path d="M507.88,951.52H468.24a8.35,8.35,0,0,1-8.35-8.35V882a8.37,8.37,0,0,1,8.35-8.36h39.64a8.38,8.38,0,0,1,8.36,8.36v61.13A8.37,8.37,0,0,1,507.88,951.52Z" fill="#fff"/><path d="M503.58,945.45h-31a8.26,8.26,0,0,1-8.24-8.23V888a8.25,8.25,0,0,1,8.24-8.24h31a8.25,8.25,0,0,1,8.24,8.24v49.23A8.24,8.24,0,0,1,503.58,945.45Z" fill="#6c63ff"/><path d="M381,896.59l-9.46-12.17a7.58,7.58,0,0,1,1.31-10.64l0,0h0L411.21,844a14.5,14.5,0,0,1,7.79-3l3.23-.25,27.83-16.3a2.39,2.39,0,0,1,4.05-2.46l7.89,10.2a2.39,2.39,0,0,1-3.4,3.31l-22.76,22.77a14.45,14.45,0,0,1-5.48,9.57l-38.73,30.13A7.58,7.58,0,0,1,381,896.59Z" fill="#fff"/><path d="M461.14,823.31a14.36,14.36,0,0,1,13.25,1.25,19.08,19.08,0,0,1,8,12.38c.49,2.54.66,5.5,2.44,7.08,1.3,1.16,3.08,1.19,4.64,1.75,4.64,1.66,7,8.09,6.36,13.67s-3.69,10.4-6.91,14.61c1-2.26-.31-5.2-2.25-6.38s-4.27-1.09-6.47-.89-4.47.44-6.52-.5c-3.49-1.61-5.26-6.27-5.53-10.64s.61-8.7.68-13.07-.91-9.16-3.93-11.77c-1.39-1.19-3.11-1.83-4.4-3.17s-2-3.87-.78-5.31" fill="#6c63ff"/><path d="M509.67,871.66h-.38a6.45,6.45,0,0,0-8.84-8c-1-2.91-3.25-4.92-5.83-4.92s-4.79,2-5.83,4.92a6.45,6.45,0,0,0-5.53,0c-1-2.91-3.26-4.92-5.83-4.92s-4.79,2-5.83,4.92a6.45,6.45,0,0,0-8.84,8h-.37c-3.56,0-6.45,3.85-6.45,8.6s2.89,8.6,6.45,8.6c2.93,0,5.4-2.61,6.19-6.19a6.44,6.44,0,0,0,7.32,1.27c1,2.9,3.25,4.92,5.83,4.92,2.93,0,5.4-2.61,6.19-6.19a6.47,6.47,0,0,0,7.32,1.27c1,2.9,3.25,4.92,5.83,4.92s4.79-2,5.83-4.92a6.45,6.45,0,0,0,5.53-11.65,6.59,6.59,0,0,0-2.76-.63Z" fill="#f0f0f0"/><circle cx="475.28" cy="888.86" r="1.19" fill="#fff"/><circle cx="490.32" cy="895.31" r="1.19" fill="#fff"/><circle cx="501.07" cy="888.86" r="1.19" fill="#fff"/><path d="M515.9,928h-.26v-.66h.52v.14a18.55,18.55,0,0,0-.26-37.09v-.53a19.08,19.08,0,0,1,.91,38.14Z" fill="#3f3d56" stroke="#fff" stroke-miterlimit="10" stroke-width="6"/><path d="M383,893.66l-8.13-10.45a6.42,6.42,0,0,1,1.13-9h0l33-25.65a12.35,12.35,0,0,1,6.65-2.57l2.8-.22,25.79-15.11,6.94,8.92L430,860.69a12.3,12.3,0,0,1-4.68,8.2L392,894.75a6.42,6.42,0,0,1-9-1.13Z" fill="#6c63ff"/><path d="M459.72,832.43a3.12,3.12,0,0,0,2.66-.66c1.25-1,1.67-2.52.94-3.46a1.62,1.62,0,0,0-.48-.42,1.72,1.72,0,0,0-.6-2c.82-1.14,1.13-2.16.71-2.7a1.21,1.21,0,0,0-1-.39,1.81,1.81,0,0,0-.34-1.31,2.38,2.38,0,0,0-3-.32h0c-.73-.94-2.33-.91-3.58.06a3.56,3.56,0,0,1-3.39,2.64c-1.25,1-1.67,2.52-.94,3.45l.1.12h0l-.08-.13c-.73-.93-2.34-.91-3.59.06a3.5,3.5,0,0,1-3.39,2.64c-1.25,1-1.67,2.52-.94,3.46s2.33.91,3.58-.06a2.14,2.14,0,0,0-.38,3,2,2,0,0,0,.78.63,1.53,1.53,0,0,0,0,1.52c.42.54,1.48.49,2.79,0a1.5,1.5,0,0,0,.22.39c.73.94,2.33.91,3.58-.06a3.27,3.27,0,0,0,1.25-1.89,3.37,3.37,0,0,0,2.15-.75,3.47,3.47,0,0,0,.75-.78,3.38,3.38,0,0,0,.94-.54A3.12,3.12,0,0,0,459.72,832.43Z" fill="#f0f0f0"/><rect x="396.67" y="852.89" width="17.19" height="30.09" transform="translate(-447.53 431.71) rotate(-37.88)" fill="#3f3d56"/><path d="M388.74,861.12l19.11,24.56,13.86-10.79L402.6,850.33Z" fill="#d8d8d6"/><circle cx="442.59" cy="838.99" r="1.19" fill="#fff"/><circle cx="433.17" cy="840.88" r="1.19" fill="#fff"/><circle cx="473.37" cy="836.33" r="1.19" fill="#fff"/><circle cx="477.67" cy="842.78" r="1.19" fill="#fff"/><polygon points="460.67 861.83 460.67 861.83 460.67 861.83 460.67 861.83" fill="#f2f2f2"/><path d="M460.26,861.83c-1.32,0-5.55.32-7.75,2.16-2.62,2.21-2.62,4.3-1.35,5.82s3.33,1.87,6-.33c2.23-1.87,3.23-6.07,3.48-7.31Z" fill="#f2f2f2"/><polygon points="493.95 834.97 493.95 834.97 493.95 834.97 493.95 834.97" fill="#f2f2f2"/><path d="M494.21,835.28c.84,1,3.64,4.2,6.45,4.81,3.35.72,5-.56,5.43-2.49s-.56-3.78-3.91-4.51c-2.84-.62-6.77,1.15-7.91,1.71Z" fill="#f2f2f2"/><polygon points="515.64 866.16 515.64 866.16 515.64 866.16 515.64 866.16" fill="#f2f2f2"/><path d="M515.69,866.56c.15,1.31.79,5.5,2.82,7.53,2.43,2.43,4.51,2.25,5.91.85s1.58-3.49-.84-5.91c-2.05-2.06-6.33-2.69-7.58-2.84Z" fill="#f2f2f2"/><path d="M564.26,951.75a.29.29,0,0,1-.29.29H409.41a.29.29,0,0,1,0-.57H564a.29.29,0,0,1,.29.27h0Z" fill="#3f3d56"/><g clip-path="url(#b2aad3aa-5f69-4794-937c-0564e366379e)"><g clip-path="url(#a98a4056-fbd5-424e-9bf2-85b38129fd34)"><path d="M198.55,508.49h-.42l-.41.1a3,3,0,0,0-.39.14,2.64,2.64,0,0,0-.38.18c-.14.08-.28.16-.41.25l-.39.31-.35.35a6.47,6.47,0,0,0-.63.83,4.25,4.25,0,0,0-.27.46c-.08.17-.16.33-.23.51a4.81,4.81,0,0,0-.2.53c-.06.19-.11.37-.16.57s-.08.39-.11.58a6,6,0,0,0-.07.61c0,.2,0,.42,0,.63v88.84c0,.2,0,.41.07.61a3.06,3.06,0,0,0,.11.59,4.58,4.58,0,0,0,.16.56c.06.18.12.36.2.54s.15.34.23.5a4.39,4.39,0,0,0,.27.47,4.15,4.15,0,0,0,.3.43,3.09,3.09,0,0,0,.33.39l.35.35.39.31a3.45,3.45,0,0,0,.41.25l.38.19.39.14a3,3,0,0,1,.41.09h.42l90.54-.72.41-.05.41-.1a2.74,2.74,0,0,0,.4-.15c.13,0,.25-.12.38-.18l.39-.26.37-.31c.12-.11.23-.23.34-.35a3,3,0,0,0,.32-.39,4.15,4.15,0,0,0,.3-.43c.09-.15.18-.31.26-.47s.16-.33.23-.5.13-.35.19-.53a4.94,4.94,0,0,0,.15-.55c0-.19.08-.39.11-.58s0-.4.07-.6,0-.41,0-.62V514.66a1.73,1.73,0,0,0-.07-.6,4,4,0,0,1-.11-.58c0-.19-.1-.38-.15-.56a4.76,4.76,0,0,0-.19-.53c-.07-.17-.15-.34-.23-.5s-.17-.32-.26-.47a4.15,4.15,0,0,0-.3-.43,4.08,4.08,0,0,0-.31-.39l-.35-.35a3.47,3.47,0,0,0-.37-.3l-.39-.26-.38-.19a2.74,2.74,0,0,0-.4-.15l-.41-.1-.41-.05-90.54-.72h0" fill="#e6e6e6"/></g></g><g clip-path="url(#b2d616ed-447f-42e7-97ee-56d5fdc914bd)"><g clip-path="url(#b516c2ef-1824-479e-9aca-3b15cb72b04a)"><polyline points="235.98 509.45 199.22 608.15 201.5 608.13 238.25 509.46 235.98 509.45" fill="#fff"/></g></g><g clip-path="url(#f3f240a5-bef0-4212-afe9-026a9e976dba)"><g clip-path="url(#b6311e13-7da3-4269-a9c6-10c818c70140)"><polyline points="194.65 529.92 194.65 532.68 292.96 532.65 292.96 529.95 194.65 529.92" fill="#fff"/></g></g><g clip-path="url(#b0be390c-b3e2-4267-8780-d3c073cbb3cd)"><g clip-path="url(#f90adea8-3316-4cb5-9bdf-90e544b6ad1d)"><polyline points="273.25 509.32 273.25 608.34 275.3 608.32 275.3 509.34 273.25 509.32" fill="#fff"/></g></g><g clip-path="url(#aad9d772-8b4a-42ad-8922-58bf7af469bb)"><g clip-path="url(#b4ad8fd9-e631-4987-8828-b6cd4bb1da86)"><polyline points="210.31 580.31 210.31 583.05 273.18 583.03 273.18 580.33 210.31 580.31" fill="#fff"/></g></g><g clip-path="url(#faca48cf-cb06-4fb6-9ea2-a8e306d24363)"><g clip-path="url(#a6184c7a-c541-4cf4-829a-3b119c357263)"><path d="M245.86,534.58a8.44,8.44,0,0,0-1,.09,6.81,6.81,0,0,0-1,.2,8.07,8.07,0,0,0-.94.33,9.2,9.2,0,0,0-.89.44,8.51,8.51,0,0,0-.9.57c-.29.21-.57.44-.84.68a8.3,8.3,0,0,0-.79.78,10.32,10.32,0,0,0-.73.88,9.62,9.62,0,0,0-.66,1c-.21.37-.41.69-.6,1.05s-.35.74-.51,1.13-.31.78-.44,1.19-.24.83-.34,1.26-.18.86-.25,1.31-.12.89-.16,1.35,0,.93,0,1.4a10.86,10.86,0,0,0,.08,1.28c.05.46.12,1,.22,1.5s.21,1.11.34,1.71.29,1.22.45,1.86.36,1.32.56,2,.41,1.38.63,2.09.45,1.44.69,2.17l.74,2.19c.25.73.5,1.47.76,2.2l.78,2.16c.26.71.52,1.42.78,2.1s.51,1.36.76,2,.49,1.28.72,1.88.46,1.17.67,1.71.42,1,.61,1.53l.53,1.3v.17l.05.07v.08l0,.06v.06l.06.06.06.05h.81l.13-.06.12-.08.14-.1.11-.15.1-.16.09-.17.52-1.3c.19-.47.39-1,.6-1.52s.44-1.12.67-1.72.48-1.23.72-1.89.51-1.31.76-2,.52-1.39.78-2.1.52-1.44.77-2.16.52-1.47.77-2.2.49-1.46.73-2.19.47-1.45.69-2.16.43-1.41.62-2.09.38-1.35.55-2,.32-1.27.45-1.86.25-1.16.35-1.7a14.2,14.2,0,0,0,.21-1.5,10.83,10.83,0,0,0,.08-1.27V546.7a10.29,10.29,0,0,0-.15-1.36,13,13,0,0,0-.25-1.3c-.1-.42-.22-.85-.35-1.26s-.27-.8-.43-1.19a11.3,11.3,0,0,0-.51-1.12c-.18-.34-.38-.68-.59-1a9.6,9.6,0,0,0-.66-1c-.23-.31-.47-.61-.72-.89s-.52-.54-.79-.79a10.42,10.42,0,0,0-.84-.68,8.6,8.6,0,0,0-.9-.58,8.17,8.17,0,0,0-.94-.46,9.06,9.06,0,0,0-1-.34,8.45,8.45,0,0,0-1-.21,6.73,6.73,0,0,0-1-.07h-.2" fill="#6c63ff"/></g></g><g clip-path="url(#e9731787-5431-4cfc-9a2b-78dad98cf61b)"><g clip-path="url(#e450583e-dff5-4366-907a-ccc7b23822ab)"><path d="M246,542.12h-.45a3.31,3.31,0,0,0-.87.24l-.41.2c-.14.08-.27.17-.4.26s-.25.19-.38.3l-.35.35c-.11.13-.22.26-.32.4a4.15,4.15,0,0,0-.3.43l-.27.47c-.08.16-.15.33-.22.5s-.14.36-.2.54a5.12,5.12,0,0,0-.15.56c0,.19-.08.38-.11.58s0,.4-.07.61,0,.41,0,.62v.63a1.79,1.79,0,0,0,.07.61,4.21,4.21,0,0,1,.11.58c0,.19.1.38.15.57a4.15,4.15,0,0,0,.2.53c.07.17.14.34.22.5s.18.32.27.47a4.27,4.27,0,0,0,.3.44c.1.13.21.27.32.39l.35.35.38.31.4.26.41.2a3.31,3.31,0,0,0,.87.24h1l.45-.09a3.26,3.26,0,0,0,.44-.15l.42-.21.4-.25.37-.31c.13-.11.24-.23.36-.35a3.12,3.12,0,0,0,.32-.4,4.15,4.15,0,0,0,.3-.43c.09-.15.18-.31.26-.47a4.52,4.52,0,0,0,.23-.5c.07-.18.14-.36.2-.54a5.12,5.12,0,0,0,.15-.56,5.59,5.59,0,0,0,.11-.59c0-.2.06-.4.07-.6v-1.25c0-.2,0-.4-.07-.6a5.59,5.59,0,0,0-.11-.59,2.14,2.14,0,0,0-.15-.55,5,5,0,0,0-.2-.54,4.52,4.52,0,0,0-.23-.5c-.08-.16-.17-.32-.26-.47a4.15,4.15,0,0,0-.3-.43c-.1-.14-.21-.27-.32-.4a4,4,0,0,0-.36-.35,3.57,3.57,0,0,0-.37-.31l-.4-.25-.42-.21a3.26,3.26,0,0,0-.44-.15l-.45-.09H246" fill="#e6e6e6"/></g></g><g clip-path="url(#ae3e662a-87c8-4bc5-b21b-3db527d7794a)"><g clip-path="url(#e8286951-2e92-47bc-b4d4-8efbf8345544)"><path d="M246.08,579.48h-.38l-.18.07-.17.08-.17.11-.15.12-.15.15a1,1,0,0,0-.13.16l-.13.18c0,.06-.07.12-.1.19a2,2,0,0,0-.1.21.26.26,0,0,1-.08.22l-.06.23a.42.42,0,0,1-.05.24v.25a4.51,4.51,0,0,0,0,.52v.25a.42.42,0,0,0,.05.24l.06.23a.26.26,0,0,0,.08.22,1.24,1.24,0,0,0,.1.2l.1.2.13.18a1,1,0,0,0,.13.16l.15.14.15.13a1,1,0,0,0,.17.1l.17.09.18.06h.76l.18-.06.17-.08.17-.11.15-.13.15-.14.13-.16.13-.18.11-.19.09-.21a1.55,1.55,0,0,0,.08-.23l.06-.22a2,2,0,0,0,.05-.24v-1a2,2,0,0,0-.05-.24l-.06-.23a1.43,1.43,0,0,0-.08-.22l-.09-.21-.11-.19-.13-.18c0-.06-.09-.11-.13-.16l-.15-.15-.13-.11-.17-.1-.17-.09-.18-.06h-.38" fill="#6c63ff"/></g></g><path d="M380.54,605.87a72.26,72.26,0,0,1-9.06-.57,4.84,4.84,0,0,1-3.61-1.47c-2-2.12-1.93-5.74-1.92-5.9V549.15a13.3,13.3,0,0,1,3-10.08,11,11,0,0,0,2.29-5.28L375.07,505a2.15,2.15,0,0,1,2.35-1.85,39.26,39.26,0,0,0,5.84-.14h0a2.16,2.16,0,0,1,2.27,1.84l4,29.38a11.11,11.11,0,0,0,2.23,5.27,12.54,12.54,0,0,1,2.65,10.14v48.08c0,6.62-4.63,7.57-4.68,7.58A74.31,74.31,0,0,1,380.54,605.87Zm-3.33-101.05a.5.5,0,0,0-.51.42L372.86,534a12.45,12.45,0,0,1-2.65,6.11,11.64,11.64,0,0,0-2.62,8.87v49c0,.06-.09,3.12,1.46,4.73a3.23,3.23,0,0,0,2.47,1h.11a72,72,0,0,0,17.84,0c.07,0,3.28-.75,3.28-6V549.5a11,11,0,0,0-2.3-8.89,12.7,12.7,0,0,1-2.58-6.08l-4-29.37a.48.48,0,0,0-.51-.42,40.33,40.33,0,0,1-6.12.14Z" fill="#fff"/><path d="M377.28,550h6.08a9.11,9.11,0,0,1,9.11,9.11V582a9.11,9.11,0,0,1-9.1,9.12h-6.09a9.11,9.11,0,0,1-9.11-9.11h0V559.08a9.11,9.11,0,0,1,9.11-9.11Z" fill="#fff"/><path d="M414,605.87a72.26,72.26,0,0,1-9.06-.57,4.84,4.84,0,0,1-3.61-1.47c-2-2.12-1.92-5.74-1.92-5.9V549.15a13.3,13.3,0,0,1,3-10.08,10.73,10.73,0,0,0,2.29-5.28L408.53,505a2.15,2.15,0,0,1,2.35-1.85,39.39,39.39,0,0,0,5.85-.14h0a2.14,2.14,0,0,1,2.27,1.84l4,29.38a11.23,11.23,0,0,0,2.24,5.27,12.54,12.54,0,0,1,2.64,10.14v48.08c0,6.62-4.63,7.57-4.68,7.58A74.47,74.47,0,0,1,414,605.87Zm-3.33-101.05a.5.5,0,0,0-.51.42L406.32,534a12.45,12.45,0,0,1-2.65,6.11,11.64,11.64,0,0,0-2.62,8.87v49c0,.06-.09,3.12,1.46,4.73a3.22,3.22,0,0,0,2.48,1h.1a72,72,0,0,0,17.84,0c.08,0,3.28-.75,3.28-6V549.5a10.93,10.93,0,0,0-2.3-8.89,12.7,12.7,0,0,1-2.58-6.08l-4-29.37a.48.48,0,0,0-.5-.42,40.49,40.49,0,0,1-6.13.14Z" fill="#fff"/><path d="M410.73,550h6.08a9.11,9.11,0,0,1,9.12,9.1h0V582a9.12,9.12,0,0,1-9.12,9.12h-6.08a9.11,9.11,0,0,1-9.11-9.11h0V559.08a9.11,9.11,0,0,1,9.11-9.11Z" fill="#d8d8d6"/><path d="M447.6,605.87a72,72,0,0,1-9.05-.57,4.87,4.87,0,0,1-3.62-1.47c-2-2.12-1.92-5.74-1.91-5.9V549.15a13.39,13.39,0,0,1,3-10.08,10.73,10.73,0,0,0,2.29-5.28L442.15,505a2.14,2.14,0,0,1,2.35-1.85,39.26,39.26,0,0,0,5.84-.14h0a2.14,2.14,0,0,1,2.27,1.84l4,29.38a11.11,11.11,0,0,0,2.23,5.27,12.54,12.54,0,0,1,2.65,10.14v48.08c0,6.62-4.64,7.57-4.68,7.58A74.63,74.63,0,0,1,447.6,605.87Zm-3.32-101.05a.49.49,0,0,0-.52.42L439.93,534a12.54,12.54,0,0,1-2.65,6.11,11.64,11.64,0,0,0-2.62,8.87v49c0,.06-.08,3.12,1.47,4.73a3.19,3.19,0,0,0,2.47,1h.1a72,72,0,0,0,17.84,0c.08,0,3.29-.75,3.29-6V549.44a10.89,10.89,0,0,0-2.3-8.89,12.94,12.94,0,0,1-2.58-6.08l-4-29.37a.5.5,0,0,0-.51-.42,40.49,40.49,0,0,1-6.13.14Z" fill="#fff"/><path d="M444.35,550h6.08a9.11,9.11,0,0,1,9.11,9.11V582a9.11,9.11,0,0,1-9.1,9.12h-6.09a9.12,9.12,0,0,1-9.12-9.12V559.08a9.11,9.11,0,0,1,9.11-9.11Z" fill="#a5a5a4"/><path d="M482.28,605.87a72.26,72.26,0,0,1-9.06-.57,4.89,4.89,0,0,1-3.61-1.47c-2-2.12-1.92-5.74-1.92-5.9V549.15a13.3,13.3,0,0,1,3-10.08,10.81,10.81,0,0,0,2.31-5.32L476.84,505a2.14,2.14,0,0,1,2.35-1.85A39.26,39.26,0,0,0,485,503h0a2.15,2.15,0,0,1,2.27,1.84l4,29.38a11.23,11.23,0,0,0,2.24,5.27,12.58,12.58,0,0,1,2.65,10.14v48.12c0,6.62-4.64,7.57-4.68,7.58A75,75,0,0,1,482.28,605.87ZM479,504.82a.5.5,0,0,0-.51.42L474.65,534a12.53,12.53,0,0,1-2.64,6.11,11.6,11.6,0,0,0-2.62,8.87v49c0,.06-.09,3.12,1.46,4.73a3.22,3.22,0,0,0,2.48,1h.1a72,72,0,0,0,17.84,0c.08,0,3.29-.75,3.29-6V549.44a10.89,10.89,0,0,0-2.3-8.89,12.84,12.84,0,0,1-2.58-6.08l-4-29.37a.5.5,0,0,0-.51-.42,40.49,40.49,0,0,1-6.13.14Z" fill="#fff"/><path d="M479,550h6.08a9.11,9.11,0,0,1,9.12,9.1h0V582a9.12,9.12,0,0,1-9.12,9.12H479a9.11,9.11,0,0,1-9.11-9.11h0V559.08A9.11,9.11,0,0,1,479,550Z" fill="#d8d8d6"/><path d="M517.65,605.87a72.26,72.26,0,0,1-9.06-.57,4.84,4.84,0,0,1-3.61-1.47c-2-2.12-1.93-5.74-1.92-5.9V549.15a13.3,13.3,0,0,1,3-10.08,11,11,0,0,0,2.29-5.28L512.18,505a2.15,2.15,0,0,1,2.35-1.85,39.26,39.26,0,0,0,5.84-.14h0a2.16,2.16,0,0,1,2.27,1.84l4,29.38a11.11,11.11,0,0,0,2.23,5.27,12.54,12.54,0,0,1,2.65,10.14v48.08c0,6.62-4.63,7.57-4.68,7.58A74.31,74.31,0,0,1,517.65,605.87Zm-3.33-101.05a.48.48,0,0,0-.51.42L510,534a12.45,12.45,0,0,1-2.65,6.11,11.64,11.64,0,0,0-2.62,8.87v49c0,.06-.09,3.12,1.46,4.73a3.23,3.23,0,0,0,2.47,1h.11a72,72,0,0,0,17.84,0c.07,0,3.28-.75,3.28-6V549.5a10.93,10.93,0,0,0-2.31-8.89,12.83,12.83,0,0,1-2.57-6.08l-4-29.37a.48.48,0,0,0-.51-.42,40.33,40.33,0,0,1-6.12.14Z" fill="#fff"/><path d="M514.39,550h6.08a9.11,9.11,0,0,1,9.11,9.11V582a9.11,9.11,0,0,1-9.1,9.12h-6.09a9.11,9.11,0,0,1-9.11-9.11h0V559.08a9.11,9.11,0,0,1,9.11-9.11Z" fill="#fff"/><path d="M552.63,605.87a72.26,72.26,0,0,1-9.06-.57,4.89,4.89,0,0,1-3.61-1.47c-2-2.12-1.92-5.74-1.92-5.9V549.15a13.3,13.3,0,0,1,3-10.08,10.73,10.73,0,0,0,2.29-5.28L547.17,505a2.14,2.14,0,0,1,2.35-1.85,39.26,39.26,0,0,0,5.84-.14h0a2.14,2.14,0,0,1,2.27,1.84l4,29.38a11.11,11.11,0,0,0,2.23,5.27,12.54,12.54,0,0,1,2.65,10.14v48.08c0,6.62-4.64,7.57-4.68,7.58A74.47,74.47,0,0,1,552.63,605.87Zm-3.32-101.05a.49.49,0,0,0-.52.42L545,534a12.54,12.54,0,0,1-2.65,6.11,11.64,11.64,0,0,0-2.62,8.87v49c0,.06-.09,3.12,1.47,4.73a3.19,3.19,0,0,0,2.47,1h.1a72,72,0,0,0,17.84,0c.08,0,3.29-.75,3.29-6V549.44a10.89,10.89,0,0,0-2.3-8.89,12.94,12.94,0,0,1-2.58-6.08l-4-29.37a.5.5,0,0,0-.51-.42,40.49,40.49,0,0,1-6.13.14Z" fill="#fff"/><path d="M549.38,550h6.08a9.11,9.11,0,0,1,9.11,9.11V582a9.11,9.11,0,0,1-9.1,9.12h-6.09a9.12,9.12,0,0,1-9.12-9.12V559.08a9.11,9.11,0,0,1,9.11-9.11Z" fill="#d8d8d6"/><g clip-path="url(#f74ceff3-a1d4-40d9-bdc6-0824a0cd5ddb)"><path d="M684.33,557.16v.37a2.17,2.17,0,0,1-.13.71,1.84,1.84,0,0,1-.34.57,1.61,1.61,0,0,1-.51.39,1.39,1.39,0,0,1-.63.15H673.8l3.47,3.5,11.51-.06h.48a4.84,4.84,0,0,1,.93.22,6,6,0,0,1,1.2.56,6.55,6.55,0,0,1,1.28,1.07v-.9a.45.45,0,0,0-.07-.29l-.63-.24-.63-.25-.63-.26-.63-.25a12.3,12.3,0,0,1-1.62-.82,7.73,7.73,0,0,1-1.28-1,6.07,6.07,0,0,1-1-1.15,5.71,5.71,0,0,1-.61-1.3.32.32,0,0,0-.07-.24l-.06-.24v-.47l-1-.13" fill="#fff"/><path d="M671.21,552.81a1.67,1.67,0,0,1-1.1-.45,1.78,1.78,0,0,1-.39-.51,2.14,2.14,0,0,1-.23-.64l-.59-3.4a2,2,0,0,1,0-.78,1.88,1.88,0,0,1,.26-.68,1.74,1.74,0,0,1,.48-.53,1.69,1.69,0,0,1,.64-.29l7.61-1.56h.33a1.43,1.43,0,0,1,.58.12,1.72,1.72,0,0,1,.51.33,1.89,1.89,0,0,1,.38.51,2.11,2.11,0,0,1,.22.64l.58,3.36a2,2,0,0,1,0,.77,2.06,2.06,0,0,1-.25.68,1.79,1.79,0,0,1-.47.52,1.54,1.54,0,0,1-.62.29l-7.61,1.56h-.33m-6.27-13.58v18.29a2,2,0,0,0,.14.72,1.91,1.91,0,0,0,.35.58,1.63,1.63,0,0,0,1.18.55h1.1l.61-1.86.06-.18a.16.16,0,0,1,.08-.16.86.86,0,0,1,.1-.16l.11-.15a3.83,3.83,0,0,1,.28-.29,1.81,1.81,0,0,1,.33-.2,1.48,1.48,0,0,1,.35-.13H670a.86.86,0,0,1,.32,0,1.58,1.58,0,0,1,.31.09l.3.16.27.23,2.61,2.64h8.92a1.39,1.39,0,0,0,.63-.15,1.61,1.61,0,0,0,.51-.39,1.84,1.84,0,0,0,.34-.57,2.17,2.17,0,0,0,.13-.71V542l-19.39-.33v-2.43M683.42,538h0m-16.81-.54a1.84,1.84,0,0,0-.65.13,1.55,1.55,0,0,0-.53.39,1.91,1.91,0,0,0-.35.58,2,2,0,0,0-.14.72,2,2,0,0,1,.14-.72,1.91,1.91,0,0,1,.35-.58,1.66,1.66,0,0,1,.53-.38,1.62,1.62,0,0,1,.65-.14m16.12.35h.35l.17.06.16.08-.16-.08-.17-.06h-.35" fill="#ccc"/><path d="M673.43,549.67h-.14l-.12-.07-.09-.12a.88.88,0,0,1-.05-.15.54.54,0,0,1,0-.18.49.49,0,0,1,.06-.17l.11-.12a.51.51,0,0,1,.15-.07l3-.62h.21a.41.41,0,0,1,.11.07l.1.12a.88.88,0,0,1,.05.15.54.54,0,0,1,0,.18.49.49,0,0,1-.06.17l-.11.12-.15.06-3,.63h-.08m-1.68-1.28h-.14a.36.36,0,0,1-.12-.08.4.4,0,0,1-.1-.12.38.38,0,0,1,0-.15.54.54,0,0,1,0-.18.77.77,0,0,1,.07-.16.28.28,0,0,1,.11-.13.39.39,0,0,1,.15-.06l5.81-1.21h.21l.12.08a.27.27,0,0,1,.09.12.44.44,0,0,1,0,.15.54.54,0,0,1,0,.18.44.44,0,0,1-.06.16.43.43,0,0,1-.11.12.26.26,0,0,1-.15.07l-5.81,1.21h-.07m6.48-4.45h-.36l-7.61,1.56a1.69,1.69,0,0,0-.64.29,1.74,1.74,0,0,0-.48.53,1.88,1.88,0,0,0-.26.68,2,2,0,0,0,0,.78l.59,3.4a2.14,2.14,0,0,0,.23.64,1.78,1.78,0,0,0,.39.51,1.67,1.67,0,0,0,1.1.45h.33l7.61-1.61a1.54,1.54,0,0,0,.62-.29,1.79,1.79,0,0,0,.47-.52,2.06,2.06,0,0,0,.25-.68,2.49,2.49,0,0,0,0-.77l-.58-3.36a2.11,2.11,0,0,0-.22-.64,1.89,1.89,0,0,0-.38-.51,1.72,1.72,0,0,0-.51-.33,1.43,1.43,0,0,0-.58-.12" fill="#3f3d56"/><path d="M677.55,546.26h-.07l-5.81,1.21a.39.39,0,0,0-.15.06.28.28,0,0,0-.11.13.77.77,0,0,0-.07.16.54.54,0,0,0,0,.18.38.38,0,0,0,0,.15.4.4,0,0,0,.1.12.36.36,0,0,0,.12.08h.21l5.81-1.21a.26.26,0,0,0,.15-.07.43.43,0,0,0,.11-.12.44.44,0,0,0,.06-.16.54.54,0,0,0,0-.18.44.44,0,0,0,0-.15.27.27,0,0,0-.09-.12.5.5,0,0,0-.12-.08h-.14" fill="#fff"/><path d="M676.43,548.13h-.07l-3,.62-.15.07-.11.12a.49.49,0,0,0-.06.17.54.54,0,0,0,0,.18.88.88,0,0,0,.05.15l.09.12.12.07h.22l3-.63.15-.06.11-.12a.49.49,0,0,0,.06-.17.54.54,0,0,0,0-.18.88.88,0,0,0-.05-.15l-.1-.12a.41.41,0,0,0-.11-.07h-.14" fill="#fff"/><path d="M682.72,537.75l-16.11-.35a1.62,1.62,0,0,0-.65.14,1.66,1.66,0,0,0-.53.38,1.91,1.91,0,0,0-.35.58,2,2,0,0,0-.14.72v2.43l19.39.33V539.6a1.81,1.81,0,0,0-.07-.52,1.83,1.83,0,0,0-.18-.46,1.78,1.78,0,0,0-.28-.38,2,2,0,0,0-.36-.29h0l-.16-.08-.17-.06h-.36" fill="#b3b3b3"/><path d="M700.39,534.11l-.94,2.79L714,541h.37l.66-.27-14.61-6.43" fill="#cc9393"/><path d="M696.41,531.07a5,5,0,0,1,.6.85,7.69,7.69,0,0,1,.45.91,8.83,8.83,0,0,1,.3,1,8.35,8.35,0,0,1,.17,1l.51.06a1.08,1.08,0,0,1,.42.16,1.22,1.22,0,0,1,.33.31,1.43,1.43,0,0,1,.24.94v.19l-.09.39h.13l.94-2.79.13-.38v-.18a1.4,1.4,0,0,0,0-.5,1.25,1.25,0,0,0-.15-.46,1.7,1.7,0,0,0-.29-.36,1.2,1.2,0,0,0-.4-.22l-3.32-.94" fill="#d0cde1"/><path d="M721.6,551l-6.21,2.65.72,3.18c.46,2,.84,4.09,1.13,6.16s.49,4.15.61,6.24.16,4.19.11,6.29-.19,4.19-.41,6.29h0a22.1,22.1,0,0,0,3.79-5.4,24.16,24.16,0,0,0,.48-20.79,4,4,0,0,1,0-.49,7.81,7.81,0,0,0-.06-1.1c-.06-.44,0-1-.06-1.47l-.06-1.56" fill="#fff"/><path d="M735.63,592.88a2.64,2.64,0,0,1-1.14-.23,2.8,2.8,0,0,1-.92-.72,3.31,3.31,0,0,1-.63-1.09,4.12,4.12,0,0,1-.23-1.35,4.3,4.3,0,0,1,.23-1.38,3.81,3.81,0,0,1,.63-1.13,3.27,3.27,0,0,1,.92-.78,2.81,2.81,0,0,1,1.14-.31,2.45,2.45,0,0,1,1.13.24,2.84,2.84,0,0,1,.93.72,3.46,3.46,0,0,1,.62,1.09,4.11,4.11,0,0,1,.22,1.35,4.21,4.21,0,0,1-.22,1.36,3.78,3.78,0,0,1-.62,1.13,3.17,3.17,0,0,1-.93.78,2.63,2.63,0,0,1-1.13.32m5.89-16-10,.2a12.26,12.26,0,0,1-.79,1.73,11.64,11.64,0,0,1-1.07,1.62,10.06,10.06,0,0,1-3.15,2.65,2,2,0,0,1-.13.59c-.13.38-.24.91-.46,1.56a21.47,21.47,0,0,1-.9,2.22,19.33,19.33,0,0,1-1.43,2.55,16.28,16.28,0,0,0,.59,4.22,14.69,14.69,0,0,0,1.55,3.65,13.18,13.18,0,0,0,2.34,2.91,11.39,11.39,0,0,0,3,2l9.15-.44a12.83,12.83,0,0,0,2.92-2.26,14.71,14.71,0,0,0,2.27-3.1,16.41,16.41,0,0,0,1.47-3.76,17.2,17.2,0,0,0,.53-4.23,16.91,16.91,0,0,0-.42-3.75,15.91,15.91,0,0,0-1.19-3.35,14.25,14.25,0,0,0-1.84-2.82,12,12,0,0,0-2.4-2.15" fill="#3f3d56"/><path d="M735.63,585.89a2.81,2.81,0,0,0-1.14.31,3.27,3.27,0,0,0-.92.78,3.81,3.81,0,0,0-.63,1.13,4.3,4.3,0,0,0-.23,1.38,4.12,4.12,0,0,0,.23,1.35,3.31,3.31,0,0,0,.63,1.09,2.8,2.8,0,0,0,.92.72,2.46,2.46,0,0,0,2.27-.09,3.17,3.17,0,0,0,.93-.78,3.78,3.78,0,0,0,.62-1.13,4.21,4.21,0,0,0,.22-1.36,4.11,4.11,0,0,0-.22-1.35,3.46,3.46,0,0,0-.62-1.09,2.84,2.84,0,0,0-.93-.72,2.45,2.45,0,0,0-1.13-.24" fill="#fff"/><path d="M671.35,593.6a3.35,3.35,0,0,1-1.5-.29,3.53,3.53,0,0,1-1.22-.88,4.17,4.17,0,0,1-.83-1.35,4.63,4.63,0,0,1-.31-1.68,4.86,4.86,0,0,1,.31-1.69,4.47,4.47,0,0,1,.83-1.39,3.94,3.94,0,0,1,1.22-1,3.55,3.55,0,0,1,1.5-.39,3.5,3.5,0,0,1,1.5.3,3.65,3.65,0,0,1,1.21.89,3.94,3.94,0,0,1,.82,1.34,4.69,4.69,0,0,1,.3,1.66,4.84,4.84,0,0,1-.3,1.68,4.49,4.49,0,0,1-.82,1.4,3.9,3.9,0,0,1-1.21,1,3.57,3.57,0,0,1-1.5.4m9-18.83-18.3.48a17.27,17.27,0,0,0-2.71,2.83,18.66,18.66,0,0,0-2.09,3.45,19.4,19.4,0,0,0-1.34,4,20.18,20.18,0,0,0-.47,4.31,19.5,19.5,0,0,0,.77,5.42,17.84,17.84,0,0,0,2.13,4.68,16.77,16.77,0,0,0,3.26,3.67,15,15,0,0,0,4.12,2.41l11.28-.55a16.18,16.18,0,0,0,3.32-2.16,17.34,17.34,0,0,0,2.75-2.93,19,19,0,0,0,3.37-7.6,14.89,14.89,0,0,1-1.8-2.23,12.47,12.47,0,0,1-1.33-2.72,12.6,12.6,0,0,1-.64-3.22,14.29,14.29,0,0,1,.28-3.75h2.17c-.29-.6-.6-1.19-.94-1.75a17.29,17.29,0,0,0-2.4-3.05,15.52,15.52,0,0,0-1.43-1.26" fill="#3f3d56"/><path d="M671.35,585a3.55,3.55,0,0,0-1.5.39,3.94,3.94,0,0,0-1.22,1,4.47,4.47,0,0,0-.83,1.39,4.86,4.86,0,0,0-.31,1.69,4.63,4.63,0,0,0,.31,1.68,4.17,4.17,0,0,0,.83,1.35,3.53,3.53,0,0,0,1.22.88,3.35,3.35,0,0,0,1.5.29,3.57,3.57,0,0,0,1.5-.4,3.9,3.9,0,0,0,1.21-1,4.49,4.49,0,0,0,.82-1.4,4.84,4.84,0,0,0,.3-1.68,4.69,4.69,0,0,0-.3-1.66,3.94,3.94,0,0,0-.82-1.34,3.65,3.65,0,0,0-1.21-.89,3.5,3.5,0,0,0-1.5-.3" fill="#fff"/><path d="M726.79,548.3a6.29,6.29,0,0,1-2.3-1.38,7.74,7.74,0,0,1-1.65-2.24,8.58,8.58,0,0,1-.82-2.81,8.89,8.89,0,0,1,.15-3,1.11,1.11,0,0,1,.08-.3c0-.1,0-.2.08-.3l.09-.3a1,1,0,0,1,.11-.29h1.1a4.29,4.29,0,0,1,1.69.38,5,5,0,0,1,1.47,1,6,6,0,0,1,1.12,1.52,6.31,6.31,0,0,1,.66,1.93v1.28a7.5,7.5,0,0,1-.12,1.34,6.66,6.66,0,0,1-.37,1.25,6.74,6.74,0,0,1-.59,1.13,5.65,5.65,0,0,1-.81,1m-3.18-10.91h-.45l-.45.06-.45.11-.45.16-6.7,2.66-.66.27H714l3.09.87.09-.07.09-.06.1-.06h.09l.24-.1.24-.08h.49a2.09,2.09,0,0,1,.66.13,2,2,0,0,1,.6.33,2.51,2.51,0,0,1,.51.52,3.13,3.13,0,0,1,.37.7,3.12,3.12,0,0,1,.15,1.81,3.12,3.12,0,0,1-.3.84,2.76,2.76,0,0,1-.53.69l-.07.06h-.07l-.07.06h-.07a2.09,2.09,0,0,1-.22.48,2.43,2.43,0,0,1-.33.38,1.76,1.76,0,0,1-.42.24,1.32,1.32,0,0,1-.48.09,1.56,1.56,0,0,1-.6-.15,1.72,1.72,0,0,1-.49-.4,1.86,1.86,0,0,1-.33-.58,2.06,2.06,0,0,1-.12-.7h0l-4-.75v.09h0v.05l2.64,8.39.21-.09,6.21-2.65v-2.74H723a7.54,7.54,0,0,1,2.84,1l.3-.17.28-.19.27-.2.26-.23a5.6,5.6,0,0,0,.82-1,6.2,6.2,0,0,0,.6-1.14,7,7,0,0,0,.51-2.65,4.86,4.86,0,0,0,0-.54,5,5,0,0,0-.06-.54,4.76,4.76,0,0,0-.1-.52,4.39,4.39,0,0,0-.13-.52,6.52,6.52,0,0,0-.79-1.69,5.35,5.35,0,0,0-1.14-1.28,4.92,4.92,0,0,0-1.39-.84,4.55,4.55,0,0,0-1.55-.31" fill="#d8d8d6"/><path d="M723.63,537.52h-1.1a.79.79,0,0,1-.11.29l-.09.3a1.67,1.67,0,0,1-.08.3c0,.1,0,.2-.08.3a8.89,8.89,0,0,0-.15,3,8.58,8.58,0,0,0,.82,2.81,7.74,7.74,0,0,0,1.65,2.24,6.29,6.29,0,0,0,2.3,1.38,5.65,5.65,0,0,0,.81-.95,6.74,6.74,0,0,0,.59-1.13,6.66,6.66,0,0,0,.37-1.25,7.5,7.5,0,0,0,.12-1.34v-1.28a6.58,6.58,0,0,0-.66-1.93,6,6,0,0,0-1.12-1.52,5,5,0,0,0-1.47-1,4.29,4.29,0,0,0-1.69-.38" fill="#fff"/><path d="M657.8,566.85a3.52,3.52,0,0,0-1,.65,4.82,4.82,0,0,0-.8,1,5.76,5.76,0,0,0-.52,1.32,6.05,6.05,0,0,0-.19,1.53,6.22,6.22,0,0,0,.27,1.82,5.16,5.16,0,0,0,.75,1.48,3.43,3.43,0,0,0,1.11,1,2.76,2.76,0,0,0,1.85.29,2.54,2.54,0,0,0,.47-.14,2.64,2.64,0,0,0,.44-.23,2.42,2.42,0,0,0,.42-.29h-.21V575a1.22,1.22,0,0,1,0-.27v-.28a1.31,1.31,0,0,1,0-.28l-3.7.06a19.82,19.82,0,0,1,0-2.18,16.71,16.71,0,0,1,.19-2,16.92,16.92,0,0,1,.41-1.74,12.38,12.38,0,0,1,.59-1.53" fill="#fff"/><path d="M705.35,583l-.05.14a.87.87,0,0,1-.14.27,2,2,0,0,1-.19.22,1,1,0,0,1-.24.15,1.11,1.11,0,0,1-.26.07l-.25,1.6h1.46l.37-2.38h-.7" fill="#ffb8b8"/><path d="M707.48,585.37h-3.26l-.13.79h1.82a3.11,3.11,0,0,1,.61,0,3,3,0,0,1,.58.17,2.4,2.4,0,0,1,.53.27,3.41,3.41,0,0,1,.48.37l.48-.1.48-.11.47-.12.47-.14a4.26,4.26,0,0,0-.52-.52,3.85,3.85,0,0,0-.6-.39,3.41,3.41,0,0,0-.68-.23,2.55,2.55,0,0,0-.73-.07" fill="#2f2e41"/><path d="M698.65,553.94l.36,2,9.81,6.08a5,5,0,0,1,1.31,1.24,6,6,0,0,1,.66,5.47L705.35,583h.7a.79.79,0,0,0,.26-.08,1,1,0,0,0,.24-.15,1.29,1.29,0,0,0,.19-.21c0-.09.1-.18.14-.27l5.47-14.39a5.8,5.8,0,0,0,.37-1.93,6.3,6.3,0,0,0-.23-1.88,5.37,5.37,0,0,0-.8-1.65,4.69,4.69,0,0,0-1.31-1.24l-11.73-7.3" fill="#2f2e41"/><path d="M699.32,519.35c-.1.13-.21.25-.32.37a3.59,3.59,0,0,1-.36.32,3.51,3.51,0,0,1-.4.27,3.36,3.36,0,0,1-.43.2,6.36,6.36,0,0,1-1.06.28c-.36.07-.73.12-1.09.2a4,4,0,0,0-1,.35,2.24,2.24,0,0,0-.8.7,2.55,2.55,0,0,0-.39,1,4.28,4.28,0,0,0,0,1.13,7.91,7.91,0,0,0,.3,1.16,9,9,0,0,0,.49,1.1,5,5,0,0,0,2-.6,5.73,5.73,0,0,0,1.62-1.36,6.6,6.6,0,0,0,1.08-1.94,7.32,7.32,0,0,0,.39-2.37v-.81" fill="#ffb8b8"/><path d="M701.15,583.69v2.65l2.94-.09.13-.79.25-1.6h-.2l-3.12-.18" fill="#ffb8b8"/><path d="M705.91,586.2h-1.82l-2.94.09h-.72v.27l.19.06H701l.19,0h.41l.21.05H702l.93.15c.31,0,.62.08.93.1s.61,0,.92,0h2.11l.6-.08.59-.1a3.41,3.41,0,0,0-.48-.37,2.4,2.4,0,0,0-.53-.27,3,3,0,0,0-.58-.17,3.11,3.11,0,0,0-.61,0" fill="#2f2e41"/><path d="M686,553.42v.07l-.16.35a6,6,0,0,0-.27.82,6.92,6.92,0,0,0-.22,1.19,5.78,5.78,0,0,0,0,1.44v.47l.06.24a.32.32,0,0,0,.07.24,5.71,5.71,0,0,0,.61,1.3,6.07,6.07,0,0,0,1,1.15,7.73,7.73,0,0,0,1.28,1,12.3,12.3,0,0,0,1.62.82l.63.25.63.26.63.25.63.24c1.2.46,2.4.89,3.57,1.3s2.27.77,3.3,1.11l2.79.88,2,.6.16.07.13.1.12.13.09.16.06.18v.55l-5.16,13.5v.3a1,1,0,0,0,.19.87,1,1,0,0,0,.3.28.89.89,0,0,0,.39.12h.73l3.12.18h.2a1.11,1.11,0,0,0,.26-.07,1,1,0,0,0,.24-.15,2,2,0,0,0,.19-.22.87.87,0,0,0,.14-.27l0-.14,5.41-14.24a5.9,5.9,0,0,0-.66-5.47,5,5,0,0,0-1.31-1.24l-9.82-6.1V556a8.27,8.27,0,0,1-1.26,1.18,7.37,7.37,0,0,1-1.26.78,5.17,5.17,0,0,1-1.25.44,5.66,5.66,0,0,1-1.23.14,7.05,7.05,0,0,1-3.08-.77,12.16,12.16,0,0,1-2.54-1.71,17.45,17.45,0,0,1-1.73-1.71c-.41-.47-.63-.78-.63-.78h-.13" fill="#2f2e41"/><path d="M689.43,527.61a3.72,3.72,0,0,0-.56.63,8.54,8.54,0,0,0-1.12,2,11.94,11.94,0,0,0-.77,3.59,18.82,18.82,0,0,0,.47,5.34,22.76,22.76,0,0,1,.55,6.58,23.4,23.4,0,0,1-.42,3.23,22.77,22.77,0,0,1-.89,3.13l-.12.34a1,1,0,0,1-.14.34l-.14.33-.15.34h0s.22.31.63.78A17.45,17.45,0,0,0,688.5,556a11.79,11.79,0,0,0,2.54,1.71,7.05,7.05,0,0,0,3.08.77,5.66,5.66,0,0,0,1.23-.14,5.17,5.17,0,0,0,1.25-.44,7.37,7.37,0,0,0,1.26-.78,8.27,8.27,0,0,0,1.26-1.18v-.06l-.36-2-1.86-10.36h-.06l-.15-.06-5.19-2.52a3.27,3.27,0,0,1-1.12-.63,3.87,3.87,0,0,1-.8-1,4.26,4.26,0,0,1-.4-1.3,4.17,4.17,0,0,1,.06-1.41,3.65,3.65,0,0,1,.43-1.09,3,3,0,0,1,1.58-1.36,2.63,2.63,0,0,1,1-.17H693l5,.68a8.35,8.35,0,0,0-.17-1,8.83,8.83,0,0,0-.3-1,7.69,7.69,0,0,0-.45-.91,5,5,0,0,0-.6-.85l-.21-.23-.23-.23-.24-.21-.26-.21-6-2.58" fill="#d0cde1"/><path d="M694.24,509.43a6.61,6.61,0,0,0-.89,0,5.43,5.43,0,0,0-.88.11,8.82,8.82,0,0,0-5.5,3.58,8.45,8.45,0,0,0-.87,1.48,2.69,2.69,0,0,0,.38.19l.39.15a3.43,3.43,0,0,0,.79.15h.39l.38-.08a1.58,1.58,0,0,0,.35-.16,1.5,1.5,0,0,0,.33-.23l.75.46a2.9,2.9,0,0,1-.13,1.24,3.4,3.4,0,0,1-.59,1.07,3.81,3.81,0,0,1-.91.79,3.33,3.33,0,0,1-1.09.44h-1.88a10.72,10.72,0,0,0,.13,1.39,8.89,8.89,0,0,0,.34,1.35,7.26,7.26,0,0,0,.54,1.25,6.49,6.49,0,0,0,.73,1.14,6.65,6.65,0,0,0,1.51,1.39,7.94,7.94,0,0,0,1.76.91,10.66,10.66,0,0,0,1.92.51,12.76,12.76,0,0,0,1.95.2h.22v-.32a9,9,0,0,1-.49-1.1,7.91,7.91,0,0,1-.3-1.16,4.28,4.28,0,0,1,0-1.13,2.55,2.55,0,0,1,.39-1,2.24,2.24,0,0,1,.8-.7,4,4,0,0,1,1-.35c.36-.08.73-.13,1.09-.2a6.36,6.36,0,0,0,1.06-.28,3.36,3.36,0,0,0,.43-.2,3.51,3.51,0,0,0,.4-.27c.12-.1.24-.2.36-.32a3.68,3.68,0,0,0,.32-.37,4.91,4.91,0,0,0,.58-.92,6.7,6.7,0,0,0,.38-1.06,6.28,6.28,0,0,0,.17-1.14,5.73,5.73,0,0,0,0-1.17,7,7,0,0,0-.47-1.62,6.95,6.95,0,0,0-2-2.6,5.71,5.71,0,0,0-1.33-.83,5.89,5.89,0,0,0-.58-.24l-.6-.17a4.21,4.21,0,0,0-.6-.11c-.2,0-.41-.05-.61-.06" fill="#2f2e41"/><path d="M679.84,510.59a7.45,7.45,0,0,0-1.16.06,7.74,7.74,0,0,0-1.16.25,11.83,11.83,0,0,0-1.13.42,10.88,10.88,0,0,0-1.08.54c-.53.3-1,.63-1.55,1l-1.52,1c-.5.35-1,.69-1.54,1a14.69,14.69,0,0,1-1.63.83,8.14,8.14,0,0,1-1.53.45,7,7,0,0,1-.8.1,7.18,7.18,0,0,1-1.85-.12,5.06,5.06,0,0,1-1-.32,5,5,0,0,1-.92-.53,5.16,5.16,0,0,1-.8-.75,7.59,7.59,0,0,0-.34,2.76,8,8,0,0,0,.63,2.63,7.27,7.27,0,0,0,1.46,2.21,6.55,6.55,0,0,0,2.17,1.5l.5.19a4.77,4.77,0,0,0,.51.13,4.71,4.71,0,0,0,.52.09h.52a6,6,0,0,0,.85,0,5.79,5.79,0,0,0,.83-.16c.27-.08.54-.18.81-.29a5.63,5.63,0,0,0,.76-.42,9,9,0,0,0,1.68-1.47c.51-.56,1-1.17,1.49-1.75a12.94,12.94,0,0,1,1.54-1.6,5,5,0,0,1,1.83-1,2.22,2.22,0,0,1,.37-.09l.38-.06h.77a6.87,6.87,0,0,1,.78.08,3.57,3.57,0,0,1,.79.16l.77.22.77.25.67.22c.22.08.45.15.68.21l.67.19.68.13h1.88a3.33,3.33,0,0,0,1.09-.44,3.81,3.81,0,0,0,.91-.79,3.4,3.4,0,0,0,.59-1.07,2.75,2.75,0,0,0,.13-1.24l-.75-.46a1.5,1.5,0,0,1-.33.23,1.58,1.58,0,0,1-.35.16l-.38.08h-.39a3.43,3.43,0,0,1-.79-.15l-.39-.15a2.69,2.69,0,0,1-.38-.19l-.18-.1-.18-.12-.17-.12a1.09,1.09,0,0,1-.17-.13,9.07,9.07,0,0,1-.81-.72l-.77-.77c-.26-.26-.52-.51-.79-.74a7.59,7.59,0,0,0-.86-.63,5.93,5.93,0,0,0-.56-.29,4,4,0,0,0-.58-.2,3.87,3.87,0,0,0-.59-.13,4.09,4.09,0,0,0-.6-.07" fill="#2f2e41"/><path d="M699.32,536.86l-1.21,5.63,14.38,2.66,4,.75h0a2.06,2.06,0,0,1,.12-.7,1.86,1.86,0,0,1,.39-.45,1.51,1.51,0,0,1,.49-.38,1.39,1.39,0,0,1,.6-.14,1.41,1.41,0,0,1,.6.16,1.69,1.69,0,0,1,.49.39,2.23,2.23,0,0,1,.33.58,2.16,2.16,0,0,1,.12.71v.31a.33.33,0,0,1,0,.14v.15h.07l.07-.06h.07l.07-.06a2.76,2.76,0,0,0,.53-.69,3.12,3.12,0,0,0,.3-.84,3.12,3.12,0,0,0-.15-1.81,3.13,3.13,0,0,0-.37-.7,2.51,2.51,0,0,0-.51-.52,2,2,0,0,0-.6-.33,2.09,2.09,0,0,0-.66-.13H718l-.24.08-.24.1h-.09l-.1.06-.09.06-.09.07L714,541l-14.52-4.09h-.13" fill="#ffb8b8"/><path d="M692.15,534a2.63,2.63,0,0,0-1,.17,3,3,0,0,0-1.58,1.36,3.65,3.65,0,0,0-.43,1.09,4.17,4.17,0,0,0-.06,1.41,4.26,4.26,0,0,0,.4,1.3,3.87,3.87,0,0,0,.8,1,3.27,3.27,0,0,0,1.12.63l5.19,2.52.15.06H697a.74.74,0,0,0,.36-.06.94.94,0,0,0,.32-.19,1.76,1.76,0,0,0,.24-.3,1.38,1.38,0,0,0,.15-.4v-.17l1.21-5.63.09-.39v-.19a1.43,1.43,0,0,0-.24-.94,1.22,1.22,0,0,0-.33-.31,1.08,1.08,0,0,0-.42-.16l-.51-.06-5-.68h-.75" fill="#d0cde1"/><path d="M718.13,544.19a1.39,1.39,0,0,0-.6.14,1.51,1.51,0,0,0-.49.38,1.81,1.81,0,0,0-.33.57,2.06,2.06,0,0,0-.12.7h0a2.06,2.06,0,0,0,.12.7,1.86,1.86,0,0,0,.33.58,1.72,1.72,0,0,0,.49.4,1.56,1.56,0,0,0,.6.15,1.32,1.32,0,0,0,.48-.09,1.76,1.76,0,0,0,.42-.24,2.43,2.43,0,0,0,.33-.38,2.09,2.09,0,0,0,.22-.48v-.15a.33.33,0,0,0,0-.14V546a2.16,2.16,0,0,0-.12-.71,2.23,2.23,0,0,0-.33-.58,1.69,1.69,0,0,0-.49-.39,1.41,1.41,0,0,0-.6-.16" fill="#6c63ff"/><path d="M749.77,601.86l-9.59.47-9.18.42-54,2.67-11.28.55L646,607a.94.94,0,0,0-.44.13,1,1,0,0,0-.35.3,1.7,1.7,0,0,0-.24.44,1.89,1.89,0,0,0-.08.53,1.82,1.82,0,0,0,.08.52,1.52,1.52,0,0,0,.24.41,1.31,1.31,0,0,0,.35.27,1,1,0,0,0,.44.08l103.86-5.35a.82.82,0,0,0,.63-.38,1.41,1.41,0,0,0,.19-.39,1.49,1.49,0,0,0,.07-.47,1.84,1.84,0,0,0-.06-.47,1.3,1.3,0,0,0-.19-.37.81.81,0,0,0-.28-.24.76.76,0,0,0-.36-.08" fill="#fff"/><path d="M736.27,568a7.57,7.57,0,0,0-.95.06,7,7,0,0,0-.91.18,9,9,0,0,0-.88.28,8,8,0,0,0-.84.38h0v.72c0,.45,0,1.1-.05,1.87a23.33,23.33,0,0,1-.33,2.63,17.29,17.29,0,0,1-.82,3l10-.2,3.15-.07a9.85,9.85,0,0,0-.74-3.47,9.23,9.23,0,0,0-1.81-2.8,8.33,8.33,0,0,0-2.63-1.88,7.58,7.58,0,0,0-3.22-.66" fill="#d8d8d6"/><path d="M722.24,548.2h-.72v2.74l.06,1.56a11.64,11.64,0,0,0,.06,1.47c.06.47,0,.82.06,1.1a4,4,0,0,0,0,.49,24.3,24.3,0,0,1-.48,20.79,22.1,22.1,0,0,1-3.79,5.4,17.51,17.51,0,0,1-1.67,1.55,19.71,19.71,0,0,1-1.82,1.33,16.91,16.91,0,0,1-4,1.91l-.47.14-.47.12-.48.11-.48.1-.59.1-.6.08h-3a3,3,0,0,1-.93-.1,7.5,7.5,0,0,0-.93-.15h-.22l-.21-.05h-.41l-.12-.14h-.38l-.19-.06a7.34,7.34,0,0,1-2.47-1.42,8.32,8.32,0,0,1-1.84-2.29,9.69,9.69,0,0,1-1-2.9,10.34,10.34,0,0,1-.12-3.33,29.55,29.55,0,0,0,.19-4.51,17.77,17.77,0,0,0-.43-3.4,10.66,10.66,0,0,0-.87-2.47,7.42,7.42,0,0,0-1.15-1.69,6.55,6.55,0,0,0-1.28-1.07,6,6,0,0,0-1.2-.56,4.84,4.84,0,0,0-.93-.22h-.48l-11.51.06-3.47-3.5-2.68-2.64a3,3,0,0,0-.27-.23l-.3-.16a1.58,1.58,0,0,0-.31-.09.86.86,0,0,0-.32,0h-.36a1.48,1.48,0,0,0-.35.13,1.81,1.81,0,0,0-.33.2,3.83,3.83,0,0,0-.28.29l-.11.15a.86.86,0,0,0-.1.16s-.05.11-.08.16l-.06.18-.61,1.86-.19.55a10.89,10.89,0,0,0-1.11.22,15,15,0,0,0-2.66.94,12.94,12.94,0,0,0-3.22,2.1,11.22,11.22,0,0,0-2.73,3.67,12.38,12.38,0,0,0-.59,1.53,16.92,16.92,0,0,0-.41,1.74,16.71,16.71,0,0,0-.19,2,19.82,19.82,0,0,0,0,2.18l3.7-.06v1.1h1.63l18.3-.48,6.78-.18h0a2.4,2.4,0,0,1,1.09.23,2.92,2.92,0,0,1,.91.65,3.05,3.05,0,0,1,.62,1,3.1,3.1,0,0,1,.24,1.2,3.43,3.43,0,0,1-.22,1.23,3.11,3.11,0,0,1-1.45,1.7,2.49,2.49,0,0,1-1.07.27h-4.28a14.29,14.29,0,0,0-.28,3.75,12.6,12.6,0,0,0,.64,3.22,12.47,12.47,0,0,0,1.33,2.72,14.89,14.89,0,0,0,1.8,2.23l.46.45.47.42.48.4.48.38a19.46,19.46,0,0,0,2.53,1.58,17.61,17.61,0,0,0,2.7,1.11,15.73,15.73,0,0,0,2.8.62,16.19,16.19,0,0,0,2.87.13h.12l11-.46a18.8,18.8,0,0,0,4.71-.79,15.42,15.42,0,0,0,6.53-4,17.71,17.71,0,0,0,2.08-2.57,19.33,19.33,0,0,0,1.43-2.55,21.47,21.47,0,0,0,.9-2.22c.22-.65.37-1.18.46-1.56s.13-.59.13-.59a10.06,10.06,0,0,0,3.15-2.65,11.64,11.64,0,0,0,1.07-1.62,12.26,12.26,0,0,0,.79-1.73,17.29,17.29,0,0,0,.82-3,23.33,23.33,0,0,0,.33-2.63c.05-.77.06-1.42.05-1.87s0-.72,0-.72h0a50.78,50.78,0,0,0-.71-8.35,25.61,25.61,0,0,0-1.64-5.76,13.9,13.9,0,0,0-2.21-3.63,9.15,9.15,0,0,0-2.38-2,7.18,7.18,0,0,0-1-.5,7,7,0,0,0-1.8-.45h-.67" fill="#d8d8d6"/></g><rect x="692.61" y="24.68" width="336.85" height="209.76" fill="#e6e6e6"/><rect x="715.2" y="65.09" width="61.69" height="40.1" fill="#fff"/><rect x="791.86" y="65.09" width="61.69" height="40.1" fill="#fff"/><rect x="868.52" y="65.09" width="61.69" height="40.1" fill="#fff"/><rect x="945.18" y="65.09" width="61.69" height="40.1" fill="#fff"/><rect x="715.2" y="121.85" width="61.69" height="40.1" fill="#fff"/><rect x="791.86" y="121.85" width="61.69" height="40.1" fill="#fff"/><rect x="868.52" y="121.85" width="61.69" height="40.1" fill="#fff"/><rect x="945.18" y="121.85" width="61.69" height="40.1" fill="#fff"/><rect x="715.2" y="178.61" width="61.69" height="40.1" fill="#fff"/><rect x="791.86" y="178.61" width="61.69" height="40.1" fill="#fff"/><rect x="868.52" y="178.61" width="61.69" height="40.1" fill="#fff"/><rect x="945.18" y="178.61" width="61.69" height="40.1" fill="#fff"/><circle cx="780.83" cy="40.1" r="9.25" fill="#fff"/><circle cx="933.84" cy="40.1" r="9.25" fill="#fff"/><rect x="777.13" width="7.4" height="42.57" fill="#e6e6e6"/><rect x="930.13" width="7.4" height="42.57" fill="#e6e6e6"/><path d="M836.66,141.89a13.92,13.92,0,1,1-2.16-7.45A13.92,13.92,0,0,1,836.66,141.89Z" fill="#6c63ff"/><path d="M834.5,134.44l-13.73,13.73c-.86-1.33-5.67-7.55-5.67-7.55a18.39,18.39,0,0,1,2-1.73l4,5.31,11.84-11.84A13.77,13.77,0,0,1,834.5,134.44Z" fill="#fff"/><path d="M836.66,197.75a13.93,13.93,0,1,1-2.16-7.45A13.93,13.93,0,0,1,836.66,197.75Z" fill="#6c63ff"/><path d="M834.5,190.34l-13.73,13.73c-.86-1.34-5.67-7.55-5.67-7.55a18.33,18.33,0,0,1,2-1.74l4,5.32,11.84-11.84A13.77,13.77,0,0,1,834.5,190.34Z" fill="#fff"/><path d="M834.5,85.15a13.89,13.89,0,1,1-2.15-7.46A13.89,13.89,0,0,1,834.5,85.15Z" fill="#6c63ff"/><path d="M832.35,77.69,818.61,91.43c-.86-1.34-5.67-7.55-5.67-7.55a22.06,22.06,0,0,1,2-1.74l4,5.32,11.84-11.84A13.75,13.75,0,0,1,832.35,77.69Z" fill="#fff"/><rect x="459.89" y="927.46" width="56.22" height="12.97" fill="#d8d8d6"/></svg>