<svg version="1.1" id="f1b25b43-9e03-45b3-af71-047f5bd7d8f3" xmlns="http://www.w3.org/2000/svg" xmlns:xlink="http://www.w3.org/1999/xlink" x="0" y="0" viewBox="0 0 1700 1700" style="enable-background:new 0 0 1700 1700" xml:space="preserve"><style>.st0{fill:#686868}.st1{fill:#e6e6e6}.st2{fill:#6c63ff}.st3{fill:#a0616a}.st4{fill:#2f2e41}.st5{fill:#ccc}.st6{fill:#ffb8b8}.st7{fill:#3f3d56}.st8{fill:#ffb6b6}.st9{fill:#735b4e}.st10{fill:#f2f2f2}.st11{fill:#cacaca}.st12{fill:#fff}.st13{fill:#37221e}.st14{fill:#29221a}.st15{opacity:.7}.st17{opacity:.1;enable-background:new}.st18{fill:#d0d1be}.st19{fill:#90917b}.st20{fill:#303030}.st21{fill:#5e5e5e}.st22{fill:#b4c738}.st23{fill:#191919}.st26{opacity:.1;fill:#fff;enable-background:new}.st46{fill:#c0c2a9}.st47{fill:#333}.st48{fill:#353535}</style><path class="st0" d="M709.9 697.6H589.1c-14.7 0-26.7-12-26.7-26.7V595c0-14.7 12-26.7 26.7-26.7h120.8c14.7 0 26.7 12 26.7 26.7v75.9c-.1 14.7-12 26.6-26.7 26.7zM709.9 964.5H589.1c-14.7 0-26.7-12-26.7-26.7v-75.9c0-14.7 12-26.7 26.7-26.7h120.8c14.7 0 26.7 12 26.7 26.7v75.9c-.1 14.7-12 26.6-26.7 26.7z"/><image style="overflow:visible" width="823" height="823" xlink:href="../../../../Documents/_Profile photos/2020/full-size-square.jpg" transform="translate(-1567.494 -1515.063) scale(.6362)"/><path class="st1" d="m-1036-312 61.9-61.7-61.9-61.8 18.9-18.8 80.8 80.6-80.8 80.5-18.9-18.8zM-1212.9-398.5h25.2v25.2h-25.2zM-1111.7-398.5h25.2v25.2h-25.2zM-1162.3-398.5h25.2v25.2h-25.2zM-1247-312.6l-62-61.8 62-61.7-18.9-18.8-80.8 80.5 80.8 80.6z"/><path class="st2" d="m-1036-324 61.9-61.7-61.9-61.8 18.9-18.8 80.8 80.6-80.8 80.6-18.9-18.9zM-1212.9-381.3h25.2v-25.2h-25.2v25.2zm126.4-25.2h-25.2v25.2h25.2v-25.2zm-75.8 25.2h25.2v-25.2h-25.2v25.2zM-1247-324.6l-62-61.7 62-61.8-18.9-18.8-80.8 80.6 80.8 80.5z"/><path class="st3" d="m-1550.2-123.3 14.1 3.4 19.9-52.7-20.8-5z"/><path class="st4" d="m-1556.8-110.6 4.3-17.9 27.6 6.7c9.7 2.3 15.6 12.1 13.3 21.7l-.1.4-45.1-10.9z"/><path class="st3" d="M-1487.8-113.7h14.5l6.9-55.9h-21.4z"/><path class="st4" d="M-1491.3-118.2h28.4c9.9 0 18 8.1 18 18v.4h-46.4v-18.4zM-1491.2-133l2.4-87-3.2-35.3-6.3 27.2-27.4 89.3-23.6-6.2 27.3-96.3-5.9-61.7 17.1-11h.2l58.3 10.7-14.1 167.8-24.8 2.5z"/><path class="st5" d="M-1468.1-291.2c-4.7 0-10.2-1.5-16.3-5.8-19.6-13.8-42.9 1-43.1 1.2l-.9.6v-1.1c0-.8 2.4-80.7 2.4-106.4 0-26.6 17.3-46 22.6-51.3 5.2-5.2 9.6-5.1 15.2-5 1 0 2 .1 3 .1 7.3 0 14.3 7 14.6 7.3l.1.1v.2l20.1 151.6-.2.2c0 .1-6.6 8.3-17.5 8.3z"/><circle class="st3" cx="-1482.2" cy="-496.9" r="29"/><path class="st3" d="M-1437.7-266.9c-5.2-4-6.1-11.5-2.1-16.7.4-.6.9-1.1 1.4-1.5l-16.5-38.9 21.6 4 12.4 36.3c4.1 5.2 3.2 12.7-2 16.8-4.3 3.4-10.4 3.4-14.8 0z"/><path class="st5" d="m-1442.4-289-29.8-60.8-13.1-45.8v-39.8c0-.2 3.1-15.6 14.5-14.6 10.3 1 15.9 6 18.6 16.9 2.3 9.2-.8 36.5-1.2 39.1 2 4.7 32 76.2 27 84.8-.2.3-.5.6-.8.8l5.3 11.2-20.5 8.2z"/><path class="st4" d="M-1485.9-486c3.5.5 6.1-3.1 7.3-6.4s2.1-7.1 5.2-8.9c4.1-2.4 9.4.5 14.2-.3 5.3-.9 8.8-6.6 9.1-12 .3-5.4-1.9-10.6-4-15.6l-.7 6.2c.2-4.3-1.8-8.3-5.4-10.7l1 9.1c-.8-5.3-5.8-8.8-11.1-8l.1 5.4c-6.2-.7-12.4-1.5-18.6-.9s-12.4 2.5-17.1 6.6c-7 6.1-9.6 16.1-8.7 25.4.9 9.3 4.7 17.9 8.7 26.3 1 2.1 2.4 4.5 4.7 4.8 2.1.2 4-1.5 4.6-3.5.5-2.1.5-4.2-.1-6.2-.6-3.1-1.3-6.3-.8-9.4s2.8-6.2 6-6.6 6.4 3.2 4.9 6l.7-1.3z"/><path class="st6" d="M-766.9-270.8c-3.7-4.2-3.2-10.5.9-14.2.4-.4.9-.7 1.4-1l-7.4-35 17.3 6.8 4.4 32.2c2.6 5 .6 11.1-4.3 13.6-4.1 2.1-9.2 1.2-12.3-2.4z"/><path class="st5" d="m-768.8-298-.1-.3c-9.3-34.6-19-70.3-30.8-109.2l-.1-.3.3-.2c6.6-3.8 16.5-3.6 23 .6 6.1 3.9 9 11.2 7.4 18.2l8.6 44.9c3.5 14.7 7.1 29.8 10.6 44.8l.1.4h-.5c-6.3.4-12.8.8-18 1l-.5.1z"/><path class="st6" d="M-848.3-112h-12.2l-5.9-47.3h18.1z"/><path class="st4" d="M-845.1-100.1h-39.5v-.5c0-8.5 6.9-15.4 15.4-15.4h24.1v15.9z"/><path class="st6" d="m-732.7-122.1-11.7 3.7-19.9-43.3 17.2-5.4z"/><path class="st4" d="m-763.8-99.7-.2-.5c-2.6-8.1 1.9-16.7 10-19.3l23-7.3 4.8 15.1-37.6 12z"/><circle class="st6" cx="-794.8" cy="-463.8" r="24.6"/><path class="st4" d="M-783.8-468.4c.1-9.9-4-19.7-10.4-24.6-6.2-4.9-15.1-4.8-21.1.4-6.3 5.2-10.3 15.1-9.9 25 14.1 0 28.2 0 41.4-.8zM-841.3-127.2h-.5c-10.7-1-21.7-2.1-32.1-2.3h-.6l.1-.6c2.5-17.9 3.5-36.5 4.5-54.5 1-17.8 2-36.1 4.4-53.6 1-4.7 2-9.3 3-13.9 8.2-38 15.9-74 31.9-109.5l.2-.3h.4c15 1.8 29.4 7.3 40.5 15.4l.2.2v.3c-.2 5.5-.4 11.2-.1 16.4 10.3 14.3 13.2 32.5 8 49.3 4.4 14.7 8.9 29.8 13.6 44.8 11.2 30.8 22.9 62.8 34.8 95.1l.2.5-.6.1c-8.6 2-17.4 4.1-26.2 4.9h-.3l-.2-.3c-22.3-41.5-40.4-85-54.1-130.1-3 9.1-7.3 17.3-11.4 25.2-4 7.2-7.5 14.7-10.5 22.4-1.8 15.1-2.3 31.5-2.8 47.3-.4 15-.9 29.1-2.3 42.4l-.1.8z"/><path class="st4" d="M-803.2-492.6c10.6-2.3 22.4-.1 30.8 7.1s12.6 19.6 9.2 30.3-15.1 18.2-25.6 15.4c3-8.5-.4-19-7.8-23.9-8.8-5.8-11.2-19.7-6.6-28.9z"/><path class="st5" d="m-790.3-345.4-.4-.2c-13.6-6.2-26.9-11-39.4-15.3l-.4-.1v-1.1l.2.1c.1-.1.1-.2.2-.4l.4-.8c1-2.1 1.9-4.2 2.7-6.1.8-2 1.7-4.2 2.8-6.4-5.5-5.5-7.1-13.7-4.3-20.8 2.8-6.5 9.8-11.6 17.2-12.5 2.7-7.4 8.7-23.1 8.7-23.1s12.7-.3 17.8-1h.2c11.1 2.4 20.4 13 22.6 25.6 1.8 10.7-1 22.9-7.8 34.4-3.5 5.6-7.4 11-11.7 16.1-3.1 3.9-6 7.6-8.5 11.2l-.3.4z"/><path class="st4" d="M-766.2-475.9zM-765.7-478c-7.5-1.1-13.3-8.7-12.5-16.2s8.3-13.6 15.8-13 13.9 7.8 13.6 15.3-7.4 15.3-16.9 13.9z"/><path class="st4" d="M-766.8-482.9c-7.5-1.1-13.3-8.7-12.5-16.2.8-5.2 4.1-9.6 8.9-11.7-6 1.3-11.2 6.6-11.9 12.7-.8 7.5 5 15.1 12.5 16.2 2.8.4 5.6 0 8.2-1.1-1.8.3-3.5.4-5.2.1z"/><path class="st6" d="M-911.4-350.9c2.7-4.8 8.8-6.6 13.7-3.9.5.3 1 .6 1.5 1l30.5-18.7-.6 18.6-28.8 14.9c-3.8 4.1-10.2 4.3-14.3.5-3.5-3.2-4.3-8.4-2-12.4z"/><path class="st5" d="m-886.3-361.9.3-.2c29.5-20.3 60-41.3 92.7-65.4l.2-.2.2.2c5.8 4.9 8.9 14.3 7.1 21.9-1.7 7-7.5 12.2-14.7 13.1l-39.4 23.1c-12.7 8.2-25.8 16.7-38.7 24.9l-.4.2-.2-.5c-2.5-5.8-5-11.8-7-16.6l-.1-.5z"/><path class="st7" d="M-1297.5-99h-381c-.6 0-1-.4-1-1s.4-1 1-1h381c.6 0 1 .4 1 1s-.4 1-1 1zM-622.5-99h-381c-.6 0-1-.4-1-1s.4-1 1-1h381c.6 0 1 .4 1 1s-.4 1-1 1z"/><path id="b6132315-04e2-4cdb-a713-107c9cd58b0b_00000101806003809763886680000001631560397120137136_" class="st8" d="M-2327.3-1048.6c59.3-8.1 65.6 46.5 65.6 91.4s-29.9 80.4-65.6 80.4c-35.7 0-64.6-36.5-64.6-81.4s6.3-82.4 64.6-90.4z"/><path class="st9" d="M-2390-942.7s-5.2-50 9-64c14.2-14.1 24.7-27.6 49.5-29.1 29.3-1.9 42.3-15.3 63.2 36.4 4.5 11.1 5.7 29.7 5.7 29.7l4.2-8.5s.3-7.3-2.2-24c-2.4-15.4-6-20-8.6-30.5-6.3-25.2-27.5-40.2-47.8-42.2-20.3-2-46.7 7.4-52.4 12.2-5.7 4.7-14.2 18.8-14.2 18.8s-13.2 9.4-14.1 15.1c-1 5.7-3.4 25.4-3.4 25.4s3.9 30.2 4.6 35.7c.9 6.9.6 16.8.6 16.8l5.9 8.2z"/><path class="st10" d="M-1839.6-744.2c.1 91.7-35.3 179.8-98.8 245.9-3.8 4-7.8 7.9-11.8 11.7-6.2 5.8-12.5 11.5-19.1 16.9-61.4 50.6-138 79-217.6 80.7-2.6.1-5.3.1-8 .1-63.4 0-143.2-33.9-215.6-80.8-6-3.9-11.9-7.9-17.8-11.9-2.8-1.9-5.5-3.8-8.2-5.7-27.9-19.7-54.4-41.4-79.3-64.8-16.3-15.3-31.6-31.6-45.8-48.9-55.6-68.6-67.9-130.5 11.4-143.2 9.4-1.5 18.5-3.1 27.3-4.8 12.8-2.5 25.1-5.1 36.8-8 15.8-3.8 30.6-8 44.4-12.5 4.7-1.5 9.2-3 13.7-4.6 65.7-23.1 109.7-53.2 139.7-85.9 5.1-5.5 9.8-11.1 14.1-16.8 6.6-8.6 12.5-17.7 17.8-27.1a259.5 259.5 0 0 0 18.4-41l.3-.8c23.8-68.7 16.6-132.5 42.9-153.8 112.4-91.2 252.3 38.7 318 191.9 3.3 7.7 6.4 15.5 9.3 23.3 1.3 3.5 2.6 7 3.8 10.5 3.2 9.1 6.1 18.3 8.7 27.5 1 3.5 2 7 2.9 10.5 1 3.8 1.9 7.5 2.8 11.3 6.3 27.5 9.7 54.6 9.7 80.3z"/><path class="st4" d="M-2186.9-389c-2.6.1-5.3.1-8 .1-63.4 0-143.2-33.9-215.6-80.8-6-3.9-11.9-7.8-17.8-11.9l5.2-31.4 156.2-20.7 78.4 60 1.6 84.7zM-2270.3-469.7h-.7.6z"/><path class="st11" d="m-2146.9-784.6-.2 1.2-2.5 13-17.1 90.2-1 5.3-2.1 11.2-2.9 15.3-6.4 34-1.8 9.7-.7 3.6-.2 1.3-1.9 10.1-.6 3-4.7 34.5-4.1 30.1 13.6 13.6-8.1 8.1-5.3 30.5v.1h-217.5c-8.8-5.7-17.5-11.6-26-17.6l1.8-13.4s6.2-23.9 3.6-26.8c-2.6-2.9-8.2-8-8.2-8l7.1-16.6 1-2.3-1.7-34.4v-.8l-.6-11.4-.1-1.5-.1-2.2-2.1-43.7v-.7l-.6-13.2-.6-12.6-.3-5.3-2.6-53.1-1.7-36.1-1.5-31.4 6.1-2.1 65.4-22.2 27.1-35.2 56.3.4 27.6.2 46 42.7 10.5 5h.1l7.5 3.6 19 9.1 20.1 9.6 10.3 4.9.1.3z"/><path class="st8" d="M-2337.3-572.2c-15.6 6-33.1-1.7-39.2-17.3-.6-1.7-1.1-3.4-1.5-5.1l-106.6-15.1 37-41.9 95.5 20.8c16.7-2.1 31.9 9.7 34.1 26.4 1.9 13.9-6.2 27.2-19.3 32.2z"/><path class="st11" d="M-2384.3-648.4c-1.6-2.5-4-4.2-6.6-4.9l-36.4-9.1-3.7-.9c-4.4-1.1-8.2-4.4-10.4-9.1-1.2-2.4-1.8-5.1-2-7.9-.2-2.5.1-5.1.7-7.5l12.6-45.7 8.2-29.6c1-3.6 1.6-7.3 1.7-11 .5-10.4-2.2-20.7-7.5-28.9-9.6-14.8-26.2-20.4-40.8-13.6l-.6.3c-10.3 5-18.2 15.5-21.1 28.4l-8.9 38.9-18.3 80.1c-7 30.8 8 62.6 33.6 71 2.3.8 4.7 1.3 7.1 1.7l52.4 7.4 24.3 3.4c5.8.8 11.2-3.8 12.4-10.7 0-.2.1-.4.1-.6l.6-4.3 4.9-36.4v-.4c.4-3.7-.4-7.6-2.3-10.6z"/><path class="st8" d="M-2272-571c14.6 3.8 29.1-6.4 32.5-22.7.4-1.7.6-3.5.7-5.3l92.3-30-38-36.3-81.8 34c-15 .2-27 14.1-26.8 30.9.1 14.2 8.9 26.3 21.1 29.4z"/><path class="st11" d="m-2132-696-35.3-113.1c-2.9-9.3-8.1-16.9-14.6-21.4-2-1.4-4.1-2.5-6.3-3.2-.3-.1-.7-.2-1-.3-4.6-1.4-9.4-1.3-14 .4-8.5 3-15.6 10.9-19.6 21.7 0 0 0 .1-.1.1-4.5 12.2-4.6 26.6-.3 38.9l.4 1.2 25 69.8c3.3 9.3.6 20.7-6.1 25.3-.5.3-.9.6-1.4.9l-1.8.9-31.5 15.8c-4.9 2.4-7.6 9.9-6 16.8l.1.4 8.8 39.4c0 .2.1.4.1.5.1.3.2.7.3 1 1.9 6.1 6.8 9.3 11.4 7.5l17-6.2 3.5-1.3 43.9-16.1c22.2-8.1 35.4-39.8 29.5-70.6-.5-3-1.2-5.8-2-8.4z"/><path class="st7" d="M-2561.5-601c14.2 17.3 29.5 33.6 45.8 48.9h452c9.1 0 16.4 7.4 16.4 16.4l.7 114.5c27.8-12.8 53.8-29.1 77.5-48.5 6.6-5.4 12.9-11 19.1-16.9 4-3.8 8-7.7 11.8-11.7 28.8-30 52.1-64.7 68.8-102.7h-692.1z"/><path class="st12" d="M-1938.4-498.3c-3.8 4-7.8 7.9-11.8 11.7h-96.2v-11.7h108z"/><path class="st7" d="M-2147.8-873.8c-1-1.8-2.8-2.9-4.9-2.9h-327.8c-3.1 0-5.5 2.5-5.5 5.5V-675h338.9v-196.2c0-.9-.2-1.8-.7-2.6z"/><path class="st7" d="M-2486.3-680.2v24.2c0 4.2 3.4 7.6 7.6 7.6h125.1v47.8h-1.7c-.5 0-1 .4-1 1v3.3c0 .5.4 1 1 1h77.7c.5 0 1-.4 1-1v-3.3c0-.5-.4-1-1-1h-1.7v-47.8h125.1c4.2 0 7.6-3.4 7.6-7.6v-24.2h-339.7z"/><circle class="st2" cx="-2320.5" cy="-781" r="31.3"/><path class="st13" d="M-2331.6-1038.7c-6 1.7-11.7 1.1-17.2 4-6.2 3.3-12.5 7-18.5 11.2-10.6 2.5-25.5 28.8-28.4 24.8 3-13.4 13.4-35.5 29.8-42.8 6.8-3.1 22.3-7 29.6-8.5 1.8.5 9.9 3.3 13.2 3.6 25-.7 10.3 5.9-8.5 7.7z"/><path class="st14" d="M-2333.2-1045.8c-6 1.7-11.7 1.1-17.2 4-6.2 3.3-12.5 7-18.5 11.2-10.6 2.5-25.5 28.8-28.4 24.8 2.9-11.4 13.4-35.5 29.8-42.8 6.8-3.1 15.3-4 22.6-5.5 9.7-1.4 19.3-1.1 20.2.6 21 6.5 15.3 7.9-8.5 7.7z"/><path class="st1" d="m-1871.9-884.7 61.9-61.8-61.9-61.7 18.8-18.8 80.9 80.5-80.9 80.6-18.8-18.8zM-2048.8-971.2h25.2v25.2h-25.2zM-1947.6-971.2h25.2v25.2h-25.2zM-1998.2-971.2h25.2v25.2h-25.2zM-2082.9-885.4l-62-61.7 61.9-61.7-18.9-18.9-80.7 80.6 80.8 80.6z"/><path class="st2" d="m-1871.9-896.7 61.9-61.7-61.9-61.8 18.8-18.8 80.9 80.6-80.9 80.5-18.8-18.8zM-2048.8-954h25.2v-25.2h-25.2v25.2zm126.4-25.2h-25.2v25.2h25.2v-25.2zm-75.8 25.2h25.2v-25.2h-25.2v25.2zM-2082.9-897.3l-62-61.8 61.9-61.7-18.9-18.8-80.7 80.5 80.8 80.6z"/><g class="st15"><linearGradient id="SVGID_1_" gradientUnits="userSpaceOnUse" x1="-1898.225" y1="-1034.307" x2="-1898.225" y2="-942.501" gradientTransform="matrix(1 0 0 -1 -114.28 -1636.448)"><stop offset="0" style="stop-color:gray;stop-opacity:.25"/><stop offset=".535" style="stop-color:gray;stop-opacity:.12"/><stop offset="1" style="stop-color:gray;stop-opacity:.1"/></linearGradient><path d="M-1982.2-677.6V-694h-82v75.8c0 8.8 7.2 16 16 16h50c8.8 0 16-7.2 16-16V-635c11.8 0 21.3-9.6 21.3-21.4 0-11.6-9.5-21.1-21.3-21.2zm0 34.5v-26.2c7.2 0 13.1 5.9 13.1 13.1s-5.8 13.1-13.1 13.1z" style="fill:url(#SVGID_1_)"/></g><path class="st2" d="M-1984.8-675c-10.7 0-19.5 8.7-19.5 19.5 0 10.7 8.7 19.5 19.5 19.5 10.7 0 19.5-8.7 19.5-19.5s-8.7-19.5-19.5-19.5zm0 31.4c-6.6 0-12-5.4-12-12s5.4-12 12-12 12 5.4 12 12c0 6.7-5.4 12-12 12z"/><path class="st17" d="M-1984.8-675c-10.7 0-19.5 8.7-19.5 19.5 0 10.7 8.7 19.5 19.5 19.5 10.7 0 19.5-8.7 19.5-19.5s-8.7-19.5-19.5-19.5zm0 31.4c-6.6 0-12-5.4-12-12s5.4-12 12-12 12 5.4 12 12c0 6.7-5.4 12-12 12z"/><path class="st2" d="M-2059.6-690h74.8v74.1c0 5.4-4.4 9.8-9.8 9.8h-55.3c-5.4 0-9.8-4.4-9.8-9.8V-690h.1z"/><path class="st17" d="M-1998.3-690v69.2c0 8.1-6.5 14.6-14.6 14.6h7.5c8.1 0 14.6-6.5 14.6-14.6V-690h-7.5z"/><path class="st11" d="M-2044.9-745.8c-1.3.2-2.7.6-3.3 1.7-1 1.8.8 3.8 2.4 5 3 2.3 6.2 4.5 8.2 7.6s2.7 7.6.5 10.6c-2.9 3.9-9.9 4.8-10.5 9.7-.4 3.1 2.3 5.8 5 7.3 6.7 3.9 15.4 4.9 20.3 10.9 2-4.2 6.5-6.6 11-7.6s9.2-.9 13.7-1.6c1.5-.2 3.1-.7 3.8-2 1.3-2.6-2.4-5.7-1.1-8.3 1-2 3.8-1.8 5.8-2.6 3.3-1.3 4.7-5.6 3.8-9-.9-3.5-3.6-6.1-6.4-8.4-7.6-6-16.7-9.5-25.9-12-4.3-1.2-9.3-3-13.8-3.2-4.3-.1-9.2 1.2-13.5 1.9z"/><path class="st18" d="M-3060.5 1457.8c-5.8.1-11.7.2-17.5.2-139.5 0-314.9-74.5-474.1-177.6-13.2-8.5-26.2-17.3-39.2-26.2l11.3-69.1 343.5-45.6 172.4 131.8 3.6 186.5z"/><path class="st19" d="M-3879.4 982.5c31.2 38 64.8 73.9 100.6 107.6h993.9c19.9 0 36.1 16.2 36.1 36.1l1.4 251.9c61.1-28.1 118.4-64 170.4-106.7 14.4-11.9 28.4-24.2 41.9-37.1 8.9-8.4 17.5-17 25.9-25.8 63.3-65.9 114.5-142.4 151.3-225.9h-1521.5z"/><path d="M-2473.8 1056.3c-8.4 8.8-17.1 17.4-25.9 25.8h-211.6v-25.8h237.5z"/><path id="b6132315-04e2-4cdb-a713-107c9cd58b0b_00000075862754188725326600000013168339001245430164_" class="st8" d="M-3486.2-1048.6c59.3-8.1 65.6 46.5 65.6 91.4s-29.9 80.4-65.6 80.4c-35.7 0-64.6-36.5-64.6-81.4s6.3-82.4 64.6-90.4z"/><path class="st9" d="M-3548.9-942.7s-5.2-50 9-64c14.2-14.1 24.7-27.6 49.5-29.1 29.3-1.9 42.3-15.3 63.2 36.4 4.5 11.1 5.7 29.7 5.7 29.7l4.2-8.5s.3-7.3-2.2-24c-2.4-15.4-6-20-8.6-30.5-6.3-25.2-27.5-40.2-47.8-42.2-20.4-2-46.7 7.4-52.4 12.2-5.7 4.7-14.2 18.8-14.2 18.8s-13.2 9.4-14.1 15.1c-1 5.7-3.4 25.4-3.4 25.4s3.9 30.2 4.6 35.7c.9 6.9.6 16.8.6 16.8l5.9 8.2z"/><path class="st20" d="M-2998.5-744.2c.1 91.7-35.3 179.8-98.9 245.9-3.8 4-7.8 7.9-11.8 11.7-6.2 5.8-12.5 11.5-19.1 16.9-61.4 50.6-138 79-217.6 80.7-2.6.1-5.3.1-8 .1-63.4 0-143.2-33.9-215.6-80.8-6-3.9-11.9-7.9-17.8-11.9-2.8-1.9-5.5-3.8-8.2-5.7-27.9-19.7-54.4-41.4-79.3-64.8-16.3-15.3-31.6-31.6-45.8-48.9-55.6-68.6-67.9-130.5 11.4-143.2 9.4-1.5 18.5-3.1 27.3-4.8 12.8-2.5 25.1-5.1 36.8-8 15.8-3.8 30.6-8 44.4-12.5 4.7-1.5 9.2-3 13.7-4.6 65.7-23.1 109.7-53.2 139.7-85.9 5.1-5.5 9.8-11.1 14.1-16.8 6.6-8.6 12.5-17.7 17.8-27.1a259.5 259.5 0 0 0 18.4-41l.3-.8c23.8-68.7 16.6-132.5 42.9-153.8 112.4-91.2 252.3 38.7 318 191.9 3.3 7.7 6.4 15.5 9.3 23.3 1.3 3.5 2.6 7 3.8 10.5 3.2 9.1 6.1 18.3 8.7 27.5 1 3.5 2 7 2.9 10.5 1 3.8 1.9 7.5 2.8 11.3 6.4 27.5 9.8 54.6 9.8 80.3z"/><path class="st19" d="M-3345.8-389c-2.6.1-5.3.1-8 .1-63.4 0-143.2-33.9-215.6-80.8-6-3.9-11.9-7.8-17.8-11.9l5.2-31.4 156.2-20.7 78.4 60 1.6 84.7z"/><path class="st18" d="M-3429.3-469.7h-.6.6z"/><path class="st21" d="m-3305.8-784.6-.2 1.2-2.5 13-17.1 90.2-1 5.3-2.1 11.2-2.9 15.3-6.4 34-1.8 9.7-.7 3.6-.2 1.3-1.9 10.1-.6 3-4.7 34.5-4.1 30.1 13.6 13.6-8.1 8.1-5.3 30.5v.1h-217.5c-8.8-5.7-17.5-11.6-26-17.6l1.8-13.4s6.2-23.9 3.6-26.8c-2.6-2.9-8.2-8-8.2-8l7.1-16.6 1-2.3-1.7-34.4v-.8l-.6-11.4-.1-1.5-.1-2.2-2.1-43.7v-.7l-.6-13.2-.6-12.6-.3-5.3-2.6-53.1-1.7-36.1-1.5-31.4 6.1-2.1 65.4-22.2 27.1-35.2 56.3.4 27.6.2 46 42.7 10.5 5h.1l7.5 3.6 19 9.1 20.1 9.6 10.3 4.9.1.3z"/><path class="st8" d="M-3496.2-572.2c-15.6 6-33.1-1.7-39.2-17.3-.6-1.7-1.1-3.4-1.5-5.1l-106.6-15.1 37-41.9 95.5 20.8c16.7-2.1 31.9 9.7 34.1 26.4 1.8 13.9-6.2 27.2-19.3 32.2z"/><path class="st21" d="M-3543.3-648.4c-1.6-2.5-4-4.2-6.6-4.9l-36.4-9.1-3.7-.9c-4.4-1.1-8.2-4.4-10.4-9.1-1.2-2.4-1.8-5.1-2-7.9-.2-2.5.1-5.1.7-7.5l12.6-45.6 8.2-29.6c1-3.6 1.6-7.3 1.7-11 .5-10.4-2.2-20.7-7.5-28.9-9.6-14.8-26.2-20.4-40.8-13.6l-.6.3c-10.3 5-18.2 15.5-21.1 28.4l-8.9 38.8-18.3 80.1c-7 30.8 8 62.6 33.6 71 2.3.8 4.7 1.3 7.1 1.7l52.4 7.4 24.3 3.4c5.8.8 11.2-3.8 12.4-10.7 0-.2.1-.4.1-.6l.6-4.3 4.9-36.4v-.4c.5-3.7-.3-7.6-2.3-10.6z"/><path class="st8" d="M-3430.9-571c14.6 3.8 29.1-6.4 32.5-22.7.4-1.7.6-3.5.7-5.3l92.3-30-38-36.3-81.8 34c-15 .2-27 14.1-26.8 30.9.1 14.2 8.8 26.3 21.1 29.4z"/><path class="st21" d="m-3291-696-35.3-113.1c-2.9-9.3-8.1-16.9-14.6-21.4-2-1.4-4.1-2.5-6.3-3.2-.3-.1-.7-.2-1-.3-4.6-1.4-9.4-1.3-14 .4-8.5 3-15.6 10.9-19.6 21.7 0 0 0 .1-.1.1-4.5 12.2-4.6 26.6-.3 38.9l.4 1.2 25 69.8c3.3 9.3.6 20.7-6.1 25.3-.5.3-.9.6-1.4.9l-1.8.9-31.5 15.8c-4.9 2.4-7.6 9.9-6 16.8l.1.4 8.8 39.4c0 .2.1.4.1.5.1.3.2.7.3 1 1.9 6.1 6.8 9.3 11.4 7.5l17-6.2 3.5-1.3 43.9-16.1c22.2-8.1 35.4-39.8 29.5-70.6-.4-3-1.1-5.8-2-8.4z"/><path class="st19" d="M-3720.4-601c14.2 17.3 29.5 33.6 45.8 48.9h452c9.1 0 16.4 7.4 16.4 16.4l.7 114.5c27.8-12.8 53.8-29.1 77.5-48.5 6.6-5.4 12.9-11 19.1-16.9 4-3.8 8-7.7 11.8-11.7 28.8-30 52.1-64.7 68.8-102.7h-692.1z"/><path class="st19" d="M-3097.3-498.3c-3.8 4-7.8 7.9-11.8 11.7h-96.2v-11.7h108zM-3306.7-873.8c-1-1.8-2.8-2.9-4.9-2.9h-327.8c-3.1 0-5.5 2.5-5.5 5.5V-675h338.9v-196.2c0-.9-.2-1.8-.7-2.6z"/><path class="st19" d="M-3645.2-680.2v24.2c0 4.2 3.4 7.6 7.6 7.6h125.1v47.8h-1.7c-.5 0-1 .4-1 1v3.3c0 .5.4 1 1 1h77.7c.5 0 1-.4 1-1v-3.3c0-.5-.4-1-1-1h-1.7v-47.8h125.1c4.2 0 7.6-3.4 7.6-7.6v-24.2h-339.7z"/><circle class="st22" cx="-3479.4" cy="-781" r="31.3"/><path class="st13" d="M-3490.5-1038.7c-6 1.7-11.7 1.1-17.2 4-6.2 3.3-12.5 7-18.5 11.2-10.6 2.5-25.5 28.8-28.4 24.8 3-13.4 13.4-35.5 29.8-42.8 6.8-3.1 22.3-7 29.6-8.5 1.8.5 9.9 3.3 13.2 3.6 25-.7 10.3 5.9-8.5 7.7z"/><path class="st14" d="M-3492.2-1045.8c-6 1.7-11.7 1.1-17.2 4-6.2 3.3-12.5 7-18.5 11.2-10.6 2.5-25.5 28.8-28.4 24.8 2.9-11.4 13.4-35.5 29.8-42.8 6.8-3.1 15.3-4 22.6-5.5 9.7-1.4 19.3-1.1 20.2.6 21.1 6.5 15.3 7.9-8.5 7.7z"/><path class="st23" d="m-3030.9-884.7 62-61.8-62-61.7 18.9-18.8 80.8 80.5-80.8 80.6-18.9-18.8zM-3207.7-971.2h25.2v25.2h-25.2zM-3106.5-971.2h25.2v25.2h-25.2zM-3157.1-971.2h25.2v25.2h-25.2zM-3241.8-885.4l-62-61.7 61.9-61.7-18.9-18.9-80.7 80.6 80.8 80.6z"/><path class="st22" d="m-3030.9-896.7 62-61.7-62-61.8 18.9-18.8 80.8 80.6-80.8 80.5-18.9-18.8zM-3207.7-954h25.2v-25.2h-25.2v25.2zm126.4-25.2h-25.2v25.2h25.2v-25.2zm-75.8 25.2h25.2v-25.2h-25.2v25.2zM-3241.8-897.3l-62-61.8 61.9-61.7-18.9-18.8-80.7 80.5 80.8 80.6z"/><g class="st15"><linearGradient id="SVGID_00000014628472912715297170000004847688670301890998_" gradientUnits="userSpaceOnUse" x1="-3057.143" y1="-1034.307" x2="-3057.143" y2="-942.501" gradientTransform="matrix(1 0 0 -1 -114.28 -1636.448)"><stop offset="0" style="stop-color:#7f7f7f;stop-opacity:.25"/><stop offset=".535" style="stop-color:#7f7f7f;stop-opacity:.12"/><stop offset="1" style="stop-color:#7f7f7f;stop-opacity:.1"/></linearGradient><path style="fill:url(#SVGID_00000014628472912715297170000004847688670301890998_)" d="M-3141.1-677.6V-694h-82v75.8c0 8.8 7.2 16 16 16h50c8.8 0 16-7.2 16-16V-635c11.8 0 21.3-9.6 21.3-21.4 0-11.6-9.5-21.1-21.3-21.2zm0 34.5v-26.2c7.2 0 13.1 5.9 13.1 13.1s-5.8 13.1-13.1 13.1z"/></g><path d="M-3143.7-675c-10.7 0-19.5 8.7-19.5 19.5 0 10.7 8.7 19.5 19.5 19.5 10.7 0 19.5-8.7 19.5-19.5s-8.8-19.5-19.5-19.5zm0 31.4c-6.6 0-12-5.4-12-12s5.4-12 12-12 12 5.4 12 12c0 6.7-5.4 12-12 12z" style="fill:#939c00"/><path class="st26" d="M-3143.7-675c-10.7 0-19.5 8.7-19.5 19.5 0 10.7 8.7 19.5 19.5 19.5 10.7 0 19.5-8.7 19.5-19.5s-8.8-19.5-19.5-19.5zm0 31.4c-6.6 0-12-5.4-12-12s5.4-12 12-12 12 5.4 12 12c0 6.7-5.4 12-12 12z"/><path class="st22" d="M-3218.5-690h74.8v74.1c0 5.4-4.4 9.8-9.8 9.8h-55.3c-5.4 0-9.8-4.4-9.8-9.8V-690h.1z"/><path class="st26" d="M-3157.2-690v69.2c0 8.1-6.5 14.6-14.6 14.6h7.5c8.1 0 14.6-6.5 14.6-14.6V-690h-7.5z"/><path class="st0" d="M-3203.8-745.8c-1.3.2-2.7.6-3.3 1.7-1 1.8.8 3.8 2.4 5 3 2.3 6.2 4.5 8.2 7.6 2 3.2 2.7 7.6.5 10.6-2.9 3.9-9.9 4.8-10.5 9.7-.4 3.1 2.3 5.8 5 7.3 6.7 3.9 15.4 4.9 20.3 10.9 2-4.2 6.5-6.6 11-7.6s9.2-.9 13.7-1.6c1.5-.2 3.1-.7 3.8-2 1.3-2.6-2.4-5.7-1.1-8.3 1-2 3.8-1.8 5.8-2.6 3.3-1.3 4.7-5.6 3.8-9s-3.6-6.1-6.4-8.4c-7.6-6-16.7-9.5-25.9-12-4.3-1.2-9.3-3-13.8-3.2-4.3-.1-9.2 1.2-13.5 1.9z"/><defs><path id="SVGID_00000031186755208893226430000004593510936520062373_" d="M-2656 307.8c0 244.9 70.2 512.2-441.9 443.5-241.9-32.5-441.9-198.5-441.9-443.5s-56.2-475 441.9-443.5c243.6 15.5 441.9 198.6 441.9 443.5z"/></defs><use xlink:href="#SVGID_00000031186755208893226430000004593510936520062373_" style="overflow:visible;fill:#303030"/><clipPath id="SVGID_00000177475625449718262840000005379568187766271108_"><use xlink:href="#SVGID_00000031186755208893226430000004593510936520062373_" style="overflow:visible"/></clipPath><path style="clip-path:url(#SVGID_00000177475625449718262840000005379568187766271108_);fill:#303030" d="m-2897.6 138.3 72.7-72.5-72.7-72.4 22.2-22.1 94.8 94.5-94.8 94.5-22.2-22zM-3105.1 36.7h29.5v29.5h-29.5zM-2986.3 36.7h29.5v29.5h-29.5zM-3045.7 36.7h29.5v29.5h-29.5zM-3145.1 137.5l-72.8-72.4 72.7-72.5-22.1-22.1-94.8 94.6 94.8 94.5z"/><path style="clip-path:url(#SVGID_00000177475625449718262840000005379568187766271108_);fill:#303030" d="m-2897.6 124.2 72.7-72.4-72.7-72.5 22.2-22.1 94.8 94.6-94.8 94.5-22.2-22.1zM-3105.1 56.9h29.5V27.4h-29.5v29.5zm148.3-29.5h-29.5v29.5h29.5V27.4zm-88.9 29.5h29.5V27.4h-29.5v29.5zM-3145.1 123.5l-72.8-72.5 72.7-72.4-22.1-22.1-94.8 94.5 94.8 94.6z"/><path id="b6132315-04e2-4cdb-a713-107c9cd58b0b_00000152250028852864264010000009728492771429218694_" style="clip-path:url(#SVGID_00000177475625449718262840000005379568187766271108_);fill:#303030" d="M-3364.3-1.6C-3234-19.5-3220 100.6-3220 199.5s-65.8 176.9-144.3 176.9-142.1-80.2-142.1-179.1S-3492.5 16-3364.3-1.6z"/><path style="clip-path:url(#SVGID_00000177475625449718262840000005379568187766271108_);fill:#303030" d="M-3502.1 231.2s-11.3-109.9 19.8-140.8c31.2-30.9 54.3-60.6 109-64.1 64.5-4.1 92.9-33.7 139.1 80.1 9.9 24.4 12.5 65.3 12.5 65.3l9.2-18.7s.7-16-4.9-52.7c-5.2-33.8-13.1-44.1-18.9-67.1-13.9-55.4-60.4-88.5-105.2-92.8s-102.8 16.4-115.2 26.8c-12.5 10.4-31.3 41.3-31.3 41.3s-29 20.7-31.1 33.3-7.4 55.9-7.4 55.9 8.6 66.5 10.1 78.6c1.9 15.2 1.3 37 1.3 37l13 17.9zM-3203.7 862.3h-1.4l1.2-.1z"/><path style="clip-path:url(#SVGID_00000177475625449718262840000005379568187766271108_);fill:#303030" d="m-2967.5 578.8-.5 2.6-5.4 28.7-37.5 198.4-2.2 11.7-4.7 24.7-6.4 33.7-14.1 74.7-4 21.4-1.5 8-.5 2.8-4.2 22.1-1.3 6.7-10.2 75.9-9 66.2 30 30-17.9 17.9-11.7 67.1v.2H-3547c-19.4-12.5-38.4-25.5-57.2-38.8l3.9-29.5s13.5-52.6 7.9-58.9c-5.7-6.3-18.1-17.5-18.1-17.5l15.7-36.6 2.2-5.1-3.7-75.7-.1-1.8-1.2-25-.2-3.2-.2-4.8-4.6-96.1-.1-1.6-1.4-29.1-1.3-27.7-.6-11.7-5.7-116.8-3.8-79.3-3.3-69.1 13.4-4.6 143.7-48.8 59.5-77.4 123.9.9 60.6.5 101.2 93.9 23 11 .2.1 16.5 7.9 41.9 20 44.3 21.2 22.7 10.8h.4z"/><path style="clip-path:url(#SVGID_00000177475625449718262840000005379568187766271108_);fill:#303030" d="M-3386.3 1046c-34.3 13.3-72.9-3.7-86.2-38-1.4-3.7-2.5-7.4-3.3-11.3l-234.3-33.2 81.5-92.1 210 45.7c36.7-4.7 70.2 21.3 74.9 57.9 3.9 30.6-13.7 60-42.6 71z"/><path style="clip-path:url(#SVGID_00000177475625449718262840000005379568187766271108_);fill:#303030" d="M-3489.7 878.5c-3.6-5.5-8.7-9.3-14.4-10.7l-80-20-8.2-2c-9.7-2.4-18-9.7-22.9-19.9-2.5-5.3-4.1-11.3-4.5-17.4-.4-5.6.2-11.2 1.6-16.4l27.7-100.4 18-65.1c2.2-7.9 3.5-16 3.8-24.3 1-22.9-4.9-45.4-16.6-63.5-21.1-32.6-57.6-44.8-89.7-30-.5.2-.9.4-1.4.6-22.8 10.9-39.9 34.1-46.3 62.5l-19.5 85.4-40.3 176.1c-15.5 67.6 17.6 137.6 73.9 156.2 5.1 1.7 10.4 2.9 15.7 3.7l115.3 16.2 53.3 7.5c12.8 1.8 24.6-8.4 27.2-23.6.1-.4.2-.8.2-1.2l1.3-9.5 10.9-80 .1-.8c.9-8.4-.9-16.9-5.2-23.4zM-3242.6 1048.5c32 8.3 64-14 71.4-49.8.8-3.8 1.3-7.7 1.5-11.6l203-66-83.6-79.7-180 74.9c-33 .5-59.4 31-58.9 67.9.3 30.9 19.6 57.5 46.6 64.3z"/><path style="clip-path:url(#SVGID_00000177475625449718262840000005379568187766271108_);fill:#303030" d="m-2934.9 773.6-77.7-248.8c-6.4-20.4-17.7-37.1-32-46.9-4.4-3-9.1-5.4-13.9-7-.7-.3-1.5-.5-2.2-.7-10.2-3.1-20.7-2.8-30.8.8-18.6 6.7-34.3 24-43.2 47.8 0 .1-.1.2-.1.3-9.9 26.7-10.1 58.4-.6 85.4l1 2.7 54.9 153.4c7.3 20.6 1.3 45.5-13.4 55.7-1 .7-2.1 1.3-3.1 1.9l-3.9 1.9-69.3 34.9c-10.8 5.4-16.6 21.7-13.2 36.9l.2.8 19.4 86.6.3 1.2c.2.7.4 1.5.6 2.2 4.3 13.3 14.9 20.3 25 16.6l37.4-13.7 7.6-2.8 96.6-35.5c48.7-17.9 77.8-87.4 64.9-155.3-1.2-6.4-2.7-12.5-4.5-18.4z"/><path style="clip-path:url(#SVGID_00000177475625449718262840000005379568187766271108_);fill:#303030" d="M-2969.5 382.7c-2.1-3.9-6.2-6.4-10.7-6.4h-720.9c-6.7 0-12.2 5.5-12.2 12.2V820h745.3V388.6c0-2.1-.5-4.1-1.5-5.9z"/><path style="clip-path:url(#SVGID_00000177475625449718262840000005379568187766271108_);fill:#303030" d="M-3714 808.4v53.2c0 9.3 7.5 16.8 16.8 16.8h275.1v105.1h-3.7c-1.2 0-2.2 1-2.2 2.2v7.3c0 1.2 1 2.2 2.2 2.2h170.8c1.2 0 2.2-1 2.2-2.2v-7.3c0-1.2-1-2.2-2.2-2.2h-3.7V878.4h275.1c9.3 0 16.8-7.5 16.8-16.8v-53.2H-3714z"/><circle style="clip-path:url(#SVGID_00000177475625449718262840000005379568187766271108_);fill:#303030" cx="-3349.4" cy="586.7" r="68.8"/><path style="clip-path:url(#SVGID_00000177475625449718262840000005379568187766271108_);fill:#303030" d="M-3373.7 20c-13.1 3.8-25.7 2.4-37.8 8.9-13.5 7.3-27.4 15.4-40.7 24.6-23.3 5.6-56.1 63.3-62.4 54.5 6.6-29.4 29.5-78 65.4-94.2C-3434.3 7-3400.1-1.6-3384-5c4 1.1 21.7 7.3 28.9 8 55-1.4 22.8 13.2-18.6 17z"/><path style="clip-path:url(#SVGID_00000177475625449718262840000005379568187766271108_);fill:#303030" d="M-3377.4 4.5c-13.1 3.8-25.7 2.4-37.8 8.9-13.5 7.3-27.4 15.4-40.7 24.6-23.3 5.6-56.1 63.3-62.4 54.5 6.3-25.1 29.5-78 65.4-94.2 14.9-6.8 33.7-8.8 49.8-12.2 21.3-3 42.4-2.4 44.3 1.4 46.4 14.4 33.8 17.5-18.6 17z"/><path class="st20" d="M-2866.6 488.5c-43.1.1-77.9 35-78 78-.1 43.2 34.8 78.3 78 78.4v61.7c0 32.4 26.3 58.7 58.7 58.7h183.5c32.4 0 58.7-26.3 58.7-58.7V428.3h-300.8l-.1 60.2zm-48.2 78.2c0-26.6 21.5-48.1 48.1-48.1v96.3c-26.5-.1-48.1-21.6-48.1-48.2z" style="opacity:.7;clip-path:url(#SVGID_00000177475625449718262840000005379568187766271108_)"/><path style="clip-path:url(#SVGID_00000177475625449718262840000005379568187766271108_);fill:#303030" d="M-2928.4 569.3c0 39.4 32 71.4 71.4 71.4 39.4 0 71.4-32 71.4-71.4s-32-71.4-71.4-71.4c-39.4 0-71.4 32-71.4 71.4zm27.5 0c0-24.3 19.7-43.9 43.9-43.9s43.9 19.7 43.9 43.9c0 24.3-19.7 43.9-43.9 43.9s-43.9-19.6-43.9-43.9z"/><path style="opacity:.1;clip-path:url(#SVGID_00000177475625449718262840000005379568187766271108_);fill:#303030;enable-background:new" d="M-2928.4 569.3c0 39.4 32 71.4 71.4 71.4 39.4 0 71.4-32 71.4-71.4s-32-71.4-71.4-71.4c-39.4 0-71.4 32-71.4 71.4zm27.5 0c0-24.3 19.7-43.9 43.9-43.9s43.9 19.7 43.9 43.9c0 24.3-19.7 43.9-43.9 43.9s-43.9-19.6-43.9-43.9z"/><path style="clip-path:url(#SVGID_00000177475625449718262840000005379568187766271108_);fill:#303030" d="M-2582.3 443v271.8c0 19.8-16 35.8-35.8 35.8h-203.1c-19.8 0-35.8-16-35.8-35.8V443h274.7z"/><path style="opacity:.3;clip-path:url(#SVGID_00000177475625449718262840000005379568187766271108_);fill:#303030;enable-background:new" d="M-2835 443v254c0 29.6 24 53.6 53.6 53.6h27.5c-29.6 0-53.6-24-53.6-53.6V443h-27.5z"/><path style="clip-path:url(#SVGID_00000177475625449718262840000005379568187766271108_);fill:#303030" d="M-2685.9 231.2c-16.4.7-34.8 7.4-50.6 11.7-33.8 9.3-67.3 22.1-95.1 44-10.3 8.1-20.1 18-23.6 30.7s1.6 28.4 13.8 33.2c7.5 2.9 17.8 2.3 21.3 9.6 4.6 9.5-8.7 20.9-4.1 30.5 2.4 4.9 8.5 6.6 13.9 7.4 16.8 2.6 33.9 2.3 50.5 6 16.5 3.8 33.1 12.6 40.5 27.8 17.9-22.2 49.8-26 74.5-40.1 10-5.7 19.9-15.5 18.3-26.9-2.5-17.8-27.9-20.9-38.6-35.4-8.2-11.1-5.8-27.2 1.7-38.8 7.5-11.6 19.1-19.7 30.1-28 6-4.5 12.5-11.9 8.9-18.4-2.3-4.1-7.5-5.4-12.1-6.2-15.6-2.7-33.6-7.7-49.4-7.1z"/><defs><path id="SVGID_00000175310197677100550230000011851051540422410881_" d="M-2656 307.8c0 244.9 70.2 512.2-441.9 443.5-241.9-32.5-441.9-198.5-441.9-443.5s-56.2-475 441.9-443.5c243.6 15.5 441.9 198.6 441.9 443.5z"/></defs><clipPath id="SVGID_00000088845354144436513310000011331223169359026572_"><use xlink:href="#SVGID_00000175310197677100550230000011851051540422410881_" style="overflow:visible"/></clipPath><path style="clip-path:url(#SVGID_00000088845354144436513310000011331223169359026572_);fill:#191919" d="m-2897.6 138.3 72.7-72.5-72.7-72.4 22.2-22.1 94.8 94.5-94.8 94.5-22.2-22zM-3105.1 36.7h29.5v29.5h-29.5zM-2986.3 36.7h29.5v29.5h-29.5zM-3045.7 36.7h29.5v29.5h-29.5zM-3145.1 137.5l-72.8-72.4 72.7-72.5-22.1-22.1-94.8 94.6 94.8 94.5z"/><path style="clip-path:url(#SVGID_00000088845354144436513310000011331223169359026572_);fill:#b4c738" d="m-2897.6 124.2 72.7-72.4-72.7-72.5 22.2-22.1 94.8 94.6-94.8 94.5-22.2-22.1zM-3105.1 56.9h29.5V27.4h-29.5v29.5zm148.3-29.5h-29.5v29.5h29.5V27.4zm-88.9 29.5h29.5V27.4h-29.5v29.5zM-3145.1 123.5l-72.8-72.5 72.7-72.4-22.1-22.1-94.8 94.5 94.8 94.6z"/><path id="b6132315-04e2-4cdb-a713-107c9cd58b0b_00000147929218759175197810000001248774379067003038_" style="clip-path:url(#SVGID_00000088845354144436513310000011331223169359026572_);fill:#ffb6b6" d="M-3364.3-1.6C-3234-19.5-3220 100.6-3220 199.5s-65.8 176.9-144.3 176.9-142.1-80.2-142.1-179.1S-3492.5 16-3364.3-1.6z"/><path style="clip-path:url(#SVGID_00000088845354144436513310000011331223169359026572_);fill:#735b4e" d="M-3502.1 231.2s-11.3-109.9 19.8-140.8c31.2-30.9 54.3-60.6 109-64.1 64.5-4.1 92.9-33.7 139.1 80.1 9.9 24.4 12.5 65.3 12.5 65.3l9.2-18.7s.7-16-4.9-52.7c-5.2-33.8-13.1-44.1-18.9-67.1-13.9-55.4-60.4-88.5-105.2-92.8s-102.8 16.4-115.2 26.8c-12.5 10.4-31.3 41.3-31.3 41.3s-29 20.7-31.1 33.3-7.4 55.9-7.4 55.9 8.6 66.5 10.1 78.6c1.9 15.2 1.3 37 1.3 37l13 17.9z"/><path style="clip-path:url(#SVGID_00000088845354144436513310000011331223169359026572_);fill:#d0d1be" d="M-3203.7 862.3h-1.4l1.2-.1z"/><path style="clip-path:url(#SVGID_00000088845354144436513310000011331223169359026572_);fill:#5e5e5e" d="m-2967.5 578.8-.5 2.6-5.4 28.7-37.5 198.4-2.2 11.7-4.7 24.7-6.4 33.7-14.1 74.7-4 21.4-1.5 8-.5 2.8-4.2 22.1-1.3 6.7-10.2 75.9-9 66.2 30 30-17.9 17.9-11.7 67.1v.2H-3547c-19.4-12.5-38.4-25.5-57.2-38.8l3.9-29.5s13.5-52.6 7.9-58.9c-5.7-6.3-18.1-17.5-18.1-17.5l15.7-36.6 2.2-5.1-3.7-75.7-.1-1.8-1.2-25-.2-3.2-.2-4.8-4.6-96.1-.1-1.6-1.4-29.1-1.3-27.7-.6-11.7-5.7-116.8-3.8-79.3-3.3-69.1 13.4-4.6 143.7-48.8 59.5-77.4 123.9.9 60.6.5 101.2 93.9 23 11 .2.1 16.5 7.9 41.9 20 44.3 21.2 22.7 10.8h.4z"/><path style="clip-path:url(#SVGID_00000088845354144436513310000011331223169359026572_);fill:#ffb6b6" d="M-3386.3 1046c-34.3 13.3-72.9-3.7-86.2-38-1.4-3.7-2.5-7.4-3.3-11.3l-234.3-33.2 81.5-92.1 210 45.7c36.7-4.7 70.2 21.3 74.9 57.9 3.9 30.6-13.7 60-42.6 71z"/><path style="clip-path:url(#SVGID_00000088845354144436513310000011331223169359026572_);fill:#5e5e5e" d="M-3489.7 878.5c-3.6-5.5-8.7-9.3-14.4-10.7l-80-20-8.2-2c-9.7-2.4-18-9.7-22.9-19.9-2.5-5.3-4.1-11.3-4.5-17.4-.4-5.6.2-11.2 1.6-16.4l27.7-100.4 18-65.1c2.2-7.9 3.5-16 3.8-24.3 1-22.9-4.9-45.4-16.6-63.5-21.1-32.6-57.6-44.8-89.7-30-.5.2-.9.4-1.4.6-22.8 10.9-39.9 34.1-46.3 62.5l-19.5 85.4-40.3 176.1c-15.5 67.6 17.6 137.6 73.9 156.2 5.1 1.7 10.4 2.9 15.7 3.7l115.3 16.2 53.3 7.5c12.8 1.8 24.6-8.4 27.2-23.6.1-.4.2-.8.2-1.2l1.3-9.5 10.9-80 .1-.8c.9-8.4-.9-16.9-5.2-23.4z"/><path style="clip-path:url(#SVGID_00000088845354144436513310000011331223169359026572_);fill:#ffb6b6" d="M-3242.6 1048.5c32 8.3 64-14 71.4-49.8.8-3.8 1.3-7.7 1.5-11.6l203-66-83.6-79.7-180 74.9c-33 .5-59.4 31-58.9 67.9.3 30.9 19.6 57.5 46.6 64.3z"/><path style="clip-path:url(#SVGID_00000088845354144436513310000011331223169359026572_);fill:#5e5e5e" d="m-2934.9 773.6-77.7-248.8c-6.4-20.4-17.7-37.1-32-46.9-4.4-3-9.1-5.4-13.9-7-.7-.3-1.5-.5-2.2-.7-10.2-3.1-20.7-2.8-30.8.8-18.6 6.7-34.3 24-43.2 47.8 0 .1-.1.2-.1.3-9.9 26.7-10.1 58.4-.6 85.4l1 2.7 54.9 153.4c7.3 20.6 1.3 45.5-13.4 55.7-1 .7-2.1 1.3-3.1 1.9l-3.9 1.9-69.3 34.9c-10.8 5.4-16.6 21.7-13.2 36.9l.2.8 19.4 86.6.3 1.2c.2.7.4 1.5.6 2.2 4.3 13.3 14.9 20.3 25 16.6l37.4-13.7 7.6-2.8 96.6-35.5c48.7-17.9 77.8-87.4 64.9-155.3-1.2-6.4-2.7-12.5-4.5-18.4z"/><path style="clip-path:url(#SVGID_00000088845354144436513310000011331223169359026572_);fill:#90917b" d="M-2969.5 382.7c-2.1-3.9-6.2-6.4-10.7-6.4h-720.9c-6.7 0-12.2 5.5-12.2 12.2V820h745.3V388.6c0-2.1-.5-4.1-1.5-5.9z"/><path style="clip-path:url(#SVGID_00000088845354144436513310000011331223169359026572_);fill:#90917b" d="M-3714 808.4v53.2c0 9.3 7.5 16.8 16.8 16.8h275.1v105.1h-3.7c-1.2 0-2.2 1-2.2 2.2v7.3c0 1.2 1 2.2 2.2 2.2h170.8c1.2 0 2.2-1 2.2-2.2v-7.3c0-1.2-1-2.2-2.2-2.2h-3.7V878.4h275.1c9.3 0 16.8-7.5 16.8-16.8v-53.2H-3714z"/><circle style="clip-path:url(#SVGID_00000088845354144436513310000011331223169359026572_);fill:#b4c738" cx="-3349.4" cy="586.7" r="68.8"/><path style="clip-path:url(#SVGID_00000088845354144436513310000011331223169359026572_);fill:#37221e" d="M-3373.7 20c-13.1 3.8-25.7 2.4-37.8 8.9-13.5 7.3-27.4 15.4-40.7 24.6-23.3 5.6-56.1 63.3-62.4 54.5 6.6-29.4 29.5-78 65.4-94.2C-3434.3 7-3400.1-1.6-3384-5c4 1.1 21.7 7.3 28.9 8 55-1.4 22.8 13.2-18.6 17z"/><path style="clip-path:url(#SVGID_00000088845354144436513310000011331223169359026572_);fill:#29221a" d="M-3377.4 4.5c-13.1 3.8-25.7 2.4-37.8 8.9-13.5 7.3-27.4 15.4-40.7 24.6-23.3 5.6-56.1 63.3-62.4 54.5 6.3-25.1 29.5-78 65.4-94.2 14.9-6.8 33.7-8.8 49.8-12.2 21.3-3 42.4-2.4 44.3 1.4 46.4 14.4 33.8 17.5-18.6 17z"/><g style="opacity:.7;clip-path:url(#SVGID_00000088845354144436513310000011331223169359026572_)"><linearGradient id="SVGID_00000063621563047741357070000002525395755956924297_" gradientUnits="userSpaceOnUse" x1="-2656.862" y1="-2401.674" x2="-2656.862" y2="-2064.779" gradientTransform="rotate(180 -2706.064 -818.224)"><stop offset="0" style="stop-color:#7f7f7f;stop-opacity:.25"/><stop offset=".535" style="stop-color:#7f7f7f;stop-opacity:.12"/><stop offset="1" style="stop-color:#7f7f7f;stop-opacity:.1"/></linearGradient><path style="fill:url(#SVGID_00000063621563047741357070000002525395755956924297_)" d="M-2866.6 488.5c-43.1.1-77.9 35-78 78-.1 43.2 34.8 78.3 78 78.4v61.7c0 32.4 26.3 58.7 58.7 58.7h183.5c32.4 0 58.7-26.3 58.7-58.7V428.3h-300.8l-.1 60.2zm-48.2 78.2c0-26.6 21.5-48.1 48.1-48.1v96.3c-26.5-.1-48.1-21.6-48.1-48.2z"/></g><path style="clip-path:url(#SVGID_00000088845354144436513310000011331223169359026572_);fill:#939c00" d="M-2928.4 569.3c0 39.4 32 71.4 71.4 71.4 39.4 0 71.4-32 71.4-71.4s-32-71.4-71.4-71.4c-39.4 0-71.4 32-71.4 71.4zm27.5 0c0-24.3 19.7-43.9 43.9-43.9s43.9 19.7 43.9 43.9c0 24.3-19.7 43.9-43.9 43.9s-43.9-19.6-43.9-43.9z"/><path style="opacity:.1;clip-path:url(#SVGID_00000088845354144436513310000011331223169359026572_);fill:#b4c738;enable-background:new" d="M-2928.4 569.3c0 39.4 32 71.4 71.4 71.4 39.4 0 71.4-32 71.4-71.4s-32-71.4-71.4-71.4c-39.4 0-71.4 32-71.4 71.4zm27.5 0c0-24.3 19.7-43.9 43.9-43.9s43.9 19.7 43.9 43.9c0 24.3-19.7 43.9-43.9 43.9s-43.9-19.6-43.9-43.9z"/><path style="clip-path:url(#SVGID_00000088845354144436513310000011331223169359026572_);fill:#b4c738" d="M-2582.3 443v271.8c0 19.8-16 35.8-35.8 35.8h-203.1c-19.8 0-35.8-16-35.8-35.8V443h274.7z"/><path style="opacity:.3;clip-path:url(#SVGID_00000088845354144436513310000011331223169359026572_);fill:#fff;enable-background:new" d="M-2835 443v254c0 29.6 24 53.6 53.6 53.6h27.5c-29.6 0-53.6-24-53.6-53.6V443h-27.5z"/><path style="clip-path:url(#SVGID_00000088845354144436513310000011331223169359026572_);fill:#686868" d="M-2685.9 231.2c-16.4.7-34.8 7.4-50.6 11.7-33.8 9.3-67.3 22.1-95.1 44-10.3 8.1-20.1 18-23.6 30.7s1.6 28.4 13.8 33.2c7.5 2.9 17.8 2.3 21.3 9.6 4.6 9.5-8.7 20.9-4.1 30.5 2.4 4.9 8.5 6.6 13.9 7.4 16.8 2.6 33.9 2.3 50.5 6 16.5 3.8 33.1 12.6 40.5 27.8 17.9-22.2 49.8-26 74.5-40.1 10-5.7 19.9-15.5 18.3-26.9-2.5-17.8-27.9-20.9-38.6-35.4-8.2-11.1-5.8-27.2 1.7-38.8 7.5-11.6 19.1-19.7 30.1-28 6-4.5 12.5-11.9 8.9-18.4-2.3-4.1-7.5-5.4-12.1-6.2-15.6-2.7-33.6-7.7-49.4-7.1z"/><path class="st7" d="M-430.9 1475.5h-1227.7c-26.4 0-47.7-21.4-47.8-47.8V54c0-26.4 21.4-47.7 47.8-47.8h1227.7c26.4 0 47.7 21.4 47.8 47.8v1373.8c-.1 26.3-21.4 47.7-47.8 47.7zM-1658.6 11.8c-23.3 0-42.1 18.9-42.1 42.1v1373.8c0 23.3 18.9 42.1 42.1 42.1h1227.7c23.3 0 42.1-18.9 42.1-42.1V54c0-23.3-18.9-42.1-42.1-42.1h-1227.7z"/><path class="st7" d="M-1703.5 123.1h1317.6v5.6h-1317.6z"/><circle class="st2" cx="-1638.9" cy="68" r="22.5"/><circle class="st2" cx="-1568.7" cy="68" r="22.5"/><circle class="st2" cx="-1498.4" cy="68" r="22.5"/><path class="st7" d="M-606.5 329.3H-1483c-20.2 0-36.5-16.4-36.5-36.5s16.4-36.5 36.5-36.5h876.5c20.2 0 36.5 16.4 36.5 36.5s-16.3 36.5-36.5 36.5zm-876.5-67.4c-17.1 0-30.9 13.8-30.9 30.9 0 17.1 13.8 30.9 30.9 30.9h876.5c17.1 0 30.9-13.8 30.9-30.9 0-17.1-13.8-30.9-30.9-30.9H-1483z"/><path class="st5" d="M-823.2 617.5h-398.9c-12.4 0-22.5-10.1-22.5-22.5s10.1-22.5 22.5-22.5h398.9c12.4 0 22.5 10.1 22.5 22.5s-10.1 22.5-22.5 22.5zM-592.8 693.4h-629.3c-12.4 0-22.5-10.1-22.5-22.5s10.1-22.5 22.5-22.5h629.3c12.4 0 22.5 10.1 22.5 22.5s-10.1 22.5-22.5 22.5z"/><path class="st7" d="M-1371.6 697.6h-120.8c-14.7 0-26.7-12-26.7-26.7V595c0-14.7 12-26.7 26.7-26.7h120.8c14.7 0 26.7 12 26.7 26.7v75.9c0 14.7-12 26.6-26.7 26.7zM-1492.4 574c-11.6 0-21.1 9.4-21.1 21.1V671c0 11.6 9.4 21.1 21.1 21.1h120.8c11.6 0 21.1-9.4 21.1-21.1v-76c0-11.6-9.4-21.1-21.1-21.1h-120.8z"/><path class="st5" d="M-823.2 884.4h-398.9c-12.4 0-22.5-10.1-22.5-22.5s10.1-22.5 22.5-22.5h398.9c12.4 0 22.5 10.1 22.5 22.5s-10.1 22.5-22.5 22.5zM-592.8 960.2h-629.3c-12.4 0-22.5-10.1-22.5-22.5s10.1-22.5 22.5-22.5h629.3c12.4 0 22.5 10.1 22.5 22.5s-10.1 22.5-22.5 22.5z"/><path class="st7" d="M-1371.6 964.5h-120.8c-14.7 0-26.7-12-26.7-26.7v-75.9c0-14.7 12-26.7 26.7-26.7h120.8c14.7 0 26.7 12 26.7 26.7v75.9c0 14.7-12 26.6-26.7 26.7zm-120.8-123.7c-11.6 0-21.1 9.4-21.1 21.1v75.9c0 11.6 9.4 21.1 21.1 21.1h120.8c11.6 0 21.1-9.4 21.1-21.1v-75.9c0-11.6-9.4-21.1-21.1-21.1h-120.8z"/><path class="st10" d="M-823.2 1151.3h-398.9c-12.4 0-22.5-10.1-22.5-22.5s10.1-22.5 22.5-22.5h398.9c12.4 0 22.5 10.1 22.5 22.5s-10.1 22.5-22.5 22.5zM-592.8 1227.1h-629.3c-12.4 0-22.5-10.1-22.5-22.5s10.1-22.5 22.5-22.5h629.3c12.4 0 22.5 10.1 22.5 22.5-.1 12.5-10.1 22.5-22.5 22.5zM-1371.6 1231.3h-120.8c-14.7 0-26.7-12-26.7-26.7v-75.9c0-14.7 12-26.7 26.7-26.7h120.8c14.7 0 26.7 12 26.7 26.7v75.9c0 14.8-12 26.7-26.7 26.7z"/><path class="st2" d="m-1432 674.4-6.5-5.9c-23.1-21.2-38.4-35-38.4-52.1-.2-13.5 10.5-24.6 24-24.8h.7c7.8 0 15.2 3.5 20.2 9.5 5-6 12.4-9.4 20.2-9.5 13.5-.2 24.5 10.6 24.7 24.1v.7c0 17.1-15.3 30.9-38.4 52.1l-6.5 5.9zM-1432 941.2l-6.5-5.9c-23.1-21.2-38.4-35-38.4-52.1-.2-13.5 10.5-24.6 24-24.8h.7c7.8 0 15.2 3.5 20.2 9.5 5-6 12.4-9.4 20.2-9.5 13.5-.2 24.5 10.6 24.7 24.1v.7c0 17.1-15.3 30.9-38.4 52.1l-6.5 5.9z"/><path class="st12" d="M-1633.4 1185.3h-120.8c-14.7 0-26.7-12-26.7-26.7v-75.9c0-14.7 12-26.7 26.7-26.7h120.8c14.7 0 26.7 12 26.7 26.7v75.9c0 14.7-12 26.7-26.7 26.7z"/><path class="st7" d="M-1633.4 1185.3h-120.8c-14.7 0-26.7-12-26.7-26.7v-75.9c0-14.7 12-26.7 26.7-26.7h120.8c14.7 0 26.7 12 26.7 26.7v75.9c0 14.7-12 26.7-26.7 26.7zm-120.8-123.6c-11.6 0-21.1 9.4-21.1 21.1v75.9c0 11.6 9.4 21.1 21.1 21.1h120.8c11.6 0 21.1-9.4 21.1-21.1v-75.9c0-11.6-9.4-21.1-21.1-21.1h-120.8z"/><path class="st2" d="m-1693.8 1162.1-6.5-5.9c-23.1-21.2-38.4-35-38.4-52.1-.2-13.5 10.5-24.6 24-24.8h.7c7.8 0 15.2 3.5 20.2 9.5 5-6 12.4-9.4 20.2-9.5 13.5-.2 24.5 10.6 24.7 24.1v.7c0 17.1-15.3 30.9-38.4 52.1l-6.5 5.9z"/><path class="st6" d="m-1963 1030.2 39.7 78.6 118.6 53.9c12.7 21.4 52.9 23.1 55.9 9.2 3.3-15.5-48.9-40.5-48.9-40.5l-99.2-67.1-8.7-57.8-57.4 23.7zM-1945.7 1589l-7.3 58.6 42.4 2.9 4.4-61.5z"/><path class="st4" d="M-1939.8 1638.8c-3.8-4-7.3-8.3-10.5-12.8-6.1-8.4-11.5 34.8-11.5 34.8s-5.9 17.6-4.4 26.3 35.1 8.8 41 7.3c5.9-1.5 35.1 0 35.1 0h43.9c38.1-17.6 0-29.3 0-29.3-11.7-1.5-51.2-38.1-51.2-38.1l-8.8-16.1c-5.9-1.5-11.7 20.5-11.7 20.5l-21.9 7.4z"/><path class="st6" d="m-2055.4 1589.8-7.4 58.5 42.5 2.9 4.4-61.4z"/><path class="st4" d="M-2049.6 1639.5c-3.8-4-7.3-8.3-10.5-12.8-6.1-8.4-11.5 34.8-11.5 34.8s-5.9 16.1-4.4 24.9 35.1 8.8 41 7.3c5.9-1.5 35.1 1.5 35.1 1.5h43.9c38.1-17.6 0-29.3 0-29.3-11.7-1.5-51.2-38.1-51.2-38.1l-8.8-16.1c-5.9-1.5-11.7 20.5-11.7 20.5l-21.9 7.3zM-2007.2 1212.2c-5.9 7.3-2.9 32.2-2.9 32.2s-10.2 80.5-5.9 87.8c4.4 7.3-2.9 13.2-7.3 23.4s-8.8 35.1-8.8 35.1c-24.9 20.5-23.4 114.2-23.4 114.2l-8.8 83.4c2.9 8.8 43.9 10.2 49.8 8.8 5.9-1.5 23.4-133.2 23.4-133.2l39.5-74.6s-2.9 199.1-2.9 207.8 39.5 4.4 48.3 4.4c8.8 0 8.8-146.4 8.8-146.4l8.8-38.1 46.8-174.2v-20.5l-7.3-10.2c0 .1-152.2-7.3-158.1.1z"/><path class="st6" d="M-1896.3 824.8c0 30.4-21.4 55.1-46.4 55.1-25.1 0-45.4-24.7-45.4-55.1s20.4-53.7 45.4-55.1c37.3-2.1 46.4 24.7 46.4 55.1z"/><path class="st6" d="M-1920.1 855.8c-9.2 20.5-3.8 49.1 14.6 80.5l-74.6-35.1 11.7-10.2-2.9-29.3 51.2-5.9z"/><path class="st11" d="M-1920.1 902.6c9.8 5.8 15.6 16.5 19 27.4 6.2 20.1 10 40.9 11.1 61.9l3.5 62.9 43.9 166.9c-38.1 32.2-60 24.9-111.2-1.5-51.2-26.3-57.1 8.8-57.1 8.8s-4.4-1.5 0-5.9 0 0-4.4-4.4 0 0 1.5-4.4 0-1.5-1.5-2.9 5.9-14.6 5.9-14.6l-11.7-109.8-14.6-155.1c17.6-22 67.3-41 67.3-41l45.4 32.2c14.6 5.9 2.9-17.6 2.9-17.6v-2.9z"/><path class="st6" d="m-2059.8 1024.8-5.9 87.8 74.6 106.8c0 24.9 13.2 30.7 13.2 30.7 5-8 9.4-16.3 13.2-24.9 7.3-16.1-4.4-29.3-4.4-29.3l-51.2-108.3 22-54.2-61.5-8.6z"/><path class="st11" d="M-2035 932.6c-24.9 8.8-29.3 103.9-29.3 103.9 29.3-16.1 64.4 10.2 64.4 10.2s7.3-24.9 16.1-57.1-11.7-52.7-11.7-52.7-14.6-13.1-39.5-4.3z"/><path class="st9" d="M-1984.5 841.7c5.8-5.6 6.2-42.5 6.2-42.5l9.6-15.8s34.9-4.6 52.7-1.4c19 3.4 18.5 32.7 18.5 32.7s1.7-18.9.6-31.6c-1.2-12.6-16.2-25.3-42.7-33.7-26.6-8.4-40.4 28.1-40.4 28.1-18.5 11.2-10.2 69.8-4.5 64.2z"/><path class="st13" d="M-1937.6 780.8c-3.8.3-7.2-.9-10.9.2-4.1 1.2-8.4 2.6-12.6 4.3-6.7.1-19.2 14-20.4 11.2 3.6-7.7 12.7-19.6 23.5-21.9 4.5-1 14.4-1.3 19-1.3 1 .5 5.5 3.3 7.5 3.9 15.2 2.9 5.5 5-6.1 3.6z"/><path class="st14" d="M-1937.7 776.3c-3.8.3-7.2-.9-10.9.2-4.1 1.2-8.4 2.6-12.6 4.3-6.7.1-19.2 14-20.4 11.2 3.2-6.5 12.7-19.6 23.5-21.9 4.5-1 9.8-.4 14.4-.4 6 .4 11.8 1.9 12.1 3 11.9 6.8 8.2 6.9-6.1 3.6z"/><path class="st46" d="M1650.6 1475.5H422.9c-26.4 0-47.7-21.4-47.8-47.8V54c0-26.4 21.4-47.7 47.8-47.8h1227.7c26.4 0 47.7 21.4 47.8 47.8v1373.8c-.1 26.3-21.5 47.7-47.8 47.7zM422.9 11.8c-23.3 0-42.1 18.9-42.1 42.1v1373.8c0 23.3 18.9 42.1 42.1 42.1h1227.7c23.3 0 42.1-18.9 42.1-42.1V54c0-23.3-18.9-42.1-42.1-42.1H422.9z"/><path class="st46" d="M377.9 123.1h1317.6v5.6H377.9z"/><circle class="st22" cx="442.6" cy="68" r="22.5"/><circle class="st22" cx="512.8" cy="68" r="22.5"/><circle class="st22" cx="583" cy="68" r="22.5"/><path class="st46" d="M1475 329.3H598.5c-20.2 0-36.5-16.4-36.5-36.5s16.4-36.5 36.5-36.5H1475c20.2 0 36.5 16.4 36.5 36.5s-16.3 36.5-36.5 36.5zm-876.5-67.4c-17.1 0-30.9 13.8-30.9 30.9 0 17.1 13.8 30.9 30.9 30.9H1475c17.1 0 30.9-13.8 30.9-30.9 0-17.1-13.8-30.9-30.9-30.9H598.5z"/><path class="st0" d="M1258.3 617.5h-399c-12.4 0-22.5-10.1-22.5-22.5s10.1-22.5 22.5-22.5h398.9c12.4 0 22.5 10.1 22.5 22.5s-10 22.5-22.4 22.5zM1488.6 693.4H859.3c-12.4 0-22.5-10.1-22.5-22.5s10.1-22.5 22.5-22.5h629.3c12.4 0 22.5 10.1 22.5 22.5s-10.1 22.5-22.5 22.5z"/><path class="st46" d="M709.9 697.6H589.1c-14.7 0-26.7-12-26.7-26.7V595c0-14.7 12-26.7 26.7-26.7h120.8c14.7 0 26.7 12 26.7 26.7v75.9c-.1 14.7-12 26.6-26.7 26.7zM589.1 574c-11.6 0-21.1 9.4-21.1 21.1V671c0 11.6 9.4 21.1 21.1 21.1h120.8c11.6 0 21.1-9.4 21.1-21.1v-76c0-11.6-9.4-21.1-21.1-21.1H589.1z"/><path class="st0" d="M1258.3 884.4h-399c-12.4 0-22.5-10.1-22.5-22.5s10.1-22.5 22.5-22.5h398.9c12.4 0 22.5 10.1 22.5 22.5s-10 22.5-22.4 22.5zM1488.6 960.2H859.3c-12.4 0-22.5-10.1-22.5-22.5s10.1-22.5 22.5-22.5h629.3c12.4 0 22.5 10.1 22.5 22.5s-10.1 22.5-22.5 22.5z"/><path class="st46" d="M709.9 964.5H589.1c-14.7 0-26.7-12-26.7-26.7v-75.9c0-14.7 12-26.7 26.7-26.7h120.8c14.7 0 26.7 12 26.7 26.7v75.9c-.1 14.7-12 26.6-26.7 26.7zM589.1 840.8c-11.6 0-21.1 9.4-21.1 21.1v75.9c0 11.6 9.4 21.1 21.1 21.1h120.8c11.6 0 21.1-9.4 21.1-21.1v-75.9c0-11.6-9.4-21.1-21.1-21.1H589.1z"/><path class="st47" d="M1258.3 1151.3h-399c-12.4 0-22.5-10.1-22.5-22.5s10.1-22.5 22.5-22.5h398.9c12.4 0 22.5 10.1 22.5 22.5s-10 22.5-22.4 22.5zM1488.6 1227.1H859.3c-12.4 0-22.5-10.1-22.5-22.5s10.1-22.5 22.5-22.5h629.3c12.4 0 22.5 10.1 22.5 22.5 0 12.5-10.1 22.5-22.5 22.5zM709.9 1231.3H589.1c-14.7 0-26.7-12-26.7-26.7v-75.9c0-14.7 12-26.7 26.7-26.7h120.8c14.7 0 26.7 12 26.7 26.7v75.9c-.1 14.8-12 26.7-26.7 26.7z"/><path class="st22" d="m649.5 674.4-6.5-5.9c-23.1-21.2-38.4-35-38.4-52.1-.2-13.5 10.5-24.6 24-24.8h.7c7.8 0 15.2 3.5 20.2 9.5 5-6 12.4-9.4 20.2-9.5 13.5-.2 24.5 10.6 24.7 24.1v.7c0 17.1-15.3 30.9-38.4 52.1l-6.5 5.9zM649.5 941.2l-6.5-5.9c-23.1-21.2-38.4-35-38.4-52.1-.2-13.5 10.5-24.6 24-24.8h.7c7.8 0 15.2 3.5 20.2 9.5 5-6 12.4-9.4 20.2-9.5 13.5-.2 24.5 10.6 24.7 24.1v.7c0 17.1-15.3 30.9-38.4 52.1l-6.5 5.9z"/><path class="st0" d="M448.1 1185.3H327.3c-14.7 0-26.7-12-26.7-26.7v-75.9c0-14.7 12-26.7 26.7-26.7h120.8c14.7 0 26.7 12 26.7 26.7v75.9c-.1 14.7-12 26.7-26.7 26.7z"/><path class="st46" d="M448.1 1185.3H327.3c-14.7 0-26.7-12-26.7-26.7v-75.9c0-14.7 12-26.7 26.7-26.7h120.8c14.7 0 26.7 12 26.7 26.7v75.9c-.1 14.7-12 26.7-26.7 26.7zm-120.8-123.6c-11.6 0-21.1 9.4-21.1 21.1v75.9c0 11.6 9.4 21.1 21.1 21.1h120.8c11.6 0 21.1-9.4 21.1-21.1v-75.9c0-11.6-9.4-21.1-21.1-21.1H327.3z"/><path class="st22" d="m387.7 1162.1-6.5-5.9c-23.1-21.2-38.4-35-38.4-52.1-.2-13.5 10.5-24.6 24-24.8h.7c7.8 0 15.2 3.5 20.2 9.5 5-6 12.4-9.4 20.2-9.5 13.5-.2 24.5 10.6 24.7 24.1v.7c0 17.1-15.3 30.9-38.4 52.1l-6.5 5.9z"/><path class="st6" d="m118.4 1030.2 39.7 78.6 118.6 53.9c12.7 21.4 52.9 23.1 55.9 9.2 3.3-15.5-48.9-40.5-48.9-40.5l-99.2-67.1-8.7-57.8-57.4 23.7zM135.8 1589l-7.3 58.6 42.4 2.9 4.4-61.5z"/><path class="st19" d="M141.6 1638.8c-3.8-4-7.3-8.3-10.5-12.8-6.1-8.4-11.5 34.8-11.5 34.8s-5.9 17.6-4.4 26.3c1.5 8.8 35.1 8.8 41 7.3 5.9-1.5 35.1 0 35.1 0h43.9c38.1-17.6 0-29.3 0-29.3-11.7-1.5-51.2-38.1-51.2-38.1l-8.8-16.1c-5.9-1.5-11.7 20.5-11.7 20.5l-21.9 7.4z"/><path class="st6" d="m26 1589.8-7.3 58.5 42.4 2.9 4.4-61.4z"/><path class="st19" d="M31.9 1639.5c-3.8-4-7.3-8.3-10.5-12.8-6.1-8.4-11.5 34.8-11.5 34.8s-5.9 16.1-4.4 24.9 35.1 8.8 41 7.3c5.9-1.5 35.1 1.5 35.1 1.5h43.9c38.1-17.6 0-29.3 0-29.3-11.7-1.5-51.2-38.1-51.2-38.1l-8.8-16.1c-5.9-1.5-11.7 20.5-11.7 20.5l-21.9 7.3zM74.3 1212.2c-5.9 7.3-2.9 32.2-2.9 32.2s-10.2 80.5-5.9 87.8-2.9 13.2-7.3 23.4-8.8 35.1-8.8 35.1C24.5 1411.2 26 1504.9 26 1504.9l-8.8 83.4c2.9 8.8 43.9 10.2 49.8 8.8 5.9-1.5 23.4-133.2 23.4-133.2l39.5-74.6s-2.9 199.1-2.9 207.8 39.5 4.4 48.3 4.4 8.8-146.4 8.8-146.4l8.8-38.1 46.8-174.2v-20.5l-7.3-10.2c0 .1-152.2-7.3-158.1.1z"/><path class="st6" d="M185.1 824.8c0 30.4-21.4 55.1-46.4 55.1s-45.4-24.7-45.4-55.1 20.4-53.7 45.4-55.1c37.3-2.1 46.4 24.7 46.4 55.1z"/><path class="st6" d="M161.4 855.8c-9.2 20.5-3.8 49.1 14.6 80.5l-74.6-35.1 11.7-10.2-2.9-29.3 51.2-5.9z"/><path class="st48" d="M161.4 902.6c9.8 5.8 15.6 16.5 19 27.4 6.2 20.1 10 40.9 11.1 61.9l3.5 62.9 43.9 166.9c-38.1 32.2-60 24.9-111.2-1.5s-57.1 8.8-57.1 8.8-4.4-1.5 0-5.9 0 0-4.4-4.4 0 0 1.5-4.4 0-1.5-1.5-2.9c-1.5-1.5 5.9-14.6 5.9-14.6L60.4 1087 45.8 931.9c17.6-22 67.3-41 67.3-41l45.4 32.2c14.6 5.9 2.9-17.6 2.9-17.6v-2.9z"/><path class="st6" d="m21.6 1024.8-5.9 87.8 74.6 106.8c0 24.9 13.2 30.7 13.2 30.7 5-8 9.4-16.3 13.2-24.9 7.3-16.1-4.4-29.3-4.4-29.3l-51.2-108.3 22-54.2-61.5-8.6z"/><path class="st48" d="M46.5 932.6c-24.9 8.8-29.3 103.9-29.3 103.9 29.3-16.1 64.4 10.2 64.4 10.2s7.3-24.9 16.1-57.1S86 937 86 937s-14.6-13.2-39.5-4.4z"/><path class="st9" d="M97 841.7c5.8-5.6 6.2-42.5 6.2-42.5l9.6-15.8s34.9-4.6 52.7-1.4c19 3.4 18.5 32.7 18.5 32.7s1.7-18.9.6-31.6c-1.2-12.6-16.2-25.3-42.7-33.7s-40.4 28.1-40.4 28.1c-18.6 11.2-10.3 69.8-4.5 64.2z"/><path class="st13" d="M143.9 780.8c-3.8.3-7.2-.9-10.9.2-4.1 1.2-8.4 2.6-12.6 4.3-6.7.1-19.2 14-20.4 11.2 3.6-7.7 12.7-19.6 23.5-21.9 4.5-1 14.4-1.3 19-1.3 1 .5 5.5 3.3 7.5 3.9 15.1 2.9 5.4 5-6.1 3.6z"/><path class="st14" d="M143.8 776.3c-3.8.3-7.2-.9-10.9.2-4.1 1.2-8.4 2.6-12.6 4.3-6.7.1-19.2 14-20.4 11.2 3.2-6.5 12.7-19.6 23.5-21.9 4.5-1 9.8-.4 14.4-.4 6 .4 11.8 1.9 12.1 3 11.8 6.8 8.2 6.9-6.1 3.6z"/></svg>