<svg version="1.1" id="f1b25b43-9e03-45b3-af71-047f5bd7d8f3" xmlns="http://www.w3.org/2000/svg" xmlns:xlink="http://www.w3.org/1999/xlink" x="0" y="0" viewBox="0 0 1700 1700" style="enable-background:new 0 0 1700 1700" xml:space="preserve"><style>.st0{fill:#686868}.st1{fill:#ffb6b6}.st2{fill:#735b4e}.st3{fill:#f2f2f2}.st4{fill:#2f2e41}.st5{fill:#cacaca}.st6{fill:#3f3d56}.st7{fill:#fff}.st8{fill:#6c63ff}.st9{fill:#37221e}.st10{fill:#29221a}.st11{fill:#e6e6e6}.st12{opacity:.7}.st14{opacity:.1;enable-background:new}.st15{fill:#303030}.st16{fill:#90917b}.st18{fill:#5e5e5e}.st19{fill:#b4c738}.st20{fill:#191919}.st23{opacity:.1;fill:#fff;enable-background:new}.st43{fill:#ccc}.st44{fill:#ffb8b8}.st45{fill:#c0c2a9}.st46{fill:#333}.st47{fill:#353535}</style><path class="st0" d="M3253.9 715.3h-120.8c-14.7 0-26.7-12-26.7-26.7v-75.9c0-14.7 12-26.7 26.7-26.7h120.8c14.7 0 26.7 12 26.7 26.7v75.9c0 14.8-11.9 26.7-26.7 26.7zM3253.9 982.2h-120.8c-14.7 0-26.7-12-26.7-26.7v-75.9c0-14.7 12-26.7 26.7-26.7h120.8c14.7 0 26.7 12 26.7 26.7v75.9c0 14.8-11.9 26.7-26.7 26.7z"/><path id="b6132315-04e2-4cdb-a713-107c9cd58b0b_00000101806003809763886680000001631560397120137136_" class="st1" d="M1859.4-1691.1c59.3-8.1 65.6 46.5 65.6 91.4 0 45-29.9 80.4-65.6 80.4-35.7 0-64.6-36.5-64.6-81.4 0-44.9 6.3-82.4 64.6-90.4z"/><path class="st2" d="M1796.8-1585.2s-5.2-50 9-64c14.2-14.1 24.7-27.6 49.5-29.1 29.3-1.9 42.3-15.3 63.2 36.4 4.5 11.1 5.7 29.7 5.7 29.7l4.2-8.5s.3-7.3-2.2-24c-2.4-15.4-6-20-8.6-30.5-6.3-25.2-27.5-40.2-47.8-42.2s-46.7 7.4-52.4 12.2c-5.7 4.7-14.2 18.8-14.2 18.8s-13.2 9.4-14.1 15.1c-1 5.7-3.4 25.4-3.4 25.4s3.9 30.2 4.6 35.7c.9 6.9.6 16.8.6 16.8l5.9 8.2z"/><path class="st3" d="M2347.2-1386.7c.1 91.7-35.3 179.8-98.8 245.9-3.8 4-7.8 7.9-11.8 11.7-6.1 5.8-12.5 11.5-19.1 16.9-61.4 50.6-138 79-217.6 80.7-2.6.1-5.3.1-8 .1-63.4 0-143.2-33.9-215.6-80.8-6-3.9-11.9-7.9-17.8-11.9-2.8-1.9-5.5-3.8-8.2-5.7-27.9-19.7-54.4-41.4-79.3-64.8-16.3-15.3-31.6-31.6-45.8-48.9-55.6-68.6-67.9-130.4 11.4-143.2 9.4-1.5 18.5-3.1 27.3-4.8 12.8-2.5 25.1-5.1 36.8-8 15.8-3.8 30.6-8 44.4-12.5 4.7-1.5 9.2-3 13.7-4.6 65.7-23.1 109.7-53.2 139.7-85.9 5.1-5.5 9.8-11.1 14-16.8 6.6-8.6 12.5-17.7 17.8-27.1a259.5 259.5 0 0 0 18.4-41l.3-.8c23.8-68.7 16.6-132.5 42.9-153.8 112.4-91.2 252.3 38.7 318 191.9 3.3 7.7 6.4 15.5 9.3 23.3 1.3 3.5 2.6 7 3.8 10.5 3.2 9.1 6.1 18.3 8.7 27.5 1 3.5 2 7 2.9 10.5 1 3.8 1.9 7.5 2.8 11.3 6.3 27.5 9.8 54.6 9.8 80.3z"/><path class="st4" d="M1999.9-1031.5c-2.6.1-5.3.1-8 .1-63.4 0-143.2-33.9-215.6-80.8-6-3.9-11.9-7.8-17.8-11.9l5.2-31.4 156.2-20.7 78.4 60 1.6 84.7z"/><path class="st4" d="M1916.4-1112.2h-.6l.5-.1z"/><path class="st5" d="m2039.8-1427.2-.2 1.2-2.5 13-17.1 90.2-1 5.3-2.1 11.2-2.9 15.3-6.4 34-1.8 9.7-.7 3.6-.2 1.3-1.9 10.1-.6 3-4.7 34.5-4.1 30.1 13.6 13.6-8.1 8.1-5.3 30.5v.1h-217.5c-8.8-5.7-17.5-11.6-26-17.6l1.8-13.4s6.2-23.9 3.6-26.8c-2.6-2.9-8.2-8-8.2-8l7.1-16.6 1-2.3-1.7-34.4v-.8l-.5-11.4-.1-1.5-.1-2.2-2.1-43.7v-.7l-.6-13.2-.6-12.6-.3-5.3-2.6-53.1-1.7-36.1-1.5-31.4 6.1-2.1 65.4-22.2 27.1-35.2 56.3.4 27.6.2 46 42.7 10.5 5h.1l7.5 3.6 19 9.1 20.1 9.6 10.3 4.9v.3z"/><path class="st1" d="M1849.4-1214.7c-15.6 6-33.1-1.7-39.2-17.3-.6-1.7-1.1-3.4-1.5-5.1l-106.6-15.1 37-41.9 95.5 20.8c16.7-2.1 31.9 9.7 34.1 26.4 1.9 13.8-6.2 27.2-19.3 32.2z"/><path class="st5" d="M1802.4-1290.9c-1.6-2.5-4-4.2-6.6-4.9l-36.4-9.1-3.7-.9c-4.4-1.1-8.2-4.4-10.4-9.1-1.2-2.4-1.8-5.1-2-7.9-.2-2.5.1-5.1.7-7.5l12.6-45.7 8.2-29.6c1-3.6 1.6-7.3 1.7-11 .5-10.4-2.2-20.7-7.5-28.9-9.6-14.8-26.2-20.4-40.8-13.6l-.6.3c-10.3 5-18.2 15.5-21.1 28.4l-8.9 38.9-18.3 80.1c-7 30.8 8 62.6 33.6 71 2.3.8 4.7 1.3 7.1 1.7l52.4 7.4 24.3 3.4c5.8.8 11.2-3.8 12.4-10.7 0-.2.1-.4.1-.6l.6-4.3 4.9-36.4v-.4c.5-3.8-.4-7.6-2.3-10.6z"/><path class="st1" d="M1914.7-1213.5c14.6 3.8 29.1-6.4 32.5-22.7.4-1.7.6-3.5.7-5.3l92.3-30-38-36.3-81.8 34c-15 .2-27 14.1-26.8 30.9.1 14.2 8.9 26.3 21.1 29.4z"/><path class="st5" d="m2054.7-1338.6-35.3-113.1c-2.9-9.3-8.1-16.9-14.6-21.4-2-1.4-4.1-2.5-6.3-3.2-.3-.1-.7-.2-1-.3-4.6-1.4-9.4-1.3-14 .4-8.5 3-15.6 10.9-19.6 21.7 0 0 0 .1-.1.1-4.5 12.2-4.6 26.6-.3 38.9l.4 1.2 25 69.8c3.3 9.3.6 20.7-6.1 25.3-.5.3-.9.6-1.4.9l-1.8.9-31.5 15.8c-4.9 2.4-7.6 9.9-6 16.8l.1.4 8.8 39.4c0 .2.1.4.1.5.1.3.2.7.3 1 1.9 6.1 6.8 9.3 11.4 7.5l17-6.2 3.5-1.3 43.9-16.1c22.2-8.1 35.4-39.8 29.5-70.6-.5-2.9-1.2-5.7-2-8.4z"/><path class="st6" d="M1625.2-1243.6c14.2 17.3 29.5 33.6 45.8 48.9h452c9.1 0 16.4 7.4 16.4 16.4l.7 114.5c27.8-12.8 53.8-29.1 77.5-48.5 6.6-5.4 12.9-11 19.1-16.9 4-3.8 8-7.7 11.8-11.7 28.8-30 52.1-64.7 68.8-102.7h-692.1z"/><path class="st7" d="M2248.3-1140.8c-3.8 4-7.8 7.9-11.8 11.7h-96.2v-11.7h108z"/><path class="st6" d="M2038.9-1516.3c-1-1.8-2.8-2.9-4.9-2.9h-327.8c-3.1 0-5.5 2.5-5.5 5.5v196.2h338.9v-196.2c0-.9-.2-1.8-.7-2.6z"/><path class="st6" d="M1700.4-1322.8v24.2c0 4.2 3.4 7.6 7.6 7.6h125.1v47.8h-1.7c-.5 0-1 .4-1 1v3.3c0 .5.4 1 1 1h77.7c.5 0 1-.4 1-1v-3.3c0-.5-.4-1-1-1h-1.7v-47.8h125.1c4.2 0 7.6-3.4 7.6-7.6v-24.2h-339.7z"/><circle class="st8" cx="1866.2" cy="-1423.6" r="31.3"/><path class="st9" d="M1855.1-1681.3c-6 1.7-11.7 1.1-17.2 4-6.2 3.3-12.5 7-18.5 11.2-10.6 2.5-25.5 28.8-28.4 24.8 3-13.4 13.4-35.5 29.8-42.8 6.8-3.1 22.3-7 29.6-8.5 1.8.5 9.9 3.3 13.2 3.6 25-.7 10.3 6-8.5 7.7z"/><path class="st10" d="M1853.5-1688.3c-6 1.7-11.7 1.1-17.2 4-6.2 3.3-12.5 7-18.5 11.2-10.6 2.5-25.5 28.8-28.4 24.8 2.9-11.4 13.4-35.5 29.8-42.8 6.8-3.1 15.3-4 22.6-5.5 9.7-1.4 19.3-1.1 20.2.6 21 6.5 15.3 7.9-8.5 7.7z"/><path class="st11" d="m2314.8-1527.3 61.9-61.7-61.9-61.8 18.9-18.8 80.8 80.6-80.8 80.6-18.9-18.9zM2137.9-1613.8h25.2v25.2h-25.2zM2239.1-1613.8h25.2v25.2h-25.2zM2188.5-1613.8h25.2v25.2h-25.2zM2103.8-1527.9l-62-61.7 61.9-61.8-18.8-18.8-80.8 80.6 80.8 80.5z"/><path class="st8" d="m2314.8-1539.2 61.9-61.8-61.9-61.7 18.9-18.8 80.8 80.5-80.8 80.6-18.9-18.8zM2137.9-1596.6h25.2v-25.2h-25.2v25.2zm126.4-25.1h-25.2v25.2h25.2v-25.2zm-75.8 25.1h25.2v-25.2h-25.2v25.2zM2103.8-1539.9l-62-61.7 61.9-61.7-18.8-18.9-80.8 80.6 80.8 80.6z"/><g class="st12"><linearGradient id="SVGID_1_" gradientUnits="userSpaceOnUse" x1="2288.49" y1="1123.98" x2="2288.49" y2="1215.785" gradientTransform="matrix(1 0 0 -1 -114.28 -120.704)"><stop offset="0" style="stop-color:gray;stop-opacity:.25"/><stop offset=".535" style="stop-color:gray;stop-opacity:.12"/><stop offset="1" style="stop-color:gray;stop-opacity:.1"/></linearGradient><path d="M2204.6-1320.1v-16.4h-82v75.8c0 8.8 7.2 16 16 16h50c8.8 0 16-7.2 16-16v-16.8c11.8 0 21.3-9.6 21.3-21.4-.1-11.7-9.6-21.2-21.3-21.2zm0 34.4v-26.2c7.2 0 13.1 5.9 13.1 13.1 0 7.3-5.9 13.1-13.1 13.1z" style="fill:url(#SVGID_1_)"/></g><path class="st8" d="M2201.9-1317.5c-10.7 0-19.5 8.7-19.5 19.5 0 10.7 8.7 19.5 19.5 19.5 10.7 0 19.5-8.7 19.5-19.5s-8.7-19.5-19.5-19.5zm0 31.4c-6.6 0-12-5.4-12-12s5.4-12 12-12 12 5.4 12 12-5.4 12-12 12z"/><path class="st14" d="M2201.9-1317.5c-10.7 0-19.5 8.7-19.5 19.5 0 10.7 8.7 19.5 19.5 19.5 10.7 0 19.5-8.7 19.5-19.5s-8.7-19.5-19.5-19.5zm0 31.4c-6.6 0-12-5.4-12-12s5.4-12 12-12 12 5.4 12 12-5.4 12-12 12z"/><path class="st8" d="M2127.1-1332.5h74.8v74.1c0 5.4-4.4 9.8-9.8 9.8h-55.3c-5.4 0-9.8-4.4-9.8-9.8v-74.1h.1z"/><path class="st14" d="M2188.5-1332.5v69.2c0 8.1-6.5 14.6-14.6 14.6h7.5c8.1 0 14.6-6.5 14.6-14.6v-69.2h-7.5z"/><path class="st5" d="M2141.9-1388.3c-1.3.2-2.7.6-3.3 1.7-1 1.8.8 3.8 2.4 5 3 2.3 6.2 4.5 8.2 7.6 2 3.2 2.7 7.6.5 10.6-2.9 3.9-9.9 4.8-10.5 9.7-.4 3.1 2.3 5.8 5 7.3 6.7 3.9 15.4 4.9 20.3 10.9 2-4.2 6.5-6.6 11-7.6s9.2-.9 13.7-1.6c1.5-.2 3.1-.7 3.8-2 1.3-2.6-2.4-5.7-1.1-8.3 1-2 3.8-1.8 5.8-2.6 3.3-1.3 4.7-5.6 3.8-9s-3.6-6.1-6.4-8.4c-7.6-6-16.7-9.5-25.9-12-4.3-1.2-9.3-3-13.8-3.2-4.4-.2-9.3 1.2-13.5 1.9z"/><path id="b6132315-04e2-4cdb-a713-107c9cd58b0b_00000075862754188725326600000013168339001245430164_" class="st1" d="M2782.7-1691.1c59.3-8.1 65.6 46.5 65.6 91.4 0 45-29.9 80.4-65.6 80.4-35.7 0-64.6-36.5-64.6-81.4-.1-44.9 6.3-82.4 64.6-90.4z"/><path class="st2" d="M2720-1585.2s-5.2-50 9-64c14.2-14.1 24.7-27.6 49.5-29.1 29.3-1.9 42.3-15.3 63.2 36.4 4.5 11.1 5.7 29.7 5.7 29.7l4.2-8.5s.3-7.3-2.2-24c-2.4-15.4-6-20-8.6-30.5-6.3-25.2-27.5-40.2-47.8-42.2-20.4-2-46.7 7.4-52.4 12.2-5.7 4.7-14.2 18.8-14.2 18.8s-13.2 9.4-14.1 15.1-3.4 25.4-3.4 25.4 3.9 30.2 4.6 35.7c.9 6.9.6 16.8.6 16.8l5.9 8.2z"/><path class="st15" d="M3270.4-1386.7c.1 91.7-35.3 179.8-98.8 245.9-3.8 4-7.8 7.9-11.8 11.7-6.1 5.8-12.5 11.5-19.1 16.9-61.4 50.6-138 79-217.6 80.7-2.6.1-5.3.1-8 .1-63.4 0-143.2-33.9-215.6-80.8-6-3.9-11.9-7.8-17.8-11.9-2.8-1.9-5.5-3.8-8.2-5.7-27.9-19.7-54.4-41.4-79.3-64.8-16.3-15.3-31.6-31.6-45.8-48.9-55.6-68.6-67.9-130.5 11.4-143.2 9.4-1.5 18.5-3.1 27.3-4.8 12.8-2.5 25.1-5.1 36.8-8 15.8-3.8 30.6-8 44.4-12.5 4.7-1.5 9.2-3 13.7-4.6 65.7-23.1 109.7-53.2 139.7-85.9 5.1-5.5 9.8-11.1 14.1-16.8 6.6-8.6 12.5-17.7 17.8-27.1a259.5 259.5 0 0 0 18.4-41l.3-.8c23.8-68.7 16.6-132.5 42.9-153.8 112.4-91.2 252.3 38.7 318 191.9 3.3 7.7 6.4 15.5 9.3 23.3 1.3 3.5 2.6 7 3.8 10.5 3.2 9.1 6.1 18.3 8.7 27.5 1 3.5 2 7 2.9 10.5 1 3.8 1.9 7.5 2.8 11.3 6.2 27.5 9.7 54.6 9.7 80.3z"/><path class="st16" d="M2923.1-1031.5c-2.6.1-5.3.1-8 .1-63.4 0-143.2-33.9-215.6-80.8-6-3.9-11.9-7.8-17.8-11.9l5.2-31.4 156.2-20.7 78.4 59.9 1.6 84.8z"/><path style="fill:#d0d1be" d="M2839.6-1112.2h-.6l.5-.1z"/><path class="st18" d="m2963.1-1427.2-.2 1.2-2.5 13-17.1 90.2-1 5.3-2.1 11.2-2.9 15.3-6.4 34-1.8 9.7-.7 3.6-.2 1.3-1.9 10.1-.6 3-4.7 34.5-4.1 30.1 13.6 13.6-8.1 8.1-5.3 30.5v.1h-217.5c-8.8-5.7-17.5-11.6-26-17.6l1.8-13.4s6.2-23.9 3.6-26.8c-2.6-2.9-8.2-8-8.2-8l7.1-16.6 1-2.3-1.7-34.4v-.8l-.6-11.4-.1-1.5-.1-2.2-2.1-43.7v-.7l-.6-13.2-.6-12.6-.3-5.3-2.6-53.1-1.7-36.1-1.5-31.4 6.1-2.1 65.4-22.2 27.1-35.2 56.3.4 27.6.2 46 42.7 10.5 5h.1l7.5 3.6 19 9.1 20.1 9.6 10.3 4.9.1.3z"/><path class="st1" d="M2772.6-1214.7c-15.6 6-33.1-1.7-39.2-17.3-.6-1.7-1.1-3.4-1.5-5.1l-106.6-15.1 37-41.9 95.5 20.8c16.7-2.1 31.9 9.7 34.1 26.4 1.9 13.8-6.1 27.2-19.3 32.2z"/><path class="st18" d="M2725.6-1290.9c-1.6-2.5-4-4.2-6.6-4.9l-36.4-9.1-3.7-.9c-4.4-1.1-8.2-4.4-10.4-9.1-1.2-2.4-1.8-5.1-2-7.9-.2-2.5.1-5.1.7-7.5l12.6-45.7 8.2-29.6c1-3.6 1.6-7.3 1.7-11 .5-10.4-2.2-20.7-7.5-28.9-9.6-14.8-26.2-20.4-40.8-13.6l-.6.3c-10.3 5-18.2 15.5-21.1 28.4l-8.9 38.8-18.3 80.1c-7 30.8 8 62.6 33.6 71 2.3.8 4.7 1.3 7.1 1.7l52.4 7.4 24.3 3.4c5.8.8 11.2-3.8 12.4-10.7 0-.2.1-.4.1-.6l.6-4.3 4.9-36.4.1-.4c.4-3.7-.4-7.5-2.4-10.5z"/><path class="st1" d="M2838-1213.5c14.6 3.8 29.1-6.4 32.5-22.7.4-1.7.6-3.5.7-5.3l92.3-30-38-36.3-81.8 34c-15 .2-27 14.1-26.8 30.9.1 14.2 8.8 26.3 21.1 29.4z"/><path class="st18" d="m2977.9-1338.6-35.3-113.1c-2.9-9.3-8.1-16.9-14.6-21.4-2-1.4-4.1-2.5-6.3-3.2-.3-.1-.7-.2-1-.3-4.6-1.4-9.4-1.3-14 .4-8.5 3-15.6 10.9-19.6 21.7 0 0 0 .1-.1.1-4.5 12.2-4.6 26.6-.3 38.9l.4 1.2 25 69.8c3.3 9.3.6 20.7-6.1 25.3-.5.3-.9.6-1.4.9l-1.8.9-31.5 15.8c-4.9 2.4-7.6 9.9-6 16.8l.1.4 8.8 39.4c0 .2.1.4.1.5.1.3.2.7.3 1 1.9 6.1 6.8 9.2 11.4 7.5l17-6.2 3.5-1.3 43.9-16.1c22.2-8.1 35.4-39.8 29.5-70.6-.5-2.9-1.1-5.7-2-8.4z"/><path class="st16" d="M2548.4-1243.6c14.2 17.3 29.5 33.6 45.8 48.9h452c9.1 0 16.4 7.4 16.4 16.4l.7 114.5c27.8-12.8 53.8-29.1 77.5-48.5 6.6-5.4 12.9-11 19.1-16.9 4-3.8 8-7.7 11.8-11.7 28.8-30 52.1-64.7 68.8-102.7h-692.1z"/><path class="st16" d="M3171.6-1140.8c-3.8 4-7.8 7.9-11.8 11.7h-96.2v-11.7h108zM2962.2-1516.3c-1-1.8-2.8-2.9-4.9-2.9h-327.8c-3.1 0-5.5 2.5-5.5 5.5v196.2h338.9v-196.2c0-.9-.3-1.8-.7-2.6z"/><path class="st16" d="M2623.6-1322.8v24.2c0 4.2 3.4 7.6 7.6 7.6h125.1v47.8h-1.7c-.5 0-1 .4-1 1v3.3c0 .5.4 1 1 1h77.7c.5 0 1-.4 1-1v-3.3c0-.5-.4-1-1-1h-1.7v-47.8h125.1c4.2 0 7.6-3.4 7.6-7.6v-24.2h-339.7z"/><circle class="st19" cx="2789.4" cy="-1423.6" r="31.3"/><path class="st9" d="M2778.4-1681.3c-6 1.7-11.7 1.1-17.2 4-6.2 3.3-12.5 7-18.5 11.2-10.6 2.5-25.5 28.8-28.4 24.8 3-13.4 13.4-35.5 29.8-42.8 6.8-3.1 22.3-7 29.6-8.5 1.8.5 9.9 3.3 13.2 3.6 25-.7 10.3 6-8.5 7.7z"/><path class="st10" d="M2776.7-1688.3c-6 1.7-11.7 1.1-17.2 4-6.2 3.3-12.5 7-18.5 11.2-10.6 2.5-25.5 28.8-28.4 24.8 2.9-11.4 13.4-35.5 29.8-42.8 6.8-3.1 15.3-4 22.6-5.5 9.7-1.4 19.3-1.1 20.2.6 21.1 6.5 15.3 7.9-8.5 7.7z"/><path class="st20" d="m3238-1527.3 62-61.7-62-61.8 18.9-18.8 80.8 80.6-80.8 80.6-18.9-18.9zM3061.2-1613.8h25.2v25.2h-25.2zM3162.4-1613.8h25.2v25.2h-25.2zM3111.8-1613.8h25.2v25.2h-25.2zM3027.1-1527.9l-62-61.7 61.9-61.8-18.9-18.8-80.7 80.6 80.8 80.5z"/><path class="st19" d="m3238-1539.2 62-61.8-62-61.7 18.9-18.8 80.8 80.5-80.8 80.6-18.9-18.8zM3061.2-1596.6h25.2v-25.2h-25.2v25.2zm126.3-25.1h-25.2v25.2h25.2v-25.2zm-75.7 25.1h25.2v-25.2h-25.2v25.2zM3027.1-1539.9l-62-61.7 61.9-61.7-18.9-18.9-80.7 80.6 80.8 80.6z"/><g class="st12"><linearGradient id="SVGID_00000099632828510832800080000018131130807991969972_" gradientUnits="userSpaceOnUse" x1="3211.744" y1="1123.98" x2="3211.744" y2="1215.785" gradientTransform="matrix(1 0 0 -1 -114.28 -120.704)"><stop offset="0" style="stop-color:#7f7f7f;stop-opacity:.25"/><stop offset=".535" style="stop-color:#7f7f7f;stop-opacity:.12"/><stop offset="1" style="stop-color:#7f7f7f;stop-opacity:.1"/></linearGradient><path style="fill:url(#SVGID_00000099632828510832800080000018131130807991969972_)" d="M3127.8-1320.1v-16.4h-82v75.8c0 8.8 7.2 16 16 16h50c8.8 0 16-7.2 16-16v-16.8c11.8 0 21.3-9.6 21.3-21.4 0-11.7-9.5-21.2-21.3-21.2zm0 34.4v-26.2c7.2 0 13.1 5.9 13.1 13.1 0 7.3-5.8 13.1-13.1 13.1z"/></g><path d="M3125.2-1317.5c-10.7 0-19.5 8.7-19.5 19.5 0 10.7 8.7 19.5 19.5 19.5 10.7 0 19.5-8.7 19.5-19.5-.1-10.8-8.8-19.5-19.5-19.5zm0 31.4c-6.6 0-12-5.4-12-12s5.4-12 12-12 12 5.4 12 12-5.4 12-12 12z" style="fill:#939c00"/><path class="st23" d="M3125.2-1317.5c-10.7 0-19.5 8.7-19.5 19.5 0 10.7 8.7 19.5 19.5 19.5 10.7 0 19.5-8.7 19.5-19.5-.1-10.8-8.8-19.5-19.5-19.5zm0 31.4c-6.6 0-12-5.4-12-12s5.4-12 12-12 12 5.4 12 12-5.4 12-12 12z"/><path class="st19" d="M3050.3-1332.5h74.8v74.1c0 5.4-4.4 9.8-9.8 9.8H3060c-5.4 0-9.8-4.4-9.8-9.8v-74.1h.1z"/><path class="st23" d="M3111.7-1332.5v69.2c0 8.1-6.5 14.6-14.6 14.6h7.5c8.1 0 14.6-6.5 14.6-14.6v-69.2h-7.5z"/><path class="st0" d="M3065.1-1388.3c-1.3.2-2.7.6-3.3 1.7-1 1.8.8 3.8 2.4 5 3 2.3 6.2 4.5 8.2 7.6 2 3.2 2.7 7.6.5 10.6-2.9 3.9-9.9 4.8-10.5 9.7-.4 3.1 2.3 5.8 5 7.3 6.7 3.9 15.4 4.9 20.3 10.9 2-4.2 6.5-6.6 11-7.6s9.2-.9 13.7-1.6c1.5-.2 3.1-.7 3.8-2 1.3-2.6-2.4-5.7-1.1-8.3 1-2 3.8-1.8 5.8-2.6 3.3-1.3 4.7-5.6 3.8-9-.9-3.5-3.6-6.1-6.4-8.4-7.6-6-16.7-9.5-25.9-12-4.3-1.2-9.3-3-13.8-3.2-4.3-.2-9.2 1.2-13.5 1.9z"/><defs><path id="SVGID_00000153693670132026894450000007920930291906797698_" d="M2452.3-488.5c0 244.9 70.2 512.2-441.9 443.5-241.9-32.5-441.9-198.5-441.9-443.5s-56.2-475 441.9-443.5c243.6 15.4 441.9 198.5 441.9 443.5z"/></defs><use xlink:href="#SVGID_00000153693670132026894450000007920930291906797698_" style="overflow:visible;fill:#303030"/><clipPath id="SVGID_00000044174430307585276360000014732372462093916334_"><use xlink:href="#SVGID_00000153693670132026894450000007920930291906797698_" style="overflow:visible"/></clipPath><path style="clip-path:url(#SVGID_00000044174430307585276360000014732372462093916334_);fill:#303030" d="m2210.8-658.1 72.6-72.5-72.6-72.4 22.1-22.1 94.8 94.5-94.8 94.5-22.1-22zM2003.2-759.7h29.5v29.5h-29.5zM2122-759.7h29.5v29.5H2122zM2062.6-759.7h29.5v29.5h-29.5zM1963.2-658.9l-72.7-72.4 72.6-72.5-22.1-22.1-94.8 94.6 94.9 94.5z"/><path style="clip-path:url(#SVGID_00000044174430307585276360000014732372462093916334_);fill:#303030" d="m2210.8-672.2 72.6-72.4-72.6-72.5 22.1-22.1 94.8 94.6-94.8 94.5-22.1-22.1zM2003.2-739.5h29.5V-769h-29.5v29.5zm148.3-29.5H2122v29.5h29.5V-769zm-88.9 29.5h29.5V-769h-29.5v29.5zM1963.2-672.9l-72.7-72.5 72.6-72.4-22.1-22.1-94.8 94.5 94.9 94.6z"/><path id="b6132315-04e2-4cdb-a713-107c9cd58b0b_00000152250028852864264010000009728492771429218694_" style="clip-path:url(#SVGID_00000044174430307585276360000014732372462093916334_);fill:#303030" d="M1744-798c130.3-17.9 144.3 102.2 144.3 201.1S1822.5-420 1744-420c-78.5 0-142.1-80.2-142.1-179.1S1615.8-780.4 1744-798z"/><path style="clip-path:url(#SVGID_00000044174430307585276360000014732372462093916334_);fill:#303030" d="M1606.2-565.2S1594.9-675.1 1626-706c31.2-30.9 54.3-60.6 109-64.1 64.5-4.1 92.9-33.7 139.1 80.1 9.9 24.4 12.5 65.3 12.5 65.3l9.2-18.7s.7-16-4.9-52.7c-5.2-33.8-13.1-44.1-18.9-67.1-13.9-55.4-60.4-88.5-105.2-92.8-44.8-4.3-102.8 16.4-115.2 26.8s-31.3 41.3-31.3 41.3-29 20.7-31.1 33.3c-2.1 12.6-7.4 55.9-7.4 55.9s8.6 66.5 10.1 78.6c1.9 15.2 1.3 37 1.3 37l13 17.9zM1904.6 65.9h-1.4l1.2-.1z"/><path style="clip-path:url(#SVGID_00000044174430307585276360000014732372462093916334_);fill:#303030" d="m2140.8-217.6-.5 2.6-5.4 28.7L2097.3 12l-2.2 11.7-4.7 24.7-6.4 33.7-14.1 74.7-4 21.4-1.5 8-.5 2.8-4.2 22.1-1.3 6.7-10.2 75.9-9 66.2 30 30-17.9 17.9-11.7 67.1v.2h-478.4c-19.4-12.5-38.4-25.5-57.2-38.8l3.9-29.5s13.5-52.6 7.9-58.9c-5.7-6.3-18.1-17.5-18.1-17.5l15.7-36.6 2.2-5.1-3.7-75.7-.1-1.8-1.2-25-.2-3.2-.2-4.8-4.6-96.1-.1-1.6-1.4-29.1-1.3-27.7-.6-11.7-5.7-116.8-3.8-79.3-3.3-69.1 13.4-4.6 143.7-48.8L1706-384l123.9.9 60.6.5 101.2 93.9 23 11 .2.1 16.5 7.9 41.9 20 44.3 21.2 22.7 10.8.5.1z"/><path style="clip-path:url(#SVGID_00000044174430307585276360000014732372462093916334_);fill:#303030" d="M1722 249.6c-34.3 13.3-72.9-3.7-86.2-38-1.4-3.7-2.5-7.4-3.3-11.3L1398.2 167l81.5-92.1 210 45.7c36.7-4.7 70.2 21.3 74.9 57.9 3.9 30.7-13.7 60.1-42.6 71.1z"/><path style="clip-path:url(#SVGID_00000044174430307585276360000014732372462093916334_);fill:#303030" d="M1618.6 82.1c-3.6-5.5-8.7-9.3-14.4-10.7l-80-20-8.2-2c-9.7-2.4-18-9.7-22.9-19.9-2.5-5.3-4.1-11.3-4.5-17.4-.4-5.6.2-11.2 1.6-16.4l27.7-100.4 18-65.1c2.2-7.9 3.5-16 3.8-24.3 1-22.9-4.9-45.4-16.6-63.5-21.1-32.6-57.6-44.8-89.7-30-.5.2-.9.4-1.4.6-22.8 10.9-39.9 34.1-46.3 62.5l-19.5 85.4L1325.9 37c-15.5 67.6 17.6 137.6 73.9 156.2 5.1 1.7 10.4 2.9 15.7 3.7l115.3 16.2 53.3 7.5c12.8 1.8 24.6-8.4 27.2-23.6.1-.4.2-.8.2-1.2l1.3-9.5 10.9-80 .1-.8c.9-8.4-.9-16.9-5.2-23.4zM1865.7 252.1c32 8.3 64-14 71.4-49.8.8-3.8 1.3-7.7 1.5-11.6l203-66-83.7-79.7-180 74.9c-33 .5-59.4 31-58.9 67.9.4 30.9 19.7 57.5 46.7 64.3z"/><path style="clip-path:url(#SVGID_00000044174430307585276360000014732372462093916334_);fill:#303030" d="m2173.4-22.8-77.7-248.8c-6.4-20.4-17.7-37.1-32-46.9-4.4-3-9.1-5.4-13.9-7-.7-.3-1.5-.5-2.2-.7-10.2-3.1-20.7-2.8-30.8.8-18.6 6.7-34.3 24-43.2 47.8 0 .1-.1.2-.1.3-9.9 26.7-10.1 58.4-.6 85.4l1 2.7 54.9 153.4c7.3 20.6 1.3 45.5-13.4 55.7-1 .7-2.1 1.3-3.1 1.9l-3.9 1.9-69.3 34.9c-10.8 5.4-16.6 21.7-13.2 36.9l.2.8 19.4 86.6.3 1.2c.2.7.4 1.5.6 2.2 4.3 13.3 14.9 20.3 25 16.6l37.4-13.7 7.6-2.8 96.6-35.5c48.7-17.9 77.8-87.4 64.9-155.3-1.1-6.4-2.7-12.5-4.5-18.4z"/><path style="clip-path:url(#SVGID_00000044174430307585276360000014732372462093916334_);fill:#303030" d="M2138.8-413.7c-2.1-3.9-6.2-6.4-10.7-6.4h-720.9c-6.7 0-12.2 5.5-12.2 12.2V23.7h745.3v-431.5c0-2.1-.5-4.1-1.5-5.9z"/><path style="clip-path:url(#SVGID_00000044174430307585276360000014732372462093916334_);fill:#303030" d="M1394.3 12v53.2c0 9.3 7.5 16.8 16.8 16.8h275.1v105.1h-3.7c-1.2 0-2.2 1-2.2 2.2v7.3c0 1.2 1 2.2 2.2 2.2h170.8c1.2 0 2.2-1 2.2-2.2v-7.3c0-1.2-1-2.2-2.2-2.2h-3.7V82h275.1c9.3 0 16.8-7.5 16.8-16.8V12h-747.2z"/><circle style="clip-path:url(#SVGID_00000044174430307585276360000014732372462093916334_);fill:#303030" cx="1758.9" cy="-209.7" r="68.8"/><path style="clip-path:url(#SVGID_00000044174430307585276360000014732372462093916334_);fill:#303030" d="M1734.6-776.4c-13.1 3.8-25.7 2.4-37.8 8.9-13.5 7.3-27.4 15.4-40.7 24.6-23.3 5.6-56.1 63.3-62.4 54.5 6.6-29.4 29.5-78 65.4-94.2 14.9-6.8 49.1-15.4 65.2-18.8 4 1.1 21.7 7.3 28.9 8 55-1.4 22.8 13.2-18.6 17z"/><path style="clip-path:url(#SVGID_00000044174430307585276360000014732372462093916334_);fill:#303030" d="M1731-791.9c-13.1 3.8-25.7 2.4-37.8 8.9-13.5 7.3-27.4 15.4-40.7 24.6-23.3 5.6-56.1 63.3-62.4 54.5 6.3-25.1 29.5-78 65.4-94.2 14.9-6.8 33.7-8.8 49.8-12.2 21.3-3 42.4-2.4 44.3 1.4 46.3 14.4 33.7 17.5-18.6 17z"/><path class="st15" d="M2241.7-307.9c-43.1.1-77.9 35-78 78-.1 43.2 34.8 78.3 78 78.4v61.7c0 32.4 26.3 58.7 58.7 58.7h183.5c32.4 0 58.7-26.3 58.7-58.7V-368h-300.8l-.1 60.1zm-48.2 78.2c0-26.6 21.5-48.1 48.1-48.1v96.3c-26.5-.1-48.1-21.6-48.1-48.2z" style="opacity:.7;clip-path:url(#SVGID_00000044174430307585276360000014732372462093916334_)"/><path style="clip-path:url(#SVGID_00000044174430307585276360000014732372462093916334_);fill:#303030" d="M2179.9-227.1c0 39.4 32 71.4 71.4 71.4 39.4 0 71.4-32 71.4-71.4 0-39.4-32-71.4-71.4-71.4s-71.4 32-71.4 71.4zm27.5 0c0-24.3 19.7-43.9 43.9-43.9s43.9 19.7 43.9 43.9-19.7 43.9-43.9 43.9-43.9-19.6-43.9-43.9z"/><path style="opacity:.1;clip-path:url(#SVGID_00000044174430307585276360000014732372462093916334_);fill:#303030;enable-background:new" d="M2179.9-227.1c0 39.4 32 71.4 71.4 71.4 39.4 0 71.4-32 71.4-71.4 0-39.4-32-71.4-71.4-71.4s-71.4 32-71.4 71.4zm27.5 0c0-24.3 19.7-43.9 43.9-43.9s43.9 19.7 43.9 43.9-19.7 43.9-43.9 43.9-43.9-19.6-43.9-43.9z"/><path style="clip-path:url(#SVGID_00000044174430307585276360000014732372462093916334_);fill:#303030" d="M2526-353.4v271.8c0 19.8-16 35.8-35.8 35.8h-203.1c-19.8 0-35.8-16-35.8-35.8v-271.8H2526z"/><path style="opacity:.3;clip-path:url(#SVGID_00000044174430307585276360000014732372462093916334_);fill:#303030;enable-background:new" d="M2273.3-353.4v254c0 29.6 24 53.6 53.6 53.6h27.5c-29.6 0-53.6-24-53.6-53.6v-254h-27.5z"/><path style="clip-path:url(#SVGID_00000044174430307585276360000014732372462093916334_);fill:#303030" d="M2422.4-565.1c-16.4.7-34.8 7.4-50.6 11.7-33.8 9.3-67.3 22.1-95.1 44-10.3 8.1-20.1 18-23.6 30.7s1.6 28.4 13.8 33.2c7.5 2.9 17.8 2.3 21.3 9.6 4.6 9.5-8.7 20.9-4.1 30.5 2.4 4.9 8.5 6.6 13.9 7.4 16.8 2.6 33.9 2.3 50.5 6 16.5 3.8 33.1 12.6 40.5 27.8 17.9-22.2 49.8-26 74.5-40.1 10-5.7 19.9-15.5 18.3-26.9-2.5-17.8-27.9-20.9-38.6-35.4-8.2-11.1-5.8-27.2 1.7-38.8 7.5-11.6 19.1-19.7 30.1-28 6-4.5 12.5-11.9 8.9-18.4-2.3-4.1-7.5-5.4-12.1-6.2-15.6-2.8-33.6-7.8-49.4-7.1z"/><defs><path id="SVGID_00000137830604279544347760000012418030856470789041_" d="M2452.3-488.5c0 244.9 70.2 512.2-441.9 443.5-241.9-32.5-441.9-198.5-441.9-443.5s-56.2-475 441.9-443.5c243.6 15.4 441.9 198.5 441.9 443.5z"/></defs><clipPath id="SVGID_00000120530066652850081110000012112076736071918783_"><use xlink:href="#SVGID_00000137830604279544347760000012418030856470789041_" style="overflow:visible"/></clipPath><path style="clip-path:url(#SVGID_00000120530066652850081110000012112076736071918783_);fill:#191919" d="m2210.8-658.1 72.6-72.5-72.6-72.4 22.1-22.1 94.8 94.5-94.8 94.5-22.1-22zM2003.2-759.7h29.5v29.5h-29.5zM2122-759.7h29.5v29.5H2122zM2062.6-759.7h29.5v29.5h-29.5zM1963.2-658.9l-72.7-72.4 72.6-72.5-22.1-22.1-94.8 94.6 94.9 94.5z"/><path style="clip-path:url(#SVGID_00000120530066652850081110000012112076736071918783_);fill:#b4c738" d="m2210.8-672.2 72.6-72.4-72.6-72.5 22.1-22.1 94.8 94.6-94.8 94.5-22.1-22.1zM2003.2-739.5h29.5V-769h-29.5v29.5zm148.3-29.5H2122v29.5h29.5V-769zm-88.9 29.5h29.5V-769h-29.5v29.5zM1963.2-672.9l-72.7-72.5 72.6-72.4-22.1-22.1-94.8 94.5 94.9 94.6z"/><path id="b6132315-04e2-4cdb-a713-107c9cd58b0b_00000147929218759175197810000001248774379067003038_" style="clip-path:url(#SVGID_00000120530066652850081110000012112076736071918783_);fill:#ffb6b6" d="M1744-798c130.3-17.9 144.3 102.2 144.3 201.1S1822.5-420 1744-420c-78.5 0-142.1-80.2-142.1-179.1S1615.8-780.4 1744-798z"/><path style="clip-path:url(#SVGID_00000120530066652850081110000012112076736071918783_);fill:#735b4e" d="M1606.2-565.2S1594.9-675.1 1626-706c31.2-30.9 54.3-60.6 109-64.1 64.5-4.1 92.9-33.7 139.1 80.1 9.9 24.4 12.5 65.3 12.5 65.3l9.2-18.7s.7-16-4.9-52.7c-5.2-33.8-13.1-44.1-18.9-67.1-13.9-55.4-60.4-88.5-105.2-92.8-44.8-4.3-102.8 16.4-115.2 26.8s-31.3 41.3-31.3 41.3-29 20.7-31.1 33.3c-2.1 12.6-7.4 55.9-7.4 55.9s8.6 66.5 10.1 78.6c1.9 15.2 1.3 37 1.3 37l13 17.9z"/><path style="clip-path:url(#SVGID_00000120530066652850081110000012112076736071918783_);fill:#d0d1be" d="M1904.6 65.9h-1.4l1.2-.1z"/><path style="clip-path:url(#SVGID_00000120530066652850081110000012112076736071918783_);fill:#5e5e5e" d="m2140.8-217.6-.5 2.6-5.4 28.7L2097.3 12l-2.2 11.7-4.7 24.7-6.4 33.7-14.1 74.7-4 21.4-1.5 8-.5 2.8-4.2 22.1-1.3 6.7-10.2 75.9-9 66.2 30 30-17.9 17.9-11.7 67.1v.2h-478.4c-19.4-12.5-38.4-25.5-57.2-38.8l3.9-29.5s13.5-52.6 7.9-58.9c-5.7-6.3-18.1-17.5-18.1-17.5l15.7-36.6 2.2-5.1-3.7-75.7-.1-1.8-1.2-25-.2-3.2-.2-4.8-4.6-96.1-.1-1.6-1.4-29.1-1.3-27.7-.6-11.7-5.7-116.8-3.8-79.3-3.3-69.1 13.4-4.6 143.7-48.8L1706-384l123.9.9 60.6.5 101.2 93.9 23 11 .2.1 16.5 7.9 41.9 20 44.3 21.2 22.7 10.8.5.1z"/><path style="clip-path:url(#SVGID_00000120530066652850081110000012112076736071918783_);fill:#ffb6b6" d="M1722 249.6c-34.3 13.3-72.9-3.7-86.2-38-1.4-3.7-2.5-7.4-3.3-11.3L1398.2 167l81.5-92.1 210 45.7c36.7-4.7 70.2 21.3 74.9 57.9 3.9 30.7-13.7 60.1-42.6 71.1z"/><path style="clip-path:url(#SVGID_00000120530066652850081110000012112076736071918783_);fill:#5e5e5e" d="M1618.6 82.1c-3.6-5.5-8.7-9.3-14.4-10.7l-80-20-8.2-2c-9.7-2.4-18-9.7-22.9-19.9-2.5-5.3-4.1-11.3-4.5-17.4-.4-5.6.2-11.2 1.6-16.4l27.7-100.4 18-65.1c2.2-7.9 3.5-16 3.8-24.3 1-22.9-4.9-45.4-16.6-63.5-21.1-32.6-57.6-44.8-89.7-30-.5.2-.9.4-1.4.6-22.8 10.9-39.9 34.1-46.3 62.5l-19.5 85.4L1325.9 37c-15.5 67.6 17.6 137.6 73.9 156.2 5.1 1.7 10.4 2.9 15.7 3.7l115.3 16.2 53.3 7.5c12.8 1.8 24.6-8.4 27.2-23.6.1-.4.2-.8.2-1.2l1.3-9.5 10.9-80 .1-.8c.9-8.4-.9-16.9-5.2-23.4z"/><path style="clip-path:url(#SVGID_00000120530066652850081110000012112076736071918783_);fill:#ffb6b6" d="M1865.7 252.1c32 8.3 64-14 71.4-49.8.8-3.8 1.3-7.7 1.5-11.6l203-66-83.7-79.7-180 74.9c-33 .5-59.4 31-58.9 67.9.4 30.9 19.7 57.5 46.7 64.3z"/><path style="clip-path:url(#SVGID_00000120530066652850081110000012112076736071918783_);fill:#5e5e5e" d="m2173.4-22.8-77.7-248.8c-6.4-20.4-17.7-37.1-32-46.9-4.4-3-9.1-5.4-13.9-7-.7-.3-1.5-.5-2.2-.7-10.2-3.1-20.7-2.8-30.8.8-18.6 6.7-34.3 24-43.2 47.8 0 .1-.1.2-.1.3-9.9 26.7-10.1 58.4-.6 85.4l1 2.7 54.9 153.4c7.3 20.6 1.3 45.5-13.4 55.7-1 .7-2.1 1.3-3.1 1.9l-3.9 1.9-69.3 34.9c-10.8 5.4-16.6 21.7-13.2 36.9l.2.8 19.4 86.6.3 1.2c.2.7.4 1.5.6 2.2 4.3 13.3 14.9 20.3 25 16.6l37.4-13.7 7.6-2.8 96.6-35.5c48.7-17.9 77.8-87.4 64.9-155.3-1.1-6.4-2.7-12.5-4.5-18.4z"/><path style="clip-path:url(#SVGID_00000120530066652850081110000012112076736071918783_);fill:#90917b" d="M2138.8-413.7c-2.1-3.9-6.2-6.4-10.7-6.4h-720.9c-6.7 0-12.2 5.5-12.2 12.2V23.7h745.3v-431.5c0-2.1-.5-4.1-1.5-5.9z"/><path style="clip-path:url(#SVGID_00000120530066652850081110000012112076736071918783_);fill:#90917b" d="M1394.3 12v53.2c0 9.3 7.5 16.8 16.8 16.8h275.1v105.1h-3.7c-1.2 0-2.2 1-2.2 2.2v7.3c0 1.2 1 2.2 2.2 2.2h170.8c1.2 0 2.2-1 2.2-2.2v-7.3c0-1.2-1-2.2-2.2-2.2h-3.7V82h275.1c9.3 0 16.8-7.5 16.8-16.8V12h-747.2z"/><circle style="clip-path:url(#SVGID_00000120530066652850081110000012112076736071918783_);fill:#b4c738" cx="1758.9" cy="-209.7" r="68.8"/><path style="clip-path:url(#SVGID_00000120530066652850081110000012112076736071918783_);fill:#37221e" d="M1734.6-776.4c-13.1 3.8-25.7 2.4-37.8 8.9-13.5 7.3-27.4 15.4-40.7 24.6-23.3 5.6-56.1 63.3-62.4 54.5 6.6-29.4 29.5-78 65.4-94.2 14.9-6.8 49.1-15.4 65.2-18.8 4 1.1 21.7 7.3 28.9 8 55-1.4 22.8 13.2-18.6 17z"/><path style="clip-path:url(#SVGID_00000120530066652850081110000012112076736071918783_);fill:#29221a" d="M1731-791.9c-13.1 3.8-25.7 2.4-37.8 8.9-13.5 7.3-27.4 15.4-40.7 24.6-23.3 5.6-56.1 63.3-62.4 54.5 6.3-25.1 29.5-78 65.4-94.2 14.9-6.8 33.7-8.8 49.8-12.2 21.3-3 42.4-2.4 44.3 1.4 46.3 14.4 33.7 17.5-18.6 17z"/><g style="opacity:.7;clip-path:url(#SVGID_00000120530066652850081110000012112076736071918783_)"><linearGradient id="SVGID_00000075159342848409146270000000271605612818732704_" gradientUnits="userSpaceOnUse" x1="2170.794" y1="-89.534" x2="2170.794" y2="247.362" gradientTransform="rotate(180 2261.92 -60.352)"><stop offset="0" style="stop-color:#7f7f7f;stop-opacity:.25"/><stop offset=".535" style="stop-color:#7f7f7f;stop-opacity:.12"/><stop offset="1" style="stop-color:#7f7f7f;stop-opacity:.1"/></linearGradient><path style="fill:url(#SVGID_00000075159342848409146270000000271605612818732704_)" d="M2241.7-307.9c-43.1.1-77.9 35-78 78-.1 43.2 34.8 78.3 78 78.4v61.7c0 32.4 26.3 58.7 58.7 58.7h183.5c32.4 0 58.7-26.3 58.7-58.7V-368h-300.8l-.1 60.1zm-48.2 78.2c0-26.6 21.5-48.1 48.1-48.1v96.3c-26.5-.1-48.1-21.6-48.1-48.2z"/></g><path style="clip-path:url(#SVGID_00000120530066652850081110000012112076736071918783_);fill:#939c00" d="M2179.9-227.1c0 39.4 32 71.4 71.4 71.4 39.4 0 71.4-32 71.4-71.4 0-39.4-32-71.4-71.4-71.4s-71.4 32-71.4 71.4zm27.5 0c0-24.3 19.7-43.9 43.9-43.9s43.9 19.7 43.9 43.9-19.7 43.9-43.9 43.9-43.9-19.6-43.9-43.9z"/><path style="opacity:.1;clip-path:url(#SVGID_00000120530066652850081110000012112076736071918783_);fill:#b4c738;enable-background:new" d="M2179.9-227.1c0 39.4 32 71.4 71.4 71.4 39.4 0 71.4-32 71.4-71.4 0-39.4-32-71.4-71.4-71.4s-71.4 32-71.4 71.4zm27.5 0c0-24.3 19.7-43.9 43.9-43.9s43.9 19.7 43.9 43.9-19.7 43.9-43.9 43.9-43.9-19.6-43.9-43.9z"/><path style="clip-path:url(#SVGID_00000120530066652850081110000012112076736071918783_);fill:#b4c738" d="M2526-353.4v271.8c0 19.8-16 35.8-35.8 35.8h-203.1c-19.8 0-35.8-16-35.8-35.8v-271.8H2526z"/><path style="opacity:.3;clip-path:url(#SVGID_00000120530066652850081110000012112076736071918783_);fill:#fff;enable-background:new" d="M2273.3-353.4v254c0 29.6 24 53.6 53.6 53.6h27.5c-29.6 0-53.6-24-53.6-53.6v-254h-27.5z"/><path style="clip-path:url(#SVGID_00000120530066652850081110000012112076736071918783_);fill:#686868" d="M2422.4-565.1c-16.4.7-34.8 7.4-50.6 11.7-33.8 9.3-67.3 22.1-95.1 44-10.3 8.1-20.1 18-23.6 30.7s1.6 28.4 13.8 33.2c7.5 2.9 17.8 2.3 21.3 9.6 4.6 9.5-8.7 20.9-4.1 30.5 2.4 4.9 8.5 6.6 13.9 7.4 16.8 2.6 33.9 2.3 50.5 6 16.5 3.8 33.1 12.6 40.5 27.8 17.9-22.2 49.8-26 74.5-40.1 10-5.7 19.9-15.5 18.3-26.9-2.5-17.8-27.9-20.9-38.6-35.4-8.2-11.1-5.8-27.2 1.7-38.8 7.5-11.6 19.1-19.7 30.1-28 6-4.5 12.5-11.9 8.9-18.4-2.3-4.1-7.5-5.4-12.1-6.2-15.6-2.8-33.6-7.8-49.4-7.1z"/><path class="st6" d="M1650.6 1475.5H422.9c-26.4 0-47.7-21.4-47.8-47.8V54c0-26.4 21.4-47.7 47.8-47.8h1227.7c26.4 0 47.7 21.4 47.8 47.8v1373.8c-.1 26.3-21.5 47.7-47.8 47.7zM422.9 11.8c-23.3 0-42.1 18.9-42.1 42.1v1373.8c0 23.3 18.9 42.1 42.1 42.1h1227.7c23.3 0 42.1-18.9 42.1-42.1V54c0-23.3-18.9-42.1-42.1-42.1H422.9z"/><path class="st6" d="M377.9 123.1h1317.6v5.6H377.9z"/><circle class="st8" cx="442.6" cy="68" r="22.5"/><circle class="st8" cx="512.8" cy="68" r="22.5"/><circle class="st8" cx="583" cy="68" r="22.5"/><path class="st6" d="M1475 329.3H598.5c-20.2 0-36.5-16.4-36.5-36.5s16.4-36.5 36.5-36.5H1475c20.2 0 36.5 16.4 36.5 36.5s-16.3 36.5-36.5 36.5zm-876.5-67.4c-17.1 0-30.9 13.8-30.9 30.9 0 17.1 13.8 30.9 30.9 30.9H1475c17.1 0 30.9-13.8 30.9-30.9 0-17.1-13.8-30.9-30.9-30.9H598.5z"/><path class="st43" d="M1258.3 617.5h-399c-12.4 0-22.5-10.1-22.5-22.5s10.1-22.5 22.5-22.5h398.9c12.4 0 22.5 10.1 22.5 22.5s-10 22.5-22.4 22.5zM1488.6 693.4H859.3c-12.4 0-22.5-10.1-22.5-22.5s10.1-22.5 22.5-22.5h629.3c12.4 0 22.5 10.1 22.5 22.5s-10.1 22.5-22.5 22.5z"/><path class="st6" d="M709.9 697.6H589.1c-14.7 0-26.7-12-26.7-26.7V595c0-14.7 12-26.7 26.7-26.7h120.8c14.7 0 26.7 12 26.7 26.7v75.9c-.1 14.7-12 26.6-26.7 26.7zM589.1 574c-11.6 0-21.1 9.4-21.1 21.1V671c0 11.6 9.4 21.1 21.1 21.1h120.8c11.6 0 21.1-9.4 21.1-21.1v-76c0-11.6-9.4-21.1-21.1-21.1H589.1z"/><path class="st43" d="M1258.3 884.4h-399c-12.4 0-22.5-10.1-22.5-22.5s10.1-22.5 22.5-22.5h398.9c12.4 0 22.5 10.1 22.5 22.5s-10 22.5-22.4 22.5zM1488.6 960.2H859.3c-12.4 0-22.5-10.1-22.5-22.5s10.1-22.5 22.5-22.5h629.3c12.4 0 22.5 10.1 22.5 22.5s-10.1 22.5-22.5 22.5z"/><path class="st6" d="M709.9 964.5H589.1c-14.7 0-26.7-12-26.7-26.7v-75.9c0-14.7 12-26.7 26.7-26.7h120.8c14.7 0 26.7 12 26.7 26.7v75.9c-.1 14.7-12 26.6-26.7 26.7zM589.1 840.8c-11.6 0-21.1 9.4-21.1 21.1v75.9c0 11.6 9.4 21.1 21.1 21.1h120.8c11.6 0 21.1-9.4 21.1-21.1v-75.9c0-11.6-9.4-21.1-21.1-21.1H589.1z"/><path class="st3" d="M1258.3 1151.3h-399c-12.4 0-22.5-10.1-22.5-22.5s10.1-22.5 22.5-22.5h398.9c12.4 0 22.5 10.1 22.5 22.5s-10 22.5-22.4 22.5zM1488.6 1227.1H859.3c-12.4 0-22.5-10.1-22.5-22.5s10.1-22.5 22.5-22.5h629.3c12.4 0 22.5 10.1 22.5 22.5 0 12.5-10.1 22.5-22.5 22.5zM709.9 1231.3H589.1c-14.7 0-26.7-12-26.7-26.7v-75.9c0-14.7 12-26.7 26.7-26.7h120.8c14.7 0 26.7 12 26.7 26.7v75.9c-.1 14.8-12 26.7-26.7 26.7z"/><path class="st8" d="m649.5 674.4-6.5-5.9c-23.1-21.2-38.4-35-38.4-52.1-.2-13.5 10.5-24.6 24-24.8h.7c7.8 0 15.2 3.5 20.2 9.5 5-6 12.4-9.4 20.2-9.5 13.5-.2 24.5 10.6 24.7 24.1v.7c0 17.1-15.3 30.9-38.4 52.1l-6.5 5.9zM649.5 941.2l-6.5-5.9c-23.1-21.2-38.4-35-38.4-52.1-.2-13.5 10.5-24.6 24-24.8h.7c7.8 0 15.2 3.5 20.2 9.5 5-6 12.4-9.4 20.2-9.5 13.5-.2 24.5 10.6 24.7 24.1v.7c0 17.1-15.3 30.9-38.4 52.1l-6.5 5.9z"/><path class="st7" d="M448.1 1185.3H327.3c-14.7 0-26.7-12-26.7-26.7v-75.9c0-14.7 12-26.7 26.7-26.7h120.8c14.7 0 26.7 12 26.7 26.7v75.9c-.1 14.7-12 26.7-26.7 26.7z"/><path class="st6" d="M448.1 1185.3H327.3c-14.7 0-26.7-12-26.7-26.7v-75.9c0-14.7 12-26.7 26.7-26.7h120.8c14.7 0 26.7 12 26.7 26.7v75.9c-.1 14.7-12 26.7-26.7 26.7zm-120.8-123.6c-11.6 0-21.1 9.4-21.1 21.1v75.9c0 11.6 9.4 21.1 21.1 21.1h120.8c11.6 0 21.1-9.4 21.1-21.1v-75.9c0-11.6-9.4-21.1-21.1-21.1H327.3z"/><path class="st8" d="m387.7 1162.1-6.5-5.9c-23.1-21.2-38.4-35-38.4-52.1-.2-13.5 10.5-24.6 24-24.8h.7c7.8 0 15.2 3.5 20.2 9.5 5-6 12.4-9.4 20.2-9.5 13.5-.2 24.5 10.6 24.7 24.1v.7c0 17.1-15.3 30.9-38.4 52.1l-6.5 5.9z"/><path class="st44" d="m118.4 1030.2 39.7 78.6 118.6 53.9c12.7 21.4 52.9 23.1 55.9 9.2 3.3-15.5-48.9-40.5-48.9-40.5l-99.2-67.1-8.7-57.8-57.4 23.7zM135.8 1589l-7.3 58.6 42.4 2.9 4.4-61.5z"/><path class="st4" d="M141.6 1638.8c-3.8-4-7.3-8.3-10.5-12.8-6.1-8.4-11.5 34.8-11.5 34.8s-5.9 17.6-4.4 26.3c1.5 8.8 35.1 8.8 41 7.3 5.9-1.5 35.1 0 35.1 0h43.9c38.1-17.6 0-29.3 0-29.3-11.7-1.5-51.2-38.1-51.2-38.1l-8.8-16.1c-5.9-1.5-11.7 20.5-11.7 20.5l-21.9 7.4z"/><path class="st44" d="m26 1589.8-7.3 58.5 42.4 2.9 4.4-61.4z"/><path class="st4" d="M31.9 1639.5c-3.8-4-7.3-8.3-10.5-12.8-6.1-8.4-11.5 34.8-11.5 34.8s-5.9 16.1-4.4 24.9 35.1 8.8 41 7.3c5.9-1.5 35.1 1.5 35.1 1.5h43.9c38.1-17.6 0-29.3 0-29.3-11.7-1.5-51.2-38.1-51.2-38.1l-8.8-16.1c-5.9-1.5-11.7 20.5-11.7 20.5l-21.9 7.3zM74.3 1212.2c-5.9 7.3-2.9 32.2-2.9 32.2s-10.2 80.5-5.9 87.8-2.9 13.2-7.3 23.4-8.8 35.1-8.8 35.1C24.5 1411.2 26 1504.9 26 1504.9l-8.8 83.4c2.9 8.8 43.9 10.2 49.8 8.8 5.9-1.5 23.4-133.2 23.4-133.2l39.5-74.6s-2.9 199.1-2.9 207.8 39.5 4.4 48.3 4.4 8.8-146.4 8.8-146.4l8.8-38.1 46.8-174.2v-20.5l-7.3-10.2c0 .1-152.2-7.3-158.1.1z"/><path class="st44" d="M185.1 824.8c0 30.4-21.4 55.1-46.4 55.1s-45.4-24.7-45.4-55.1 20.4-53.7 45.4-55.1c37.3-2.1 46.4 24.7 46.4 55.1z"/><path class="st44" d="M161.4 855.8c-9.2 20.5-3.8 49.1 14.6 80.5l-74.6-35.1 11.7-10.2-2.9-29.3 51.2-5.9z"/><path class="st5" d="M161.4 902.6c9.8 5.8 15.6 16.5 19 27.4 6.2 20.1 10 40.9 11.1 61.9l3.5 62.9 43.9 166.9c-38.1 32.2-60 24.9-111.2-1.5s-57.1 8.8-57.1 8.8-4.4-1.5 0-5.9 0 0-4.4-4.4 0 0 1.5-4.4 0-1.5-1.5-2.9c-1.5-1.5 5.9-14.6 5.9-14.6L60.4 1087 45.8 931.9c17.6-22 67.3-41 67.3-41l45.4 32.2c14.6 5.9 2.9-17.6 2.9-17.6v-2.9z"/><path class="st44" d="m21.6 1024.8-5.9 87.8 74.6 106.8c0 24.9 13.2 30.7 13.2 30.7 5-8 9.4-16.3 13.2-24.9 7.3-16.1-4.4-29.3-4.4-29.3l-51.2-108.3 22-54.2-61.5-8.6z"/><path class="st5" d="M46.5 932.6c-24.9 8.8-29.3 103.9-29.3 103.9 29.3-16.1 64.4 10.2 64.4 10.2s7.3-24.9 16.1-57.1S86 937 86 937s-14.6-13.2-39.5-4.4z"/><path class="st2" d="M97 841.7c5.8-5.6 6.2-42.5 6.2-42.5l9.6-15.8s34.9-4.6 52.7-1.4c19 3.4 18.5 32.7 18.5 32.7s1.7-18.9.6-31.6c-1.2-12.6-16.2-25.3-42.7-33.7s-40.4 28.1-40.4 28.1c-18.6 11.2-10.3 69.8-4.5 64.2z"/><path class="st9" d="M143.9 780.8c-3.8.3-7.2-.9-10.9.2-4.1 1.2-8.4 2.6-12.6 4.3-6.7.1-19.2 14-20.4 11.2 3.6-7.7 12.7-19.6 23.5-21.9 4.5-1 14.4-1.3 19-1.3 1 .5 5.5 3.3 7.5 3.9 15.1 2.9 5.4 5-6.1 3.6z"/><path class="st10" d="M143.8 776.3c-3.8.3-7.2-.9-10.9.2-4.1 1.2-8.4 2.6-12.6 4.3-6.7.1-19.2 14-20.4 11.2 3.2-6.5 12.7-19.6 23.5-21.9 4.5-1 9.8-.4 14.4-.4 6 .4 11.8 1.9 12.1 3 11.8 6.8 8.2 6.9-6.1 3.6z"/><path class="st45" d="M4194.6 1493.3H2967c-26.4 0-47.7-21.4-47.8-47.8V71.8c0-26.4 21.4-47.7 47.8-47.8h1227.7c26.4 0 47.7 21.4 47.8 47.8v1373.8c-.1 26.3-21.5 47.6-47.9 47.7zM2967 29.6c-23.3 0-42.1 18.9-42.1 42.1v1373.8c0 23.3 18.9 42.1 42.1 42.1h1227.7c23.3 0 42.1-18.9 42.1-42.1V71.8c0-23.3-18.9-42.1-42.1-42.1H2967z"/><path class="st45" d="M2922 140.8h1317.6v5.6H2922z"/><circle class="st19" cx="2986.6" cy="85.8" r="22.5"/><circle class="st19" cx="3056.9" cy="85.8" r="22.5"/><circle class="st19" cx="3127.1" cy="85.8" r="22.5"/><path class="st45" d="M4019.1 347.1h-876.5c-20.2 0-36.5-16.4-36.5-36.5s16.4-36.5 36.5-36.5h876.5c20.2 0 36.5 16.4 36.5 36.5s-16.4 36.5-36.5 36.5zm-876.6-67.5c-17.1 0-30.9 13.8-30.9 30.9s13.8 30.9 30.9 30.9H4019c17.1 0 30.9-13.8 30.9-30.9s-13.8-30.9-30.9-30.9h-876.5z"/><path class="st0" d="M3802.3 635.3h-398.9c-12.4 0-22.5-10.1-22.5-22.5s10.1-22.5 22.5-22.5h398.9c12.4 0 22.5 10.1 22.5 22.5s-10.1 22.5-22.5 22.5zM4032.7 711.1h-629.3c-12.4 0-22.5-10.1-22.5-22.5s10.1-22.5 22.5-22.5h629.3c12.4 0 22.5 10.1 22.5 22.5s-10.1 22.5-22.5 22.5z"/><path class="st45" d="M3253.9 715.3h-120.8c-14.7 0-26.7-12-26.7-26.7v-75.9c0-14.7 12-26.7 26.7-26.7h120.8c14.7 0 26.7 12 26.7 26.7v75.9c0 14.8-11.9 26.7-26.7 26.7zm-120.8-123.6c-11.6 0-21.1 9.4-21.1 21.1v75.9c0 11.6 9.4 21.1 21.1 21.1h120.8c11.6 0 21.1-9.4 21.1-21.1v-75.9c0-11.6-9.4-21.1-21.1-21.1h-120.8z"/><path class="st0" d="M3802.3 902.2h-398.9c-12.4 0-22.5-10.1-22.5-22.5s10.1-22.5 22.5-22.5h398.9c12.4 0 22.5 10.1 22.5 22.5s-10.1 22.5-22.5 22.5zM4032.7 978h-629.3c-12.4 0-22.5-10.1-22.5-22.5s10.1-22.5 22.5-22.5h629.3c12.4 0 22.5 10.1 22.5 22.5s-10.1 22.5-22.5 22.5z"/><path class="st45" d="M3253.9 982.2h-120.8c-14.7 0-26.7-12-26.7-26.7v-75.9c0-14.7 12-26.7 26.7-26.7h120.8c14.7 0 26.7 12 26.7 26.7v75.9c0 14.8-11.9 26.7-26.7 26.7zm-120.8-123.6c-11.6 0-21.1 9.4-21.1 21.1v75.9c0 11.6 9.4 21.1 21.1 21.1h120.8c11.6 0 21.1-9.4 21.1-21.1v-75.9c0-11.6-9.4-21.1-21.1-21.1h-120.8z"/><path class="st46" d="M3802.3 1169.1h-398.9c-12.4 0-22.5-10.1-22.5-22.5s10.1-22.5 22.5-22.5h398.9c12.4 0 22.5 10.1 22.5 22.5s-10.1 22.5-22.5 22.5zM4032.7 1244.9h-629.3c-12.4 0-22.5-10.1-22.5-22.5s10.1-22.5 22.5-22.5h629.3c12.4 0 22.5 10.1 22.5 22.5s-10.1 22.5-22.5 22.5zM3253.9 1249.1h-120.8c-14.7 0-26.7-12-26.7-26.7v-75.9c0-14.7 12-26.7 26.7-26.7h120.8c14.7 0 26.7 12 26.7 26.7v75.9c0 14.8-11.9 26.7-26.7 26.7z"/><path class="st19" d="m3193.5 692.1-6.5-5.9c-23.1-21.2-38.4-35-38.4-52.1-.2-13.5 10.5-24.6 24-24.8h.7c7.8 0 15.2 3.5 20.2 9.5 5-6 12.4-9.4 20.2-9.5 13.5-.2 24.5 10.6 24.7 24.1v.7c0 17.1-15.3 30.9-38.4 52.1l-6.5 5.9zM3193.5 959l-6.5-5.9c-23.1-21.2-38.4-35-38.4-52.1-.2-13.5 10.5-24.6 24-24.8h.7c7.8 0 15.2 3.5 20.2 9.5 5-6 12.4-9.4 20.2-9.5 13.5-.2 24.5 10.6 24.7 24.1v.7c0 17.1-15.3 30.9-38.4 52.1l-6.5 5.9z"/><path class="st0" d="M2992.1 1203.1h-120.8c-14.7 0-26.7-12-26.7-26.7v-75.9c0-14.7 12-26.7 26.7-26.7h120.8c14.7 0 26.7 12 26.7 26.7v75.9c0 14.7-11.9 26.7-26.7 26.7z"/><path class="st45" d="M2992.1 1203.1h-120.8c-14.7 0-26.7-12-26.7-26.7v-75.9c0-14.7 12-26.7 26.7-26.7h120.8c14.7 0 26.7 12 26.7 26.7v75.9c0 14.7-11.9 26.7-26.7 26.7zm-120.8-123.6c-11.6 0-21.1 9.4-21.1 21.1v75.9c0 11.6 9.4 21.1 21.1 21.1h120.8c11.6 0 21.1-9.4 21.1-21.1v-75.9c0-11.6-9.4-21.1-21.1-21.1h-120.8z"/><path class="st19" d="m2931.7 1179.9-6.5-5.9c-23.1-21.2-38.4-35-38.4-52.1-.2-13.5 10.5-24.6 24-24.8h.7c7.8 0 15.2 3.5 20.2 9.5 5-6 12.4-9.4 20.2-9.5 13.5-.2 24.5 10.6 24.7 24.1v.7c0 17.1-15.3 30.9-38.4 52.1l-6.5 5.9z"/><path class="st44" d="m2662.5 1048 39.7 78.6 118.6 53.9c12.7 21.4 52.9 23.1 55.9 9.2 3.3-15.5-48.9-40.5-48.9-40.5l-99.2-67.1-8.7-57.8-57.4 23.7zM2679.8 1606.8l-7.3 58.6 42.5 2.9 4.4-61.5z"/><path class="st16" d="M2685.7 1656.6c-3.8-4-7.3-8.3-10.5-12.8-6.1-8.4-11.5 34.8-11.5 34.8s-5.9 17.6-4.4 26.3 35.1 8.8 41 7.3c5.9-1.5 35.1 0 35.1 0h43.9c38.1-17.6 0-29.3 0-29.3-11.7-1.5-51.2-38.1-51.2-38.1l-8.8-16.1c-5.9-1.5-11.7 20.5-11.7 20.5l-21.9 7.4z"/><path class="st44" d="m2570.1 1607.5-7.3 58.6 42.4 2.9 4.4-61.5z"/><path class="st16" d="M2575.9 1657.3c-3.8-4-7.3-8.3-10.5-12.8-6.1-8.4-11.5 34.8-11.5 34.8s-5.9 16.1-4.4 24.9c1.5 8.8 35.1 8.8 41 7.3 5.9-1.5 35.1 1.5 35.1 1.5h43.9c38.1-17.6 0-29.3 0-29.3-11.7-1.5-51.2-38.1-51.2-38.1l-8.8-16.1c-5.9-1.5-11.7 20.5-11.7 20.5l-21.9 7.3zM2618.4 1229.9c-5.9 7.3-2.9 32.2-2.9 32.2s-10.2 80.5-5.9 87.8c4.4 7.3-2.9 13.2-7.3 23.4s-8.8 35.1-8.8 35.1c-24.9 20.5-23.4 114.2-23.4 114.2l-8.8 83.4c2.9 8.8 43.9 10.2 49.8 8.8 5.9-1.5 23.4-133.2 23.4-133.2l39.5-74.6s-2.9 199.1-2.9 207.8 39.5 4.4 48.3 4.4c8.8 0 8.8-146.4 8.8-146.4l8.8-38.1 46.8-174.2V1240l-7.3-10.2c-.1.1-152.3-7.2-158.1.1z"/><path class="st44" d="M2729.2 842.6c0 30.4-21.4 55.1-46.4 55.1s-45.4-24.7-45.4-55.1 20.4-53.7 45.4-55.1c37.3-2.1 46.4 24.6 46.4 55.1z"/><path class="st44" d="M2705.5 873.5c-9.2 20.5-3.8 49.1 14.6 80.5l-74.6-35.1 11.7-10.2-2.9-29.3 51.2-5.9z"/><path class="st47" d="M2705.5 920.4c9.8 5.8 15.6 16.5 19 27.4 6.2 20.1 10 40.9 11.1 61.9l3.5 62.9 43.9 166.9c-38.1 32.2-60 24.9-111.2-1.5-51.2-26.3-57.1 8.8-57.1 8.8s-4.4-1.5 0-5.9 0 0-4.4-4.4 0 0 1.5-4.4 0-1.5-1.5-2.9c-1.5-1.5 5.9-14.6 5.9-14.6l-11.7-109.8-14.6-155.1c17.6-22 67.3-41 67.3-41l45.4 32.2c14.6 5.9 2.9-17.6 2.9-17.6v-2.9z"/><path class="st44" d="m2565.7 1042.6-5.9 87.8 74.6 106.8c0 24.9 13.2 30.7 13.2 30.7 5-8 9.4-16.3 13.2-24.9 7.3-16.1-4.4-29.3-4.4-29.3l-51.2-108.3 22-54.2-61.5-8.6z"/><path class="st47" d="M2590.6 950.4c-24.9 8.8-29.3 103.9-29.3 103.9 29.3-16.1 64.4 10.2 64.4 10.2s7.3-24.9 16.1-57.1-11.7-52.7-11.7-52.7-14.7-13.1-39.5-4.3z"/><path class="st2" d="M2641.1 859.5c5.8-5.6 6.2-42.5 6.2-42.5l9.6-15.8s34.9-4.6 52.7-1.4c19 3.4 18.5 32.7 18.5 32.7s1.7-18.9.6-31.6c-1.2-12.6-16.2-25.3-42.7-33.7s-40.4 28.1-40.4 28.1c-18.6 11.2-10.3 69.8-4.5 64.2z"/><path class="st9" d="M2687.9 798.6c-3.8.3-7.2-.9-10.9.2-4.1 1.2-8.4 2.6-12.6 4.3-6.7.1-19.2 14-20.4 11.2 3.6-7.7 12.7-19.6 23.5-21.9 4.5-1 14.4-1.3 19-1.3 1 .5 5.5 3.3 7.5 3.9 15.2 2.9 5.5 5-6.1 3.6z"/><path class="st10" d="M2687.9 794.1c-3.8.3-7.2-.9-10.9.2-4.1 1.2-8.4 2.6-12.6 4.3-6.7.1-19.2 14-20.4 11.2 3.2-6.5 12.7-19.6 23.5-21.9 4.5-1 9.8-.4 14.4-.4 6 .4 11.8 1.9 12.1 3 11.8 6.8 8.2 6.9-6.1 3.6z"/></svg>