<svg xmlns="http://www.w3.org/2000/svg" viewBox="0 0 500 500"><path d="M493.9 42.8v415.7c0 19.9-16.1 36-36 36H42.2c-19.9 0-36-16.1-36-36V42.8c0-19.9 16.1-36 36-36h415.7c19.9 0 36 16.1 36 36zM151.6 189.3H78.2v232.9h73.3V189.3zm5.6-74.3c0-24.3-18.9-42.1-42.3-42.1-23.3 0-42.3 17.8-42.3 42.1s18.9 42.1 42.3 42.1c23.3 0 42.3-17.8 42.3-42.1zm264.7 163.4c0-71.1-44.2-95.4-85.1-95.4-37.8 0-62.6 24.5-69.7 38.8h-.9v-32.3h-70.5v232.9H269V296.1c0-33.7 21.3-50 43.1-50 20.6 0 36.5 11.6 36.5 49.1v127.2h73.3v-144z"/></svg>