<svg version="1.1" id="f1b25b43-9e03-45b3-af71-047f5bd7d8f3" xmlns="http://www.w3.org/2000/svg" xmlns:xlink="http://www.w3.org/1999/xlink" x="0" y="0" viewBox="0 0 900 900" xml:space="preserve"><style>.st0{fill:#e6e6e6}.st1{fill:#6c63ff}.st2{fill:#a0616a}.st3{fill:#2f2e41}.st4{fill:#ccc}.st5{fill:#ffb8b8}.st6{fill:#3f3d56}.st7{fill:#ffb6b6}.st8{fill:#735b4e}.st10{fill:#cacaca}.st12{fill:#37221e}.st13{fill:#29221a}.st14{opacity:.7}.st16{opacity:.1;enable-background:new}.st17{fill:#d0d1be}.st18{fill:#90917b}.st19{fill:#303030}.st20{fill:#5e5e5e}.st21{fill:#b4c738}.st22{fill:#191919}.st25{opacity:.1;fill:#fff;enable-background:new}</style><image width="823" height="823" xlink:href="../../../../Documents/_Profile photos/2020/full-size-square.jpg" transform="translate(2225.837 -305.753) scale(.6362)" overflow="visible"/><path class="st0" d="M2757.3 897.3l62-61.7-62-61.8 18.9-18.8 80.8 80.6-80.8 80.5-18.9-18.8zM2580.5 810.8h25.2V836h-25.2zM2681.7 810.8h25.2V836h-25.2zM2631.1 810.8h25.2V836h-25.2zM2546.3 896.7l-61.9-61.8 61.9-61.7-18.9-18.8-80.7 80.5 80.8 80.6z"/><path class="st1" d="M2757.3 885.3l62-61.7-62-61.7 18.9-18.9 80.8 80.6-80.8 80.6-18.9-18.9zM2580.5 828h25.2v-25.2h-25.2V828zm126.3-25.2h-25.2V828h25.2v-25.2zm-75.7 25.2h25.2v-25.2h-25.2V828zM2546.3 884.7l-61.9-61.7 61.9-61.8-18.9-18.8-80.7 80.6 80.8 80.5z"/><path class="st2" d="M2243.2 1086l14.1 3.4 19.8-52.7-20.8-5z"/><path class="st3" d="M2236.5 1098.7l4.3-17.9 27.6 6.7c9.7 2.3 15.6 12.1 13.3 21.7l-.1.4-45.1-10.9z"/><path class="st2" d="M2305.6 1095.6h14.5l6.9-55.9h-21.4z"/><path class="st3" d="M2302 1091.1h28.4c9.9 0 18 8.1 18 18v.4H2302v-18.4zM2302.2 1076.3l2.4-87-3.2-35.3-6.3 27.2-27.4 89.3-23.6-6.2 27.3-96.3-5.9-61.7 17.1-11h.2L2341 906l-14.1 167.8-24.7 2.5z"/><path class="st4" d="M2325.2 918.1c-4.7 0-10.2-1.5-16.3-5.8-19.6-13.8-42.9 1-43.1 1.2l-.9.6V913c0-.8 2.4-80.7 2.4-106.4 0-26.6 17.3-46 22.6-51.3 5.2-5.2 9.6-5.1 15.2-5 1 0 2 .1 3 .1 7.3 0 14.3 7 14.6 7.3l.1.1v.2l20.1 151.6-.2.2c.1.1-6.6 8.3-17.5 8.3z"/><circle class="st2" cx="2311.2" cy="712.4" r="29"/><path class="st2" d="M2355.6 942.4c-5.2-4-6.1-11.5-2.1-16.7.4-.6.9-1.1 1.4-1.5l-16.5-38.9 21.6 4 12.4 36.3c4.1 5.2 3.2 12.7-2 16.8-4.3 3.4-10.4 3.4-14.8 0z"/><path class="st4" d="M2351 920.3l-29.8-60.8-13.1-45.8v-39.8c0-.2 3.1-15.6 14.5-14.6 10.3 1 15.9 6 18.6 16.9 2.3 9.2-.8 36.5-1.2 39.1 2 4.7 32 76.2 27 84.8-.2.3-.5.6-.8.8l5.3 11.2-20.5 8.2z"/><path class="st3" d="M2307.5 723.3c3.5.5 6.1-3.1 7.3-6.4s2.1-7.1 5.2-8.9c4.1-2.4 9.4.5 14.2-.3 5.3-.9 8.8-6.6 9.1-12 .3-5.4-1.9-10.6-4-15.6l-.7 6.2c.2-4.3-1.8-8.3-5.4-10.7l1 9.1c-.8-5.3-5.8-8.8-11.1-8l.1 5.4c-6.2-.7-12.4-1.5-18.6-.9s-12.4 2.5-17.1 6.6c-7 6.1-9.6 16.1-8.7 25.4.9 9.3 4.7 17.9 8.7 26.3 1 2.1 2.4 4.5 4.7 4.8 2.1.2 4-1.5 4.6-3.5.5-2.1.5-4.2-.1-6.2-.6-3.1-1.3-6.3-.8-9.4.6-3.1 2.8-6.2 6-6.6 3.2-.4 6.4 3.2 4.9 6l.7-1.3z"/><path class="st5" d="M3026.5 938.5c-3.7-4.2-3.2-10.5.9-14.2.4-.4.9-.7 1.4-1l-7.4-35 17.3 6.8 4.4 32.2c2.6 5 .6 11.1-4.3 13.6-4.2 2.1-9.3 1.2-12.3-2.4z"/><path class="st4" d="M3024.5 911.3l-.1-.3c-9.3-34.6-19-70.3-30.8-109.2l-.1-.3.3-.2c6.6-3.8 16.5-3.6 23 .6 6.1 3.9 9 11.2 7.4 18.2l8.6 44.9c3.5 14.7 7.1 29.8 10.6 44.8l.1.4h-.5c-6.3.4-12.8.8-18 1l-.5.1z"/><path class="st5" d="M2945.1 1097.3h-12.3l-5.8-47.3h18.1z"/><path class="st3" d="M2948.2 1109.2h-39.5v-.5c0-8.5 6.9-15.4 15.4-15.4h24.1v15.9z"/><path class="st5" d="M3060.6 1087.2l-11.7 3.7-19.9-43.2 17.2-5.5z"/><path class="st3" d="M3029.5 1109.6l-.2-.5c-2.6-8.1 1.9-16.7 10-19.3l23-7.3 4.8 15.1-37.6 12z"/><circle class="st5" cx="2998.5" cy="745.5" r="24.6"/><path class="st3" d="M3009.6 740.9c.1-9.9-4-19.7-10.4-24.6-6.2-4.9-15.1-4.8-21.1.4-6.3 5.2-10.3 15.1-9.9 25 14 0 28.2 0 41.4-.8zM2952.1 1082.1h-.5c-10.7-1-21.7-2.1-32.1-2.3h-.6l.1-.6c2.5-17.9 3.5-36.5 4.5-54.5 1-17.8 2-36.1 4.4-53.6 1-4.7 2-9.3 3-13.9 8.2-38 15.9-74 31.9-109.5l.2-.3h.4c15 1.8 29.4 7.3 40.5 15.4l.2.2v.3c-.2 5.5-.4 11.2-.1 16.4 10.3 14.3 13.2 32.5 8 49.3 4.4 14.7 8.9 29.8 13.6 44.8 11.2 30.8 22.9 62.8 34.8 95.1l.2.5-.6.1c-8.6 2-17.4 4.1-26.2 4.9h-.3l-.2-.3c-22.3-41.5-40.4-85-54.1-130.1-3 9.1-7.3 17.3-11.4 25.2-4 7.2-7.5 14.7-10.5 22.4-1.8 15.1-2.3 31.5-2.8 47.3-.4 15-.9 29.1-2.3 42.4l-.1.8z"/><path class="st3" d="M2990.1 716.7c10.6-2.3 22.4-.1 30.8 7.1 8.4 7.2 12.6 19.6 9.2 30.3-3.4 10.7-15.1 18.2-25.6 15.4 3-8.5-.4-19-7.8-23.9-8.8-5.8-11.2-19.7-6.6-28.9z"/><path class="st4" d="M3003.1 864l-.4-.2c-13.6-6.2-26.9-11-39.4-15.3l-.4-.1v-1.1l.2.1c.1-.1.1-.2.2-.4l.4-.8c1-2.1 1.9-4.2 2.7-6.1.8-2 1.7-4.2 2.8-6.4-5.5-5.5-7.1-13.7-4.3-20.8 2.8-6.5 9.8-11.6 17.2-12.5 2.7-7.4 8.7-23.1 8.7-23.1s12.7-.3 17.8-1h.2c11.1 2.4 20.4 13 22.6 25.6 1.8 10.7-1 22.9-7.8 34.4-3.5 5.6-7.4 11-11.7 16.1-3.1 3.9-6 7.6-8.5 11.2l-.3.4z"/><path class="st3" d="M3027.2 733.5zM3027.7 731.3c-7.5-1.1-13.3-8.7-12.5-16.2.8-7.5 8.3-13.6 15.8-13 7.5.6 13.9 7.8 13.6 15.3-.4 7.4-7.4 15.3-16.9 13.9z"/><path class="st3" d="M3026.5 726.4c-7.5-1.1-13.3-8.7-12.5-16.2.8-5.2 4.1-9.6 8.9-11.7-6 1.3-11.2 6.6-11.9 12.7-.8 7.5 5 15.1 12.5 16.2 2.8.4 5.6 0 8.2-1.1-1.7.3-3.5.4-5.2.1z"/><path class="st5" d="M2881.9 858.4c2.7-4.8 8.8-6.6 13.7-3.9.5.3 1 .6 1.5 1l30.5-18.7-.6 18.6-28.8 14.9c-3.8 4.1-10.2 4.3-14.3.5-3.5-3.2-4.3-8.3-2-12.4z"/><path class="st4" d="M2907 847.5l.3-.2c29.5-20.3 60-41.3 92.7-65.4l.2-.2.2.2c5.8 4.9 8.9 14.3 7.1 21.9-1.7 7-7.5 12.2-14.7 13.1l-39.4 23.1c-12.7 8.2-25.8 16.7-38.7 24.9l-.4.2-.2-.5c-2.5-5.8-5-11.8-7-16.6l-.1-.5z"/><path class="st6" d="M2495.9 1110.3h-381c-.6 0-1-.4-1-1s.4-1 1-1h381c.6 0 1 .4 1 1s-.5 1-1 1zM3170.9 1110.3h-381c-.6 0-1-.4-1-1s.4-1 1-1h381c.6 0 1 .4 1 1s-.5 1-1 1z"/><path id="b6132315-04e2-4cdb-a713-107c9cd58b0b_00000101806003809763886680000001631560397120137136_" class="st7" d="M1466 160.8c59.3-8.1 65.6 46.5 65.6 91.4s-29.9 80.4-65.6 80.4-64.6-36.5-64.6-81.4 6.3-82.4 64.6-90.4z"/><path class="st8" d="M1403.4 266.6s-5.2-50 9-64c14.2-14.1 24.7-27.6 49.5-29.1 29.3-1.9 42.3-15.3 63.2 36.4 4.5 11.1 5.7 29.7 5.7 29.7l4.2-8.5s.3-7.3-2.2-24c-2.4-15.4-6-20-8.6-30.5-6.3-25.2-27.5-40.2-47.8-42.2-20.3-2-46.7 7.4-52.4 12.2-5.7 4.7-14.2 18.8-14.2 18.8s-13.2 9.4-14.1 15.1c-1 5.7-3.4 25.4-3.4 25.4s3.9 30.2 4.6 35.7c.9 6.9.6 16.8.6 16.8l5.9 8.2z"/><path d="M1953.8 465.1c.1 91.7-35.3 179.8-98.8 245.9-3.8 4-7.8 7.9-11.8 11.7-6.1 5.8-12.5 11.5-19.1 16.9-61.4 50.6-138 79-217.6 80.7-2.6.1-5.3.1-8 .1-63.4 0-143.2-33.9-215.6-80.8-6-3.9-11.9-7.9-17.8-11.9-2.8-1.9-5.5-3.8-8.2-5.7-27.9-19.7-54.4-41.4-79.3-64.8-16.3-15.3-31.6-31.6-45.8-48.9-55.6-68.6-67.9-130.5 11.4-143.2 9.4-1.5 18.5-3.1 27.3-4.8 12.8-2.5 25.1-5.1 36.8-8 15.8-3.8 30.6-8 44.4-12.5 4.7-1.5 9.2-3 13.7-4.6 65.7-23.1 109.7-53.2 139.7-85.9 5.1-5.5 9.8-11.1 14.1-16.8 6.6-8.6 12.5-17.7 17.8-27.1a259.5 259.5 0 0018.4-41l.3-.8c23.8-68.7 16.6-132.5 42.9-153.8 112.4-91.2 252.3 38.7 318 191.9 3.3 7.7 6.4 15.5 9.3 23.3 1.3 3.5 2.6 7 3.8 10.5 3.2 9.1 6.1 18.3 8.7 27.5 1 3.5 2 7 2.9 10.5 1 3.8 1.9 7.5 2.8 11.3 6.2 27.5 9.7 54.7 9.7 80.3z" fill="#f2f2f2"/><path class="st3" d="M1606.5 820.3c-2.6.1-5.3.1-8 .1-63.4 0-143.2-33.9-215.6-80.8-6-3.9-11.9-7.8-17.8-11.9l5.2-31.4 156.2-20.7 78.4 60 1.6 84.7zM1523 739.6h-.6.5z"/><path class="st10" d="M1646.5 424.7l-.2 1.2-2.5 13-17.1 90.2-1 5.3-2.1 11.2-2.9 15.3-6.4 34-1.8 9.7-.7 3.6-.2 1.3-1.9 10.1-.6 3-4.7 34.5-4.1 30.1 13.6 13.6-8.1 8.1-5.3 30.5v.1H1383c-8.8-5.7-17.5-11.6-26-17.6l1.8-13.4s6.2-23.9 3.6-26.8c-2.6-2.9-8.2-8-8.2-8l7.1-16.6 1-2.3-1.7-34.4v-.8l-.6-11.4-.1-1.5-.1-2.2-2.1-43.7v-.7l-.6-13.2-.6-12.6-.3-5.3-2.6-53.1-1.7-36.1-1.5-31.4 6.1-2.1 65.4-22.2 27.1-35.2 56.3.4 27.6.2 46 42.7 10.5 5h.1l7.5 3.6 19 9.1 20.1 9.6 10.3 4.9.1.3z"/><path class="st7" d="M1456 637.1c-15.6 6-33.1-1.7-39.2-17.3-.6-1.7-1.1-3.4-1.5-5.1l-106.6-15.1 37-41.9 95.5 20.8c16.7-2.1 31.9 9.7 34.1 26.4 1.9 13.9-6.1 27.2-19.3 32.2z"/><path class="st10" d="M1409 561c-1.6-2.5-4-4.2-6.6-4.9L1366 547l-3.7-.9c-4.4-1.1-8.2-4.4-10.4-9.1-1.2-2.4-1.8-5.1-2-7.9-.2-2.5.1-5.1.7-7.5l12.6-45.6 8.2-29.6c1-3.6 1.6-7.3 1.7-11 .5-10.4-2.2-20.7-7.5-28.9-9.6-14.8-26.2-20.4-40.8-13.6l-.6.3c-10.3 5-18.2 15.5-21.1 28.4l-8.9 38.9-18.3 80.1c-7 30.8 8 62.6 33.6 71 2.3.8 4.7 1.3 7.1 1.7l52.4 7.4 24.3 3.4c5.8.8 11.2-3.8 12.4-10.7 0-.2.1-.4.1-.6l.6-4.3 4.9-36.4v-.4c.5-3.9-.3-7.8-2.3-10.7z"/><path class="st7" d="M1521.4 638.3c14.6 3.8 29.1-6.4 32.5-22.7.4-1.7.6-3.5.7-5.3l92.3-30-38-36.3-81.8 34c-15 .2-27 14.1-26.8 30.9 0 14.2 8.8 26.3 21.1 29.4z"/><path class="st10" d="M1661.3 513.3L1626 400.1c-2.9-9.3-8.1-16.9-14.6-21.4-2-1.4-4.1-2.5-6.3-3.2-.3-.1-.7-.2-1-.3-4.6-1.4-9.4-1.3-14 .4-8.5 3-15.6 10.9-19.6 21.7 0 0 0 .1-.1.1-4.5 12.2-4.6 26.6-.3 38.9l.4 1.2 25 69.8c3.3 9.3.6 20.7-6.1 25.3-.5.3-.9.6-1.4.9l-1.8.9-31.5 15.8c-4.9 2.4-7.6 9.9-6 16.8l.1.4 8.8 39.4c0 .2.1.4.1.5.1.3.2.7.3 1 1.9 6.1 6.8 9.3 11.4 7.5l17-6.2 3.5-1.3 43.9-16.1c22.2-8.1 35.4-39.8 29.5-70.6-.5-2.9-1.2-5.6-2-8.3z"/><path class="st6" d="M1231.8 608.3c14.2 17.3 29.5 33.6 45.8 48.9h452c9.1 0 16.4 7.4 16.4 16.4l.7 114.5c27.8-12.8 53.8-29.1 77.5-48.5 6.6-5.4 12.9-11 19.1-16.9 4-3.8 8-7.7 11.8-11.7 28.8-30 52.1-64.7 68.8-102.7h-692.1z"/><path d="M1854.9 711c-3.8 4-7.8 7.9-11.8 11.7h-96.2V711h108z" fill="#fff"/><path class="st6" d="M1645.6 335.5c-1-1.8-2.8-2.9-4.9-2.9h-327.8c-3.1 0-5.5 2.5-5.5 5.5v196.2h338.9V338.2c-.1-.9-.3-1.9-.7-2.7z"/><path class="st6" d="M1307 529.1v24.2c0 4.2 3.4 7.6 7.6 7.6h125.1v47.8h-1.7c-.5 0-1 .4-1 1v3.3c0 .5.4 1 1 1h77.7c.5 0 1-.4 1-1v-3.3c0-.5-.4-1-1-1h-1.7V561h125.1c4.2 0 7.6-3.4 7.6-7.6v-24.2H1307z"/><circle class="st1" cx="1472.8" cy="428.3" r="31.3"/><path class="st12" d="M1461.7 170.6c-6 1.7-11.7 1.1-17.2 4-6.2 3.3-12.5 7-18.5 11.2-10.6 2.5-25.5 28.8-28.4 24.8 3-13.4 13.4-35.5 29.8-42.8 6.8-3.1 22.3-7 29.6-8.5 1.8.5 9.9 3.3 13.2 3.6 25-.7 10.4 5.9-8.5 7.7z"/><path class="st13" d="M1460.1 163.5c-6 1.7-11.7 1.1-17.2 4-6.2 3.3-12.5 7-18.5 11.2-10.6 2.5-25.5 28.8-28.4 24.8 2.9-11.4 13.4-35.5 29.8-42.8 6.8-3.1 15.3-4 22.6-5.5 9.7-1.4 19.3-1.1 20.2.6 21 6.5 15.3 8-8.5 7.7z"/><path class="st0" d="M1921.4 324.6l61.9-61.8-61.9-61.7 18.9-18.8 80.8 80.5-80.8 80.6-18.9-18.8zM1744.5 238.1h25.2v25.2h-25.2zM1845.7 238.1h25.2v25.2h-25.2zM1795.1 238.1h25.2v25.2h-25.2zM1710.4 324l-62-61.8 61.9-61.7-18.8-18.8-80.8 80.5 80.8 80.6z"/><path class="st1" d="M1921.4 312.6l61.9-61.7-61.9-61.8 18.9-18.8 80.8 80.6-80.8 80.5-18.9-18.8zM1744.5 255.3h25.2v-25.2h-25.2v25.2zm126.4-25.2h-25.2v25.2h25.2v-25.2zm-75.8 25.2h25.2v-25.2h-25.2v25.2zM1710.4 312l-62-61.7 61.9-61.8-18.8-18.8-80.8 80.6 80.8 80.5z"/><g class="st14"><linearGradient id="SVGID_1_" gradientUnits="userSpaceOnUse" x1="1895.106" y1="175.002" x2="1895.106" y2="266.808" gradientTransform="matrix(1 0 0 -1 -114.28 782.17)"><stop offset="0" stop-color="gray" stop-opacity=".25"/><stop offset=".535" stop-color="gray" stop-opacity=".12"/><stop offset="1" stop-color="gray" stop-opacity=".1"/></linearGradient><path d="M1811.2 531.8v-16.4h-82v75.8c0 8.8 7.2 16 16 16h50c8.8 0 16-7.2 16-16v-16.8c11.8 0 21.3-9.6 21.3-21.4-.1-11.7-9.6-21.2-21.3-21.2zm0 34.4V540c7.2 0 13.1 5.9 13.1 13.1s-5.9 13.1-13.1 13.1z" fill="url(#SVGID_1_)"/></g><path class="st1" d="M1808.5 534.3c-10.7 0-19.5 8.7-19.5 19.5s8.7 19.5 19.5 19.5c10.7 0 19.5-8.7 19.5-19.5s-8.7-19.5-19.5-19.5zm0 31.5c-6.6 0-12-5.4-12-12s5.4-12 12-12 12 5.4 12 12-5.3 12-12 12z"/><path class="st16" d="M1808.5 534.3c-10.7 0-19.5 8.7-19.5 19.5s8.7 19.5 19.5 19.5c10.7 0 19.5-8.7 19.5-19.5s-8.7-19.5-19.5-19.5zm0 31.5c-6.6 0-12-5.4-12-12s5.4-12 12-12 12 5.4 12 12-5.3 12-12 12z"/><path class="st1" d="M1733.7 519.4h74.8v74.1c0 5.4-4.4 9.8-9.8 9.8h-55.3c-5.4 0-9.8-4.4-9.8-9.8v-74.1h.1z"/><path class="st16" d="M1795.1 519.4v69.2c0 8.1-6.5 14.6-14.6 14.6h7.5c8.1 0 14.6-6.5 14.6-14.6v-69.2h-7.5z"/><path class="st10" d="M1748.5 463.6c-1.3.2-2.7.6-3.3 1.7-1 1.8.8 3.8 2.4 5 3 2.3 6.2 4.5 8.2 7.6s2.7 7.6.5 10.6c-2.9 3.9-9.9 4.8-10.5 9.7-.4 3.1 2.3 5.8 5 7.3 6.7 3.9 15.4 4.9 20.3 10.9 2-4.2 6.5-6.6 11-7.6s9.2-.9 13.7-1.6c1.5-.2 3.1-.7 3.8-2 1.3-2.6-2.4-5.7-1.1-8.3 1-2 3.8-1.8 5.8-2.6 3.3-1.3 4.7-5.6 3.8-9-.9-3.5-3.6-6.1-6.4-8.4-7.6-6-16.7-9.5-25.9-12-4.3-1.2-9.3-3-13.8-3.2-4.4-.2-9.3 1.1-13.5 1.9z"/><path class="st17" d="M732.9 2667.1c-5.8.1-11.7.2-17.5.2-139.5 0-314.9-74.5-474.1-177.6-13.2-8.5-26.2-17.3-39.2-26.2l11.3-69.1 343.5-45.6 172.4 131.8 3.6 186.5z"/><path class="st18" d="M-86 2191.8c31.2 38 64.8 73.9 100.6 107.6h993.9c19.9 0 36.1 16.2 36.1 36.1l1.4 251.9c61.1-28.1 118.4-64 170.4-106.7 14.4-11.9 28.4-24.2 41.9-37.1 8.9-8.4 17.5-17 25.9-25.8 63.3-65.9 114.5-142.4 151.3-225.9H-86z"/><path d="M1319.5 2265.6c-8.4 8.8-17.1 17.4-25.9 25.8H1082v-25.8h237.5z"/><path id="b6132315-04e2-4cdb-a713-107c9cd58b0b_00000075862754188725326600000013168339001245430164_" class="st7" d="M307.1 160.8c59.3-8.1 65.6 46.5 65.6 91.4s-29.9 80.4-65.6 80.4-64.6-36.5-64.6-81.4 6.3-82.4 64.6-90.4z"/><path class="st8" d="M244.4 266.6s-5.2-50 9-64c14.2-14.1 24.7-27.6 49.5-29.1 29.3-1.9 42.3-15.3 63.2 36.4 4.5 11.1 5.7 29.7 5.7 29.7l4.2-8.5s.3-7.3-2.2-24c-2.4-15.4-6-20-8.6-30.5-6.3-25.2-27.5-40.2-47.8-42.2-20.4-2-46.7 7.4-52.4 12.2-5.7 4.7-14.2 18.8-14.2 18.8s-13.2 9.4-14.1 15.1c-1 5.7-3.4 25.4-3.4 25.4s3.9 30.2 4.6 35.7c.9 6.9.6 16.8.6 16.8l5.9 8.2z"/><path class="st19" d="M794.9 465.1c.1 91.7-35.4 179.8-98.9 245.9-3.8 4-7.8 7.9-11.8 11.7-6.1 5.8-12.5 11.5-19.1 16.9-61.4 50.6-138 79-217.6 80.7-2.6.1-5.3.1-8 .1-63.4 0-143.2-33.9-215.6-80.8-6-3.9-11.9-7.9-17.8-11.9-2.8-1.9-5.5-3.8-8.2-5.7-27.9-19.7-54.4-41.4-79.3-64.8-16.3-15.3-31.6-31.6-45.8-48.9C17.3 539.7 5 477.8 84.3 465.1c9.4-1.5 18.5-3.1 27.3-4.8 12.8-2.5 25.1-5.1 36.8-8 15.8-3.8 30.6-8 44.4-12.5 4.7-1.5 9.2-3 13.7-4.6 65.7-23.1 109.7-53.2 139.7-85.9 5.1-5.5 9.8-11.1 14-16.8 6.6-8.6 12.5-17.7 17.8-27.1a259.5 259.5 0 0018.4-41l.3-.8c23.8-68.7 16.6-132.5 42.9-153.8 112.4-91.2 252.3 38.7 318 191.9 3.3 7.7 6.4 15.5 9.3 23.3 1.3 3.5 2.6 7 3.8 10.5 3.2 9.1 6.1 18.3 8.7 27.5 1 3.5 2 7 2.9 10.5 1 3.8 1.9 7.5 2.8 11.3 6.3 27.5 9.8 54.7 9.8 80.3z"/><path class="st18" d="M447.6 820.3c-2.6.1-5.3.1-8 .1-63.4 0-143.2-33.9-215.6-80.8-6-3.9-11.9-7.8-17.8-11.9l5.2-31.4 156.2-20.7 78.4 60 1.6 84.7z"/><path class="st17" d="M364.1 739.6h-.6.5z"/><path class="st20" d="M487.5 424.7l-.2 1.2-2.5 13-17.1 90.2-1 5.3-2.1 11.2-2.9 15.3-6.4 34-1.8 9.7-.7 3.6-.2 1.3-1.9 10.1-.6 3-4.7 34.5-4.1 30.1 13.6 13.6-8.1 8.1-5.3 30.5v.1H224c-8.8-5.7-17.5-11.6-26-17.6l1.8-13.4s6.2-23.9 3.6-26.8c-2.6-2.9-8.2-8-8.2-8l7.1-16.6 1-2.3-1.7-34.4v-.8l-.5-11.4-.1-1.5-.1-2.2-2.1-43.7v-.7L198 547l-.6-12.6-.3-5.3-2.6-53.1-1.7-36.1-1.5-31.4 6.1-2.1 65.4-22.2 27.1-35.2 56.3.4 27.6.2 46 42.7 10.5 5h.1l7.5 3.6 19 9.1 20.1 9.6 10.3 4.9.2.2z"/><path class="st7" d="M297.1 637.1c-15.6 6-33.1-1.7-39.2-17.3-.6-1.7-1.1-3.4-1.5-5.1l-106.6-15.1 37-41.9 95.5 20.8c16.7-2.1 31.9 9.7 34.1 26.4 1.9 13.9-6.2 27.2-19.3 32.2z"/><path class="st20" d="M250.1 561c-1.6-2.5-4-4.2-6.6-4.9l-36.4-9.1-3.7-.9c-4.4-1.1-8.2-4.4-10.4-9.1-1.2-2.4-1.8-5.1-2-7.9-.2-2.5.1-5.1.7-7.5l12.6-45.6 8.2-29.6c1-3.6 1.6-7.3 1.7-11 .5-10.4-2.2-20.7-7.5-28.9-9.6-14.8-26.2-20.4-40.8-13.6l-.6.3c-10.3 5-18.2 15.5-21.1 28.4l-8.9 38.9-18.3 80.1c-7 30.8 8 62.6 33.6 71 2.3.8 4.7 1.3 7.1 1.7l52.4 7.4 24.3 3.4c5.8.8 11.2-3.8 12.4-10.7 0-.2.1-.4.1-.6l.6-4.3 4.9-36.4v-.4c.5-3.9-.4-7.8-2.3-10.7z"/><path class="st7" d="M362.4 638.3c14.6 3.8 29.1-6.4 32.5-22.7.4-1.7.6-3.5.7-5.3l92.3-30-38-36.3-81.8 34c-15 .2-27 14.1-26.8 30.9.1 14.2 8.9 26.3 21.1 29.4z"/><path class="st20" d="M502.4 513.3L467 400.1c-2.9-9.3-8.1-16.9-14.6-21.4-2-1.4-4.1-2.5-6.3-3.2-.3-.1-.7-.2-1-.3-4.6-1.4-9.4-1.3-14 .4-8.5 3-15.6 10.9-19.6 21.7 0 0 0 .1-.1.1-4.5 12.2-4.6 26.6-.3 38.9l.4 1.2 25 69.8c3.3 9.3.6 20.7-6.1 25.3-.5.3-.9.6-1.4.9l-1.8.9-31.5 15.8c-4.9 2.4-7.6 9.9-6 16.8l.1.4 8.8 39.4c0 .2.1.4.1.5.1.3.2.7.3 1 1.9 6.1 6.8 9.3 11.4 7.5l17-6.2 3.5-1.3 43.9-16.1c22.2-8.1 35.4-39.8 29.5-70.6-.4-2.9-1.1-5.6-1.9-8.3z"/><path class="st18" d="M72.9 608.3c14.2 17.3 29.5 33.6 45.8 48.9h452c9.1 0 16.4 7.4 16.4 16.4l.7 114.5c27.8-12.8 53.8-29.1 77.5-48.5 6.6-5.4 12.9-11 19.1-16.9 4-3.8 8-7.7 11.8-11.7 28.8-30 52.1-64.7 68.8-102.7H72.9z"/><path class="st18" d="M696 711c-3.8 4-7.8 7.9-11.8 11.7H588V711h108zM486.6 335.5c-1-1.8-2.8-2.9-4.9-2.9H153.9c-3.1 0-5.5 2.5-5.5 5.5v196.2h338.9V338.2c0-.9-.2-1.9-.7-2.7z"/><path class="st18" d="M148.1 529.1v24.2c0 4.2 3.4 7.6 7.6 7.6h125.1v47.8h-1.7c-.5 0-1 .4-1 1v3.3c0 .5.4 1 1 1h77.7c.5 0 1-.4 1-1v-3.3c0-.5-.4-1-1-1h-1.7V561h125.1c4.2 0 7.6-3.4 7.6-7.6v-24.2H148.1z"/><circle class="st21" cx="313.9" cy="428.3" r="31.3"/><path class="st12" d="M302.8 170.6c-6 1.7-11.7 1.1-17.2 4-6.2 3.3-12.5 7-18.5 11.2-10.6 2.5-25.5 28.8-28.4 24.8 3-13.4 13.4-35.5 29.8-42.8 6.8-3.1 22.3-7 29.6-8.5 1.8.5 9.9 3.3 13.2 3.6 25-.7 10.3 5.9-8.5 7.7z"/><path class="st13" d="M301.2 163.5c-6 1.7-11.7 1.1-17.2 4-6.2 3.3-12.5 7-18.5 11.2-10.6 2.5-25.5 28.8-28.4 24.8 2.9-11.4 13.4-35.5 29.8-42.8 6.8-3.1 15.3-4 22.6-5.5 9.7-1.4 19.3-1.1 20.2.6 21 6.5 15.3 8-8.5 7.7z"/><path class="st22" d="M762.5 324.6l61.9-61.8-61.9-61.7 18.9-18.8 80.8 80.5-80.8 80.6-18.9-18.8zM585.6 238.1h25.2v25.2h-25.2zM686.8 238.1H712v25.2h-25.2zM636.2 238.1h25.2v25.2h-25.2zM551.5 324l-62-61.8 61.9-61.7-18.9-18.8-80.7 80.5 80.8 80.6z"/><path class="st21" d="M762.5 312.6l61.9-61.7-61.9-61.8 18.9-18.8 80.8 80.6-80.8 80.5-18.9-18.8zM585.6 255.3h25.2v-25.2h-25.2v25.2zM712 230.1h-25.2v25.2H712v-25.2zm-75.8 25.2h25.2v-25.2h-25.2v25.2zM551.5 312l-62-61.7 61.9-61.8-18.9-18.8-80.7 80.6 80.8 80.5z"/><g class="st14"><linearGradient id="SVGID_00000010272921366739397210000011601838488505814674_" gradientUnits="userSpaceOnUse" x1="736.189" y1="175.002" x2="736.189" y2="266.808" gradientTransform="matrix(1 0 0 -1 -114.28 782.17)"><stop offset="0" stop-color="#7f7f7f" stop-opacity=".25"/><stop offset=".535" stop-color="#7f7f7f" stop-opacity=".12"/><stop offset="1" stop-color="#7f7f7f" stop-opacity=".1"/></linearGradient><path d="M652.3 531.8v-16.4h-82v75.8c0 8.8 7.2 16 16 16h50c8.8 0 16-7.2 16-16v-16.8c11.8 0 21.3-9.6 21.3-21.4-.1-11.7-9.6-21.2-21.3-21.2zm0 34.4V540c7.2 0 13.1 5.9 13.1 13.1s-5.9 13.1-13.1 13.1z" fill="url(#SVGID_00000010272921366739397210000011601838488505814674_)"/></g><path d="M649.6 534.3c-10.7 0-19.5 8.7-19.5 19.5 0 10.7 8.7 19.5 19.5 19.5 10.7 0 19.5-8.7 19.5-19.5s-8.7-19.5-19.5-19.5zm0 31.5c-6.6 0-12-5.4-12-12s5.4-12 12-12 12 5.4 12 12-5.4 12-12 12z" fill="#939c00"/><path class="st25" d="M649.6 534.3c-10.7 0-19.5 8.7-19.5 19.5 0 10.7 8.7 19.5 19.5 19.5 10.7 0 19.5-8.7 19.5-19.5s-8.7-19.5-19.5-19.5zm0 31.5c-6.6 0-12-5.4-12-12s5.4-12 12-12 12 5.4 12 12-5.4 12-12 12z"/><path class="st21" d="M574.8 519.4h74.8v74.1c0 5.4-4.4 9.8-9.8 9.8h-55.3c-5.4 0-9.8-4.4-9.8-9.8v-74.1h.1z"/><path class="st25" d="M636.2 519.4v69.2c0 8.1-6.5 14.6-14.6 14.6h7.5c8.1 0 14.6-6.5 14.6-14.6v-69.2h-7.5z"/><path d="M589.6 463.6c-1.3.2-2.7.6-3.3 1.7-1 1.8.8 3.8 2.4 5 3 2.3 6.2 4.5 8.2 7.6s2.7 7.6.5 10.6c-2.9 3.9-9.9 4.8-10.5 9.7-.4 3.1 2.3 5.8 5 7.3 6.7 3.9 15.4 4.9 20.3 10.9 2-4.2 6.5-6.6 11-7.6s9.2-.9 13.7-1.6c1.5-.2 3.1-.7 3.8-2 1.3-2.6-2.4-5.7-1.1-8.3 1-2 3.8-1.8 5.8-2.6 3.3-1.3 4.7-5.6 3.8-9s-3.6-6.1-6.4-8.4c-7.6-6-16.7-9.5-25.9-12-4.3-1.2-9.3-3-13.8-3.2-4.4-.2-9.3 1.1-13.5 1.9z" fill="#686868"/><g><defs><path id="SVGID_00000000208654454117489400000002642624424851371144_" d="M1137.3 1517.2c0 244.9 70.2 512.2-441.9 443.5-241.9-32.5-441.9-198.5-441.9-443.5s-56.2-475 441.9-443.5c243.6 15.4 441.9 198.5 441.9 443.5z"/></defs><use xlink:href="#SVGID_00000000208654454117489400000002642624424851371144_" overflow="visible" fill="#303030"/><clipPath id="SVGID_00000141453723868379460420000008906228668165711747_"><use xlink:href="#SVGID_00000000208654454117489400000002642624424851371144_" overflow="visible"/></clipPath><path clip-path="url(#SVGID_00000141453723868379460420000008906228668165711747_)" fill="#303030" d="M895.8 1347.6l72.6-72.5-72.6-72.4 22.1-22.1 94.9 94.5-94.9 94.5-22.1-22zM688.3 1246.1h29.5v29.5h-29.5zM807 1246.1h29.5v29.5H807zM747.6 1246.1h29.5v29.5h-29.5zM648.2 1346.8l-72.7-72.4 72.7-72.5-22.2-22.1-94.8 94.6 94.9 94.5z"/><path clip-path="url(#SVGID_00000141453723868379460420000008906228668165711747_)" fill="#303030" d="M895.8 1333.5l72.6-72.4-72.6-72.5 22.1-22 94.9 94.5-94.9 94.5-22.1-22.1zM688.3 1266.3h29.5v-29.5h-29.5v29.5zm148.2-29.6H807v29.5h29.5v-29.5zm-88.9 29.6h29.5v-29.5h-29.5v29.5zM648.2 1332.8l-72.7-72.5 72.7-72.4-22.2-22.1-94.8 94.5 94.9 94.6z"/><path id="b6132315-04e2-4cdb-a713-107c9cd58b0b_00000152250028852864264010000009728492771429218694_" d="M429 1207.7c130.3-17.9 144.3 102.2 144.3 201.1s-65.8 176.9-144.3 176.9-142.1-80.2-142.1-179.1 13.9-181.3 142.1-198.9z" clip-path="url(#SVGID_00000141453723868379460420000008906228668165711747_)" fill="#303030"/><path d="M291.2 1440.5s-11.3-109.9 19.8-140.8c31.2-30.9 54.3-60.6 109-64.1 64.5-4.1 92.9-33.7 139.1 80.1 9.9 24.4 12.5 65.3 12.5 65.3l9.2-18.7s.7-16-4.9-52.7c-5.2-33.8-13.1-44.1-18.9-67.1-13.9-55.4-60.4-88.5-105.2-92.8-44.8-4.3-102.8 16.4-115.2 26.8s-31.3 41.3-31.3 41.3-29 20.7-31.1 33.3-7.4 55.9-7.4 55.9 8.6 66.5 10.1 78.6c1.9 15.2 1.3 37 1.3 37l13 17.9zM589.6 2071.6h-1.4l1.2-.1z" clip-path="url(#SVGID_00000141453723868379460420000008906228668165711747_)" fill="#303030"/><path d="M825.8 1788.1l-.5 2.6-5.4 28.7-37.5 198.4-2.2 11.7-4.7 24.7-6.4 33.7-14.1 74.7-4 21.4-1.5 8-.5 2.8-4.2 22.1-1.3 6.7-10.2 75.9-9 66.2 30 30-17.9 17.9-11.7 67.1v.2H246.2c-19.4-12.5-38.4-25.5-57.2-38.8l3.9-29.5s13.5-52.6 7.9-58.9c-5.7-6.3-18.1-17.5-18.1-17.5l15.7-36.6 2.2-5.1-3.7-75.7-.1-1.8-1.2-25-.2-3.2-.2-4.8-4.6-96.1-.1-1.6-1.4-29.1-1.3-27.7-.6-11.7-5.7-116.8-3.8-79.3-3.3-69.1 13.4-4.6 143.7-48.8 59.5-77.4 123.9.9 60.6.5 101.2 93.9 23 11 .2.1 16.5 7.9 41.9 20 44.3 21.2 22.7 10.8h.5z" clip-path="url(#SVGID_00000141453723868379460420000008906228668165711747_)" fill="#303030"/><path d="M407 2255.3c-34.3 13.3-72.9-3.7-86.2-38-1.4-3.7-2.5-7.4-3.3-11.3l-234.3-33.2 81.5-92.1 210 45.7c36.7-4.7 70.2 21.3 74.9 57.9 4 30.6-13.7 60-42.6 71z" clip-path="url(#SVGID_00000141453723868379460420000008906228668165711747_)" fill="#303030"/><path d="M303.6 2087.8c-3.6-5.5-8.7-9.3-14.4-10.7l-80-20-8.2-2c-9.7-2.4-18-9.7-22.9-19.9-2.5-5.3-4.1-11.3-4.5-17.4-.4-5.6.2-11.2 1.6-16.4l27.7-100.4 18-65.1c2.2-7.9 3.5-16 3.8-24.3 1-22.9-4.9-45.4-16.6-63.5-21.1-32.6-57.6-44.8-89.7-30-.5.2-.9.4-1.4.6-22.8 10.9-39.9 34.1-46.3 62.5l-19.5 85.4-40.3 176.1c-15.5 67.6 17.6 137.6 73.9 156.2 5.1 1.7 10.4 2.9 15.7 3.7l115.3 16.2 53.3 7.5c12.8 1.8 24.6-8.4 27.2-23.6.1-.4.2-.8.2-1.2l1.3-9.5 10.9-80 .1-.8c.9-8.4-.9-16.9-5.2-23.4zM550.7 2257.9c32 8.3 64-14 71.4-49.8.8-3.8 1.3-7.7 1.5-11.6l203-66-83.6-79.7-180 74.9c-33 .5-59.4 31-58.9 67.9.3 30.8 19.6 57.5 46.6 64.3z" clip-path="url(#SVGID_00000141453723868379460420000008906228668165711747_)" fill="#303030"/><path d="M858.4 1982.9l-77.7-248.8c-6.4-20.4-17.7-37.1-32-46.9-4.4-3-9.1-5.4-13.9-7-.7-.3-1.5-.5-2.2-.7-10.2-3.1-20.7-2.8-30.8.8-18.6 6.7-34.3 24-43.2 47.8 0 .1-.1.2-.1.3-9.9 26.7-10.1 58.4-.6 85.4l1 2.7 54.9 153.4c7.3 20.6 1.3 45.5-13.4 55.7-1 .7-2.1 1.3-3.1 1.9l-3.9 1.9-69.3 34.9c-10.8 5.4-16.6 21.7-13.2 36.9l.2.8 19.4 86.6.3 1.2c.2.7.4 1.5.6 2.2 4.3 13.3 14.9 20.3 25 16.6l37.4-13.7 7.6-2.8 96.6-35.5c48.7-17.9 77.8-87.4 64.9-155.3-1.1-6.4-2.6-12.5-4.5-18.4z" clip-path="url(#SVGID_00000141453723868379460420000008906228668165711747_)" fill="#303030"/><path d="M823.8 1592.1c-2.1-3.9-6.2-6.4-10.7-6.4H92.2c-6.7 0-12.2 5.5-12.2 12.2v431.5h745.3v-431.5c0-2.1-.5-4.1-1.5-5.8z" clip-path="url(#SVGID_00000141453723868379460420000008906228668165711747_)" fill="#303030"/><path d="M79.3 2017.7v53.2c0 9.3 7.5 16.8 16.8 16.8h275.1v105.1h-3.7c-1.2 0-2.2 1-2.2 2.2v7.3c0 1.2 1 2.2 2.2 2.2h170.8c1.2 0 2.2-1 2.2-2.2v-7.3c0-1.2-1-2.2-2.2-2.2h-3.7v-105.1h275.1c9.3 0 16.8-7.5 16.8-16.8v-53.2H79.3z" clip-path="url(#SVGID_00000141453723868379460420000008906228668165711747_)" fill="#303030"/><circle cx="443.9" cy="1796" r="68.8" clip-path="url(#SVGID_00000141453723868379460420000008906228668165711747_)" fill="#303030"/><path d="M419.6 1229.3c-13.1 3.8-25.7 2.4-37.8 8.9-13.5 7.3-27.4 15.4-40.7 24.6-23.3 5.6-56.1 63.3-62.4 54.5 6.6-29.4 29.5-78 65.4-94.2 14.9-6.8 49.1-15.4 65.2-18.8 4 1.1 21.7 7.3 28.9 8 55.1-1.4 22.8 13.2-18.6 17z" clip-path="url(#SVGID_00000141453723868379460420000008906228668165711747_)" fill="#303030"/><path d="M416 1213.8c-13.1 3.8-25.7 2.4-37.8 8.9-13.5 7.3-27.4 15.4-40.7 24.6-23.3 5.6-56.1 63.3-62.4 54.5 6.3-25.1 29.5-78 65.4-94.2 14.9-6.8 33.7-8.8 49.8-12.2 21.3-3 42.4-2.4 44.3 1.4 46.3 14.4 33.7 17.5-18.6 17z" clip-path="url(#SVGID_00000141453723868379460420000008906228668165711747_)" fill="#303030"/><g opacity=".7" clip-path="url(#SVGID_00000141453723868379460420000008906228668165711747_)"><path class="st19" d="M926.7 1697.8c-43.1.1-77.9 35-78 78-.1 43.2 34.8 78.3 78 78.4v61.7c0 32.4 26.3 58.7 58.7 58.7h183.5c32.4 0 58.7-26.3 58.7-58.7v-278.2H926.7v60.1zm-48.1 78.2c0-26.6 21.5-48.1 48.1-48.1v96.3c-26.6-.1-48.1-21.6-48.1-48.2z"/></g><path d="M865 1778.6c0 39.4 32 71.4 71.4 71.4 39.4 0 71.4-32 71.4-71.4 0-39.4-32-71.4-71.4-71.4s-71.4 32-71.4 71.4zm27.4 0c0-24.3 19.7-43.9 43.9-43.9 24.3 0 43.9 19.7 43.9 43.9 0 24.3-19.7 43.9-43.9 43.9-24.2.1-43.9-19.6-43.9-43.9z" clip-path="url(#SVGID_00000141453723868379460420000008906228668165711747_)" fill="#303030"/><path d="M865 1778.6c0 39.4 32 71.4 71.4 71.4 39.4 0 71.4-32 71.4-71.4 0-39.4-32-71.4-71.4-71.4s-71.4 32-71.4 71.4zm27.4 0c0-24.3 19.7-43.9 43.9-43.9 24.3 0 43.9 19.7 43.9 43.9 0 24.3-19.7 43.9-43.9 43.9-24.2.1-43.9-19.6-43.9-43.9z" opacity=".1" clip-path="url(#SVGID_00000141453723868379460420000008906228668165711747_)" fill="#303030"/><path d="M1211 1652.3v271.8c0 19.8-16 35.8-35.8 35.8H972.1c-19.8 0-35.8-16-35.8-35.8v-271.8H1211z" clip-path="url(#SVGID_00000141453723868379460420000008906228668165711747_)" fill="#303030"/><path d="M958.3 1652.3v254c0 29.6 24 53.6 53.6 53.6h27.5c-29.6 0-53.6-24-53.6-53.6v-254h-27.5z" opacity=".3" clip-path="url(#SVGID_00000141453723868379460420000008906228668165711747_)" fill="#303030"/><path d="M1107.4 1440.6c-16.4.7-34.8 7.4-50.6 11.7-33.8 9.3-67.3 22.1-95.1 44-10.3 8.1-20.1 18-23.6 30.7s1.6 28.4 13.8 33.2c7.5 2.9 17.8 2.3 21.3 9.6 4.6 9.5-8.7 20.9-4.1 30.5 2.4 4.9 8.5 6.6 13.9 7.4 16.8 2.6 33.9 2.3 50.5 6 16.5 3.8 33.1 12.6 40.5 27.8 17.9-22.2 49.8-26 74.5-40.1 10-5.7 19.9-15.5 18.3-26.9-2.5-17.8-27.9-20.9-38.6-35.4-8.2-11.1-5.8-27.2 1.7-38.8 7.5-11.6 19.1-19.7 30.1-28 6-4.5 12.5-11.9 8.9-18.4-2.3-4.1-7.5-5.4-12.1-6.2-15.6-2.8-33.6-7.8-49.4-7.1z" clip-path="url(#SVGID_00000141453723868379460420000008906228668165711747_)" fill="#303030"/></g><g><defs><path id="SVGID_00000090265805339984022020000008283805139960267913_" d="M1137.3 1517.2c0 244.9 70.2 512.2-441.9 443.5-241.9-32.5-441.9-198.5-441.9-443.5s-56.2-475 441.9-443.5c243.6 15.4 441.9 198.5 441.9 443.5z"/></defs><clipPath id="SVGID_00000101064109383154197630000003629320220773656747_"><use xlink:href="#SVGID_00000090265805339984022020000008283805139960267913_" overflow="visible"/></clipPath><path clip-path="url(#SVGID_00000101064109383154197630000003629320220773656747_)" fill="#191919" d="M895.8 1347.6l72.6-72.5-72.6-72.4 22.1-22.1 94.9 94.5-94.9 94.5-22.1-22zM688.3 1246.1h29.5v29.5h-29.5zM807 1246.1h29.5v29.5H807zM747.6 1246.1h29.5v29.5h-29.5zM648.2 1346.8l-72.7-72.4 72.7-72.5-22.2-22.1-94.8 94.6 94.9 94.5z"/><path clip-path="url(#SVGID_00000101064109383154197630000003629320220773656747_)" fill="#b4c738" d="M895.8 1333.5l72.6-72.4-72.6-72.5 22.1-22 94.9 94.5-94.9 94.5-22.1-22.1zM688.3 1266.3h29.5v-29.5h-29.5v29.5zm148.2-29.6H807v29.5h29.5v-29.5zm-88.9 29.6h29.5v-29.5h-29.5v29.5zM648.2 1332.8l-72.7-72.5 72.7-72.4-22.2-22.1-94.8 94.5 94.9 94.6z"/><path id="b6132315-04e2-4cdb-a713-107c9cd58b0b_00000147929218759175197810000001248774379067003038_" d="M429 1207.7c130.3-17.9 144.3 102.2 144.3 201.1s-65.8 176.9-144.3 176.9-142.1-80.2-142.1-179.1 13.9-181.3 142.1-198.9z" clip-path="url(#SVGID_00000101064109383154197630000003629320220773656747_)" fill="#ffb6b6"/><path d="M291.2 1440.5s-11.3-109.9 19.8-140.8c31.2-30.9 54.3-60.6 109-64.1 64.5-4.1 92.9-33.7 139.1 80.1 9.9 24.4 12.5 65.3 12.5 65.3l9.2-18.7s.7-16-4.9-52.7c-5.2-33.8-13.1-44.1-18.9-67.1-13.9-55.4-60.4-88.5-105.2-92.8-44.8-4.3-102.8 16.4-115.2 26.8s-31.3 41.3-31.3 41.3-29 20.7-31.1 33.3-7.4 55.9-7.4 55.9 8.6 66.5 10.1 78.6c1.9 15.2 1.3 37 1.3 37l13 17.9z" clip-path="url(#SVGID_00000101064109383154197630000003629320220773656747_)" fill="#735b4e"/><path clip-path="url(#SVGID_00000101064109383154197630000003629320220773656747_)" fill="#d0d1be" d="M589.6 2071.6h-1.4l1.2-.1z"/><path d="M825.8 1788.1l-.5 2.6-5.4 28.7-37.5 198.4-2.2 11.7-4.7 24.7-6.4 33.7-14.1 74.7-4 21.4-1.5 8-.5 2.8-4.2 22.1-1.3 6.7-10.2 75.9-9 66.2 30 30-17.9 17.9-11.7 67.1v.2H246.2c-19.4-12.5-38.4-25.5-57.2-38.8l3.9-29.5s13.5-52.6 7.9-58.9c-5.7-6.3-18.1-17.5-18.1-17.5l15.7-36.6 2.2-5.1-3.7-75.7-.1-1.8-1.2-25-.2-3.2-.2-4.8-4.6-96.1-.1-1.6-1.4-29.1-1.3-27.7-.6-11.7-5.7-116.8-3.8-79.3-3.3-69.1 13.4-4.6 143.7-48.8 59.5-77.4 123.9.9 60.6.5 101.2 93.9 23 11 .2.1 16.5 7.9 41.9 20 44.3 21.2 22.7 10.8h.5z" clip-path="url(#SVGID_00000101064109383154197630000003629320220773656747_)" fill="#5e5e5e"/><path d="M407 2255.3c-34.3 13.3-72.9-3.7-86.2-38-1.4-3.7-2.5-7.4-3.3-11.3l-234.3-33.2 81.5-92.1 210 45.7c36.7-4.7 70.2 21.3 74.9 57.9 4 30.6-13.7 60-42.6 71z" clip-path="url(#SVGID_00000101064109383154197630000003629320220773656747_)" fill="#ffb6b6"/><path d="M303.6 2087.8c-3.6-5.5-8.7-9.3-14.4-10.7l-80-20-8.2-2c-9.7-2.4-18-9.7-22.9-19.9-2.5-5.3-4.1-11.3-4.5-17.4-.4-5.6.2-11.2 1.6-16.4l27.7-100.4 18-65.1c2.2-7.9 3.5-16 3.8-24.3 1-22.9-4.9-45.4-16.6-63.5-21.1-32.6-57.6-44.8-89.7-30-.5.2-.9.4-1.4.6-22.8 10.9-39.9 34.1-46.3 62.5l-19.5 85.4-40.3 176.1c-15.5 67.6 17.6 137.6 73.9 156.2 5.1 1.7 10.4 2.9 15.7 3.7l115.3 16.2 53.3 7.5c12.8 1.8 24.6-8.4 27.2-23.6.1-.4.2-.8.2-1.2l1.3-9.5 10.9-80 .1-.8c.9-8.4-.9-16.9-5.2-23.4z" clip-path="url(#SVGID_00000101064109383154197630000003629320220773656747_)" fill="#5e5e5e"/><path d="M550.7 2257.9c32 8.3 64-14 71.4-49.8.8-3.8 1.3-7.7 1.5-11.6l203-66-83.6-79.7-180 74.9c-33 .5-59.4 31-58.9 67.9.3 30.8 19.6 57.5 46.6 64.3z" clip-path="url(#SVGID_00000101064109383154197630000003629320220773656747_)" fill="#ffb6b6"/><path d="M858.4 1982.9l-77.7-248.8c-6.4-20.4-17.7-37.1-32-46.9-4.4-3-9.1-5.4-13.9-7-.7-.3-1.5-.5-2.2-.7-10.2-3.1-20.7-2.8-30.8.8-18.6 6.7-34.3 24-43.2 47.8 0 .1-.1.2-.1.3-9.9 26.7-10.1 58.4-.6 85.4l1 2.7 54.9 153.4c7.3 20.6 1.3 45.5-13.4 55.7-1 .7-2.1 1.3-3.1 1.9l-3.9 1.9-69.3 34.9c-10.8 5.4-16.6 21.7-13.2 36.9l.2.8 19.4 86.6.3 1.2c.2.7.4 1.5.6 2.2 4.3 13.3 14.9 20.3 25 16.6l37.4-13.7 7.6-2.8 96.6-35.5c48.7-17.9 77.8-87.4 64.9-155.3-1.1-6.4-2.6-12.5-4.5-18.4z" clip-path="url(#SVGID_00000101064109383154197630000003629320220773656747_)" fill="#5e5e5e"/><path d="M823.8 1592.1c-2.1-3.9-6.2-6.4-10.7-6.4H92.2c-6.7 0-12.2 5.5-12.2 12.2v431.5h745.3v-431.5c0-2.1-.5-4.1-1.5-5.8z" clip-path="url(#SVGID_00000101064109383154197630000003629320220773656747_)" fill="#90917b"/><path d="M79.3 2017.7v53.2c0 9.3 7.5 16.8 16.8 16.8h275.1v105.1h-3.7c-1.2 0-2.2 1-2.2 2.2v7.3c0 1.2 1 2.2 2.2 2.2h170.8c1.2 0 2.2-1 2.2-2.2v-7.3c0-1.2-1-2.2-2.2-2.2h-3.7v-105.1h275.1c9.3 0 16.8-7.5 16.8-16.8v-53.2H79.3z" clip-path="url(#SVGID_00000101064109383154197630000003629320220773656747_)" fill="#90917b"/><circle cx="443.9" cy="1796" r="68.8" clip-path="url(#SVGID_00000101064109383154197630000003629320220773656747_)" fill="#b4c738"/><path d="M419.6 1229.3c-13.1 3.8-25.7 2.4-37.8 8.9-13.5 7.3-27.4 15.4-40.7 24.6-23.3 5.6-56.1 63.3-62.4 54.5 6.6-29.4 29.5-78 65.4-94.2 14.9-6.8 49.1-15.4 65.2-18.8 4 1.1 21.7 7.3 28.9 8 55.1-1.4 22.8 13.2-18.6 17z" clip-path="url(#SVGID_00000101064109383154197630000003629320220773656747_)" fill="#37221e"/><path d="M416 1213.8c-13.1 3.8-25.7 2.4-37.8 8.9-13.5 7.3-27.4 15.4-40.7 24.6-23.3 5.6-56.1 63.3-62.4 54.5 6.3-25.1 29.5-78 65.4-94.2 14.9-6.8 33.7-8.8 49.8-12.2 21.3-3 42.4-2.4 44.3 1.4 46.3 14.4 33.7 17.5-18.6 17z" clip-path="url(#SVGID_00000101064109383154197630000003629320220773656747_)" fill="#29221a"/><g opacity=".7" clip-path="url(#SVGID_00000101064109383154197630000003629320220773656747_)"><linearGradient id="SVGID_00000172404375720215680500000015699638486802253755_" gradientUnits="userSpaceOnUse" x1="1136.469" y1="-1192.365" x2="1136.469" y2="-855.469" gradientTransform="rotate(180 1087.267 391.085)"><stop offset="0" stop-color="#7f7f7f" stop-opacity=".25"/><stop offset=".535" stop-color="#7f7f7f" stop-opacity=".12"/><stop offset="1" stop-color="#7f7f7f" stop-opacity=".1"/></linearGradient><path d="M926.7 1697.8c-43.1.1-77.9 35-78 78-.1 43.2 34.8 78.3 78 78.4v61.7c0 32.4 26.3 58.7 58.7 58.7h183.5c32.4 0 58.7-26.3 58.7-58.7v-278.2H926.7v60.1zm-48.1 78.2c0-26.6 21.5-48.1 48.1-48.1v96.3c-26.6-.1-48.1-21.6-48.1-48.2z" fill="url(#SVGID_00000172404375720215680500000015699638486802253755_)"/></g><path d="M865 1778.6c0 39.4 32 71.4 71.4 71.4 39.4 0 71.4-32 71.4-71.4 0-39.4-32-71.4-71.4-71.4s-71.4 32-71.4 71.4zm27.4 0c0-24.3 19.7-43.9 43.9-43.9 24.3 0 43.9 19.7 43.9 43.9 0 24.3-19.7 43.9-43.9 43.9-24.2.1-43.9-19.6-43.9-43.9z" clip-path="url(#SVGID_00000101064109383154197630000003629320220773656747_)" fill="#939c00"/><path d="M865 1778.6c0 39.4 32 71.4 71.4 71.4 39.4 0 71.4-32 71.4-71.4 0-39.4-32-71.4-71.4-71.4s-71.4 32-71.4 71.4zm27.4 0c0-24.3 19.7-43.9 43.9-43.9 24.3 0 43.9 19.7 43.9 43.9 0 24.3-19.7 43.9-43.9 43.9-24.2.1-43.9-19.6-43.9-43.9z" opacity=".1" clip-path="url(#SVGID_00000101064109383154197630000003629320220773656747_)" fill="#b4c738"/><path d="M1211 1652.3v271.8c0 19.8-16 35.8-35.8 35.8H972.1c-19.8 0-35.8-16-35.8-35.8v-271.8H1211z" clip-path="url(#SVGID_00000101064109383154197630000003629320220773656747_)" fill="#b4c738"/><path d="M958.3 1652.3v254c0 29.6 24 53.6 53.6 53.6h27.5c-29.6 0-53.6-24-53.6-53.6v-254h-27.5z" opacity=".3" clip-path="url(#SVGID_00000101064109383154197630000003629320220773656747_)" fill="#fff"/><path d="M1107.4 1440.6c-16.4.7-34.8 7.4-50.6 11.7-33.8 9.3-67.3 22.1-95.1 44-10.3 8.1-20.1 18-23.6 30.7s1.6 28.4 13.8 33.2c7.5 2.9 17.8 2.3 21.3 9.6 4.6 9.5-8.7 20.9-4.1 30.5 2.4 4.9 8.5 6.6 13.9 7.4 16.8 2.6 33.9 2.3 50.5 6 16.5 3.8 33.1 12.6 40.5 27.8 17.9-22.2 49.8-26 74.5-40.1 10-5.7 19.9-15.5 18.3-26.9-2.5-17.8-27.9-20.9-38.6-35.4-8.2-11.1-5.8-27.2 1.7-38.8 7.5-11.6 19.1-19.7 30.1-28 6-4.5 12.5-11.9 8.9-18.4-2.3-4.1-7.5-5.4-12.1-6.2-15.6-2.8-33.6-7.8-49.4-7.1z" clip-path="url(#SVGID_00000101064109383154197630000003629320220773656747_)" fill="#686868"/></g></svg>