<?xml version="1.0" encoding="utf-8"?>
<!-- Generator: Adobe Illustrator 25.4.1, SVG Export Plug-In . SVG Version: 6.00 Build 0)  -->
<svg version="1.1" id="f1b25b43-9e03-45b3-af71-047f5bd7d8f3"
	 xmlns="http://www.w3.org/2000/svg" xmlns:xlink="http://www.w3.org/1999/xlink" x="0px" y="0px" viewBox="0 0 900 900"
	 style="enable-background:new 0 0 900 900;" xml:space="preserve">
<style type="text/css">
	.st0{fill:#E6E6E6;}
	.st1{fill:#6C63FF;}
	.st2{fill:#A0616A;}
	.st3{fill:#2F2E41;}
	.st4{fill:#CCCCCC;}
	.st5{fill:#FFB8B8;}
	.st6{fill:#3F3D56;}
	.st7{fill:#FFB6B6;}
	.st8{fill:#735B4E;}
	.st9{fill:#F2F2F2;}
	.st10{fill:#CACACA;}
	.st11{fill:#FFFFFF;}
	.st12{fill:#37221E;}
	.st13{fill:#29221A;}
	.st14{opacity:0.7;}
	.st15{fill:url(#SVGID_1_);}
	.st16{opacity:0.1;enable-background:new    ;}
	.st17{fill:#D0D1BE;}
	.st18{fill:#90917B;}
	.st19{fill:#303030;}
	.st20{fill:#5E5E5E;}
	.st21{fill:#B4C738;}
	.st22{fill:#191919;}
	.st23{fill:url(#SVGID_00000008845574815066363970000008059490010555668385_);}
	.st24{fill:#939C00;}
	.st25{opacity:0.1;fill:#FFFFFF;enable-background:new    ;}
	.st26{fill:#686868;}
	.st27{clip-path:url(#SVGID_00000178189147961686066620000014623508567466622610_);fill:#303030;}
	.st28{opacity:0.7;clip-path:url(#SVGID_00000178189147961686066620000014623508567466622610_);}
	
		.st29{opacity:0.1;clip-path:url(#SVGID_00000178189147961686066620000014623508567466622610_);fill:#303030;enable-background:new    ;}
	
		.st30{opacity:0.3;clip-path:url(#SVGID_00000178189147961686066620000014623508567466622610_);fill:#303030;enable-background:new    ;}
	.st31{clip-path:url(#SVGID_00000049907335594839920210000009799406839194044337_);fill:#191919;}
	.st32{clip-path:url(#SVGID_00000049907335594839920210000009799406839194044337_);fill:#B4C738;}
	.st33{clip-path:url(#SVGID_00000049907335594839920210000009799406839194044337_);fill:#FFB6B6;}
	.st34{clip-path:url(#SVGID_00000049907335594839920210000009799406839194044337_);fill:#735B4E;}
	.st35{clip-path:url(#SVGID_00000049907335594839920210000009799406839194044337_);fill:#D0D1BE;}
	.st36{clip-path:url(#SVGID_00000049907335594839920210000009799406839194044337_);fill:#5E5E5E;}
	.st37{clip-path:url(#SVGID_00000049907335594839920210000009799406839194044337_);fill:#90917B;}
	.st38{clip-path:url(#SVGID_00000049907335594839920210000009799406839194044337_);fill:#37221E;}
	.st39{clip-path:url(#SVGID_00000049907335594839920210000009799406839194044337_);fill:#29221A;}
	.st40{opacity:0.7;clip-path:url(#SVGID_00000049907335594839920210000009799406839194044337_);}
	.st41{fill:url(#SVGID_00000129169135505640222070000003189684944984041096_);}
	.st42{clip-path:url(#SVGID_00000049907335594839920210000009799406839194044337_);fill:#939C00;}
	
		.st43{opacity:0.1;clip-path:url(#SVGID_00000049907335594839920210000009799406839194044337_);fill:#B4C738;enable-background:new    ;}
	
		.st44{opacity:0.3;clip-path:url(#SVGID_00000049907335594839920210000009799406839194044337_);fill:#FFFFFF;enable-background:new    ;}
	.st45{clip-path:url(#SVGID_00000049907335594839920210000009799406839194044337_);fill:#686868;}
</style>
<image style="overflow:visible;" width="823" height="823" xlink:href="../../../../Documents/_Profile photos/2020/full-size-square.jpg"  transform="matrix(0.6362 0 0 0.6362 1063.6654 -305.7533)">
</image>
<g>
	<polygon class="st0" points="1595.2,897.3 1657.1,835.6 1595.2,773.8 1614,755 1694.8,835.6 1614,916.1 1595.2,897.3 	"/>
	<rect x="1418.3" y="810.8" class="st0" width="25.2" height="25.2"/>
	<rect x="1519.5" y="810.8" class="st0" width="25.2" height="25.2"/>
	<rect x="1468.9" y="810.8" class="st0" width="25.2" height="25.2"/>
	<polygon class="st0" points="1384.2,896.7 1322.2,834.9 1384.1,773.2 1365.2,754.4 1284.5,834.9 1365.3,915.5 	"/>
	<polygon class="st1" points="1595.2,885.3 1657.1,823.6 1595.2,761.9 1614,743 1694.8,823.6 1614,904.2 1595.2,885.3 	"/>
	<path class="st1" d="M1418.3,828h25.2v-25.2h-25.2V828z M1544.7,802.8h-25.2V828h25.2V802.8z M1468.9,828h25.2v-25.2h-25.2V828z"/>
	<polygon class="st1" points="1384.2,884.7 1322.2,823 1384.1,761.2 1365.2,742.4 1284.5,823 1365.3,903.5 	"/>
	<polygon class="st2" points="1081,1086 1095.1,1089.4 1114.9,1036.7 1094.1,1031.7 	"/>
	<path class="st3" d="M1074.3,1098.7l4.3-17.9l27.6,6.7c9.7,2.3,15.6,12.1,13.3,21.7l-0.1,0.4L1074.3,1098.7z"/>
	<polygon class="st2" points="1143.4,1095.6 1157.9,1095.6 1164.8,1039.7 1143.4,1039.7 	"/>
	<path class="st3" d="M1139.9,1091.1l28.4,0h0c9.9,0,18,8.1,18,18v0.4l-46.4,0L1139.9,1091.1z"/>
	<path class="st3" d="M1140,1076.3l2.4-87l-3.2-35.3l-6.3,27.2l-27.4,89.3l-23.6-6.2l27.3-96.3l-5.9-61.7l17.1-11l0.2,0l58.3,10.7
		l-14.1,167.8L1140,1076.3z"/>
	<path class="st4" d="M1163.1,918.1c-4.7,0-10.2-1.5-16.3-5.8c-19.6-13.8-42.9,1-43.1,1.2l-0.9,0.6l0-1.1c0-0.8,2.4-80.7,2.4-106.4
		c0-26.6,17.3-46,22.6-51.3c5.2-5.2,9.6-5.1,15.2-5c1,0,2,0.1,3,0.1c7.3,0,14.3,7,14.6,7.3l0.1,0.1l0,0.2l20.1,151.6l-0.2,0.2
		C1180.6,909.9,1174,918.1,1163.1,918.1z"/>
	<circle class="st2" cx="1149" cy="712.4" r="29"/>
	<path class="st2" d="M1193.5,942.4c-5.2-4-6.1-11.5-2.1-16.7c0.4-0.6,0.9-1.1,1.4-1.5l-16.5-38.9l21.6,4l12.4,36.3
		c4.1,5.2,3.2,12.7-2,16.8C1203.9,945.8,1197.8,945.8,1193.5,942.4L1193.5,942.4z"/>
	<path class="st4" d="M1188.8,920.3l-29.8-60.8l-13.1-45.8l0-39.8c0-0.2,3.1-15.6,14.5-14.6c10.3,1,15.9,6,18.6,16.9
		c2.3,9.2-0.8,36.5-1.2,39.1c2,4.7,32,76.2,27,84.8c-0.2,0.3-0.5,0.6-0.8,0.8l5.3,11.2L1188.8,920.3z"/>
	<path class="st3" d="M1145.3,723.3c3.5,0.5,6.1-3.1,7.3-6.4s2.1-7.1,5.2-8.9c4.1-2.4,9.4,0.5,14.2-0.3c5.3-0.9,8.8-6.6,9.1-12
		c0.3-5.4-1.9-10.6-4-15.6l-0.7,6.2c0.2-4.3-1.8-8.3-5.4-10.7l1,9.1c-0.8-5.3-5.8-8.8-11.1-8c0,0,0,0,0,0l0.1,5.4
		c-6.2-0.7-12.4-1.5-18.6-0.9s-12.4,2.5-17.1,6.6c-7,6.1-9.6,16.1-8.7,25.4c0.9,9.3,4.7,17.9,8.7,26.3c1,2.1,2.4,4.5,4.7,4.8
		c2.1,0.2,4-1.5,4.6-3.5c0.5-2.1,0.5-4.2-0.1-6.2c-0.6-3.1-1.3-6.3-0.8-9.4s2.8-6.2,6-6.6c3.2-0.4,6.4,3.2,4.9,6L1145.3,723.3z"/>
	<path class="st5" d="M1864.3,938.5c-3.7-4.2-3.2-10.5,0.9-14.2c0.4-0.4,0.9-0.7,1.4-1l-7.4-35l17.3,6.8l4.4,32.2
		c2.6,5,0.6,11.1-4.3,13.6C1872.4,943,1867.3,942.1,1864.3,938.5L1864.3,938.5z"/>
	<path class="st4" d="M1862.3,911.3l-0.1-0.3c-9.3-34.6-19-70.3-30.8-109.2l-0.1-0.3l0.3-0.2c6.6-3.8,16.5-3.6,23,0.6
		c6.1,3.9,9,11.2,7.4,18.2l8.6,44.9c3.5,14.7,7.1,29.8,10.6,44.8l0.1,0.4l-0.5,0c-6.3,0.4-12.8,0.8-18,1L1862.3,911.3z"/>
	<polygon class="st5" points="1782.9,1097.3 1770.6,1097.3 1764.8,1050 1782.9,1050 	"/>
	<path class="st3" d="M1786,1109.2h-39.5v-0.5c0-8.5,6.9-15.4,15.4-15.4h24.1V1109.2z"/>
	<polygon class="st5" points="1898.4,1087.2 1886.7,1090.9 1866.8,1047.7 1884.1,1042.2 	"/>
	<path class="st3" d="M1867.3,1109.6l-0.2-0.5c-2.6-8.1,1.9-16.7,10-19.3l23-7.3l4.8,15.1L1867.3,1109.6z"/>
	<circle class="st5" cx="1836.4" cy="745.5" r="24.6"/>
	<path class="st3" d="M1847.4,740.9c0.1-9.9-4-19.7-10.4-24.6c-6.2-4.9-15.1-4.8-21.1,0.4c-6.3,5.2-10.3,15.1-9.9,25
		C1820.1,741.7,1834.2,741.7,1847.4,740.9z"/>
	<path class="st3" d="M1789.9,1082.1l-0.5,0c-10.7-1-21.7-2.1-32.1-2.3l-0.6,0l0.1-0.6c2.5-17.9,3.5-36.5,4.5-54.5
		c1-17.8,2-36.1,4.4-53.6c1-4.7,2-9.3,3-13.9c8.2-38,15.9-74,31.9-109.5l0.2-0.3l0.4,0c15,1.8,29.4,7.3,40.5,15.4l0.2,0.2l0,0.3
		c-0.2,5.5-0.4,11.2-0.1,16.4c10.3,14.3,13.2,32.5,8,49.3c4.4,14.7,8.9,29.8,13.6,44.8c11.2,30.8,22.9,62.8,34.8,95.1l0.2,0.5
		l-0.6,0.1c-8.6,2-17.4,4.1-26.2,4.9l-0.3,0l-0.2-0.3c-22.3-41.5-40.4-85-54.1-130.1c-3,9.1-7.3,17.3-11.4,25.2
		c-4,7.2-7.5,14.7-10.5,22.4c-1.8,15.1-2.3,31.5-2.8,47.3c-0.4,15-0.9,29.1-2.3,42.4L1789.9,1082.1z"/>
	<path class="st3" d="M1828,716.7c10.6-2.3,22.4-0.1,30.8,7.1s12.6,19.6,9.2,30.3c-3.4,10.7-15.1,18.2-25.6,15.4
		c3-8.5-0.4-19-7.8-23.9C1825.8,739.8,1823.4,725.9,1828,716.7z"/>
	<path class="st4" d="M1840.9,864l-0.4-0.2c-13.6-6.2-26.9-11-39.4-15.3l-0.4-0.1l0-1.1l0.2,0.1c0.1-0.1,0.1-0.2,0.2-0.4
		c0.2-0.4,0.3-0.6,0.4-0.8l0,0c1-2.1,1.9-4.2,2.7-6.1c0.8-2,1.7-4.2,2.8-6.4c-5.5-5.5-7.1-13.7-4.3-20.8c2.8-6.5,9.8-11.6,17.2-12.5
		c2.7-7.4,8.7-23.1,8.7-23.1s12.7-0.3,17.8-1l0.1,0l0.1,0c11.1,2.4,20.4,13,22.6,25.6c1.8,10.7-1,22.9-7.8,34.4
		c-3.5,5.6-7.4,11-11.7,16.1c-3.1,3.9-6,7.6-8.5,11.2L1840.9,864z"/>
	<path class="st3" d="M1865,733.5L1865,733.5z"/>
	<path class="st3" d="M1865.5,731.3c-7.5-1.1-13.3-8.7-12.5-16.2c0.8-7.5,8.3-13.6,15.8-13c7.5,0.6,13.9,7.8,13.6,15.3
		C1882.1,724.8,1875,732.7,1865.5,731.3z"/>
	<path class="st3" d="M1864.3,726.4c-7.5-1.1-13.3-8.7-12.5-16.2c0.8-5.2,4.1-9.6,8.9-11.7c-6,1.3-11.2,6.6-11.9,12.7
		c-0.8,7.5,5,15.1,12.5,16.2c2.8,0.4,5.6,0,8.2-1.1C1867.8,726.6,1866,726.7,1864.3,726.4z"/>
	<path class="st5" d="M1719.8,858.4c2.7-4.8,8.8-6.6,13.7-3.9c0.5,0.3,1,0.6,1.5,1l30.5-18.7l-0.6,18.6l-28.8,14.9
		c-3.8,4.1-10.2,4.3-14.3,0.5C1718.2,867.6,1717.5,862.5,1719.8,858.4L1719.8,858.4z"/>
	<path class="st4" d="M1744.8,847.5l0.3-0.2c29.5-20.3,60-41.3,92.7-65.4l0.2-0.2l0.2,0.2c5.8,4.9,8.9,14.3,7.1,21.9
		c-1.7,7-7.5,12.2-14.7,13.1l-39.4,23.1c-12.7,8.2-25.8,16.7-38.7,24.9l-0.4,0.2l-0.2-0.5c-2.5-5.8-5-11.8-7-16.6L1744.8,847.5z"/>
	<path class="st6" d="M1333.7,1110.3h-381c-0.6,0-1-0.4-1-1c0-0.6,0.4-1,1-1h381c0.6,0,1,0.4,1,1
		C1334.7,1109.9,1334.2,1110.3,1333.7,1110.3z"/>
	<path class="st6" d="M2008.7,1110.3h-381c-0.6,0-1-0.4-1-1c0-0.6,0.4-1,1-1h381c0.6,0,1,0.4,1,1
		C2009.7,1109.9,2009.2,1110.3,2008.7,1110.3z"/>
</g>
<path id="b6132315-04e2-4cdb-a713-107c9cd58b0b_00000101806003809763886680000001631560397120137136_" class="st7" d="M303.9,160.8
	c59.3-8.1,65.6,46.5,65.6,91.4s-29.9,80.4-65.6,80.4s-64.6-36.5-64.6-81.4S245.6,168.8,303.9,160.8z"/>
<path class="st8" d="M241.2,266.6c0,0-5.2-50,9-64c14.2-14.1,24.7-27.6,49.5-29.1c29.3-1.9,42.3-15.3,63.2,36.4
	c4.5,11.1,5.7,29.7,5.7,29.7l4.2-8.5c0,0,0.3-7.3-2.2-24c-2.4-15.4-6-20-8.6-30.5c-6.3-25.2-27.5-40.2-47.8-42.2
	c-20.4-2-46.7,7.4-52.4,12.2c-5.7,4.7-14.2,18.8-14.2,18.8s-13.2,9.4-14.1,15.1c-1,5.7-3.4,25.4-3.4,25.4s3.9,30.2,4.6,35.7
	c0.9,6.9,0.6,16.8,0.6,16.8L241.2,266.6z"/>
<path class="st9" d="M791.6,465.1c0.1,91.7-35.3,179.8-98.8,245.9c-3.8,4-7.8,7.9-11.8,11.7c-6.1,5.8-12.5,11.5-19.1,16.9
	c-61.4,50.6-138,79-217.6,80.7c-2.6,0.1-5.3,0.1-8,0.1c-63.4,0-143.2-33.9-215.6-80.8c-6-3.9-11.9-7.9-17.8-11.9
	c-2.8-1.9-5.5-3.8-8.2-5.7c-27.9-19.7-54.4-41.4-79.3-64.8c-16.3-15.3-31.6-31.6-45.8-48.9C14,539.7,1.7,477.8,81,465.1
	c9.4-1.5,18.5-3.1,27.3-4.8c12.8-2.5,25.1-5.1,36.8-8c15.8-3.8,30.6-8,44.4-12.5c4.7-1.5,9.2-3,13.7-4.6
	c65.7-23.1,109.7-53.2,139.7-85.9c5.1-5.5,9.8-11.1,14-16.8c6.6-8.6,12.5-17.7,17.8-27.1c7.3-13.1,13.5-26.9,18.4-41l0.3-0.8
	c23.8-68.7,16.6-132.5,42.9-153.8c112.4-91.2,252.3,38.7,318,191.9c3.3,7.7,6.4,15.5,9.3,23.3c1.3,3.5,2.6,7,3.8,10.5
	c3.2,9.1,6.1,18.3,8.7,27.5c1,3.5,2,7,2.9,10.5c1,3.8,1.9,7.5,2.8,11.3C788.1,412.3,791.6,439.5,791.6,465.1z"/>
<path class="st3" d="M444.3,820.3c-2.6,0.1-5.3,0.1-8,0.1c-63.4,0-143.2-33.9-215.6-80.8c-6-3.9-11.9-7.8-17.8-11.9l5.2-31.4
	l156.2-20.7l78.4,60L444.3,820.3z"/>
<polygon class="st3" points="360.8,739.6 360.2,739.6 360.7,739.6 "/>
<path class="st10" d="M484.3,424.7l-0.2,1.2l-2.5,13l-17.1,90.2l-1,5.3l-2.1,11.2l-2.9,15.3l-6.4,34l-1.8,9.7l-0.7,3.6l-0.2,1.3
	l-1.9,10.1l-0.6,3l-4.7,34.5l-4.1,30.1l13.6,13.6l-8.1,8.1l-5.3,30.5l0,0.1H220.7c-8.8-5.7-17.5-11.6-26-17.6l1.8-13.4
	c0,0,6.2-23.9,3.6-26.8c-2.6-2.9-8.2-8-8.2-8l7.1-16.6l1-2.3l-1.7-34.4l0-0.8l-0.5-11.4l-0.1-1.5l-0.1-2.2l-2.1-43.7l0-0.7
	l-0.6-13.2l-0.6-12.6l-0.3-5.3l-2.6-53.1l-1.7-36.1l-1.5-31.4l6.1-2.1l65.4-22.2l27.1-35.2l56.3,0.4l27.6,0.2l46,42.7l10.5,5l0.1,0
	l7.5,3.6l19,9.1l20.1,9.6l10.3,4.9L484.3,424.7z"/>
<path class="st7" d="M293.8,637.1c-15.6,6-33.1-1.7-39.2-17.3c-0.6-1.7-1.1-3.4-1.5-5.1l-106.6-15.1l37-41.9l95.5,20.8
	c16.7-2.1,31.9,9.7,34.1,26.4C315,618.8,307,632.1,293.8,637.1L293.8,637.1z"/>
<path class="st10" d="M246.8,561c-1.6-2.5-4-4.2-6.6-4.9l-36.4-9.1l-3.7-0.9c-4.4-1.1-8.2-4.4-10.4-9.1c-1.2-2.4-1.8-5.1-2-7.9
	c-0.2-2.5,0.1-5.1,0.7-7.5L201,476l8.2-29.6c1-3.6,1.6-7.3,1.7-11c0.5-10.4-2.2-20.7-7.5-28.9c-9.6-14.8-26.2-20.4-40.8-13.6
	c-0.2,0.1-0.4,0.2-0.6,0.3c-10.3,5-18.2,15.5-21.1,28.4l-8.9,38.9l-18.3,80.1c-7,30.8,8,62.6,33.6,71c2.3,0.8,4.7,1.3,7.1,1.7
	l52.4,7.4l24.3,3.4c5.8,0.8,11.2-3.8,12.4-10.7c0-0.2,0.1-0.4,0.1-0.6l0.6-4.3l4.9-36.4l0-0.4C249.6,567.8,248.8,563.9,246.8,561z"
	/>
<path class="st7" d="M359.2,638.3c14.6,3.8,29.1-6.4,32.5-22.7c0.4-1.7,0.6-3.5,0.7-5.3l92.3-30l-38-36.3l-81.8,34
	c-15,0.2-27,14.1-26.8,30.9C338.1,623.1,346.9,635.2,359.2,638.3L359.2,638.3z"/>
<path class="st10" d="M499.1,513.3l-35.3-113.1c-2.9-9.3-8.1-16.9-14.6-21.4c-2-1.4-4.1-2.5-6.3-3.2c-0.3-0.1-0.7-0.2-1-0.3
	c-4.6-1.4-9.4-1.3-14,0.4c-8.5,3-15.6,10.9-19.6,21.7c0,0,0,0.1-0.1,0.1c-4.5,12.2-4.6,26.6-0.3,38.9l0.4,1.2l25,69.8
	c3.3,9.3,0.6,20.7-6.1,25.3c-0.5,0.3-0.9,0.6-1.4,0.9l-1.8,0.9l-31.5,15.8c-4.9,2.4-7.6,9.9-6,16.8l0.1,0.4l8.8,39.4
	c0,0.2,0.1,0.4,0.1,0.5c0.1,0.3,0.2,0.7,0.3,1c1.9,6.1,6.8,9.3,11.4,7.5l17-6.2l3.5-1.3l43.9-16.1c22.2-8.1,35.4-39.8,29.5-70.6
	C500.6,518.7,499.9,516,499.1,513.3L499.1,513.3z"/>
<path class="st6" d="M69.6,608.3c14.2,17.3,29.5,33.6,45.8,48.9h452c9.1,0,16.4,7.4,16.4,16.4l0.7,114.5
	c27.8-12.8,53.8-29.1,77.5-48.5c6.6-5.4,12.9-11,19.1-16.9c4-3.8,8-7.7,11.8-11.7c28.8-30,52.1-64.7,68.8-102.7H69.6z"/>
<path class="st11" d="M692.8,711c-3.8,4-7.8,7.9-11.8,11.7h-96.2V711H692.8z"/>
<path class="st6" d="M483.4,335.5c-1-1.8-2.8-2.9-4.9-2.9H150.7c-3.1,0-5.5,2.5-5.5,5.5v196.2h338.9V338.2
	C484.1,337.3,483.8,336.3,483.4,335.5z"/>
<path class="st6" d="M144.8,529.1v24.2c0,4.2,3.4,7.6,7.6,7.6c0,0,0,0,0,0h125.1v47.8h-1.7c-0.5,0-1,0.4-1,1c0,0,0,0,0,0v3.3
	c0,0.5,0.4,1,1,1c0,0,0,0,0,0h77.7c0.5,0,1-0.4,1-1c0,0,0,0,0,0v-3.3c0-0.5-0.4-1-1-1c0,0,0,0,0,0h-1.7V561H477
	c4.2,0,7.6-3.4,7.6-7.6c0,0,0,0,0,0v-24.2H144.8z"/>
<circle class="st1" cx="310.6" cy="428.3" r="31.3"/>
<path class="st12" d="M299.6,170.6c-6,1.7-11.7,1.1-17.2,4c-6.2,3.3-12.5,7-18.5,11.2c-10.6,2.5-25.5,28.8-28.4,24.8
	c3-13.4,13.4-35.5,29.8-42.8c6.8-3.1,22.3-7,29.6-8.5c1.8,0.5,9.9,3.3,13.2,3.6C333.1,162.2,318.4,168.8,299.6,170.6z"/>
<path class="st13" d="M297.9,163.5c-6,1.7-11.7,1.1-17.2,4c-6.2,3.3-12.5,7-18.5,11.2c-10.6,2.5-25.5,28.8-28.4,24.8
	c2.9-11.4,13.4-35.5,29.8-42.8c6.8-3.1,15.3-4,22.6-5.5c9.7-1.4,19.3-1.1,20.2,0.6C327.5,162.3,321.7,163.8,297.9,163.5z"/>
<polygon class="st0" points="759.2,324.6 821.1,262.8 759.2,201.1 778.1,182.3 858.9,262.8 778.1,343.4 759.2,324.6 "/>
<rect x="582.4" y="238.1" class="st0" width="25.2" height="25.2"/>
<rect x="683.6" y="238.1" class="st0" width="25.2" height="25.2"/>
<rect x="633" y="238.1" class="st0" width="25.2" height="25.2"/>
<polygon class="st0" points="548.2,324 486.2,262.2 548.2,200.5 529.3,181.7 448.5,262.2 529.4,342.8 "/>
<polygon class="st1" points="759.2,312.6 821.1,250.9 759.2,189.1 778.1,170.3 858.9,250.9 778.1,331.4 759.2,312.6 "/>
<path class="st1" d="M582.4,255.3h25.2v-25.2h-25.2L582.4,255.3z M708.7,230.1h-25.2v25.2h25.2V230.1z M633,255.3h25.2v-25.2H633
	V255.3z"/>
<polygon class="st1" points="548.2,312 486.2,250.3 548.2,188.5 529.3,169.7 448.5,250.3 529.4,330.8 "/>
<g class="st14">
	
		<linearGradient id="SVGID_1_" gradientUnits="userSpaceOnUse" x1="732.9348" y1="175.0024" x2="732.9348" y2="266.8079" gradientTransform="matrix(1 0 0 -1 -114.2798 782.1705)">
		<stop  offset="0" style="stop-color:#808080;stop-opacity:0.25"/>
		<stop  offset="0.5351" style="stop-color:#808080;stop-opacity:0.12"/>
		<stop  offset="1" style="stop-color:#808080;stop-opacity:0.1"/>
	</linearGradient>
	<path class="st15" d="M649,531.8v-16.4h-82v75.8c0,8.8,7.2,16,16,16l0,0h50c8.8,0,16-7.2,16-16l0,0v-16.8
		c11.8,0,21.3-9.6,21.3-21.4C670.2,541.3,660.7,531.8,649,531.8L649,531.8z M649,566.2V540c7.2,0,13.1,5.9,13.1,13.1
		S656.2,566.2,649,566.2z"/>
</g>
<path class="st1" d="M646.4,534.3c-10.7,0-19.5,8.7-19.5,19.5c0,10.7,8.7,19.5,19.5,19.5c10.7,0,19.5-8.7,19.5-19.5
	S657.1,534.3,646.4,534.3z M646.4,565.8c-6.6,0-12-5.4-12-12s5.4-12,12-12s12,5.4,12,12l0,0C658.3,560.4,653,565.8,646.4,565.8z"/>
<path class="st16" d="M646.4,534.3c-10.7,0-19.5,8.7-19.5,19.5c0,10.7,8.7,19.5,19.5,19.5c10.7,0,19.5-8.7,19.5-19.5
	S657.1,534.3,646.4,534.3z M646.4,565.8c-6.6,0-12-5.4-12-12s5.4-12,12-12s12,5.4,12,12l0,0C658.3,560.4,653,565.8,646.4,565.8z"/>
<path class="st1" d="M571.5,519.4h74.8l0,0v74.1c0,5.4-4.4,9.8-9.8,9.8l0,0h-55.3c-5.4,0-9.8-4.4-9.8-9.8l0,0V519.4L571.5,519.4z"/>
<path class="st16" d="M632.9,519.4v69.2c0,8.1-6.5,14.6-14.6,14.6h7.5c8.1,0,14.6-6.5,14.6-14.6v-69.2H632.9z"/>
<path class="st10" d="M586.3,463.6c-1.3,0.2-2.7,0.6-3.3,1.7c-1,1.8,0.8,3.8,2.4,5c3,2.3,6.2,4.5,8.2,7.6s2.7,7.6,0.5,10.6
	c-2.9,3.9-9.9,4.8-10.5,9.7c-0.4,3.1,2.3,5.8,5,7.3c6.7,3.9,15.4,4.9,20.3,10.9c2-4.2,6.5-6.6,11-7.6s9.2-0.9,13.7-1.6
	c1.5-0.2,3.1-0.7,3.8-2c1.3-2.6-2.4-5.7-1.1-8.3c1-2,3.8-1.8,5.8-2.6c3.3-1.3,4.7-5.6,3.8-9s-3.6-6.1-6.4-8.4
	c-7.6-6-16.7-9.5-25.9-12c-4.3-1.2-9.3-3-13.8-3.2C595.5,461.5,590.6,462.8,586.3,463.6z"/>
<path class="st17" d="M-429.3,2667.1c-5.8,0.1-11.7,0.2-17.5,0.2c-139.5,0-314.9-74.5-474.1-177.6c-13.2-8.5-26.2-17.3-39.2-26.2
	l11.3-69.1l343.5-45.6l172.4,131.8L-429.3,2667.1z"/>
<path class="st18" d="M-1248.2,2191.8c31.2,38,64.8,73.9,100.6,107.6h993.9c19.9,0,36.1,16.2,36.1,36.1l1.4,251.9
	c61.1-28.1,118.4-64,170.4-106.7c14.4-11.9,28.4-24.2,41.9-37.1c8.9-8.4,17.5-17,25.9-25.8c63.3-65.9,114.5-142.4,151.3-225.9
	H-1248.2z"/>
<path d="M157.4,2265.6c-8.4,8.8-17.1,17.4-25.9,25.8H-80.1v-25.8H157.4z"/>
<path id="b6132315-04e2-4cdb-a713-107c9cd58b0b_00000075862754188725326600000013168339001245430164_" class="st7" d="M-855.1,160.8
	c59.3-8.1,65.6,46.5,65.6,91.4s-29.9,80.4-65.6,80.4c-35.7,0-64.6-36.5-64.6-81.4S-913.4,168.8-855.1,160.8z"/>
<path class="st8" d="M-917.7,266.6c0,0-5.2-50,9-64c14.2-14.1,24.7-27.6,49.5-29.1c29.3-1.9,42.3-15.3,63.2,36.4
	c4.5,11.1,5.7,29.7,5.7,29.7l4.2-8.5c0,0,0.3-7.3-2.2-24c-2.4-15.4-6-20-8.6-30.5c-6.3-25.2-27.5-40.2-47.8-42.2
	s-46.7,7.4-52.4,12.2c-5.7,4.7-14.2,18.8-14.2,18.8s-13.2,9.4-14.1,15.1c-1,5.7-3.4,25.4-3.4,25.4s3.9,30.2,4.6,35.7
	c0.9,6.9,0.6,16.8,0.6,16.8L-917.7,266.6z"/>
<path class="st19" d="M-367.3,465.1c0.1,91.7-35.3,179.8-98.8,245.9c-3.8,4-7.8,7.9-11.8,11.7c-6.1,5.8-12.5,11.5-19.1,16.9
	c-61.4,50.6-138,79-217.6,80.7c-2.6,0.1-5.3,0.1-8,0.1c-63.4,0-143.2-33.9-215.6-80.8c-6-3.9-11.9-7.9-17.8-11.9
	c-2.8-1.9-5.5-3.8-8.2-5.7c-27.9-19.7-54.4-41.4-79.3-64.8c-16.3-15.3-31.6-31.6-45.8-48.9c-55.6-68.6-67.9-130.4,11.4-143.2
	c9.4-1.5,18.5-3.1,27.3-4.8c12.8-2.5,25.1-5.1,36.8-8c15.8-3.8,30.6-8,44.4-12.5c4.7-1.5,9.2-3,13.7-4.6
	C-890,412.2-846,382.1-816,349.4c5.1-5.5,9.8-11.1,14-16.8c6.6-8.6,12.5-17.7,17.8-27.1c7.3-13.1,13.5-26.9,18.4-41l0.3-0.8
	c23.8-68.7,16.6-132.5,42.9-153.8c112.4-91.2,252.3,38.7,318,191.9c3.3,7.7,6.4,15.5,9.3,23.3c1.3,3.5,2.6,7,3.8,10.5
	c3.2,9.1,6.1,18.3,8.7,27.5c1,3.5,2,7,2.9,10.5c1,3.8,1.9,7.5,2.8,11.3C-370.8,412.3-367.3,439.5-367.3,465.1z"/>
<path class="st18" d="M-714.6,820.3c-2.6,0.1-5.3,0.1-8,0.1c-63.4,0-143.2-33.9-215.6-80.8c-6-3.9-11.9-7.8-17.8-11.9l5.2-31.4
	l156.2-20.7l78.4,60L-714.6,820.3z"/>
<polygon class="st17" points="-798.1,739.6 -798.7,739.6 -798.2,739.6 "/>
<path class="st20" d="M-674.6,424.7l-0.2,1.2l-2.5,13l-17.1,90.2l-1,5.3l-2.1,11.2l-2.9,15.3l-6.4,34l-1.8,9.7l-0.7,3.6l-0.2,1.3
	l-1.9,10.1l-0.6,3l-4.7,34.5l-4.1,30.1l13.6,13.6l-8.1,8.1l-5.3,30.5l0,0.1h-217.5c-8.8-5.7-17.5-11.6-26-17.6l1.8-13.4
	c0,0,6.2-23.9,3.6-26.8c-2.6-2.9-8.2-8-8.2-8l7.1-16.6l1-2.3l-1.7-34.4l0-0.8l-0.5-11.4l-0.1-1.5l-0.1-2.2l-2.1-43.7l0-0.7
	l-0.6-13.2l-0.6-12.6l-0.3-5.3l-2.6-53.1l-1.7-36.1l-1.5-31.4l6.1-2.1l65.4-22.2l27.1-35.2l56.3,0.4l27.6,0.2l46,42.7l10.5,5l0.1,0
	l7.5,3.6l19,9.1l20.1,9.6l10.3,4.9L-674.6,424.7z"/>
<path class="st7" d="M-865.1,637.1c-15.6,6-33.1-1.7-39.2-17.3c-0.6-1.7-1.1-3.4-1.5-5.1l-106.6-15.1l37-41.9l95.5,20.8
	c16.7-2.1,31.9,9.7,34.1,26.4C-843.9,618.8-851.9,632.1-865.1,637.1L-865.1,637.1z"/>
<path class="st20" d="M-912.1,561c-1.6-2.5-4-4.2-6.6-4.9l-36.4-9.1l-3.7-0.9c-4.4-1.1-8.2-4.4-10.4-9.1c-1.2-2.4-1.8-5.1-2-7.9
	c-0.2-2.5,0.1-5.1,0.7-7.5l12.6-45.6l8.2-29.6c1-3.6,1.6-7.3,1.7-11c0.5-10.4-2.2-20.7-7.5-28.9c-9.6-14.8-26.2-20.4-40.8-13.6
	c-0.2,0.1-0.4,0.2-0.6,0.3c-10.3,5-18.2,15.5-21.1,28.4l-8.9,38.9l-18.3,80.1c-7,30.8,8,62.6,33.6,71c2.3,0.8,4.7,1.3,7.1,1.7
	l52.4,7.4l24.3,3.4c5.8,0.8,11.2-3.8,12.4-10.7c0-0.2,0.1-0.4,0.1-0.6l0.6-4.3l4.9-36.4l0-0.4C-909.3,567.8-910.1,563.9-912.1,561z"
	/>
<path class="st7" d="M-799.7,638.3c14.6,3.8,29.1-6.4,32.5-22.7c0.4-1.7,0.6-3.5,0.7-5.3l92.3-30l-38-36.3l-81.8,34
	c-15,0.2-27,14.1-26.8,30.9C-820.8,623.1-812,635.2-799.7,638.3L-799.7,638.3z"/>
<path class="st20" d="M-659.8,513.3l-35.3-113.1c-2.9-9.3-8.1-16.9-14.6-21.4c-2-1.4-4.1-2.5-6.3-3.2c-0.3-0.1-0.7-0.2-1-0.3
	c-4.6-1.4-9.4-1.3-14,0.4c-8.5,3-15.6,10.9-19.6,21.7c0,0,0,0.1-0.1,0.1c-4.5,12.2-4.6,26.6-0.3,38.9l0.4,1.2l25,69.8
	c3.3,9.3,0.6,20.7-6.1,25.3c-0.5,0.3-0.9,0.6-1.4,0.9l-1.8,0.9l-31.5,15.8c-4.9,2.4-7.6,9.9-6,16.8l0.1,0.4l8.8,39.4
	c0,0.2,0.1,0.4,0.1,0.5c0.1,0.3,0.2,0.7,0.3,1c1.9,6.1,6.8,9.3,11.4,7.5l17-6.2l3.5-1.3l43.9-16.1c22.2-8.1,35.4-39.8,29.5-70.6
	C-658.3,518.7-659,516-659.8,513.3L-659.8,513.3z"/>
<path class="st18" d="M-1089.3,608.3c14.2,17.3,29.5,33.6,45.8,48.9h452c9.1,0,16.4,7.4,16.4,16.4l0.7,114.5
	c27.8-12.8,53.8-29.1,77.5-48.5c6.6-5.4,12.9-11,19.1-16.9c4-3.8,8-7.7,11.8-11.7c28.8-30,52.1-64.7,68.8-102.7H-1089.3z"/>
<path class="st18" d="M-466.2,711c-3.8,4-7.8,7.9-11.8,11.7h-96.2V711H-466.2z"/>
<path class="st18" d="M-675.5,335.5c-1-1.8-2.8-2.9-4.9-2.9h-327.8c-3.1,0-5.5,2.5-5.5,5.5v196.2h338.9V338.2
	C-674.9,337.3-675.1,336.3-675.5,335.5z"/>
<path class="st18" d="M-1014.1,529.1v24.2c0,4.2,3.4,7.6,7.6,7.6c0,0,0,0,0,0h125.1v47.8h-1.7c-0.5,0-1,0.4-1,1c0,0,0,0,0,0v3.3
	c0,0.5,0.4,1,1,1c0,0,0,0,0,0h77.7c0.5,0,1-0.4,1-1c0,0,0,0,0,0v-3.3c0-0.5-0.4-1-1-1c0,0,0,0,0,0h-1.7V561h125.1
	c4.2,0,7.6-3.4,7.6-7.6c0,0,0,0,0,0v-24.2H-1014.1z"/>
<circle class="st21" cx="-848.3" cy="428.3" r="31.3"/>
<path class="st12" d="M-859.3,170.6c-6,1.7-11.7,1.1-17.2,4c-6.2,3.3-12.5,7-18.5,11.2c-10.6,2.5-25.5,28.8-28.4,24.8
	c3-13.4,13.4-35.5,29.8-42.8c6.8-3.1,22.3-7,29.6-8.5c1.8,0.5,9.9,3.3,13.2,3.6C-825.9,162.2-840.5,168.8-859.3,170.6z"/>
<path class="st13" d="M-861,163.5c-6,1.7-11.7,1.1-17.2,4c-6.2,3.3-12.5,7-18.5,11.2c-10.6,2.5-25.5,28.8-28.4,24.8
	c2.9-11.4,13.4-35.5,29.8-42.8c6.8-3.1,15.3-4,22.6-5.5c9.7-1.4,19.3-1.1,20.2,0.6C-831.5,162.3-837.2,163.8-861,163.5z"/>
<polygon class="st22" points="-399.7,324.6 -337.8,262.8 -399.7,201.1 -380.8,182.3 -300,262.8 -380.8,343.4 -399.7,324.6 "/>
<rect x="-576.6" y="238.1" class="st22" width="25.2" height="25.2"/>
<rect x="-475.4" y="238.1" class="st22" width="25.2" height="25.2"/>
<rect x="-526" y="238.1" class="st22" width="25.2" height="25.2"/>
<polygon class="st22" points="-610.7,324 -672.7,262.2 -610.7,200.5 -629.6,181.7 -710.4,262.2 -629.6,342.8 "/>
<polygon class="st21" points="-399.7,312.6 -337.8,250.9 -399.7,189.1 -380.8,170.3 -300,250.9 -380.8,331.4 -399.7,312.6 "/>
<path class="st21" d="M-576.6,255.3h25.2v-25.2h-25.2L-576.6,255.3z M-450.2,230.1h-25.2v25.2h25.2V230.1z M-526,255.3h25.2v-25.2
	H-526V255.3z"/>
<polygon class="st21" points="-610.7,312 -672.7,250.3 -610.7,188.5 -629.6,169.7 -710.4,250.3 -629.6,330.8 "/>
<g class="st14">
	
		<linearGradient id="SVGID_00000018203424114056881290000017132333099025299118_" gradientUnits="userSpaceOnUse" x1="-425.9828" y1="175.0024" x2="-425.9828" y2="266.8079" gradientTransform="matrix(1 0 0 -1 -114.2798 782.1705)">
		<stop  offset="0" style="stop-color:#7F7F7F;stop-opacity:0.25"/>
		<stop  offset="0.5351" style="stop-color:#7F7F7F;stop-opacity:0.12"/>
		<stop  offset="1" style="stop-color:#7F7F7F;stop-opacity:0.1"/>
	</linearGradient>
	<path style="fill:url(#SVGID_00000018203424114056881290000017132333099025299118_);" d="M-509.9,531.8v-16.4h-82v75.8
		c0,8.8,7.2,16,16,16l0,0h50c8.8,0,16-7.2,16-16l0,0v-16.8c11.8,0,21.3-9.6,21.3-21.4C-488.7,541.3-498.2,531.8-509.9,531.8
		L-509.9,531.8z M-509.9,566.2V540c7.2,0,13.1,5.9,13.1,13.1S-502.7,566.2-509.9,566.2z"/>
</g>
<path class="st24" d="M-512.5,534.3c-10.7,0-19.5,8.7-19.5,19.5c0,10.7,8.7,19.5,19.5,19.5c10.7,0,19.5-8.7,19.5-19.5
	S-501.8,534.3-512.5,534.3z M-512.5,565.8c-6.6,0-12-5.4-12-12s5.4-12,12-12s12,5.4,12,12l0,0C-500.6,560.4-505.9,565.8-512.5,565.8
	z"/>
<path class="st25" d="M-512.5,534.3c-10.7,0-19.5,8.7-19.5,19.5c0,10.7,8.7,19.5,19.5,19.5c10.7,0,19.5-8.7,19.5-19.5
	S-501.8,534.3-512.5,534.3z M-512.5,565.8c-6.6,0-12-5.4-12-12s5.4-12,12-12s12,5.4,12,12l0,0C-500.6,560.4-505.9,565.8-512.5,565.8
	z"/>
<path class="st21" d="M-587.4,519.4h74.8l0,0v74.1c0,5.4-4.4,9.8-9.8,9.8l0,0h-55.3c-5.4,0-9.8-4.4-9.8-9.8l0,0V519.4L-587.4,519.4z
	"/>
<path class="st25" d="M-526,519.4v69.2c0,8.1-6.5,14.6-14.6,14.6h7.5c8.1,0,14.6-6.5,14.6-14.6v-69.2H-526z"/>
<path class="st26" d="M-572.6,463.6c-1.3,0.2-2.7,0.6-3.3,1.7c-1,1.8,0.8,3.8,2.4,5c3,2.3,6.2,4.5,8.2,7.6s2.7,7.6,0.5,10.6
	c-2.9,3.9-9.9,4.8-10.5,9.7c-0.4,3.1,2.3,5.8,5,7.3c6.7,3.9,15.4,4.9,20.3,10.9c2-4.2,6.5-6.6,11-7.6s9.2-0.9,13.7-1.6
	c1.5-0.2,3.1-0.7,3.8-2c1.3-2.6-2.4-5.7-1.1-8.3c1-2,3.8-1.8,5.8-2.6c3.3-1.3,4.7-5.6,3.8-9s-3.6-6.1-6.4-8.4
	c-7.6-6-16.7-9.5-25.9-12c-4.3-1.2-9.3-3-13.8-3.2C-563.5,461.5-568.4,462.8-572.6,463.6z"/>
<g>
	<defs>
		<path id="SVGID_00000008141490682781358140000006223452140738235036_" d="M-24.8,1517.2c0,244.9,70.2,512.2-441.9,443.5
			c-241.9-32.5-441.9-198.5-441.9-443.5s-56.2-475,441.9-443.5C-223.2,1089.1-24.8,1272.2-24.8,1517.2z"/>
	</defs>
	<use xlink:href="#SVGID_00000008141490682781358140000006223452140738235036_"  style="overflow:visible;fill:#303030;"/>
	<clipPath id="SVGID_00000019668489587137881500000011504656930068894356_">
		<use xlink:href="#SVGID_00000008141490682781358140000006223452140738235036_"  style="overflow:visible;"/>
	</clipPath>
	<polygon style="clip-path:url(#SVGID_00000019668489587137881500000011504656930068894356_);fill:#303030;" points="-266.4,1347.6 
		-193.7,1275.1 -266.4,1202.7 -244.2,1180.6 -149.4,1275.1 -244.2,1369.6 -266.4,1347.6 	"/>
	
		<rect x="-473.9" y="1246.1" style="clip-path:url(#SVGID_00000019668489587137881500000011504656930068894356_);fill:#303030;" width="29.5" height="29.5"/>
	
		<rect x="-355.2" y="1246.1" style="clip-path:url(#SVGID_00000019668489587137881500000011504656930068894356_);fill:#303030;" width="29.5" height="29.5"/>
	
		<rect x="-414.5" y="1246.1" style="clip-path:url(#SVGID_00000019668489587137881500000011504656930068894356_);fill:#303030;" width="29.5" height="29.5"/>
	<polygon style="clip-path:url(#SVGID_00000019668489587137881500000011504656930068894356_);fill:#303030;" points="-513.9,1346.8 
		-586.7,1274.4 -514,1201.9 -536.2,1179.8 -630.9,1274.4 -536.1,1368.9 	"/>
	<polygon style="clip-path:url(#SVGID_00000019668489587137881500000011504656930068894356_);fill:#303030;" points="-266.4,1333.5 
		-193.7,1261.1 -266.4,1188.6 -244.2,1166.6 -149.4,1261.1 -244.2,1355.6 -266.4,1333.5 	"/>
	<path style="clip-path:url(#SVGID_00000019668489587137881500000011504656930068894356_);fill:#303030;" d="M-473.9,1266.3h29.5
		v-29.5h-29.5L-473.9,1266.3z M-325.6,1236.7h-29.5v29.5h29.5V1236.7z M-414.5,1266.3h29.5v-29.5h-29.5V1266.3z"/>
	<polygon style="clip-path:url(#SVGID_00000019668489587137881500000011504656930068894356_);fill:#303030;" points="-513.9,1332.8 
		-586.7,1260.3 -514,1187.9 -536.2,1165.8 -630.9,1260.3 -536.1,1354.9 	"/>
	
		<path id="b6132315-04e2-4cdb-a713-107c9cd58b0b_00000152250028852864264010000009728492771429218694_" style="clip-path:url(#SVGID_00000019668489587137881500000011504656930068894356_);fill:#303030;" d="
		M-733.1,1207.7c130.3-17.9,144.3,102.2,144.3,201.1s-65.8,176.9-144.3,176.9s-142.1-80.2-142.1-179.1S-861.3,1225.3-733.1,1207.7z"
		/>
	<path style="clip-path:url(#SVGID_00000019668489587137881500000011504656930068894356_);fill:#303030;" d="M-870.9,1440.5
		c0,0-11.3-109.9,19.8-140.8c31.2-30.9,54.3-60.6,109-64.1c64.5-4.1,92.9-33.7,139.1,80.1c9.9,24.4,12.5,65.3,12.5,65.3l9.2-18.7
		c0,0,0.7-16-4.9-52.7c-5.2-33.8-13.1-44.1-18.9-67.1c-13.9-55.4-60.4-88.5-105.2-92.8c-44.8-4.3-102.8,16.4-115.2,26.8
		c-12.5,10.4-31.3,41.3-31.3,41.3s-29,20.7-31.1,33.3s-7.4,55.9-7.4,55.9s8.6,66.5,10.1,78.6c1.9,15.2,1.3,37,1.3,37L-870.9,1440.5z
		"/>
	<polygon style="clip-path:url(#SVGID_00000019668489587137881500000011504656930068894356_);fill:#303030;" points="-572.6,2071.6 
		-573.9,2071.6 -572.8,2071.5 	"/>
	<path style="clip-path:url(#SVGID_00000019668489587137881500000011504656930068894356_);fill:#303030;" d="M-336.4,1788.1
		l-0.5,2.6l-5.4,28.7l-37.5,198.4l-2.2,11.7l-4.7,24.7l-6.4,33.7l-14.1,74.7l-4,21.4l-1.5,8l-0.5,2.8l-4.2,22.1l-1.3,6.7l-10.2,75.9
		l-9,66.2l30,30l-17.9,17.9l-11.7,67.1l0,0.2H-916c-19.4-12.5-38.4-25.5-57.2-38.8l3.9-29.5c0,0,13.5-52.6,7.9-58.9
		c-5.7-6.3-18.1-17.5-18.1-17.5l15.7-36.6l2.2-5.1l-3.7-75.7l-0.1-1.8l-1.2-25l-0.2-3.2l-0.2-4.8l-4.6-96.1l-0.1-1.6l-1.4-29.1
		l-1.3-27.7l-0.6-11.7l-5.7-116.8l-3.8-79.3l-3.3-69.1l13.4-4.6l143.7-48.8l59.5-77.4l123.9,0.9l60.6,0.5l101.2,93.9l23,11l0.2,0.1
		l16.5,7.9l41.9,20l44.3,21.2l22.7,10.8L-336.4,1788.1z"/>
	<path style="clip-path:url(#SVGID_00000019668489587137881500000011504656930068894356_);fill:#303030;" d="M-755.2,2255.3
		c-34.3,13.3-72.9-3.7-86.2-38c-1.4-3.7-2.5-7.4-3.3-11.3l-234.3-33.2l81.5-92.1l210,45.7c36.7-4.7,70.2,21.3,74.9,57.9
		C-708.6,2214.9-726.2,2244.3-755.2,2255.3L-755.2,2255.3z"/>
	<path style="clip-path:url(#SVGID_00000019668489587137881500000011504656930068894356_);fill:#303030;" d="M-858.6,2087.8
		c-3.6-5.5-8.7-9.3-14.4-10.7l-80-20l-8.2-2c-9.7-2.4-18-9.7-22.9-19.9c-2.5-5.3-4.1-11.3-4.5-17.4c-0.4-5.6,0.2-11.2,1.6-16.4
		l27.7-100.4l18-65.1c2.2-7.9,3.5-16,3.8-24.3c1-22.9-4.9-45.4-16.6-63.5c-21.1-32.6-57.6-44.8-89.7-30c-0.5,0.2-0.9,0.4-1.4,0.6
		c-22.8,10.9-39.9,34.1-46.3,62.5l-19.5,85.4l-40.3,176.1c-15.5,67.6,17.6,137.6,73.9,156.2c5.1,1.7,10.4,2.9,15.7,3.7l115.3,16.2
		l53.3,7.5c12.8,1.8,24.6-8.4,27.2-23.6c0.1-0.4,0.2-0.8,0.2-1.2l1.3-9.5l10.9-80l0.1-0.8C-852.4,2102.8-854.2,2094.3-858.6,2087.8z
		"/>
	<path style="clip-path:url(#SVGID_00000019668489587137881500000011504656930068894356_);fill:#303030;" d="M-611.5,2257.9
		c32,8.3,64-14,71.4-49.8c0.8-3.8,1.3-7.7,1.5-11.6l203-66l-83.6-79.7l-180,74.9c-33,0.5-59.4,31-58.9,67.9
		C-657.7,2224.4-638.4,2251.1-611.5,2257.9L-611.5,2257.9z"/>
	<path style="clip-path:url(#SVGID_00000019668489587137881500000011504656930068894356_);fill:#303030;" d="M-303.8,1982.9
		l-77.7-248.8c-6.4-20.4-17.7-37.1-32-46.9c-4.4-3-9.1-5.4-13.9-7c-0.7-0.3-1.5-0.5-2.2-0.7c-10.2-3.1-20.7-2.8-30.8,0.8
		c-18.6,6.7-34.3,24-43.2,47.8c0,0.1-0.1,0.2-0.1,0.3c-9.9,26.7-10.1,58.4-0.6,85.4l1,2.7l54.9,153.4c7.3,20.6,1.3,45.5-13.4,55.7
		c-1,0.7-2.1,1.3-3.1,1.9l-3.9,1.9l-69.3,34.9c-10.8,5.4-16.6,21.7-13.2,36.9l0.2,0.8l19.4,86.6c0.1,0.4,0.2,0.8,0.3,1.2
		c0.2,0.7,0.4,1.5,0.6,2.2c4.3,13.3,14.9,20.3,25,16.6l37.4-13.7l7.6-2.8l96.6-35.5c48.7-17.9,77.8-87.4,64.9-155.3
		C-300.4,1994.9-301.9,1988.8-303.8,1982.9L-303.8,1982.9z"/>
	<path style="clip-path:url(#SVGID_00000019668489587137881500000011504656930068894356_);fill:#303030;" d="M-338.4,1592.1
		c-2.1-3.9-6.2-6.4-10.7-6.4H-1070c-6.7,0-12.2,5.5-12.2,12.2v431.5h745.3v-431.5C-336.9,1595.8-337.4,1593.8-338.4,1592.1z"/>
	<path style="clip-path:url(#SVGID_00000019668489587137881500000011504656930068894356_);fill:#303030;" d="M-1082.8,2017.7v53.2
		c0,9.3,7.5,16.8,16.8,16.8c0,0,0,0,0,0h275.1v105.1h-3.7c-1.2,0-2.2,1-2.2,2.2c0,0,0,0,0,0v7.3c0,1.2,1,2.2,2.2,2.2c0,0,0,0,0,0
		h170.8c1.2,0,2.2-1,2.2-2.2c0,0,0,0,0,0v-7.3c0-1.2-1-2.2-2.2-2.2c0,0,0,0,0,0h-3.7v-105.1h275.1c9.3,0,16.8-7.5,16.8-16.8
		c0,0,0,0,0,0v-53.2H-1082.8z"/>
	
		<circle style="clip-path:url(#SVGID_00000019668489587137881500000011504656930068894356_);fill:#303030;" cx="-718.2" cy="1796" r="68.8"/>
	<path style="clip-path:url(#SVGID_00000019668489587137881500000011504656930068894356_);fill:#303030;" d="M-742.6,1229.3
		c-13.1,3.8-25.7,2.4-37.8,8.9c-13.5,7.3-27.4,15.4-40.7,24.6c-23.3,5.6-56.1,63.3-62.4,54.5c6.6-29.4,29.5-78,65.4-94.2
		c14.9-6.8,49.1-15.4,65.2-18.8c4,1.1,21.7,7.3,28.9,8C-668.9,1210.9-701.2,1225.5-742.6,1229.3z"/>
	<path style="clip-path:url(#SVGID_00000019668489587137881500000011504656930068894356_);fill:#303030;" d="M-746.2,1213.8
		c-13.1,3.8-25.7,2.4-37.8,8.9c-13.5,7.3-27.4,15.4-40.7,24.6c-23.3,5.6-56.1,63.3-62.4,54.5c6.3-25.1,29.5-78,65.4-94.2
		c14.9-6.8,33.7-8.8,49.8-12.2c21.3-3,42.4-2.4,44.3,1.4C-681.2,1211.2-693.9,1214.3-746.2,1213.8z"/>
	<g style="opacity:0.7;clip-path:url(#SVGID_00000019668489587137881500000011504656930068894356_);">
		<path class="st19" d="M-235.5,1697.8c-43.1,0.1-77.9,35-78,78c-0.1,43.2,34.8,78.3,78,78.4v61.7l0,0c0,32.4,26.3,58.7,58.7,58.7
			H6.7l0,0c32.4,0,58.7-26.3,58.7-58.7v-278.2h-300.8L-235.5,1697.8L-235.5,1697.8z M-283.6,1776c0-26.6,21.5-48.1,48.1-48.1v96.3
			C-262.1,1824.1-283.6,1802.6-283.6,1776z"/>
	</g>
	<path style="clip-path:url(#SVGID_00000019668489587137881500000011504656930068894356_);fill:#303030;" d="M-297.2,1778.6
		c0,39.4,32,71.4,71.4,71.4c39.4,0,71.4-32,71.4-71.4c0-39.4-32-71.4-71.4-71.4S-297.2,1739.2-297.2,1778.6z M-269.8,1778.6
		L-269.8,1778.6c0-24.3,19.7-43.9,43.9-43.9s43.9,19.7,43.9,43.9c0,24.3-19.7,43.9-43.9,43.9S-269.8,1802.9-269.8,1778.6z"/>
	
		<path style="opacity:0.1;clip-path:url(#SVGID_00000019668489587137881500000011504656930068894356_);fill:#303030;enable-background:new    ;" d="
		M-297.2,1778.6c0,39.4,32,71.4,71.4,71.4c39.4,0,71.4-32,71.4-71.4c0-39.4-32-71.4-71.4-71.4S-297.2,1739.2-297.2,1778.6z
		 M-269.8,1778.6L-269.8,1778.6c0-24.3,19.7-43.9,43.9-43.9s43.9,19.7,43.9,43.9c0,24.3-19.7,43.9-43.9,43.9
		S-269.8,1802.9-269.8,1778.6z"/>
	<path style="clip-path:url(#SVGID_00000019668489587137881500000011504656930068894356_);fill:#303030;" d="M48.8,1652.3v271.8l0,0
		c0,19.8-16,35.8-35.8,35.8H-190l0,0c-19.8,0-35.8-16-35.8-35.8v-271.8l0,0H48.8L48.8,1652.3z"/>
	
		<path style="opacity:0.3;clip-path:url(#SVGID_00000019668489587137881500000011504656930068894356_);fill:#303030;enable-background:new    ;" d="
		M-203.8,1652.3v254c0,29.6,24,53.6,53.6,53.6h27.5c-29.6,0-53.6-24-53.6-53.6v-254H-203.8z"/>
	<path style="clip-path:url(#SVGID_00000019668489587137881500000011504656930068894356_);fill:#303030;" d="M-54.8,1440.6
		c-16.4,0.7-34.8,7.4-50.6,11.7c-33.8,9.3-67.3,22.1-95.1,44c-10.3,8.1-20.1,18-23.6,30.7c-3.5,12.7,1.6,28.4,13.8,33.2
		c7.5,2.9,17.8,2.3,21.3,9.6c4.6,9.5-8.7,20.9-4.1,30.5c2.4,4.9,8.5,6.6,13.9,7.4c16.8,2.6,33.9,2.3,50.5,6
		c16.5,3.8,33.1,12.6,40.5,27.8c17.9-22.2,49.8-26,74.5-40.1c10-5.7,19.9-15.5,18.3-26.9c-2.5-17.8-27.9-20.9-38.6-35.4
		c-8.2-11.1-5.8-27.2,1.7-38.8s19.1-19.7,30.1-28c6-4.5,12.5-11.9,8.9-18.4c-2.3-4.1-7.5-5.4-12.1-6.2
		C-21,1444.9-39,1439.9-54.8,1440.6z"/>
</g>
<g>
	<defs>
		<path id="SVGID_00000152945962809200273390000016451329870607779727_" d="M-24.8,1517.2c0,244.9,70.2,512.2-441.9,443.5
			c-241.9-32.5-441.9-198.5-441.9-443.5s-56.2-475,441.9-443.5C-223.2,1089.1-24.8,1272.2-24.8,1517.2z"/>
	</defs>
	<clipPath id="SVGID_00000091719380428737012640000015593249289432821380_">
		<use xlink:href="#SVGID_00000152945962809200273390000016451329870607779727_"  style="overflow:visible;"/>
	</clipPath>
	<polygon style="clip-path:url(#SVGID_00000091719380428737012640000015593249289432821380_);fill:#191919;" points="-266.4,1347.6 
		-193.7,1275.1 -266.4,1202.7 -244.2,1180.6 -149.4,1275.1 -244.2,1369.6 -266.4,1347.6 	"/>
	
		<rect x="-473.9" y="1246.1" style="clip-path:url(#SVGID_00000091719380428737012640000015593249289432821380_);fill:#191919;" width="29.5" height="29.5"/>
	
		<rect x="-355.2" y="1246.1" style="clip-path:url(#SVGID_00000091719380428737012640000015593249289432821380_);fill:#191919;" width="29.5" height="29.5"/>
	
		<rect x="-414.5" y="1246.1" style="clip-path:url(#SVGID_00000091719380428737012640000015593249289432821380_);fill:#191919;" width="29.5" height="29.5"/>
	<polygon style="clip-path:url(#SVGID_00000091719380428737012640000015593249289432821380_);fill:#191919;" points="-513.9,1346.8 
		-586.7,1274.4 -514,1201.9 -536.2,1179.8 -630.9,1274.4 -536.1,1368.9 	"/>
	<polygon style="clip-path:url(#SVGID_00000091719380428737012640000015593249289432821380_);fill:#B4C738;" points="-266.4,1333.5 
		-193.7,1261.1 -266.4,1188.6 -244.2,1166.6 -149.4,1261.1 -244.2,1355.6 -266.4,1333.5 	"/>
	<path style="clip-path:url(#SVGID_00000091719380428737012640000015593249289432821380_);fill:#B4C738;" d="M-473.9,1266.3h29.5
		v-29.5h-29.5L-473.9,1266.3z M-325.6,1236.7h-29.5v29.5h29.5V1236.7z M-414.5,1266.3h29.5v-29.5h-29.5V1266.3z"/>
	<polygon style="clip-path:url(#SVGID_00000091719380428737012640000015593249289432821380_);fill:#B4C738;" points="-513.9,1332.8 
		-586.7,1260.3 -514,1187.9 -536.2,1165.8 -630.9,1260.3 -536.1,1354.9 	"/>
	
		<path id="b6132315-04e2-4cdb-a713-107c9cd58b0b_00000147929218759175197810000001248774379067003038_" style="clip-path:url(#SVGID_00000091719380428737012640000015593249289432821380_);fill:#FFB6B6;" d="
		M-733.1,1207.7c130.3-17.9,144.3,102.2,144.3,201.1s-65.8,176.9-144.3,176.9s-142.1-80.2-142.1-179.1S-861.3,1225.3-733.1,1207.7z"
		/>
	<path style="clip-path:url(#SVGID_00000091719380428737012640000015593249289432821380_);fill:#735B4E;" d="M-870.9,1440.5
		c0,0-11.3-109.9,19.8-140.8c31.2-30.9,54.3-60.6,109-64.1c64.5-4.1,92.9-33.7,139.1,80.1c9.9,24.4,12.5,65.3,12.5,65.3l9.2-18.7
		c0,0,0.7-16-4.9-52.7c-5.2-33.8-13.1-44.1-18.9-67.1c-13.9-55.4-60.4-88.5-105.2-92.8c-44.8-4.3-102.8,16.4-115.2,26.8
		c-12.5,10.4-31.3,41.3-31.3,41.3s-29,20.7-31.1,33.3s-7.4,55.9-7.4,55.9s8.6,66.5,10.1,78.6c1.9,15.2,1.3,37,1.3,37L-870.9,1440.5z
		"/>
	<polygon style="clip-path:url(#SVGID_00000091719380428737012640000015593249289432821380_);fill:#D0D1BE;" points="-572.6,2071.6 
		-573.9,2071.6 -572.8,2071.5 	"/>
	<path style="clip-path:url(#SVGID_00000091719380428737012640000015593249289432821380_);fill:#5E5E5E;" d="M-336.4,1788.1
		l-0.5,2.6l-5.4,28.7l-37.5,198.4l-2.2,11.7l-4.7,24.7l-6.4,33.7l-14.1,74.7l-4,21.4l-1.5,8l-0.5,2.8l-4.2,22.1l-1.3,6.7l-10.2,75.9
		l-9,66.2l30,30l-17.9,17.9l-11.7,67.1l0,0.2H-916c-19.4-12.5-38.4-25.5-57.2-38.8l3.9-29.5c0,0,13.5-52.6,7.9-58.9
		c-5.7-6.3-18.1-17.5-18.1-17.5l15.7-36.6l2.2-5.1l-3.7-75.7l-0.1-1.8l-1.2-25l-0.2-3.2l-0.2-4.8l-4.6-96.1l-0.1-1.6l-1.4-29.1
		l-1.3-27.7l-0.6-11.7l-5.7-116.8l-3.8-79.3l-3.3-69.1l13.4-4.6l143.7-48.8l59.5-77.4l123.9,0.9l60.6,0.5l101.2,93.9l23,11l0.2,0.1
		l16.5,7.9l41.9,20l44.3,21.2l22.7,10.8L-336.4,1788.1z"/>
	<path style="clip-path:url(#SVGID_00000091719380428737012640000015593249289432821380_);fill:#FFB6B6;" d="M-755.2,2255.3
		c-34.3,13.3-72.9-3.7-86.2-38c-1.4-3.7-2.5-7.4-3.3-11.3l-234.3-33.2l81.5-92.1l210,45.7c36.7-4.7,70.2,21.3,74.9,57.9
		C-708.6,2214.9-726.2,2244.3-755.2,2255.3L-755.2,2255.3z"/>
	<path style="clip-path:url(#SVGID_00000091719380428737012640000015593249289432821380_);fill:#5E5E5E;" d="M-858.6,2087.8
		c-3.6-5.5-8.7-9.3-14.4-10.7l-80-20l-8.2-2c-9.7-2.4-18-9.7-22.9-19.9c-2.5-5.3-4.1-11.3-4.5-17.4c-0.4-5.6,0.2-11.2,1.6-16.4
		l27.7-100.4l18-65.1c2.2-7.9,3.5-16,3.8-24.3c1-22.9-4.9-45.4-16.6-63.5c-21.1-32.6-57.6-44.8-89.7-30c-0.5,0.2-0.9,0.4-1.4,0.6
		c-22.8,10.9-39.9,34.1-46.3,62.5l-19.5,85.4l-40.3,176.1c-15.5,67.6,17.6,137.6,73.9,156.2c5.1,1.7,10.4,2.9,15.7,3.7l115.3,16.2
		l53.3,7.5c12.8,1.8,24.6-8.4,27.2-23.6c0.1-0.4,0.2-0.8,0.2-1.2l1.3-9.5l10.9-80l0.1-0.8C-852.4,2102.8-854.2,2094.3-858.6,2087.8z
		"/>
	<path style="clip-path:url(#SVGID_00000091719380428737012640000015593249289432821380_);fill:#FFB6B6;" d="M-611.5,2257.9
		c32,8.3,64-14,71.4-49.8c0.8-3.8,1.3-7.7,1.5-11.6l203-66l-83.6-79.7l-180,74.9c-33,0.5-59.4,31-58.9,67.9
		C-657.7,2224.4-638.4,2251.1-611.5,2257.9L-611.5,2257.9z"/>
	<path style="clip-path:url(#SVGID_00000091719380428737012640000015593249289432821380_);fill:#5E5E5E;" d="M-303.8,1982.9
		l-77.7-248.8c-6.4-20.4-17.7-37.1-32-46.9c-4.4-3-9.1-5.4-13.9-7c-0.7-0.3-1.5-0.5-2.2-0.7c-10.2-3.1-20.7-2.8-30.8,0.8
		c-18.6,6.7-34.3,24-43.2,47.8c0,0.1-0.1,0.2-0.1,0.3c-9.9,26.7-10.1,58.4-0.6,85.4l1,2.7l54.9,153.4c7.3,20.6,1.3,45.5-13.4,55.7
		c-1,0.7-2.1,1.3-3.1,1.9l-3.9,1.9l-69.3,34.9c-10.8,5.4-16.6,21.7-13.2,36.9l0.2,0.8l19.4,86.6c0.1,0.4,0.2,0.8,0.3,1.2
		c0.2,0.7,0.4,1.5,0.6,2.2c4.3,13.3,14.9,20.3,25,16.6l37.4-13.7l7.6-2.8l96.6-35.5c48.7-17.9,77.8-87.4,64.9-155.3
		C-300.4,1994.9-301.9,1988.8-303.8,1982.9L-303.8,1982.9z"/>
	<path style="clip-path:url(#SVGID_00000091719380428737012640000015593249289432821380_);fill:#90917B;" d="M-338.4,1592.1
		c-2.1-3.9-6.2-6.4-10.7-6.4H-1070c-6.7,0-12.2,5.5-12.2,12.2v431.5h745.3v-431.5C-336.9,1595.8-337.4,1593.8-338.4,1592.1z"/>
	<path style="clip-path:url(#SVGID_00000091719380428737012640000015593249289432821380_);fill:#90917B;" d="M-1082.8,2017.7v53.2
		c0,9.3,7.5,16.8,16.8,16.8c0,0,0,0,0,0h275.1v105.1h-3.7c-1.2,0-2.2,1-2.2,2.2c0,0,0,0,0,0v7.3c0,1.2,1,2.2,2.2,2.2c0,0,0,0,0,0
		h170.8c1.2,0,2.2-1,2.2-2.2c0,0,0,0,0,0v-7.3c0-1.2-1-2.2-2.2-2.2c0,0,0,0,0,0h-3.7v-105.1h275.1c9.3,0,16.8-7.5,16.8-16.8
		c0,0,0,0,0,0v-53.2H-1082.8z"/>
	
		<circle style="clip-path:url(#SVGID_00000091719380428737012640000015593249289432821380_);fill:#B4C738;" cx="-718.2" cy="1796" r="68.8"/>
	<path style="clip-path:url(#SVGID_00000091719380428737012640000015593249289432821380_);fill:#37221E;" d="M-742.6,1229.3
		c-13.1,3.8-25.7,2.4-37.8,8.9c-13.5,7.3-27.4,15.4-40.7,24.6c-23.3,5.6-56.1,63.3-62.4,54.5c6.6-29.4,29.5-78,65.4-94.2
		c14.9-6.8,49.1-15.4,65.2-18.8c4,1.1,21.7,7.3,28.9,8C-668.9,1210.9-701.2,1225.5-742.6,1229.3z"/>
	<path style="clip-path:url(#SVGID_00000091719380428737012640000015593249289432821380_);fill:#29221A;" d="M-746.2,1213.8
		c-13.1,3.8-25.7,2.4-37.8,8.9c-13.5,7.3-27.4,15.4-40.7,24.6c-23.3,5.6-56.1,63.3-62.4,54.5c6.3-25.1,29.5-78,65.4-94.2
		c14.9-6.8,33.7-8.8,49.8-12.2c21.3-3,42.4-2.4,44.3,1.4C-681.2,1211.2-693.9,1214.3-746.2,1213.8z"/>
	<g style="opacity:0.7;clip-path:url(#SVGID_00000091719380428737012640000015593249289432821380_);">
		
			<linearGradient id="SVGID_00000026845094659394605630000010263773137896721046_" gradientUnits="userSpaceOnUse" x1="-25.7023" y1="-1192.3652" x2="-25.7023" y2="-855.4694" gradientTransform="matrix(-1 0 0 -1 -149.8086 782.1705)">
			<stop  offset="0" style="stop-color:#7F7F7F;stop-opacity:0.25"/>
			<stop  offset="0.5351" style="stop-color:#7F7F7F;stop-opacity:0.12"/>
			<stop  offset="1" style="stop-color:#7F7F7F;stop-opacity:0.1"/>
		</linearGradient>
		<path style="fill:url(#SVGID_00000026845094659394605630000010263773137896721046_);" d="M-235.5,1697.8c-43.1,0.1-77.9,35-78,78
			c-0.1,43.2,34.8,78.3,78,78.4v61.7l0,0c0,32.4,26.3,58.7,58.7,58.7H6.7l0,0c32.4,0,58.7-26.3,58.7-58.7v-278.2h-300.8
			L-235.5,1697.8L-235.5,1697.8z M-283.6,1776c0-26.6,21.5-48.1,48.1-48.1v96.3C-262.1,1824.1-283.6,1802.6-283.6,1776z"/>
	</g>
	<path style="clip-path:url(#SVGID_00000091719380428737012640000015593249289432821380_);fill:#939C00;" d="M-297.2,1778.6
		c0,39.4,32,71.4,71.4,71.4c39.4,0,71.4-32,71.4-71.4c0-39.4-32-71.4-71.4-71.4S-297.2,1739.2-297.2,1778.6z M-269.8,1778.6
		L-269.8,1778.6c0-24.3,19.7-43.9,43.9-43.9s43.9,19.7,43.9,43.9c0,24.3-19.7,43.9-43.9,43.9S-269.8,1802.9-269.8,1778.6z"/>
	
		<path style="opacity:0.1;clip-path:url(#SVGID_00000091719380428737012640000015593249289432821380_);fill:#B4C738;enable-background:new    ;" d="
		M-297.2,1778.6c0,39.4,32,71.4,71.4,71.4c39.4,0,71.4-32,71.4-71.4c0-39.4-32-71.4-71.4-71.4S-297.2,1739.2-297.2,1778.6z
		 M-269.8,1778.6L-269.8,1778.6c0-24.3,19.7-43.9,43.9-43.9s43.9,19.7,43.9,43.9c0,24.3-19.7,43.9-43.9,43.9
		S-269.8,1802.9-269.8,1778.6z"/>
	<path style="clip-path:url(#SVGID_00000091719380428737012640000015593249289432821380_);fill:#B4C738;" d="M48.8,1652.3v271.8l0,0
		c0,19.8-16,35.8-35.8,35.8H-190l0,0c-19.8,0-35.8-16-35.8-35.8v-271.8l0,0H48.8L48.8,1652.3z"/>
	
		<path style="opacity:0.3;clip-path:url(#SVGID_00000091719380428737012640000015593249289432821380_);fill:#FFFFFF;enable-background:new    ;" d="
		M-203.8,1652.3v254c0,29.6,24,53.6,53.6,53.6h27.5c-29.6,0-53.6-24-53.6-53.6v-254H-203.8z"/>
	<path style="clip-path:url(#SVGID_00000091719380428737012640000015593249289432821380_);fill:#686868;" d="M-54.8,1440.6
		c-16.4,0.7-34.8,7.4-50.6,11.7c-33.8,9.3-67.3,22.1-95.1,44c-10.3,8.1-20.1,18-23.6,30.7c-3.5,12.7,1.6,28.4,13.8,33.2
		c7.5,2.9,17.8,2.3,21.3,9.6c4.6,9.5-8.7,20.9-4.1,30.5c2.4,4.9,8.5,6.6,13.9,7.4c16.8,2.6,33.9,2.3,50.5,6
		c16.5,3.8,33.1,12.6,40.5,27.8c17.9-22.2,49.8-26,74.5-40.1c10-5.7,19.9-15.5,18.3-26.9c-2.5-17.8-27.9-20.9-38.6-35.4
		c-8.2-11.1-5.8-27.2,1.7-38.8s19.1-19.7,30.1-28c6-4.5,12.5-11.9,8.9-18.4c-2.3-4.1-7.5-5.4-12.1-6.2
		C-21,1444.9-39,1439.9-54.8,1440.6z"/>
</g>
</svg>
