<svg id="abedbff7-18dd-4528-a5af-4293f14f39fb" data-name="acbdcde3-a4fd-43c9-b2e2-23268a62f9b0" xmlns="http://www.w3.org/2000/svg" viewBox="0 0 804.44 798.71"><path id="e1b293e7-5d9b-481e-a459-a85e2d218789" data-name="e9a96f1c-287a-42d8-bbee-a97ef2edbe89" d="M461.67,433.88H459V361.73A41.77,41.77,0,0,0,417.27,320H264.39a41.77,41.77,0,0,0-41.76,41.77h0V757.59a41.77,41.77,0,0,0,41.76,41.77H417.27A41.77,41.77,0,0,0,459,757.59V485.25h2.63Z" transform="translate(0 -2.13)" fill="#e6e6e6"/><path id="ad3242eb-2f3a-4426-b9d5-dac5f0b833e0" data-name="bb6cf65b-d1a0-4b47-beae-738e5a961a87" d="M419,330.83H399a14.82,14.82,0,0,1-13.72,20.41H297.7A14.81,14.81,0,0,1,284,330.83H265.34A31.19,31.19,0,0,0,234.15,362v395.3a31.19,31.19,0,0,0,31.19,31.18H419a31.19,31.19,0,0,0,31.19-31.18h0V362A31.19,31.19,0,0,0,419,330.83Z" transform="translate(0 -2.13)" fill="#fff"/><path d="M295.68,423a6,6,0,0,1-4.43-1.93,7.42,7.42,0,0,1-1.75-5.66,8.6,8.6,0,0,1,2.29-5.16,6.92,6.92,0,0,1,5-2.21,6.22,6.22,0,0,1,4.63,2.05,7.19,7.19,0,0,1,1.79,5.54h0a8.2,8.2,0,0,1-2.48,5.4A7.3,7.3,0,0,1,295.68,423Zm1.1-12.46c-2.44,0-4.54,2.23-4.8,5.09a5,5,0,0,0,1.11,3.76,3.48,3.48,0,0,0,2.59,1.12c2.29,0,4.73-1.58,5-5.1a4.78,4.78,0,0,0-1.14-3.64A3.73,3.73,0,0,0,296.78,410.57Zm5.18,5Z" transform="translate(0 -2.13)" fill="#3f3d56"/><path d="M295.77,430.5A13.65,13.65,0,0,1,282,415.44a16.52,16.52,0,0,1,16.16-14.84c4.49,0,8.18,1.44,10.68,4.17A13.24,13.24,0,0,1,312,415c-.34,3.81-2,5.79-3.25,6.79a5.47,5.47,0,0,1-4.14,1.18c-2-.36-4.32-2.22-4-6.28l.66-7.5a1.25,1.25,0,0,1,1.36-1.12,1.23,1.23,0,0,1,1.12,1.34l-.66,7.5c-.17,2,.54,3.36,1.92,3.61a3,3,0,0,0,2.18-.71c.9-.69,2-2.12,2.29-5a10.63,10.63,0,0,0-2.48-8.35c-2-2.2-5.07-3.36-8.84-3.36a14,14,0,0,0-13.67,12.57,11.09,11.09,0,0,0,9.79,12.28,10.34,10.34,0,0,0,1.47.07,12.5,12.5,0,0,0,5.69-1,1.25,1.25,0,0,1,1,2.3A14.88,14.88,0,0,1,295.77,430.5Z" transform="translate(0 -2.13)" fill="#3f3d56"/><path d="M282.61,608.63a1.25,1.25,0,0,1-1.25-1.25,1.22,1.22,0,0,1,.37-.88l8.1-8.1a1.24,1.24,0,0,1,1.76,1.76l-8.1,8.1A1.26,1.26,0,0,1,282.61,608.63Zm20.56-3.12a1.25,1.25,0,0,1-1.25-1.25,1.23,1.23,0,0,1,.37-.88l6.85-6.85a1.24,1.24,0,0,1,1.76,1.76l-6.85,6.85a1.22,1.22,0,0,1-.88.37Zm-3.74,0a1.22,1.22,0,0,1-.88-.37l-5-5a1.24,1.24,0,1,1,1.75-1.77h0l5,5a1.24,1.24,0,0,1,0,1.76A1.22,1.22,0,0,1,299.43,605.51Z" transform="translate(0 -2.13)" fill="#3f3d56"/><path d="M311.89,598.66a3.12,3.12,0,1,1,3.12-3.12A3.12,3.12,0,0,1,311.89,598.66Zm0-3.74a.62.62,0,1,0,.63.62h0A.63.63,0,0,0,311.89,594.92Z" transform="translate(0 -2.13)" fill="#3f3d56"/><path d="M301.3,609.25a3.12,3.12,0,1,1,3.12-3.12A3.12,3.12,0,0,1,301.3,609.25Zm0-3.74a.63.63,0,1,0,.62.62h0a.62.62,0,0,0-.62-.62Z" transform="translate(0 -2.13)" fill="#3f3d56"/><path d="M292.58,600.53a3.12,3.12,0,1,1,3.11-3.12A3.12,3.12,0,0,1,292.58,600.53Zm0-3.74a.62.62,0,1,0,.62.62h0A.62.62,0,0,0,292.58,596.79Z" transform="translate(0 -2.13)" fill="#3f3d56"/><path d="M280.74,612.36a3.12,3.12,0,1,1,3.11-3.11A3.12,3.12,0,0,1,280.74,612.36Zm0-3.73a.61.61,0,0,0-.62.62.62.62,0,0,0,.62.62.62.62,0,0,0,.62-.62h0A.62.62,0,0,0,280.74,608.63Z" transform="translate(0 -2.13)" fill="#3f3d56"/><path d="M399,708.46H372.83a4.36,4.36,0,0,1-4.36-4.36V685.41a4.36,4.36,0,0,1,4.36-4.36H399a4.36,4.36,0,0,1,4.36,4.36V704.1A4.36,4.36,0,0,1,399,708.46Zm-26.17-24.92a1.88,1.88,0,0,0-1.87,1.87V704.1a1.88,1.88,0,0,0,1.87,1.87H399a1.87,1.87,0,0,0,1.87-1.87V685.41a1.87,1.87,0,0,0-1.87-1.87Z" transform="translate(0 -2.13)" fill="#3f3d56"/><path d="M385.92,697.25a1.26,1.26,0,0,1-.77-.27l-11.21-8.72a1.24,1.24,0,1,1,1.52-2h0l10.45,8.13,10.45-8.13a1.25,1.25,0,1,1,1.53,2h0L386.68,697A1.24,1.24,0,0,1,385.92,697.25Z" transform="translate(0 -2.13)" fill="#3f3d56"/><path d="M526.47,725.71l-144.15.06a.69.69,0,0,1,0-1.38l144.15-.06a.69.69,0,1,1,0,1.38Z" transform="translate(0 -2.13)" fill="#ccc"/><circle cx="524.55" cy="722.89" r="9.65" fill="#6c63ff"/><path d="M523,541l-145.53.06a.69.69,0,1,1,0-1.38l145.53,0a.69.69,0,1,1,0,1.37Z" transform="translate(0 -2.13)" fill="#ccc"/><circle cx="524.55" cy="538.86" r="9.65" fill="#6c63ff"/><path d="M150.44,446.57l145.53.05a.69.69,0,1,0,0-1.37l-145.53-.06a.69.69,0,0,0,0,1.38Z" transform="translate(0 -2.13)" fill="#ccc"/><circle cx="148.91" cy="444.44" r="9.65" fill="#6c63ff"/><path d="M150.44,633.35l145.53.06a.69.69,0,1,0,0-1.38L150.44,632a.69.69,0,0,0,0,1.38Z" transform="translate(0 -2.13)" fill="#ccc"/><circle cx="148.91" cy="631.22" r="9.65" fill="#6c63ff"/><path d="M385.92,725.77a31,31,0,1,1,31-31h0A31,31,0,0,1,385.92,725.77Zm0-60.65a29.64,29.64,0,1,0,29.64,29.63A29.64,29.64,0,0,0,385.92,665.12Z" transform="translate(0 -2.13)" fill="#ccc"/><path d="M296.32,633.41a31,31,0,1,1,31-31A31,31,0,0,1,296.32,633.41Zm0-60.65A29.64,29.64,0,1,0,326,602.39h0a29.66,29.66,0,0,0-29.63-29.63Z" transform="translate(0 -2.13)" fill="#ccc"/><path d="M379.71,541.05a31,31,0,1,1,31-31A31,31,0,0,1,379.71,541.05Zm0-60.65A29.64,29.64,0,1,0,409.35,510,29.64,29.64,0,0,0,379.71,480.4Z" transform="translate(0 -2.13)" fill="#ccc"/><path d="M297,446.57a31,31,0,1,1,31-31h0A31.05,31.05,0,0,1,297,446.57Zm0-60.66a29.64,29.64,0,1,0,29.64,29.64A29.64,29.64,0,0,0,297,385.91Z" transform="translate(0 -2.13)" fill="#ccc"/><path d="M102.36,656.72a7.59,7.59,0,0,1-3-5.43c0-.25,0-.5,0-.75L67.28,628.92a5.87,5.87,0,0,1-2.3-6.66l15.34-38.11a6.68,6.68,0,0,1,12.42,4.94L80.35,620.58l25,22.7a8.31,8.31,0,0,1,1-.15,7.58,7.58,0,0,1,2.05,15,8.07,8.07,0,0,1-1.48.14A7.52,7.52,0,0,1,102.36,656.72Z" transform="translate(0 -2.13)" fill="#a0616a"/><path d="M67.29,606.59a3.31,3.31,0,0,1,.07-2.77l7.32-15a9.22,9.22,0,0,1,17.59,5.53l-2.67,16.5a3.32,3.32,0,0,1-3.81,2.75l-.47-.11-16-5.08A3.34,3.34,0,0,1,67.29,606.59Z" transform="translate(0 -2.13)" fill="#6c63ff"/><polygon points="117.8 789.25 126.25 789.25 130.27 756.65 117.8 756.65 117.8 789.25" fill="#a0616a"/><path d="M115.64,788.62h16.64a10.6,10.6,0,0,1,10.61,10.6h0v.35H115.64Z" transform="translate(0 -2.13)" fill="#2f2e41"/><polygon points="35.17 783.26 43.35 785.36 55.36 754.8 43.28 751.69 35.17 783.26" fill="#a0616a"/><path d="M33.77,782.18l16.12,4.14h0a10.61,10.61,0,0,1,7.63,12.91h0l-.09.34L31,792.79Z" transform="translate(0 -2.13)" fill="#2f2e41"/><circle cx="94.44" cy="548.72" r="16.93" fill="#a0616a"/><path d="M85.88,621.26a61.07,61.07,0,0,1-10.16-13.94,22.52,22.52,0,0,1-1.06-18.25,23,23,0,0,1,13.09-13.34,22.67,22.67,0,0,1,28.68,10.65c4.23,8.29,5.89,16.39,4.93,24.09-1.84,14.71-2.91,22.32-3.2,22.6l-.09.1-31.49,1.4Z" transform="translate(0 -2.13)" fill="#6c63ff"/><path d="M87.75,630.5l28.18-1.41a2.76,2.76,0,0,1,2.88,2.51l13,145.32a2.76,2.76,0,0,1-2.5,3H129l-11-.24a2.74,2.74,0,0,1-2.62-2.09l-21-84.75a2.76,2.76,0,0,0-5.18-.49L49.27,778.92a2.76,2.76,0,0,1-3.2,1.51L35,777.54a2.74,2.74,0,0,1-2-3.23c3.64-17.21,25.48-115.76,53-143A2.68,2.68,0,0,1,87.75,630.5Z" transform="translate(0 -2.13)" fill="#2f2e41"/><path d="M141.11,646.81a7.62,7.62,0,0,1-4.66-4.07c-.1-.23-.19-.46-.27-.7L98.6,632.83a5.87,5.87,0,0,1-4.46-5.46l1.24-41.06a6.69,6.69,0,0,1,13.37.35L108,620.49l31.29,12.68a6.45,6.45,0,0,1,.89-.49h0a7.59,7.59,0,1,1,.94,14.13Z" transform="translate(0 -2.13)" fill="#a0616a"/><path d="M91.37,606.77a3.34,3.34,0,0,1-.86-2.63l1.86-16.56a9.22,9.22,0,0,1,18.43-.7l3,16.44a3.33,3.33,0,0,1-2.66,3.87,4.07,4.07,0,0,1-.49,0l-16.76.59A3.33,3.33,0,0,1,91.37,606.77Z" transform="translate(0 -2.13)" fill="#6c63ff"/><path d="M70.18,573.2,72,567.48l1.21,6.42,9.93-.27,0-6.32,3.77,6.24,9-2a37.15,37.15,0,0,1-5.1-8.18,13.46,13.46,0,0,1-.53-9.62c2.84-7.56,13.61-5.45,19.5-5.51,1.72,0,3.66-.15,4.79-1.55a6,6,0,0,0,.94-4c-.22-7.21-4.55-14.08-10.66-17a16.56,16.56,0,0,0-9.59-1.3A17.45,17.45,0,0,0,90.3,526c-1.38.68-2.83,2.28-4.31,2.23-1.24,0-2.89-1.33-4.25-1.55a13.09,13.09,0,0,0-4.91.17,15.42,15.42,0,0,0-8.32,5c-4.61,5.35-6,13.23-5.17,20.49s3.52,14.09,6.2,20.79" transform="translate(0 -2.13)" fill="#2f2e41"/><path d="M553.47,800.84H.69a.69.69,0,1,1,0-1.38H553.47a.69.69,0,1,1,0,1.38Z" transform="translate(0 -2.13)" fill="#e6e6e6"/><path d="M544.14,792.3a13.29,13.29,0,0,0,4.4-6.62c.56-2.63-.56-5.72-3.07-6.74-2.82-1.08-5.82.87-8.1,2.84s-4.9,4.23-7.89,3.8a12,12,0,0,0,3.68-11.22,4.61,4.61,0,0,0-1-2.29c-1.56-1.67-4.4-1-6.27.36-6,4.19-7.61,12.27-7.64,19.55-.6-2.63-.1-5.37-.11-8s-.76-5.72-3-7.12a9.27,9.27,0,0,0-4.58-1.09c-2.68-.09-5.65.18-7.48,2.13-2.29,2.43-1.69,6.51.29,9.16s5,4.35,7.74,6.2a17.22,17.22,0,0,1,5.54,5.27,5.58,5.58,0,0,1,.41.94h16.76A46.64,46.64,0,0,0,544.14,792.3Z" transform="translate(0 -2.13)" fill="#f2f2f2"/><path d="M369.72,528.26a1.88,1.88,0,0,1-1.87-1.89,1.94,1.94,0,0,1,.16-.75l2.16-4.81a16.13,16.13,0,1,1,6.1,3.4l-5.5,3.72A1.89,1.89,0,0,1,369.72,528.26ZM380.85,495a13.81,13.81,0,0,0-8.61,24.63l.68.54-2.32,5.18,5.32-3.61.53.18a13.82,13.82,0,1,0,4.4-26.92Z" transform="translate(0 -2.13)" fill="#3f3d56"/><circle cx="380.85" cy="505.94" r="2.24" fill="#3f3d56"/><circle cx="374.49" cy="505.94" r="2.24" fill="#3f3d56"/><circle cx="387.2" cy="505.94" r="2.24" fill="#3f3d56"/><path d="M798.71,319.13h-295a5.74,5.74,0,0,1-5.73-5.74V7.87a5.74,5.74,0,0,1,5.73-5.74h295a5.74,5.74,0,0,1,5.73,5.74V313.39A5.74,5.74,0,0,1,798.71,319.13Zm-295-315A3.73,3.73,0,0,0,500,7.87V313.39a3.73,3.73,0,0,0,3.73,3.74h295a3.73,3.73,0,0,0,3.73-3.74V7.87a3.73,3.73,0,0,0-3.73-3.74Z" transform="translate(0 -2.13)" fill="#ccc"/><path d="M706.81,130.54a63.23,63.23,0,1,1-55.6-33.12c.5,0,1,0,1.5,0l-.67-27h-.83a90.18,90.18,0,1,0,77.35,43.77Z" transform="translate(0 -2.13)" fill="#6c63ff"/><path d="M706.81,130.54l21.75-16.35A90.15,90.15,0,0,0,652,70.43l.67,27A63.19,63.19,0,0,1,706.81,130.54Z" transform="translate(0 -2.13)" fill="#e6e6e6"/><rect x="711.63" y="232.1" width="1.57" height="45.01" transform="translate(27.12 572.98) rotate(-44.73)" fill="#3f3d56"/><rect x="684.64" y="61.55" width="45.01" height="1.57" transform="translate(306.86 646.47) rotate(-60.71)" fill="#3f3d56"/><path d="M752,282.94H705.2a3.13,3.13,0,0,1-3.13-3.13v-6.58a3.14,3.14,0,0,1,3.13-3.14H752a3.15,3.15,0,0,1,3.14,3.14v6.58A3.14,3.14,0,0,1,752,282.94Z" transform="translate(0 -2.13)" fill="#6c63ff"/><path d="M740.1,43.26H693.35a3.13,3.13,0,0,1-3.13-3.13V33.55a3.14,3.14,0,0,1,3.13-3.14H740.1a3.15,3.15,0,0,1,3.14,3.14v6.58A3.14,3.14,0,0,1,740.1,43.26Z" transform="translate(0 -2.13)" fill="#e6e6e6"/><path d="M450.82,148H117.45a5.47,5.47,0,0,1-5.46-5.46V8.59a5.47,5.47,0,0,1,5.46-5.46H450.82a5.48,5.48,0,0,1,5.47,5.46v134A5.48,5.48,0,0,1,450.82,148ZM117.45,5.13A3.46,3.46,0,0,0,114,8.59v134a3.46,3.46,0,0,0,3.46,3.46H450.82a3.48,3.48,0,0,0,3.47-3.46V8.59a3.48,3.48,0,0,0-3.47-3.46Z" transform="translate(0 -2.13)" fill="#ccc"/><path d="M247.41,114.76h-32.3a3.49,3.49,0,0,1-3.44-2.92,136.09,136.09,0,0,1,0-41.29,3.5,3.5,0,0,1,3.44-2.93h32.3a3.45,3.45,0,0,1,2.71,1.32,3.52,3.52,0,0,1,.66,3,82.8,82.8,0,0,0,0,38.5,3.51,3.51,0,0,1-.66,3A3.42,3.42,0,0,1,247.41,114.76Z" transform="translate(0 -2.13)" fill="#e6e6e6"/><path d="M355.55,114.76h-32.3a3.48,3.48,0,0,1-3.43-2.92,135.46,135.46,0,0,1,0-41.29,3.49,3.49,0,0,1,3.43-2.93h32.3a3.48,3.48,0,0,1,3.37,4.32,82.93,82.93,0,0,0,0,38.5,3.48,3.48,0,0,1-3.37,4.32Z" transform="translate(0 -2.13)" fill="#e6e6e6"/><path d="M192.47,83.51h-32.3a3.5,3.5,0,0,1-3.44-2.92,136.16,136.16,0,0,1,0-41.3,3.49,3.49,0,0,1,3.44-2.92h32.3a3.42,3.42,0,0,1,2.71,1.32,3.51,3.51,0,0,1,.66,3,82.93,82.93,0,0,0,0,38.5,3.52,3.52,0,0,1-.66,3A3.45,3.45,0,0,1,192.47,83.51Z" transform="translate(0 -2.13)" fill="#6c63ff"/><path d="M301.7,83.51H269.4A3.48,3.48,0,0,1,266,79.19a82.93,82.93,0,0,0,0-38.5,3.48,3.48,0,0,1,3.37-4.32h32.3a3.48,3.48,0,0,1,3.43,2.92,135.52,135.52,0,0,1,0,41.3A3.49,3.49,0,0,1,301.7,83.51Z" transform="translate(0 -2.13)" fill="#6c63ff"/><path d="M408.11,83.51h-32.3a3.48,3.48,0,0,1-3.37-4.32,82.93,82.93,0,0,0,0-38.5,3.48,3.48,0,0,1,3.37-4.32h32.3a3.48,3.48,0,0,1,3.43,2.92,135.52,135.52,0,0,1,0,41.3A3.49,3.49,0,0,1,408.11,83.51Z" transform="translate(0 -2.13)" fill="#ff6584"/></svg>