<?xml version="1.0" encoding="utf-8"?>
<!-- Generator: Adobe Illustrator 25.4.1, SVG Export Plug-In . SVG Version: 6.00 Build 0)  -->
<svg version="1.1" id="a953921f-4c4e-4323-8cfc-8a6ae54c37d9"
	 xmlns="http://www.w3.org/2000/svg" xmlns:xlink="http://www.w3.org/1999/xlink" x="0px" y="0px" viewBox="0 0 950 950"
	 style="enable-background:new 0 0 950 950;" xml:space="preserve">
<style type="text/css">
	.st0{fill:#C0C2A9;}
	.st1{fill:#90917B;}
	.st2{opacity:0.1;fill:#FFFFFF;enable-background:new    ;}
	.st3{fill:#B4C738;}
	.st4{fill:#333333;}
	.st5{fill:#666666;}
	.st6{fill:#191919;}
	.st7{fill:#FFB8B8;}
	.st8{fill:#2F2E41;}
	.st9{fill:#A0616A;}
	.st10{fill:#353535;}
	.st11{fill:#D0D1BE;}
	.st12{opacity:0.7;}
	.st13{fill:url(#SVGID_1_);}
	.st14{fill:#939C00;}
</style>
<path class="st0" d="M498.9,155.9c0,0-57.8,26.9-106.7,44.7c-30.4-68.5-74.1-66-74.1-66l-26.5,18.3l4.8,27.4l-1.3,44.8l-7,23.5
	l10,1.8l5.6,1l0.8-0.8c-1.4,5.6-2,11.3-1.7,17.1l250.8-39.1C553.7,228.5,545,188.1,498.9,155.9z"/>
<path class="st1" d="M303.5,247.9l12.2-3.9c1.3-2.5-1.1-0.9,0.1-3.3c30.8-65.7,2.3-106,2.3-106l-22,15.2c-0.1-0.1-0.1-0.3-0.2-0.4
	c0,0-3.9-8.7-10-2.2c0,0,19.1,46.5-2.2,104.3l24.8,11.3l9.6-11.3l0.2-1.1l-17.1-1.6L303.5,247.9z"/>
<path class="st1" d="M650.6,492c-97.8-21.7-188.9,23.3-188.9,23.3l-0.2-0.2l-36.3-32.4L283.5,251.4l34.6,0.2
	c96.1-57.4,231.3-49.6,231.3-49.6C607.6,268.1,650.6,492,650.6,492z"/>
<path class="st2" d="M461.5,515l-36.3-32.4L283.5,251.4l34.6,0.2C318.1,251.6,455.8,433.5,461.5,515z"/>
<ellipse transform="matrix(0.956 -0.2932 0.2932 0.956 -67.5816 150.147)" class="st3" cx="467" cy="300.5" rx="56.1" ry="35.6"/>
<path class="st4" d="M224.6,807.1c-25,8.8-52.7,3.9-73.2-12.9c-25.6-21.5-33.7-57-40.2-89.8l-19.3-97.1l40.5,27.9
	c29.1,20.1,58.9,40.7,79.1,69.8c20.2,29,29,68.7,12.8,100.1"/>
<path class="st5" d="M221.1,924.6c4.1-29.9,8.3-60.1,5.4-90.3c-2.6-26.8-10.7-53-27.4-74.4c-8.8-11.4-19.6-21.1-31.8-28.8
	c-3.2-2-6.1,3-2.9,5c21.1,13.3,37.4,33,46.6,56.2c10.1,25.8,11.8,53.9,10,81.3c-1.1,16.6-3.3,33-5.6,49.5c-0.4,1.5,0.5,3.1,2,3.6
	C219.1,927.1,220.7,926.2,221.1,924.6L221.1,924.6z"/>
<path class="st4" d="M181.7,871.8c-10.7,16.3-29.1,25.8-48.6,25.1c-24.6-1.2-45.1-18.3-63.6-34.6L14.8,814l36.2-1.7
	c26-1.2,52.7-2.4,77.4,5.6s47.6,27.3,52.1,52.9"/>
<path class="st5" d="M232.7,941.8c-19.7-34.9-42.6-73.7-83.5-86.1c-11.4-3.4-23.3-4.7-35.1-3.6c-3.7,0.3-2.8,6.1,0.9,5.7
	c19.8-1.6,39.6,3.6,56,14.8c15.8,10.8,28.1,25.7,38.5,41.6c6.4,9.7,12.1,19.8,17.8,30C229.2,947.4,234.6,945,232.7,941.8
	L232.7,941.8z"/>
<path class="st4" d="M662.2,655.4L483.4,803.6c-4.7,3.9-11.6,3.2-15.5-1.5l-75.4-91c-3.9-4.7-3.2-11.6,1.5-15.5l178.9-148.2
	c4.7-3.9,11.6-3.2,15.5,1.5l75.4,91C667.5,644.6,666.9,651.5,662.2,655.4z"/>
<path d="M655,650.9L480.3,795.8c-2.4,2-6,1.7-8-0.7l-72-86.9c-2-2.4-1.7-6,0.7-8l174.7-144.8c2.4-2,6-1.7,8,0.7l72,86.9
	C657.8,645.4,657.5,648.9,655,650.9z"/>
<path class="st4" d="M590.9,616.9l-88.4,73.3c-2.3,1.9-5.6,1.6-7.5-0.7c-1.9-2.3-1.6-5.6,0.7-7.5l88.4-73.3c2.3-1.9,5.6-1.6,7.5,0.7
	C593.5,611.6,593.2,615,590.9,616.9L590.9,616.9z"/>
<path class="st4" d="M547.7,623.3L488,672.7c-2.3,1.9-5.6,1.6-7.5-0.7c-1.9-2.3-1.6-5.6,0.7-7.5l0,0l59.6-49.4
	c2.3-1.9,5.6-1.6,7.5,0.7C550.2,618,549.9,621.4,547.7,623.3L547.7,623.3L547.7,623.3z"/>
<circle class="st3" cx="455.3" cy="707.6" r="16.7"/>
<circle class="st6" cx="588" cy="668.8" r="5.3"/>
<circle class="st6" cx="602.4" cy="656.9" r="5.3"/>
<circle class="st6" cx="616.8" cy="645" r="5.3"/>
<polygon class="st7" points="531.7,936.9 544,936.9 549.8,889.6 531.7,889.6 "/>
<path class="st1" d="M528.6,932.9l24.1,0h0c8.5,0,15.4,6.9,15.4,15.4c0,0,0,0,0,0v0.5l-39.5,0L528.6,932.9z"/>
<polygon class="st7" points="487.7,936.9 500,936.9 505.8,889.6 487.7,889.6 "/>
<path class="st1" d="M484.6,932.9l24.1,0h0c8.5,0,15.4,6.9,15.4,15.4c0,0,0,0,0,0v0.5l-39.5,0L484.6,932.9z"/>
<path class="st1" d="M500,922.4L500,922.4l-10.4,0c-2.4,0-4.4-1.9-4.5-4.3l-0.3-9.1c-2.6-72.9-5.4-148.4,11.5-182.3l0.1-0.3l55.9-2
	l11.2,102.9c0.5,4.4,0.3,8.8-0.5,13.2l-14.8,78.1c-0.4,2.2-2.4,3.7-4.6,3.7l-11.7-0.4c-2.5-0.1-4.4-2.2-4.3-4.7c0-0.1,0-0.2,0-0.3
	l9.2-72.3c0.3-3.1,0-6.3-0.8-9.3l-11.4-40c-0.2-0.8-1.1-1.3-1.9-1c-0.6,0.2-1,0.6-1.1,1.2l-17.1,122.9
	C504.1,920.8,502.2,922.4,500,922.4z"/>
<circle class="st7" cx="506.7" cy="597" r="24.6"/>
<path class="st3" d="M549.7,732h-50.8c-2.5,0-4.5-2-4.5-4.5c0-0.2,0-0.4,0-0.7l2.5-17.2l-14.7-40.6c-5.6-15.5,2.4-32.6,17.9-38.2
	c2-0.7,4.1-1.2,6.2-1.5l0,0c12.9-1.8,25.5,5,31,16.8l3.2,6.9l13.7,73.6c0.5,2.4-1.2,4.8-3.6,5.2C550.2,732,549.9,732,549.7,732
	L549.7,732z"/>
<path class="st7" d="M442.4,775.1c5.8-1.3,9.4-7.1,8-12.9c-0.1-0.6-0.3-1.2-0.6-1.8l39.6-89.5l-22.7-5.7L435,755
	c-5.3,2.7-7.4,9.2-4.7,14.5C432.5,774,437.5,776.3,442.4,775.1L442.4,775.1z"/>
<path class="st3" d="M484.1,687l-22-10.3c-2.4-1.1-3.4-4-2.3-6.4c0.1-0.2,0.2-0.4,0.3-0.6l13.4-20.2c3.2-6.7,11.2-9.5,17.8-6.3
	c6.6,3.2,9.5,11.1,6.4,17.7l-6.9,23.2c-0.8,2.5-3.4,4-6,3.2C484.5,687.2,484.3,687.1,484.1,687L484.1,687z"/>
<path class="st7" d="M607.6,544.9c1.8,5.7-1.3,11.7-7,13.5c-0.6,0.2-1.2,0.3-1.8,0.4l-56.6,79.8l-16.5-16.5l60.8-73.3
	c-0.4-6,4.1-11.1,10.1-11.5C601.5,537,606.1,540.1,607.6,544.9L607.6,544.9z"/>
<path class="st3" d="M555.3,629.3c0.2,1.4-0.3,2.8-1.2,3.8l-16.3,17.8c-4.1,6.1-12.5,7.7-18.6,3.6c-6.1-4.1-7.7-12.4-3.6-18.5
	l10.5-21.9c1.2-2.4,4-3.4,6.4-2.3c0.2,0.1,0.4,0.2,0.6,0.4l20.1,13.6C554.4,626.6,555.1,627.9,555.3,629.3z"/>
<path class="st8" d="M539,586.7c0-2.2-0.3-4.4-0.9-6.6c-4-14.6-18.6-23.4-33.2-21.2c-2.9-0.8-5.8-1.2-8.8-1.2l0,0
	c-15.6,0-28.9,11.4-31.2,26.8L453,660.7h64l10.3-66.5c0.4-2.5,0.5-5,0.3-7.5H539z"/>
<path class="st4" d="M656.4,949.3H149c-1.3,0-2.4-1.1-2.4-2.4s1.1-2.4,2.4-2.4h507.4c1.3,0,2.4,1.1,2.4,2.4S657.7,949.3,656.4,949.3
	z"/>
<path class="st9" d="M761.1,268.3c5.5-0.5,10.4,3.5,11,9c0.1,0.6,0.1,1.2,0,1.8l32.7,14.4l-15.6,10.1l-28.7-15.2
	c-5.5-0.8-9.3-6-8.5-11.5C752.7,272.3,756.4,268.8,761.1,268.3L761.1,268.3z"/>
<circle class="st9" cx="893" cy="225.8" r="24.6"/>
<polygon class="st9" points="848.5,576 836.3,576 830.5,528.7 848.6,528.7 "/>
<path class="st1" d="M851.7,587.9l-39.5,0v-0.5c0-8.5,6.9-15.4,15.4-15.4c0,0,0,0,0,0h0l24.1,0L851.7,587.9z"/>
<polygon class="st9" points="899.5,576 887.3,576 881.5,528.7 899.6,528.7 "/>
<path class="st1" d="M902.7,587.9l-39.5,0v-0.5c0-8.5,6.9-15.4,15.4-15.4c0,0,0,0,0,0h0l24.1,0L902.7,587.9z"/>
<path class="st1" d="M899,566c-0.2,0-0.4,0-0.5,0l-17.9-2.2c-2.2-0.3-3.8-2.1-3.9-4.2l-5.2-117.8c0-0.8-0.8-1.5-1.6-1.4
	c-0.6,0-1,0.4-1.3,0.9L855,486l-2.8,71.9c-0.1,2.5-2.2,4.4-4.7,4.3c-0.1,0-0.2,0-0.4,0l-15.5-1.8c-2.3-0.3-4-2.2-4-4.6l1.3-67.7
	l10.5-106.3l0.5,0l64,2.5l-0.6,177.2C903.5,564,901.4,566,899,566z"/>
<path class="st0" d="M901.6,394c0,0-0.1,0-0.1,0l-64.5-1.7c-2.5-0.1-4.4-2.1-4.4-4.6c0-0.2,0-0.3,0-0.5l12.4-91.2
	c1.6-12.5,8.4-23.7,18.7-30.8c9.1-6.3,20.4-8.3,31.1-5.5c22.5,5.7,36,29.9,30.1,53.9l-19,77C905.5,392.6,903.7,394,901.6,394z"/>
<path class="st0" d="M817,321.6c-4.2,0-8.4-1.2-12-3.6l-37.6-24.7c-2.1-1.4-2.7-4.2-1.3-6.2c0.1-0.2,0.3-0.4,0.5-0.6l5.7-6
	c1.3-1.3,3.2-1.8,4.9-1.1l42,16.7l38.9-27.8c7.3-5.2,17.3-3.5,22.5,3.8s3.5,17.3-3.8,22.5c-0.7,0.5-1.5,1-2.3,1.4l-48.1,23.4
	C823.6,320.8,820.3,321.6,817,321.6z"/>
<path class="st8" d="M901.5,249.3c4.2,1,9.2,1.7,12.2-1.3c0.5-0.6,1-1.2,1.4-1.9l3.9-6c3-4.6,6.1-9.3,7.3-14.6
	c3-12.8-4.8-25.6-17.6-28.6c-0.1,0-0.2,0-0.3-0.1c-5.8-1.3-11.6-3.6-17.5-3.1s-13,0.3-18-3c0.3,1.5,2,7.9,2,7.9s-7.5,6.9-9.1,8.6
	c7.2-3.2,15.5,0.1,18.7,7.2c0.5,1.1,0.8,2.3,1,3.5c0.4,2.6,0.2,5.5,1.7,7.7c1.5,2,4.1,2.8,6.4,4c6.7,3.8,9.6,11.9,6.8,19
	L901.5,249.3z"/>
<path class="st4" d="M872,402.8H668.4c-5.3,0-9.6-4.3-9.7-9.7V289.6c0-5.3,4.3-9.6,9.7-9.7H872c5.3,0,9.6,4.3,9.7,9.7v103.5
	C881.7,398.5,877.4,402.8,872,402.8z"/>
<path d="M869.7,395.8H670.8c-2.7,0-5-2.2-5-5v-98.9c0-2.7,2.2-5,5-5h198.9c2.7,0,5,2.2,5,5v98.9
	C874.7,393.5,872.4,395.8,869.7,395.8z"/>
<path class="st4" d="M845.5,336.9H744.8c-2.6,0-4.7-2.1-4.7-4.7s2.1-4.7,4.7-4.7h100.6c2.6,0,4.7,2.1,4.7,4.7S848,336.9,845.5,336.9
	z"/>
<path class="st10" d="M687.8,300.4c-0.8,0.1-1.6,0.3-2,1c-0.6,1.1,0.5,2.3,1.5,3c1.8,1.4,3.7,2.7,4.9,4.6c1.2,1.9,1.6,4.6,0.3,6.4
	c-1.8,2.4-5.9,2.9-6.4,5.8c-0.3,1.9,1.4,3.5,3,4.4c4.1,2.3,9.3,3,12.3,6.6c1.2-2.5,3.9-4,6.7-4.6c2.7-0.6,5.5-0.6,8.3-1
	c0.9-0.1,1.9-0.4,2.3-1.2c0.8-1.6-1.4-3.4-0.7-5c0.6-1.2,2.3-1.1,3.5-1.6c2-0.8,2.8-3.4,2.3-5.5s-2.2-3.7-3.9-5
	c-4.6-3.6-10.1-5.7-15.6-7.2c-2.6-0.7-5.6-1.8-8.3-1.9C693.3,299.2,690.4,300,687.8,300.4z"/>
<path class="st4" d="M812.7,317h-67.9c-2.6,0-4.7-2.1-4.7-4.7s2.1-4.7,4.7-4.7h67.9c2.6,0,4.7,2.1,4.7,4.7S815.3,317,812.7,317z"/>
<circle class="st6" cx="814.5" cy="370.4" r="4.7"/>
<circle class="st6" cx="830.8" cy="370.4" r="4.7"/>
<circle class="st6" cx="847.2" cy="370.4" r="4.7"/>
<path class="st9" d="M868.9,390.5c0.6-5.5,5.6-9.5,11.1-8.9c0.6,0.1,1.2,0.2,1.7,0.3l20.8-29.1l6.7,17.3l-20.8,24.9
	c-1.9,5.2-7.7,7.9-13,6C871,399.5,868.3,395.1,868.9,390.5z"/>
<path class="st0" d="M892.7,388.9c-0.3,0-0.7,0-1,0c-1.3-0.2-2.5-0.9-3.2-2.1l-4.4-7c-1-1.6-0.9-3.6,0.2-5l26.6-36.6l-17.3-44.6
	c-3.2-8.2,0.7-17.4,8.8-20.7l0,0c8.2-3.5,17.7,0.4,21.1,8.6c0.4,1,0.7,2,0.9,3l10.7,52.4c1.5,7.5-1,15.3-6.7,20.5l-33.2,30.3
	C894.6,388.4,893.7,388.8,892.7,388.9z"/>
<path class="st4" d="M948.5,590.3h-211c-0.6,0-1-0.4-1-1s0.4-1,1-1h211c0.6,0,1,0.4,1,1S949.1,590.3,948.5,590.3z"/>
<path class="st4" d="M257.1,181.4H53.5c-5.3,0-9.6-4.3-9.7-9.7V68.2c0-5.3,4.3-9.6,9.7-9.7h203.6c5.3,0,9.6,4.3,9.7,9.7v103.5
	C266.8,177.1,262.4,181.4,257.1,181.4z"/>
<path d="M254.8,174.4H55.9c-2.7,0-5-2.2-5-5V70.6c0-2.7,2.2-5,5-5h198.9c2.7,0,5,2.2,5,5v98.9C259.7,172.2,257.5,174.4,254.8,174.4z
	"/>
<path class="st4" d="M230.6,115.6H129.9c-2.6,0-4.7-2.1-4.7-4.7s2.1-4.7,4.7-4.7h100.6c2.6,0,4.7,2.1,4.7,4.7
	S233.1,115.6,230.6,115.6z"/>
<path class="st4" d="M197.8,95.7h-67.9c-2.6,0-4.7-2.1-4.7-4.7s2.1-4.7,4.7-4.7h67.9c2.6,0,4.7,2.1,4.7,4.7S200.4,95.7,197.8,95.7
	L197.8,95.7z"/>
<circle class="st3" cx="88.3" cy="101" r="14.6"/>
<circle class="st6" cx="199.5" cy="149" r="4.7"/>
<circle class="st6" cx="215.9" cy="149" r="4.7"/>
<circle class="st6" cx="232.3" cy="149" r="4.7"/>
<path class="st7" d="M248.7,48.6c-5.2,1.9-7.9,7.6-6.1,12.9c0.2,0.6,0.4,1.1,0.7,1.6l-23.4,27l18.4,2.4l19.4-26
	c4.6-3.1,5.9-9.4,2.8-14C258,48.6,253.1,47,248.7,48.6z"/>
<path class="st7" d="M92.3,59.5c1.9,5.2-0.8,11-6,12.9c-0.6,0.2-1.1,0.4-1.7,0.5L78.7,108L65.1,95.4l7.6-31.5
	c-0.6-5.6,3.5-10.5,9-11.1C86.4,52.3,90.7,55,92.3,59.5L92.3,59.5z"/>
<polygon class="st7" points="128.9,416 141.2,416 147,368.7 128.9,368.7 "/>
<path class="st1" d="M125.8,412l24.1,0h0c8.5,0,15.4,6.9,15.4,15.4c0,0,0,0,0,0v0.5l-39.5,0L125.8,412z"/>
<polygon class="st7" points="65.9,416 78.2,416 84,368.7 65.9,368.7 "/>
<path class="st1" d="M62.8,412l24.1,0h0c8.5,0,15.4,6.9,15.4,15.4c0,0,0,0,0,0v0.5l-39.5,0L62.8,412z"/>
<circle class="st7" cx="126.3" cy="68.6" r="24.6"/>
<path class="st1" d="M123.4,400.3l-2-129.4c0-0.8-0.7-1.5-1.5-1.5c-0.7,0-1.3,0.5-1.4,1.2L85.1,397.2c-0.5,2.1-2.4,3.5-4.6,3.5
	l-18.3-0.8c-2.5-0.1-4.4-2.2-4.3-4.7c0-0.1,0-0.2,0-0.4l28.2-162.7l0.1-0.5l78.7,3.7l0.5,0l-16.9,165.2c-0.2,2.3-2.1,4.2-4.5,4.2
	h-16.2C125.4,404.8,123.4,402.8,123.4,400.3z"/>
<path class="st11" d="M185.5,246.4L71.4,237c-2.5-0.2-4.3-2.4-4.1-4.9c0-0.4,0.1-0.8,0.3-1.2l18-49.7l1-59
	c0.2-8.9,7.5-16.1,16.5-15.9c0.1,0,0.1,0,0.2,0l7.6-6.9h27.8l2.4,3.2l19.4,3c7.1,1.1,12.6,6.7,13.6,13.8l16.4,121.8
	c0.3,2.5-1.4,4.7-3.9,5.1c-0.2,0-0.4,0-0.6,0C185.8,246.4,185.7,246.4,185.5,246.4z"/>
<path class="st11" d="M163.3,111.4L212,97.1l22-29c1.2-1.6,3.5-2.2,5.4-1.4l13.8,5.9c2.3,1,3.3,3.6,2.4,5.9
	c-0.1,0.2-0.2,0.3-0.3,0.5l-16.5,28.3c-2.7,4.6-6.8,8.3-11.7,10.4l-57.3,25.3L163.3,111.4z"/>
<path class="st11" d="M69.9,132.7c-5.9-4.3-9.2-11.3-8.6-18.6l2.1-28.3c0.2-2.3,2.1-4.2,4.5-4.2h0l16.1,0.1c2.5,0,4.5,2.1,4.5,4.5
	c0,0.3,0,0.6-0.1,0.8l-3,15.3l21.4,9l-18,35L69.9,132.7z"/>
<path class="st8" d="M140.6,39.2c0,0-25.7-13.8-39.7,2.5s5.3,41.8,5.3,41.8l27.5,3.5c0,0,1-18.7,7.6-18.4S168.3,45.4,140.6,39.2z"/>
<path class="st4" d="M212.5,429.3H1.5c-0.6,0-1-0.4-1-1s0.4-1,1-1h211c0.6,0,1,0.4,1,1S213.1,429.3,212.5,429.3z"/>
<g class="st12">
	
		<linearGradient id="SVGID_1_" gradientUnits="userSpaceOnUse" x1="821.6208" y1="445.2829" x2="821.6208" y2="500.6804" gradientTransform="matrix(1 0 0 -1 -114.2798 832.3472)">
		<stop  offset="0" style="stop-color:#7F7F7F;stop-opacity:0.25"/>
		<stop  offset="0.5351" style="stop-color:#7F7F7F;stop-opacity:0.12"/>
		<stop  offset="1" style="stop-color:#7F7F7F;stop-opacity:0.1"/>
	</linearGradient>
	<path class="st13" d="M725.7,341.6v-9.9h-49.5v45.8c0,5.3,4.3,9.6,9.6,9.6l0,0H716c5.3,0,9.6-4.3,9.6-9.6l0,0v-10.1
		c7.1,0,12.8-5.8,12.8-12.9C738.5,347.3,732.7,341.6,725.7,341.6L725.7,341.6z M725.7,362.3v-15.8c4.4,0,7.9,3.5,7.9,7.9
		S730,362.3,725.7,362.3z"/>
</g>
<path class="st2" d="M724.1,343.1c-6.5,0-11.7,5.3-11.7,11.7c0,6.5,5.3,11.7,11.7,11.7c6.5,0,11.7-5.3,11.7-11.7
	C735.8,348.4,730.5,343.1,724.1,343.1z M724.1,362.1c-4,0-7.2-3.2-7.2-7.2c0-4,3.2-7.2,7.2-7.2c4,0,7.2,3.2,7.2,7.2l0,0
	C731.3,358.8,728.1,362.1,724.1,362.1z"/>
<path class="st14" d="M724.1,343.6c-6.2,0-11.2,5-11.2,11.2c0,6.2,5,11.2,11.2,11.2c6.2,0,11.2-5,11.2-11.2S730.3,343.6,724.1,343.6
	z M724.1,361.7c-3.8,0-6.9-3.1-6.9-6.9c0-3.8,3.1-6.9,6.9-6.9c3.8,0,6.9,3.1,6.9,6.9l0,0C731,358.7,727.9,361.7,724.1,361.7z"/>
<path class="st2" d="M724.1,343.6c-6.2,0-11.2,5-11.2,11.2c0,6.2,5,11.2,11.2,11.2c6.2,0,11.2-5,11.2-11.2S730.3,343.6,724.1,343.6z
	 M724.1,361.7c-3.8,0-6.9-3.1-6.9-6.9c0-3.8,3.1-6.9,6.9-6.9c3.8,0,6.9,3.1,6.9,6.9l0,0C731,358.7,727.9,361.7,724.1,361.7z"/>
<path class="st3" d="M678.9,334.1h45.2l0,0v44.7c0,3.2-2.6,5.9-5.9,5.9l0,0h-33.4c-3.2,0-5.9-2.6-5.9-5.9l0,0V334.1L678.9,334.1z"/>
<path class="st2" d="M715.9,334.1v41.8c0,4.9-3.9,8.8-8.8,8.8h4.5c4.9,0,8.8-3.9,8.8-8.8v-41.8H715.9z"/>
</svg>
