<svg id="f596c356-24b9-4281-b58f-a1e57c957340" data-name="fec905af-3345-402f-97ed-aa4ad24ff568" xmlns="http://www.w3.org/2000/svg" xmlns:xlink="http://www.w3.org/1999/xlink" viewBox="0 0 885.19 879.84"><defs><linearGradient id="b0aa709e-73df-4cd6-8910-d8c9c4bf6e83" x1="568.48" y1="282.7" x2="568.48" y2="526.32" gradientTransform="matrix(1, 0, 0, -1, -55.35, 866.09)" gradientUnits="userSpaceOnUse"><stop offset="0" stop-color="#7f7f7f" stop-opacity="0.25"/><stop offset="0.54" stop-color="#7f7f7f" stop-opacity="0.12"/><stop offset="1" stop-color="#7f7f7f" stop-opacity="0.1"/></linearGradient><linearGradient id="a9ac3228-5b3e-41a7-86fa-31b820bbeee2" x1="183.52" y1="-81.38" x2="183.52" y2="202.82" gradientTransform="matrix(1, 0, 0, -1, -59, 797.3)" xlink:href="#b0aa709e-73df-4cd6-8910-d8c9c4bf6e83"/></defs><path d="M145.24,483.83c11.59,47.61,36.11,88.75,74.88,108.69C300.69,634,482.38,612.6,618,588.05c70.13-12.67,131.79-47.69,176.58-97Z" transform="translate(0 0.53)" fill="#acab9e" opacity="0.05"/><path d="M856.34,259.73H781.92a6.18,6.18,0,0,1-.4-12.36h13.26a6.18,6.18,0,0,1-.4-12.36H785.6a6.18,6.18,0,1,1-.41-12.36,2.81,2.81,0,0,1,.41,0h38.83a105.43,105.43,0,0,0-30.33-8c-105.84-13.08-143.65-4.43-157,4.47A151.79,151.79,0,0,1,582.7,242c-65.34,13-187.52,28.55-298.26-5-55-16.67-95.95,11.5-120.47,58.57H869.26c-.92-13.68-3.68-26.32-8.74-37.37A6.59,6.59,0,0,1,856.34,259.73Z" transform="translate(0 0.53)" fill="#acab9e" opacity="0.05"/><path d="M591.13,409.89l-1-.06L580,409.26l-97-5.46-10.48-.59L318,394.53l-43.3-2.44-6.85-.39-6.09-.34-122.85-6.9a302.29,302.29,0,0,0,2.88,83.07l103.38,3.64,8.2.29,1.45.05,49.07,1.71,2.64.08,5.65.2,49.45,1.74,6.78.25,23.62.83h.45l3.47.12,11.84.42h0l10.38.36,19.78.69h.42l1.76.07L442,478h.41L474,479.15l8.83.32h.37l4.26.14h0l.79,0h.31l3.74.13,11.41.4h0l4.29.15,5.51.19h.2l7.56.27,21.85.77,6,.21h.66l29.13,1,16.92.59,21.05.75,3.37.12,5.46.19,19.82.69L795,490.41a294.79,294.79,0,0,0,45.38-66.54ZM310,456a6.53,6.53,0,0,1-4.29-1.58h0a6.5,6.5,0,0,1-1.36-1.64,6,6,0,0,1-.78-3,5.9,5.9,0,0,1,1.06-3.37h0a6.4,6.4,0,0,1,.71-.85,6.52,6.52,0,0,1,4.66-1.93h12.85a6.19,6.19,0,1,1-.57-12.37h-8.61q-.3,0-.6,0a6.17,6.17,0,1,1,.6-12.33h74.4a6.19,6.19,0,0,1,.57,12.36h8.61a6.19,6.19,0,0,1,.57,12.37H384.43a6.18,6.18,0,1,1,.58,12.35,5.61,5.61,0,0,1-.58,0Z" transform="translate(0 0.53)" fill="#acab9e" opacity="0.05"/><path d="M869.29,296l-513.2,12-56.41,1.32L156.1,312.7c-8.68,21.44-14.43,45.68-17.07,70.82H856.79a283.62,283.62,0,0,0,10.36-45.14A205.44,205.44,0,0,0,869.29,296ZM283.8,350.67H270.94a6.34,6.34,0,0,1,6.43,6.18v.38a6.15,6.15,0,0,1-2.85,4.76A6.53,6.53,0,0,1,271,363h-74.4a6.19,6.19,0,0,1-.41-12.37h13.27a6.18,6.18,0,1,1-.4-12.36h-8.78a6.18,6.18,0,1,1-.41-12.36h74.81a6.18,6.18,0,0,1,.4,12.36h8.78a6.61,6.61,0,0,1,3.05.75,6.16,6.16,0,0,1,3.38,5.43,6.32,6.32,0,0,1-6.43,6.18Z" transform="translate(0 0.53)" fill="#acab9e" opacity="0.05"/><g opacity="0.1"><path d="M526.67,588.82s18.83-44.59,54-61.13a74.53,74.53,0,0,0,34.43-32.13,120.7,120.7,0,0,0,8.62-20.84" transform="translate(0 0.53)" fill="#fff" stroke="#535461" stroke-miterlimit="10" stroke-width="2"/><path d="M645.79,464.17c-3.66,4.43-22.63,10.89-22.63,10.89s2.29-19.22,5.93-23.64a11,11,0,0,1,15-1.64,10,10,0,0,1,2.06,14Z" transform="translate(0 0.53)" fill="#fff"/><path d="M639.28,499.24c-5.58,1.8-25.15-2.68-25.15-2.68s12.78-14.94,18.36-16.74A10.75,10.75,0,0,1,646,486.27a10.13,10.13,0,0,1-6.37,12.86Z" transform="translate(0 0.53)" fill="#fff"/><path d="M604,540.69c-5.76-1.14-20.31-14.5-20.31-14.5s18.9-6.71,24.65-5.53a10.25,10.25,0,0,1,8.3,11.88c0,.08,0,.15,0,.23A10.65,10.65,0,0,1,604,540.69Z" transform="translate(0 0.53)" fill="#fff"/><path d="M570,566.28c-5.88-.2-22.57-11-22.57-11s17.43-9.66,23.31-9.47a10.25,10.25,0,1,1-.74,20.48Z" transform="translate(0 0.53)" fill="#fff"/><path d="M595.91,484c.75,5.61,13.49,20.58,13.49,20.58s8.4-17.59,7.65-23.2a10.6,10.6,0,0,0-11.94-8.85A10.32,10.32,0,0,0,595.91,484Z" transform="translate(0 0.53)" fill="#fff"/><path d="M556.49,514.44c2.46,5.13,19.28,15.75,19.28,15.75s2.54-19.19.07-24.33a10.84,10.84,0,0,0-14.13-5,10.08,10.08,0,0,0-5.38,13.21C556.38,514.21,556.43,514.32,556.49,514.44Z" transform="translate(0 0.53)" fill="#fff"/><path d="M522.39,549.05c1.53,5.46,16.24,18.66,16.24,18.66s5.88-18.5,4.35-24a10.72,10.72,0,0,0-13.06-7.25,10.2,10.2,0,0,0-7.6,12.27C522.34,548.85,522.37,549,522.39,549.05Z" transform="translate(0 0.53)" fill="#fff"/><path d="M645.79,464.17c-3.66,4.43-22.63,10.89-22.63,10.89s2.29-19.22,5.93-23.64a11,11,0,0,1,15-1.64,10,10,0,0,1,2.06,14Z" transform="translate(0 0.53)" fill="#fff" opacity="0.25" style="isolation:isolate"/><path d="M639.28,499.24c-5.58,1.8-25.15-2.68-25.15-2.68s12.78-14.94,18.36-16.74A10.75,10.75,0,0,1,646,486.27a10.13,10.13,0,0,1-6.37,12.86Z" transform="translate(0 0.53)" fill="#fff" opacity="0.25" style="isolation:isolate"/><path d="M604,540.69c-5.76-1.14-20.31-14.5-20.31-14.5s18.9-6.71,24.65-5.53a10.25,10.25,0,0,1,8.3,11.88c0,.08,0,.15,0,.23A10.65,10.65,0,0,1,604,540.69Z" transform="translate(0 0.53)" fill="#fff" opacity="0.25" style="isolation:isolate"/><path d="M570,566.28c-5.88-.2-22.57-11-22.57-11s17.43-9.66,23.31-9.47a10.25,10.25,0,1,1-.74,20.48Z" transform="translate(0 0.53)" fill="#fff" opacity="0.25" style="isolation:isolate"/><path d="M595.91,484c.75,5.61,13.49,20.58,13.49,20.58s8.4-17.59,7.65-23.2a10.6,10.6,0,0,0-11.94-8.85A10.32,10.32,0,0,0,595.91,484Z" transform="translate(0 0.53)" fill="#fff" opacity="0.25" style="isolation:isolate"/><path d="M556.49,514.44c2.46,5.13,19.28,15.75,19.28,15.75s2.54-19.19.07-24.33a10.84,10.84,0,0,0-14.13-5,10.08,10.08,0,0,0-5.38,13.21C556.38,514.21,556.43,514.32,556.49,514.44Z" transform="translate(0 0.53)" fill="#fff" opacity="0.25" style="isolation:isolate"/><path d="M522.39,549.05c1.53,5.46,16.24,18.66,16.24,18.66s5.88-18.5,4.35-24a10.72,10.72,0,0,0-13.06-7.25,10.2,10.2,0,0,0-7.6,12.27C522.34,548.85,522.37,549,522.39,549.05Z" transform="translate(0 0.53)" fill="#fff" opacity="0.25" style="isolation:isolate"/></g><g opacity="0.1"><path d="M540.76,521.32s2.38-48.08,29.83-74.88A72,72,0,0,0,592,405.15a117.54,117.54,0,0,0,.95-22.42" transform="translate(0 0.53)" fill="#fff" stroke="#535461" stroke-miterlimit="10" stroke-width="2"/><path d="M610.14,365.71c-1.94,5.34-17.6,17.49-17.6,17.49S588.08,364.39,590,359a10.76,10.76,0,0,1,13.57-6.32,10.16,10.16,0,0,1,6.67,12.72Z" transform="translate(0 0.53)" fill="#fff"/><path d="M616.09,400.9c-4.62,3.48-24.65,5.49-24.65,5.49s6.9-18.17,11.54-21.65a10.94,10.94,0,0,1,15,1.78,10,10,0,0,1-1.41,14Z" transform="translate(0 0.53)" fill="#fff"/><path d="M597.11,451.25c-5.84.76-24.17-7.25-24.17-7.25s15.5-12.33,21.33-13.08a10.6,10.6,0,0,1,12,8.79A10.36,10.36,0,0,1,597.11,451.25Z" transform="translate(0 0.53)" fill="#fff"/><path d="M573.81,486.25c-5.61,1.68-25.08-3.2-25.08-3.2s13.11-14.67,18.73-16.36a10.74,10.74,0,0,1,13.35,6.72,10.18,10.18,0,0,1-6.69,12.75Z" transform="translate(0 0.53)" fill="#fff"/><path d="M569.92,400.37c2.64,5.05,19.84,15.11,19.84,15.11s1.85-19.26-.79-24.32a10.87,10.87,0,0,0-14.31-4.54A10.06,10.06,0,0,0,569.72,400C569.78,400.1,569.85,400.24,569.92,400.37Z" transform="translate(0 0.53)" fill="#fff"/><path d="M543.25,441.63c4.09,4.06,23.62,8.71,23.62,8.71s-4.23-18.91-8.32-23a11,11,0,0,0-15.07-.23,10,10,0,0,0-.63,14.08C543,441.36,543.11,441.5,543.25,441.63Z" transform="translate(0 0.53)" fill="#fff"/><path d="M523,485.14c3.3,4.67,21.76,12.43,21.76,12.43s-.85-19.32-4.15-24a10.94,10.94,0,0,0-14.82-2.63,10,10,0,0,0-3.06,13.81Z" transform="translate(0 0.53)" fill="#fff"/></g><path d="M582.81,403.25s-2-15.63-13-16,1.72,19.39,3,21.17c.76,1,.15,3.91-.48,6.14a44.46,44.46,0,0,0-1.12,4.86,11.4,11.4,0,0,1-2.48,5.62,27.78,27.78,0,0,0-4.42,7.4s-3.23.14-4.41-.66-8.72-3.55-9-3.11c-.07.09-.28.13-.56.13a8.52,8.52,0,0,1-1.32-.17c-.06-.37-.12-.74-.22-1.12,0,0-.93-.4-2-1v-.06h0c.25-.62.41-1.29.66-1.9v-.05h0a2.94,2.94,0,0,1,.84-1.18c1-.82,2.47-.54,3.69-.94l.4-.16.14-.09.23-.12.16-.11.17-.13.16-.14.15-.15.14-.16.14-.16.13-.18.12-.17.11-.19.1-.19.1-.2.09-.2a1.43,1.43,0,0,0,.08-.22.8.8,0,0,1,.08-.21l.06-.21c0-.08,0-.14.05-.22a2,2,0,0,0,.06-.23l0-.21a.66.66,0,0,1,0-.24.5.5,0,0,0,0-.21v-1.24a7.58,7.58,0,0,0-.13-.81c-.3-1.31-.9-2.73-.48-3.91a.5.5,0,0,1,0-.13,1.72,1.72,0,0,1,.2-.38,2.73,2.73,0,0,1,1.09-.9c.38-.2.81-.35,1.2-.52a9.14,9.14,0,0,0,3.81-2.64h0a6.06,6.06,0,0,0,1.32-3,4.66,4.66,0,0,0,0-1.49v-.14h0a14,14,0,0,1-.59-2.64,3.25,3.25,0,0,1,.15-1,4.68,4.68,0,0,1,.18-.48l0-.11c.07-.15.15-.3.23-.45a.56.56,0,0,0,.05-.08l.25-.41.06-.08.3-.44c.24-.35.5-.69.74-1.05h0c.11-.16.22-.33.32-.5h0c.09-.18.19-.35.27-.53v-.09a5.42,5.42,0,0,0,.22-.56l.06-.19c.06-.22.11-.43.15-.66v-.16c0-.2,0-.4.07-.6a.33.33,0,0,1,0-.14v-.87a3.3,3.3,0,0,0,0-.7,18.62,18.62,0,0,0-.43-2.46c-.29-1.18-.79-2.53-1.94-2.85a4.7,4.7,0,0,0-1.79.08,8.57,8.57,0,0,1-5.33-1.35,41.09,41.09,0,0,1-4.51-3.38c-1-.78-2.25-1.56-3.45-1.17a9.2,9.2,0,0,0-1.21.62,1.38,1.38,0,0,1-.27.08,6.71,6.71,0,0,1-1.26.11h-.12c-.37-1.16-.75-2.31-1.19-3.45-1.1-2.88-2.51-5.77-4.89-7.67a19.73,19.73,0,0,0-4.51-2.46c-4.83-2.11-10.14-4.25-15.16-2.74a23,23,0,0,0-6.13,3.29l-8.1,5.54-.61-.19c-1.18-.34-2.41-.55-3.12-.78l-.13,0c-2.28-.85-4.56-2.72-4.61-5.23a5.6,5.6,0,0,1,.11-1.15,19.3,19.3,0,0,1,.75-2.34c.16-.45.3-.9.44-1.36l.13-.49c.08-.29.15-.58.22-.87l.14-.66c.06-.23.09-.46.14-.7s.09-.5.13-.75a.87.87,0,0,1,.05-.35q.15-1.08.21-2.16h0a11.14,11.14,0,0,1,0-1.15v-1.33h0a27,27,0,0,0-4.55-14.31,8.56,8.56,0,0,0-.89,3.51,1.35,1.35,0,0,1-.13.66A.86.86,0,0,1,491,344l0,0a13.44,13.44,0,0,1-.93-1.07,2.27,2.27,0,0,0-2.75-.33,2.51,2.51,0,0,0-1,2.67,10.34,10.34,0,0,0-10.35.66,3.83,3.83,0,0,0-1.79,2.27h0a2.6,2.6,0,0,0,.31,1.83c.56,1.1,1.65,2.09,2.36,3.21a27.61,27.61,0,0,0-4.31,9.31l-.58.72a20.81,20.81,0,0,0-3.72,3,4,4,0,0,0-1.24,3.3L457,382.14s-10.77,14.69-11.87,18c-.22.66-4.62,5.76,2,12s8,6.87,8.93,9c.57,1.23,4.91,3.48,8.42,5.13l1.23.58c-.29,3.65,1.41,7.91,6.55,12.81a8.66,8.66,0,0,1,.15,1.76c0,4.32,1.94,11.48,1.94,11.48s2.74,4.32-.8,7.14-4.35,4.46-2.17,6.76l.07.06-.32,6.49h-.95s-8.57,6-10.35,9.47-5,12.82-5,12.82-.66,9-1.62,10.31,0,6.81,0,6.81-.16,8.48,1.93,10.48,1.46,7,1.46,7a23.31,23.31,0,0,0,.37,3.23c-2.25-.66-6.22-1.1-6.91,4.09a55.47,55.47,0,0,0-.48,11.87s-1.94,8.72-3.39,11.21-4.52,24.55,9.12,20.78a5.88,5.88,0,0,0,3.3-3.39A14.22,14.22,0,0,0,460,576.2c-.05,4.31,1.14,7.95,5.34,7.06,0,0,2.41-.53,3.5-5.61a52.28,52.28,0,0,0,5.93-6.93l3.9-9.72h0l.3-.74,3.62-3.89a97.91,97.91,0,0,0,18.46,3.87,44.57,44.57,0,0,0,5.54.25,42.62,42.62,0,0,0,9.56-.9c5.88.82,16.14,1.49,24.77-1.84,12.91-5,4-16,1.77-18.29s-9.4-9.23-10-9.77v0s1.32-39.9-1.46-41.06-11.94-11-11.94-11l1-6.32s4.52.5,4.68-3.49,0-10,0-10l5.94-10.64s7.18-4.27,10.45-5.71c.17.11.35.23.56.34,3.55,2,11.14,4.26,13.79,3.76,3.56-.66,10.66.89,15.17,1.32s6.59-4.09,6.13-4.61,1.83-5.62,1.83-5.62,4.31-20.84,3.34-24.16S582.81,403.25,582.81,403.25ZM466.87,537c.38.19.77.37,1.17.55a63.65,63.65,0,0,0,6.47,2.29l4,1.5s-6.08.14-9.11.29a8.92,8.92,0,0,1-3.92-1.81A6.77,6.77,0,0,1,466.87,537Zm61-116.43c-.07-.2-.14-.41-.2-.62.55-.14,1.1-.3,1.64-.48-.37.42-.81.91-1.32,1.45C527.92,420.77,527.87,420.66,527.84,420.54Zm-67.91-16.49s2.88-7.1,5.09-12c.09.39.19.78.3,1.16-.09,0-.08-.1.3.89v.06a14.67,14.67,0,0,0,6.07,7.25,13.81,13.81,0,0,0,2.87,1.32v-.1a.61.61,0,0,0,0-.19.24.24,0,0,0,0-.12.6.6,0,0,0,0-.19l0-.09a1.62,1.62,0,0,0-.1-.18l-.06-.07a.47.47,0,0,0-.1-.1l1.36.83.29.17c.47.28.94.53,1.41.79l.35.2,1.7.86.09,0,.71.33,1.12.51a2.09,2.09,0,0,0,1.18.23,2.12,2.12,0,0,0,.71-.38l.22-.17c1.36-1,3.1-1.28,4.66-1.93s3.1-2,3-3.76a3.94,3.94,0,0,0-1.72-2.79c-.89-.66-1.92-1.15-2.82-1.81-1.67-1.23-2.83-3.53-2.31-5.44a3.52,3.52,0,0,1,.15-.42l0-.09a2.79,2.79,0,0,1,.18-.34s0-.07.06-.11a5,5,0,0,1,.75-.84,14.34,14.34,0,0,1,1.18-.87l7.95-5.36c.6-.41,1.2-.81,1.82-1.19h0c.53-.32,1.08-.62,1.64-.89a5.44,5.44,0,0,1,.5-.22l.33-.14c.3-.11.6-.22.91-.31.16,0,.38-.08.65-.12a42.73,42.73,0,0,1-3.39,7.64,6.26,6.26,0,0,0-.62,1.37,1.41,1.41,0,0,0-.07.41,3.9,3.9,0,0,0,.37,1.71c.46,1.24.66,2.16,1.7,2.9a8.36,8.36,0,0,1,.76.58c0,.19-.06.39-.08.59A24.41,24.41,0,0,0,503.49,411l-.26.29a24,24,0,0,1-4.86,4.32c-.21.13-.43.26-.66.38a7.09,7.09,0,0,1-.77-1.68,2.08,2.08,0,0,1-2.64-1.16c-.94-1.84-3.85,0-3.85,0s-6.59-3.83-6.93-2.17a1.71,1.71,0,0,1-.38.7l-.39-.37a39,39,0,0,0-3.64,1.48,4.12,4.12,0,0,1-2.38-1.48c-.66-.85-.48.41-.07,2.69l-.05,0-.77-.29c-4.56-1.67-15.4-6-15.91-9.69Zm74.45,16.59c-.3-.93-1.73-1.65-2.81-2.08a23.71,23.71,0,0,0,12-12.63c.1-.24.19-.49.28-.74.2-.05.39-.08.57-.14a2.8,2.8,0,0,0,1.89-1.39,3.09,3.09,0,0,0,.19-1c0-.8.08-1.6.1-2.4v-.11a59.32,59.32,0,0,0-1.45-14.55l.71.59h0l.82.7a5.1,5.1,0,0,1,.66.65l.11.11q.32.31.6.66l.07.08q.25.33.48.66l.17.26a6.75,6.75,0,0,1,.35.66l.07.13a6,6,0,0,1,.26.71l.06.17a5.84,5.84,0,0,1,.15.66,1.53,1.53,0,0,0,.07.29c0,.22.06.45.09.69v.25c0,.22,0,.44.05.66s0,.28,0,.42a29.67,29.67,0,0,1-2.71,12.88,50.38,50.38,0,0,1-7,11.11,14.83,14.83,0,0,0-2.32,3.4c-.1.24-.18.48-.26.73-1.13-.15-2.88-.47-3.17-1.42Z" transform="translate(0 0.53)" fill="url(#b0aa709e-73df-4cd6-8910-d8c9c4bf6e83)"/><path d="M585.23,414c1,3.29-3.41,24-3.41,24s-2.31,5.08-1.87,5.56-1.65,5-6.26,4.55-11.87-2-15.5-1.32c-2.71.49-10.46-1.72-14.09-3.73-1.23-.66-2-1.35-1.91-1.88.29-2.08,7.21-11.53,7.21-11.53a19.92,19.92,0,0,0,3.16.56c.29,0,.5,0,.58-.12.33-.44,8,2.31,9.23,3.08s4.5.62,4.5.62a28,28,0,0,1,4.51-7.33,11.15,11.15,0,0,0,2.54-5.58,42.72,42.72,0,0,1,1.15-4.82c.66-2.2,1.26-5.05.48-6.08-1.31-1.76-14.28-21.32-3.07-21s13.29,15.83,13.29,15.83S584.24,410.66,585.23,414Z" transform="translate(0 0.53)" fill="#fbbebe"/><path d="M534.68,432.47l-9.23,4-10.72,3.29s-24.56-19.94-18.3-21.42a10.72,10.72,0,0,0,3.09-1.32,24.77,24.77,0,0,0,5-4.28,44.22,44.22,0,0,0,4.31-5.59S533,406,529.24,411.73c-1.48,2.25-1,5.9.18,9.52l.21.66A60.91,60.91,0,0,0,534.68,432.47Z" transform="translate(0 0.53)" fill="#fbbebe"/><path d="M474,543.48s-4.25-4-5.8,2.13a62.92,62.92,0,0,0-1.83,10s-2.35,7.18-3.59,9.15-6,20.31,3.1,18.46c0,0,3.35-.71,4-8.44S476.13,544,476.13,544Z" transform="translate(0 0.53)" fill="#c0c2a9"/><path d="M543.08,557.91c-9.23,3.45-20.27,2.56-26.1,1.71-2.52-.36-4.06-.72-4.06-.72l-28.85-3-.58.61-3.7,3.85-4.29,10.38s-11.54,15.82-12.86,6.42a40,40,0,0,1-.24-6.19c.26-10,2.88-23.31,2.88-23.31l26.21-3.46L508,535.66l.18-8.94,0-2.2.11-5.51,22.42,2.14,4,8.9,0,0c.58.54,8,7.47,10.18,9.69S556.27,553,543.08,557.91Z" transform="translate(0 0.53)" fill="#fbbebe"/><path d="M479.48,561.13s-11.77.5-12.52-1.61l-3.65,8.69s10.71,4.12,12.2,2.56Z" transform="translate(0 0.53)" fill="#b4c738"/><path d="M458.85,534.34s-7.66-3.79-8.65,3.46a53.46,53.46,0,0,0-.49,11.79s-2,8.65-3.46,11.12-4.62,24.34,9.31,20.6c0,0,5.11-1.39,4.28-10.38s2.53-36.43,2.53-36.43Z" transform="translate(0 0.53)" fill="#c0c2a9"/><path d="M501.22,517.19l23.9,21.1s13.84,7.42-2.64,20.11c0,0-7.42,3.13-18.79,2a101,101,0,0,1-20.77-4.45s-8.57-1.32-11.54,3.3-9.56,14.67-9.56,14.67-8.08,16-13.35-3.79l6.76-19.29s.33-6.43,0-7.91,4.45-8.08,6.92-5.94,5.77,5.11,8.57,4.95,9.89-.33,9.89-.33l-4.12-1.48s-11.87-3.3-11-5.77S472,519.83,472,519.83Z" transform="translate(0 0.53)" fill="#fff" stroke="#535461" stroke-miterlimit="10" stroke-width="2" opacity="0.1"/><path d="M521.16,558.4a26.65,26.65,0,0,1-4.18,1.22,46.26,46.26,0,0,1-14.61.76,103,103,0,0,1-18.88-3.84c-1.21-.37-1.89-.61-1.89-.61s-8.57-1.32-11.54,3.3L462.4,571l-1.9,2.9s-8.08,16-13.35-3.79l6.76-19.29s.33-6.43,0-7.91c-.23-1,1.9-4.37,4.07-5.74,1-.66,2-.89,2.85-.2a32.14,32.14,0,0,0,5.28,4,6.27,6.27,0,0,0,3.29.93c2.8-.17,9.89-.33,9.89-.33l-4.12-1.48a63.31,63.31,0,0,1-6.59-2.28c-2.57-1.08-4.81-2.37-4.43-3.49.82-2.48,6.59-14.51,6.59-14.51l29.18-2.64,8.29,7.33,3.55,3.13,12.06,10.64S537.64,545.71,521.16,558.4Z" transform="translate(0 0.53)" fill="#fbbebe"/><path d="M500.39,547.69s-6.26-8.41-21.1-6.1" transform="translate(0 0.53)" fill="#fff" stroke="#535461" stroke-miterlimit="10" stroke-width="2" opacity="0.1"/><path d="M453.25,549.42l-4.78,11s5.27,12.12,15.49,10.31l6.29-11.39S456.06,557.82,453.25,549.42Z" transform="translate(0 0.53)" fill="#fff" opacity="0.1" style="isolation:isolate"/><path d="M452.59,550.08l-4.78,11s5.27,12.12,15.49,10.31L469.59,560S455.4,558.48,452.59,550.08Z" transform="translate(0 0.53)" fill="#b4c738"/><path d="M546.05,442.2a12.88,12.88,0,0,0-2,.77c-1.23-.66-2-1.35-1.91-1.88.28-2.08,7.21-11.53,7.21-11.53a19.72,19.72,0,0,0,3.16.56C553.64,437.42,548.07,441.73,546.05,442.2Z" transform="translate(0 0.53)" fill="#fff" opacity="0.1" style="isolation:isolate"/><path d="M534.68,433.13l-9.23,4-10.72,3.29s-24.56-19.94-18.3-21.43a10.7,10.7,0,0,0,3.09-1.31c3.69,4.85,12.41,9.89,12.41,9.89,7.29,2.63,13.92-2.18,17.49-5.65A60,60,0,0,0,534.68,433.13Z" transform="translate(0 0.53)" fill="#fff" opacity="0.1" style="isolation:isolate"/><path d="M544.73,442.2c-2.14.49-11.87,6.09-11.87,6.09l-6.1,10.55s.17,5.94,0,9.89S522,472.2,522,472.2l-.22.09c-1.18.49-6.72,2.82-6.72,2.87S503.69,474,503.69,474l-22.25-3.63s-7.09-.33-9.4-2.64l-.07-.06c-2.22-2.28-1.38-3.92,2.21-6.69s.83-7.09.83-7.09-2-7.09-2-11.37-2.14-4.13-2.14-4.13-1.49,0,5.11-4.28-.83-24.23,1.48-21.43,6.59,1.32,6.92-.33,7.09,2.14,7.09,2.14,3-1.81,4,0a2.14,2.14,0,0,0,2.63,1.16c1.65,5.44,13.85,12.53,13.85,12.53,10.88,3.95,20.27-8.74,20.27-8.74s3.63,1,4.12,2.48,4.62,1.43,4.62,1.43,4.94.54,5.11,2,4.94,3.46,4.94,3.46C553,436.92,546.87,441.7,544.73,442.2Z" transform="translate(0 0.53)"/><path d="M522,470.88l-.22,1.41c-1.18.49-6.72,2.82-6.72,2.87S503.69,474,503.69,474l-22.25-3.63s-7.09-.33-9.4-2.64l-.07-.06.07-1.25,3.63-.66s35.6,2,40.54,4.28Z" transform="translate(0 0.53)" fill="#fff" opacity="0.1" style="isolation:isolate"/><path d="M534.72,530.09c0,.82,0,1.28,0,1.28s-6.93-10.71-16-5.44a11.65,11.65,0,0,1-7,1.72,10.94,10.94,0,0,1-3.59-.93,14.18,14.18,0,0,1-5-3.76s-15.82,3.3-21.26,7.75-9.89-1.32-9.89-1.32-1.55,6.77-3.48,8.44c-2.57-1.08-4.81-2.37-4.43-3.49.82-2.48,6.59-14.51,6.59-14.51l29.18-2.64,8.29,7.33.11-5.51,22.42,2.14,4,8.9Z" transform="translate(0 0.53)" fill="#fff" opacity="0.1" style="isolation:isolate"/><path d="M475.67,467.09s35.6,2,40.54,4.28l5.77.83-1,6.26s9.4,9.72,12.2,10.88,1.49,40.71,1.49,40.71-6.93-10.71-16-5.44-15.5-3-15.5-3-15.82,3.29-21.26,7.74-9.89-1.32-9.89-1.32-1.81,7.92-4,8.74-2.63,6.1-2.63,6.1-5.94-1.16-5.94-3a4.51,4.51,0,0,0-1.32-3.79c-1.15-1.32-1.31-5.6-1.31-5.6s.65-4.95-1.49-6.93-2-10.38-2-10.38-1-5.44,0-6.76,1.65-10.22,1.65-10.22,3.3-9.23,5.11-12.69,10.55-9.4,10.55-9.4h1l.33-6.43Z" transform="translate(0 0.53)" fill="#b4c738"/><circle cx="515.11" cy="480.47" r="1.04" fill="#c0c2a9"/><circle cx="509.56" cy="504.1" r="1.04" fill="#c0c2a9"/><circle cx="516.87" cy="496.08" r="1.04" fill="#c0c2a9"/><path d="M473.58,475.16h1.31s-7.91,18.13-8.34,13.08S473.58,475.16,473.58,475.16Z" transform="translate(0 0.53)" fill="#fff" opacity="0.1" style="isolation:isolate"/><path d="M483,476.48s-9,13.85-4.61,15.82,8.34-15.16,8.34-15.16Z" transform="translate(0 0.53)" fill="#fff" opacity="0.1" style="isolation:isolate"/><path d="M495,484.47s3.41,21,7.26,25.09-.66,6.92-.66,6.92,13.51,1.21,17.8,2.09,10.88-1,8.24-2.75-.43-20.44-.22-21.32S519,510.71,495,484.47Z" transform="translate(0 0.53)" fill="#fff" opacity="0.1" style="isolation:isolate"/><path d="M480.39,459.78c.77-.33,13.08-17.62,16-16.23S480.39,459.78,480.39,459.78Z" transform="translate(0 0.53)" fill="#fff" opacity="0.1" style="isolation:isolate"/><path d="M481.93,444.5s-4.95,7.59-3.51,8.9S481.93,444.5,481.93,444.5Z" transform="translate(0 0.53)" fill="#fff" opacity="0.1" style="isolation:isolate"/><path d="M488.57,415.82s5,10,3.58,11.87S488.57,415.82,488.57,415.82Z" transform="translate(0 0.53)" fill="#fff" opacity="0.1" style="isolation:isolate"/><path d="M544.78,429.56s-1,5.82-2.3,6S544.78,429.56,544.78,429.56Z" transform="translate(0 0.53)" fill="#fff" opacity="0.1" style="isolation:isolate"/><path d="M521.05,431.43s14,3.41,15.06,4.18S524,436.37,521.05,431.43Z" transform="translate(0 0.53)" fill="#fff" opacity="0.1" style="isolation:isolate"/><path d="M572.48,441.32s-1.76-6.82-4.07-6.71S572.48,441.32,572.48,441.32Z" transform="translate(0 0.53)" fill="#fff" opacity="0.1" style="isolation:isolate"/><path d="M566.39,397c-.86,1.77-2.72,3.19-2.7,5.16a14,14,0,0,0,.66,2.72,5.47,5.47,0,0,1-1.32,4.43,9.34,9.34,0,0,1-3.91,2.64,4.88,4.88,0,0,0-2.34,1.4c-.87,1.25-.12,2.91.24,4.39.57,2.38-.37,5.35-2.7,6.09-1.24.4-2.73.13-3.76.92s-1.13,2.4-1.77,3.58a4.1,4.1,0,0,1-5.37,1.61,4,4,0,0,1,.23-1.79,3.38,3.38,0,0,1-3.77-1.54,4.49,4.49,0,0,1,0-3.95,14.66,14.66,0,0,1,2.36-3.38,49.93,49.93,0,0,0,7.16-11,28.69,28.69,0,0,0,2.76-12.76,9.81,9.81,0,0,0-.74-3.82,9.65,9.65,0,0,0-2.6-3.15c-.55-.47-1.13-.92-1.7-1.37l-1.16-1c-.52-.45-2.56-2.12-2.4-2.92.1-.47,1.48-.4,2.69-.41a6.54,6.54,0,0,0,1.32-.11,1.38,1.38,0,0,0,.27-.08,11,11,0,0,1,1.24-.61c1.23-.38,2.49.39,3.52,1.17a43.26,43.26,0,0,0,4.61,3.34,9,9,0,0,0,5.44,1.32,4.9,4.9,0,0,1,1.83-.08c1.17.31,1.69,1.65,2,2.82C567,392.69,567.33,395,566.39,397Z" transform="translate(0 0.53)" fill="#3f3d56"/><path d="M501.71,380.15c-.25,0-.5.08-.75.13a12.16,12.16,0,0,0-2,.78,29,29,0,0,0-3.3,2l-8.12,5.32a6.61,6.61,0,0,0-2,1.7c-1.38,2-.09,4.92,1.91,6.34.92.66,2,1.12,2.88,1.8a3.92,3.92,0,0,1,1.77,2.76c.1,1.73-1.48,3.08-3.07,3.73s-3.37.91-4.76,1.92a2.89,2.89,0,0,1-.95.54,2.16,2.16,0,0,1-1.2-.23,50.73,50.73,0,0,1-7.18-3.7,1,1,0,0,1,.3,1,14.31,14.31,0,0,1-9.48-17.89,14.54,14.54,0,0,1,1.3-3,41.82,41.82,0,0,0,2.64-4.31,5.27,5.27,0,0,0,0-4.84c-.66-1-1.82-1.65-2.16-2.77a3.85,3.85,0,0,1,1.23-3.4c1.91-2,4.54-3.16,6.64-5s3.69-4.8,2.5-7.3c-.95-2-3.5-3.45-3.07-5.6a3.82,3.82,0,0,1,1.83-2.28,10.85,10.85,0,0,1,10.54-.66,2.44,2.44,0,0,1,1-2.63,2.36,2.36,0,0,1,2.81.32A13.31,13.31,0,0,0,492,346a.91.91,0,0,0,1.26-.05,1.18,1.18,0,0,0,.14-.66,8.45,8.45,0,0,1,.91-3.49,26.48,26.48,0,0,1,3.12,23.94,9.45,9.45,0,0,0-.88,3.46c.08,2.49,2.4,4.33,4.74,5.18l.12,0c.73.23,2,.44,3.19.77,1.6.45,3.14,1.12,3.3,2.38C508.24,379.62,503.79,379.87,501.71,380.15Z" transform="translate(0 0.53)" fill="#3f3d56"/><path d="M467.75,389.34c-1.2,1.32-7.47,16.15-7.47,16.15.52,3.63,11.59,7.95,16.28,9.62,1.27.46,2.07.71,2.07.71l4.51,4s-4.62,25.49-5,19.23-8.53-9.45-8.53-9.45-2.14-.87-4.69-2.05c-3.59-1.65-8-3.87-8.58-5.09-1-2.09-2.3-2.75-9.12-8.91s-2.31-11.2-2.08-11.86c1.09-3.3,12.08-17.85,12.08-17.85l15.91-19.41s4.39-18,15.43-11S476,377.25,476,377.25,469,388,467.75,389.34Z" transform="translate(0 0.53)" fill="#fbbebe"/><path d="M483.14,419.78s-4.62,25.49-5,19.23-8.53-9.45-8.53-9.45-2.14-.87-4.69-2.05c.82-5.85,6.9-10,11.63-12.4,1.27.46,2.07.71,2.07.71Z" transform="translate(0 0.53)" fill="#fff" opacity="0.1" style="isolation:isolate"/><path d="M488.46,417.1l-4.84-4.41s-31.26,9.89-10.16,28.63h8.89l8.15-10.83Z" transform="translate(0 0.53)"/><path d="M529.4,421.22l.21.66a23.75,23.75,0,0,1-25.14-9.2,44.84,44.84,0,0,0,4.31-5.58S533,406,529.22,411.71C527.76,414,528.26,417.6,529.4,421.22Z" transform="translate(0 0.53)" fill="#fff" opacity="0.1" style="isolation:isolate"/><path d="M547.53,398.2a23.65,23.65,0,1,1,0-.19Z" transform="translate(0 0.53)" fill="#fbbebe"/><path d="M547.53,398.2a23.71,23.71,0,0,1-1.85,9.18,10.76,10.76,0,0,1-4,.07,2.41,2.41,0,0,1-1.43-.66,2.52,2.52,0,0,1-.48-1.32c-.25-1.46-.5-2.92-.74-4.38a7.9,7.9,0,0,1-6.6-.9c-2-1.12-3.71-2.68-5.64-4a9.13,9.13,0,0,0-6.49-1.76,10.88,10.88,0,0,0-3.46,1.45,24.39,24.39,0,0,0-5.94,4.44c-1.2,1.32-2.25,2.9-3.91,3.5a4.13,4.13,0,0,1-5.16-2.63,23.82,23.82,0,0,1-.26-3.79,2.94,2.94,0,0,0-1.26-2.19,23.74,23.74,0,0,1,47.3,2.92Z" transform="translate(0 0.53)" fill="#fff" opacity="0.1" style="isolation:isolate"/><path d="M501.49,396.81a23.7,23.7,0,0,0,.26,3.78,4.14,4.14,0,0,0,5.16,2.64c1.66-.6,2.71-2.2,3.91-3.5a24.14,24.14,0,0,1,5.94-4.44,11.13,11.13,0,0,1,3.46-1.46,9.29,9.29,0,0,1,6.49,1.77c1.93,1.25,3.64,2.82,5.65,4a7.82,7.82,0,0,0,6.59.9l.74,4.38a2.65,2.65,0,0,0,.48,1.32,2.47,2.47,0,0,0,1.43.66,10.6,10.6,0,0,0,4.91-.29,2.81,2.81,0,0,0,1.93-1.37,3,3,0,0,0,.19-1,57.1,57.1,0,0,0-3.81-24.71c-1.12-2.86-2.56-5.73-5-7.61a20.16,20.16,0,0,0-4.61-2.44c-4.94-2.09-10.37-4.22-15.52-2.72a23.11,23.11,0,0,0-6.25,3.29l-9.24,6.13a5.47,5.47,0,0,0-1.31,1.09,6.22,6.22,0,0,0-1,2.17,41.89,41.89,0,0,1-3.78,8.49,4.24,4.24,0,0,0-.72,1.76,4.15,4.15,0,0,0,.39,1.7c.47,1.23.66,2.15,1.74,2.87S501.32,395.38,501.49,396.81Z" transform="translate(0 0.53)" fill="#3f3d56"/><g opacity="0.1"><path d="M489,402.68c-1.58.66-3.37.91-4.76,1.92a2.64,2.64,0,0,1-.95.54,2,2,0,0,1-1.2-.23,49.8,49.8,0,0,1-7.25-3.76,1,1,0,0,1,.4,1.1,14.53,14.53,0,0,1-9.15-8.46c-.53-1.35.09,1.44,0,0-.15,2.1-.77,0,0,2a14.54,14.54,0,0,0,9.12,8.45,1,1,0,0,0-.39-1.1,47.93,47.93,0,0,0,7.25,3.77,2.16,2.16,0,0,0,1.2.23,2.89,2.89,0,0,0,.95-.54c1.39-1,3.17-1.27,4.76-1.92s3.17-2,3.07-3.73a2.7,2.7,0,0,0-.19-.83A5.11,5.11,0,0,1,489,402.68Z" transform="translate(0 0.53)"/><path d="M496.55,367.23a4.05,4.05,0,0,0,.12.84,17,17,0,0,1,.75-2.32A25.77,25.77,0,0,0,499,356a25.54,25.54,0,0,1-1.53,7.78A9.44,9.44,0,0,0,496.55,367.23Z" transform="translate(0 0.53)"/><path d="M551.46,389.64c-.88-1.89-2.56-3.15-4.17-4.43.18.78.35,1.58.5,2.37a11.73,11.73,0,0,1,3.67,4,9.6,9.6,0,0,1,.74,3.62v-1.79A9.76,9.76,0,0,0,551.46,389.64Z" transform="translate(0 0.53)"/><path d="M477.6,355.26c.2-1,.72-.55.29-1.47-.72-1.49-2.34-2.69-2.92-4.11a2.13,2.13,0,0,0-.15.49c-.43,2.15,1.83,3.1,2.78,5.09C477.74,355.54,477,353.85,477.6,355.26Z" transform="translate(0 0.53)"/><path d="M501.61,378.19a3.82,3.82,0,0,0-.66.12,18.81,18.81,0,0,0-5.33,2.73l-8.12,5.31a6.73,6.73,0,0,0-2,1.7,3.61,3.61,0,0,0-.44,2.95,3.15,3.15,0,0,1,.44-1,6.73,6.73,0,0,1,2-1.7l8.12-5.32a19.52,19.52,0,0,1,5.19-2.68C501.09,379.62,501.36,378.9,501.61,378.19Z" transform="translate(0 0.53)"/><path d="M564.31,404.69a6.05,6.05,0,0,1-1.27,2.59,9.34,9.34,0,0,1-3.91,2.64,4.9,4.9,0,0,0-2.35,1.41,3,3,0,0,0-.25,2.48,2,2,0,0,1,.25-.51,4.81,4.81,0,0,1,2.35-1.4,9.34,9.34,0,0,0,3.91-2.64,5.5,5.5,0,0,0,1.32-4.43A.24.24,0,0,0,564.31,404.69Z" transform="translate(0 0.53)"/><path d="M566.39,395c-.86,1.77-2.72,3.19-2.7,5.16a4.08,4.08,0,0,0,.15,1c.46-1.49,1.84-2.71,2.55-4.16a7.28,7.28,0,0,0,.53-4A6,6,0,0,1,566.39,395Z" transform="translate(0 0.53)"/><path d="M540.21,406.13a2.35,2.35,0,0,0,1.43.66,10.73,10.73,0,0,0,4.91-.28,2.86,2.86,0,0,0,1.93-1.38,3,3,0,0,0,.19-1c.12-1.62.15-3.24.12-4.86,0,1,0,1.92-.12,2.89a3.13,3.13,0,0,1-.19,1,2.87,2.87,0,0,1-1.93,1.37,10.73,10.73,0,0,1-4.91.28,2.35,2.35,0,0,1-1.43-.66,2.52,2.52,0,0,1-.48-1.32c-.25-1.46-.5-2.92-.74-4.37a7.94,7.94,0,0,1-6.6-.91c-2-1.12-3.71-2.68-5.64-3.95a9.09,9.09,0,0,0-6.49-1.77,10.68,10.68,0,0,0-3.46,1.46,24.1,24.1,0,0,0-5.94,4.43c-1.2,1.32-2.25,2.91-3.91,3.51a4.14,4.14,0,0,1-5.16-2.64,23.82,23.82,0,0,1-.26-3.79c-.17-1.43-.89-2-2-2.69s-1.26-1.64-1.74-2.87l-.18-.5a2.64,2.64,0,0,0-.2.78,4,4,0,0,0,.38,1.7c.48,1.23.66,2.15,1.74,2.87a3.5,3.5,0,0,1,2,2.69,23.82,23.82,0,0,0,.26,3.79A4.13,4.13,0,0,0,507,403.2c1.66-.6,2.71-2.19,3.91-3.5a24.39,24.39,0,0,1,5.94-4.44,10.88,10.88,0,0,1,3.46-1.45,9.29,9.29,0,0,1,6.49,1.76c1.93,1.25,3.64,2.82,5.64,4a7.85,7.85,0,0,0,6.6.9c.24,1.46.49,2.92.74,4.38A2.52,2.52,0,0,0,540.21,406.13Z" transform="translate(0 0.53)"/><path d="M554.33,421.8c-1.25.4-2.74.13-3.76.93s-1.14,2.39-1.78,3.58a4.09,4.09,0,0,1-5.36,1.6,4,4,0,0,1,.23-1.79,3.38,3.38,0,0,1-3.77-1.53,3.54,3.54,0,0,1-.33-.87,4,4,0,0,0,.33,2.84,3.37,3.37,0,0,0,3.77,1.54,2.81,2.81,0,1,0,5.13.18c.66-1.18.71-2.75,1.78-3.58s2.51-.52,3.76-.92c2.2-.7,3.15-3.38,2.78-5.68A4.39,4.39,0,0,1,554.33,421.8Z" transform="translate(0 0.53)"/></g><path d="M504.6,375.2a23.57,23.57,0,0,1-2.89,4.95c-.25,0-.5.08-.75.13a12.16,12.16,0,0,0-2,.78,41.43,41.43,0,0,1,2.48-6.64C502.14,374.66,503.38,374.87,504.6,375.2Z" transform="translate(0 0.53)" fill="#b4c738"/><path d="M548.86,388.47c-.54-.48-1.12-.93-1.69-1.38-.33-1.32-.66-2.9-.88-4.3a6.42,6.42,0,0,0,1.32-.11A18,18,0,0,1,548.86,388.47Z" transform="translate(0 0.53)" fill="#b4c738"/><polygon points="878.34 879.84 0.21 879.84 0.21 877.67 878.73 877.67 878.34 879.84" fill="#c0c2a9"/><path d="M794.9,569.86q16.07,16.85,35.84,5.37c-5.53-8.86-6.85-18.51-5.38-28.67H799.68C800.82,555.49,800.51,563.8,794.9,569.86Z" transform="translate(0 0.53)" fill="#cb9393"/><polygon points="837.31 864.26 851.05 857.1 857.02 781.24 857.02 741.22 825.36 740.62 834.32 780.64 837.31 864.26" fill="#cb9393"/><polygon points="797.49 864.26 783.75 857.1 777.78 781.24 777.78 741.22 809.43 740.62 800.47 780.64 797.49 864.26" fill="#cb9393"/><path d="M776.39,749.05l33.44-3,5.38-30.46,6.57,29.87,36.44-2.39a127.46,127.46,0,0,0-6-44.8l-80-1.79Z" transform="translate(0 0.53)" fill="#90917b"/><path d="M741.62,634.64l-40.24-31a5.72,5.72,0,0,0-1.36-.78l-5.85-2.38c-4.7-1.91-13.64-8.27-9.28-14.81,3.52-5.28,17,4.17,18.64,7.67A5.76,5.76,0,0,0,706,596l8.18,4.48a4.85,4.85,0,0,0,.61.29l31.13,12.62a5.87,5.87,0,0,0,5.34-.48l5.64-3.58A5.86,5.86,0,0,1,765,611.1a6.25,6.25,0,0,1,.8,2l1.86,9.42a5.83,5.83,0,0,1-3.66,6.6l-16.69,6.37A5.84,5.84,0,0,1,741.62,634.64Z" transform="translate(0 0.53)" fill="#cb9393"/><path d="M749.09,612.07c11.14-3,10,12.58,18.47,20.23l16.71-13.19-9.68-46.86h0a17.4,17.4,0,0,0-11.47,10.5Z" transform="translate(0 0.53)" fill="#b4c738"/><path d="M769.82,699.47H854c-13.63-36.73-12.31-74.51-.7-113a2.87,2.87,0,0,0-1.41-3.38l-24.18-12.64c-9.49,6.18-19.68,4.28-30.46-4.18L771,573.44C778.16,616.41,778.37,658.5,769.82,699.47Z" transform="translate(0 0.53)" fill="#b4c738"/><path d="M790.87,877.76l-35.09,1.49a6.19,6.19,0,0,1-6.39-5.27h0A6.19,6.19,0,0,1,754,867l6-1.46L783.39,852c3.47,3.59,8.24,6.62,14.08,9.21l.06,9.53A7,7,0,0,1,790.87,877.76Z" transform="translate(0 0.53)" fill="#90917b"/><path d="M843.63,877.23l35.1,1.49a6.2,6.2,0,0,0,6.39-5.28h0a6.19,6.19,0,0,0-4.65-6.93l-6-1.46-23.4-13.56c-3.47,3.59-8.24,6.62-14.08,9.21l-.07,9.53A7,7,0,0,0,843.63,877.23Z" transform="translate(0 0.53)" fill="#90917b"/><circle cx="809.83" cy="538.73" r="19.11" fill="#cb9393"/><path d="M839.7,693.5l-6.31,12.28a8.62,8.62,0,0,0,3.73,11.63,9.28,9.28,0,0,0,.91.4h0A8.63,8.63,0,0,0,849.61,711l2.63-18.07,9.56-45.39-.6-22.7H842.09C848.61,641.69,845.37,666.59,839.7,693.5Z" transform="translate(0 0.53)" fill="#cb9393"/><path d="M839.1,627.2h25.69L861.06,599a23.07,23.07,0,0,0-13-17.82h0Z" transform="translate(0 0.53)" fill="#b4c738"/><path d="M830.16,527.67a18.37,18.37,0,0,0-4-14.43c-3.26-3.86-8.73-7-17.8-5.53-19.78,3.25-25.49,19.72-23.55,23.86s7.88,13.75,7.88,13.75-4.36-9.51.37-11.44,23.05-9.56,29.44-6.13a11.45,11.45,0,0,1,6.3,9.66Z" transform="translate(0 0.53)" fill="#2f2e41"/><path d="M364.05,96.62l-7.46,3.79A169,169,0,0,0,322.92,55C255.66-9.66,148.33-7.54,83.67,59.72S21.12,234.3,88.38,299a169.07,169.07,0,0,0,43.46,30.34l-3.65,7.52A177.57,177.57,0,1,1,364.05,96.62Z" transform="translate(0 0.53)" fill="#3d3d3d"/><path d="M111.67,252.25A59.7,59.7,0,0,0,197.74,335L208,324.31l-86.07-82.75Z" transform="translate(0 0.53)" fill="#3d3d3d"/><path d="M116.18,235.49a13.32,13.32,0,0,0,.37,18.82l78.94,75.89A13.31,13.31,0,0,0,213.94,311h0L135,235.12A13.31,13.31,0,0,0,116.18,235.49Z" transform="translate(0 0.53)" fill="#acab9e"/><path d="M353,173.54l10.28-10.69a59.69,59.69,0,0,0-86.07-82.74L266.88,90.8Z" transform="translate(0 0.53)" fill="#3d3d3d"/><path d="M260.59,85.27a13.32,13.32,0,0,0,.37,18.82L339.9,180a13.31,13.31,0,1,0,18.45-19.19h0l-79-75.9A13.32,13.32,0,0,0,260.59,85.27Z" transform="translate(0 0.53)" fill="#acab9e"/><path d="M500.09,658.24V653s23.08-13,41.84,0v4.81Z" transform="translate(0 0.53)" fill="#acab9e"/><path d="M710.23,658.24V653s23.09-13,41.84,0v4.81Z" transform="translate(0 0.53)" fill="#acab9e"/><path d="M569.34,657.76h-22.6s-5.77-6.74-25-6.26-23.08,6.26-23.08,6.26-19,12.74-23.32,28.61c0,0-23.33,70-23.81,124.78s20.68,62.52,31.74,64,30.78-.48,50-49.05l8.18-28.37s1.44-16.83,18.75-6.25,32.7-5.77,32.7-5.77h64.92s21.64,13.46,41.35,2.88c0,0,7.7-10.09,14.91,24.05,0,0,22.12,70.2,56.26,63s30.3-65.88,30.3-65.88S796.07,720,777.32,688.29c0,0-18-32.94-30.06-34.38,0,0-26-4.81-36.06-.48l-5.77,4.81Z" transform="translate(0 0.53)" fill="#3d3d3d"/><circle cx="516.92" cy="705.41" r="41.84" fill="#acab9e"/><circle cx="735.24" cy="705.41" r="41.84" fill="#acab9e"/><path d="M524.21,695.55l-5.58,4.94a2.58,2.58,0,0,1-3.41,0l-5.59-4.94a2.59,2.59,0,0,1-.88-1.92V680.05a2.59,2.59,0,0,1,2.59-2.58h11.18a2.59,2.59,0,0,1,2.59,2.58v13.57A2.56,2.56,0,0,1,524.21,695.55Z" transform="translate(0 0.53)" fill="#191919"/><path d="M524.21,714.21l-5.58-4.93a2.58,2.58,0,0,0-3.41,0l-5.59,4.93a2.63,2.63,0,0,0-.88,1.92v13.56a2.58,2.58,0,0,0,2.58,2.59h11.19a2.59,2.59,0,0,0,2.59-2.58V716.14A2.56,2.56,0,0,0,524.21,714.21Z" transform="translate(0 0.53)" fill="#191919"/><path d="M507.6,712.18l4.93-5.59a2.59,2.59,0,0,0,0-3.42l-4.93-5.58a2.59,2.59,0,0,0-1.92-.88H492.11a2.59,2.59,0,0,0-2.58,2.59v11.18a2.59,2.59,0,0,0,2.58,2.59h13.57A2.58,2.58,0,0,0,507.6,712.18Z" transform="translate(0 0.53)" fill="#191919"/><path d="M526.25,712.18l-4.92-5.59a2.59,2.59,0,0,1,0-3.42l4.93-5.59a2.58,2.58,0,0,1,1.92-.87h13.57a2.57,2.57,0,0,1,2.58,2.57v11.19a2.57,2.57,0,0,1-2.57,2.59H528.19A2.58,2.58,0,0,1,526.25,712.18Z" transform="translate(0 0.53)" fill="#191919"/><circle cx="573.66" cy="751.09" r="30.3" fill="#acab9e"/><circle cx="678.5" cy="751.09" r="30.3" fill="#acab9e"/><circle cx="573.66" cy="751.09" r="20.2" fill="#191919"/><path d="M573.67,764.51a13.95,13.95,0,1,1,13.94-14h0A14,14,0,0,1,573.67,764.51Zm0-26.93a13,13,0,1,0,13,13h0A13,13,0,0,0,573.67,737.58Z" transform="translate(0 0.53)" fill="#acab9e"/><circle cx="678.5" cy="751.09" r="20.2" fill="#191919"/><path d="M678.5,764.51a13.95,13.95,0,1,1,13.94-14A13.94,13.94,0,0,1,678.5,764.51Zm0-26.93a13,13,0,1,0,13,13h0A13,13,0,0,0,678.5,737.58Z" transform="translate(0 0.53)" fill="#acab9e"/><circle cx="627.04" cy="754.46" r="8.66" fill="#acab9e"/><circle cx="613.81" cy="725.57" r="1.89" fill="#acab9e"/><circle cx="620.89" cy="725.57" r="1.89" fill="#acab9e"/><circle cx="619.95" cy="734.54" r="1.89" fill="#acab9e"/><circle cx="626.56" cy="734.74" r="1.92" fill="#acab9e"/><circle cx="633.16" cy="734.54" r="1.89" fill="#acab9e"/><circle cx="617.12" cy="730.29" r="1.89" fill="#acab9e"/><circle cx="623.19" cy="730.42" r="1.92" fill="#acab9e"/><circle cx="629.45" cy="730.42" r="1.92" fill="#acab9e"/><circle cx="636" cy="730.29" r="1.89" fill="#acab9e"/><circle cx="626.56" cy="725.61" r="1.92" fill="#acab9e"/><circle cx="633.29" cy="725.61" r="1.92" fill="#acab9e"/><circle cx="638.83" cy="725.57" r="1.89" fill="#acab9e"/><path d="M555.15,661.85a3.37,3.37,0,0,0-3.35,3.36v10.1a3.35,3.35,0,0,0,3.35,3.35h2.41a3.35,3.35,0,0,0,3.35-3.35v-10.1a3.37,3.37,0,0,0-3.35-3.36Z" transform="translate(0 0.53)" fill="#acab9e"/><path d="M695.57,661.85a3.37,3.37,0,0,0-3.36,3.36v10.1a3.35,3.35,0,0,0,3.36,3.35H698a3.37,3.37,0,0,0,3.36-3.35v-10.1a3.38,3.38,0,0,0-3.36-3.36Z" transform="translate(0 0.53)" fill="#acab9e"/><circle cx="735.72" cy="679.93" r="11.54" fill="#191919"/><circle cx="711.19" cy="704.45" r="11.54" fill="#191919"/><circle cx="761.21" cy="703.01" r="11.54" fill="#191919"/><circle cx="737.64" cy="728.49" r="11.54" fill="#191919"/><path d="M576.91,655.12a9.75,9.75,0,0,0-9.73,9.73v43a9.73,9.73,0,0,0,9.73,9.72h98.82a9.73,9.73,0,0,0,9.73-9.72v-43a9.75,9.75,0,0,0-9.73-9.73Z" transform="translate(0 0.53)" fill="#acab9e"/><path d="M743.56,684.68H727.91l7.56-12.95Zm-14-1h12.25l-6.34-10.13Z" transform="translate(0 0.53)" fill="#acab9e"/><path d="M717.69,709.69h-13V698.15h13Zm-12-1h11.06v-9.62H705.67Z" transform="translate(0 0.53)" fill="#acab9e"/><path d="M761.21,709.69a7.22,7.22,0,1,1,7.21-7.21A7.21,7.21,0,0,1,761.21,709.69Zm0-13.46a6.25,6.25,0,1,0,6.25,6.25h0a6.26,6.26,0,0,0-6.25-6.25Z" transform="translate(0 0.53)" fill="#acab9e"/><rect x="737.04" y="720.31" width="0.96" height="15.3" transform="translate(-298.73 735.25) rotate(-45)" fill="#acab9e"/><rect x="729.99" y="727.36" width="15.31" height="0.96" transform="translate(-298.51 712.41) rotate(-43.73)" fill="#acab9e"/><path d="M119.16,128.94C88.55,137.38,55,143.73,43,133.87c6.57-10.94,10.36-21.73,10.69-32.33a18.56,18.56,0,0,1,5.47-12.89A20.81,20.81,0,0,1,76.54,83l7.95,1.12.79.12a18.58,18.58,0,0,1,14.94,15.66C101.89,111.39,107.52,121.34,119.16,128.94Z" transform="translate(0 0.53)" fill="#2f2e41"/><path d="M148.69,237.92l11.89,2.45a6.25,6.25,0,0,1,4.86,7.38,5.67,5.67,0,0,1-.38,1.21h0a6.25,6.25,0,0,1-8.21,3.27,5.52,5.52,0,0,1-.8-.42l-18.2-11.19-30.92-72.68,16-4.63Z" transform="translate(0 0.53)" fill="#a0616a"/><polygon points="63.92 333.81 54.91 336.43 48.09 322.35 55.02 318.73 63.92 333.81" fill="#a0616a"/><polygon points="59.34 394.16 48.29 391.23 50.02 372.24 59.53 372.82 59.34 394.16" fill="#a0616a"/><path d="M60.5,320.11l-11.71,7.71-45-50.94a10,10,0,0,1,.87-14.16,9.64,9.64,0,0,1,1.5-1.1L62.22,228.1l8.6,24.68L41.61,280.2Z" transform="translate(0 0.53)" fill="#d0d1be"/><path d="M70.36,346.78l-.09.11c-.75,4.38-2.07,8.38-5,11.27A8.72,8.72,0,0,1,54.66,363h0a8.72,8.72,0,0,1-6-9.3l2.18-19.55a14.6,14.6,0,0,0,11.28-10l5.1,3.47a13.42,13.42,0,0,1,3.61,18.62Z" transform="translate(0 0.53)" fill="#d0d1be"/><circle cx="75.9" cy="107.26" r="18.02" fill="#a0616a"/><path d="M91.51,135.54,63.1,159.07l-2.21-9.69,5-7.56c1.37-7.41.49-15.59-1.88-24.27l18.54,0A27.12,27.12,0,0,0,91.51,135.54Z" transform="translate(0 0.53)" fill="#a0616a"/><path d="M99.51,197.26,61.16,208.94l-3-13.64c-7.18-9.65-10.31-18.46-5.61-25.65L50.2,158.83c6.79-5.34,12.12-10.81,15-16.48l23.6-9.22,17.35,1.06,5.12,17.17Z" transform="translate(0 0.53)" fill="#b4c738"/><path d="M126.76,165.23a39.41,39.41,0,0,0-22.9,7l2.34-38.06h0a13.83,13.83,0,0,1,10.88,8.29Z" transform="translate(0 0.53)" fill="#b4c738"/><path d="M60.38,376.84l-12.18-3L50,270.41l16.35-17.9-3.66-22.7-2.37-25.42,39.93-9.9c13.5,24.51,21.65,46.79,9.75,60.7Z" transform="translate(0 0.53)" fill="#d0d1be"/><path d="M57.58,411.76l-.16.07c-3.54,4.1-7.42,7.45-12.31,8.62A10.63,10.63,0,0,1,31,418.79h0a10.65,10.65,0,0,1-.48-13.52l14.58-19c6.23,2,12.29,1.44,18-3.35l3.14,6.83a16.33,16.33,0,0,1-7.93,21.7C58.12,411.54,57.85,411.65,57.58,411.76Z" transform="translate(0 0.53)" fill="#d0d1be"/><path d="M13.11,250.36,2.43,259.5a6.94,6.94,0,0,0,1.65,11.59h0a6.94,6.94,0,0,0,9-3l7.72-14.41L56.21,189l-13.33-2.5Z" transform="translate(0 0.53)" fill="#a0616a"/><path d="M58.34,190.79c-6.92-2.09-13.4-3.32-18.43-1.7,1.05-13,3.23-24.69,10.29-30.26l10,1.18Z" transform="translate(0 0.53)" fill="#b4c738"/><path d="M96,102.55l-38.54-2.37L58,92.47q20.19-13.6,38.55,2.37Z" transform="translate(0 0.53)" fill="#2f2e41"/><path d="M775.62,136a153.05,153.05,0,0,1-62.08-13.6,6.54,6.54,0,0,1-3.88-6V63a6.6,6.6,0,0,1,6.59-6.6H835a6.61,6.61,0,0,1,6.6,6.6v53.39a6.53,6.53,0,0,1-3.89,6h0A153,153,0,0,1,775.62,136Z" transform="translate(0 0.53)" fill="#b4c738"/><path d="M775.61,92.77a6.69,6.69,0,0,1-2.57-.51L678.88,52.53a6.6,6.6,0,0,1,.23-12.25L773.27,4.56a6.59,6.59,0,0,1,4.71,0l92.9,35.72a6.6,6.6,0,0,1,.22,12.23L778.2,92.24A6.59,6.59,0,0,1,775.61,92.77Z" transform="translate(0 0.53)" fill="#b4c738"/><circle cx="720.65" cy="117.79" r="8.8" fill="#fff" opacity="0.5"/><path d="M871.42,46.88,778.52,86.6a5.83,5.83,0,0,1-4.58,0L679.78,46.89A5.74,5.74,0,0,1,677,44.42a5.88,5.88,0,0,0,2.15,8,5,5,0,0,0,.66.32l94.16,39.73a5.87,5.87,0,0,0,4.58,0l92.9-39.73a5.86,5.86,0,0,0,3.09-7.69,6.11,6.11,0,0,0-.31-.63A5.74,5.74,0,0,1,871.42,46.88Z" transform="translate(0 0.53)" fill="#fff" opacity="0.2" style="isolation:isolate"/><path d="M721.39,110.23a1.47,1.47,0,0,0,1.47-1.47V66.71L771.2,49.09a1.47,1.47,0,1,0,0-2.93L722.9,63.78a2.83,2.83,0,0,0-2.1.84,2.93,2.93,0,0,0-.88,2.09v42.05A1.47,1.47,0,0,0,721.39,110.23Z" transform="translate(0 0.53)" fill="#fff" opacity="0.5"/><path d="M180.82,733.26c-1.34-7-2.84-14-3.08-21.17-.15-4.21.14-8.49-.4-12.68-.27-2.06-.73-4.09-1.2-6.11l-1.86-8.1a13.52,13.52,0,0,0-.18-4.66,15.13,15.13,0,0,0-.74-2.37,37.16,37.16,0,0,0,4.27-7.89,7.83,7.83,0,0,0,.72-3.93c-.38-2.56-2.86-4.25-5.17-5.51a11.18,11.18,0,0,0-4.46-1.62,7.25,7.25,0,0,0-5.89,2.63,12.73,12.73,0,0,1,.38-6.22c-1.37-.62-2.76-1.2-4.15-1.76a38.38,38.38,0,0,1-.21-5.47c0-2.19.07-4.41.19-6.6a19.52,19.52,0,0,0,12.82-18.21v-.66a15.82,15.82,0,0,0,1.36-12.14c-1.54-5.25-5.57-9.58-10.42-12.26a36,36,0,0,0-16-4,22.77,22.77,0,0,0-5.59.35,26.73,26.73,0,0,0-5.68,2.1,23.9,23.9,0,0,0-7.67,4.9c-3.61,3.85-4.42,9.51-4,14.72.53,6.83,2.81,13.44,5.45,19.8a24.09,24.09,0,0,0,3.26,6,3.44,3.44,0,0,0,4.61.5c-.12,1.68-.16,3.37-.12,5.05a12.71,12.71,0,0,0-7.92,2c-1,.75-2,1.93-1.82,3.2a3,3,0,0,1,2.87,2.55,5.55,5.55,0,0,1-1,3.16c-.23.43-.47.86-.71,1.29-2.26,2.42-4.58,5.45-4.78,8.45-.37,0-.74.09-1.1.16-2,.38-4.09,1.08-6.1,1.61l-14.58,3.83-3.6,1-5.78,1.53c-3.68,1-7.43,2-10.69,3.9s-6,5-6.69,8.68c-.33,1.83-.13,3.73-.53,5.55a1,1,0,0,1,0,.24,17.35,17.35,0,0,1-1.34,3.32c-3.26,6.88-5.59,14.38-5.15,22,.27,4.65,1.57,9.19,2.85,13.67s2.65,9.16,3.95,13.74a72.55,72.55,0,0,0,3.25,9.62,37.17,37.17,0,0,0,9.74,13,17.4,17.4,0,0,0,3.89,2.63,14.18,14.18,0,0,0,6.84,1.11c.63,0,1.25-.11,1.86-.21,4.52-.72,8.73-2.89,12.59-5.34,1.62-1,3.2-2.1,4.73-3.24a31,31,0,0,0,1,5.22,9.11,9.11,0,0,1,.63,3.59c-.19,1.69-1.42,3.08-2.05,4.67-1.36,3.35,0,7.09.26,10.68.21,3.37-.61,6.71-1.26,10a103.94,103.94,0,0,0-1.94,16.78,52.31,52.31,0,0,1-.42,6.38c-.49,3-1.64,5.87-1.84,8.89-.3,4.69,1.73,9.29,1.54,14-.21,5.52-3.46,10.89-2.33,16.29.15.68.53,1.46,1.15,1.64l-.31.28c-.93.86-1.83,2.45-.77,3.15a1.86,1.86,0,0,0,.79.27c1.63.35,3.28.66,4.93,1a15.16,15.16,0,0,0,.56,4.49c.3.22.61.41.91.6a1.23,1.23,0,0,0,.33,1.58,2.3,2.3,0,0,0,.8.27,172,172,0,0,0,41.18,3.42c2.47-.1,5-.28,7.16-1.54s3.53-3.95,2.53-6.16c-.89-2-3.21-2.8-5.3-3.45l-2.45-.76a4.18,4.18,0,0,0,.22-3.68c-.89-2-3.21-2.8-5.3-3.45l-5.64-1.75a5.61,5.61,0,0,1-2.05-1,11.43,11.43,0,0,1-1.11-1.29,6.29,6.29,0,0,0-3.08-1.93A25.18,25.18,0,0,1,146,850l1.58-19c.35-4.31.7-8.7-.3-12.91-.41-1.71-1.06-3.46-.66-5.17.61-2.8,3.56-4.36,5.56-6.43,3-3.16,4-7.64,4.67-11.91a240.84,240.84,0,0,0,2.69-53.31,85.67,85.67,0,0,1,19.35-3.11,2,2,0,0,0,2-1.61A6.41,6.41,0,0,0,180.82,733.26Zm-31.46.93c0-.18.08-.37.11-.55l.44.56Z" transform="translate(0 0.53)" fill="url(#a9ac3228-5b3e-41a7-86fa-31b820bbeee2)"/><path d="M139.11,637.71c-.13,1.83-.78,3.58-1,5.41-.27,2,0,4-.16,6.07a7.73,7.73,0,0,1-2.26,5.48,106.1,106.1,0,0,1,26.24,5.67c-2.56-3.15-2.62-7.56-2.56-11.6.08-6,.19-12.09,2.14-17.74a43.06,43.06,0,0,0-17.73-.24c-1.27.26-5.13.1-5.7,1.29C137.65,632.92,139.21,636.38,139.11,637.71Z" transform="translate(0 0.53)" fill="#a1616a"/><path d="M139.11,637.71c-.13,1.83-.78,3.58-1,5.41-.27,2,0,4-.16,6.07a7.73,7.73,0,0,1-2.26,5.48,106.1,106.1,0,0,1,26.24,5.67c-2.56-3.15-2.62-7.56-2.56-11.6.08-6,.19-12.09,2.14-17.74a43.06,43.06,0,0,0-17.73-.24c-1.27.26-5.13.1-5.7,1.29C137.65,632.92,139.21,636.38,139.11,637.71Z" transform="translate(0 0.53)" opacity="0.1" style="isolation:isolate"/><path d="M149.71,855.54a13.21,13.21,0,0,0,1,1.32,5.37,5.37,0,0,0,2,1l5.51,1.75c2,.65,4.32,1.49,5.19,3.45,1,2.21-.42,4.89-2.48,6.15s-4.58,1.44-7,1.53a164.44,164.44,0,0,1-40.26-3.41A2.15,2.15,0,0,1,113,867c-1-.71-.15-2.3.76-3.16,3.55-3.36,7.4-6.89,12.23-7.67,2.54-.41,5.09-.24,7.62-.85,1.81-.43,3.52-1.19,5.33-1.63C142.26,852.88,147.3,852.59,149.71,855.54Z" transform="translate(0 0.53)" fill="#b9baa4"/><path d="M149.71,855.54a13.21,13.21,0,0,0,1,1.32,5.37,5.37,0,0,0,2,1l5.51,1.75c2,.65,4.32,1.49,5.19,3.45,1,2.21-.42,4.89-2.48,6.15s-4.58,1.44-7,1.53a164.44,164.44,0,0,1-40.26-3.41A2.15,2.15,0,0,1,113,867c-1-.71-.15-2.3.76-3.16,3.55-3.36,7.4-6.89,12.23-7.67,2.54-.41,5.09-.24,7.62-.85,1.81-.43,3.52-1.19,5.33-1.63C142.26,852.88,147.3,852.59,149.71,855.54Z" transform="translate(0 0.53)" fill="#fff" opacity="0.1" style="isolation:isolate"/><path d="M122.05,736.65a33.34,33.34,0,0,0-.47,22.34c-1.84-.2-2.63,2.28-2.58,4.13a30.09,30.09,0,0,0,1.16,7.61,9.72,9.72,0,0,1,.61,3.59c-.19,1.69-1.39,3.08-2,4.66-1.32,3.35,0,7.08.26,10.67.21,3.37-.59,6.71-1.24,10a107.24,107.24,0,0,0-1.89,16.75,48.48,48.48,0,0,1-.42,6.38c-.47,3-1.57,5.86-1.78,8.87-.3,4.69,1.68,9.29,1.5,14-.21,5.51-3.39,10.88-2.28,16.3.16.76.59,1.66,1.37,1.67,7.93.1,15.33-2.11,23.18-1,.8-18.15,1.57-36.38,5.15-54.19,3.15-15.86,8.5-31.54,8-47.71-.29-9.25-2.49-18.32-3.82-27.47A36.13,36.13,0,0,0,122.05,736.65Z" transform="translate(0 0.53)" fill="#444237"/><path d="M122.05,736.65a33.34,33.34,0,0,0-.47,22.34c-1.84-.2-2.63,2.28-2.58,4.13a30.09,30.09,0,0,0,1.16,7.61,9.72,9.72,0,0,1,.61,3.59c-.19,1.69-1.39,3.08-2,4.66-1.32,3.35,0,7.08.26,10.67.21,3.37-.59,6.71-1.24,10a107.24,107.24,0,0,0-1.89,16.75,48.48,48.48,0,0,1-.42,6.38c-.47,3-1.57,5.86-1.78,8.87-.3,4.69,1.68,9.29,1.5,14-.21,5.51-3.39,10.88-2.28,16.3.16.76.59,1.66,1.37,1.67,7.93.1,15.33-2.11,23.18-1,.8-18.15,1.57-36.38,5.15-54.19,3.15-15.86,8.5-31.54,8-47.71-.29-9.25-2.49-18.32-3.82-27.47A36.13,36.13,0,0,0,122.05,736.65Z" transform="translate(0 0.53)" fill="#fff" opacity="0.1" style="isolation:isolate"/><path d="M157.07,863.42a10.31,10.31,0,0,0,1.05,1.32,5.15,5.15,0,0,0,2,1l5.51,1.75c2.05.66,4.32,1.5,5.18,3.45,1,2.21-.41,4.9-2.47,6.15s-4.59,1.44-7,1.54a164.93,164.93,0,0,1-40.26-3.41,2.17,2.17,0,0,1-.77-.28c-1-.71-.15-2.29.76-3.15,3.54-3.37,7.4-6.89,12.23-7.67,2.54-.42,5.09-.25,7.62-.85,1.81-.44,3.52-1.19,5.33-1.64C149.62,860.77,154.66,860.47,157.07,863.42Z" transform="translate(0 0.53)" fill="#b9baa4"/><path d="M124.78,737.17a13.42,13.42,0,0,0-2.35,9.38,39.08,39.08,0,0,0,2.47,9.57c-1.45,1.33-1.15,3.62-1,5.58.69,7.26-1.83,14.51-1.46,21.8.15,3.06.82,6.08,1,9.15a58,58,0,0,1-.65,10,598.68,598.68,0,0,0-4.2,64.18,20.67,20.67,0,0,0,.52,5.88c3.82,2.81,8.62,3.19,13.25,2.14s8.84-3.4,13-5.71A40.45,40.45,0,0,0,151.8,865a3.44,3.44,0,0,0,1.29-1.77c.44-2.1-2.48-3.06-4.16-4.42-2.44-2-2.4-5.65-2.15-8.78l1.53-19c.34-4.3.68-8.69-.3-12.9-.4-1.7-1-3.45-.65-5.17.6-2.78,3.48-4.34,5.45-6.41,3-3.16,3.87-7.63,4.56-11.89a246,246,0,0,0,2-61.09c-3.87,1.34-8.44.61-12.52.93s-8.12,1.67-12.25,1.78C131.21,736.35,126.9,734.45,124.78,737.17Z" transform="translate(0 0.53)" fill="#444237"/><circle cx="152.61" cy="624.49" r="19.45" fill="#a1616a"/><path d="M163.61,656a104.69,104.69,0,0,0-19.4-6.69c-4.7-1.12-10.07-1.8-14,1-1.05.75-2,1.93-1.77,3.2a2.93,2.93,0,0,1,2.8,2.55,5.59,5.59,0,0,1-1,3.15l-4.54,8.41a34.58,34.58,0,0,0-2.23,4.73,33,33,0,0,0-1.31,8.35l-.52,7.63a90.46,90.46,0,0,0-.22,14.44c.32,3.62,1.08,7.26.56,10.86-.41,2.9-1.64,5.62-2.33,8.46-1.29,5.37-.7,11.24-3.21,16.16a4.88,4.88,0,0,1,3.26-.29c7.61,1.4,13.59,7.41,21,9.71,1.86-2.73,4.39-4.73,6.48-7.27a14.05,14.05,0,0,0,3-6.59A25.2,25.2,0,0,1,154,740a3.93,3.93,0,0,0,.84,1.54c1,1,2.62.6,4,.19a81.81,81.81,0,0,1,20.07-3.4,2,2,0,0,0,2-1.61,6.36,6.36,0,0,0-.05-3.24c-1.31-7-2.77-14-3-21.15-.15-4.2.14-8.47-.39-12.66-.26-2.06-.72-4.08-1.17-6.1l-3.75-16.68c-.21-.93-1.21-1.54-1.64-2.39-1.72-3.49-5-6-6.72-9.52A12.47,12.47,0,0,1,163.61,656Z" transform="translate(0 0.53)" fill="#5e5e5e"/><path d="M136.32,631.75a1.31,1.31,0,0,1,.18-.78,1.77,1.77,0,0,1,.76-.47,4,4,0,0,0,2.23-4.26l1.84-.39,0-6.4c2.74-1.52,6.46-.37,9-2.15,1.45-1,2.19-2.73,3.07-4.25s2.2-3.06,4-3.19a11.25,11.25,0,0,0,.6,9.53,10.78,10.78,0,0,0,4.43-4.14l.92,5.26a1.3,1.3,0,0,0,.39.86c.47.35,1.12-.09,1.54-.53l2.38-2.34a33.1,33.1,0,0,1,2.05,7.83c3.91-3.8,5.12-9.9,3.62-15.13A21.26,21.26,0,0,0,163.19,599a34.49,34.49,0,0,0-15.68-4,22.21,22.21,0,0,0-5.46.35,25.78,25.78,0,0,0-5.56,2.11,23.26,23.26,0,0,0-7.49,4.88c-3.53,3.85-4.33,9.51-3.94,14.72.53,6.84,2.75,13.43,5.33,19.78a24.33,24.33,0,0,0,3.18,6c2.13,2.69,7.36.45,6.69-4.88C139.8,634.14,136.32,635.61,136.32,631.75Z" transform="translate(0 0.53)" fill="#3f3d56"/><path d="M143.68,735.87a82.41,82.41,0,0,1-29.15,32.91c-3.78,2.44-7.88,4.62-12.3,5.33-.61.1-1.21.17-1.83.21a13.6,13.6,0,0,1-6.66-1.13,16.81,16.81,0,0,1-3.8-2.62,37,37,0,0,1-9.52-13A74.06,74.06,0,0,1,77.24,748q-1.93-6.87-3.86-13.74a64.72,64.72,0,0,1-2.79-13.66c-.42-7.57,1.85-15.06,5-21.93a18.84,18.84,0,0,0,1.31-3.31,2,2,0,0,1,0-.24c.38-1.82.18-3.71.53-5.54.64-3.68,3.35-6.73,6.54-8.67s6.83-2.93,10.45-3.9l5.64-1.52,3.5-.94,14.24-3.83c2-.53,4-1.23,6-1.58,2.23-.42,2.22-.2,2.39,2,.32,4,.22,7.86,1,11.78.79,3.75,2.19,7.36,3.24,11,2.66,9.29,3.1,19.07,5.19,28.5.48,2.15,1.14,4.44,2.87,5.78,2,1.58,5.32,2,5.85,4.44A5.72,5.72,0,0,1,143.68,735.87Z" transform="translate(0 0.53)" fill="#b4c738"/><path d="M102.23,774.09c-.61.1-1.21.17-1.83.21a13.5,13.5,0,0,1-6.66-1.11,16.81,16.81,0,0,1-3.8-2.62,37,37,0,0,1-9.52-13A74.06,74.06,0,0,1,77.24,748q-1.93-6.87-3.86-13.74a64.72,64.72,0,0,1-2.79-13.66c-.42-7.57,1.85-15.06,5-21.93a18.84,18.84,0,0,0,1.31-3.31,2,2,0,0,1,0-.24c8.58,1.51,18.87,17.92,24.18,39.42C105.08,750.58,105.25,765.39,102.23,774.09Z" transform="translate(0 0.53)" fill="#fff" opacity="0.2" style="isolation:isolate"/><path d="M117.73,717.51l-1.43.25c-1.48-3.88-3-7.76-4.68-11.54-.9-2-1.87-3.91-2.63-6-2.84-7.81-2.35-17.08-7.61-23.51a8.22,8.22,0,0,0-1.28-1.29l3.5-1A47.54,47.54,0,0,1,110,690.35a64.23,64.23,0,0,0,1.81,8.19,57.47,57.47,0,0,0,2.7,5.86C116.49,708.49,118,713,117.73,717.51Z" transform="translate(0 0.53)" fill="#fff" opacity="0.2" style="isolation:isolate"/><path d="M131.71,658.29a17.37,17.37,0,0,1,13.83-4.21,26.43,26.43,0,0,1,8.13,3.16c5,2.67,10,5.74,13.62,10.13a40.87,40.87,0,0,1,5.37,9,22.39,22.39,0,0,1,1.58,4.42c1.28,5.94-1.87,11.85-4.9,17.11l-5.84,10.13a87.8,87.8,0,0,1-8.87,13.42c-1.61,1.88-3.38,3.62-5.14,5.36l-7.73,7.63a.87.87,0,0,1-1.43,0l-2.56-2a43.69,43.69,0,0,0,6.53-5.54,88.94,88.94,0,0,0,8.83-11.4l8.5-12.33c2.49-3.61,5.08-7.59,4.81-12a18.53,18.53,0,0,0-1.75-6q-2.19-5.15-4.76-10.13a51.39,51.39,0,0,0-6.8-10.55,22.11,22.11,0,0,0-10.3-6.93,8.57,8.57,0,0,0-3.73-.35c-2.77.45-4.73,2.83-6.48,5l-5.33,6.83c-1.22,1.55-2.33,3.35-2.41.41C124.76,665.32,129,661,131.71,658.29Z" transform="translate(0 0.53)" fill="#b4c738"/><path d="M133.36,704.39c1,4,2.6,8.64,6.49,10.17,2.76,1.09,6,.21,8.38-1.57a23.65,23.65,0,0,0,5.64-6.84,66.87,66.87,0,0,1,4.34-6.59c3.12-3.91,7.36-7,9.47-11.56.62-1.36,1-2.81,1.75-4.11a24.92,24.92,0,0,1,2.55-3.4,36.88,36.88,0,0,0,5.73-10,8,8,0,0,0,.71-3.93c-.37-2.56-2.8-4.24-5-5.5a11,11,0,0,0-4.37-1.62,7.07,7.07,0,0,0-5.93,2.85,11.44,11.44,0,0,0-2.16,6.4c-.16,2.8.38,5.72-.53,8.36a12.89,12.89,0,0,1-2,3.43,40.09,40.09,0,0,1-10.78,10,19,19,0,0,0-1.28-5.8c-.4-1-8.23,0-9.25.17-2,.3-5.93.53-7.2,2.45s.3,5.16.82,7.1Z" transform="translate(0 0.53)" fill="#a1616a"/><path d="M133.17,660.22a26.79,26.79,0,0,0-3.24,3.15,18,18,0,0,0-3.77,10.11,44,44,0,0,0,.83,10.91c.57,3.23,1.24,6.43,2,9.62a6.66,6.66,0,0,1,4.42-5.26,14.2,14.2,0,0,1,7.13-.42,35.06,35.06,0,0,1,9,2.59l1.11-15.54a27.18,27.18,0,0,0,0-6.31,13.89,13.89,0,0,0-6.48-9.43C139.89,657.07,137,656.91,133.17,660.22Z" transform="translate(0 0.53)" fill="#b9baa4"/><circle cx="204.5" cy="472.72" r="4.41" fill="#939c00" opacity="0.1" style="isolation:isolate"/><circle cx="150.27" cy="477.13" r="4.41" fill="#939c00" opacity="0.1" style="isolation:isolate"/><circle cx="12.79" cy="711.75" r="9.46" fill="#939c00" opacity="0.1" style="isolation:isolate"/><circle cx="732.99" cy="514.76" r="4.22" fill="#939c00" opacity="0.1" style="isolation:isolate"/><circle cx="760.11" cy="532.84" r="4.22" fill="#939c00" opacity="0.1" style="isolation:isolate"/><circle cx="195.67" cy="508.03" r="4.41" fill="#939c00" opacity="0.1" style="isolation:isolate"/><circle cx="25.93" cy="755.9" r="3.68" fill="#939c00" opacity="0.1" style="isolation:isolate"/><circle cx="20.15" cy="671.8" r="3.68" fill="#939c00" opacity="0.1" style="isolation:isolate"/></svg>