<svg id="acec8ec7-544d-45fc-bc03-18d34b5cf721" data-name="Layer 1" xmlns="http://www.w3.org/2000/svg" xmlns:xlink="http://www.w3.org/1999/xlink" viewBox="0 0 2400 1072.99"><defs><linearGradient id="a0b9b867-4983-44c9-ba39-0fa1efa370a4" x1="2096.99" y1="929.79" x2="2096.99" y2="149.32" gradientUnits="userSpaceOnUse"><stop offset="0" stop-color="#1db5de"/><stop offset="0.01" stop-color="#21b0db"/><stop offset="0.25" stop-color="#715bae"/><stop offset="0.37" stop-color="#9e4ba1"/><stop offset="0.5" stop-color="#c73d95"/><stop offset="0.54" stop-color="#cf4a84"/><stop offset="0.68" stop-color="#ec7946"/><stop offset="0.75" stop-color="#f78c2d"/><stop offset="0.76" stop-color="#f78f2d"/><stop offset="0.9" stop-color="#f8a62f"/><stop offset="0.99" stop-color="#f8ae30"/></linearGradient><linearGradient id="b9d2f88c-f61b-47c1-b662-a5c006adef2a" x1="1089.41" y1="915.63" x2="1900.59" y2="915.63" gradientUnits="userSpaceOnUse"><stop offset="0.26" stop-color="#666"/><stop offset="0.88" stop-color="#24242d"/></linearGradient></defs><polygon points="2100.99 181.52 2120.27 185.94 2096.99 149.32 2073.72 185.94 2092.1 181.72 2092.1 897.39 2073.72 893.17 2096.99 929.79 2120.27 893.17 2100.99 897.59 2100.99 181.52" fill="url(#a0b9b867-4983-44c9-ba39-0fa1efa370a4)"/><text transform="translate(2150.36 885.96)" font-size="30.16" fill="#fff" font-family="Cabin-Regular, Cabin"><tspan letter-spacing="-0.01em">T</tspan><tspan x="15.89" y="0">heo</tspan><tspan x="64.27" y="0" letter-spacing="-0.01em">r</tspan><tspan x="73.56" y="0" letter-spacing="0em">etical &amp;</tspan><tspan x="0" y="36.19">Semi-</tspan><tspan x="78.68" y="36.19" letter-spacing="-0.01em">P</tspan><tspan x="95.54" y="36.19">ermane</tspan><tspan x="193.89" y="36.19" letter-spacing="-0.01em">n</tspan><tspan x="210.51" y="36.19">t</tspan></text><text transform="translate(2150.36 176.46)" font-size="30.16" fill="#fff" font-family="Cabin-Regular, Cabin"><tspan letter-spacing="-0.01em">P</tspan><tspan x="17.01" y="0" letter-spacing="-0.01em">r</tspan><tspan x="26.48" y="0">actical &amp;</tspan><tspan x="0" y="36.19" letter-spacing="-0.01em">I</tspan><tspan x="7.42" y="36.19">mpermane</tspan><tspan x="149.01" y="36.19" letter-spacing="-0.01em">n</tspan><tspan x="165.63" y="36.19">t</tspan></text><polygon points="1089.41 992.29 1810.91 987.28 1900.59 873.78 1537.65 838.97 1089.41 992.29" opacity="0.3" fill="url(#b9d2f88c-f61b-47c1-b662-a5c006adef2a)"/><path d="M1421.32,637.82,1412.43,650q4.42-6.12,8.88-12.22Z" fill="#3ea2e6"/><path d="M1038.9,288.29c1.81-.94,3.86-.27,6.72-1.23L1001.33,275c1.1-3.61,88.68-123.69,96.05-131.76,1.37.73,2.46,4.66,2.53,6.28,1.8,19.63-1.09,36.54,1.9,56.15-.49,31.81,4,64,1.39,95.7-2,2.59-4.55,1.53-7,.91-17.51-3.81-34.43-11.77-52.44-12.54C1042.08,289.83,1040.16,290,1038.9,288.29Z" fill="#f9cf5a"/><path d="M1102.47,301.87c0-12.4-6.94-157.69-5.09-158.62,35.08,51.2,69.75,99.87,97.87,143.83-13.56,2.54-27.16,4.15-40.55,7-2.14,2.36-5.18,2.17-7.91,2.56q-18.63,2.63-37.12,6.15C1107.22,303.27,1104.63,304,1102.47,301.87Z" fill="#f8ae30"/><polyline points="1069.14 188.31 1007.62 126.79 901.66 126.79" fill="none" stroke="#f8ae30" stroke-miterlimit="10" stroke-width="2"/><circle cx="902.25" cy="126.18" r="5.46" fill="#f8ae30"/><text transform="translate(488.3 178.18)" font-size="22.53" fill="#fff" font-family="Cabin-Regular, Cabin"><tspan letter-spacing="-0.01em">H</tspan><tspan x="16.6" y="0">is</tspan><tspan x="30.71" y="0" letter-spacing="0em">t</tspan><tspan x="38.21" y="0">orical </tspan><tspan x="94.03" y="0" letter-spacing="-0.01em">r</tspan><tspan x="100.97" y="0">e</tspan><tspan x="112.51" y="0" letter-spacing="-0.01em">c</tspan><tspan x="122.58" y="0">o</tspan><tspan x="134.97" y="0" letter-spacing="-0.01em">r</tspan><tspan x="141.91" y="0">d </tspan><tspan x="159.48" y="0" letter-spacing="0em">o</tspan><tspan x="171.76" y="0">f things the </tspan><tspan x="283.48" y="0" letter-spacing="-0.01em">c</tspan><tspan x="293.55" y="0">ommunity </tspan><tspan x="-10.09" y="35.39">has done which establishes a nar</tspan><tspan x="298.1" y="35.39" letter-spacing="-0.01em">r</tspan><tspan x="305.17" y="35.39" letter-spacing="-0.01em">a</tspan><tspan x="315.76" y="35.39">ti</tspan><tspan x="328.13" y="35.39" letter-spacing="-0.01em">v</tspan><tspan x="339.01" y="35.39">e th</tspan><tspan x="375.41" y="35.39" letter-spacing="-0.01em">a</tspan><tspan x="386" y="35.39">t </tspan><tspan x="10.23" y="70.78" letter-spacing="-0.01em">v</tspan><tspan x="21.18" y="70.78">alid</tspan><tspan x="54.59" y="70.78" letter-spacing="-0.01em">a</tspan><tspan x="65.18" y="70.78" letter-spacing="0em">t</tspan><tspan x="72.68" y="70.78">es or gi</tspan><tspan x="139.29" y="70.78" letter-spacing="-0.01em">v</tspan><tspan x="150.18" y="70.78">es </tspan><tspan x="176.11" y="70.78" letter-spacing="-0.01em">c</tspan><tspan x="186.18" y="70.78">o</tspan><tspan x="198.57" y="70.78" letter-spacing="-0.01em">n</tspan><tspan x="210.98" y="70.78" letter-spacing="0em">t</tspan><tspan x="218.48" y="70.78" letter-spacing="0em">e</tspan><tspan x="229.9" y="70.78">xt </tspan><tspan x="253.24" y="70.78" letter-spacing="0em">t</tspan><tspan x="260.75" y="70.78">o </tspan><tspan x="278.2" y="70.78" letter-spacing="-0.01em">o</tspan><tspan x="290.44" y="70.78">ther l</tspan><tspan x="339.39" y="70.78" letter-spacing="-0.02em">a</tspan><tspan x="349.76" y="70.78" letter-spacing="-0.01em">y</tspan><tspan x="360.91" y="70.78">ers.</tspan></text><text transform="translate(776.89 134.84)" font-size="26.54" fill="#f8ae30" font-family="Cabin-Regular, Cabin" letter-spacing="0.01em">A<tspan x="16.72" y="0" letter-spacing="0.02em">CTIONS</tspan></text><path d="M1532.37,830.76c-22.29-28.76-46.11-59.85-68.25-88.81h0q-21.31-27.76-42.63-55.52c-1.35-1.77-2.86-3-5.18-3-110.68,31.94-211.74,63.95-321.69,97.65,3.45,10.14-5.86,189.62-5.21,211.17C1239.35,943.65,1388.77,889,1538.54,839,1536.29,836,1534.36,833.35,1532.37,830.76Z" fill="#1db5de"/><path d="M1089.49,992.43C928.7,938.47,768.14,882.35,607.6,827.2c33.93-47.25,73-93,108.74-139.56,6-5.39,9.67-17.81,18.38-18.26,115,37,231.64,72.42,346.63,109.53,5.76.57,15,2.59,14.38,7.74.28,5.57-1.16,50.41-2.39,98.91C1092.34,925.22,1091.84,967.33,1089.49,992.43Z" fill="#4ad2f6"/><path d="M1097.59,743.67c57-15.78,113.89-34.13,170.9-50.67,25.55-8.41,51.7-15,77.23-23.41,24.26,1.44,48.64,10.53,72.8,15-110.65,34.12-211.67,69.31-323,101C979,747.46,849.58,709.75,734.72,669.38c.47-.28,49.52-8.77,70.82-12.75C841.55,666.69,1035.14,726.08,1097.59,743.67Z" fill="#004986"/><circle cx="558.58" cy="705.25" r="5.42" fill="#1db5de"/><polyline points="673.24 750.92 633.22 704.76 557.99 704.76" fill="none" stroke="#1db5de" stroke-miterlimit="10" stroke-width="2"/><text transform="translate(90.67 758.69)" font-size="22.53" fill="#fff" font-family="Cabin-Regular, Cabin"><tspan letter-spacing="-0.01em">T</tspan><tspan x="11.87" y="0">heo</tspan><tspan x="48.01" y="0" letter-spacing="-0.01em">r</tspan><tspan x="54.95" y="0">etical ideas, princip</tspan><tspan x="233.87" y="0" letter-spacing="0em">l</tspan><tspan x="239.07" y="0">es, and dif</tspan><tspan x="335.58" y="0" letter-spacing="-0.01em">f</tspan><tspan x="342.81" y="0">e</tspan><tspan x="354.35" y="0" letter-spacing="-0.01em">r</tspan><tspan x="361.29" y="0">e</tspan><tspan x="372.82" y="0" letter-spacing="-0.01em">n</tspan><tspan x="385.24" y="0">ti</tspan><tspan x="397.6" y="0" letter-spacing="-0.01em">a</tspan><tspan x="408.19" y="0">ting </tspan><tspan x="-27.78" y="35.39">ideas </tspan><tspan x="26.25" y="35.39" letter-spacing="-0.01em">f</tspan><tspan x="33.48" y="35.39">orming an inclusi</tspan><tspan x="193.81" y="35.39" letter-spacing="-0.01em">v</tspan><tspan x="204.69" y="35.39">e base </tspan><tspan x="270.54" y="35.39" letter-spacing="-0.01em">f</tspan><tspan x="277.78" y="35.39">or all </tspan><tspan x="328.98" y="35.39" letter-spacing="-0.01em">o</tspan><tspan x="341.22" y="35.39">ther l</tspan><tspan x="390.17" y="35.39" letter-spacing="-0.02em">a</tspan><tspan x="400.53" y="35.39" letter-spacing="-0.01em">y</tspan><tspan x="411.69" y="35.39">ers.</tspan></text><text transform="translate(436.67 715.02)" font-size="26.54" fill="#1db5de" font-family="Cabin-Regular, Cabin" letter-spacing="-0.02em">V<tspan x="16.46" y="0" letter-spacing="0.02em">A</tspan><tspan x="33.47" y="0" letter-spacing="0.01em">L</tspan><tspan x="46.96" y="0" letter-spacing="0.02em">UES</tspan></text><polyline points="895.54 447.97 834.01 386.45 728.06 386.45" fill="none" stroke="#c73d95" stroke-miterlimit="10" stroke-width="2"/><circle cx="728.65" cy="385.83" r="5.42" fill="#c73d95"/><text transform="translate(259.46 440.05)" font-size="22.53" fill="#fff" font-family="Cabin-Regular, Cabin"><tspan letter-spacing="-0.01em">P</tspan><tspan x="12.57" y="0" letter-spacing="-0.01em">a</tspan><tspan x="23.16" y="0">t</tspan><tspan x="30.75" y="0" letter-spacing="0em">t</tspan><tspan x="38.25" y="0">erns </tspan><tspan x="84.01" y="0" letter-spacing="0em">o</tspan><tspan x="96.29" y="0">f h</tspan><tspan x="121.02" y="0" letter-spacing="0em">o</tspan><tspan x="133.3" y="0">w </tspan><tspan x="154.7" y="0" letter-spacing="-0.01em">c</tspan><tspan x="164.77" y="0">ommunity members oug</tspan><tspan x="402.02" y="0" letter-spacing="-0.01em">h</tspan><tspan x="414.05" y="0">t </tspan><tspan x="426.71" y="0" letter-spacing="0em">t</tspan><tspan x="434.21" y="0">o </tspan><tspan x="17.75" y="35.39">act </tspan><tspan x="51.46" y="35.39" letter-spacing="0em">t</tspan><tspan x="58.96" y="35.39" letter-spacing="-0.01em">o</tspan><tspan x="71.24" y="35.39" letter-spacing="0em">w</tspan><tspan x="87.48" y="35.39">a</tspan><tspan x="98.29" y="35.39" letter-spacing="-0.01em">r</tspan><tspan x="105.23" y="35.39">ds one an</tspan><tspan x="197.13" y="35.39" letter-spacing="-0.01em">o</tspan><tspan x="209.36" y="35.39">ther and outsiders. </tspan><tspan x="390.13" y="35.39" letter-spacing="-0.01em">T</tspan><tspan x="402" y="35.39">hese </tspan><tspan x="31.38" y="70.78">a</tspan><tspan x="42.2" y="70.78" letter-spacing="-0.01em">r</tspan><tspan x="49.14" y="70.78">e b</tspan><tspan x="78.24" y="70.78" letter-spacing="-0.01em">r</tspan><tspan x="85.18" y="70.78">oad</tspan><tspan x="120.89" y="70.78" letter-spacing="-0.01em">l</tspan><tspan x="126.05" y="70.78">y ideals th</tspan><tspan x="221.64" y="70.78" letter-spacing="-0.01em">a</tspan><tspan x="232.23" y="70.78">t </tspan><tspan x="244.89" y="70.78" letter-spacing="-0.01em">f</tspan><tspan x="252.12" y="70.78">ocus on i</tspan><tspan x="335.77" y="70.78" letter-spacing="-0.01em">n</tspan><tspan x="348.18" y="70.78" letter-spacing="0em">t</tspan><tspan x="355.68" y="70.78">e</tspan><tspan x="367.22" y="70.78" letter-spacing="-0.01em">r</tspan><tspan x="374.29" y="70.78">actions.</tspan></text><text transform="translate(573.69 397.48)" font-size="26.54" fill="#c73d95" font-family="Cabin-Regular, Cabin" letter-spacing="0.02em">BEH<tspan x="52.34" y="0" letter-spacing="-0.02em">A</tspan><tspan x="68.06" y="0">VIORS</tspan></text><rect x="1092.12" y="453.2" width="33.6" height="26.45" fill="#730068"/><path d="M1103.29,427.53c40.14-7.55,79.62-20.46,119.86-27.84,16.33,4.31,32.78,8.22,49,12.75,4.28,3.87-30.65,10.08-29.62,10.68-6.81-.24-105.82,30.79-144.39,34.69-57.71-19-120-33.72-176.32-55.34,18.46-3.85,37.24-5.92,55.67-9.88C1019.76,402.45,1061.1,418.55,1103.29,427.53Z" fill="#730068"/><path d="M972.47,522.7c43.7,12,87,26.95,130.86,37.75l.22-.06a5.37,5.37,0,0,0,.57-.9c-.89-32.77.84-65.8-.72-98.5-1.16-2.81-3.89-3.09-6.26-3.8-21.32-6.39-42.65-12.78-63.92-19.34-37-11.93-75.45-21.64-111.35-35.38-3.17-.47-4.91,1.54-6.61,3.74-20,27.14-42.75,53.19-61.33,80.85,8.24,2.37,30.59,9.19,59,17.89C933.08,509.09,952.44,517.91,972.47,522.7Z" fill="#d85fae"/><path d="M1103.33,560.45h0c59.12-14.86,117.89-33.15,177-48.54h0c17.27-6.9,36.53-9.23,53.66-16.13-9.15-9.54-52-85.7-61.79-83.34-1.76,2.53-5.13,1.76-7.26,3.56.33,1.84-4.4,1.34-5.77,2.16-1.42.5-3.23-.77-4.25.73-1,1.17-2.68-.87-3.69,1-2,2.37-5.21-.32-7,1.71.36,2.07-1.39.1-1.69.9-45.23,11.16-90.23,23.56-135.53,34.67-1.68.4-4.07.16-4.55,2.76C1103.14,493.39,1101,527.12,1103.33,560.45Z" fill="#c73d95"/><text transform="translate(1413.62 335.63)" font-size="22.53" fill="#fff" font-family="Cabin-Regular, Cabin">p<tspan x="12.55" y="0" letter-spacing="-0.01em">r</tspan><tspan x="19.62" y="0">actical </tspan><tspan x="84.46" y="0" letter-spacing="-0.01em">r</tspan><tspan x="91.4" y="0">e</tspan><tspan x="102.93" y="0" letter-spacing="-0.01em">c</tspan><tspan x="113" y="0">o</tspan><tspan x="125.39" y="0" letter-spacing="-0.01em">r</tspan><tspan x="132.33" y="0">ded instructions th</tspan><tspan x="309.04" y="0" letter-spacing="-0.01em">a</tspan><tspan x="319.63" y="0">t the g</tspan><tspan x="379.91" y="0" letter-spacing="-0.01em">r</tspan><tspan x="386.85" y="0">oup </tspan><tspan x="0" y="35.39">uses </tspan><tspan x="47.06" y="35.39" letter-spacing="0em">t</tspan><tspan x="54.56" y="35.39">o onboa</tspan><tspan x="132.71" y="35.39" letter-spacing="-0.01em">r</tspan><tspan x="139.65" y="35.39">d new members, establish </tspan><tspan x="0" y="70.78">norms, and </tspan><tspan x="112.21" y="70.78" letter-spacing="-0.01em">c</tspan><tspan x="122.28" y="70.78">ommunic</tspan><tspan x="213.59" y="70.78" letter-spacing="-0.01em">a</tspan><tspan x="224.18" y="70.78" letter-spacing="0em">t</tspan><tspan x="231.68" y="70.78">e </tspan><tspan x="248.28" y="70.78" letter-spacing="0em">e</tspan><tspan x="259.71" y="70.78">xpect</tspan><tspan x="312.29" y="70.78" letter-spacing="-0.01em">a</tspan><tspan x="322.87" y="70.78">tions.</tspan></text><polyline points="1222.26 343.22 1283.78 281.7 1389.73 281.7" fill="none" stroke="#f78c2d" stroke-miterlimit="10" stroke-width="2"/><circle cx="1389.15" cy="281.08" r="5.47" fill="#f78c2d"/><text transform="translate(1413.62 293.06)" font-size="26.54" fill="#f78c2d" font-family="Cabin-Regular, Cabin" letter-spacing="0.02em">TE<tspan x="30.18" y="0" letter-spacing="0.01em">A</tspan><tspan x="46.9" y="0" letter-spacing="0.03em">CHINGS</tspan></text><path d="M1103.29,427.53c40.14-7.55,79.62-20.46,119.86-27.84h0c.9-1.2,2.33-1.24,3.6-1.55,12.84-3.8,26.66-5.27,38.92-10.3q-27-37.77-53.9-75.54c-2.17-3.06-4.59-5.49-8.58-5.67-33.07,8.79-103.1-13.43-101.6,20.49C1103.11,361.3,1102.42,391.58,1103.29,427.53Z" fill="#f78c2d"/><path d="M1102.47,301.87c17.49-.95,34.71-5.95,52.23-7.78l48.49,12.54c-.15,3.94-10.33,3.07-13.41,4.21-29.29,6-58.81,10.76-88.19,16.28-37-11.74-74.6-22.27-111.35-34.71,16.07-2.44,32.46-2.6,48.66-4.12C1061,287.24,1081,299.4,1102.47,301.87Z" fill="#ce5800"/><path d="M977.54,392.59c42.22,9.86,83.56,26,125.75,34.94l.41-.08a.89.89,0,0,0,.17-.63c.42-30.47-.28-61,0-91.46.73-5-1.06-10.06-6.68-10.66-35.7-10.61-70.72-23.73-107-32.29-8.84,9.07-15.52,21.11-23.58,31.2-.88,1.22-30.15,40.42-39.77,53.35,17,5,33.79,10.33,50.57,15.65Z" fill="#fdad4a"/><text transform="translate(1571.77 578.86)" font-size="22.53" fill="#fff" font-family="Cabin-Regular, Cabin"><tspan letter-spacing="-0.01em">J</tspan><tspan x="5.5" y="0">udgme</tspan><tspan x="72.32" y="0" letter-spacing="-0.01em">n</tspan><tspan x="84.73" y="0">ts &amp; opinions </tspan><tspan x="212.01" y="0" letter-spacing="0em">o</tspan><tspan x="224.29" y="0">f</tspan><tspan x="231.75" y="0" letter-spacing="0em">t</tspan><tspan x="239.25" y="0">en established </tspan><tspan x="0" y="35.39">th</tspan><tspan x="19.8" y="35.39" letter-spacing="-0.01em">r</tspan><tspan x="26.74" y="35.39">ough the </tspan><tspan x="115.84" y="35.39" letter-spacing="0em">e</tspan><tspan x="127.26" y="35.39">xperien</tspan><tspan x="198.15" y="35.39" letter-spacing="-0.01em">c</tspan><tspan x="208.22" y="35.39">es a g</tspan><tspan x="261.25" y="35.39" letter-spacing="-0.01em">r</tspan><tspan x="268.19" y="35.39">oup has had; the </tspan><tspan x="0" y="70.78" letter-spacing="-0.01em">c</tspan><tspan x="10.07" y="70.78">ommunit</tspan><tspan x="98.74" y="70.78" letter-spacing="-0.03em">y</tspan><tspan x="109.42" y="70.78" letter-spacing="-0.08em">’</tspan><tspan x="111.47" y="70.78">s definition </tspan><tspan x="221.93" y="70.78" letter-spacing="0em">o</tspan><tspan x="234.21" y="70.78">f rig</tspan><tspan x="269.96" y="70.78" letter-spacing="-0.01em">h</tspan><tspan x="281.99" y="70.78">t and w</tspan><tspan x="351.96" y="70.78" letter-spacing="-0.01em">r</tspan><tspan x="358.9" y="70.78">ong.</tspan></text><polyline points="1380.41 585.35 1441.94 523.82 1547.89 523.82" fill="none" stroke="#715bae" stroke-miterlimit="10" stroke-width="2"/><circle cx="1547.3" cy="523.21" r="5.19" fill="#715bae"/><text transform="translate(1571.77 535.19)" font-size="26.54" fill="#715bae" font-family="Cabin-Regular, Cabin" letter-spacing="0.03em">BELIEFS</text><path d="M1316.13,538c-69.57,19.27-140.1,36.17-210,54.62-5.57,1.44-5.92,1.93-5.92,8.19q0,67.49,0,135c.57,5.58-.55,11.15-7.43,7.77-112.87-34.08-230.72-69.42-344.8-106,9.57-16.27,46.86-64.19,57.89-80.56,9.82-13.7,20-27.17,29.73-40.93,3.27-5.76,10.74-2.45,15.77-1.24,80.89,24.58,161.9,48.76,242.74,73.47,60.13-8,119.91-30,179.79-43.08C1281.07,544.32,1321.66,530,1316.13,538Z" fill="#9078d8"/><path d="M1098.93,742.78q0-73.1,0-146.17c0-4,.53-4.57,4.31-5.55,69.21-19.08,147.15-35.34,212.15-55.68,1.24-4.52,21.73-5.73,27.05-8.75,3.43-.15,4.93,2.43,6.58,4.7,26.53,37.51,54.36,74.39,80,112.39-82.87,25.92-165.66,51.68-249.05,76.47-24.51,7.74-49.4,14.23-73.76,22.42C1103.8,743.45,1101.37,744.78,1098.93,742.78Z" fill="#715bae"/><path d="M1302.71,517.44c-7.17-2-15.22-3.86-22.34-5.51l0,0c-59,15.37-117.77,33.65-176.84,48.5l-.16,0q-4.11-1-8.21-2.07c-41-10.59-81.68-24.44-122.65-35.68-.86-.21-1.71-.42-2.56-.65-19.12-4.9-37.69-13.14-57-17.1l-12.17-3.72c-19.15,3.15-40,7.37-58.92,11.69,61.59,19.4,124,37.66,185.91,56.45q33.24,10,66.44,20.22a16.66,16.66,0,0,0,10,.2c62.35-16.24,125-31.5,187.28-47.88,14.92-3.28,29.52-7.7,44.38-11.12,2.36-.59,5.16-.54,6.48-3.27C1329.17,524.15,1316,520.73,1302.71,517.44Z" fill="#28237a"/></svg>