<svg id="b07006af-1723-4e60-b438-3a659c4011a6" data-name="b098510b-f452-4b85-993b-a1bbfe267c61" xmlns="http://www.w3.org/2000/svg" xmlns:xlink="http://www.w3.org/1999/xlink" viewBox="0 0 1105.04 1098.79"><defs><linearGradient id="b64839b4-e8af-48b9-824b-7041b70dd103" x1="403.58" y1="-48.35" x2="403.58" y2="566.97" gradientTransform="matrix(1, 0, 0, -1, -47.24, 1047.63)" gradientUnits="userSpaceOnUse"><stop offset="0" stop-color="gray" stop-opacity="0.25"/><stop offset="0.54" stop-color="gray" stop-opacity="0.12"/><stop offset="1" stop-color="gray" stop-opacity="0.1"/></linearGradient><linearGradient id="b7208c93-84f8-41b9-a9ee-396c35256a6e" x1="940.71" y1="-40.59" x2="940.71" y2="521.44" xlink:href="#b64839b4-e8af-48b9-824b-7041b70dd103"/></defs><ellipse cx="367.39" cy="1082.7" rx="97.44" ry="15.65" fill="#6c63ff" opacity="0.1" style="isolation:isolate"/><ellipse cx="897.06" cy="1083.14" rx="121.59" ry="15.65" fill="#6c63ff" opacity="0.1" style="isolation:isolate"/><path d="M13.84,659.33H115.33V797.66H21.27c-.25,1.42-.49,2.85-.75,4.28h94.81V913.5c-.17,0-.32-.11-.48-.17-2.68-1.06-5.34-2.18-8-3.38l-1.7-.77q-4-1.89-8-4c-.93-.49-1.86-1-2.78-1.52A166.47,166.47,0,0,1,54.49,872.5c-.34-.33-.66-.68-1-1-1.62-1.76-3.21-3.54-4.75-5.36l-1.7-2c-1.82-2.23-3.58-4.52-5.29-6.84-.25-.34-.49-.68-.75-1a148.88,148.88,0,0,1-17.2-31.1c-.14-.33-.26-.69-.39-1q-2.06-5.3-3.65-10.7c-.46-1.51-.9-3-1.28-4.57-.14-.46-.26-.91-.37-1.36-5.68-22.17-6.35-45.2-6.35-68.07v-8c0-9.25.11-18.56.27-27.86,0-2.41.1-4.81.15-7.23q.21-9.21.6-18.42c.06-1.71.14-3.41.23-5.11a28.94,28.94,0,0,1,.15-2.94C13.4,666.38,13.6,662.85,13.84,659.33Z" transform="translate(0.01 -5.08)" fill="#6c63ff" opacity="0.1" style="isolation:isolate"/><path d="M115.33,505.31H59.66a422.51,422.51,0,0,1,29.61-40.76c8.27-10.16,17-20.06,26.06-29.6Z" transform="translate(0.01 -5.08)" fill="#6c63ff" opacity="0.1" style="isolation:isolate"/><path d="M115.33,509.59V655.05H14.16c0-.42.07-.85.1-1.27.09-1.15.18-2.3.28-3.44.11-1.34.23-2.69.36-4s.27-2.91.42-4.36.29-2.92.46-4.37.32-2.9.5-4.34.34-2.9.53-4.34c.15-1.2.31-2.39.47-3.59.23-1.69.47-3.39.73-5.07a4.68,4.68,0,0,1,.11-.75A346.46,346.46,0,0,1,25.57,583a269.42,269.42,0,0,1,12.55-37A277.75,277.75,0,0,1,57,509.64Z" transform="translate(0.01 -5.08)" fill="#6c63ff" opacity="0.1" style="isolation:isolate"/><path d="M139.56,659.32V797.66H356.33V659.32Zm0,142.61v118.8c1.24.26,2.47.51,3.69.72,1.66.32,3.31.61,5,.86.32.05.65.1,1,.13.66.11,1.34.2,2,.29,1.67.23,3.33.42,5,.57.79.08,1.59.15,2.39.21l1.93.15h0c1.05.08,2.09.14,3.12.17.64,0,1.28.06,1.94.08h7.13c.86,0,1.72,0,2.57-.08h.06a13.48,13.48,0,0,0,1.79-.08h.5a10.34,10.34,0,0,0,1.48-.07h.35l3.35-.26c1.1-.1,2.21-.23,3.33-.35l2.28-.27A199.13,199.13,0,0,0,215.92,917c20.22-5.64,40-13.53,60.21-19.31,26.13-7.45,55-11.11,80.25-2V801.93ZM356.33,505.31V321.14a278.62,278.62,0,0,0-70.43,8.26C231,343.19,181.76,373.1,139.56,411.3v94h10.88v4.27H139.56V655.05H356.33V509.58H195.11v-4.27ZM634.76,443.1c-13.58-.48-27.08-4.78-39.29-11.42-23.35-12.7-42-32.31-62.84-48.86-43.3-34.47-97-55.27-152.09-60.43V505.31H690l.77-.81Zm28.19-5,29.89,32.8V429.5c-10,1.24-18.78,4.19-29.85,8.56Zm29.89,512.13V801.93H629.15c-.17-.63-.34-1.27-.54-1.91.19.64.35,1.28.53,1.91H380.58V909.18c2.36,1.75,4.69,3.59,7,5.46h0c2.49,2,4.95,4.11,7.42,6.18l2.49,2.06c1.19,1,2.39,2,3.6,2.94q3.6,2.92,7.27,5.76c1.21,1,2.45,1.9,3.68,2.84a502,502,0,0,0,61.63,40.31q7.23,4,14.59,7.81c3.27,1.67,6.56,3.33,9.86,4.94q7.44,3.63,15,7h0a550.86,550.86,0,0,0,146,42.53q16.78,2.48,33.71,3.9V950.22h0ZM380.58,509.58V655.05h312.3V509.58Zm0,149.74V797.66h312.3V659.32Zm336.54-230V475.5l38.15-41.86q-19-3.06-38.15-4.37Zm0,230.05V797.66h303.75V659.32Zm302.64,301.84,1.07-159.28H717.12V1042.5a544.79,544.79,0,0,0,58.7-.7h.34q14-.88,27.87-2.56h.21A513.1,513.1,0,0,0,947.44,1001m132-318.93c-1.14-2.69-2.33-5.36-3.54-8-2.26-5-4.65-9.86-7.11-14.72h-23.7V797.66H1105c0-39.16-9.94-79.16-25.54-115.61ZM1045.09,802V939c16.88-16.18,31.14-34.69,41.41-55.85,12.35-25.48,18-53.07,18.46-81.17Zm0-182.92v36h21.48a390.72,390.72,0,0,0-21.45-36Zm-206-162.6c-1.58-.6-3.16-1.21-4.75-1.8A434.93,434.93,0,0,0,783,439.24l-58.38,64.07h0l-1.12,1.19.75.82H932.06a444.43,444.43,0,0,0-92.94-48.91Zm99.06,53.17H721.38l-4.26,3.9V655.05h303.79V586.5a433.1,433.1,0,0,0-82.73-76.92Z" transform="translate(0.01 -5.08)" fill="#6c63ff" opacity="0.1" style="isolation:isolate"/><path d="M115.33,583v72.09H14.16c0-.42.07-.85.1-1.27.09-1.15.18-2.3.28-3.44.11-1.34.23-2.69.36-4s.27-2.91.42-4.36.29-2.92.46-4.37.32-2.9.5-4.34.34-2.9.53-4.34c.15-1.2.31-2.39.47-3.59.23-1.69.47-3.39.73-5.07a4.68,4.68,0,0,1,.11-.75A346.46,346.46,0,0,1,25.57,583Z" transform="translate(0.01 -5.08)" fill="#6c63ff" opacity="0.1" style="isolation:isolate"/><path d="M13.84,659.33H115.33V797.66H21.27c-.25,1.42-.49,2.85-.75,4.28h94.81V913.5c-.17,0-.32-.11-.48-.17-2.68-1.06-5.34-2.18-8-3.38l-1.7-.77q-4-1.89-8-4c-.93-.49-1.86-1-2.78-1.52A166.47,166.47,0,0,1,54.49,872.5c-.34-.33-.66-.68-1-1-1.62-1.76-3.21-3.54-4.75-5.36l-1.7-2c-1.82-2.23-3.58-4.52-5.29-6.84-.25-.34-.49-.68-.75-1a148.88,148.88,0,0,1-17.2-31.1c-.14-.33-.26-.69-.39-1q-2.06-5.3-3.65-10.7c-.46-1.51-.9-3-1.28-4.57-.14-.46-.26-.91-.37-1.36-5.68-22.17-6.35-45.2-6.35-68.07v-8c0-9.25.11-18.56.27-27.86,0-2.41.1-4.81.15-7.23q.21-9.21.6-18.42c.06-1.71.14-3.41.23-5.11a28.94,28.94,0,0,1,.15-2.94C13.4,666.38,13.6,662.85,13.84,659.33Z" transform="translate(0.01 -5.08)" fill="#6c63ff" opacity="0.1" style="isolation:isolate"/><polygon points="215.88 525.33 215.88 649.97 139.56 649.97 139.56 525.33 150.44 525.33 150.44 483.13 195.1 483.13 195.1 525.33 215.88 525.33" fill="#6c63ff" opacity="0.1" style="isolation:isolate"/><rect x="139.58" y="654.24" width="76.3" height="138.33" fill="#6c63ff" opacity="0.1" style="isolation:isolate"/><path d="M139.56,801.94h76.31v115a199.11,199.11,0,0,1-27.45,5.83l-2.28.28c-1.12.13-2.23.24-3.33.35s-2.24.19-3.35.26h-.35c-.48,0-1,.06-1.47.07h-.51c-.6,0-1.2.06-1.8.08h0c-.85.05-1.7.06-2.57.07h-7.08l-1.93-.07c-1,0-2.08-.11-3.12-.18h0l-1.92-.14-2.39-.22c-1.68-.15-3.35-.34-5-.57l-2-.28-1-.14c-1.67-.26-3.32-.54-5-.86-1.23-.21-2.45-.47-3.69-.72Z" transform="translate(0.01 -5.08)" fill="#6c63ff" opacity="0.1" style="isolation:isolate"/><rect x="629.97" y="510.61" width="62.92" height="139.35" fill="#6c63ff" opacity="0.1" style="isolation:isolate"/><polygon points="692.89 654.24 692.89 792.58 380.58 792.58 380.58 732.91 546.93 732.91 546.93 768.11 629.97 768.11 629.97 654.24 692.89 654.24" fill="#6c63ff" opacity="0.1" style="isolation:isolate"/><path d="M693.88,950.26h-1V1041q-16.9-1.42-33.7-3.89A551,551,0,0,1,513.12,994.5q-20.13-9.06-39.44-19.78A503.3,503.3,0,0,1,412,934.41q-7.37-5.64-14.53-11.54c-3.31-2.73-6.6-5.53-9.93-8.25-2.31-1.87-4.64-3.71-7-5.47V801.94H629.13c-.17-.64-.34-1.28-.52-1.91.19.63.37,1.27.54,1.91h63.73V950.2C693.22,950.21,693.55,950.24,693.88,950.26Z" transform="translate(0.01 -5.08)" fill="#6c63ff" opacity="0.1" style="isolation:isolate"/><path d="M857,505.31H816V492.57h18.38V454.62q2.39.87,4.76,1.79v36.16H857Z" transform="translate(0.01 -5.08)" fill="#6c63ff" opacity="0.1" style="isolation:isolate"/><path d="M955.76,655.05H754.48l.07.05-.09-.05H717.12V515.7H727.7v103h48.35v-61H816V509.59h41v48.15h39.94v61h58.83Z" transform="translate(0.01 -5.08)" fill="#6c63ff" opacity="0.1" style="isolation:isolate"/><path d="M717.12,659.32V797.66H955.76V659.32ZM1020.54,960.5l.33-109.5H955.76V802H717.12v240.5a544.79,544.79,0,0,0,58.7-.7h.34q14-.88,27.87-2.56h.21A513.1,513.1,0,0,0,947.44,1001" transform="translate(0.01 -5.08)" fill="#6c63ff" opacity="0.1" style="isolation:isolate"/><path d="M1049.33,801.94H1105c-.49,28.09-6.13,55.68-18.47,81.16-10.27,21.17-24.54,39.68-41.4,55.85V851h4.2Z" transform="translate(0.01 -5.08)" fill="#6c63ff" opacity="0.1" style="isolation:isolate"/><path d="M1105,797.66h-55.7V682.05h30.14C1095.07,718.5,1105,758.5,1105,797.66Z" transform="translate(0.01 -5.08)" fill="#6c63ff" opacity="0.1" style="isolation:isolate"/><rect x="659.19" y="549.35" width="33.71" height="43.69" fill="#6c63ff" opacity="0.1" style="isolation:isolate"/><rect x="659.19" y="639.91" width="33.71" height="10.06" fill="#6c63ff" opacity="0.1" style="isolation:isolate"/><rect x="659.19" y="654.24" width="33.71" height="29.35" fill="#6c63ff" opacity="0.1" style="isolation:isolate"/><rect x="659.19" y="730.47" width="33.71" height="43.69" fill="#6c63ff" opacity="0.1" style="isolation:isolate"/><rect x="659.19" y="821.03" width="33.71" height="43.69" fill="#6c63ff" opacity="0.1" style="isolation:isolate"/><path d="M692.88,950.2a5.54,5.54,0,0,1,1,.06h-1v10.15h-33.7V916.67h33.7Z" transform="translate(0.01 -5.08)" fill="#6c63ff" opacity="0.1" style="isolation:isolate"/><path d="M692.88,1007.21V1041q-16.9-1.43-33.7-3.89v-29.86Z" transform="translate(0.01 -5.08)" fill="#6c63ff" opacity="0.1" style="isolation:isolate"/><rect x="380.59" y="789.37" width="144.47" height="3.21" fill="#6c63ff" opacity="0.1" style="isolation:isolate"/><rect x="380.59" y="796.85" width="144.47" height="12.3" fill="#6c63ff" opacity="0.1" style="isolation:isolate"/><rect x="380.59" y="849.47" width="144.47" height="19.78" fill="#6c63ff" opacity="0.1" style="isolation:isolate"/><path d="M525,914.65v19.78H412q-7.37-5.62-14.54-11.54c-3.31-2.73-6.59-5.53-9.93-8.24Z" transform="translate(0.01 -5.08)" fill="#6c63ff" opacity="0.1" style="isolation:isolate"/><path d="M525,974.74V994.5H513.11q-20.12-9.07-39.43-19.79Z" transform="translate(0.01 -5.08)" fill="#6c63ff" opacity="0.1" style="isolation:isolate"/><rect x="775.84" y="667.65" width="28.44" height="28.44" fill="#6c63ff" opacity="0.1" style="isolation:isolate"/><rect x="160.06" y="535.14" width="28.44" height="28.44" fill="#6c63ff" opacity="0.1" style="isolation:isolate"/><rect x="160.06" y="601.2" width="28.44" height="28.44" fill="#6c63ff" opacity="0.1" style="isolation:isolate"/><rect x="160.06" y="667.26" width="28.44" height="28.44" fill="#6c63ff" opacity="0.1" style="isolation:isolate"/><rect x="160.06" y="733.31" width="28.44" height="28.44" fill="#6c63ff" opacity="0.1" style="isolation:isolate"/><rect x="160.06" y="799.37" width="28.44" height="28.44" fill="#6c63ff" opacity="0.1" style="isolation:isolate"/><rect x="160.06" y="865.43" width="28.44" height="28.44" fill="#6c63ff" opacity="0.1" style="isolation:isolate"/><rect x="884.41" y="667.65" width="28.44" height="28.44" fill="#6c63ff" opacity="0.1" style="isolation:isolate"/><rect x="775.84" y="737.8" width="28.44" height="28.44" fill="#6c63ff" opacity="0.1" style="isolation:isolate"/><rect x="884.41" y="737.8" width="28.44" height="28.44" fill="#6c63ff" opacity="0.1" style="isolation:isolate"/><rect x="775.84" y="807.94" width="28.44" height="28.44" fill="#6c63ff" opacity="0.1" style="isolation:isolate"/><rect x="884.41" y="807.94" width="28.44" height="28.44" fill="#6c63ff" opacity="0.1" style="isolation:isolate"/><rect x="775.84" y="878.09" width="28.44" height="28.44" fill="#6c63ff" opacity="0.1" style="isolation:isolate"/><rect x="884.41" y="878.09" width="28.44" height="28.44" fill="#6c63ff" opacity="0.1" style="isolation:isolate"/><rect x="775.84" y="948.24" width="28.44" height="28.44" fill="#6c63ff" opacity="0.1" style="isolation:isolate"/><rect x="884.41" y="948.24" width="28.44" height="28.44" fill="#6c63ff" opacity="0.1" style="isolation:isolate"/><polygon points="775.84 1036.72 775.84 1018.38 804.26 1018.38 804.26 1034.11 775.84 1036.72" fill="#6c63ff" opacity="0.1" style="isolation:isolate"/><path d="M18,619.5v16.27h97.33V619.5Zm9.7,15.25H19.76V620.5h8Zm9.69,0h-8V620.5h8Zm9.67,0h-8V620.5h8Zm9.69,0h-8V620.5h8Zm9.68,0h-8V620.5h8Zm9.69,0h-8V620.5h8Zm9.69,0h-8V620.5h8Zm9.68,0h-8V620.5h8Zm9.68,0h-8V620.5h8Zm9.68,0h-8V620.5h8Z" transform="translate(0.01 -5.08)" fill="#6c63ff" opacity="0.1" style="isolation:isolate"/><path d="M18,666.84v16.27h97.33V666.84Zm9.7,15.24H19.76V667.87h8Zm9.69,0h-8V667.87h8Zm9.67,0h-8V667.87h8Zm9.69,0h-8V667.87h8Zm9.68,0h-8V667.87h8Zm9.69,0h-8V667.87h8Zm9.69,0h-8V667.87h8Zm9.68,0h-8V667.87h8Zm9.68,0h-8V667.87h8Zm9.68,0h-8V667.87h8Z" transform="translate(0.01 -5.08)" fill="#6c63ff" opacity="0.1" style="isolation:isolate"/><path d="M18,714.2v16.3h97.33V714.2Zm9.7,15.24H19.76V715.22h8Zm9.69,0h-8V715.22h8Zm9.67,0h-8V715.22h8Zm9.69,0h-8V715.22h8Zm9.68,0h-8V715.22h8Zm9.69,0h-8V715.22h8Zm9.69,0h-8V715.22h8Zm9.68,0h-8V715.22h8Zm9.68,0h-8V715.22h8Zm9.68,0h-8V715.22h8Z" transform="translate(0.01 -5.08)" fill="#6c63ff" opacity="0.1" style="isolation:isolate"/><path d="M18,761.56v16.25h97.33V761.56Zm9.7,15.24H19.76V762.57h8Zm9.69,0h-8V762.57h8Zm9.67,0h-8V762.57h8Zm9.69,0h-8V762.57h8Zm9.68,0h-8V762.57h8Zm9.69,0h-8V762.57h8Zm9.69,0h-8V762.57h8Zm9.68,0h-8V762.57h8Zm9.68,0h-8V762.57h8Zm9.68,0h-8V762.57h8Z" transform="translate(0.01 -5.08)" fill="#6c63ff" opacity="0.1" style="isolation:isolate"/><path d="M18.42,808.91c.39,1.53.83,3.06,1.29,4.57v-3.55h8v14.22H23.43c.13.33.26.69.39,1h91.51V808.91Zm19,15.24h-8V809.93h8Zm9.67,0h-8V809.93h8Zm9.69,0h-8V809.93h8Zm9.68,0h-8V809.93h8Zm9.69,0h-8V809.93h8Zm9.69,0h-8V809.93h8Zm9.68,0h-8V809.93h8Zm9.68,0h-8V809.93h8Zm9.68,0h-8V809.93h8Z" transform="translate(0.01 -5.08)" fill="#6c63ff" opacity="0.1" style="isolation:isolate"/><path d="M41,856.27c.25.32.49.68.75,1h5.29v6.83c.57.68,1.13,1.36,1.71,2v-8.87h8V871.5H53.53c.32.33.63.68,1,1h60.83V856.27ZM66.43,871.5h-8V857.29h8Zm9.69,0h-8V857.29h8Zm9.69,0h-8V857.29h8Zm9.68,0h-8V857.29h8Zm9.68,0h-8V857.29h8Zm9.68,0h-8V857.29h8Z" transform="translate(0.01 -5.08)" fill="#6c63ff" opacity="0.1" style="isolation:isolate"/><path d="M94.41,903.62c.91.52,1.84,1,2.78,1.52v-.5h8v4.5l1.7.79v-5.29h8v8.65a2,2,0,0,0,.48.18v-9.85Z" transform="translate(0.01 -5.08)" fill="#6c63ff" opacity="0.1" style="isolation:isolate"/><path d="M754.48,655.05Zm-61.6,295.14ZM628.61,800c.19.64.35,1.28.53,1.91h0C629,801.3,628.81,800.66,628.61,800ZM754.48,655Zm-604-149.74v4.27h44.67v-4.27Zm542.4,444.91ZM628.61,800c.19.64.35,1.28.53,1.91h0C629,801.3,628.81,800.66,628.61,800ZM754.48,655Zm-61.6,295.14ZM628.61,800c.19.64.35,1.28.53,1.91h0C629,801.3,628.81,800.66,628.61,800Z" transform="translate(0.01 -5.08)" fill="#6c63ff" opacity="0.1" style="isolation:isolate"/><path d="M461.6,700.8s-3.94-.55-3.94-6.29-2.82-16.46-2.82-16.46h0s-2.44-18.67-5.81-21.63-7.7-20.34-7.7-20.34-.74-9.43-2.25-11.46-3.55-7-6.56-14.09-15.56-12-15.56-12-22.69-13.16-29.12-17.45h0a9.68,9.68,0,0,1-1.63-1.23c-1.12-1.47-6-1.5-6-1.5a98.32,98.32,0,0,1-1.16-10.27A7.81,7.81,0,0,0,379,567a34.61,34.61,0,0,0,15.21-18.82c.12-.38.22-.78.33-1.16a3.26,3.26,0,0,0,1.95-1.76c.58-1.29.59-2.8,1.31-4,.84-1.42,2.44-2.18,3.7-3.25,3.18-2.7,4-7.25,3.85-11.39-.1-3.35-.64-6.73-.43-10.06l.06-.84c.06-.5.13-1,.22-1.48.49-2.48,1.56-4.82,2.16-7.28s.66-5.23-.74-7.35c-2.05-3.11-6.32-3.73-10.07-4.05-4.25-.36-8.05.11-10.77-3.42A38.52,38.52,0,0,0,381.5,487c-.56-.52-6-3.84-6-4.06a24.31,24.31,0,0,0-16.95-1.3c-2.82.82-5.48,2.16-8.34,2.83-6.17,1.46-13.27-.12-18.51,3.41-2.92,2-4.67,5.18-6.31,8.28-1.33,2.55-2.69,5.1-4.06,7.65-2.21,4.19-4.46,8.45-5.39,13.09a19.66,19.66,0,0,0-.36,3.06h0v1.63a5.38,5.38,0,0,0,.06,1c.06.31.05.41.08.62s.08.68.14,1,.18.88.3,1.32c0,.19.12.37.18.55.1.34.22.67.35,1,.07.17.14.35.22.52a9.36,9.36,0,0,0,.51,1c.08.14.14.27.22.4a15.14,15.14,0,0,0,.92,1.34c2.14,2.67,5.29,4.37,7.62,6.87v1.12a34.22,34.22,0,0,0,15.58,28c0,.38.05.77.07,1.15a56.39,56.39,0,0,1-.11,8.91,4.19,4.19,0,0,0-3.32-1.48,5,5,0,0,0-1.28.11l-.09-.07h0V575c-2.2.54-4.91,2.83-7.5,9.34,0,0-7.88,8.88-13.88,8.51s-21.19,9.24-21.19,9.24-14.82,9.62-18,19.42a137.69,137.69,0,0,1-6.38,16.28L251.76,675.5h0l-3.38,30s1.87,13.32,1.5,15.35,7.69,20.34,7.69,20.34,26.63,46.79,37.51,49.19l.78-.55a6.52,6.52,0,0,0,1.47.55l2.24-1.58a24.54,24.54,0,0,1-.17,5.28c-1.5,4.62.56,34.77,3.18,40.68s1.69,83.4,1.69,83.4L303.9,925a2.9,2.9,0,0,0,.09.6l-.09,1.62.27.14a19.25,19.25,0,0,1-.27,6.51c-.94,3-1.32,11.48-1.32,11.48s-7.49,47.88-3.94,57.5,6.57,20.16,6.57,20.16,3.75,12,.18,14-13.72,5.49-11.63,10.49c1.9,4.62,9.11,17,10.18,18.81l-.09,1-1.47,15.93a20.09,20.09,0,0,0,1.69,6.08c1.61,3.47,4.74,7.07,10.69,6.68,1-.07,2.16-.19,3.28-.34,10.89-1.46,24.3-6.32,24.3-6.32a9.86,9.86,0,0,1-1.9-1.57h0a5.48,5.48,0,0,1-1.67-4c.16-2.9-5.27-16.72-6.62-20.12-.21-.49-.32-.77-.32-.77s12.38-12.94,10.32-24.41c0,0-13.7-8-9.19-12.39s12.57-17,12.57-17,.37-47.15,0-54.19a58.3,58.3,0,0,1,.69-14.63c.15-.73.33-1.44.52-2.14a130.55,130.55,0,0,0,18.84,1.43c2.3,0,4.64,0,7-.14q0,1,.09,2.16c.52,11.68,1.49,32.16,2.28,39.77,1.12,10.91,7.31,40.31,7.31,40.31s-11.81,7.58,2.06,26.26c0,0,0,6.77-.92,7.75h0a85.66,85.66,0,0,0-2.37,9.76c-.58,3.52-.82,7.08.12,8.93,2.25,4.42,15.75,4.06,15.75,4.06h0l.33-.06a19.36,19.36,0,0,1,14.29,4.31c5.13,4.12,24.6,2.31,35.14,1,4.13-.52,6.89-1,6.89-1a4.13,4.13,0,0,0,.14-1.44h0c-.11-2.59-2.14-8.27-15.9-13.34,0,0-12.94-8.7-12.76-16.28h-1.77a14.1,14.1,0,0,1,1.79,0s-5.07-18.5-3-20-4.13-22-4.13-22-3.55-34.4-3.74-36.81a21,21,0,0,1,.93-6.1l-.93-18.86s-.18-6.27,0-8.31a40.72,40.72,0,0,0-.43-5.29c-.09-.7-.18-1.43-.28-2.15,4.85-1.23,8-2.37,8-2.37L420.91,864c4.12-8,4.88-25.55,4.86-38,0-8-.36-13.92-.36-13.92L431,802.9s1.3-11-.76-13.41c-.91-1.09-.5-2.22.25-3.15a10.27,10.27,0,0,1,1.23-.84s-.06-.09-.13-.22a9.14,9.14,0,0,1,1.25-.89s-2-3.1-.21-4.41c1.68,1.14,3.18,2,4.32,2.7-.08.73-.16,1.15-.16,1.15l.48-1,1.77,1s8.82-17.57,8.63-20.16,6-13.5,6-13.5.75-5.73,4.13-8.13,2.62-19.79,2.62-19.79.94-9.06,3.19-12.76S461.6,700.8,461.6,700.8Zm-168.76-7.71.17,4.19-1.72-2.77Z" transform="translate(0.01 -5.08)" fill="url(#b64839b4-e8af-48b9-824b-7041b70dd103)"/><path d="M439.56,776.24l-2.16,9.2s-17.3-8.83-20.42-20.05,5.22-15.48,5.22-15.48l16.12,6.83Z" transform="translate(0.01 -5.08)" fill="#fff"/><path d="M439.56,776.24l-2.16,9.2s-17.3-8.83-20.42-20.05,5.22-15.48,5.22-15.48l16.12,6.83Z" transform="translate(0.01 -5.08)" opacity="0.1" style="isolation:isolate"/><path d="M342.47,1089.35s-16,5.88-27,6.62c-5.84.39-8.91-3.19-10.49-6.64a20.21,20.21,0,0,1-1.65-6l1.43-15.85.76-8.44,23.37-6.07L332.2,1063l.31.77c1.33,3.38,6.66,17.13,6.5,20a5.49,5.49,0,0,0,1.64,4A9.49,9.49,0,0,0,342.47,1089.35Z" transform="translate(0.01 -5.08)" fill="#fff"/><path d="M451.76,1081.29a4.05,4.05,0,0,1-.14,1.43s-34.22,5.71-41.22,0a18.53,18.53,0,0,0-14.4-4.22s-13.24.36-15.45-4c-.92-1.83-.68-5.38-.11-8.88a85.15,85.15,0,0,1,2.32-9.71l.53-.42,3.15-2.53,36.88-1.09h.28c-.18,7.54,12.52,16.19,12.52,16.19C449.61,1073.06,451.6,1078.71,451.76,1081.29Z" transform="translate(0.01 -5.08)" fill="#fff"/><path d="M451.76,1081.29a4.06,4.06,0,0,1-.15,1.43s-34.21,5.71-41.21,0A18.55,18.55,0,0,0,396,1078.5s-13.25.36-15.45-4c-.92-1.84-.69-5.38-.12-8.88,5.1.51,13.15,1.78,16.31,4.81,4.78,4.61,12.88,9.21,17.85,9.57C418.49,1080.25,441.76,1081,451.76,1081.29Z" transform="translate(0.01 -5.08)" opacity="0.1" style="isolation:isolate"/><path d="M342.47,1089.35s-16,5.88-27,6.62c-5.84.39-8.91-3.19-10.48-6.65,4.07,1.37,9.72,2.81,12.69,1.49,3.52-1.56,16-2.57,23-3A9.77,9.77,0,0,0,342.47,1089.35Z" transform="translate(0.01 -5.08)" opacity="0.1" style="isolation:isolate"/><path d="M366.21,615.5c-13.2-5.13-30.18-22.08-25.94-30a17.81,17.81,0,0,0,1.65-6.36,58.78,58.78,0,0,0,.12-9,124.19,124.19,0,0,0-1.77-14.64s41.21.93,38.81,7c-.7,1.78-.81,4.87-.62,8.33s.69,7.37,1.21,10.68c.72,4.54,1.44,8,1.44,8s-2.52,3.53-4,3.72S385.15,622.81,366.21,615.5Z" transform="translate(0.01 -5.08)" fill="#cf6f80"/><path d="M332.48,1063.81l-.31.34c-12.32-14.9-27.22,3.67-27.22,3.67l-.22-.39.76-8.44,23.37-6.07,3.31,10.12Z" transform="translate(0.01 -5.08)" opacity="0.1" style="isolation:isolate"/><path d="M423.61,1052.92s-9-.19-13.8,4-28,.92-27,0a3.33,3.33,0,0,0,.52-1.52l3.15-2.53,36.88-1.09C423.5,1052.5,423.61,1052.92,423.61,1052.92Z" transform="translate(0.01 -5.08)" opacity="0.1" style="isolation:isolate"/><path d="M347.81,935.91a28,28,0,0,0-1.52,5.13,58.71,58.71,0,0,0-.69,14.56c.37,7,0,53.91,0,53.91s-7.91,12.51-12.32,16.92,9,12.33,9,12.33c2,11.4-10.12,24.28-10.12,24.28-12.32-14.9-27.22,3.68-27.22,3.68s-8.1-14-10.12-19,7.91-8.46,11.4-10.49-.17-14-.17-14-2.95-10.49-6.45-20.06S303.46,946,303.46,946s.38-8.46,1.29-11.41a19.07,19.07,0,0,0,.27-6.48c-.06-.73-.13-1.34-.18-1.75s-.09-.6-.09-.6l.14-.24,5-9.32S350.21,930,347.81,935.91Z" transform="translate(0.01 -5.08)" fill="#6c63ff"/><path d="M423.61,1051.82s-9-.19-13.8,4-28,.92-27,0,.92-7.73.92-7.73c-13.61-18.58-2-26.12-2-26.12s-6.08-29.25-7.18-40.1c-.77-7.58-1.72-28-2.23-39.58-.22-5-.35-8.44-.35-8.44l11.12-2.24,1.43-.29,26.82-5.38s.74,5,1.24,9.09a42.37,42.37,0,0,1,.42,5.27c-.18,2,0,8.26,0,8.26l.91,18.77a21.51,21.51,0,0,0-.91,6.07c.18,2.39,3.67,36.61,3.67,36.61s6.07,20.42,4,21.89S423.61,1051.82,423.61,1051.82Z" transform="translate(0.01 -5.08)" fill="#6c63ff"/><path d="M379.08,562.5c-.7,1.78-.81,4.87-.62,8.33a34.25,34.25,0,0,1-36.42-.68,124.35,124.35,0,0,0-1.77-14.65S381.48,556.41,379.08,562.5Z" transform="translate(0.01 -5.08)" opacity="0.1" style="isolation:isolate"/><path d="M395,540.4A33.83,33.83,0,0,1,393.33,551a34.22,34.22,0,0,1-66.74-9.79v-.82A34.22,34.22,0,1,1,395,539.23q0,.59,0,1.17Z" transform="translate(0.01 -5.08)" fill="#cf6f80"/><path d="M366.21,615.5c-13.2-5.13-30.18-22.08-25.94-30a17.81,17.81,0,0,0,1.65-6.36L360,594l11.18,9.17,8.5-21.64c.72,4.54,1.44,8,1.44,8s-2.52,3.53-4,3.72S385.15,622.81,366.21,615.5Z" transform="translate(0.01 -5.08)" opacity="0.1" style="isolation:isolate"/><polygon points="412.94 676.05 397.86 929.55 378.18 930.84 327.21 783.85 335.57 609.34 337.33 572.47 360 591.08 371.19 600.25 379.94 577.98 396.2 592.16 412.94 676.05" fill="#6c63ff"/><path d="M347.81,935.91a28,28,0,0,0-1.52,5.13A145.08,145.08,0,0,1,305,928.15l-.27-.14.09-1.61,0-.84,5-9.32S350.21,930,347.81,935.91Z" transform="translate(0.01 -5.08)" opacity="0.1" style="isolation:isolate"/><path d="M383.32,941.08a102.54,102.54,0,0,1-11.06,1.26c-.22-5-.35-8.44-.35-8.44L383,931.66Z" transform="translate(0.01 -5.08)" opacity="0.1" style="isolation:isolate"/><path d="M412.52,935.08c-7.11,1.85-18.09,3.93-27.92,2.63l-.14-6.34L411.28,926S412,930.94,412.52,935.08Z" transform="translate(0.01 -5.08)" opacity="0.1" style="isolation:isolate"/><path d="M384.42,938.87c-41,7-78.55-13.07-78.55-13.07l.36-6.8s.93-77.09-1.65-83-4.59-35.88-3.13-40.48-5.33-73.58-5.33-73.58l-1.1-28-40.26-16.31,18-37.52a135.84,135.84,0,0,0,6.26-16.2c3.13-9.74,17.66-19.31,17.66-19.31s14.9-9.56,20.79-9.2,13.61-8.46,13.61-8.46c5.7-14.53,10.86-8,10.86-8a13,13,0,0,1-.28,2.15c-2,16,32.34,66.35,32.83,67.24h0L377.76,728l3.31,100.81Z" transform="translate(0.01 -5.08)" opacity="0.1" style="isolation:isolate"/><path d="M383.32,938.87c-41,7-78.56-13.07-78.56-13.07l.37-6.8s.93-77.09-1.66-83-4.59-35.88-3.12-40.48S295,721.94,295,721.94l-1.11-28-40.28-16.37,18-37.52a135.84,135.84,0,0,0,6.26-16.2c3.12-9.74,17.66-19.31,17.66-19.31s14.9-9.56,20.78-9.2,13.61-8.46,13.61-8.46c5.71-14.53,12-8,12-8,0,.69-.6,1-.28,2.15,4.4,15.47,31.24,66.35,31.73,67.24h0L376.7,728,380,828.79Z" transform="translate(0.01 -5.08)" fill="#fff"/><path d="M372.27,650.59c-4.41-1.84-27.77-28.51-27.77-28.51V616c-.85-2-5.9-.78-10,.62l1.76-36.87,2,1.66C342.64,596.88,371.76,649.7,372.27,650.59Z" transform="translate(0.01 -5.08)" opacity="0.1" style="isolation:isolate"/><path d="M373.38,648.38c-4.42-1.84-27.78-28.51-27.78-28.51V613.8c-.85-2-5.9-.78-10,.62l1.77-36.87,2,1.66C343.76,594.67,372.89,647.5,373.38,648.38Z" transform="translate(0.01 -5.08)" fill="#fff"/><path d="M305.87,781.39c.55,0,28.51-2.94,28.51-2.94s16.93,33.29,15.82,41.39-3.12,15.27-9.93,14-36.65,1-36.65,1Z" transform="translate(0.01 -5.08)" opacity="0.1" style="isolation:isolate"/><path d="M304.76,779.18c.55,0,28.51-2.94,28.51-2.94s16.92,33.3,15.82,41.39-3.13,15.27-9.93,14-36.65,1-36.65,1Z" transform="translate(0.01 -5.08)" fill="#fff"/><path d="M325.83,763.55s25.66,13.79,26.21,18S339,779.71,336,779a36.64,36.64,0,0,0-5.89-.92l-19.61.53Z" transform="translate(0.01 -5.08)" fill="#cf6f80"/><circle cx="365.12" cy="644.53" r="2.7" opacity="0.1" style="isolation:isolate"/><circle cx="365.12" cy="643.43" r="2.7" fill="#3f3d56"/><circle cx="370.09" cy="761.41" r="2.7" opacity="0.1" style="isolation:isolate"/><circle cx="370.09" cy="760.3" r="2.7" fill="#3f3d56"/><circle cx="367.81" cy="702.97" r="2.7" opacity="0.1" style="isolation:isolate"/><circle cx="367.81" cy="701.87" r="2.7" fill="#3f3d56"/><path d="M430,777.5s1.84,2.76,0,4,.18,4.41.18,4.41-4.59,2.69-2.57,5.11.74,13.35.74,13.35l-5.52,9.14s.33,5.89.35,13.85c0,12.42-.73,29.88-4.77,37.84l.56,65.31s-19.33,7.06-35.51,4.91l-2.4-104.8s3.5-59.43,4.79-70.83a119.7,119.7,0,0,0,.92-17.85s-.55-17.84-2.4-26.12c0,0-2-35.87-2.2-45.8-.09-4.75.16-18.61.44-31.79.31-14.41.66-28,.66-28l-3.65-28.88s3.65-.37,4.75,1.1a10.63,10.63,0,0,0,1.6,1.23h0c6.3,4.26,28.56,17.36,28.56,17.36S426.89,606,429.84,613s5,12,6.43,14,2.21,11.4,2.21,11.4,4.24,17.3,7.55,20.23,5.73,21.57,5.73,21.57l-29.25,23s-2.57,38.26-3.12,39.74S430,777.5,430,777.5Z" transform="translate(0.01 -5.08)" fill="#fff"/><path d="M431.15,777.5s1.83,2.76,0,4,.17,4.41.17,4.41-4.56,2.72-2.56,5.14.74,13.35.74,13.35L424,813.59s.33,5.89.36,13.85c0,12.42-.73,29.88-4.77,37.84l.55,65.31s-19.36,7.06-35.52,4.91l-2.39-104.8s3.5-59.43,4.79-70.83a117.08,117.08,0,0,0,.91-17.85s-.55-17.84-2.39-26.12c0,0-2-35.87-2.21-45.8-.09-4.75.17-18.61.44-31.79.31-14.41.66-28,.66-28L379.59,581s4.82,0,5.93,1.49a9.08,9.08,0,0,0,1.6,1.23h0c6.3,4.26,28.57,17.36,28.57,17.36S428,606,431,613s5,12,6.44,14,2.2,11.4,2.2,11.4,4.24,17.3,7.55,20.23,5.7,21.53,5.7,21.53l-29.25,23s-2.57,38.26-3.13,39.74S431.15,777.5,431.15,777.5Z" transform="translate(0.01 -5.08)" fill="#fff"/><path d="M396.12,618.8l2.64,7.7-13.9,14c.31-14.4.66-28,.66-28l-4.82-29.27s4.82,0,5.93,1.49a9.53,9.53,0,0,0,1.6,1.22h0L400.05,620Z" transform="translate(0.01 -5.08)" opacity="0.1" style="isolation:isolate"/><path d="M395,616.59l2.65,7.7-13.9,14c.31-14.41.66-28,.66-28L379.59,581s4.83,0,5.93,1.49a10,10,0,0,0,1.6,1.23h0L399,617.83Z" transform="translate(0.01 -5.08)" fill="#fff"/><path d="M395,540.4A33.83,33.83,0,0,1,393.33,551a1.44,1.44,0,0,1-1.08-.27c-.26-9-4.69-17.45-10.14-24.64a26.09,26.09,0,0,0-5.5-5.7,10.74,10.74,0,0,0-7.46-2.11c-3,.41-5.65,2.45-8.68,2.71-4,.33-7.58-2.44-11.55-2.58a11.36,11.36,0,0,0-8.49,3.94,23.16,23.16,0,0,0-4.55,8.44,49.44,49.44,0,0,0-2.54,14.56c0,2.8-.32,6.31-2.92,7.33a14.92,14.92,0,0,0-3.77-11.41l-.06-.06v-.82A34.22,34.22,0,1,1,395,539.23q0,.59,0,1.17Z" transform="translate(0.01 -5.08)" opacity="0.1" style="isolation:isolate"/><path d="M375,486.07a23.57,23.57,0,0,0-16.62-1.3c-2.77.82-5.38,2.15-8.19,2.82-6,1.45-13-.12-18.15,3.39-2.86,2-4.58,5.16-6.18,8.23l-4,7.62c-2.18,4.17-4.38,8.41-5.29,13s-.36,9.73,2.55,13.42c2.12,2.69,5.25,4.38,7.55,6.91a15,15,0,0,1,3.76,11.4c2.61-1,2.86-4.52,2.92-7.32a49.44,49.44,0,0,1,2.54-14.56,23.16,23.16,0,0,1,4.55-8.44,11.36,11.36,0,0,1,8.49-3.94c4,.14,7.59,2.9,11.55,2.57,3-.25,5.66-2.3,8.68-2.7a10.74,10.74,0,0,1,7.46,2.11,25.6,25.6,0,0,1,5.49,5.7c5.46,7.19,9.89,15.62,10.15,24.64,1.13.83,2.76-.25,3.32-1.53s.58-2.78,1.29-4c.82-1.41,2.39-2.16,3.62-3.22,3.12-2.69,3.9-7.22,3.78-11.33s-.92-8.28-.14-12.32c.47-2.48,1.53-4.8,2.11-7.25s.65-5.2-.72-7.31c-2-3.1-6.21-3.71-9.88-4-4.17-.36-7.9.1-10.56-3.41a38.3,38.3,0,0,0-4.2-5.14C380.32,489.59,375,486.29,375,486.07Z" transform="translate(0.01 -5.08)" fill="#512e4e"/><path d="M266.28,697l-10.45-19.32-3.31,29.81s1.84,13.24,1.47,15.27,7.54,20.23,7.54,20.23,26.13,46.54,36.8,48.94l36.05-25.76L324.82,754s-3.31-1.29-4.14,0c0,0-17.75-30.54-19.59-32.75s-1.48-6.62-1.48-6.62-2.76-2.94-1.84-5.7-5.33-12.33-5.33-12.33l5.7-5.33Z" transform="translate(0.01 -5.08)" opacity="0.1" style="isolation:isolate"/><path d="M256.38,675.43l-2.76,2.2-3.31,29.81s1.84,13.24,1.47,15.27,7.55,20.23,7.55,20.23,26.12,46.54,36.79,48.94l36.06-25.76L322.61,754s-3.31-1.29-4.14,0c0,0-17.75-30.54-19.59-32.75s-1.47-6.62-1.47-6.62-2.76-2.94-1.84-5.7-5.34-12.33-5.34-12.33l5.7-5.33Z" transform="translate(0.01 -5.08)" fill="#fff"/><path d="M427.65,792.21c2,2.43.74,13.34.74,13.34l-5.52,9.14s.33,5.9.35,13.85l-9.28,2.9a5.51,5.51,0,0,1-6.9-3.62,5.29,5.29,0,0,1-.25-1.81l1.6-51.61L430,782.68c-1.84,1.28.18,4.42.18,4.42S425.63,789.78,427.65,792.21Z" transform="translate(0.01 -5.08)" opacity="0.1" style="isolation:isolate"/><path d="M428.76,791.1c2,2.43.74,13.35.74,13.35L424,813.59s.33,5.89.36,13.85l-9.45,2.95a5.41,5.41,0,0,1-6.76-3.55,5.33,5.33,0,0,1-.24-1.77l1.61-51.77,21.66,8.28c-1.85,1.28.17,4.41.17,4.41S426.76,788.68,428.76,791.1Z" transform="translate(0.01 -5.08)" fill="#fff"/><path d="M435.93,766.5s-1.47,9.39-5.15,9.94-5.33,15.19-9,14.67-1.24-13.61-1.11-16.15-4-13.06-.91-15.45,12.87,0,12.87,0Z" transform="translate(0.01 -5.08)" fill="#cf6f80"/><path d="M443.76,694.19l6.94-14s2.76,10.67,2.76,16.37,3.86,6.26,3.86,6.26,4.23,5,2,8.64-3.13,12.7-3.13,12.7.73,17.29-2.58,19.68-4,8.1-4,8.1-6.08,10.85-5.89,13.43-8.46,20-8.46,20,4.23-21.71-20.42-31.09c0,0-.19-7.37,1.65-9.39s4.71-2.94,2.91-13.15-.52-22.41-.52-24.86,5.52-17.73,5.52-17.73Z" transform="translate(0.01 -5.08)" opacity="0.1" style="isolation:isolate"/><path d="M446.76,678.19l6.06,2s2.77,10.67,2.77,16.37,3.86,6.26,3.86,6.26,4.23,5,2,8.64-3.12,12.7-3.12,12.7.73,17.29-2.58,19.68-4.05,8.1-4.05,8.1-6.07,10.85-5.88,13.43-8.47,20-8.47,20,4.24-21.71-20.42-31.09c0,0-.18-7.37,1.66-9.39s4.71-2.94,2.91-13.15-.52-22.41-.52-24.86,5.52-17.73,5.52-17.73Z" transform="translate(0.01 -5.08)" fill="#fff"/><path d="M312.91,1041.06s9.66-6.07,16-1.66S312.91,1041.06,312.91,1041.06Z" transform="translate(0.01 -5.08)" opacity="0.1" style="isolation:isolate"/><path d="M388,1022.29s8.55-1.1,15.73,6.63S388,1022.29,388,1022.29Z" transform="translate(0.01 -5.08)" opacity="0.1" style="isolation:isolate"/><g opacity="0.1"><path d="M400.48,538.68c-1.23,1.06-2.81,1.82-3.63,3.23-.7,1.21-.72,2.7-1.28,4s-2.19,2.36-3.32,1.54c-.26-9-4.7-17.45-10.15-24.65a25.6,25.6,0,0,0-5.49-5.7,10.75,10.75,0,0,0-7.47-2.11c-3,.41-5.64,2.45-8.67,2.7-4,.34-7.59-2.43-11.56-2.57a11.3,11.3,0,0,0-8.48,4,23,23,0,0,0-4.55,8.43,49.44,49.44,0,0,0-2.54,14.56c-.06,2.79-.32,6.27-2.9,7.31a13.71,13.71,0,0,1,0,2.22c2.6-1,2.86-4.52,2.92-7.32a49.44,49.44,0,0,1,2.54-14.56,23.16,23.16,0,0,1,4.55-8.44,11.34,11.34,0,0,1,8.48-3.94c4,.14,7.6,2.9,11.56,2.57,3-.25,5.66-2.3,8.67-2.7a10.75,10.75,0,0,1,7.47,2.11,25.6,25.6,0,0,1,5.49,5.7c5.45,7.19,9.89,15.62,10.15,24.64,1.13.83,2.76-.25,3.32-1.53s.58-2.78,1.28-4c.82-1.41,2.4-2.16,3.63-3.22,3.12-2.69,3.9-7.22,3.78-11.33v-.38C404.09,532.75,403.14,536.38,400.48,538.68Z" transform="translate(0.01 -5.08)"/><path d="M326.66,538c-2.3-2.53-5.44-4.22-7.55-6.9a14.62,14.62,0,0,1-2.91-8.19,15.43,15.43,0,0,0,2.91,10.39c2.11,2.69,5.25,4.38,7.55,6.91a15,15,0,0,1,3.77,8.92A15,15,0,0,0,326.66,538Z" transform="translate(0.01 -5.08)"/><path d="M406.23,507.78c-.59,2.45-1.64,4.78-2.12,7.25a23.27,23.27,0,0,0-.31,5,19.42,19.42,0,0,1,.31-2.84c.48-2.48,1.53-4.8,2.12-7.25a12.28,12.28,0,0,0,.33-4.14A13.2,13.2,0,0,1,406.23,507.78Z" transform="translate(0.01 -5.08)"/></g><ellipse cx="132.74" cy="1060.99" rx="97.44" ry="15.65" fill="#6c63ff" opacity="0.1" style="isolation:isolate"/><rect x="129.61" y="761.19" width="6.27" height="141.17" fill="#535461"/><path d="M175.27,907l-.39,6.36-.56,9-.23,3.74-.55,9-.24,3.74-.56,9-6.32,102.07a17.3,17.3,0,0,1-17.26,16.22H116.3a17.29,17.29,0,0,1-17.25-16.22L92.76,947.78l-.56-9L92,935l-.56-9-.23-3.74-.56-9-.4-6.36a9,9,0,0,1,8.48-9.5h67.73a8.93,8.93,0,0,1,8.86,9C175.29,906.63,175.28,906.82,175.27,907Z" transform="translate(0.01 -5.08)" fill="#3f3d56"/><polygon points="174.88 908.29 174.32 917.26 91.14 917.26 90.58 908.29 174.88 908.29" fill="#9d9cb5"/><polygon points="174.09 921 173.54 929.98 91.94 929.98 91.38 921 174.09 921" fill="#9d9cb5"/><polygon points="173.31 933.73 172.75 942.7 92.72 942.7 92.17 933.73 173.31 933.73" fill="#9d9cb5"/><path d="M81,819.18c36.51,26.42,51.75,67.74,51.75,67.74s-44-1.51-80.52-27.93S.51,791.26.51,791.26,44.49,792.76,81,819.18Z" transform="translate(0.01 -5.08)" fill="#6c63ff"/><path d="M.48,791.26s45.68,25.35,60.33,46.34,71.95,49.32,71.95,49.32" transform="translate(0.01 -5.08)" fill="none" stroke="#535461" stroke-miterlimit="10" stroke-width="2"/><path d="M104.58,766c19.87,14.37,28.18,36.86,28.18,36.86s-23.95-.82-43.83-15.19-28.17-36.87-28.17-36.87S84.7,751.58,104.58,766Z" transform="translate(0.01 -5.08)" fill="#6c63ff"/><path d="M60.76,750.76S85.62,764.56,93.59,776s39.17,26.84,39.17,26.84" transform="translate(0.01 -5.08)" fill="none" stroke="#535461" stroke-miterlimit="10" stroke-width="2"/><path d="M161.61,801.68C138.78,826.77,134,859.56,134,859.56s32.19-7.9,55-33,27.66-57.88,27.66-57.88S184.44,776.59,161.61,801.68Z" transform="translate(0.01 -5.08)" fill="#6c63ff"/><path d="M216.63,768.69s-29.74,25.72-37.3,43.44S134,859.56,134,859.56" transform="translate(0.01 -5.08)" fill="none" stroke="#535461" stroke-miterlimit="10" stroke-width="2"/><path d="M999.67,792.85s-16.51-82.14-10.19-92.36c0,0,.23-9.5-.15-21.61v-1.39a30.6,30.6,0,0,0,3.47,2,28.12,28.12,0,0,0,18.9,2.44l-5-5.57c-1.2-1.33-2.45-2.77-2.71-4.53s.46-3.33,1.08-4.9c4.75-12,5-27.09-4.15-36.25-7.73-7.7-9.61-17.64-18-24.67-6.13-5.15-9.5-12.7-12.68-20-2.69-6.17-5.4-12.39-6.94-18.93-1.2-5.11-1.68-10.4-3.33-15.39s-4.74-9.84-9.57-12.07c-1.72-.79-3.63-1.24-5.2-2.29-2.06-1.39-3.3-3.65-4.79-5.63-7.57-10-32.92-4.11-44.92-.05a25.34,25.34,0,0,0-8.88,4.92l.11-.18c.09-.15.2-.3.3-.45a15.8,15.8,0,0,0-3.36,3.75c-1.75,2.77-2.48,6-3.94,9-1.76,3.55-11.55,13.46-7.34,17.45a3.63,3.63,0,0,0,1,.64,8.65,8.65,0,0,0,5,.5l-.18.43A29.29,29.29,0,0,0,876,578.8c0,16.43,13.55,29.75,30.28,29.75a30.67,30.67,0,0,0,9.27-1.43c.07.38.13.76.2,1.14a3.5,3.5,0,0,0,.07.45h0l-.53.74-.09-.13-15.7,21.94c-2.4,1.69-16.22,11.69-17,19.19-.82,8.21-1.64,17.82-1.64,17.82l-.11,2.06a6.2,6.2,0,0,1-5,1.35c-4.9-.8-4.9,18-4.9,18s-3.26,3-5.5.4-8.16,6.21-8.16,6.21l-37.1,1.6h0l-.85.05-2-6.19a2.61,2.61,0,0,0-3.27-1.67,2.53,2.53,0,0,0-.45.19l-.14.08-.26.18-.13.12-.2.21-.12.14-.06.06h0a2.52,2.52,0,0,0-.36,2.24l1.72,5.31c-7.16,1.44-14.48,5.5-8.51,16.68l-30.26-5.59,9.79,8.22,50.54,10.43c-.67,1.2-.23,2.94,1.86,5.39,9,10.57,25.4,13.44,32,14.18a56.59,56.59,0,0,0,6.49,11l-.57,10.53s-16.71,80.26-19.77,84.33a47.74,47.74,0,0,0,4.23-5.57c-4.85,16.49-11.63,39.06-13.41,42.44-2.86,5.4-5.51,27.25-2.25,28.65,1,.43,3.86.22,7.94-.09V921l-.18,68.59s.82,42.07-1.43,46.08-2.85,12.42-2.85,12.42-9,16.59-16.13,23.26a1.07,1.07,0,0,1-.16.14l-.22-1.56s-8.57,10.82-27.53,10.21c0,0-11.41,7.42,5.51,7.82s38.53-.6,38.53-.6,15.09-23,27.73-20v17.43h3.87V1067.1a15.86,15.86,0,0,0,6.89-10.43,12.69,12.69,0,0,0-4.52-11.73,7.49,7.49,0,0,1-2.47-5.48l-.14.12a10.57,10.57,0,0,0-.13-1.08c-1.11-9-2.5-27.57,2.41-41.31,6.73-18.84,8.77-45.08,3.87-60.7a139.51,139.51,0,0,1-3.89-15.21c-.12-.65-.23-1.27-.33-1.85a77.94,77.94,0,0,1,9.93,2c11.35,3.13,36.18,3.71,57.38,3.54,0,.58.11,1.19.18,1.8a65.84,65.84,0,0,0,2.36,12.52c2.66,8,3.88,43.27,3.88,43.27s3.43,29,1.56,40.8c-1,6.56-2,13.15-2.57,19.77v.13s-5.62,16-9.73,24.69c-.1.22-.21.44-.31.65a13.08,13.08,0,0,0-3.21.71s-5.51,11-11,12.82-3.67,7.81,8.76,5.61,31.2-4,31.2-4l.81-11.22,3.82-4.78-1,11.19,4.07-.8-.54-13.61,6.25-7.82s7.55-6.72-3.67-19.94v.29c-.12-.19-.23-.39-.36-.58v-.06c-1.86-2.88-3.34-8.25-.63-17.78,4.9-17.22,7.75-32.85,7.75-32.85s10.94-41.87-2.21-61.68h.58a33.27,33.27,0,0,1-2.83-8.8q-.11-.54-.18-1.11c9.73-.56,19.28-2.32,27.07-6.12C1008.24,908,1003.55,808.67,999.67,792.85Zm-123.53-69.3v.2l-2,.1Zm-6.86,1a2.15,2.15,0,0,0-.9.43,8.89,8.89,0,0,0-1.57,4.11l-3.12-.7s-2.19-.47-5.34-1l-1.49-1.5C861,725.5,865.22,725,869.28,724.5Z" transform="translate(0.01 -5.08)" fill="url(#b7208c93-84f8-41b9-a9ee-396c35256a6e)"/><polygon points="972.51 1059.58 971.33 1073.75 975.32 1072.95 974.72 1057.58 972.51 1059.58" fill="#1d2366"/><path d="M881.48,997.38c-4.81,13.7-3.45,32.19-2.37,41.17.4,3.32.77,5.34.77,5.34s-7.19,16.38-7.79,17-21.16,13.17-21.16,13.17l-14.37,8.39s-14.58-6.39-7.59-8.59a10.59,10.59,0,0,0,3.77-2.57c7-6.65,15.79-23.18,15.79-23.18s.6-8.39,2.8-12.38,1.4-45.92,1.4-45.92l.17-68.35v-8.91l27.35.2a62.11,62.11,0,0,0,1.18,9,136.62,136.62,0,0,0,3.81,15.16C890.06,952.5,888.06,978.61,881.48,997.38Z" transform="translate(0.01 -5.08)" fill="#ffb0b1"/><path d="M879.88,1043.89s-7.19,16.38-7.79,17-21.16,13.17-21.16,13.17l-14.37,8.39s-14.58-6.39-7.59-8.59a10.59,10.59,0,0,0,3.77-2.57l.62,4.37,4.79-.2,41-36.89C879.51,1041.87,879.88,1043.89,879.88,1043.89Z" transform="translate(0.01 -5.08)" opacity="0.1" style="isolation:isolate"/><path d="M879.38,1039.5l-41.23,37.14-4.79.2-1-7s-8.38,10.78-27,10.18c0,0-11.18,7.39,5.39,7.79s37.73-.6,37.73-.6,14.78-23,27.15-20v17.37h3.8v-17.53a15.8,15.8,0,0,0,6.74-10.4,12.73,12.73,0,0,0-4.41-11.68A7.56,7.56,0,0,1,879.38,1039.5Z" transform="translate(0.01 -5.08)" fill="#1d2366"/><path d="M976.31,1018.74c-2.66,9.5-1.21,14.85.61,17.72v.06a32.78,32.78,0,0,1,4.78,11.67l.16.9-18.76,27.35-10.18,4s-16.37-5.59-13.38-7.19c.75-.39,1.92-2.47,3.26-5.34,4-8.65,9.52-24.61,9.52-24.61v-.13c.58-6.59,1.5-13.16,2.52-19.7,1.83-11.77-1.53-40.66-1.53-40.66s-1.2-35.13-3.8-43.12a66.55,66.55,0,0,1-2.33-12.44c-.54-5-.66-9.12-.66-9.12s10.78-15,30.54,1.2a21.7,21.7,0,0,1,4.13,4.48c13.65,19.42,2.66,62.2,2.66,62.2S981.1,1001.57,976.31,1018.74Z" transform="translate(0.01 -5.08)" fill="#ffb0b1"/><path d="M981.89,1049.09l-18.76,27.35-10.18,4s-16.37-5.59-13.38-7.19c.75-.39,1.92-2.47,3.26-5.34,6.93-.06,10.52,6.54,10.52,6.54l8.78-1.4s11.58-22.76,14.18-24.15.4-10.39.4-10.39v-2.29c.07.08.13.17.21.25v.06a32.78,32.78,0,0,1,4.78,11.67Z" transform="translate(0.01 -5.08)" opacity="0.1" style="isolation:isolate"/><path d="M954,1075s-5-9.18-14.58-5.79c0,0-5.39,11-10.78,12.78s-3.59,7.78,8.59,5.59,30.54-4,30.54-4l.8-11.19,12.38-15.77s7.38-6.69-3.6-19.86v2.29s2.2,9-.4,10.39-14.14,24.16-14.14,24.16Z" transform="translate(0.01 -5.08)" fill="#1d2366"/><path d="M880.28,912.73a62.11,62.11,0,0,0,1.18,9c-11.26-1.65-21.71-.83-28.56-.29v-8.91Z" transform="translate(0.01 -5.08)" opacity="0.1" style="isolation:isolate"/><path d="M982.3,926.3s-16,.78-35.08.94c-.54-5-.66-9.12-.66-9.12s10.78-15,30.54,1.2a21.7,21.7,0,0,1,4.13,4.48A25,25,0,0,0,982.3,926.3Z" transform="translate(0.01 -5.08)" opacity="0.1" style="isolation:isolate"/><path d="M982.3,924.5s-70.08,3.39-91.44-2.6-42.53-.8-45.72-2.19-.6-23.16,2.2-28.55,18.16-59.9,18.16-59.9l14.78-77.06,15.57-4.29,1.1-.31,27.13-7.48L944,736.63S983.49,891,980.1,902.34a29.15,29.15,0,0,0-.58,13.39A33.32,33.32,0,0,0,982.3,924.5Z" transform="translate(0.01 -5.08)" fill="#1d2366"/><path d="M828.76,701.5s-14,15-3.4,23.36,17.57.8,17.57.8Z" transform="translate(0.01 -5.08)" fill="#c7daf5"/><path d="M828.76,701.5s-14,15-3.4,23.36,17.57.8,17.57.8Z" transform="translate(0.01 -5.08)" opacity="0.1" style="isolation:isolate"/><path d="M941.87,602.88s-1.64,1.56-4.11,3.86c-3.52,3.29-8.73,8.1-13.35,12.13-6.4,5.57-11.68,9.66-9.79,6.17s1.53-9.57.59-15.26c-.07-.38-.13-.76-.2-1.13a104.83,104.83,0,0,0-3.09-12.36s10.34-13.36,16.06-18.63c2.13-2,3.62-2.82,3.71-1.43.1,1.87,1.5,6,3.24,10.38.05.14.1.27.16.41,1.16,3,2.47,6.08,3.62,8.74C940.47,599.84,941.87,602.88,941.87,602.88Z" transform="translate(0.01 -5.08)" fill="#ffb0b1"/><path d="M935.09,587a29.69,29.69,0,0,1-19.88,22.76,104.43,104.43,0,0,0-3.29-13.49s19.47-25.15,19.77-20.06C931.76,578.16,933.28,582.44,935.09,587Z" transform="translate(0.01 -5.08)" opacity="0.1" style="isolation:isolate"/><path d="M913.27,616.5l2.52-3.55s1.67,10.18,7.81,5.69S930,652.43,930,652.43L923.45,751l-47.62-2.85,1.35-47.61,5.39-24,13.33-34.89,7.93-11.53Z" transform="translate(0.01 -5.08)" opacity="0.1" style="isolation:isolate"/><path d="M930,653l-6,89.09-.63,9.44L896.86,750l-1-.06-20-1.2,1.35-47.62,5.39-24,13.33-34.89,7.93-11.53,9.44-13.63,2.52-3.54s1.67,10.18,7.81,5.69l.13-.09h0C929.76,615.31,930,653,930,653Z" transform="translate(0.01 -5.08)" fill="#1d2366"/><path d="M883.27,668.76s-2.39,5-7.19,4.19-4.79,18-4.79,18-3.19,3-5.39.4-8,6.19-8,6.19l-36.34,1.6s16.17,7.39,13,29.75c0,0,54.9-3.4,56.7-8.59S883.27,668.76,883.27,668.76Z" transform="translate(0.01 -5.08)" fill="#fff"/><path d="M883.27,668.76s-2.39,5-7.19,4.19-4.79,18-4.79,18-3.19,3-5.39.4-8,6.19-8,6.19l-36.34,1.6s16.17,7.39,13,29.75c0,0,54.9-3.4,56.7-8.59S883.27,668.76,883.27,668.76Z" transform="translate(0.01 -5.08)" opacity="0.03" style="isolation:isolate"/><polygon points="777.66 705.81 787.25 713.99 866.11 730.56 856.33 720.58 777.66 705.81" fill="#fff"/><path d="M913.42,619.65c-1.31,2-5.06,12.24-8.19,21.18-2.61,7.45-4.79,14-4.79,14S895.35,688,892.75,694s-1.19,29.35-1.19,29.35L881.87,781s-4.39,29.75-11.17,47.52c-6.69,17.49-14.14,25.69-14.37,26,3-4.06,19.35-84,19.35-84l5.4-100.82s.79-9.58,1.59-17.77,17-19.37,17-19.37l15.62-22.21C916.86,612.4,915.81,616.06,913.42,619.65Z" transform="translate(0.01 -5.08)" fill="#fff"/><path d="M872.69,749.22s-23-1-34.14-14.38,25.75-5.34,25.75-5.34l9.59,2.2Z" transform="translate(0.01 -5.08)" fill="#ffb0b1"/><path d="M980.1,902.35a29.15,29.15,0,0,0-.58,13.39c-25.09,1.78-51.93-5-51.93-5-5,4.6-18.17,11.38-18.17,11.38l-7.18-89c-4.59-12-6.39-74.87-6.39-74.87s.41-3.29,1-8.22a1,1,0,0,1,0-.37c1.79-13.77,5.34-39.62,7.08-43.11,2.4-4.8-7.38-17.57-7.38-17.57l4.45-38,.54-4.58c9.38-4.19,16.57-17.57,16.57-17.57l5.52-9.67h0c6-3.85,6.31,33.88,6.31,33.88l-6,89.09,19.88-5.49S983.49,891,980.1,902.35Z" transform="translate(0.01 -5.08)" opacity="0.1" style="isolation:isolate"/><path d="M1005.85,908.5c-27.35,13.58-77.06,1-77.06,1-5,4.6-18.17,11.38-18.17,11.38l-7.19-89c-4.58-12-6.38-74.87-6.38-74.87s5.78-46.91,8.18-51.7c.7-1.4.36-3.48-.47-5.72a72.41,72.41,0,0,1-4.38-33.49l1.92-16.31.53-4.57c9.39-4.2,16.58-17.58,16.58-17.58l5-8.76,9.2-16.14L938,595.1l.74.67,5.65,5.12,6,5c7.83,6.6,21.36,18.22,28.34,25.33,6.14,6.26,8.08,30.61,8.64,48.94.37,12.07.15,21.53.15,21.53-6.19,10.19,10,92,10,92C1001.26,809.5,1005.85,908.5,1005.85,908.5Z" transform="translate(0.01 -5.08)" fill="#fff"/><path d="M953.35,627.44s-18.77,35.73-16.59,49.31,8.38,29,5.39,32.54a11,11,0,0,1-8.79,4.39c-3,.2-11,5.79-11,6.39s-7.39.6-14,3.4S892,727.86,892,727.86s-19-.6-20.77,1.2-3.59,12.57.2,21.16,8,15,11.18,16.17,23.36-5.59,39.73-7.19,34.14-14.57,34.14-14.57,19.57-7,23-18.77-4.19-76.46-4.19-76.46S969.52,619.25,953.35,627.44Z" transform="translate(0.01 -5.08)" opacity="0.03" style="isolation:isolate"/><path d="M951,624.44s-18.77,35.74-16.57,49.31,8.38,29,5.38,32.55a11,11,0,0,1-8.78,4.39c-3,.2-11,5.79-11,6.39s-7.39.6-14,3.39-16.37,4.39-16.37,4.39-19-.6-20.76,1.2-3.6,12.58.2,21.16,8,15,11.18,16.17,23.36-5.59,39.73-7.18,34.14-14.58,34.14-14.58,19.56-7,22.95-18.76-4.19-76.47-4.19-76.47S967.12,616.26,951,624.44Z" transform="translate(0.01 -5.08)" opacity="0.03" style="isolation:isolate"/><path d="M952.76,625.64S934,661.38,936.19,675s8.38,28.95,5.39,32.54a11,11,0,0,1-8.79,4.4c-3,.2-11,5.79-11,6.38s-7.38.6-14,3.4-16.37,4.39-16.37,4.39-19-.6-20.77,1.2-3.59,12.58.2,21.16,8,15,11.18,16.17,23.36-5.59,39.73-7.19,34.14-14.57,34.14-14.57,19.57-7,23-18.77-4.14-76.46-4.14-76.46S968.92,617.5,952.76,625.64Z" transform="translate(0.01 -5.08)" fill="#fff"/><path d="M952.35,721.5s-15-3-9.78,2,5.19,9.38,11.58,9.18S952.35,721.5,952.35,721.5Z" transform="translate(0.01 -5.08)" opacity="0.1" style="isolation:isolate"/><path d="M977.7,829.08s-6.78,4.59,6.19,15.17S977.7,829.08,977.7,829.08Z" transform="translate(0.01 -5.08)" opacity="0.1" style="isolation:isolate"/><path d="M964.76,866.81c0,.6-2.4,22,6.58,27.35S964.76,866.81,964.76,866.81Z" transform="translate(0.01 -5.08)" opacity="0.1" style="isolation:isolate"/><path d="M822.18,699.09c-7.24.25-22.88,2.46-14.77,17.59,7.17,13.39,19.22,4.44,26-2.35A25.51,25.51,0,0,0,822.18,699.09Z" transform="translate(0.01 -5.08)" fill="#ffb0b1"/><path d="M834.15,713.5Z" transform="translate(0.01 -5.08)" fill="#ffb0b1"/><path d="M833.5,714.21l.3-.31Z" transform="translate(0.01 -5.08)" fill="#ffb0b1"/><path d="M950.36,606.5c-7.68,5.25-14.12,9.68-15.38,10.6-3.44,2.55-10,17.52-14.23,25.16-3.37,6.15-14.32,7.73-18.45,8.12l.53-4.57c9.39-4.2,16.58-17.58,16.58-17.58L938,595.69l6.39,5.81Z" transform="translate(0.01 -5.08)" opacity="0.1" style="isolation:isolate"/><path d="M950.36,605.9c-7.68,5.25-14.12,9.68-15.38,10.61-3.44,2.54-10,17.51-14.23,25.15-3.37,6.15-14.32,7.73-18.45,8.12l.53-4.57c9.39-4.2,16.58-17.58,16.58-17.58L938,595.09l6.39,5.79S946.76,602.86,950.36,605.9Z" transform="translate(0.01 -5.08)" fill="#dce7ff"/><path d="M935.58,580.42A29.66,29.66,0,1,1,922.72,556,29.67,29.67,0,0,1,935.58,580.42Z" transform="translate(0.01 -5.08)" fill="#ffb0b1"/><path d="M987.34,680.17a26.36,26.36,0,0,1-9.57-10.28c-1.67-3.3-2.78-7.11-5.63-9.45-2.57-2.1-6-2.61-9.2-3.55-10.52-3.11-19.34-12.71-19.67-23.67-.16-5.16,1.45-10.31.72-15.42a17.19,17.19,0,0,0-3.34-7.95,27.44,27.44,0,0,0-2.89-3.11c-1.4-1.32-2.87-2.6-4.15-4a15.41,15.41,0,0,1-2.1-2.85,13.53,13.53,0,0,1-1.15-2.65c-2-6.12-.18-13.38-2.38-19.57l-.12-.34c-.83-2.2-2.52-4.4-4.87-4.57s-4.36,1.78-6.6,2.65c-4.69,1.82-9.75-1.28-13.66-4.44s-8.32-6.77-13.29-6.07c-3.29.47-5.89,2.71-8.92,3.87a12.75,12.75,0,0,1-2.11.61,29.65,29.65,0,0,1,57.17,11,29.24,29.24,0,0,1-.65,6.19c.05.14.1.27.16.41,1.16,3,2.47,6.08,3.62,8.74l5.65,5.12,6,5c7.83,6.6,21.36,18.22,28.34,25.33C984.84,637.5,986.76,661.84,987.34,680.17Z" transform="translate(0.01 -5.08)" opacity="0.1" style="isolation:isolate"/><path d="M880.17,550.5c1.43-2.91,2.14-6.17,3.85-8.93,2.51-4,6.89-6.56,11.39-8.11,11.75-4.05,36.58-9.93,44,0,1.46,2,2.67,4.22,4.69,5.6,1.54,1.05,3.4,1.5,5.09,2.29,4.73,2.22,7.75,7.06,9.36,12s2.09,10.24,3.27,15.33c1.51,6.53,4.16,12.72,6.8,18.87,3.11,7.26,6.41,14.79,12.41,19.92,8.19,7,10,16.91,17.6,24.59,9,9.12,8.71,24.17,4.07,36.12-.61,1.57-1.3,3.21-1.06,4.88s1.48,3.19,2.65,4.52l4.92,5.55c-11.64,2.81-24.81-3.27-30.23-13.94-1.67-3.3-2.78-7.1-5.64-9.45-2.56-2.1-6-2.6-9.19-3.54-10.52-3.12-19.34-12.73-19.67-23.69-.16-5.15,1.45-10.3.72-15.4a17,17,0,0,0-3.35-8c-2.75-3.59-6.9-6-9.14-10-3.79-6.69-.91-15.38-3.64-22.56-.84-2.2-2.52-4.4-4.87-4.57s-4.36,1.78-6.61,2.65c-4.68,1.82-9.74-1.27-13.65-4.44s-8.32-6.77-13.3-6.06c-3.29.46-5.88,2.7-8.91,3.87-2.24.86-6.78,1.63-8.74-.26C868.85,563.93,878.44,554.06,880.17,550.5Z" transform="translate(0.01 -5.08)" fill="#591d4b"/><path d="M981.76,665.89c-1.68-3.3-2.78-7.1-5.64-9.44-2.56-2.1-6-2.61-9.2-3.55-10.51-3.11-19.33-12.72-19.67-23.68-.16-5.15,1.45-10.31.73-15.41a17.1,17.1,0,0,0-3.35-7.95c-2.76-3.59-6.91-6-9.14-10-3.79-6.68-.91-15.37-3.65-22.56-.83-2.19-2.52-4.39-4.86-4.57s-4.37,1.79-6.61,2.66c-4.68,1.82-9.75-1.28-13.65-4.44s-8.33-6.77-13.3-6.07c-3.29.47-5.89,2.71-8.91,3.87-2.24.86-6.79,1.64-8.75-.25-4.12-4,5.47-13.85,7.19-17.39,1.43-2.92,2.14-6.17,3.86-8.93.09-.15.19-.3.29-.45a15.85,15.85,0,0,0-3.29,3.74c-1.71,2.76-2.42,6-3.85,8.93-1.73,3.54-11.32,13.42-7.19,17.39,2,1.9,6.5,1.12,8.74.26,3-1.17,5.62-3.41,8.91-3.87,5-.71,9.4,2.9,13.3,6.06s9,6.26,13.66,4.44c2.24-.87,4.2-2.83,6.6-2.65s4,2.37,4.87,4.57c2.73,7.18-.15,15.87,3.64,22.56,2.24,3.93,6.39,6.39,9.14,10a17,17,0,0,1,3.35,8c.73,5.1-.88,10.25-.72,15.4.33,11,9.15,20.57,19.67,23.69,3.17.94,6.63,1.44,9.19,3.54,2.87,2.35,4,6.15,5.64,9.45,5.42,10.67,18.59,16.75,30.23,13.94l-2.32-2.62C996.58,680.71,986.37,675,981.76,665.89Z" transform="translate(0.01 -5.08)" opacity="0.1" style="isolation:isolate"/><path d="M912.82,620.25c-1.31,2-5.06,12.24-8.19,21.18C901.7,640.29,899,633,899,633l15.62-22.22C916.26,613,915.21,616.65,912.82,620.25Z" transform="translate(0.01 -5.08)" opacity="0.1" style="isolation:isolate"/><path d="M913.42,619.65c-1.31,2-5.06,12.24-8.19,21.18-2.93-1.13-5.59-8.41-5.59-8.41l15.62-22.21C916.86,612.4,915.81,616.06,913.42,619.65Z" transform="translate(0.01 -5.08)" fill="#dce7ff"/><path d="M822.6,721.81l-8.66-27.31a2.55,2.55,0,0,1,1.65-3.21h0a2.56,2.56,0,0,1,3.2,1.66l8.66,27.28-.86,5.71Z" transform="translate(0.01 -5.08)" fill="#be8b87"/><path d="M814.76,692.1h0a2.56,2.56,0,0,1,3.21,1.66L826.63,721l-.65,4.28.63.66.86-5.71L818.76,693a2.56,2.56,0,0,0-3.2-1.66h0a2.6,2.6,0,0,0-1.33,1A3.54,3.54,0,0,1,814.76,692.1Z" transform="translate(0.01 -5.08)" fill="#fff" opacity="0.1" style="isolation:isolate"/><polygon points="822.61 716.73 827.47 715.19 826.75 719.87 826.61 720.9 825.18 719.42 822.61 716.73" fill="#efc8c4"/><path d="M825.18,724.5a.86.86,0,0,1,.31-.26.44.44,0,0,1,.47,0,1,1,0,0,1,.17.27.87.87,0,0,0,.62.41l-.15,1Z" transform="translate(0.01 -5.08)" fill="#727a9c"/><path d="M813.89,704.2s17.37-.1,13.28,7.29-10.48,8.28-10.48,8.28Z" transform="translate(0.01 -5.08)" fill="#ffb0b1"/><path d="M705.86,372.55h-.75c-29.84,0-56.23,15.79-71.41,39.09-15.18-23.3-41.57-39.09-71.41-39.09h-.75a85,85,0,0,0-84.19,84.95c0,27.81,12.18,67.27,35.93,99.74,45.25,61.87,120.42,116,120.42,116s75.17-54.12,120.41-116C777.87,524.77,790,485.31,790,457.5A85,85,0,0,0,705.86,372.55ZM695.13,562a16.85,16.85,0,0,1-15.67-10.82H661.62a5.64,5.64,0,0,1-5.31-3.84l-5.48-16.51-17.34,60.59a5.6,5.6,0,0,1-5.38,4.05h-.35a5.54,5.54,0,0,1-5.2-4.64L604.69,483.35,591.63,547a5.57,5.57,0,0,1-5.41,4.23H561.09a5.59,5.59,0,1,1-.47-11.17h21.2l18.5-85.51a5.61,5.61,0,0,1,11,.46L629.57,564.6l15.54-54.21a5.5,5.5,0,0,1,5.23-4h.11a5.58,5.58,0,0,1,5.3,3.84L665.66,540h13.58a16.76,16.76,0,1,1,15.92,22Z" transform="translate(0.01 -5.08)" fill="#6c63ff"/><circle cx="62.28" cy="142.95" r="17.6" fill="#e6e6e6"/><circle cx="115.08" cy="142.95" r="17.6" fill="#e6e6e6"/><circle cx="167.86" cy="148.03" r="17.6" transform="translate(-5.14 284.93) rotate(-80.78)" fill="#e6e6e6"/><circle cx="220.66" cy="142.95" r="17.6" fill="#e6e6e6"/><circle cx="273.45" cy="142.95" r="17.6" fill="#e6e6e6"/><circle cx="326.24" cy="142.95" r="17.6" fill="#e6e6e6"/><circle cx="379.03" cy="142.95" r="17.6" fill="#e6e6e6"/><path d="M419.69,169.46H21.62a7.18,7.18,0,0,1-7.17-7.16V133.76a7.17,7.17,0,0,1,7.17-7.16H419.69a7.16,7.16,0,0,1,7.16,7.16V162.3A7.17,7.17,0,0,1,419.69,169.46Zm-398.07-40a4.3,4.3,0,0,0-4.3,4.3V162.3a4.29,4.29,0,0,0,4.3,4.29H419.69a4.3,4.3,0,0,0,4.3-4.29V133.76a4.31,4.31,0,0,0-4.3-4.3Z" transform="translate(0.01 -5.08)" fill="#e6e6e6"/><path d="M106.81,9.19a4.12,4.12,0,0,1,4.11,4.12v89.16a4.11,4.11,0,0,1-4.11,4.11H19.47a4.12,4.12,0,0,1-4.12-4.11V13.31a4.13,4.13,0,0,1,4.12-4.12h87.34m0-4.11H19.47a8.22,8.22,0,0,0-8.23,8.23v89.16a8.23,8.23,0,0,0,8.23,8.23h87.34a8.24,8.24,0,0,0,8.23-8.23V13.31a8.23,8.23,0,0,0-8.23-8.23Z" transform="translate(0.01 -5.08)" fill="#e6e6e6"/><path d="M405.11,9.19a4.12,4.12,0,0,1,4.11,4.12v89.16a4.11,4.11,0,0,1-4.11,4.11H317.77a4.11,4.11,0,0,1-4.11-4.11V13.31a4.12,4.12,0,0,1,4.11-4.12h87.34m0-4.11H317.77a8.22,8.22,0,0,0-8.23,8.23h0v89.16a8.23,8.23,0,0,0,8.23,8.23h87.34a8.24,8.24,0,0,0,8.23-8.23h0V13.31a8.23,8.23,0,0,0-8.23-8.23Z" transform="translate(0.01 -5.08)" fill="#e6e6e6"/><path d="M702,140.63a4.12,4.12,0,0,1,4.12,4.11V233.9A4.14,4.14,0,0,1,702,238H614.62a4.12,4.12,0,0,1-4.11-4.12V144.74a4.11,4.11,0,0,1,4.11-4.11H702m0-4.12H614.62a8.24,8.24,0,0,0-8.23,8.23V233.9a8.23,8.23,0,0,0,8.23,8.23H702a8.22,8.22,0,0,0,8.23-8.23V144.74a8.23,8.23,0,0,0-8.23-8.23Z" transform="translate(0.01 -5.08)" fill="#e6e6e6"/><path d="M257.1,110.7H167.47a9.17,9.17,0,0,1-9.14-9.15V37.42a9.15,9.15,0,0,1,9.14-9.14H257.1a9.14,9.14,0,0,1,9.14,9.14v64.13A9.15,9.15,0,0,1,257.1,110.7ZM167.47,32.39a5,5,0,0,0-5,5v64.13a5,5,0,0,0,5,5H257.1a5,5,0,0,0,5-5V37.42a5,5,0,0,0-5-5Z" transform="translate(0.01 -5.08)" fill="#e6e6e6"/><path d="M554.5,146.23l-86.08-25a9.15,9.15,0,0,1-6.24-11.33L480,48.35a9.16,9.16,0,0,1,11.33-6.24l86.08,25a9.15,9.15,0,0,1,6.24,11.33L565.82,140A9.14,9.14,0,0,1,554.5,146.23ZM490.23,46.07A5,5,0,0,0,484,49.5l-17.87,61.59a5,5,0,0,0,3.43,6.23l86.08,25a5,5,0,0,0,6.23-3.43l17.86-61.59A5,5,0,0,0,576.31,71Z" transform="translate(0.01 -5.08)" fill="#e6e6e6"/><path d="M93.18,32.63H34.91a2.06,2.06,0,0,1,0-4.12H93.18a2.06,2.06,0,0,1,0,4.12Z" transform="translate(0.01 -5.08)" fill="#9d9cb5"/><path d="M93.18,47.2H34.91a2.06,2.06,0,0,1,0-4.12H93.18a2.06,2.06,0,0,1,0,4.12Z" transform="translate(0.01 -5.08)" fill="#9d9cb5"/><path d="M93.18,61.76H34.91a2.06,2.06,0,1,1,0-4.11H93.18a2.06,2.06,0,1,1,0,4.11Z" transform="translate(0.01 -5.08)" fill="#9d9cb5"/><path d="M93.18,76.33H34.91a2.06,2.06,0,1,1,0-4.11H93.18a2.06,2.06,0,1,1,0,4.11Z" transform="translate(0.01 -5.08)" fill="#9d9cb5"/><path d="M93.18,90.9H34.91a2.06,2.06,0,1,1,0-4.11H93.18a2.06,2.06,0,1,1,0,4.11Z" transform="translate(0.01 -5.08)" fill="#9d9cb5"/><path d="M391.49,32.63H333.21a2.06,2.06,0,1,1,0-4.12h58.3a2.06,2.06,0,0,1,0,4.12Z" transform="translate(0.01 -5.08)" fill="#9d9cb5"/><path d="M391.49,47.2H333.21a2.06,2.06,0,1,1,0-4.12h58.3a2.06,2.06,0,0,1,0,4.12Z" transform="translate(0.01 -5.08)" fill="#9d9cb5"/><path d="M391.49,61.76H333.21a2.06,2.06,0,1,1,0-4.11h58.3a2.06,2.06,0,0,1,0,4.11Z" transform="translate(0.01 -5.08)" fill="#9d9cb5"/><path d="M391.49,76.33H333.21a2.06,2.06,0,1,1,0-4.11h58.3a2.06,2.06,0,0,1,0,4.11Z" transform="translate(0.01 -5.08)" fill="#9d9cb5"/><path d="M391.49,90.9H333.21a2.06,2.06,0,1,1,0-4.11h58.28a2.06,2.06,0,0,1,0,4.11Z" transform="translate(0.01 -5.08)" fill="#9d9cb5"/><path d="M688.34,164.06H630.07a2.06,2.06,0,0,1,0-4.11h58.3a2.06,2.06,0,0,1,0,4.11Z" transform="translate(0.01 -5.08)" fill="#9d9cb5"/><path d="M688.34,178.63H630.07a2.06,2.06,0,1,1,0-4.11h58.27a2.06,2.06,0,1,1,0,4.11Z" transform="translate(0.01 -5.08)" fill="#9d9cb5"/><path d="M688.34,193.2H630.07a2.06,2.06,0,1,1,0-4.11h58.29a2.06,2.06,0,0,1,0,4.11Z" transform="translate(0.01 -5.08)" fill="#9d9cb5"/><path d="M688.34,207.77H630.07a2.06,2.06,0,0,1,0-4.12h58.3a2.06,2.06,0,0,1,0,4.12Z" transform="translate(0.01 -5.08)" fill="#9d9cb5"/><path d="M688.34,222.34H630.07a2.06,2.06,0,0,1,0-4.12h58.3a2.06,2.06,0,0,1,0,4.12Z" transform="translate(0.01 -5.08)" fill="#9d9cb5"/><path d="M241.42,57H183.15a2.06,2.06,0,0,1,0-4.12h58.27a2.06,2.06,0,0,1,0,4.12Z" transform="translate(0.01 -5.08)" fill="#9d9cb5"/><path d="M241.42,71.55H183.15a2.06,2.06,0,0,1,0-4.12h58.27a2.06,2.06,0,0,1,0,4.12Z" transform="translate(0.01 -5.08)" fill="#9d9cb5"/><path d="M241.42,86.11H183.15a2.06,2.06,0,0,1,0-4.11h58.27a2.06,2.06,0,1,1,0,4.11Z" transform="translate(0.01 -5.08)" fill="#9d9cb5"/><path d="M554.4,90.27,498.44,74a2.06,2.06,0,1,1,1.14-4l56,16.23a2.06,2.06,0,1,1-1.15,4Z" transform="translate(0.01 -5.08)" fill="#9d9cb5"/><path d="M550.34,104.27,494.38,88a2.06,2.06,0,0,1,1.14-4l56,16.23a2.06,2.06,0,0,1-1.15,4Z" transform="translate(0.01 -5.08)" fill="#9d9cb5"/><path d="M546.29,118.26l-56-16.23a2.06,2.06,0,1,1,1.15-4l56,16.23a2.06,2.06,0,1,1-1.14,4Z" transform="translate(0.01 -5.08)" fill="#9d9cb5"/><rect x="666.1" y="313.99" width="438.87" height="2.11" fill="#e6e6e6"/><polygon points="951.56 310.7 871.61 310.7 874.32 275.46 948.85 275.46 951.56 310.7" fill="#e6e6e6"/><rect x="867.55" y="306.63" width="89.44" height="8.13" fill="#e6e6e6"/><path d="M1064.7,53.57H759.14A8.13,8.13,0,0,0,751,61.7h0V248h321.84V61.7a8.13,8.13,0,0,0-8.14-8.13Z" transform="translate(0.01 -5.08)" fill="#3f3d56"/><path d="M751,248v30.49a8.13,8.13,0,0,0,8.14,8.13H1064.7a8.13,8.13,0,0,0,8.14-8.13h0V248Z" transform="translate(0.01 -5.08)" fill="#e6e6e6"/><rect x="767.27" y="65.43" width="289.99" height="162.61" fill="#e6e6e6"/><circle cx="912.26" cy="261.91" r="8.13" fill="#3f3d56"/><circle cx="776.31" cy="70.75" r="1.54" fill="#fff"/><circle cx="782.17" cy="70.75" r="1.54" fill="#fff"/><circle cx="788.03" cy="70.75" r="1.54" fill="#fff"/><rect x="774.77" y="76" width="274.13" height="136.57" fill="#fff"/><path d="M793,101.85a1,1,0,0,0-1,1v49a1,1,0,0,0,1,1h56.57a1,1,0,0,0,1-1v-49a1,1,0,0,0-1-1Z" transform="translate(0.01 -5.08)" fill="#e6e6e6"/><path d="M883.82,102a1,1,0,0,0-1,1V151.8a1,1,0,0,0,1,1h56.39a1,1,0,0,0,1-1V103a1,1,0,0,0-1-1Z" transform="translate(0.01 -5.08)" fill="#e6e6e6"/><path d="M973.7,101.49a1,1,0,0,0-1,1V151.8a1,1,0,0,0,1,1h57a1,1,0,0,0,1-1V102.46a1,1,0,0,0-1-1Z" transform="translate(0.01 -5.08)" fill="#e6e6e6"/><path d="M794,177a2,2,0,0,0,0,4h53.19a2,2,0,0,0,0-4Z" transform="translate(0.01 -5.08)" fill="#e6e6e6"/><path d="M794,186.55a2,2,0,0,0,0,4h24a2,2,0,0,0,0-4Z" transform="translate(0.01 -5.08)" fill="#6c63ff"/><path d="M885.83,177a2,2,0,0,0,0,4H939a2,2,0,0,0,0-4Z" transform="translate(0.01 -5.08)" fill="#e6e6e6"/><path d="M885.83,186.55a2,2,0,0,0,0,4h23.95a2,2,0,0,0,0-4Z" transform="translate(0.01 -5.08)" fill="#6c63ff"/><path d="M975.34,177a2,2,0,0,0,0,4h53.19a2,2,0,0,0,0-4Z" transform="translate(0.01 -5.08)" fill="#e6e6e6"/><path d="M794,167.17a2,2,0,0,0,0,4h53.19a2,2,0,0,0,0-4Z" transform="translate(0.01 -5.08)" fill="#e6e6e6"/><path d="M885.83,167.17a2,2,0,0,0-2,2,2,2,0,0,0,2,2H939a2,2,0,0,0,0-4Z" transform="translate(0.01 -5.08)" fill="#e6e6e6"/><path d="M975.34,167.17a2,2,0,0,0,0,4h53.19a2,2,0,0,0,0-4Z" transform="translate(0.01 -5.08)" fill="#e6e6e6"/><path d="M975.34,186.55a2,2,0,0,0,0,4h23.95a2,2,0,0,0,0-4Z" transform="translate(0.01 -5.08)" fill="#6c63ff"/></svg>