<svg id="e6c166b3-7c37-4620-9cc3-9b6243eca915" data-name="bb050be9-cb36-42a9-a117-50b5c0633a87" xmlns="http://www.w3.org/2000/svg" viewBox="0 0 1098.76 1094.43"><ellipse cx="549.38" cy="1062.83" rx="549.38" ry="31.6" fill="#f2f2f2"/><rect x="80.28" y="546.43" width="28.6" height="22.24" transform="translate(-466.21 630.47) rotate(-87.78)" fill="#6c63ff"/><path d="M184.29,642.92s30.78-14.7,30.29-2-31,21.05-31,21.05Z" fill="#ffb9b9"/><path d="M167.4,750.38s14.52,35.55,19.89,61.19,13.54,60.95,3,86-40.4,98.6-40.7,106.53,2.56,16-3.8,15.76-40.9-11.13-42.3-16,11.79-17,11.79-17l32.6-102.09-34-66.5-24.5,99.21-4.81,123.83s-23.56-7.27-27-1c0,0-10.56-14.72-11.9-21.13s5-128.59,5-128.59S29,751.38,46.5,752.06,132.37,710.87,167.4,750.38Z" fill="#2f2e41"/><path d="M146.07,1013.49s16.11,35.6,17.64,37.25,12,18,4.08,17.65-26.68-9-40.47-22.24-32-36.22-30.34-37.75,13-5.86,13-5.86Z" fill="#2f2e41"/><path d="M88.71,1033.25s1,15.94,3.9,22.41,2.56,16-5.38,15.69-28.45-4.28-28.45-4.28-1.22-9.59.43-11.12,8.67-18.74,5.68-23.62S88.71,1033.25,88.71,1033.25Z" fill="#2f2e41"/><path d="M70,516.07s-17,26.37-23.55,32.47,12,19.55,12,19.55l33.21,4.46s-.41-30.22,1.3-33.34S70,516.07,70,516.07Z" fill="#ffb9b9"/><path d="M98.83,550.57S92,563,85.64,562.78,46.45,548.54,45,543.72s-10.84,34.55-10.84,34.55l80.38,141.45,19.6-13.55-9.5-83-7.8-44.82Z" fill="#6c63ff"/><path d="M42.08,677.16c3.2,6.7,5.21,13.7,4.93,20.86v1c-.76,14.69-6.18,31.69-8.12,44-1.46,8.85-1.06,15.33,4.11,16.85,12.58,3.67-1.83,6.29,46.83,22.49s57.15,2.21,57.27-1-6.89-27.3-5.24-28.83,23.07,20,29.55,17,.74-19,.74-19-14.59-34-14.28-41.89-22.09-45.38-22.09-45.38L120.55,564.1s-5.86-13-13.74-14.85-14.41,2.63-14.41,2.63L105.58,581l13.91,51.41-2.33,19s-16.17-34-26.79-47.15-33.26-44.21-33.26-44.21-5.29-17.84-1.3-23.17-16.64-6.15-25.44,15.77c-4.67,11.62-12.24,28.94-17,45.07C9.14,612,7.14,625.37,11.37,633,17.77,644.7,33.87,660,42.08,677.16Z" fill="#575a89"/><path d="M11.37,633c6.4,11.66,22.5,27,30.71,44.12,2.14-7.73,4.76-15.72,4.76-15.72s10-53.67-19.64-67.57a19.86,19.86,0,0,0-13.79,3.86C9.18,612.05,7.18,625.4,11.37,633Z" opacity="0.1" style="isolation:isolate"/><path d="M129.16,629.66,154.31,637l34.93,1.36,3.59,30.34-57.4,4.18S121.1,632.52,129.16,629.66Z" fill="#575a89"/><path d="M88.14,731.7s33.65,5.58,26,15.71-37.52-.54-37.52-.54Z" fill="#ffb9b9"/><path d="M47,699c-.76,14.69-6.18,31.69-8.12,44,10.72,10.15,20.92,19.1,24.76,19.25,7.94.31,20.7-.79,25.4,1s7.42-28.35,7.42-28.35-2.81-9.64-15.33-14.9C72.69,716.46,56.49,706.81,47,699Z" opacity="0.1" style="isolation:isolate"/><path d="M27.57,584.38S.7,580.16,2.15,624.73s-2.83,73,8,81.4S56,752.43,64,752.73s20.7-.78,25.4,1,7.46-28.33,7.46-28.33S94,715.74,81.5,710.49s-42-23.89-41.75-30.24,7.46-28.33,7.46-28.33S57.24,598.25,27.57,584.38Z" fill="#575a89"/><circle cx="93.65" cy="520.16" r="34.95" transform="translate(-28.62 5.97) rotate(-3.17)" fill="#ffb9b9"/><path d="M117.19,470.07a6.76,6.76,0,0,0,2.94,1.47,2.1,2.1,0,0,0,2.43-1.68c.8,1.66,1.7,3.42,3.33,4.28s4.16.13,4.39-1.69a7.71,7.71,0,0,0,1.78,3.74c1,1,2.85,1.21,3.73.13-.71,3.9-.27,7.92-.5,11.89S134,496.38,131,499c-4.37,3.8-10.94,2.86-16.69,2.14a5.18,5.18,0,0,0-2.62.14c-2.15.92-2,3.92-2.08,6.26A17.37,17.37,0,0,1,94.4,524a8.66,8.66,0,0,1-6.48-1.58c-1.63-1.38-2.46-3.63-4.33-4.67-3-1.69-6.73.77-9,3.45s-4.41,6-7.86,6.46c-4.56.65-8-4-9.73-8.27a48.16,48.16,0,0,1,1-37.47C67.53,461.19,100,457.87,117.19,470.07Z" fill="#2f2e41"/><rect x="201.75" width="895.89" height="28.5" fill="#f2f2f2"/><circle cx="225.72" cy="13.83" r="7.38" fill="#6c63ff"/><circle cx="249.7" cy="13.83" r="7.38" fill="#6c63ff"/><circle cx="273.67" cy="13.83" r="7.38" fill="#6c63ff"/><polygon points="202.38 549.52 201.75 550.44 201.75 873.71 1097.64 873.71 1097.64 305.88 1086.96 307.24 202.38 549.52" fill="#3f3d56"/><rect x="266.4" y="190.66" width="250.18" height="10.09" fill="#3f3d56"/><rect x="266.4" y="212.86" width="250.18" height="10.09" fill="#3f3d56"/><rect x="266.4" y="235.04" width="84.74" height="10.09" fill="#3f3d56"/><rect x="776.59" y="543.55" width="250.18" height="10.09" fill="#fff"/><rect x="776.59" y="565.74" width="250.18" height="10.09" fill="#fff"/><rect x="776.59" y="587.94" width="84.74" height="10.09" fill="#fff"/><circle cx="621.16" cy="852.64" r="9.84" fill="#f2f2f2"/><circle cx="649.7" cy="853.63" r="9.84" fill="#f2f2f2"/><circle cx="678.23" cy="854.61" r="9.84" fill="#f2f2f2"/><circle cx="649.78" cy="853.63" r="7.87" fill="#3f3d56"/><rect x="348.9" y="306.13" width="84.74" height="19.33" fill="#3f3d56"/><rect x="852.58" y="640.57" width="84.74" height="19.33" fill="#fff"/><circle cx="391.75" cy="315.9" r="58.62" fill="#6c63ff" opacity="0.3" style="isolation:isolate"/><circle cx="391.75" cy="315.9" r="39.08" fill="#6c63ff" opacity="0.3" style="isolation:isolate"/><circle cx="391.75" cy="315.9" r="27.14" fill="#6c63ff"/><circle cx="884.97" cy="170.63" r="58.62" fill="#6c63ff" opacity="0.3" style="isolation:isolate"/><circle cx="884.97" cy="170.63" r="39.08" fill="#6c63ff" opacity="0.3" style="isolation:isolate"/><circle cx="884.97" cy="170.63" r="27.14" fill="#6c63ff"/><circle cx="895.42" cy="650.33" r="58.62" fill="#6c63ff" opacity="0.3" style="isolation:isolate"/><circle cx="895.42" cy="650.33" r="39.08" fill="#6c63ff" opacity="0.3" style="isolation:isolate"/><circle cx="895.42" cy="650.33" r="27.14" fill="#6c63ff"/><path d="M1057.4,840.17C1070.77,863,1097.72,872,1097.72,872s5.28-27.93-8.08-50.72-40.31-31.81-40.31-31.81S1044,817.38,1057.4,840.17Z" fill="#f2f2f2"/><path d="M1065.75,832.21c23.11,12.8,32.79,39.52,32.79,39.52s-27.79,6-50.9-6.79-32.79-39.51-32.79-39.51S1042.67,819.41,1065.75,832.21Z" fill="#6c63ff"/><circle cx="391.27" cy="712.13" r="58.62" fill="#6c63ff" opacity="0.3" style="isolation:isolate"/><circle cx="391.27" cy="712.13" r="39.08" fill="#6c63ff" opacity="0.3" style="isolation:isolate"/><circle cx="391.27" cy="712.13" r="27.14" fill="#6c63ff"/></svg>