<svg id="ab013975-e9cf-4d43-bb81-d343ec994db6" data-name="bb328e6d-602c-4acd-b0f5-b204c203e1c3" xmlns="http://www.w3.org/2000/svg" viewBox="0 0 823.54 802.37"><polygon points="559.25 792.57 550.18 792.57 545.86 757.59 559.25 757.59 559.25 792.57" fill="#9e616a"/><path d="M561.56,817.39H532.32V817a11.38,11.38,0,0,1,11.38-11.38h17.86Z" transform="translate(0 -16.03)" fill="#90917b"/><polygon points="524.48 792.57 515.41 792.57 511.1 757.59 524.48 757.59 524.48 792.57" fill="#9e616a"/><path d="M526.79,817.39H497.55V817a11.39,11.39,0,0,1,11.38-11.38h17.86Z" transform="translate(0 -16.03)" fill="#90917b"/><path id="e8b07e86-c83c-4b91-9237-b7e6737ee591" data-name="ae5c11dc-7e77-468a-a39f-cc8da6ee1565" d="M132.66,816v-281a6.53,6.53,0,0,1,6.53-6.53H168.3a6.53,6.53,0,0,1,6.53,6.53h0V816.77Z" transform="translate(0 -16.03)" fill="#c0c2a9"/><path id="aedff323-97e7-409b-9ed9-5913ebb1c43c" data-name="bc696f83-47b6-45c9-967f-bb64f1f3bee5" d="M228.83,816.92V593.52a6.52,6.52,0,0,1,6.52-6.53h29.12a6.52,6.52,0,0,1,6.52,6.53h0V816.44Z" transform="translate(0 -16.03)" fill="#c0c2a9"/><path d="M347.06,333.69,251.1,499l-96.52-54.2-95,105.94a2.22,2.22,0,0,1-3.31-3l97.36-108.59L249.46,493l96.38-166.07" transform="translate(0 -16.03)" fill="#c0c2a9" stroke="#c0c2a9" stroke-miterlimit="10" stroke-width="4"/><circle id="fd9fc02f-0a31-4cc1-879c-f5bdcef8959c" data-name="a1f8771a-4bf9-4603-9747-6ae739e4ad47" cx="57.58" cy="533.25" r="20.71" fill="#b4c738"/><circle id="a9771050-9eb9-450a-a8c4-61a638d80687" data-name="ffdbdf53-78c2-412f-9ede-372406e5d245" cx="153.74" cy="425.98" r="20.71" fill="#333"/><circle id="baaf748e-e80f-4307-9fbc-4fd5fa8e4526" data-name="b7cff929-f00d-4f86-944c-e500b6ceb6ad" cx="249.91" cy="479.98" r="20.71" fill="#686868"/><circle id="a3f65994-bd54-4f67-a1a7-9cfe81094c53" data-name="eabc0b76-6faa-4fa0-934c-daff28b491dd" cx="346.08" cy="314.28" r="20.71" fill="#b4c738"/><path id="acb32f4f-5435-4176-8d52-1796b010e501" data-name="b579ef19-595a-43de-9b6d-0ead8268ca48" d="M523.69,645.93c7.76.93,27.58-6.14,28.65,4.62,10.21,30,9.91,145.18,9.91,145.18l-15.54.74S534.3,705,528.43,685.41C525.48,709.2,526,800.17,526,800.17l-14.06.74s-12.6-77.46-12.68-100.2c-1.53-16.66,2.23-41.33.62-57.43a61.74,61.74,0,0,0,23.81,2.65Z" transform="translate(0 -16.03)" fill="#90917b"/><path id="fa133062-2cdb-463f-b869-1bbb3d79f967" data-name="b3465432-03e0-48eb-8016-b04aa244e72c" d="M421.16,815.93V492.1c0-4.16,2.92-7.52,6.53-7.52H456.8c3.61,0,6.53,3.36,6.53,7.52V816.77Z" transform="translate(0 -16.03)" fill="#c0c2a9"/><path id="a28c21b5-e232-4839-8209-4123716d5888" data-name="ac7870c5-efcc-4c4b-b17f-07e0bff4d096" d="M497.32,558.79A97.08,97.08,0,0,0,486,540.91a28,28,0,0,1-2.52-3.43c-1.59-2.76-2.06-6-3.07-9-2.81-8.46-9.82-15.26-11.53-24-.62-3.18-5.87,6.06-4.49,10,2.46,7.13,2.78,14.69,5.92,21.59s6.82,13.51,9.52,20.56c1.54,4,2.77,8.13,5,11.83s5.77,6.8,10,7.36a25,25,0,0,1,1.2-7.91C497,565,498.66,561.55,497.32,558.79Z" transform="translate(0 -16.03)" fill="#9e616a"/><path id="a8128cb3-3d2a-4857-b4b2-f1c1ed6da181" data-name="be4b35b3-6955-40b7-9549-45fdba6a2930" d="M543.86,563.58a40.82,40.82,0,0,1,2.4-15.37,16.09,16.09,0,0,0,1.42-5.81,14.48,14.48,0,0,0-1.79-5.26,132.94,132.94,0,0,1-6.66-18.1l-3.7-11.58c-1.21-.88,5.84-1.19,7.34.89,4.91,6.82,8.63,14.66,12.52,22.11a37,37,0,0,1,2.53,5.54,30.42,30.42,0,0,1,1.33,9.57,134.2,134.2,0,0,1-1.62,18.1c-.53,3.77-1.22,7.86-4.07,10.36A58.35,58.35,0,0,0,543.86,563.58Z" transform="translate(0 -16.03)" fill="#9e616a"/><circle id="ba4d31a9-1c35-4382-bc9b-faf1a00208bb" data-name="a7d383a2-21d6-4551-be8a-8c82a5e576cb" cx="524.3" cy="526.21" r="15.35" fill="#9e616a"/><path id="e3807aad-e1b8-454d-9d01-89780bfa9bed" data-name="fb091cb1-8ad4-4d57-b74d-c940c723d6bf" d="M511.82,526.92a2.67,2.67,0,0,1,.56-2.75c.39-.3.9-.41,1.31-.7a5.64,5.64,0,0,0,1.4-1.78,7.62,7.62,0,0,1,9.55-2.42c2.54,1.32,4.07,4,6.33,5.77,1.14.93,2.47,1.62,3.62,2.55a14.83,14.83,0,0,1,4.7,7.6,43.07,43.07,0,0,1,1.31,9,8,8,0,0,1-.11,2.72,7.39,7.39,0,0,1-1,2.11,23.43,23.43,0,0,1-9.21,8.52,14.21,14.21,0,0,1-12.26.21,2.1,2.1,0,0,1-.94-.75,2.65,2.65,0,0,1-.15-1.62,11.17,11.17,0,0,0-1.22-6.22c-.71-1.41-1.76-2.62-2.32-4.07a14,14,0,0,1-.66-5C512.63,535.59,512.93,531.18,511.82,526.92Z" transform="translate(0 -16.03)" fill="#0b0b19"/><path id="b61e048f-5233-41bd-9216-e74f1033ce70" data-name="ef6ae9ea-be37-4bc6-b1be-067860dc7e9d" d="M36.49,816.37V660c0-2,2.92-3.64,6.53-3.64H72.13c3.61,0,6.53,1.63,6.53,3.64V816.77Z" transform="translate(0 -16.03)" fill="#c0c2a9"/><path id="edfb1191-bc2c-4c15-92af-5b38150450a2" data-name="b4c810f7-8361-4f56-9780-d97c96bbbba4" d="M606.72,818.4H.74a.74.74,0,0,1,0-1.48h606a.74.74,0,0,1,0,1.48Z" transform="translate(0 -16.03)" fill="#191919"/><path id="a27a9193-0416-42eb-bbec-4f0ad4c1e401" data-name="b32730d1-ac43-40b1-a176-73e18bf362e5" d="M325,815.81V448.33c0-4.71,2.92-8.53,6.52-8.53h29.12c3.6,0,6.52,3.82,6.52,8.53V816.77Z" transform="translate(0 -16.03)" fill="#b4c738"/><circle cx="463.96" cy="489.87" r="6.66" fill="#a0616a"/><circle cx="537.93" cy="486.91" r="6.66" fill="#a0616a"/><path d="M554.11,585.36c.65-.59,5.95-31.57,5.92-32.27-.09-3.81-11.73-8.17-14.06-6.65s-6,17.84-8.49,20.83l-2.6-4.56H514.16L512.91,565c-2.72-1.63-5.17-3.14-6-3.64a3.51,3.51,0,0,0-1-.48,15.07,15.07,0,0,1-5.92-2.78c-1.7-1.31-9.59-15-11.71-14.66-2.39.4-10.45,7.37-10.36,14,1,0,14.22,26.37,14.4,27.36,1,4.15,4.36,64.78,5.44,67.61,5-.48,1.05-1.34,5.87,0,5.18,1.44,10.66-.12,16-.7a62.64,62.64,0,0,1,6.71-.29c8.13,0,19.75.49,27.63,2.51,0-5.17-4.49-16.34-6.17-21.21a14.12,14.12,0,0,1,0-4.4C548,626.63,552.36,587.33,554.11,585.36Z" transform="translate(0 -16.03)" fill="#5e5e5e"/><path d="M496,269.42c0,.43,0,.85,0,1.27a19.42,19.42,0,0,1-1.8,7l0,.05L494,278a17.71,17.71,0,0,1-1,1.8,19.32,19.32,0,0,1-15.86,8.93l.19,11,2.49-1.31.45.85-2.92,1.54.35,20.43v.28l-1.93.43v-.28l.61-32.94a19.28,19.28,0,0,1-13.65-5.94l-.36-.38h0a19.42,19.42,0,0,1-3.52-5.46l.05.07A19.36,19.36,0,0,1,468,252.1l.2-.1a19.36,19.36,0,0,1,25.09,7.62c.12.19.23.4.34.6A19.2,19.2,0,0,1,496,269.42Z" transform="translate(0 -16.03)" fill="#686868"/><circle cx="493.4" cy="236.34" r="25.36" fill="#686868"/><path d="M474.67,235.44a25.36,25.36,0,0,0,42.26,26.84,25.36,25.36,0,1,1-42.26-26.84Z" transform="translate(0 -16.03)" fill="#fff" opacity="0.2" style="isolation:isolate"/><polygon points="494.77 306.99 492.18 306.26 492.18 305.99 492.96 263.8 493 261.7 493 261.64 493.14 254.27 493.33 243.59 493.33 243.58 493.47 236.34 493.54 236.34 493.67 244.19 493.85 254.4 493.98 261.64 493.98 261.7 493.98 261.99 493.98 262 494.23 276.12 494.26 277.52 494.76 306.71 494.77 306.99" fill="#c0c2a9"/><rect x="490.79" y="293.32" width="5.21" height="1.38" transform="translate(-80.15 247.67) rotate(-27.77)" fill="#c0c2a9"/><path d="M820.42,92.88a425.71,425.71,0,0,0-95.91,2.24c-15.37,2.11-31,4.39-46.07,9.48-12.15,4.11-26.25,11-33.82,27.19a37.67,37.67,0,0,0-2.7,23A53.53,53.53,0,0,0,653,177.62c11,13.81,24.66,21.85,36.86,32.82a209.62,209.62,0,0,1,55.75,81.35c5.75,15.09,11.23,35.16,4.82,51.8-6.28,16.29-20.3,21.9-31.74,24.55-14.33,3.32-29.09,2.42-43.48.56a310.61,310.61,0,0,1-47-10.45c-30.44-8.88-60.6-20.17-91.46-25.31a175.38,175.38,0,0,0-46.63-2.05c-14.05,1.44-28.22,4.82-41.41,12.51-10.17,5.93-21,14.9-26.5,29.85-5.3,14.42-3.23,31.05,2.53,44.35,6.94,16,17.76,27,29,35,12.81,9.13,26.5,15.05,40.21,20.08,7,2.55,13.95,4.86,20.95,7.15,1.45.48,2.08-2.92.61-3.4-14.1-4.63-28.24-9.27-42-16-12.73-6.2-25.75-14.15-36.18-27.16-8.43-10.54-16.44-25.92-15.95-43.41s10.25-29.95,19.79-37.53c11.93-9.47,25.49-14.08,38.77-16.49a156,156,0,0,1,45.8-.95c30.79,3.56,60.89,14.21,91.08,23.51,29.32,9,59.57,17.38,89.62,15.07,11.91-.92,24.68-3.51,35.19-12.65a39.06,39.06,0,0,0,11.61-17.75,58.91,58.91,0,0,0,2-23.36c-1.71-17.39-8.51-33.51-15.29-47.36A215.42,215.42,0,0,0,714.27,232a218.63,218.63,0,0,0-34-33.62c-6.38-5.11-12.86-10-18.94-15.93-5.84-5.67-11.59-12.49-15.15-21.7-3.09-8-3.65-17.05-.44-25.12s8.84-13.86,14.35-18c13.29-10,28.74-12.71,43.28-15.46A424.61,424.61,0,0,1,797.51,95q11.46.42,22.91,1.45c1.5.13,1.49-3.4,0-3.54Z" transform="translate(0 -16.03)" fill="#c0c2a9" stroke="#c0c2a9" stroke-miterlimit="10" stroke-width="4"/><polygon points="763.67 157.02 752.62 151.15 753.45 150.71 764.5 156.58 763.67 157.02" fill="#686868"/><polygon points="754.03 157.02 753.21 156.58 764.25 150.71 765.08 151.15 754.03 157.02" fill="#686868"/><rect x="672.51" y="127.13" width="1.17" height="3.51" transform="translate(251.43 653.1) rotate(-62.87)" fill="#686868"/><path d="M736.51,162l-6.21-3.18.53-1L737,161Zm-12.42-6.36-6.21-3.18.53-1.05,6.21,3.19Zm-12.43-6.37-6.21-3.18.54-1,6.21,3.18Zm-12.42-6.36L693,139.75l.53-1,6.21,3.19Zm-12.42-6.37-6.22-3.18.54-1,6.21,3.18Z" transform="translate(0 -16.03)" fill="#686868"/><rect x="743.97" y="163.74" width="1.17" height="3.51" transform="translate(257.72 736.61) rotate(-62.87)" fill="#686868"/><path d="M774.14,160.16v0l0-1,5.49-8-5.49,7.21,0,.22-.19-8.16,4.75-8.26L773.89,149l.05-16.89v0l-.32,13.31L769.3,140l4.31,6.55-.09,7.29-4-7.12,4,8.19,0,4.06-.15,11.23v.84c.37,0,.73,0,1.09,0l-.25-10.79Z" transform="translate(0 -16.03)" fill="#686868"/><path d="M747.84,163.67v0l0-1,5.49-8-5.49,7.22,0,.21-.19-8.15,4.75-8.27-4.76,6.84,0-16.89v0l-.32,13.31L743,143.51l4.31,6.56-.09,7.29-4-7.12,4,8.19-.05,4L747,173.72v.84l1.09,0-.25-10.79Z" transform="translate(0 -16.03)" fill="#686868"/><path d="M760.7,152.56v0l0-1,5.5-8-5.49,7.21,0,.22-.19-8.15,4.75-8.27-4.76,6.83,0-16.88v0l-.32,13.31-4.32-5.4,4.31,6.55-.1,7.29-4-7.11,4,8.19,0,4-.15,11.23v.84c.37,0,.73,0,1.09,0l-.25-10.79Z" transform="translate(0 -16.03)" fill="#686868"/><circle id="b976e5d9-dee4-42a5-b1ec-e25a04586d0d" data-name="a7ca0488-8ee6-49e2-b245-2872b84c042e" cx="531.02" cy="468.54" r="20.71" fill="#b4c738"/><polygon points="654.15 251.31 654.15 284.35 606.12 284.35 597.25 295 598.26 284.35 593.95 284.35 593.95 251.31 654.15 251.31" fill="#b4c738"/><polygon points="683.21 253.27 683.21 274.46 714 274.46 719.69 281.28 719.04 274.46 721.81 274.46 721.81 253.27 683.21 253.27" fill="#333"/><polygon points="720.33 306.48 720.33 318.84 665.57 318.84 657.66 328.33 658.57 318.84 654.72 318.84 654.72 306.48 720.33 306.48" fill="#333"/><circle cx="677.48" cy="312.64" r="2.24"/><circle cx="669.92" cy="312.64" r="2.24"/><circle cx="662.36" cy="312.64" r="2.24"/><path id="feef4ddb-08d7-444d-a2fe-bf659713bb89" data-name="efdf5e1f-6b90-40c1-9274-afa2b16f39be" d="M633,818.4s-7.87-19.37,15.74-33.89Z" transform="translate(0 -16.03)" fill="#191919"/><path id="a8da3017-bd67-4adf-83f6-b808212598b5" data-name="af7fe47f-56e6-4bb6-aa0f-d6efaf86a160" d="M623.27,818.05s-2.4-13.81-21-13.69Z" transform="translate(0 -16.03)" fill="#191919"/><path id="fc30a58f-835f-4381-8372-71778ddb1a1b" data-name="a08d42bc-6ae2-46d7-9736-aba59e52cc48" d="M800.75,818.4s-10.39-25.59,20.79-44.78Z" transform="translate(0 -16.03)" fill="#191919"/><path id="a3caa4ef-ea1b-42e3-962b-c7a1643f7f12" data-name="bafd7749-4c33-42a1-9524-e744b9f16454" d="M788,817.94s-3.17-18.24-27.72-18.09" transform="translate(0 -16.03)" fill="#191919"/><path d="M757.58,87.27a1.72,1.72,0,0,1-1.72-1.72v-62a1.72,1.72,0,1,1,3.44,0v62A1.72,1.72,0,0,1,757.58,87.27Z" transform="translate(0 -16.03)" fill="#c0c2a9"/><path d="M809.88,22.35c-1.52-1.33-6.71-5.45-13.42-6.2-5-.56-10.87.76-16.66,6.56-4.65,4.64-9,6.84-13,6.55s-6.8-3.21-8-4.91a.71.71,0,0,0-1.29.43V46.21a.72.72,0,0,0,.41.65c1.56.74,7.2,3.2,12.87,3.2a12.58,12.58,0,0,0,9.21-3.39.46.46,0,0,0,.07-.07c4.5-4.37,14.41-3.48,21.64-2.05,3,.6,5.53,1.28,7,1.71a1.27,1.27,0,0,0,1.59-.88,1.12,1.12,0,0,0,0-.36V23.32A1.31,1.31,0,0,0,809.88,22.35Z" transform="translate(0 -16.03)" fill="coral"/></svg>